$MeshFormat
4.1 0 8
$EndMeshFormat
$Entities
0 0 1 0
0 0 -30.4428927467 -0.4428927467 10 30.4428927467 0.4428927467 0 0 
$EndEntities
$Nodes
1 108 1 108
2 0 0 108
1
2
3
4
5
6
7
8
9
10
11
12
13
14
15
16
17
18
19
20
21
22
23
24
25
26
27
28
29
30
31
32
33
34
35
36
37
38
39
40
41
42
43
44
45
46
47
48
49
50
51
52
53
54
55
56
57
58
59
60
61
62
63
64
65
66
67
68
69
70
71
72
73
74
75
76
77
78
79
80
81
82
83
84
85
86
87
88
89
90
91
92
93
94
95
96
97
98
99
100
101
102
103
104
105
106
107
108
8.620013524699999 0 0.150370898
6.7835063082 0 0.2966318224
4.9469990917 0 0.4428927467
10 0 0
8.620013524699999 0 -0.150370898
10 6 0
8.620013524699999 6 -0.150370898
4.9469990917 0 -0.4428927467
6.7835063082 0 -0.2966318224
4.9469990917 6 -0.4428927467
1.2655783651 6 -0.422895366
1.2655783651 0 -0.422895366
0 6 0
0 0 0
1.2655783651 0 0.422895366
1.2655783651 6 0.422895366
4.9469990917 6 0.4428927467
8.620013524699999 6 0.150370898
10 12 0
8.620013524699999 12 -0.150370898
4.9469990917 12 -0.4428927467
1.2655783651 12 -0.422895366
0 12 0
1.2655783651 12 0.422895366
4.9469990917 12 0.4428927467
8.620013524699999 12 0.150370898
10 18 0
8.620013524699999 18 -0.150370898
4.9469990917 18 -0.4428927467
1.2655783651 18 -0.422895366
0 18 0
1.2655783651 18 0.422895366
4.9469990917 18 0.4428927467
8.620013524699999 18 0.150370898
8.620013524699999 24 -0.150370898
10 24 0
4.9469990917 24 -0.4428927467
1.2655783651 24 -0.422895366
0 24 0
1.2655783651 24 0.422895366
4.9469990917 24 0.4428927467
8.620013524699999 24 0.150370898
8.620013524699999 30 -0.150370898
10 30 0
4.9469990917 30 -0.4428927467
1.2655783651 30 -0.422895366
0 30 0
1.2655783651 30 0.422895366
4.9469990917 30 0.4428927467
8.620013524699999 30 0.150370898
8.620013524699999 30.1063074332 -0.1063074332
4.9469990917 30.3131110588 -0.3131110588
1.2655783651 30.2989735478 -0.2989735478
1.2655783651 30.2989735478 0.2989735478
4.9469990917 30.3131110588 0.3131110588
8.620013524699999 30.1063074332 0.1063074332
8.620013524699999 30.150370898 0
4.9469990917 30.4428927467 0
1.2655783651 30.422895366 -0
10 -6 0
8.620013524699999 -6 -0.150370898
4.9469990917 -6 -0.4428927467
1.2655783651 -6 -0.422895366
0 -6 0
1.2655783651 -6 0.422895366
4.9469990917 -6 0.4428927467
8.620013524699999 -6 0.150370898
10 -12 0
8.620013524699999 -12 -0.150370898
4.9469990917 -12 -0.4428927467
1.2655783651 -12 -0.422895366
0 -12 0
1.2655783651 -12 0.422895366
4.9469990917 -12 0.4428927467
8.620013524699999 -12 0.150370898
10 -18 0
8.620013524699999 -18 -0.150370898
4.9469990917 -18 -0.4428927467
1.2655783651 -18 -0.422895366
0 -18 0
1.2655783651 -18 0.422895366
4.9469990917 -18 0.4428927467
8.620013524699999 -18 0.150370898
10 -24 0
8.620013524699999 -24 -0.150370898
4.9469990917 -24 -0.4428927467
1.2655783651 -24 -0.422895366
0 -24 0
1.2655783651 -24 0.422895366
4.9469990917 -24 0.4428927467
8.620013524699999 -24 0.150370898
10 -30 0
8.620013524699999 -30 -0.150370898
4.9469990917 -30 -0.4428927467
1.2655783651 -30 -0.422895366
0 -30 0
1.2655783651 -30 0.422895366
4.9469990917 -30 0.4428927467
8.620013524699999 -30 0.150370898
8.620013524699999 -30.1063074332 -0.1063074332
4.9469990917 -30.3131110588 -0.3131110588
1.2655783651 -30.2989735478 -0.2989735478
1.2655783651 -30.2989735478 0.2989735478
4.9469990917 -30.3131110588 0.3131110588
8.620013524699999 -30.1063074332 0.1063074332
8.620013524699999 -30.150370898 0
4.9469990917 -30.4428927467 0
1.2655783651 -30.422895366 -0
$EndNodes
$Elements
1 210 1 210
2 0 2 210
1 1 3 2 
2 4 6 5 
3 6 7 5 
4 8 9 7 
5 9 5 7 
6 7 10 8 
7 8 10 11 
8 8 11 12 
9 12 11 13 
10 12 13 14 
11 14 13 15 
12 13 16 15 
13 15 16 3 
14 16 17 3 
15 3 17 18 
16 3 18 1 
17 1 18 6 
18 1 6 4 
19 6 19 7 
20 19 20 7 
21 7 20 10 
22 20 21 10 
23 10 21 22 
24 10 22 11 
25 11 22 23 
26 11 23 13 
27 13 23 16 
28 23 24 16 
29 16 24 17 
30 24 25 17 
31 17 25 26 
32 17 26 18 
33 18 26 19 
34 18 19 6 
35 19 27 20 
36 27 28 20 
37 20 28 21 
38 28 29 21 
39 21 29 30 
40 21 30 22 
41 22 30 31 
42 22 31 23 
43 23 31 24 
44 31 32 24 
45 24 32 25 
46 32 33 25 
47 25 33 34 
48 25 34 26 
49 26 34 27 
50 26 27 19 
51 27 36 35 
52 27 35 28 
53 28 35 37 
54 28 37 29 
55 29 37 30 
56 37 38 30 
57 30 38 31 
58 38 39 31 
59 31 39 40 
60 31 40 32 
61 32 40 41 
62 32 41 33 
63 33 41 34 
64 41 42 34 
65 34 42 27 
66 42 36 27 
67 36 44 43 
68 36 43 35 
69 35 43 45 
70 35 45 37 
71 37 45 38 
72 45 46 38 
73 38 46 39 
74 46 47 39 
75 39 47 48 
76 39 48 40 
77 40 48 49 
78 40 49 41 
79 41 49 42 
80 49 50 42 
81 42 50 36 
82 50 44 36 
83 44 51 43 
84 43 51 52 
85 43 52 45 
86 45 52 46 
87 52 53 46 
88 46 53 47 
89 47 54 48 
90 48 54 55 
91 48 55 49 
92 49 55 50 
93 55 56 50 
94 50 56 44 
95 44 57 51 
96 51 57 58 
97 51 58 52 
98 52 58 53 
99 58 59 53 
100 53 59 47 
101 47 59 54 
102 54 59 58 
103 54 58 55 
104 55 58 56 
105 58 57 56 
106 56 57 44 
107 4 5 60 
108 60 5 61 
109 5 8 61 
110 61 8 62 
111 8 63 62 
112 8 12 63 
113 12 64 63 
114 12 14 64 
115 14 15 64 
116 64 15 65 
117 15 3 65 
118 65 3 66 
119 3 67 66 
120 3 1 67 
121 1 60 67 
122 1 4 60 
123 60 61 68 
124 68 61 69 
125 61 62 69 
126 69 62 70 
127 62 71 70 
128 62 63 71 
129 63 72 71 
130 63 64 72 
131 64 65 72 
132 72 65 73 
133 65 66 73 
134 73 66 74 
135 66 75 74 
136 66 67 75 
137 67 68 75 
138 67 60 68 
139 68 69 76 
140 76 69 77 
141 69 70 77 
142 77 70 78 
143 70 79 78 
144 70 71 79 
145 71 80 79 
146 71 72 80 
147 72 73 80 
148 80 73 81 
149 73 74 81 
150 81 74 82 
151 74 83 82 
152 74 75 83 
153 75 76 83 
154 75 68 76 
155 76 85 84 
156 76 77 85 
157 77 86 85 
158 77 78 86 
159 78 79 86 
160 86 79 87 
161 79 80 87 
162 87 80 88 
163 80 89 88 
164 80 81 89 
165 81 90 89 
166 81 82 90 
167 82 83 90 
168 90 83 91 
169 83 76 91 
170 91 76 84 
171 84 93 92 
172 84 85 93 
173 85 94 93 
174 85 86 94 
175 86 87 94 
176 94 87 95 
177 87 88 95 
178 95 88 96 
179 88 97 96 
180 88 89 97 
181 89 98 97 
182 89 90 98 
183 90 91 98 
184 98 91 99 
185 91 84 99 
186 99 84 92 
187 92 93 100 
188 93 101 100 
189 93 94 101 
190 94 95 101 
191 101 95 102 
192 95 96 102 
193 96 97 103 
194 97 104 103 
195 97 98 104 
196 98 99 104 
197 104 99 105 
198 99 92 105 
199 92 100 106 
200 100 107 106 
201 100 101 107 
202 101 102 107 
203 107 102 108 
204 102 96 108 
205 96 103 108 
206 103 107 108 
207 103 104 107 
208 104 105 107 
209 107 105 106 
210 105 92 106 
$EndElements
