$MeshFormat
4.1 0 8
$EndMeshFormat
$Entities
0 0 1 0
0 0 -30.4975387246 -0.4992203864 10 30.4975387246 0.7159852863 0 0 
$EndEntities
$Nodes
1 434 1 434
2 0 0 434
1
2
3
4
5
6
7
8
9
10
11
12
13
14
15
16
17
18
19
20
21
22
23
24
25
26
27
28
29
30
31
32
33
34
35
36
37
38
39
40
41
42
43
44
45
46
47
48
49
50
51
52
53
54
55
56
57
58
59
60
61
62
63
64
65
66
67
68
69
70
71
72
73
74
75
76
77
78
79
80
81
82
83
84
85
86
87
88
89
90
91
92
93
94
95
96
97
98
99
100
101
102
103
104
105
106
107
108
109
110
111
112
113
114
115
116
117
118
119
120
121
122
123
124
125
126
127
128
129
130
131
132
133
134
135
136
137
138
139
140
141
142
143
144
145
146
147
148
149
150
151
152
153
154
155
156
157
158
159
160
161
162
163
164
165
166
167
168
169
170
171
172
173
174
175
176
177
178
179
180
181
182
183
184
185
186
187
188
189
190
191
192
193
194
195
196
197
198
199
200
201
202
203
204
205
206
207
208
209
210
211
212
213
214
215
216
217
218
219
220
221
222
223
224
225
226
227
228
229
230
231
232
233
234
235
236
237
238
239
240
241
242
243
244
245
246
247
248
249
250
251
252
253
254
255
256
257
258
259
260
261
262
263
264
265
266
267
268
269
270
271
272
273
274
275
276
277
278
279
280
281
282
283
284
285
286
287
288
289
290
291
292
293
294
295
296
297
298
299
300
301
302
303
304
305
306
307
308
309
310
311
312
313
314
315
316
317
318
319
320
321
322
323
324
325
326
327
328
329
330
331
332
333
334
335
336
337
338
339
340
341
342
343
344
345
346
347
348
349
350
351
352
353
354
355
356
357
358
359
360
361
362
363
364
365
366
367
368
369
370
371
372
373
374
375
376
377
378
379
380
381
382
383
384
385
386
387
388
389
390
391
392
393
394
395
396
397
398
399
400
401
402
403
404
405
406
407
408
409
410
411
412
413
414
415
416
417
418
419
420
421
422
423
424
425
426
427
428
429
430
431
432
433
434
10 0 0
9.6572483727 0 -0.0413430013
10 3.3333333333 0
9.657128656299999 3.3333333333 -0.0411378113
9.057774267499999 0 -0.1097561392
9.0574549632 3.3333333333 -0.1092585557
8.0842062164 0 -0.2108966157
8.083585242 3.3333333333 -0.2100954572
6.6787993017 0 -0.3350587459
6.6777830528 3.3333333333 -0.3341974239
4.9600505306 0 -0.4447830501
4.9586003707 3.3333333333 -0.4445730164
3.2365044342 3.3333333333 -0.4860109371
3.2383824167 0 -0.4843597559
1.8267209202 3.3333333333 -0.4297818326
1.8290971816 0 -0.4250566951
0.8539165055 3.3333333333 -0.3203811552
0.8566146157 0 -0.3148627591
0.2632953029 3.3333333333 -0.1998961877
0.2653551411 0 -0.1977554113
0 3.3333333333 0
0 0 0
0.1708868776 0 0.2852092986
0.1793235131 3.3333333333 0.2776329763
0.7274698495 0 0.5365209381
0.7391211577 3.3333333333 0.5174106476
1.7087923442 0 0.6928027253
1.7197832869 3.3333333333 0.6677783038
3.1430932581 0 0.7159852863
3.1518029599 3.3333333333 0.6919002974
4.8920254621 0 0.6220754867
4.8981336432 3.3333333333 0.6021662934000001
6.6393023634 3.3333333333 0.4396398158
6.6355085261 0 0.4536814368
8.061960323899999 3.3333333333 0.2714712849
8.0598781835 0 0.2799444218
9.0470155584 3.3333333333 0.139619975
9.0460299371 0 0.1439127359
9.653377519799999 3.3333333333 0.0522236248
9.653028344200001 0 0.0538145416
10 6.6666666667 0
9.657008939800001 6.6666666667 -0.0409326212
9.0571356589 6.6666666667 -0.1087609722
8.0829642676 6.6666666667 -0.2092942988
6.6767668039 6.6666666667 -0.3333361018
4.9571502109 6.6666666667 -0.4443629826
3.2346264516 6.6666666667 -0.4876621183
1.8243446587 6.6666666667 -0.4345069701
0.8512183953 6.6666666667 -0.3258995512
0.2612354646 6.6666666667 -0.202036964
0 6.6666666667 0
0.1877601485 6.6666666667 0.2700566541
0.750772466 6.6666666667 0.4983003571
1.7307742297 6.6666666667 0.6427538824
3.1605126616 6.6666666667 0.6678153086
4.9042418242 6.6666666667 0.5822571001
6.6430962007 6.6666666667 0.4255981947
8.0640424643 6.6666666667 0.2629981479
9.0480011796 6.6666666667 0.1353272141
9.6537266954 6.6666666667 0.050632708
10 10 0
9.6568892234 10 -0.0407274311
9.0568163545 10 -0.1082633887
8.082343293199999 10 -0.2084931403
6.675750555 10 -0.3324747797
4.955700051 10 -0.4441529489
3.2327484691 10 -0.4893132994
1.8219683973 10 -0.4392321075
0.8485202851 10 -0.3314179473
0.2591756264 10 -0.2041777403
0 10 0
0.196196784 10 0.2624803318
0.7624237743 10 0.4791900666
1.7417651724 10 0.617729461
3.1692223634 10 0.6437303197000001
4.9103500053 10 0.5623479067
6.646890038 10 0.4115565737
8.066124604600001 10 0.254525011
9.0489868009 10 0.1310344532
9.654075871 10 0.0490417912
10 13.3333333333 0
9.6567695069 13.3333333333 -0.040522241
9.056497050200001 13.3333333333 -0.1077658052
8.081722318800001 13.3333333333 -0.2076919818
6.6747343062 13.3333333333 -0.3316134577
4.9542498911 13.3333333333 -0.4439429152
3.2308704866 13.3333333333 -0.4909644806
1.8195921358 13.3333333333 -0.443957245
0.8458221749 13.3333333333 -0.3369363433
0.2571157881 13.3333333333 -0.2063185166
0 13.3333333333 0
0.2046334195 13.3333333333 0.2549040096
0.7740750825 13.3333333333 0.4600797761
1.7527561151 13.3333333333 0.5927050395
3.1779320651 13.3333333333 0.6196453307999999
4.9164581864 13.3333333333 0.5424387134
6.6506838753 13.3333333333 0.3975149526
8.068206744999999 13.3333333333 0.2460518741
9.0499724222 13.3333333333 0.1267416923
9.6544250466 13.3333333333 0.0474508745
10 16.6666666667 0
9.656649790399999 16.6666666667 -0.0403170509
9.056177745899999 16.6666666667 -0.1072682217
8.0811013444 16.6666666667 -0.2068908234
6.6737180573 16.6666666667 -0.3307521356
4.9527997312 16.6666666667 -0.4437328815
3.228992504 16.6666666667 -0.4926156618
1.8172158744 16.6666666667 -0.4486823825
0.8431240647 16.6666666667 -0.3424547394
0.2550559499 16.6666666667 -0.208459293
0 16.6666666667 0
0.2130700549 16.6666666667 0.2473276873
0.7857263908 16.6666666667 0.4409694856
1.7637470578 16.6666666667 0.5676806181
3.1866417669 16.6666666667 0.5955603419
4.9225663674 16.6666666667 0.5225295201
6.6544777126 16.6666666667 0.3834733316
8.0702888854 16.6666666667 0.2375787372
9.0509580435 16.6666666667 0.1224489314
9.6547742222 16.6666666667 0.0458599577
10 20 0
9.656530074000001 20 -0.0401118608
9.0558584416 20 -0.1067706382
8.08048037 20 -0.2060896649
6.6727018084 20 -0.3298908136
4.9513495713 20 -0.4435228478
3.2271145215 20 -0.4942668429
1.814839613 20 -0.4534075199
0.8404259545 20 -0.3479731354
0.2529961116 20 -0.2106000693
0 20 0
0.2215066904 20 0.239751365
0.7973776991 20 0.4218591951
1.7747380005 20 0.5426561967
3.1953514686 20 0.5714753531
4.9286745485 20 0.5026203267
6.6582715499 20 0.3694317105
8.072371025700001 20 0.2291056003
9.0519436648 20 0.1181561704
9.655123397800001 20 0.0442690409
10 23.3333333333 0
9.6564103575 23.3333333333 -0.0399066707
9.0555391373 23.3333333333 -0.1062730547
8.0798593956 23.3333333333 -0.2052885064
6.6716855595 23.3333333333 -0.3290294915
4.9498994115 23.3333333333 -0.4433128141
3.225236539 23.3333333333 -0.4959180241
1.8124633515 23.3333333333 -0.4581326574
0.8377278443 23.3333333333 -0.3534915315
0.2509362733 23.3333333333 -0.2127408456
0 23.3333333333 0
0.2299433259 23.3333333333 0.2321750428
0.8090290073 23.3333333333 0.4027489046
1.7857289432 23.3333333333 0.5176317752
3.2040611704 23.3333333333 0.5473903642
4.9347827296 23.3333333333 0.4827111334
6.6620653872 23.3333333333 0.3553900895
8.0744531661 23.3333333333 0.2206324633
9.052929285999999 23.3333333333 0.1138634095
9.655472573400001 23.3333333333 0.0426781241
10 26.6666666667 0
9.6562906411 26.6666666667 -0.0397014806
9.055219832900001 26.6666666667 -0.1057754712
8.079238421299999 26.6666666667 -0.204487348
6.6706693107 26.6666666667 -0.3281681695
4.9484492516 26.6666666667 -0.4431027804
3.2233585564 26.6666666667 -0.4975692053
1.8100870901 26.6666666667 -0.4628577949
0.8350297341 26.6666666667 -0.3590099275
0.2488764351 26.6666666667 -0.214881622
0 26.6666666667 0
0.2383799614 26.6666666667 0.2245987205
0.8206803156 26.6666666667 0.3836386141
1.7967198859 26.6666666667 0.4926073538
3.2127708721 26.6666666667 0.5233053753
4.9408909106 26.6666666667 0.46280194
6.6658592245 26.6666666667 0.3413484684
8.0765353065 26.6666666667 0.2121593264
9.053914907299999 26.6666666667 0.1095706486
9.655821748999999 26.6666666667 0.0410872073
10 30 0
9.6561709246 30 -0.0394962905
9.054900528599999 30 -0.1052778877
8.078617446899999 30 -0.2036861895
6.6696530618 30 -0.3273068474
4.9469990917 30 -0.4428927467
3.2214805739 30 -0.4992203864
1.8077108286 30 -0.4675829324
0.8323316239 30 -0.3645283236
0.2468165968 30 -0.2170223983
0 30 0
0.2468165968 30 0.2170223983
0.8323316239 30 0.3645283236
1.8077108286 30 0.4675829324
3.2214805739 30 0.4992203864
4.9469990917 30 0.4428927467
6.6696530618 30 0.3273068474
8.078617446899999 30 0.2036861895
9.054900528599999 30 0.1052778877
9.6561709246 30 0.0394962905
9.656171670599999 30.0279098386 -0.0279264888
9.054904089700001 30.0743742875 -0.07444550229999999
8.078632475999999 30.1438112122 -0.1440675042
6.6697005966 30.2309220741 -0.231594434
4.9471135539 30.3122474771 -0.3135625306
3.2216774409 30.3518468656 -0.353699203
1.8079431627 30.3296445069 -0.3315353488
0.8325149158 30.2572281583 -0.2583980069
0.2468925873 30.1533132211 -0.1535890018
0.2470339805 30.1533129788 0.1531418067
0.8328392233 30.2572265879 0.2564974584
1.8083303971 30.3296413824 0.3285933724
3.2220048636 30.3518438516 0.3509825407
4.947320958 30.3122457009 0.3117172503
6.6697983965 30.2309214321 0.2306796223
8.078667771099999 30.1438110565 0.1437259289
9.054913535100001 30.0743742634 0.0743519
9.6561738303 30.0279098348 0.0279047803
9.6561735071 30.0394765161 -1.53525e-05
9.054912245100001 30.1051946032 -6.619510000000001e-05
8.0786636619 30.2033945887 -0.0002415471
6.6697894417 30.3265740896 -0.0006468721
4.9473076033 30.4415558593 -0.001304729
3.2219904618 30.4975387246 -0.0019207937
1.8083131758 30.4661554134 -0.0020801571
0.8328201683000001 30.3637822463 -0.0013439195
0.2470240698 30.2168448233 -0.0003162545
10 -3.3333333333 0
9.657128656299999 -3.3333333333 -0.0411378113
9.0574549632 -3.3333333333 -0.1092585557
8.083585242 -3.3333333333 -0.2100954572
6.6777830528 -3.3333333333 -0.3341974239
4.9586003707 -3.3333333333 -0.4445730164
3.2365044342 -3.3333333333 -0.4860109371
1.8267209202 -3.3333333333 -0.4297818326
0.8539165055 -3.3333333333 -0.3203811552
0.2632953029 -3.3333333333 -0.1998961877
0 -3.3333333333 0
0.1793235131 -3.3333333333 0.2776329763
0.7391211577 -3.3333333333 0.5174106476
1.7197832869 -3.3333333333 0.6677783038
3.1518029599 -3.3333333333 0.6919002974
4.8981336432 -3.3333333333 0.6021662934000001
6.6393023634 -3.3333333333 0.4396398158
8.061960323899999 -3.3333333333 0.2714712849
9.0470155584 -3.3333333333 0.139619975
9.653377519799999 -3.3333333333 0.0522236248
10 -6.6666666667 0
9.657008939800001 -6.6666666667 -0.0409326212
9.0571356589 -6.6666666667 -0.1087609722
8.0829642676 -6.6666666667 -0.2092942988
6.6767668039 -6.6666666667 -0.3333361018
4.9571502109 -6.6666666667 -0.4443629826
3.2346264516 -6.6666666667 -0.4876621183
1.8243446587 -6.6666666667 -0.4345069701
0.8512183953 -6.6666666667 -0.3258995512
0.2612354646 -6.6666666667 -0.202036964
0 -6.6666666667 0
0.1877601485 -6.6666666667 0.2700566541
0.750772466 -6.6666666667 0.4983003571
1.7307742297 -6.6666666667 0.6427538824
3.1605126616 -6.6666666667 0.6678153086
4.9042418242 -6.6666666667 0.5822571001
6.6430962007 -6.6666666667 0.4255981947
8.0640424643 -6.6666666667 0.2629981479
9.0480011796 -6.6666666667 0.1353272141
9.6537266954 -6.6666666667 0.050632708
10 -10 0
9.6568892234 -10 -0.0407274311
9.0568163545 -10 -0.1082633887
8.082343293199999 -10 -0.2084931403
6.675750555 -10 -0.3324747797
4.955700051 -10 -0.4441529489
3.2327484691 -10 -0.4893132994
1.8219683973 -10 -0.4392321075
0.8485202851 -10 -0.3314179473
0.2591756264 -10 -0.2041777403
0 -10 0
0.196196784 -10 0.2624803318
0.7624237743 -10 0.4791900666
1.7417651724 -10 0.617729461
3.1692223634 -10 0.6437303197000001
4.9103500053 -10 0.5623479067
6.646890038 -10 0.4115565737
8.066124604600001 -10 0.254525011
9.0489868009 -10 0.1310344532
9.654075871 -10 0.0490417912
10 -13.3333333333 0
9.6567695069 -13.3333333333 -0.040522241
9.056497050200001 -13.3333333333 -0.1077658052
8.081722318800001 -13.3333333333 -0.2076919818
6.6747343062 -13.3333333333 -0.3316134577
4.9542498911 -13.3333333333 -0.4439429152
3.2308704866 -13.3333333333 -0.4909644806
1.8195921358 -13.3333333333 -0.443957245
0.8458221749 -13.3333333333 -0.3369363433
0.2571157881 -13.3333333333 -0.2063185166
0 -13.3333333333 0
0.2046334195 -13.3333333333 0.2549040096
0.7740750825 -13.3333333333 0.4600797761
1.7527561151 -13.3333333333 0.5927050395
3.1779320651 -13.3333333333 0.6196453307999999
4.9164581864 -13.3333333333 0.5424387134
6.6506838753 -13.3333333333 0.3975149526
8.068206744999999 -13.3333333333 0.2460518741
9.0499724222 -13.3333333333 0.1267416923
9.6544250466 -13.3333333333 0.0474508745
10 -16.6666666667 0
9.656649790399999 -16.6666666667 -0.0403170509
9.056177745899999 -16.6666666667 -0.1072682217
8.0811013444 -16.6666666667 -0.2068908234
6.6737180573 -16.6666666667 -0.3307521356
4.9527997312 -16.6666666667 -0.4437328815
3.228992504 -16.6666666667 -0.4926156618
1.8172158744 -16.6666666667 -0.4486823825
0.8431240647 -16.6666666667 -0.3424547394
0.2550559499 -16.6666666667 -0.208459293
0 -16.6666666667 0
0.2130700549 -16.6666666667 0.2473276873
0.7857263908 -16.6666666667 0.4409694856
1.7637470578 -16.6666666667 0.5676806181
3.1866417669 -16.6666666667 0.5955603419
4.9225663674 -16.6666666667 0.5225295201
6.6544777126 -16.6666666667 0.3834733316
8.0702888854 -16.6666666667 0.2375787372
9.0509580435 -16.6666666667 0.1224489314
9.6547742222 -16.6666666667 0.0458599577
10 -20 0
9.656530074000001 -20 -0.0401118608
9.0558584416 -20 -0.1067706382
8.08048037 -20 -0.2060896649
6.6727018084 -20 -0.3298908136
4.9513495713 -20 -0.4435228478
3.2271145215 -20 -0.4942668429
1.814839613 -20 -0.4534075199
0.8404259545 -20 -0.3479731354
0.2529961116 -20 -0.2106000693
0 -20 0
0.2215066904 -20 0.239751365
0.7973776991 -20 0.4218591951
1.7747380005 -20 0.5426561967
3.1953514686 -20 0.5714753531
4.9286745485 -20 0.5026203267
6.6582715499 -20 0.3694317105
8.072371025700001 -20 0.2291056003
9.0519436648 -20 0.1181561704
9.655123397800001 -20 0.0442690409
10 -23.3333333333 0
9.6564103575 -23.3333333333 -0.0399066707
9.0555391373 -23.3333333333 -0.1062730547
8.0798593956 -23.3333333333 -0.2052885064
6.6716855595 -23.3333333333 -0.3290294915
4.9498994115 -23.3333333333 -0.4433128141
3.225236539 -23.3333333333 -0.4959180241
1.8124633515 -23.3333333333 -0.4581326574
0.8377278443 -23.3333333333 -0.3534915315
0.2509362733 -23.3333333333 -0.2127408456
0 -23.3333333333 0
0.2299433259 -23.3333333333 0.2321750428
0.8090290073 -23.3333333333 0.4027489046
1.7857289432 -23.3333333333 0.5176317752
3.2040611704 -23.3333333333 0.5473903642
4.9347827296 -23.3333333333 0.4827111334
6.6620653872 -23.3333333333 0.3553900895
8.0744531661 -23.3333333333 0.2206324633
9.052929285999999 -23.3333333333 0.1138634095
9.655472573400001 -23.3333333333 0.0426781241
10 -26.6666666667 0
9.6562906411 -26.6666666667 -0.0397014806
9.055219832900001 -26.6666666667 -0.1057754712
8.079238421299999 -26.6666666667 -0.204487348
6.6706693107 -26.6666666667 -0.3281681695
4.9484492516 -26.6666666667 -0.4431027804
3.2233585564 -26.6666666667 -0.4975692053
1.8100870901 -26.6666666667 -0.4628577949
0.8350297341 -26.6666666667 -0.3590099275
0.2488764351 -26.6666666667 -0.214881622
0 -26.6666666667 0
0.2383799614 -26.6666666667 0.2245987205
0.8206803156 -26.6666666667 0.3836386141
1.7967198859 -26.6666666667 0.4926073538
3.2127708721 -26.6666666667 0.5233053753
4.9408909106 -26.6666666667 0.46280194
6.6658592245 -26.6666666667 0.3413484684
8.0765353065 -26.6666666667 0.2121593264
9.053914907299999 -26.6666666667 0.1095706486
9.655821748999999 -26.6666666667 0.0410872073
10 -30 0
9.6561709246 -30 -0.0394962905
9.054900528599999 -30 -0.1052778877
8.078617446899999 -30 -0.2036861895
6.6696530618 -30 -0.3273068474
4.9469990917 -30 -0.4428927467
3.2214805739 -30 -0.4992203864
1.8077108286 -30 -0.4675829324
0.8323316239 -30 -0.3645283236
0.2468165968 -30 -0.2170223983
0 -30 0
0.2468165968 -30 0.2170223983
0.8323316239 -30 0.3645283236
1.8077108286 -30 0.4675829324
3.2214805739 -30 0.4992203864
4.9469990917 -30 0.4428927467
6.6696530618 -30 0.3273068474
8.078617446899999 -30 0.2036861895
9.054900528599999 -30 0.1052778877
9.6561709246 -30 0.0394962905
9.656171670599999 -30.0279098386 -0.0279264888
9.054904089700001 -30.0743742875 -0.07444550229999999
8.078632475999999 -30.1438112122 -0.1440675042
6.6697005966 -30.2309220741 -0.231594434
4.9471135539 -30.3122474771 -0.3135625306
3.2216774409 -30.3518468656 -0.353699203
1.8079431627 -30.3296445069 -0.3315353488
0.8325149158 -30.2572281583 -0.2583980069
0.2468925873 -30.1533132211 -0.1535890018
0.2470339805 -30.1533129788 0.1531418067
0.8328392233 -30.2572265879 0.2564974584
1.8083303971 -30.3296413824 0.3285933724
3.2220048636 -30.3518438516 0.3509825407
4.947320958 -30.3122457009 0.3117172503
6.6697983965 -30.2309214321 0.2306796223
8.078667771099999 -30.1438110565 0.1437259289
9.054913535100001 -30.0743742634 0.0743519
9.6561738303 -30.0279098348 0.0279047803
9.6561735071 -30.0394765161 -1.53525e-05
9.054912245100001 -30.1051946032 -6.619510000000001e-05
8.0786636619 -30.2033945887 -0.0002415471
6.6697894417 -30.3265740896 -0.0006468721
4.9473076033 -30.4415558593 -0.001304729
3.2219904618 -30.4975387246 -0.0019207937
1.8083131758 -30.4661554134 -0.0020801571
0.8328201683000001 -30.3637822463 -0.0013439195
0.2470240698 -30.2168448233 -0.0003162545
$EndNodes
$Elements
1 864 1 864
2 0 2 864
1 1 3 2 
2 3 4 2 
3 2 4 5 
4 4 6 5 
5 5 6 7 
6 6 8 7 
7 7 8 9 
8 8 10 9 
9 9 10 11 
10 10 12 11 
11 11 12 13 
12 11 13 14 
13 14 13 15 
14 14 15 16 
15 16 15 17 
16 16 17 18 
17 18 17 19 
18 18 19 20 
19 20 19 21 
20 20 21 22 
21 22 21 23 
22 21 24 23 
23 23 24 25 
24 24 26 25 
25 25 26 27 
26 26 28 27 
27 27 28 29 
28 28 30 29 
29 29 30 31 
30 30 32 31 
31 31 32 33 
32 31 33 34 
33 34 33 35 
34 34 35 36 
35 36 35 37 
36 36 37 38 
37 38 37 39 
38 38 39 40 
39 40 39 3 
40 40 3 1 
41 3 41 4 
42 41 42 4 
43 4 42 6 
44 42 43 6 
45 6 43 8 
46 43 44 8 
47 8 44 10 
48 44 45 10 
49 10 45 12 
50 45 46 12 
51 12 46 47 
52 12 47 13 
53 13 47 48 
54 13 48 15 
55 15 48 49 
56 15 49 17 
57 17 49 50 
58 17 50 19 
59 19 50 51 
60 19 51 21 
61 21 51 24 
62 51 52 24 
63 24 52 26 
64 52 53 26 
65 26 53 28 
66 53 54 28 
67 28 54 30 
68 54 55 30 
69 30 55 32 
70 55 56 32 
71 32 56 57 
72 32 57 33 
73 33 57 58 
74 33 58 35 
75 35 58 59 
76 35 59 37 
77 37 59 60 
78 37 60 39 
79 39 60 41 
80 39 41 3 
81 41 61 42 
82 61 62 42 
83 42 62 43 
84 62 63 43 
85 43 63 44 
86 63 64 44 
87 44 64 45 
88 64 65 45 
89 45 65 46 
90 65 66 46 
91 46 66 67 
92 46 67 47 
93 47 67 68 
94 47 68 48 
95 48 68 69 
96 48 69 49 
97 49 69 70 
98 49 70 50 
99 50 70 71 
100 50 71 51 
101 51 71 52 
102 71 72 52 
103 52 72 53 
104 72 73 53 
105 53 73 54 
106 73 74 54 
107 54 74 55 
108 74 75 55 
109 55 75 56 
110 75 76 56 
111 56 76 77 
112 56 77 57 
113 57 77 78 
114 57 78 58 
115 58 78 79 
116 58 79 59 
117 59 79 80 
118 59 80 60 
119 60 80 61 
120 60 61 41 
121 61 81 62 
122 81 82 62 
123 62 82 63 
124 82 83 63 
125 63 83 64 
126 83 84 64 
127 64 84 65 
128 84 85 65 
129 65 85 66 
130 85 86 66 
131 66 86 87 
132 66 87 67 
133 67 87 88 
134 67 88 68 
135 68 88 89 
136 68 89 69 
137 69 89 90 
138 69 90 70 
139 70 90 91 
140 70 91 71 
141 71 91 72 
142 91 92 72 
143 72 92 73 
144 92 93 73 
145 73 93 74 
146 93 94 74 
147 74 94 75 
148 94 95 75 
149 75 95 76 
150 95 96 76 
151 76 96 97 
152 76 97 77 
153 77 97 98 
154 77 98 78 
155 78 98 99 
156 78 99 79 
157 79 99 100 
158 79 100 80 
159 80 100 81 
160 80 81 61 
161 81 101 82 
162 101 102 82 
163 82 102 83 
164 102 103 83 
165 83 103 84 
166 103 104 84 
167 84 104 85 
168 104 105 85 
169 85 105 86 
170 105 106 86 
171 86 106 107 
172 86 107 87 
173 87 107 108 
174 87 108 88 
175 88 108 109 
176 88 109 89 
177 89 109 110 
178 89 110 90 
179 90 110 111 
180 90 111 91 
181 91 111 92 
182 111 112 92 
183 92 112 93 
184 112 113 93 
185 93 113 94 
186 113 114 94 
187 94 114 95 
188 114 115 95 
189 95 115 96 
190 115 116 96 
191 96 116 117 
192 96 117 97 
193 97 117 118 
194 97 118 98 
195 98 118 119 
196 98 119 99 
197 99 119 120 
198 99 120 100 
199 100 120 101 
200 100 101 81 
201 101 121 102 
202 121 122 102 
203 102 122 103 
204 122 123 103 
205 103 123 104 
206 123 124 104 
207 104 124 105 
208 124 125 105 
209 105 125 106 
210 125 126 106 
211 106 126 127 
212 106 127 107 
213 107 127 128 
214 107 128 108 
215 108 128 129 
216 108 129 109 
217 109 129 130 
218 109 130 110 
219 110 130 131 
220 110 131 111 
221 111 131 112 
222 131 132 112 
223 112 132 113 
224 132 133 113 
225 113 133 114 
226 133 134 114 
227 114 134 115 
228 134 135 115 
229 115 135 116 
230 135 136 116 
231 116 136 137 
232 116 137 117 
233 117 137 138 
234 117 138 118 
235 118 138 139 
236 118 139 119 
237 119 139 140 
238 119 140 120 
239 120 140 121 
240 120 121 101 
241 121 141 122 
242 141 142 122 
243 122 142 123 
244 142 143 123 
245 123 143 124 
246 143 144 124 
247 124 144 125 
248 144 145 125 
249 125 145 126 
250 145 146 126 
251 126 146 147 
252 126 147 127 
253 127 147 148 
254 127 148 128 
255 128 148 149 
256 128 149 129 
257 129 149 150 
258 129 150 130 
259 130 150 151 
260 130 151 131 
261 131 151 132 
262 151 152 132 
263 132 152 133 
264 152 153 133 
265 133 153 134 
266 153 154 134 
267 134 154 135 
268 154 155 135 
269 135 155 136 
270 155 156 136 
271 136 156 157 
272 136 157 137 
273 137 157 158 
274 137 158 138 
275 138 158 159 
276 138 159 139 
277 139 159 160 
278 139 160 140 
279 140 160 141 
280 140 141 121 
281 141 161 142 
282 161 162 142 
283 142 162 143 
284 162 163 143 
285 143 163 144 
286 163 164 144 
287 144 164 145 
288 164 165 145 
289 145 165 146 
290 165 166 146 
291 146 166 167 
292 146 167 147 
293 147 167 168 
294 147 168 148 
295 148 168 169 
296 148 169 149 
297 149 169 170 
298 149 170 150 
299 150 170 171 
300 150 171 151 
301 151 171 152 
302 171 172 152 
303 152 172 153 
304 172 173 153 
305 153 173 154 
306 173 174 154 
307 154 174 155 
308 174 175 155 
309 155 175 156 
310 175 176 156 
311 156 176 177 
312 156 177 157 
313 157 177 178 
314 157 178 158 
315 158 178 179 
316 158 179 159 
317 159 179 180 
318 159 180 160 
319 160 180 161 
320 160 161 141 
321 161 181 162 
322 181 182 162 
323 162 182 163 
324 182 183 163 
325 163 183 164 
326 183 184 164 
327 164 184 165 
328 184 185 165 
329 165 185 166 
330 185 186 166 
331 166 186 187 
332 166 187 167 
333 167 187 188 
334 167 188 168 
335 168 188 189 
336 168 189 169 
337 169 189 190 
338 169 190 170 
339 170 190 191 
340 170 191 171 
341 171 191 172 
342 191 192 172 
343 172 192 173 
344 192 193 173 
345 173 193 174 
346 193 194 174 
347 174 194 175 
348 194 195 175 
349 175 195 176 
350 195 196 176 
351 176 196 197 
352 176 197 177 
353 177 197 198 
354 177 198 178 
355 178 198 199 
356 178 199 179 
357 179 199 200 
358 179 200 180 
359 180 200 181 
360 180 181 161 
361 181 201 182 
362 182 201 202 
363 182 202 183 
364 183 202 203 
365 183 203 184 
366 184 203 204 
367 184 204 185 
368 185 204 205 
369 185 205 186 
370 186 205 187 
371 205 206 187 
372 187 206 188 
373 206 207 188 
374 188 207 189 
375 207 208 189 
376 189 208 190 
377 208 209 190 
378 190 209 191 
379 191 210 192 
380 192 210 211 
381 192 211 193 
382 193 211 212 
383 193 212 194 
384 194 212 213 
385 194 213 195 
386 195 213 214 
387 195 214 196 
388 196 214 197 
389 214 215 197 
390 197 215 198 
391 215 216 198 
392 198 216 199 
393 216 217 199 
394 199 217 200 
395 217 218 200 
396 200 218 181 
397 181 219 201 
398 201 219 220 
399 201 220 202 
400 202 220 221 
401 202 221 203 
402 203 221 222 
403 203 222 204 
404 204 222 223 
405 204 223 205 
406 205 223 206 
407 223 224 206 
408 206 224 207 
409 224 225 207 
410 207 225 208 
411 225 226 208 
412 208 226 209 
413 226 227 209 
414 209 227 191 
415 191 227 210 
416 210 227 226 
417 210 226 211 
418 211 226 225 
419 211 225 212 
420 212 225 224 
421 212 224 213 
422 213 224 223 
423 213 223 214 
424 214 223 215 
425 223 222 215 
426 215 222 216 
427 222 221 216 
428 216 221 217 
429 221 220 217 
430 217 220 218 
431 220 219 218 
432 218 219 181 
433 1 2 228 
434 228 2 229 
435 2 5 229 
436 229 5 230 
437 5 7 230 
438 230 7 231 
439 7 9 231 
440 231 9 232 
441 9 11 232 
442 232 11 233 
443 11 234 233 
444 11 14 234 
445 14 235 234 
446 14 16 235 
447 16 236 235 
448 16 18 236 
449 18 237 236 
450 18 20 237 
451 20 238 237 
452 20 22 238 
453 22 23 238 
454 238 23 239 
455 23 25 239 
456 239 25 240 
457 25 27 240 
458 240 27 241 
459 27 29 241 
460 241 29 242 
461 29 31 242 
462 242 31 243 
463 31 244 243 
464 31 34 244 
465 34 245 244 
466 34 36 245 
467 36 246 245 
468 36 38 246 
469 38 247 246 
470 38 40 247 
471 40 228 247 
472 40 1 228 
473 228 229 248 
474 248 229 249 
475 229 230 249 
476 249 230 250 
477 230 231 250 
478 250 231 251 
479 231 232 251 
480 251 232 252 
481 232 233 252 
482 252 233 253 
483 233 254 253 
484 233 234 254 
485 234 255 254 
486 234 235 255 
487 235 256 255 
488 235 236 256 
489 236 257 256 
490 236 237 257 
491 237 258 257 
492 237 238 258 
493 238 239 258 
494 258 239 259 
495 239 240 259 
496 259 240 260 
497 240 241 260 
498 260 241 261 
499 241 242 261 
500 261 242 262 
501 242 243 262 
502 262 243 263 
503 243 264 263 
504 243 244 264 
505 244 265 264 
506 244 245 265 
507 245 266 265 
508 245 246 266 
509 246 267 266 
510 246 247 267 
511 247 248 267 
512 247 228 248 
513 248 249 268 
514 268 249 269 
515 249 250 269 
516 269 250 270 
517 250 251 270 
518 270 251 271 
519 251 252 271 
520 271 252 272 
521 252 253 272 
522 272 253 273 
523 253 274 273 
524 253 254 274 
525 254 275 274 
526 254 255 275 
527 255 276 275 
528 255 256 276 
529 256 277 276 
530 256 257 277 
531 257 278 277 
532 257 258 278 
533 258 259 278 
534 278 259 279 
535 259 260 279 
536 279 260 280 
537 260 261 280 
538 280 261 281 
539 261 262 281 
540 281 262 282 
541 262 263 282 
542 282 263 283 
543 263 284 283 
544 263 264 284 
545 264 285 284 
546 264 265 285 
547 265 286 285 
548 265 266 286 
549 266 287 286 
550 266 267 287 
551 267 268 287 
552 267 248 268 
553 268 269 288 
554 288 269 289 
555 269 270 289 
556 289 270 290 
557 270 271 290 
558 290 271 291 
559 271 272 291 
560 291 272 292 
561 272 273 292 
562 292 273 293 
563 273 294 293 
564 273 274 294 
565 274 295 294 
566 274 275 295 
567 275 296 295 
568 275 276 296 
569 276 297 296 
570 276 277 297 
571 277 298 297 
572 277 278 298 
573 278 279 298 
574 298 279 299 
575 279 280 299 
576 299 280 300 
577 280 281 300 
578 300 281 301 
579 281 282 301 
580 301 282 302 
581 282 283 302 
582 302 283 303 
583 283 304 303 
584 283 284 304 
585 284 305 304 
586 284 285 305 
587 285 306 305 
588 285 286 306 
589 286 307 306 
590 286 287 307 
591 287 288 307 
592 287 268 288 
593 288 289 308 
594 308 289 309 
595 289 290 309 
596 309 290 310 
597 290 291 310 
598 310 291 311 
599 291 292 311 
600 311 292 312 
601 292 293 312 
602 312 293 313 
603 293 314 313 
604 293 294 314 
605 294 315 314 
606 294 295 315 
607 295 316 315 
608 295 296 316 
609 296 317 316 
610 296 297 317 
611 297 318 317 
612 297 298 318 
613 298 299 318 
614 318 299 319 
615 299 300 319 
616 319 300 320 
617 300 301 320 
618 320 301 321 
619 301 302 321 
620 321 302 322 
621 302 303 322 
622 322 303 323 
623 303 324 323 
624 303 304 324 
625 304 325 324 
626 304 305 325 
627 305 326 325 
628 305 306 326 
629 306 327 326 
630 306 307 327 
631 307 308 327 
632 307 288 308 
633 308 309 328 
634 328 309 329 
635 309 310 329 
636 329 310 330 
637 310 311 330 
638 330 311 331 
639 311 312 331 
640 331 312 332 
641 312 313 332 
642 332 313 333 
643 313 334 333 
644 313 314 334 
645 314 335 334 
646 314 315 335 
647 315 336 335 
648 315 316 336 
649 316 337 336 
650 316 317 337 
651 317 338 337 
652 317 318 338 
653 318 319 338 
654 338 319 339 
655 319 320 339 
656 339 320 340 
657 320 321 340 
658 340 321 341 
659 321 322 341 
660 341 322 342 
661 322 323 342 
662 342 323 343 
663 323 344 343 
664 323 324 344 
665 324 345 344 
666 324 325 345 
667 325 346 345 
668 325 326 346 
669 326 347 346 
670 326 327 347 
671 327 328 347 
672 327 308 328 
673 328 329 348 
674 348 329 349 
675 329 330 349 
676 349 330 350 
677 330 331 350 
678 350 331 351 
679 331 332 351 
680 351 332 352 
681 332 333 352 
682 352 333 353 
683 333 354 353 
684 333 334 354 
685 334 355 354 
686 334 335 355 
687 335 356 355 
688 335 336 356 
689 336 357 356 
690 336 337 357 
691 337 358 357 
692 337 338 358 
693 338 339 358 
694 358 339 359 
695 339 340 359 
696 359 340 360 
697 340 341 360 
698 360 341 361 
699 341 342 361 
700 361 342 362 
701 342 343 362 
702 362 343 363 
703 343 364 363 
704 343 344 364 
705 344 365 364 
706 344 345 365 
707 345 366 365 
708 345 346 366 
709 346 367 366 
710 346 347 367 
711 347 348 367 
712 347 328 348 
713 348 349 368 
714 368 349 369 
715 349 350 369 
716 369 350 370 
717 350 351 370 
718 370 351 371 
719 351 352 371 
720 371 352 372 
721 352 353 372 
722 372 353 373 
723 353 374 373 
724 353 354 374 
725 354 375 374 
726 354 355 375 
727 355 376 375 
728 355 356 376 
729 356 377 376 
730 356 357 377 
731 357 378 377 
732 357 358 378 
733 358 359 378 
734 378 359 379 
735 359 360 379 
736 379 360 380 
737 360 361 380 
738 380 361 381 
739 361 362 381 
740 381 362 382 
741 362 363 382 
742 382 363 383 
743 363 384 383 
744 363 364 384 
745 364 385 384 
746 364 365 385 
747 365 386 385 
748 365 366 386 
749 366 387 386 
750 366 367 387 
751 367 368 387 
752 367 348 368 
753 368 369 388 
754 388 369 389 
755 369 370 389 
756 389 370 390 
757 370 371 390 
758 390 371 391 
759 371 372 391 
760 391 372 392 
761 372 373 392 
762 392 373 393 
763 373 394 393 
764 373 374 394 
765 374 395 394 
766 374 375 395 
767 375 396 395 
768 375 376 396 
769 376 397 396 
770 376 377 397 
771 377 398 397 
772 377 378 398 
773 378 379 398 
774 398 379 399 
775 379 380 399 
776 399 380 400 
777 380 381 400 
778 400 381 401 
779 381 382 401 
780 401 382 402 
781 382 383 402 
782 402 383 403 
783 383 404 403 
784 383 384 404 
785 384 405 404 
786 384 385 405 
787 385 406 405 
788 385 386 406 
789 386 407 406 
790 386 387 407 
791 387 388 407 
792 387 368 388 
793 388 389 408 
794 389 409 408 
795 389 390 409 
796 390 410 409 
797 390 391 410 
798 391 411 410 
799 391 392 411 
800 392 412 411 
801 392 393 412 
802 393 394 412 
803 412 394 413 
804 394 395 413 
805 413 395 414 
806 395 396 414 
807 414 396 415 
808 396 397 415 
809 415 397 416 
810 397 398 416 
811 398 399 417 
812 399 418 417 
813 399 400 418 
814 400 419 418 
815 400 401 419 
816 401 420 419 
817 401 402 420 
818 402 421 420 
819 402 403 421 
820 403 404 421 
821 421 404 422 
822 404 405 422 
823 422 405 423 
824 405 406 423 
825 423 406 424 
826 406 407 424 
827 424 407 425 
828 407 388 425 
829 388 408 426 
830 408 427 426 
831 408 409 427 
832 409 428 427 
833 409 410 428 
834 410 429 428 
835 410 411 429 
836 411 430 429 
837 411 412 430 
838 412 413 430 
839 430 413 431 
840 413 414 431 
841 431 414 432 
842 414 415 432 
843 432 415 433 
844 415 416 433 
845 433 416 434 
846 416 398 434 
847 398 417 434 
848 417 433 434 
849 417 418 433 
850 418 432 433 
851 418 419 432 
852 419 431 432 
853 419 420 431 
854 420 430 431 
855 420 421 430 
856 421 422 430 
857 430 422 429 
858 422 423 429 
859 429 423 428 
860 423 424 428 
861 428 424 427 
862 424 425 427 
863 427 425 426 
864 425 388 426 
$EndElements
