$MeshFormat
4.1 0 8
$EndMeshFormat
$Entities
0 0 1 0
0 10.01 -30.0785250829 -0.3472963553 11.979615506 30.0785250829 0.08414036329999999 0 0 
$EndEntities
$Nodes
1 98 1 98
2 0 0 98
1
2
3
4
5
6
7
8
9
10
11
12
13
14
15
16
17
18
19
20
21
22
23
24
25
26
27
28
29
30
31
32
33
34
35
36
37
38
39
40
41
42
43
44
45
46
47
48
49
50
51
52
53
54
55
56
57
58
59
60
61
62
63
64
65
66
67
68
69
70
71
72
73
74
75
76
77
78
79
80
81
82
83
84
85
86
87
88
89
90
91
92
93
94
95
96
97
98
11.7035614293 -0.01 -0.3303199794
11.703192973 -0.0100020454 -0.3302964731
10.9724673865 -0.0100020045 -0.2599589508
10.9714921333 -0.0100009376 -0.2598655201
10.2605024655 -0.01 0.08414036330000001
10.2601684622 -0.01 0.0840281762
10.2605009259 -0.0100788003 0.0841078485
10.2611568144 -0.010067674 0.08399486759999999
10.9941715375 -0.010067674 -0.0472273312
10.9951453755 -0.01 -0.0473733089
11.7123704115 -0.01 -0.2583291585
10.9961029624 -0.0100176582 -0.047662454
11.7122021188 -0.0100176582 -0.2582871512
11.7127267383 -0.01 -0.2584477815
11.979615506 14.99 -0.3472963553
11.979615506 0.01 -0.3472963553
11.7035614293 0.01 -0.3303199794
11.7033771475 0 -0.3303086467
11.7028908846 14.99 -0.3296422637
11.703192973 0.0100020454 -0.3302964731
11.7031926644 0 -0.3302968774
10.9719796896 0 -0.2599124239
10.9724673865 0.0100020045 -0.2599589508
10.9702395993 14.99 -0.259453112
10.9714921333 0.0100009376 -0.2598655201
10.9714912554 0 -0.2598656312
10.2478294526 14.99 -0.122458696
10.9710096486 -0 -0.2597743016
10.2510734659 -0 -0.1176733819
10.2507541958 0.01 -0.117513296
10.01 14.99 0
10.2509149129 0 -0.1175917428
10.01 0.01 0
10.2507541958 -0.01 -0.117513296
10.01 -0.01 0
10.2603354638 0 0.0840842698
10.2601684622 0.01 0.0840281762
10.2672298723 14.99 0.0617407075
10.2605009259 0.0100788003 0.0841078485
10.2605069504 0 0.0841254302
10.9946600985 -0 -0.0473005662
10.2611568144 0.010067674 0.08399486759999999
10.9941715375 0.010067674 -0.0472273312
10.9974477456 14.99 -0.0659739711
10.9951427095 0.0100581023 -0.047397177
10.9951469104 0 -0.0473857093
10.9961029624 0.0100176582 -0.047662454
11.712701984 14.99 -0.2640409006
10.9956237466 -0 -0.0475177539
11.7122021188 0.0100176582 -0.2582871512
11.71236949 0.0100175782 -0.2583363797
11.7123706326 -0 -0.2583329664
11.7127267383 0.01 -0.2584477815
11.7125485749 -0 -0.25838847
11.979615506 -0.01 -0.3472963553
11.7025889036 29.99 -0.3289872132
11.979615506 29.99 -0.3472963553
10.9689871083 29.99 -0.2590403176
10.2445832753 29.99 -0.1272472024
10.01 29.99 0
10.2739572791 29.99 0.0393410517
10.9997501156 29.99 -0.08457463329999999
11.7130335565 29.99 -0.2697526428
11.7041192599 30.011257413 -0.3203098106
10.9734957559 30.0525876579 -0.2334969438
10.2488892693 30.0497662235 -0.1028769266
10.2696651461 30.0497662035 0.0148624094
10.9952458486 30.0525876437 -0.1101938962
11.7115032462 30.0112574125 -0.2784373698
11.7078112626 30.0200678768 -0.2993751081
10.9843717099 30.0785250829 -0.1718611448
10.25928008 30.0745349915 -0.0440297136
10.2605024655 0.01 0.08414036330000001
11.979615506 -14.99 -0.3472963553
11.7028908846 -14.99 -0.3296422637
10.9702395993 -14.99 -0.259453112
10.2478294526 -14.99 -0.122458696
10.01 -14.99 0
10.2672298723 -14.99 0.0617407075
10.9974477456 -14.99 -0.0659739711
11.712701984 -14.99 -0.2640409006
11.979615506 -29.99 -0.3472963553
11.7025889036 -29.99 -0.3289872132
10.9689871083 -29.99 -0.2590403176
10.2445832753 -29.99 -0.1272472024
10.01 -29.99 0
10.2739572791 -29.99 0.0393410517
10.9997501156 -29.99 -0.08457463329999999
11.7130335565 -29.99 -0.2697526428
11.7041192599 -30.011257413 -0.3203098106
10.9734957559 -30.0525876579 -0.2334969438
10.2488892693 -30.0497662235 -0.1028769266
10.2696651461 -30.0497662035 0.0148624094
10.9952458486 -30.0525876437 -0.1101938962
11.7115032462 -30.0112574125 -0.2784373698
11.7078112626 -30.0200678768 -0.2993751081
10.9843717099 -30.0785250829 -0.1718611448
10.25928008 -30.0745349915 -0.0440297136
$EndNodes
$Elements
1 189 1 189
2 0 2 189
1 4 3 2 
2 5 7 6 
3 5 8 7 
4 5 10 9 
5 5 9 8 
6 11 13 12 
7 12 10 11 
8 15 17 16 
9 1 17 18 
10 2 1 18 
11 16 17 1 
12 19 20 17 
13 21 2 18 
14 19 17 15 
15 2 22 4 
16 21 22 2 
17 19 23 20 
18 26 4 22 
19 24 23 19 
20 24 25 23 
21 25 24 27 
22 28 25 27 
23 28 4 26 
24 27 29 28 
25 30 27 31 
26 30 32 29 
27 29 27 30 
28 33 35 34 
29 31 33 30 
30 5 6 36 
31 31 37 33 
32 33 37 6 
33 38 73 39 
34 38 39 37 
35 40 5 36 
36 38 37 31 
37 5 41 10 
38 40 41 5 
39 38 43 42 
40 73 38 42 
41 46 10 41 
42 44 43 38 
43 44 45 43 
44 47 44 48 
45 45 44 47 
46 46 49 10 
47 48 51 50 
48 49 11 10 
49 52 11 49 
50 48 50 47 
51 53 48 15 
52 52 54 11 
53 51 48 53 
54 16 55 14 
55 15 16 53 
56 14 11 54 
57 15 57 56 
58 15 56 19 
59 19 56 58 
60 19 58 24 
61 24 58 27 
62 58 59 27 
63 27 59 31 
64 59 60 31 
65 31 60 61 
66 31 61 38 
67 38 61 62 
68 38 62 44 
69 44 62 48 
70 62 63 48 
71 48 63 15 
72 63 57 15 
73 57 64 56 
74 56 64 65 
75 56 65 58 
76 58 65 59 
77 65 66 59 
78 59 66 60 
79 60 67 61 
80 61 67 68 
81 61 68 62 
82 62 68 63 
83 68 69 63 
84 63 69 57 
85 57 70 64 
86 64 70 71 
87 64 71 65 
88 65 71 66 
89 71 72 66 
90 66 72 60 
91 60 72 67 
92 67 72 71 
93 67 71 68 
94 68 71 69 
95 71 70 69 
96 69 70 57 
97 20 23 25 
98 37 39 73 
99 43 45 73 
100 43 73 42 
101 47 50 51 
102 45 47 51 
103 55 1 74 
104 17 1 55 
105 17 20 18 
106 18 1 17 
107 1 2 75 
108 1 75 74 
109 18 20 21 
110 25 22 20 
111 2 3 75 
112 20 22 21 
113 25 26 22 
114 3 4 76 
115 3 76 75 
116 4 28 77 
117 25 28 26 
118 4 77 76 
119 29 77 28 
120 29 32 34 
121 77 29 34 
122 34 78 77 
123 34 35 78 
124 33 35 34 
125 37 73 36 
126 35 6 78 
127 33 37 6 
128 73 40 36 
129 6 7 79 
130 6 79 78 
131 45 41 73 
132 8 9 79 
133 73 41 40 
134 7 8 79 
135 45 46 41 
136 9 10 80 
137 9 80 79 
138 45 49 46 
139 10 12 80 
140 12 81 80 
141 51 52 49 
142 13 11 81 
143 45 51 49 
144 12 13 81 
145 51 54 52 
146 11 14 81 
147 14 74 81 
148 55 74 14 
149 16 55 14 
150 74 83 82 
151 74 75 83 
152 75 84 83 
153 75 76 84 
154 76 77 84 
155 84 77 85 
156 77 78 85 
157 85 78 86 
158 78 87 86 
159 78 79 87 
160 79 88 87 
161 79 80 88 
162 80 81 88 
163 88 81 89 
164 81 74 89 
165 89 74 82 
166 82 83 90 
167 83 91 90 
168 83 84 91 
169 84 85 91 
170 91 85 92 
171 85 86 92 
172 86 87 93 
173 87 94 93 
174 87 88 94 
175 88 89 94 
176 94 89 95 
177 89 82 95 
178 82 90 96 
179 90 97 96 
180 90 91 97 
181 91 92 97 
182 97 92 98 
183 92 86 98 
184 86 93 98 
185 93 97 98 
186 93 94 97 
187 94 95 97 
188 97 95 96 
189 95 82 96 
$EndElements
