$MeshFormat
4.1 0 8
$EndMeshFormat
$Entities
0 0 1 0
0 0 -30.4415558593 -0.4447830501 10 30.4415558593 0.6318068939 0 0 
$EndEntities
$Nodes
1 58 1 58
2 0 0 58
1
2
3
4
5
6
7
8
9
10
11
12
13
14
15
16
17
18
19
20
21
22
23
24
25
26
27
28
29
30
31
32
33
34
35
36
37
38
39
40
41
42
43
44
45
46
47
48
49
50
51
52
53
54
55
56
57
58
10 0 0
8.624124941 0 -0.1562975005
10 15 0
8.622069232899999 15 -0.1533341993
4.9600505306 0 -0.4447830501
4.9535248112 15 -0.4438378984
1.2774050913 15 -0.3964981109
1.2892318175 0 -0.3701008559
0 15 0
0 0 0
1.1604297469 0 0.6318068939
1.213004056 15 0.5273511299
4.8920254621 0 0.6220754867
4.9195122769 15 0.5324841167
8.6134216808 15 0.1782078528
8.606829836899999 0 0.2060448077
8.620013524699999 30 -0.150370898
10 30 0
4.9469990917 30 -0.4428927467
1.2655783651 30 -0.422895366
0 30 0
1.2655783651 30 0.422895366
4.9469990917 30 0.4428927467
8.620013524699999 30 0.150370898
8.6200208092 30.1062056153 -0.1063417983
4.9471135539 30.3122474771 -0.3135625306
1.2657959187 30.2982599817 -0.2998866349
1.2661709428 30.2982574859 0.2972838256
4.947320958 30.3122457009 0.3117172503
8.6200391457 30.1062055557 0.1061618111
8.620036794800001 30.1502133452 -0.0001272834
4.9473076033 30.4415558593 -0.001304729
1.2661511991 30.4217902023 -0.0018404143
10 -15 0
8.622069232899999 -15 -0.1533341993
4.9535248112 -15 -0.4438378984
1.2774050913 -15 -0.3964981109
0 -15 0
1.213004056 -15 0.5273511299
4.9195122769 -15 0.5324841167
8.6134216808 -15 0.1782078528
10 -30 0
8.620013524699999 -30 -0.150370898
4.9469990917 -30 -0.4428927467
1.2655783651 -30 -0.422895366
0 -30 0
1.2655783651 -30 0.422895366
4.9469990917 -30 0.4428927467
8.620013524699999 -30 0.150370898
8.6200208092 -30.1062056153 -0.1063417983
4.9471135539 -30.3122474771 -0.3135625306
1.2657959187 -30.2982599817 -0.2998866349
1.2661709428 -30.2982574859 0.2972838256
4.947320958 -30.3122457009 0.3117172503
8.6200391457 -30.1062055557 0.1061618111
8.620036794800001 -30.1502133452 -0.0001272834
4.9473076033 -30.4415558593 -0.001304729
1.2661511991 -30.4217902023 -0.0018404143
$EndNodes
$Elements
1 112 1 112
2 0 2 112
1 1 3 2 
2 3 4 2 
3 2 4 5 
4 4 6 5 
5 5 6 7 
6 5 7 8 
7 8 7 9 
8 8 9 10 
9 10 9 11 
10 9 12 11 
11 11 12 13 
12 12 14 13 
13 13 14 15 
14 13 15 16 
15 16 15 3 
16 16 3 1 
17 3 18 17 
18 3 17 4 
19 4 17 19 
20 4 19 6 
21 6 19 7 
22 19 20 7 
23 7 20 9 
24 20 21 9 
25 9 21 22 
26 9 22 12 
27 12 22 23 
28 12 23 14 
29 14 23 15 
30 23 24 15 
31 15 24 3 
32 24 18 3 
33 18 25 17 
34 17 25 26 
35 17 26 19 
36 19 26 20 
37 26 27 20 
38 20 27 21 
39 21 28 22 
40 22 28 29 
41 22 29 23 
42 23 29 24 
43 29 30 24 
44 24 30 18 
45 18 31 25 
46 25 31 32 
47 25 32 26 
48 26 32 27 
49 32 33 27 
50 27 33 21 
51 21 33 28 
52 28 33 32 
53 28 32 29 
54 29 32 30 
55 32 31 30 
56 30 31 18 
57 1 2 34 
58 34 2 35 
59 2 5 35 
60 35 5 36 
61 5 37 36 
62 5 8 37 
63 8 38 37 
64 8 10 38 
65 10 11 38 
66 38 11 39 
67 11 13 39 
68 39 13 40 
69 13 41 40 
70 13 16 41 
71 16 34 41 
72 16 1 34 
73 34 43 42 
74 34 35 43 
75 35 44 43 
76 35 36 44 
77 36 37 44 
78 44 37 45 
79 37 38 45 
80 45 38 46 
81 38 47 46 
82 38 39 47 
83 39 48 47 
84 39 40 48 
85 40 41 48 
86 48 41 49 
87 41 34 49 
88 49 34 42 
89 42 43 50 
90 43 51 50 
91 43 44 51 
92 44 45 51 
93 51 45 52 
94 45 46 52 
95 46 47 53 
96 47 54 53 
97 47 48 54 
98 48 49 54 
99 54 49 55 
100 49 42 55 
101 42 50 56 
102 50 57 56 
103 50 51 57 
104 51 52 57 
105 57 52 58 
106 52 46 58 
107 46 53 58 
108 53 57 58 
109 53 54 57 
110 54 55 57 
111 57 55 56 
112 55 42 56 
$EndElements
