$MeshFormat
4.1 0 8
$EndMeshFormat
$Entities
0 0 1 0
0 9.800000000000001 -30.0885250829 -1.5 11.5320508076 30.0885250829 -0.5 0 0 
$EndEntities
$Nodes
1 58 1 58
2 0 0 58
1
2
3
4
5
6
7
8
9
10
11
12
13
14
15
16
17
18
19
20
21
22
23
24
25
26
27
28
29
30
31
32
33
34
35
36
37
38
39
40
41
42
43
44
45
46
47
48
49
50
51
52
53
54
55
56
57
58
11.5320508076 0 -1.5
11.2781125068 0 -1.3894840153
11.5320508076 15 -1.5
11.2780527778 15 -1.3887651857
10.6146276477 0 -1.0730437372
10.6135918751 15 -1.0722274601
9.9816032409 15 -0.6964159965
9.9862914155 0 -0.6930265304
9.800000000000001 15 -0.5
9.800000000000001 0 -0.5
10.0641730174 0 -0.5066108106
10.0628335785 15 -0.5299605106
10.7095312139 0 -0.8814559113
10.7053329329 15 -0.8997222733
11.3097091831 15 -1.3304756625
11.3113511377 0 -1.3249949761
11.2779930489 30 -1.388046356
11.5320508076 30 -1.5
10.6125561025 30 -1.0714111831
9.9769150663 30 -0.6998054625
9.800000000000001 30 -0.5
10.0614941395 30 -0.5533102105
10.7011346519 30 -0.9179886352
11.3080672285 30 -1.3359563489
11.2823989599 30.021257413 -1.3804156775
10.6255291938 30.0625876579 -1.0489503115
9.9892965024 30.0597662235 -0.6783776309
10.0490886651 30.0597662035 -0.574844614
10.6881397214 30.0625876437 -0.9405223174
11.3036588556 30.0212574125 -1.3435939259
11.2930283976 30.0300678768 -1.3620062313
10.6568299324 30.0885250829 -0.9947514015
10.0191876027 30.0845349915 -0.6266332056
11.5320508076 -15 -1.5
11.2780527778 -15 -1.3887651857
10.6135918751 -15 -1.0722274601
9.9816032409 -15 -0.6964159965
9.800000000000001 -15 -0.5
10.0628335785 -15 -0.5299605106
10.7053329329 -15 -0.8997222733
11.3097091831 -15 -1.3304756625
11.5320508076 -30 -1.5
11.2779930489 -30 -1.388046356
10.6125561025 -30 -1.0714111831
9.9769150663 -30 -0.6998054625
9.800000000000001 -30 -0.5
10.0614941395 -30 -0.5533102105
10.7011346519 -30 -0.9179886352
11.3080672285 -30 -1.3359563489
11.2823989599 -30.021257413 -1.3804156775
10.6255291938 -30.0625876579 -1.0489503115
9.9892965024 -30.0597662235 -0.6783776309
10.0490886651 -30.0597662035 -0.574844614
10.6881397214 -30.0625876437 -0.9405223174
11.3036588556 -30.0212574125 -1.3435939259
11.2930283976 -30.0300678768 -1.3620062313
10.6568299324 -30.0885250829 -0.9947514015
10.0191876027 -30.0845349915 -0.6266332056
$EndNodes
$Elements
1 112 1 112
2 0 2 112
1 1 3 2 
2 3 4 2 
3 2 4 5 
4 4 6 5 
5 5 6 7 
6 5 7 8 
7 8 7 9 
8 8 9 10 
9 10 9 11 
10 9 12 11 
11 11 12 13 
12 12 14 13 
13 13 14 15 
14 13 15 16 
15 16 15 3 
16 16 3 1 
17 3 18 17 
18 3 17 4 
19 4 17 19 
20 4 19 6 
21 6 19 7 
22 19 20 7 
23 7 20 9 
24 20 21 9 
25 9 21 22 
26 9 22 12 
27 12 22 23 
28 12 23 14 
29 14 23 15 
30 23 24 15 
31 15 24 3 
32 24 18 3 
33 18 25 17 
34 17 25 26 
35 17 26 19 
36 19 26 20 
37 26 27 20 
38 20 27 21 
39 21 28 22 
40 22 28 29 
41 22 29 23 
42 23 29 24 
43 29 30 24 
44 24 30 18 
45 18 31 25 
46 25 31 32 
47 25 32 26 
48 26 32 27 
49 32 33 27 
50 27 33 21 
51 21 33 28 
52 28 33 32 
53 28 32 29 
54 29 32 30 
55 32 31 30 
56 30 31 18 
57 1 2 34 
58 34 2 35 
59 2 5 35 
60 35 5 36 
61 5 37 36 
62 5 8 37 
63 8 38 37 
64 8 10 38 
65 10 11 38 
66 38 11 39 
67 11 13 39 
68 39 13 40 
69 13 41 40 
70 13 16 41 
71 16 34 41 
72 16 1 34 
73 34 43 42 
74 34 35 43 
75 35 44 43 
76 35 36 44 
77 36 37 44 
78 44 37 45 
79 37 38 45 
80 45 38 46 
81 38 47 46 
82 38 39 47 
83 39 48 47 
84 39 40 48 
85 40 41 48 
86 48 41 49 
87 41 34 49 
88 49 34 42 
89 42 43 50 
90 43 51 50 
91 43 44 51 
92 44 45 51 
93 51 45 52 
94 45 46 52 
95 46 47 53 
96 47 54 53 
97 47 48 54 
98 48 49 54 
99 54 49 55 
100 49 42 55 
101 42 50 56 
102 50 57 56 
103 50 51 57 
104 51 52 57 
105 57 52 58 
106 52 46 58 
107 46 53 58 
108 53 57 58 
109 53 54 57 
110 54 55 57 
111 57 55 56 
112 55 42 56 
$EndElements
