$MeshFormat
4.1 0 8
$EndMeshFormat
$Entities
0 0 1 0
0 9.800000000000001 -30.0885250829 -0.8472963553 11.769615506 30.0885250829 -0.4158596367 0 0 
$EndEntities
$Nodes
1 59 1 59
2 0 0 59
1
2
3
4
5
6
7
8
9
10
11
12
13
14
15
16
17
18
19
20
21
22
23
24
25
26
27
28
29
30
31
32
33
34
35
36
37
38
39
40
41
42
43
44
45
46
47
48
49
50
51
52
53
54
55
56
57
58
59
11.769615506 0 -0.8472963553
11.4931928657 0 -0.8302973141
11.769615506 15 -0.8472963553
11.4928908846 15 -0.8296422637
10.7614920904 0 -0.7598659064
10.7602395993 15 -0.759453112
10.0378294526 15 -0.622458696
10.04107563 0 -0.6176701896
9.800000000000001 15 -0.5
9.800000000000001 0 -0.5
10.0505024655 0 -0.4158596367
10.0572298723 15 -0.4382592925
10.7851453755 0 -0.5473733089
10.7874477456 15 -0.5659739711
11.502701984 15 -0.7640409006
11.5023704115 0 -0.7583291585
11.5691816852 0 -0.7805709577
11.4925889036 30 -0.8289872132
11.769615506 30 -0.8472963553
10.7589871083 30 -0.7590403176
10.0345832753 30 -0.6272472024
9.800000000000001 30 -0.5
10.0639572791 30 -0.4606589483
10.7897501156 30 -0.5845746333
11.5030335565 30 -0.7697526428
11.4941192599 30.021257413 -0.8203098106
10.7634957559 30.0625876579 -0.7334969438
10.0388892693 30.0597662235 -0.6028769266
10.0596651461 30.0597662035 -0.4851375906
10.7852458486 30.0625876437 -0.6101938962
11.5015032462 30.0212574125 -0.7784373698
11.4978112626 30.0300678768 -0.7993751081
10.7743717099 30.0885250829 -0.6718611448
10.04928008 30.0845349915 -0.5440297136
11.769615506 -15 -0.8472963553
11.4928908846 -15 -0.8296422637
10.7602395993 -15 -0.759453112
10.0378294526 -15 -0.622458696
9.800000000000001 -15 -0.5
10.0572298723 -15 -0.4382592925
10.7874477456 -15 -0.5659739711
11.502701984 -15 -0.7640409006
11.769615506 -30 -0.8472963553
11.4925889036 -30 -0.8289872132
10.7589871083 -30 -0.7590403176
10.0345832753 -30 -0.6272472024
9.800000000000001 -30 -0.5
10.0639572791 -30 -0.4606589483
10.7897501156 -30 -0.5845746333
11.5030335565 -30 -0.7697526428
11.4941192599 -30.021257413 -0.8203098106
10.7634957559 -30.0625876579 -0.7334969438
10.0388892693 -30.0597662235 -0.6028769266
10.0596651461 -30.0597662035 -0.4851375906
10.7852458486 -30.0625876437 -0.6101938962
11.5015032462 -30.0212574125 -0.7784373698
11.4978112626 -30.0300678768 -0.7993751081
10.7743717099 -30.0885250829 -0.6718611448
10.04928008 -30.0845349915 -0.5440297136
$EndNodes
$Elements
1 112 1 113
2 0 2 112
1 1 3 2 
2 3 4 2 
3 2 4 5 
4 4 6 5 
5 5 6 7 
6 5 7 8 
7 8 7 9 
8 8 9 10 
9 10 9 11 
10 9 12 11 
11 11 12 13 
12 12 14 13 
13 13 14 15 
14 13 15 16 
15 16 15 3 
16 1 16 3 
18 3 19 18 
19 3 18 4 
20 4 18 20 
21 4 20 6 
22 6 20 7 
23 20 21 7 
24 7 21 9 
25 21 22 9 
26 9 22 23 
27 9 23 12 
28 12 23 24 
29 12 24 14 
30 14 24 15 
31 24 25 15 
32 15 25 3 
33 25 19 3 
34 19 26 18 
35 18 26 27 
36 18 27 20 
37 20 27 21 
38 27 28 21 
39 21 28 22 
40 22 29 23 
41 23 29 30 
42 23 30 24 
43 24 30 25 
44 30 31 25 
45 25 31 19 
46 19 32 26 
47 26 32 33 
48 26 33 27 
49 27 33 28 
50 33 34 28 
51 28 34 22 
52 22 34 29 
53 29 34 33 
54 29 33 30 
55 30 33 31 
56 33 32 31 
57 31 32 19 
58 1 2 35 
59 35 2 36 
60 2 5 36 
61 36 5 37 
62 5 38 37 
63 5 8 38 
64 8 39 38 
65 8 10 39 
66 10 11 39 
67 39 11 40 
68 11 13 40 
69 40 13 41 
70 13 42 41 
71 13 16 42 
72 16 35 42 
73 16 1 35 
74 35 44 43 
75 35 36 44 
76 36 45 44 
77 36 37 45 
78 37 38 45 
79 45 38 46 
80 38 39 46 
81 46 39 47 
82 39 48 47 
83 39 40 48 
84 40 49 48 
85 40 41 49 
86 41 42 49 
87 49 42 50 
88 42 35 50 
89 50 35 43 
90 43 44 51 
91 44 52 51 
92 44 45 52 
93 45 46 52 
94 52 46 53 
95 46 47 53 
96 47 48 54 
97 48 55 54 
98 48 49 55 
99 49 50 55 
100 55 50 56 
101 50 43 56 
102 43 51 57 
103 51 58 57 
104 51 52 58 
105 52 53 58 
106 58 53 59 
107 53 47 59 
108 47 54 59 
109 54 58 59 
110 54 55 58 
111 55 56 58 
112 58 56 57 
113 56 43 57 
$EndElements
