$MeshFormat
4.1 0 8
$EndMeshFormat
$Entities
0 0 1 0
0 9.800000000000001 -30.0885250829 -1.1840402867 11.6793852416 30.0885250829 -0.4606372145 0 0 
$EndEntities
$Nodes
1 59 1 59
2 0 0 59
1
2
3
4
5
6
7
8
9
10
11
12
13
14
15
16
17
18
19
20
21
22
23
24
25
26
27
28
29
30
31
32
33
34
35
36
37
38
39
40
41
42
43
44
45
46
47
48
49
50
51
52
53
54
55
56
57
58
59
11.6793852416 0 -1.1840402867
11.4101139349 0 -1.1192992113
11.6793852416 15 -1.1840402867
11.4099302898 15 -1.1186016741
10.701759624 0 -0.9228793087
10.7005978421 15 -0.9222552928
10.0129515595 15 -0.6618969243
10.0169799355 0 -0.6577448588
9.800000000000001 15 -0.5
9.800000000000001 0 -0.5
10.0613075909 0 -0.4606372145
10.0640431339 15 -0.4838647711
10.7619525149 0 -0.717722301
10.7609899357 15 -0.7364401798
11.4309838937 15 -1.0557006227
11.4316491922 0 -1.0500180778
11.4097466448 30 -1.1179041369
11.6793852416 30 -1.1840402867
10.6994360602 30 -0.9216312769
10.0089231834 30 -0.6660489897
9.800000000000001 30 -0.5
10.0667786769 30 -0.5070923278
10.7600273564 30 -0.7551580585
11.4303185953 30 -1.0613831676
11.4127605668 30.021257413 -1.1096243071
10.7083117716 30.0625876579 -0.8972588827
10.0173956137 30.0597662235 -0.6427966812
10.0583010794 30.0597662035 -0.5304537633999999
10.7511427811 30.0625876437 -0.7796059494000001
11.4273034468 30.0212574125 -1.0696702185
11.4200317526 30.0300678768 -1.0896487593
10.7297254397 30.0885250829 -0.8384480597
10.0378472759 30.0845349915 -0.5866478349000001
9.865326897699999 0 -0.4901593036
11.6793852416 -15 -1.1840402867
11.4099302898 -15 -1.1186016741
10.7005978421 -15 -0.9222552928
10.0129515595 -15 -0.6618969243
9.800000000000001 -15 -0.5
10.0640431339 -15 -0.4838647711
10.7609899357 -15 -0.7364401798
11.4309838937 -15 -1.0557006227
11.6793852416 -30 -1.1840402867
11.4097466448 -30 -1.1179041369
10.6994360602 -30 -0.9216312769
10.0089231834 -30 -0.6660489897
9.800000000000001 -30 -0.5
10.0667786769 -30 -0.5070923278
10.7600273564 -30 -0.7551580585
11.4303185953 -30 -1.0613831676
11.4127605668 -30.021257413 -1.1096243071
10.7083117716 -30.0625876579 -0.8972588827
10.0173956137 -30.0597662235 -0.6427966812
10.0583010794 -30.0597662035 -0.5304537633999999
10.7511427811 -30.0625876437 -0.7796059494000001
11.4273034468 -30.0212574125 -1.0696702185
11.4200317526 -30.0300678768 -1.0896487593
10.7297254397 -30.0885250829 -0.8384480597
10.0378472759 -30.0845349915 -0.5866478349000001
$EndNodes
$Elements
1 113 1 113
2 0 2 113
1 1 3 2 
2 3 4 2 
3 4 5 2 
4 4 6 5 
5 5 6 7 
6 5 7 8 
7 8 7 9 
8 8 9 10 
9 10 9 11 
10 9 12 11 
11 11 12 13 
12 12 14 13 
13 13 14 15 
14 13 15 16 
15 16 15 3 
16 16 3 1 
17 3 18 17 
18 3 17 4 
19 4 17 19 
20 4 19 6 
21 6 19 7 
22 19 20 7 
23 7 20 9 
24 20 21 9 
25 9 21 22 
26 9 22 12 
27 12 22 23 
28 12 23 14 
29 14 23 15 
30 23 24 15 
31 15 24 3 
32 24 18 3 
33 18 25 17 
34 17 25 26 
35 17 26 19 
36 19 26 20 
37 26 27 20 
38 20 27 21 
39 21 28 22 
40 22 28 29 
41 22 29 23 
42 23 29 24 
43 29 30 24 
44 24 30 18 
45 18 31 25 
46 25 31 32 
47 25 32 26 
48 26 32 27 
49 32 33 27 
50 27 33 21 
51 21 33 28 
52 28 33 32 
53 28 32 29 
54 29 32 30 
55 32 31 30 
56 30 31 18 
57 11 34 10 
58 1 2 35 
59 35 2 36 
60 5 36 2 
61 36 5 37 
62 5 38 37 
63 5 8 38 
64 8 39 38 
65 8 10 39 
66 10 11 39 
67 39 11 40 
68 11 13 40 
69 40 13 41 
70 13 42 41 
71 13 16 42 
72 16 35 42 
73 16 1 35 
74 35 44 43 
75 35 36 44 
76 36 45 44 
77 36 37 45 
78 37 38 45 
79 45 38 46 
80 38 39 46 
81 46 39 47 
82 39 48 47 
83 39 40 48 
84 40 49 48 
85 40 41 49 
86 41 42 49 
87 49 42 50 
88 42 35 50 
89 50 35 43 
90 43 44 51 
91 44 52 51 
92 44 45 52 
93 45 46 52 
94 52 46 53 
95 46 47 53 
96 47 48 54 
97 48 55 54 
98 48 49 55 
99 49 50 55 
100 55 50 56 
101 50 43 56 
102 43 51 57 
103 51 58 57 
104 51 52 58 
105 52 53 58 
106 58 53 59 
107 53 47 59 
108 47 54 59 
109 54 58 59 
110 54 55 58 
111 55 56 58 
112 58 56 57 
113 56 43 57 
$EndElements
