$MeshFormat
4.1 0 8
$EndMeshFormat
$Entities
0 0 1 0
0 0 -30.0997768662 -0.0998440773 2 30.0997768662 0.1431970573 0 0 
$EndEntities
$Nodes
1 634 1 634
2 0 0 634
1
2
3
4
5
6
7
8
9
10
11
12
13
14
15
16
17
18
19
20
21
22
23
24
25
26
27
28
29
30
31
32
33
34
35
36
37
38
39
40
41
42
43
44
45
46
47
48
49
50
51
52
53
54
55
56
57
58
59
60
61
62
63
64
65
66
67
68
69
70
71
72
73
74
75
76
77
78
79
80
81
82
83
84
85
86
87
88
89
90
91
92
93
94
95
96
97
98
99
100
101
102
103
104
105
106
107
108
109
110
111
112
113
114
115
116
117
118
119
120
121
122
123
124
125
126
127
128
129
130
131
132
133
134
135
136
137
138
139
140
141
142
143
144
145
146
147
148
149
150
151
152
153
154
155
156
157
158
159
160
161
162
163
164
165
166
167
168
169
170
171
172
173
174
175
176
177
178
179
180
181
182
183
184
185
186
187
188
189
190
191
192
193
194
195
196
197
198
199
200
201
202
203
204
205
206
207
208
209
210
211
212
213
214
215
216
217
218
219
220
221
222
223
224
225
226
227
228
229
230
231
232
233
234
235
236
237
238
239
240
241
242
243
244
245
246
247
248
249
250
251
252
253
254
255
256
257
258
259
260
261
262
263
264
265
266
267
268
269
270
271
272
273
274
275
276
277
278
279
280
281
282
283
284
285
286
287
288
289
290
291
292
293
294
295
296
297
298
299
300
301
302
303
304
305
306
307
308
309
310
311
312
313
314
315
316
317
318
319
320
321
322
323
324
325
326
327
328
329
330
331
332
333
334
335
336
337
338
339
340
341
342
343
344
345
346
347
348
349
350
351
352
353
354
355
356
357
358
359
360
361
362
363
364
365
366
367
368
369
370
371
372
373
374
375
376
377
378
379
380
381
382
383
384
385
386
387
388
389
390
391
392
393
394
395
396
397
398
399
400
401
402
403
404
405
406
407
408
409
410
411
412
413
414
415
416
417
418
419
420
421
422
423
424
425
426
427
428
429
430
431
432
433
434
435
436
437
438
439
440
441
442
443
444
445
446
447
448
449
450
451
452
453
454
455
456
457
458
459
460
461
462
463
464
465
466
467
468
469
470
471
472
473
474
475
476
477
478
479
480
481
482
483
484
485
486
487
488
489
490
491
492
493
494
495
496
497
498
499
500
501
502
503
504
505
506
507
508
509
510
511
512
513
514
515
516
517
518
519
520
521
522
523
524
525
526
527
528
529
530
531
532
533
534
535
536
537
538
539
540
541
542
543
544
545
546
547
548
549
550
551
552
553
554
555
556
557
558
559
560
561
562
563
564
565
566
567
568
569
570
571
572
573
574
575
576
577
578
579
580
581
582
583
584
585
586
587
588
589
590
591
592
593
594
595
596
597
598
599
600
601
602
603
604
605
606
607
608
609
610
611
612
613
614
615
616
617
618
619
620
621
622
623
624
625
626
627
628
629
630
631
632
633
634
2 0 0
1.9314496745 0 -0.0082686003
2 2.1428571429 0
1.9314342824 2.1428571429 -0.0082422187
1.8115548535 0 -0.0219512278
1.8115138001 2.1428571429 -0.0218872528
1.6168412433 0 -0.0421793231
1.6167614037 2.1428571429 -0.0420763171
1.3357598603 0 -0.0670117492
1.3356291998 2.1428571429 -0.0669010078
0.9920101061 0 -0.08895661000000001
0.991823657 2.1428571429 -0.0889296057
0.6474350284 2.1428571429 -0.0970842459
0.6476764833 0 -0.0968719512
0.365513917 2.1428571429 -0.0856188567
0.3658194363 0 -0.08501133900000001
0.1709760233 2.1428571429 -0.0636820599
0.1713229231 0 -0.0629725518
0.0528061919 2.1428571429 -0.0398263249
0.0530710282 0 -0.0395510823
0 2.1428571429 0
0 0 0
0.0341773755 0 0.0570418597
0.0352620858 2.1428571429 0.0560677611
0.1454939699 0 0.1073041876
0.1469919952 2.1428571429 0.1048471503
0.3417584688 0 0.1385605451
0.3431715901 2.1428571429 0.1353431194
0.6286186516 0 0.1431970573
0.6297384704 2.1428571429 0.1401004158
0.9784050924 0 0.1244150973
0.9791904299999999 2.1428571429 0.1218553439
1.3275894843 2.1428571429 0.0889309361
1.3271017052 0 0.0907362874
1.6122433405 2.1428571429 0.054899481
1.6119756367 0 0.0559888844
1.8093327102 2.1428571429 0.0282306208
1.8092059874 0 0.0287825472
1.9306505628 2.1428571429 0.0105583619
1.9306056688 0 0.0107629083
2 4.2857142857 0
1.9314188903 4.2857142857 -0.0082158371
1.8114727467 4.2857142857 -0.0218232778
1.6166815642 4.2857142857 -0.041973311
1.3354985392 4.2857142857 -0.06679026640000001
0.9916372079 4.2857142857 -0.08890260129999999
0.6471935735 4.2857142857 -0.09729654059999999
0.3652083977 4.2857142857 -0.0862263744
0.1706291234 4.2857142857 -0.064391568
0.0525413555 4.2857142857 -0.0401015676
0 4.2857142857 0
0.0363467961 4.2857142857 0.0550936626
0.1484900206 4.2857142857 0.1023901129
0.3445847113 4.2857142857 0.1321256938
0.6308582892 4.2857142857 0.1370037744
0.9799757675 4.2857142857 0.1192955905
1.3280772634 4.2857142857 0.0871255848
1.6125110442 4.2857142857 0.0538100777
1.8094594329 4.2857142857 0.0276786944
1.9306954568 4.2857142857 0.0103538154
2 6.4285714286 0
1.9314034982 6.4285714286 -0.0081894555
1.8114316933 6.4285714286 -0.0217593028
1.6166017246 6.4285714286 -0.0418703049
1.3353678786 6.4285714286 -0.066679525
0.9914507587 6.4285714286 -0.088875597
0.6469521187 6.4285714286 -0.09750883539999999
0.3649028783 6.4285714286 -0.0868338921
0.1702822235 6.4285714286 -0.06510107599999999
0.0522765192 6.4285714286 -0.0403768103
0 6.4285714286 0
0.0374315063 6.4285714286 0.054119564
0.1499880459 6.4285714286 0.0999330756
0.3459978325 6.4285714286 0.1289082682
0.631978108 6.4285714286 0.133907133
0.9807611051 6.4285714286 0.1167358371
1.3285650425 6.4285714286 0.0853202335
1.612778748 6.4285714286 0.0527206744
1.8095861556 6.4285714286 0.027126768
1.9307403509 6.4285714286 0.010149269
2 8.5714285714 0
1.9313881061 8.5714285714 -0.0081630739
1.8113906398 8.5714285714 -0.0216953278
1.616521885 8.5714285714 -0.0417672988
1.3352372181 8.5714285714 -0.0665687836
0.9912643096 8.5714285714 -0.08884859270000001
0.6467106638 8.5714285714 -0.0977211301
0.364597359 8.5714285714 -0.0874414097
0.1699353236 8.5714285714 -0.0658105841
0.0520116828 8.5714285714 -0.040652053
0 8.5714285714 0
0.0385162166 8.5714285714 0.0531454654
0.1514860713 8.5714285714 0.0974760382
0.3474109537 8.5714285714 0.1256908426
0.6330979268 8.5714285714 0.1308104916
0.9815464427 8.5714285714 0.1141760836
1.3290528215 8.5714285714 0.0835148823
1.6130464518 8.5714285714 0.0516312711
1.8097128784 8.5714285714 0.0265748416
1.9307852449 8.5714285714 0.009944722499999999
2 10.7142857143 0
1.931372714 10.7142857143 -0.008136692399999999
1.8113495864 10.7142857143 -0.0216313527
1.6164420455 10.7142857143 -0.0416642927
1.3351065575 10.7142857143 -0.0664580421
0.9910778605 10.7142857143 -0.0888215883
0.6464692089 10.7142857143 -0.0979334248
0.3642918397 10.7142857143 -0.0880489274
0.1695884237 10.7142857143 -0.0665200921
0.0517468465 10.7142857143 -0.0409272956
0 10.7142857143 0
0.0396009269 10.7142857143 0.0521713668
0.1529840966 10.7142857143 0.0950190009
0.3488240749 10.7142857143 0.122473417
0.6342177456 10.7142857143 0.1277138501
0.9823317802 10.7142857143 0.1116163302
1.3295406006 10.7142857143 0.081709531
1.6133141555 10.7142857143 0.0505418678
1.8098396011 10.7142857143 0.0260229152
1.9308301389 10.7142857143 0.009740176099999999
2 12.8571428571 0
1.9313573218 12.8571428571 -0.008110310799999999
1.811308533 12.8571428571 -0.0215673777
1.6163622059 12.8571428571 -0.0415612866
1.3349758969 12.8571428571 -0.0663473007
0.9908914114 12.8571428571 -0.088794584
0.646227754 12.8571428571 -0.09814571950000001
0.3639863204 12.8571428571 -0.08865644509999999
0.1692415238 12.8571428571 -0.0672296002
0.0514820101 12.8571428571 -0.0412025383
0 12.8571428571 0
0.0406856372 12.8571428571 0.0511972683
0.154482122 12.8571428571 0.0925619635
0.3502371961 12.8571428571 0.1192559914
0.6353375644 12.8571428571 0.1246172087
0.9831171178 12.8571428571 0.1090565768
1.3300283797 12.8571428571 0.07990417969999999
1.6135818593 12.8571428571 0.0494524644
1.8099663238 12.8571428571 0.0254709888
1.9308750329 12.8571428571 0.009535629699999999
2 15 0
1.9313419297 15 -0.008083929199999999
1.8112674796 15 -0.0215034027
1.6162823663 15 -0.0414582805
1.3348452363 15 -0.0662365593
0.9907049622 15 -0.0887675797
0.6459862991 15 -0.0983580142
0.363680801 15 -0.0892639627
0.168894624 15 -0.0679391083
0.0512171738 15 -0.041477781
0 15 0
0.0417703474 15 0.0502231697
0.1559801473 15 0.0901049262
0.3516503173 15 0.1160385658
0.6364573832 15 0.1215205673
0.9839024554 15 0.1064968233
1.3305161588 15 0.0780988284
1.613849563 15 0.0483630611
1.8100930466 15 0.0249190624
1.9309199269 15 0.0093310832
2 17.1428571429 0
1.9313265376 17.1428571429 -0.008057547599999999
1.8112264262 17.1428571429 -0.0214394277
1.6162025268 17.1428571429 -0.0413552744
1.3347145758 17.1428571429 -0.06612581789999999
0.9905185131000001 17.1428571429 -0.0887405753
0.6457448442 17.1428571429 -0.09857030899999999
0.3633752817 17.1428571429 -0.0898714804
0.1685477241 17.1428571429 -0.06864861630000001
0.0509523375 17.1428571429 -0.0417530236
0 17.1428571429 0
0.0428550577 17.1428571429 0.0492490711
0.1574781727 17.1428571429 0.0876478888
0.3530634385 17.1428571429 0.1128211401
0.637577202 17.1428571429 0.1184239258
0.9846877929 17.1428571429 0.1039370699
1.3310039379 17.1428571429 0.07629347710000001
1.6141172668 17.1428571429 0.0472736578
1.8102197693 17.1428571429 0.024367136
1.9309648209 17.1428571429 0.0091265368
2 19.2857142857 0
1.9313111455 19.2857142857 -0.008031165999999999
1.8111853728 19.2857142857 -0.0213754526
1.6161226872 19.2857142857 -0.0412522683
1.3345839152 19.2857142857 -0.06601507650000001
0.990332064 19.2857142857 -0.088713571
0.6455033893 19.2857142857 -0.0987826037
0.3630697624 19.2857142857 -0.0904789981
0.1682008242 19.2857142857 -0.0693581244
0.0506875011 19.2857142857 -0.0420282663
0 19.2857142857 0
0.043939768 19.2857142857 0.0482749725
0.158976198 19.2857142857 0.0851908515
0.3544765597 19.2857142857 0.1096037145
0.6386970208 19.2857142857 0.1153272844
0.9854731305 19.2857142857 0.1013773165
1.3314917169 19.2857142857 0.07448812589999999
1.6143849706 19.2857142857 0.0461842545
1.810346492 19.2857142857 0.0238152096
1.9310097149 19.2857142857 0.0089219903
2 21.4285714286 0
1.9312957534 21.4285714286 -0.008004784399999999
1.8111443194 21.4285714286 -0.0213114776
1.6160428476 21.4285714286 -0.0411492623
1.3344532546 21.4285714286 -0.0659043351
0.9901456148 21.4285714286 -0.0886865667
0.6452619344 21.4285714286 -0.0989948984
0.362764243 21.4285714286 -0.0910865158
0.1678539243 21.4285714286 -0.0700676325
0.0504226648 21.4285714286 -0.042303509
0 21.4285714286 0
0.0450244783 21.4285714286 0.047300874
0.1604742234 21.4285714286 0.0827338141
0.3558896809 21.4285714286 0.1063862889
0.6398168396 21.4285714286 0.112230643
0.9862584681 21.4285714286 0.09881756310000001
1.331979496 21.4285714286 0.0726827746
1.6146526743 21.4285714286 0.0450948512
1.8104732148 21.4285714286 0.0232632832
1.9310546089 21.4285714286 0.0087174439
2 23.5714285714 0
1.9312803613 23.5714285714 -0.007978402900000001
1.811103266 23.5714285714 -0.0212475026
1.6159630081 23.5714285714 -0.0410462562
1.3343225941 23.5714285714 -0.0657935937
0.9899591657 23.5714285714 -0.08865956229999999
0.6450204795 23.5714285714 -0.09920719309999999
0.3624587237 23.5714285714 -0.0916940334
0.1675070244 23.5714285714 -0.0707771405
0.0501578284 23.5714285714 -0.0425787516
0 23.5714285714 0
0.0461091885 23.5714285714 0.0463267754
0.1619722487 23.5714285714 0.0802767768
0.3573028021 23.5714285714 0.1031688633
0.6409366584 23.5714285714 0.1091340016
0.9870438056 23.5714285714 0.09625780959999999
1.3324672751 23.5714285714 0.07087742330000001
1.6149203781 23.5714285714 0.0440054479
1.8105999375 23.5714285714 0.0227113567
1.9310995029 23.5714285714 0.0085128974
2 25.7142857143 0
1.9312649692 25.7142857143 -0.007952021300000001
1.8110622125 25.7142857143 -0.0211835276
1.6158831685 25.7142857143 -0.0409432501
1.3341919335 25.7142857143 -0.0656828523
0.9897727166 25.7142857143 -0.088632558
0.6447790246 25.7142857143 -0.0994194878
0.3621532044 25.7142857143 -0.0923015511
0.1671601245 25.7142857143 -0.07148664859999999
0.0498929921 25.7142857143 -0.0428539943
0 25.7142857143 0
0.0471938988 25.7142857143 0.0453526768
0.1634702741 25.7142857143 0.0778197394
0.3587159233 25.7142857143 0.09995143770000001
0.6420564772 25.7142857143 0.1060373601
0.9878291432 25.7142857143 0.0936980562
1.3329550542 25.7142857143 0.069072072
1.6151880818 25.7142857143 0.0429160445
1.8107266602 25.7142857143 0.0221594303
1.9311443969 25.7142857143 0.008308351
2 27.8571428571 0
1.931249577 27.8571428571 -0.007925639700000001
1.8110211591 27.8571428571 -0.0211195526
1.6158033289 27.8571428571 -0.040840244
1.3340612729 27.8571428571 -0.06557211089999999
0.9895862675 27.8571428571 -0.08860555370000001
0.6445375697 27.8571428571 -0.0996317826
0.3618476851 27.8571428571 -0.09290906879999999
0.1668132247 27.8571428571 -0.07219615660000001
0.0496281557 27.8571428571 -0.043129237
0 27.8571428571 0
0.0482786091 27.8571428571 0.0443785782
0.1649682994 27.8571428571 0.0753627021
0.3601290445 27.8571428571 0.0967340121
0.643176296 27.8571428571 0.1029407187
0.9886144808 27.8571428571 0.0911383028
1.3334428333 27.8571428571 0.0672667208
1.6154557856 27.8571428571 0.0418266412
1.810853383 27.8571428571 0.0216075039
1.9311892909 27.8571428571 0.008103804500000001
2 30 0
1.9312341849 30 -0.007899258100000001
1.8109801057 30 -0.0210555775
1.6157234894 30 -0.0407372379
1.3339306124 30 -0.06546136950000001
0.9893998183 30 -0.0885785493
0.6442961148 30 -0.0998440773
0.3615421657 30 -0.0935165865
0.1664663248 30 -0.0729056647
0.0493633194 30 -0.0434044797
0 30 0
0.0493633194 30 0.0434044797
0.1664663248 30 0.0729056647
0.3615421657 30 0.0935165865
0.6442961148 30 0.0998440773
0.9893998183 30 0.0885785493
1.3339306124 30 0.06546136950000001
1.6157234894 30 0.0407372379
1.8109801057 30 0.0210555775
1.9312341849 30 0.007899258100000001
1.9312342148 30.0055840125 -0.0055846787
1.8109802483 30.014883469 -0.0148863185
1.6157240914 30.0287923895 -0.0288026472
1.3339325176 30.0462601576 -0.0462870754
0.9894044091999999 30.0625876579 -0.0626403183
0.6443040128 30.0705431465 -0.07061731960000001
0.3615514842 30.0660764248 -0.0661521065
0.1664736698 30.051522756 -0.0515695499
0.0493663612 30.0306810045 -0.0306920314
0.0493720196 30.0306810025 0.0306741328
0.1664866573 30.0515227434 0.0514934133
0.3615670006 30.0660763998 0.0660341623
0.644317135 30.0705431223 0.07050838299999999
0.9894127196 30.0625876437 0.0625663429
1.3339364346 30.0462601524 0.0462504225
1.6157255044 30.0287923882 0.0287889694
1.8109806263 30.0148834688 0.0148825722
1.9312343012 30.0055840125 0.0055838099
1.9312342883 30.0078984671 -6.144e-07
1.8109805747 30.0210522459 -2.6496e-06
1.6157253402 30.0407255725 -9.673299999999999e-06
1.3339360774 30.0654320569 -2.59216e-05
0.9894121889 30.0885250829 -5.23161e-05
0.6443165659 30.0997768662 -7.70405e-05
0.3615663193 30.0934596057 -8.34111e-05
0.166485899 30.0728759136 -5.38453e-05
0.0493716238 30.0433973935 -1.26585e-05
2 -2.1428571429 0
1.9314342824 -2.1428571429 -0.0082422187
1.8115138001 -2.1428571429 -0.0218872528
1.6167614037 -2.1428571429 -0.0420763171
1.3356291998 -2.1428571429 -0.0669010078
0.991823657 -2.1428571429 -0.0889296057
0.6474350284 -2.1428571429 -0.0970842459
0.365513917 -2.1428571429 -0.0856188567
0.1709760233 -2.1428571429 -0.0636820599
0.0528061919 -2.1428571429 -0.0398263249
0 -2.1428571429 0
0.0352620858 -2.1428571429 0.0560677611
0.1469919952 -2.1428571429 0.1048471503
0.3431715901 -2.1428571429 0.1353431194
0.6297384704 -2.1428571429 0.1401004158
0.9791904299999999 -2.1428571429 0.1218553439
1.3275894843 -2.1428571429 0.0889309361
1.6122433405 -2.1428571429 0.054899481
1.8093327102 -2.1428571429 0.0282306208
1.9306505628 -2.1428571429 0.0105583619
2 -4.2857142857 0
1.9314188903 -4.2857142857 -0.0082158371
1.8114727467 -4.2857142857 -0.0218232778
1.6166815642 -4.2857142857 -0.041973311
1.3354985392 -4.2857142857 -0.06679026640000001
0.9916372079 -4.2857142857 -0.08890260129999999
0.6471935735 -4.2857142857 -0.09729654059999999
0.3652083977 -4.2857142857 -0.0862263744
0.1706291234 -4.2857142857 -0.064391568
0.0525413555 -4.2857142857 -0.0401015676
0 -4.2857142857 0
0.0363467961 -4.2857142857 0.0550936626
0.1484900206 -4.2857142857 0.1023901129
0.3445847113 -4.2857142857 0.1321256938
0.6308582892 -4.2857142857 0.1370037744
0.9799757675 -4.2857142857 0.1192955905
1.3280772634 -4.2857142857 0.0871255848
1.6125110442 -4.2857142857 0.0538100777
1.8094594329 -4.2857142857 0.0276786944
1.9306954568 -4.2857142857 0.0103538154
2 -6.4285714286 0
1.9314034982 -6.4285714286 -0.0081894555
1.8114316933 -6.4285714286 -0.0217593028
1.6166017246 -6.4285714286 -0.0418703049
1.3353678786 -6.4285714286 -0.066679525
0.9914507587 -6.4285714286 -0.088875597
0.6469521187 -6.4285714286 -0.09750883539999999
0.3649028783 -6.4285714286 -0.0868338921
0.1702822235 -6.4285714286 -0.06510107599999999
0.0522765192 -6.4285714286 -0.0403768103
0 -6.4285714286 0
0.0374315063 -6.4285714286 0.054119564
0.1499880459 -6.4285714286 0.0999330756
0.3459978325 -6.4285714286 0.1289082682
0.631978108 -6.4285714286 0.133907133
0.9807611051 -6.4285714286 0.1167358371
1.3285650425 -6.4285714286 0.0853202335
1.612778748 -6.4285714286 0.0527206744
1.8095861556 -6.4285714286 0.027126768
1.9307403509 -6.4285714286 0.010149269
2 -8.5714285714 0
1.9313881061 -8.5714285714 -0.0081630739
1.8113906398 -8.5714285714 -0.0216953278
1.616521885 -8.5714285714 -0.0417672988
1.3352372181 -8.5714285714 -0.0665687836
0.9912643096 -8.5714285714 -0.08884859270000001
0.6467106638 -8.5714285714 -0.0977211301
0.364597359 -8.5714285714 -0.0874414097
0.1699353236 -8.5714285714 -0.0658105841
0.0520116828 -8.5714285714 -0.040652053
0 -8.5714285714 0
0.0385162166 -8.5714285714 0.0531454654
0.1514860713 -8.5714285714 0.0974760382
0.3474109537 -8.5714285714 0.1256908426
0.6330979268 -8.5714285714 0.1308104916
0.9815464427 -8.5714285714 0.1141760836
1.3290528215 -8.5714285714 0.0835148823
1.6130464518 -8.5714285714 0.0516312711
1.8097128784 -8.5714285714 0.0265748416
1.9307852449 -8.5714285714 0.009944722499999999
2 -10.7142857143 0
1.931372714 -10.7142857143 -0.008136692399999999
1.8113495864 -10.7142857143 -0.0216313527
1.6164420455 -10.7142857143 -0.0416642927
1.3351065575 -10.7142857143 -0.0664580421
0.9910778605 -10.7142857143 -0.0888215883
0.6464692089 -10.7142857143 -0.0979334248
0.3642918397 -10.7142857143 -0.0880489274
0.1695884237 -10.7142857143 -0.0665200921
0.0517468465 -10.7142857143 -0.0409272956
0 -10.7142857143 0
0.0396009269 -10.7142857143 0.0521713668
0.1529840966 -10.7142857143 0.0950190009
0.3488240749 -10.7142857143 0.122473417
0.6342177456 -10.7142857143 0.1277138501
0.9823317802 -10.7142857143 0.1116163302
1.3295406006 -10.7142857143 0.081709531
1.6133141555 -10.7142857143 0.0505418678
1.8098396011 -10.7142857143 0.0260229152
1.9308301389 -10.7142857143 0.009740176099999999
2 -12.8571428571 0
1.9313573218 -12.8571428571 -0.008110310799999999
1.811308533 -12.8571428571 -0.0215673777
1.6163622059 -12.8571428571 -0.0415612866
1.3349758969 -12.8571428571 -0.0663473007
0.9908914114 -12.8571428571 -0.088794584
0.646227754 -12.8571428571 -0.09814571950000001
0.3639863204 -12.8571428571 -0.08865644509999999
0.1692415238 -12.8571428571 -0.0672296002
0.0514820101 -12.8571428571 -0.0412025383
0 -12.8571428571 0
0.0406856372 -12.8571428571 0.0511972683
0.154482122 -12.8571428571 0.0925619635
0.3502371961 -12.8571428571 0.1192559914
0.6353375644 -12.8571428571 0.1246172087
0.9831171178 -12.8571428571 0.1090565768
1.3300283797 -12.8571428571 0.07990417969999999
1.6135818593 -12.8571428571 0.0494524644
1.8099663238 -12.8571428571 0.0254709888
1.9308750329 -12.8571428571 0.009535629699999999
2 -15 0
1.9313419297 -15 -0.008083929199999999
1.8112674796 -15 -0.0215034027
1.6162823663 -15 -0.0414582805
1.3348452363 -15 -0.0662365593
0.9907049622 -15 -0.0887675797
0.6459862991 -15 -0.0983580142
0.363680801 -15 -0.0892639627
0.168894624 -15 -0.0679391083
0.0512171738 -15 -0.041477781
0 -15 0
0.0417703474 -15 0.0502231697
0.1559801473 -15 0.0901049262
0.3516503173 -15 0.1160385658
0.6364573832 -15 0.1215205673
0.9839024554 -15 0.1064968233
1.3305161588 -15 0.0780988284
1.613849563 -15 0.0483630611
1.8100930466 -15 0.0249190624
1.9309199269 -15 0.0093310832
2 -17.1428571429 0
1.9313265376 -17.1428571429 -0.008057547599999999
1.8112264262 -17.1428571429 -0.0214394277
1.6162025268 -17.1428571429 -0.0413552744
1.3347145758 -17.1428571429 -0.06612581789999999
0.9905185131000001 -17.1428571429 -0.0887405753
0.6457448442 -17.1428571429 -0.09857030899999999
0.3633752817 -17.1428571429 -0.0898714804
0.1685477241 -17.1428571429 -0.06864861630000001
0.0509523375 -17.1428571429 -0.0417530236
0 -17.1428571429 0
0.0428550577 -17.1428571429 0.0492490711
0.1574781727 -17.1428571429 0.0876478888
0.3530634385 -17.1428571429 0.1128211401
0.637577202 -17.1428571429 0.1184239258
0.9846877929 -17.1428571429 0.1039370699
1.3310039379 -17.1428571429 0.07629347710000001
1.6141172668 -17.1428571429 0.0472736578
1.8102197693 -17.1428571429 0.024367136
1.9309648209 -17.1428571429 0.0091265368
2 -19.2857142857 0
1.9313111455 -19.2857142857 -0.008031165999999999
1.8111853728 -19.2857142857 -0.0213754526
1.6161226872 -19.2857142857 -0.0412522683
1.3345839152 -19.2857142857 -0.06601507650000001
0.990332064 -19.2857142857 -0.088713571
0.6455033893 -19.2857142857 -0.0987826037
0.3630697624 -19.2857142857 -0.0904789981
0.1682008242 -19.2857142857 -0.0693581244
0.0506875011 -19.2857142857 -0.0420282663
0 -19.2857142857 0
0.043939768 -19.2857142857 0.0482749725
0.158976198 -19.2857142857 0.0851908515
0.3544765597 -19.2857142857 0.1096037145
0.6386970208 -19.2857142857 0.1153272844
0.9854731305 -19.2857142857 0.1013773165
1.3314917169 -19.2857142857 0.07448812589999999
1.6143849706 -19.2857142857 0.0461842545
1.810346492 -19.2857142857 0.0238152096
1.9310097149 -19.2857142857 0.0089219903
2 -21.4285714286 0
1.9312957534 -21.4285714286 -0.008004784399999999
1.8111443194 -21.4285714286 -0.0213114776
1.6160428476 -21.4285714286 -0.0411492623
1.3344532546 -21.4285714286 -0.0659043351
0.9901456148 -21.4285714286 -0.0886865667
0.6452619344 -21.4285714286 -0.0989948984
0.362764243 -21.4285714286 -0.0910865158
0.1678539243 -21.4285714286 -0.0700676325
0.0504226648 -21.4285714286 -0.042303509
0 -21.4285714286 0
0.0450244783 -21.4285714286 0.047300874
0.1604742234 -21.4285714286 0.0827338141
0.3558896809 -21.4285714286 0.1063862889
0.6398168396 -21.4285714286 0.112230643
0.9862584681 -21.4285714286 0.09881756310000001
1.331979496 -21.4285714286 0.0726827746
1.6146526743 -21.4285714286 0.0450948512
1.8104732148 -21.4285714286 0.0232632832
1.9310546089 -21.4285714286 0.0087174439
2 -23.5714285714 0
1.9312803613 -23.5714285714 -0.007978402900000001
1.811103266 -23.5714285714 -0.0212475026
1.6159630081 -23.5714285714 -0.0410462562
1.3343225941 -23.5714285714 -0.0657935937
0.9899591657 -23.5714285714 -0.08865956229999999
0.6450204795 -23.5714285714 -0.09920719309999999
0.3624587237 -23.5714285714 -0.0916940334
0.1675070244 -23.5714285714 -0.0707771405
0.0501578284 -23.5714285714 -0.0425787516
0 -23.5714285714 0
0.0461091885 -23.5714285714 0.0463267754
0.1619722487 -23.5714285714 0.0802767768
0.3573028021 -23.5714285714 0.1031688633
0.6409366584 -23.5714285714 0.1091340016
0.9870438056 -23.5714285714 0.09625780959999999
1.3324672751 -23.5714285714 0.07087742330000001
1.6149203781 -23.5714285714 0.0440054479
1.8105999375 -23.5714285714 0.0227113567
1.9310995029 -23.5714285714 0.0085128974
2 -25.7142857143 0
1.9312649692 -25.7142857143 -0.007952021300000001
1.8110622125 -25.7142857143 -0.0211835276
1.6158831685 -25.7142857143 -0.0409432501
1.3341919335 -25.7142857143 -0.0656828523
0.9897727166 -25.7142857143 -0.088632558
0.6447790246 -25.7142857143 -0.0994194878
0.3621532044 -25.7142857143 -0.0923015511
0.1671601245 -25.7142857143 -0.07148664859999999
0.0498929921 -25.7142857143 -0.0428539943
0 -25.7142857143 0
0.0471938988 -25.7142857143 0.0453526768
0.1634702741 -25.7142857143 0.0778197394
0.3587159233 -25.7142857143 0.09995143770000001
0.6420564772 -25.7142857143 0.1060373601
0.9878291432 -25.7142857143 0.0936980562
1.3329550542 -25.7142857143 0.069072072
1.6151880818 -25.7142857143 0.0429160445
1.8107266602 -25.7142857143 0.0221594303
1.9311443969 -25.7142857143 0.008308351
2 -27.8571428571 0
1.931249577 -27.8571428571 -0.007925639700000001
1.8110211591 -27.8571428571 -0.0211195526
1.6158033289 -27.8571428571 -0.040840244
1.3340612729 -27.8571428571 -0.06557211089999999
0.9895862675 -27.8571428571 -0.08860555370000001
0.6445375697 -27.8571428571 -0.0996317826
0.3618476851 -27.8571428571 -0.09290906879999999
0.1668132247 -27.8571428571 -0.07219615660000001
0.0496281557 -27.8571428571 -0.043129237
0 -27.8571428571 0
0.0482786091 -27.8571428571 0.0443785782
0.1649682994 -27.8571428571 0.0753627021
0.3601290445 -27.8571428571 0.0967340121
0.643176296 -27.8571428571 0.1029407187
0.9886144808 -27.8571428571 0.0911383028
1.3334428333 -27.8571428571 0.0672667208
1.6154557856 -27.8571428571 0.0418266412
1.810853383 -27.8571428571 0.0216075039
1.9311892909 -27.8571428571 0.008103804500000001
2 -30 0
1.9312341849 -30 -0.007899258100000001
1.8109801057 -30 -0.0210555775
1.6157234894 -30 -0.0407372379
1.3339306124 -30 -0.06546136950000001
0.9893998183 -30 -0.0885785493
0.6442961148 -30 -0.0998440773
0.3615421657 -30 -0.0935165865
0.1664663248 -30 -0.0729056647
0.0493633194 -30 -0.0434044797
0 -30 0
0.0493633194 -30 0.0434044797
0.1664663248 -30 0.0729056647
0.3615421657 -30 0.0935165865
0.6442961148 -30 0.0998440773
0.9893998183 -30 0.0885785493
1.3339306124 -30 0.06546136950000001
1.6157234894 -30 0.0407372379
1.8109801057 -30 0.0210555775
1.9312341849 -30 0.007899258100000001
1.9312342148 -30.0055840125 -0.0055846787
1.8109802483 -30.014883469 -0.0148863185
1.6157240914 -30.0287923895 -0.0288026472
1.3339325176 -30.0462601576 -0.0462870754
0.9894044091999999 -30.0625876579 -0.0626403183
0.6443040128 -30.0705431465 -0.07061731960000001
0.3615514842 -30.0660764248 -0.0661521065
0.1664736698 -30.051522756 -0.0515695499
0.0493663612 -30.0306810045 -0.0306920314
0.0493720196 -30.0306810025 0.0306741328
0.1664866573 -30.0515227434 0.0514934133
0.3615670006 -30.0660763998 0.0660341623
0.644317135 -30.0705431223 0.07050838299999999
0.9894127196 -30.0625876437 0.0625663429
1.3339364346 -30.0462601524 0.0462504225
1.6157255044 -30.0287923882 0.0287889694
1.8109806263 -30.0148834688 0.0148825722
1.9312343012 -30.0055840125 0.0055838099
1.9312342883 -30.0078984671 -6.144e-07
1.8109805747 -30.0210522459 -2.6496e-06
1.6157253402 -30.0407255725 -9.673299999999999e-06
1.3339360774 -30.0654320569 -2.59216e-05
0.9894121889 -30.0885250829 -5.23161e-05
0.6443165659 -30.0997768662 -7.70405e-05
0.3615663193 -30.0934596057 -8.34111e-05
0.166485899 -30.0728759136 -5.38453e-05
0.0493716238 -30.0433973935 -1.26585e-05
$EndNodes
$Elements
1 1264 1 1264
2 0 2 1264
1 1 3 2 
2 3 4 2 
3 2 4 5 
4 4 6 5 
5 5 6 7 
6 6 8 7 
7 7 8 9 
8 8 10 9 
9 9 10 11 
10 10 12 11 
11 11 12 13 
12 11 13 14 
13 14 13 15 
14 14 15 16 
15 16 15 17 
16 16 17 18 
17 18 17 19 
18 18 19 20 
19 20 19 21 
20 20 21 22 
21 22 21 23 
22 21 24 23 
23 23 24 25 
24 24 26 25 
25 25 26 27 
26 26 28 27 
27 27 28 29 
28 28 30 29 
29 29 30 31 
30 30 32 31 
31 31 32 33 
32 31 33 34 
33 34 33 35 
34 34 35 36 
35 36 35 37 
36 36 37 38 
37 38 37 39 
38 38 39 40 
39 40 39 3 
40 40 3 1 
41 3 41 4 
42 41 42 4 
43 4 42 6 
44 42 43 6 
45 6 43 8 
46 43 44 8 
47 8 44 10 
48 44 45 10 
49 10 45 12 
50 45 46 12 
51 12 46 47 
52 12 47 13 
53 13 47 48 
54 13 48 15 
55 15 48 49 
56 15 49 17 
57 17 49 50 
58 17 50 19 
59 19 50 51 
60 19 51 21 
61 21 51 24 
62 51 52 24 
63 24 52 26 
64 52 53 26 
65 26 53 28 
66 53 54 28 
67 28 54 30 
68 54 55 30 
69 30 55 32 
70 55 56 32 
71 32 56 57 
72 32 57 33 
73 33 57 58 
74 33 58 35 
75 35 58 59 
76 35 59 37 
77 37 59 60 
78 37 60 39 
79 39 60 41 
80 39 41 3 
81 41 61 42 
82 61 62 42 
83 42 62 43 
84 62 63 43 
85 43 63 44 
86 63 64 44 
87 44 64 45 
88 64 65 45 
89 45 65 46 
90 65 66 46 
91 46 66 67 
92 46 67 47 
93 47 67 68 
94 47 68 48 
95 48 68 69 
96 48 69 49 
97 49 69 70 
98 49 70 50 
99 50 70 71 
100 50 71 51 
101 51 71 52 
102 71 72 52 
103 52 72 53 
104 72 73 53 
105 53 73 54 
106 73 74 54 
107 54 74 55 
108 74 75 55 
109 55 75 56 
110 75 76 56 
111 56 76 77 
112 56 77 57 
113 57 77 78 
114 57 78 58 
115 58 78 79 
116 58 79 59 
117 59 79 80 
118 59 80 60 
119 60 80 61 
120 60 61 41 
121 61 81 62 
122 81 82 62 
123 62 82 63 
124 82 83 63 
125 63 83 64 
126 83 84 64 
127 64 84 65 
128 84 85 65 
129 65 85 66 
130 85 86 66 
131 66 86 87 
132 66 87 67 
133 67 87 88 
134 67 88 68 
135 68 88 89 
136 68 89 69 
137 69 89 90 
138 69 90 70 
139 70 90 91 
140 70 91 71 
141 71 91 72 
142 91 92 72 
143 72 92 73 
144 92 93 73 
145 73 93 74 
146 93 94 74 
147 74 94 75 
148 94 95 75 
149 75 95 76 
150 95 96 76 
151 76 96 97 
152 76 97 77 
153 77 97 98 
154 77 98 78 
155 78 98 99 
156 78 99 79 
157 79 99 100 
158 79 100 80 
159 80 100 81 
160 80 81 61 
161 81 101 82 
162 101 102 82 
163 82 102 83 
164 102 103 83 
165 83 103 84 
166 103 104 84 
167 84 104 85 
168 104 105 85 
169 85 105 86 
170 105 106 86 
171 86 106 107 
172 86 107 87 
173 87 107 108 
174 87 108 88 
175 88 108 109 
176 88 109 89 
177 89 109 110 
178 89 110 90 
179 90 110 111 
180 90 111 91 
181 91 111 92 
182 111 112 92 
183 92 112 93 
184 112 113 93 
185 93 113 94 
186 113 114 94 
187 94 114 95 
188 114 115 95 
189 95 115 96 
190 115 116 96 
191 96 116 117 
192 96 117 97 
193 97 117 118 
194 97 118 98 
195 98 118 119 
196 98 119 99 
197 99 119 120 
198 99 120 100 
199 100 120 101 
200 100 101 81 
201 101 121 102 
202 121 122 102 
203 102 122 103 
204 122 123 103 
205 103 123 104 
206 123 124 104 
207 104 124 105 
208 124 125 105 
209 105 125 106 
210 125 126 106 
211 106 126 127 
212 106 127 107 
213 107 127 128 
214 107 128 108 
215 108 128 129 
216 108 129 109 
217 109 129 130 
218 109 130 110 
219 110 130 131 
220 110 131 111 
221 111 131 112 
222 131 132 112 
223 112 132 113 
224 132 133 113 
225 113 133 114 
226 133 134 114 
227 114 134 115 
228 134 135 115 
229 115 135 116 
230 135 136 116 
231 116 136 137 
232 116 137 117 
233 117 137 138 
234 117 138 118 
235 118 138 139 
236 118 139 119 
237 119 139 140 
238 119 140 120 
239 120 140 121 
240 120 121 101 
241 121 141 122 
242 141 142 122 
243 122 142 123 
244 142 143 123 
245 123 143 124 
246 143 144 124 
247 124 144 125 
248 144 145 125 
249 125 145 126 
250 145 146 126 
251 126 146 147 
252 126 147 127 
253 127 147 148 
254 127 148 128 
255 128 148 149 
256 128 149 129 
257 129 149 150 
258 129 150 130 
259 130 150 151 
260 130 151 131 
261 131 151 132 
262 151 152 132 
263 132 152 133 
264 152 153 133 
265 133 153 134 
266 153 154 134 
267 134 154 135 
268 154 155 135 
269 135 155 136 
270 155 156 136 
271 136 156 157 
272 136 157 137 
273 137 157 158 
274 137 158 138 
275 138 158 159 
276 138 159 139 
277 139 159 160 
278 139 160 140 
279 140 160 141 
280 140 141 121 
281 141 161 142 
282 161 162 142 
283 142 162 143 
284 162 163 143 
285 143 163 144 
286 163 164 144 
287 144 164 145 
288 164 165 145 
289 145 165 146 
290 165 166 146 
291 146 166 167 
292 146 167 147 
293 147 167 168 
294 147 168 148 
295 148 168 169 
296 148 169 149 
297 149 169 170 
298 149 170 150 
299 150 170 171 
300 150 171 151 
301 151 171 152 
302 171 172 152 
303 152 172 153 
304 172 173 153 
305 153 173 154 
306 173 174 154 
307 154 174 155 
308 174 175 155 
309 155 175 156 
310 175 176 156 
311 156 176 177 
312 156 177 157 
313 157 177 178 
314 157 178 158 
315 158 178 179 
316 158 179 159 
317 159 179 180 
318 159 180 160 
319 160 180 161 
320 160 161 141 
321 161 181 162 
322 181 182 162 
323 162 182 163 
324 182 183 163 
325 163 183 164 
326 183 184 164 
327 164 184 165 
328 184 185 165 
329 165 185 166 
330 185 186 166 
331 166 186 187 
332 166 187 167 
333 167 187 188 
334 167 188 168 
335 168 188 189 
336 168 189 169 
337 169 189 190 
338 169 190 170 
339 170 190 191 
340 170 191 171 
341 171 191 172 
342 191 192 172 
343 172 192 173 
344 192 193 173 
345 173 193 174 
346 193 194 174 
347 174 194 175 
348 194 195 175 
349 175 195 176 
350 195 196 176 
351 176 196 197 
352 176 197 177 
353 177 197 198 
354 177 198 178 
355 178 198 199 
356 178 199 179 
357 179 199 200 
358 179 200 180 
359 180 200 181 
360 180 181 161 
361 181 201 182 
362 201 202 182 
363 182 202 183 
364 202 203 183 
365 183 203 184 
366 203 204 184 
367 184 204 185 
368 204 205 185 
369 185 205 186 
370 205 206 186 
371 186 206 207 
372 186 207 187 
373 187 207 208 
374 187 208 188 
375 188 208 209 
376 188 209 189 
377 189 209 210 
378 189 210 190 
379 190 210 211 
380 190 211 191 
381 191 211 192 
382 211 212 192 
383 192 212 193 
384 212 213 193 
385 193 213 194 
386 213 214 194 
387 194 214 195 
388 214 215 195 
389 195 215 196 
390 215 216 196 
391 196 216 217 
392 196 217 197 
393 197 217 218 
394 197 218 198 
395 198 218 219 
396 198 219 199 
397 199 219 220 
398 199 220 200 
399 200 220 201 
400 200 201 181 
401 201 221 202 
402 221 222 202 
403 202 222 203 
404 222 223 203 
405 203 223 204 
406 223 224 204 
407 204 224 205 
408 224 225 205 
409 205 225 206 
410 225 226 206 
411 206 226 227 
412 206 227 207 
413 207 227 228 
414 207 228 208 
415 208 228 229 
416 208 229 209 
417 209 229 230 
418 209 230 210 
419 210 230 231 
420 210 231 211 
421 211 231 212 
422 231 232 212 
423 212 232 213 
424 232 233 213 
425 213 233 214 
426 233 234 214 
427 214 234 215 
428 234 235 215 
429 215 235 216 
430 235 236 216 
431 216 236 237 
432 216 237 217 
433 217 237 238 
434 217 238 218 
435 218 238 239 
436 218 239 219 
437 219 239 240 
438 219 240 220 
439 220 240 221 
440 220 221 201 
441 221 241 222 
442 241 242 222 
443 222 242 223 
444 242 243 223 
445 223 243 224 
446 243 244 224 
447 224 244 225 
448 244 245 225 
449 225 245 226 
450 245 246 226 
451 226 246 247 
452 226 247 227 
453 227 247 248 
454 227 248 228 
455 228 248 249 
456 228 249 229 
457 229 249 250 
458 229 250 230 
459 230 250 251 
460 230 251 231 
461 231 251 232 
462 251 252 232 
463 232 252 233 
464 252 253 233 
465 233 253 234 
466 253 254 234 
467 234 254 235 
468 254 255 235 
469 235 255 236 
470 255 256 236 
471 236 256 257 
472 236 257 237 
473 237 257 258 
474 237 258 238 
475 238 258 259 
476 238 259 239 
477 239 259 260 
478 239 260 240 
479 240 260 241 
480 240 241 221 
481 241 261 242 
482 261 262 242 
483 242 262 243 
484 262 263 243 
485 243 263 244 
486 263 264 244 
487 244 264 245 
488 264 265 245 
489 245 265 246 
490 265 266 246 
491 246 266 267 
492 246 267 247 
493 247 267 268 
494 247 268 248 
495 248 268 269 
496 248 269 249 
497 249 269 270 
498 249 270 250 
499 250 270 271 
500 250 271 251 
501 251 271 252 
502 271 272 252 
503 252 272 253 
504 272 273 253 
505 253 273 254 
506 273 274 254 
507 254 274 255 
508 274 275 255 
509 255 275 256 
510 275 276 256 
511 256 276 277 
512 256 277 257 
513 257 277 278 
514 257 278 258 
515 258 278 279 
516 258 279 259 
517 259 279 280 
518 259 280 260 
519 260 280 261 
520 260 261 241 
521 261 281 262 
522 281 282 262 
523 262 282 263 
524 282 283 263 
525 263 283 264 
526 283 284 264 
527 264 284 265 
528 284 285 265 
529 265 285 266 
530 285 286 266 
531 266 286 287 
532 266 287 267 
533 267 287 288 
534 267 288 268 
535 268 288 289 
536 268 289 269 
537 269 289 290 
538 269 290 270 
539 270 290 291 
540 270 291 271 
541 271 291 272 
542 291 292 272 
543 272 292 273 
544 292 293 273 
545 273 293 274 
546 293 294 274 
547 274 294 275 
548 294 295 275 
549 275 295 276 
550 295 296 276 
551 276 296 297 
552 276 297 277 
553 277 297 298 
554 277 298 278 
555 278 298 299 
556 278 299 279 
557 279 299 300 
558 279 300 280 
559 280 300 281 
560 280 281 261 
561 281 301 282 
562 282 301 302 
563 282 302 283 
564 283 302 303 
565 283 303 284 
566 284 303 304 
567 284 304 285 
568 285 304 305 
569 285 305 286 
570 286 305 287 
571 305 306 287 
572 287 306 288 
573 306 307 288 
574 288 307 289 
575 307 308 289 
576 289 308 290 
577 308 309 290 
578 290 309 291 
579 291 310 292 
580 292 310 311 
581 292 311 293 
582 293 311 312 
583 293 312 294 
584 294 312 313 
585 294 313 295 
586 295 313 314 
587 295 314 296 
588 296 314 297 
589 314 315 297 
590 297 315 298 
591 315 316 298 
592 298 316 299 
593 316 317 299 
594 299 317 300 
595 317 318 300 
596 300 318 281 
597 281 319 301 
598 301 319 320 
599 301 320 302 
600 302 320 321 
601 302 321 303 
602 303 321 322 
603 303 322 304 
604 304 322 323 
605 304 323 305 
606 305 323 306 
607 323 324 306 
608 306 324 307 
609 324 325 307 
610 307 325 308 
611 325 326 308 
612 308 326 309 
613 326 327 309 
614 309 327 291 
615 291 327 310 
616 310 327 326 
617 310 326 311 
618 311 326 325 
619 311 325 312 
620 312 325 324 
621 312 324 313 
622 313 324 323 
623 313 323 314 
624 314 323 315 
625 323 322 315 
626 315 322 316 
627 322 321 316 
628 316 321 317 
629 321 320 317 
630 317 320 318 
631 320 319 318 
632 318 319 281 
633 1 2 328 
634 328 2 329 
635 2 5 329 
636 329 5 330 
637 5 7 330 
638 330 7 331 
639 7 9 331 
640 331 9 332 
641 9 11 332 
642 332 11 333 
643 11 334 333 
644 11 14 334 
645 14 335 334 
646 14 16 335 
647 16 336 335 
648 16 18 336 
649 18 337 336 
650 18 20 337 
651 20 338 337 
652 20 22 338 
653 22 23 338 
654 338 23 339 
655 23 25 339 
656 339 25 340 
657 25 27 340 
658 340 27 341 
659 27 29 341 
660 341 29 342 
661 29 31 342 
662 342 31 343 
663 31 344 343 
664 31 34 344 
665 34 345 344 
666 34 36 345 
667 36 346 345 
668 36 38 346 
669 38 347 346 
670 38 40 347 
671 40 328 347 
672 40 1 328 
673 328 329 348 
674 348 329 349 
675 329 330 349 
676 349 330 350 
677 330 331 350 
678 350 331 351 
679 331 332 351 
680 351 332 352 
681 332 333 352 
682 352 333 353 
683 333 354 353 
684 333 334 354 
685 334 355 354 
686 334 335 355 
687 335 356 355 
688 335 336 356 
689 336 357 356 
690 336 337 357 
691 337 358 357 
692 337 338 358 
693 338 339 358 
694 358 339 359 
695 339 340 359 
696 359 340 360 
697 340 341 360 
698 360 341 361 
699 341 342 361 
700 361 342 362 
701 342 343 362 
702 362 343 363 
703 343 364 363 
704 343 344 364 
705 344 365 364 
706 344 345 365 
707 345 366 365 
708 345 346 366 
709 346 367 366 
710 346 347 367 
711 347 348 367 
712 347 328 348 
713 348 349 368 
714 368 349 369 
715 349 350 369 
716 369 350 370 
717 350 351 370 
718 370 351 371 
719 351 352 371 
720 371 352 372 
721 352 353 372 
722 372 353 373 
723 353 374 373 
724 353 354 374 
725 354 375 374 
726 354 355 375 
727 355 376 375 
728 355 356 376 
729 356 377 376 
730 356 357 377 
731 357 378 377 
732 357 358 378 
733 358 359 378 
734 378 359 379 
735 359 360 379 
736 379 360 380 
737 360 361 380 
738 380 361 381 
739 361 362 381 
740 381 362 382 
741 362 363 382 
742 382 363 383 
743 363 384 383 
744 363 364 384 
745 364 385 384 
746 364 365 385 
747 365 386 385 
748 365 366 386 
749 366 387 386 
750 366 367 387 
751 367 368 387 
752 367 348 368 
753 368 369 388 
754 388 369 389 
755 369 370 389 
756 389 370 390 
757 370 371 390 
758 390 371 391 
759 371 372 391 
760 391 372 392 
761 372 373 392 
762 392 373 393 
763 373 394 393 
764 373 374 394 
765 374 395 394 
766 374 375 395 
767 375 396 395 
768 375 376 396 
769 376 397 396 
770 376 377 397 
771 377 398 397 
772 377 378 398 
773 378 379 398 
774 398 379 399 
775 379 380 399 
776 399 380 400 
777 380 381 400 
778 400 381 401 
779 381 382 401 
780 401 382 402 
781 382 383 402 
782 402 383 403 
783 383 404 403 
784 383 384 404 
785 384 405 404 
786 384 385 405 
787 385 406 405 
788 385 386 406 
789 386 407 406 
790 386 387 407 
791 387 388 407 
792 387 368 388 
793 388 389 408 
794 408 389 409 
795 389 390 409 
796 409 390 410 
797 390 391 410 
798 410 391 411 
799 391 392 411 
800 411 392 412 
801 392 393 412 
802 412 393 413 
803 393 414 413 
804 393 394 414 
805 394 415 414 
806 394 395 415 
807 395 416 415 
808 395 396 416 
809 396 417 416 
810 396 397 417 
811 397 418 417 
812 397 398 418 
813 398 399 418 
814 418 399 419 
815 399 400 419 
816 419 400 420 
817 400 401 420 
818 420 401 421 
819 401 402 421 
820 421 402 422 
821 402 403 422 
822 422 403 423 
823 403 424 423 
824 403 404 424 
825 404 425 424 
826 404 405 425 
827 405 426 425 
828 405 406 426 
829 406 427 426 
830 406 407 427 
831 407 408 427 
832 407 388 408 
833 408 409 428 
834 428 409 429 
835 409 410 429 
836 429 410 430 
837 410 411 430 
838 430 411 431 
839 411 412 431 
840 431 412 432 
841 412 413 432 
842 432 413 433 
843 413 434 433 
844 413 414 434 
845 414 435 434 
846 414 415 435 
847 415 436 435 
848 415 416 436 
849 416 437 436 
850 416 417 437 
851 417 438 437 
852 417 418 438 
853 418 419 438 
854 438 419 439 
855 419 420 439 
856 439 420 440 
857 420 421 440 
858 440 421 441 
859 421 422 441 
860 441 422 442 
861 422 423 442 
862 442 423 443 
863 423 444 443 
864 423 424 444 
865 424 445 444 
866 424 425 445 
867 425 446 445 
868 425 426 446 
869 426 447 446 
870 426 427 447 
871 427 428 447 
872 427 408 428 
873 428 429 448 
874 448 429 449 
875 429 430 449 
876 449 430 450 
877 430 431 450 
878 450 431 451 
879 431 432 451 
880 451 432 452 
881 432 433 452 
882 452 433 453 
883 433 454 453 
884 433 434 454 
885 434 455 454 
886 434 435 455 
887 435 456 455 
888 435 436 456 
889 436 457 456 
890 436 437 457 
891 437 458 457 
892 437 438 458 
893 438 439 458 
894 458 439 459 
895 439 440 459 
896 459 440 460 
897 440 441 460 
898 460 441 461 
899 441 442 461 
900 461 442 462 
901 442 443 462 
902 462 443 463 
903 443 464 463 
904 443 444 464 
905 444 465 464 
906 444 445 465 
907 445 466 465 
908 445 446 466 
909 446 467 466 
910 446 447 467 
911 447 448 467 
912 447 428 448 
913 448 449 468 
914 468 449 469 
915 449 450 469 
916 469 450 470 
917 450 451 470 
918 470 451 471 
919 451 452 471 
920 471 452 472 
921 452 453 472 
922 472 453 473 
923 453 474 473 
924 453 454 474 
925 454 475 474 
926 454 455 475 
927 455 476 475 
928 455 456 476 
929 456 477 476 
930 456 457 477 
931 457 478 477 
932 457 458 478 
933 458 459 478 
934 478 459 479 
935 459 460 479 
936 479 460 480 
937 460 461 480 
938 480 461 481 
939 461 462 481 
940 481 462 482 
941 462 463 482 
942 482 463 483 
943 463 484 483 
944 463 464 484 
945 464 485 484 
946 464 465 485 
947 465 486 485 
948 465 466 486 
949 466 487 486 
950 466 467 487 
951 467 468 487 
952 467 448 468 
953 468 469 488 
954 488 469 489 
955 469 470 489 
956 489 470 490 
957 470 471 490 
958 490 471 491 
959 471 472 491 
960 491 472 492 
961 472 473 492 
962 492 473 493 
963 473 494 493 
964 473 474 494 
965 474 495 494 
966 474 475 495 
967 475 496 495 
968 475 476 496 
969 476 497 496 
970 476 477 497 
971 477 498 497 
972 477 478 498 
973 478 479 498 
974 498 479 499 
975 479 480 499 
976 499 480 500 
977 480 481 500 
978 500 481 501 
979 481 482 501 
980 501 482 502 
981 482 483 502 
982 502 483 503 
983 483 504 503 
984 483 484 504 
985 484 505 504 
986 484 485 505 
987 485 506 505 
988 485 486 506 
989 486 507 506 
990 486 487 507 
991 487 488 507 
992 487 468 488 
993 488 489 508 
994 508 489 509 
995 489 490 509 
996 509 490 510 
997 490 491 510 
998 510 491 511 
999 491 492 511 
1000 511 492 512 
1001 492 493 512 
1002 512 493 513 
1003 493 514 513 
1004 493 494 514 
1005 494 515 514 
1006 494 495 515 
1007 495 516 515 
1008 495 496 516 
1009 496 517 516 
1010 496 497 517 
1011 497 518 517 
1012 497 498 518 
1013 498 499 518 
1014 518 499 519 
1015 499 500 519 
1016 519 500 520 
1017 500 501 520 
1018 520 501 521 
1019 501 502 521 
1020 521 502 522 
1021 502 503 522 
1022 522 503 523 
1023 503 524 523 
1024 503 504 524 
1025 504 525 524 
1026 504 505 525 
1027 505 526 525 
1028 505 506 526 
1029 506 527 526 
1030 506 507 527 
1031 507 508 527 
1032 507 488 508 
1033 508 509 528 
1034 528 509 529 
1035 509 510 529 
1036 529 510 530 
1037 510 511 530 
1038 530 511 531 
1039 511 512 531 
1040 531 512 532 
1041 512 513 532 
1042 532 513 533 
1043 513 534 533 
1044 513 514 534 
1045 514 535 534 
1046 514 515 535 
1047 515 536 535 
1048 515 516 536 
1049 516 537 536 
1050 516 517 537 
1051 517 538 537 
1052 517 518 538 
1053 518 519 538 
1054 538 519 539 
1055 519 520 539 
1056 539 520 540 
1057 520 521 540 
1058 540 521 541 
1059 521 522 541 
1060 541 522 542 
1061 522 523 542 
1062 542 523 543 
1063 523 544 543 
1064 523 524 544 
1065 524 545 544 
1066 524 525 545 
1067 525 546 545 
1068 525 526 546 
1069 526 547 546 
1070 526 527 547 
1071 527 528 547 
1072 527 508 528 
1073 528 529 548 
1074 548 529 549 
1075 529 530 549 
1076 549 530 550 
1077 530 531 550 
1078 550 531 551 
1079 531 532 551 
1080 551 532 552 
1081 532 533 552 
1082 552 533 553 
1083 533 554 553 
1084 533 534 554 
1085 534 555 554 
1086 534 535 555 
1087 535 556 555 
1088 535 536 556 
1089 536 557 556 
1090 536 537 557 
1091 537 558 557 
1092 537 538 558 
1093 538 539 558 
1094 558 539 559 
1095 539 540 559 
1096 559 540 560 
1097 540 541 560 
1098 560 541 561 
1099 541 542 561 
1100 561 542 562 
1101 542 543 562 
1102 562 543 563 
1103 543 564 563 
1104 543 544 564 
1105 544 565 564 
1106 544 545 565 
1107 545 566 565 
1108 545 546 566 
1109 546 567 566 
1110 546 547 567 
1111 547 548 567 
1112 547 528 548 
1113 548 549 568 
1114 568 549 569 
1115 549 550 569 
1116 569 550 570 
1117 550 551 570 
1118 570 551 571 
1119 551 552 571 
1120 571 552 572 
1121 552 553 572 
1122 572 553 573 
1123 553 574 573 
1124 553 554 574 
1125 554 575 574 
1126 554 555 575 
1127 555 576 575 
1128 555 556 576 
1129 556 577 576 
1130 556 557 577 
1131 557 578 577 
1132 557 558 578 
1133 558 559 578 
1134 578 559 579 
1135 559 560 579 
1136 579 560 580 
1137 560 561 580 
1138 580 561 581 
1139 561 562 581 
1140 581 562 582 
1141 562 563 582 
1142 582 563 583 
1143 563 584 583 
1144 563 564 584 
1145 564 585 584 
1146 564 565 585 
1147 565 586 585 
1148 565 566 586 
1149 566 587 586 
1150 566 567 587 
1151 567 568 587 
1152 567 548 568 
1153 568 569 588 
1154 588 569 589 
1155 569 570 589 
1156 589 570 590 
1157 570 571 590 
1158 590 571 591 
1159 571 572 591 
1160 591 572 592 
1161 572 573 592 
1162 592 573 593 
1163 573 594 593 
1164 573 574 594 
1165 574 595 594 
1166 574 575 595 
1167 575 596 595 
1168 575 576 596 
1169 576 597 596 
1170 576 577 597 
1171 577 598 597 
1172 577 578 598 
1173 578 579 598 
1174 598 579 599 
1175 579 580 599 
1176 599 580 600 
1177 580 581 600 
1178 600 581 601 
1179 581 582 601 
1180 601 582 602 
1181 582 583 602 
1182 602 583 603 
1183 583 604 603 
1184 583 584 604 
1185 584 605 604 
1186 584 585 605 
1187 585 606 605 
1188 585 586 606 
1189 586 607 606 
1190 586 587 607 
1191 587 588 607 
1192 587 568 588 
1193 588 589 608 
1194 589 609 608 
1195 589 590 609 
1196 590 610 609 
1197 590 591 610 
1198 591 611 610 
1199 591 592 611 
1200 592 612 611 
1201 592 593 612 
1202 593 594 612 
1203 612 594 613 
1204 594 595 613 
1205 613 595 614 
1206 595 596 614 
1207 614 596 615 
1208 596 597 615 
1209 615 597 616 
1210 597 598 616 
1211 598 599 617 
1212 599 618 617 
1213 599 600 618 
1214 600 619 618 
1215 600 601 619 
1216 601 620 619 
1217 601 602 620 
1218 602 621 620 
1219 602 603 621 
1220 603 604 621 
1221 621 604 622 
1222 604 605 622 
1223 622 605 623 
1224 605 606 623 
1225 623 606 624 
1226 606 607 624 
1227 624 607 625 
1228 607 588 625 
1229 588 608 626 
1230 608 627 626 
1231 608 609 627 
1232 609 628 627 
1233 609 610 628 
1234 610 629 628 
1235 610 611 629 
1236 611 630 629 
1237 611 612 630 
1238 612 613 630 
1239 630 613 631 
1240 613 614 631 
1241 631 614 632 
1242 614 615 632 
1243 632 615 633 
1244 615 616 633 
1245 633 616 634 
1246 616 598 634 
1247 598 617 634 
1248 617 633 634 
1249 617 618 633 
1250 618 632 633 
1251 618 619 632 
1252 619 631 632 
1253 619 620 631 
1254 620 630 631 
1255 620 621 630 
1256 621 622 630 
1257 630 622 629 
1258 622 623 629 
1259 629 623 628 
1260 623 624 628 
1261 628 624 627 
1262 624 625 627 
1263 627 625 626 
1264 625 588 626 
$EndElements
