$MeshFormat
4.1 0 8
$EndMeshFormat
$Entities
0 0 1 0
0 0 -30 -0.09915311639999999 2 30 0.1427477517 0 0 
$EndEntities
$Nodes
1 1194 1 1194
2 0 0 1194
1
2
3
4
5
6
7
8
9
10
11
12
13
14
15
16
17
18
19
20
21
22
23
24
25
26
27
28
29
30
31
32
33
34
35
36
37
38
39
40
41
42
43
44
45
46
47
48
49
50
51
52
53
54
55
56
57
58
59
60
61
62
63
64
65
66
67
68
69
70
71
72
73
74
75
76
77
78
79
80
81
82
83
84
85
86
87
88
89
90
91
92
93
94
95
96
97
98
99
100
101
102
103
104
105
106
107
108
109
110
111
112
113
114
115
116
117
118
119
120
121
122
123
124
125
126
127
128
129
130
131
132
133
134
135
136
137
138
139
140
141
142
143
144
145
146
147
148
149
150
151
152
153
154
155
156
157
158
159
160
161
162
163
164
165
166
167
168
169
170
171
172
173
174
175
176
177
178
179
180
181
182
183
184
185
186
187
188
189
190
191
192
193
194
195
196
197
198
199
200
201
202
203
204
205
206
207
208
209
210
211
212
213
214
215
216
217
218
219
220
221
222
223
224
225
226
227
228
229
230
231
232
233
234
235
236
237
238
239
240
241
242
243
244
245
246
247
248
249
250
251
252
253
254
255
256
257
258
259
260
261
262
263
264
265
266
267
268
269
270
271
272
273
274
275
276
277
278
279
280
281
282
283
284
285
286
287
288
289
290
291
292
293
294
295
296
297
298
299
300
301
302
303
304
305
306
307
308
309
310
311
312
313
314
315
316
317
318
319
320
321
322
323
324
325
326
327
328
329
330
331
332
333
334
335
336
337
338
339
340
341
342
343
344
345
346
347
348
349
350
351
352
353
354
355
356
357
358
359
360
361
362
363
364
365
366
367
368
369
370
371
372
373
374
375
376
377
378
379
380
381
382
383
384
385
386
387
388
389
390
391
392
393
394
395
396
397
398
399
400
401
402
403
404
405
406
407
408
409
410
411
412
413
414
415
416
417
418
419
420
421
422
423
424
425
426
427
428
429
430
431
432
433
434
435
436
437
438
439
440
441
442
443
444
445
446
447
448
449
450
451
452
453
454
455
456
457
458
459
460
461
462
463
464
465
466
467
468
469
470
471
472
473
474
475
476
477
478
479
480
481
482
483
484
485
486
487
488
489
490
491
492
493
494
495
496
497
498
499
500
501
502
503
504
505
506
507
508
509
510
511
512
513
514
515
516
517
518
519
520
521
522
523
524
525
526
527
528
529
530
531
532
533
534
535
536
537
538
539
540
541
542
543
544
545
546
547
548
549
550
551
552
553
554
555
556
557
558
559
560
561
562
563
564
565
566
567
568
569
570
571
572
573
574
575
576
577
578
579
580
581
582
583
584
585
586
587
588
589
590
591
592
593
594
595
596
597
598
599
600
601
602
603
604
605
606
607
608
609
610
611
612
613
614
615
616
617
618
619
620
621
622
623
624
625
626
627
628
629
630
631
632
633
634
635
636
637
638
639
640
641
642
643
644
645
646
647
648
649
650
651
652
653
654
655
656
657
658
659
660
661
662
663
664
665
666
667
668
669
670
671
672
673
674
675
676
677
678
679
680
681
682
683
684
685
686
687
688
689
690
691
692
693
694
695
696
697
698
699
700
701
702
703
704
705
706
707
708
709
710
711
712
713
714
715
716
717
718
719
720
721
722
723
724
725
726
727
728
729
730
731
732
733
734
735
736
737
738
739
740
741
742
743
744
745
746
747
748
749
750
751
752
753
754
755
756
757
758
759
760
761
762
763
764
765
766
767
768
769
770
771
772
773
774
775
776
777
778
779
780
781
782
783
784
785
786
787
788
789
790
791
792
793
794
795
796
797
798
799
800
801
802
803
804
805
806
807
808
809
810
811
812
813
814
815
816
817
818
819
820
821
822
823
824
825
826
827
828
829
830
831
832
833
834
835
836
837
838
839
840
841
842
843
844
845
846
847
848
849
850
851
852
853
854
855
856
857
858
859
860
861
862
863
864
865
866
867
868
869
870
871
872
873
874
875
876
877
878
879
880
881
882
883
884
885
886
887
888
889
890
891
892
893
894
895
896
897
898
899
900
901
902
903
904
905
906
907
908
909
910
911
912
913
914
915
916
917
918
919
920
921
922
923
924
925
926
927
928
929
930
931
932
933
934
935
936
937
938
939
940
941
942
943
944
945
946
947
948
949
950
951
952
953
954
955
956
957
958
959
960
961
962
963
964
965
966
967
968
969
970
971
972
973
974
975
976
977
978
979
980
981
982
983
984
985
986
987
988
989
990
991
992
993
994
995
996
997
998
999
1000
1001
1002
1003
1004
1005
1006
1007
1008
1009
1010
1011
1012
1013
1014
1015
1016
1017
1018
1019
1020
1021
1022
1023
1024
1025
1026
1027
1028
1029
1030
1031
1032
1033
1034
1035
1036
1037
1038
1039
1040
1041
1042
1043
1044
1045
1046
1047
1048
1049
1050
1051
1052
1053
1054
1055
1056
1057
1058
1059
1060
1061
1062
1063
1064
1065
1066
1067
1068
1069
1070
1071
1072
1073
1074
1075
1076
1077
1078
1079
1080
1081
1082
1083
1084
1085
1086
1087
1088
1089
1090
1091
1092
1093
1094
1095
1096
1097
1098
1099
1100
1101
1102
1103
1104
1105
1106
1107
1108
1109
1110
1111
1112
1113
1114
1115
1116
1117
1118
1119
1120
1121
1122
1123
1124
1125
1126
1127
1128
1129
1130
1131
1132
1133
1134
1135
1136
1137
1138
1139
1140
1141
1142
1143
1144
1145
1146
1147
1148
1149
1150
1151
1152
1153
1154
1155
1156
1157
1158
1159
1160
1161
1162
1163
1164
1165
1166
1167
1168
1169
1170
1171
1172
1173
1174
1175
1176
1177
1178
1179
1180
1181
1182
1183
1184
1185
1186
1187
1188
1189
1190
1191
1192
1193
1194
2 0 0
1.9458110621 0 -0.0065637657
2 1.3043478261 0
1.9458036279 1.3043478261 -0.0065508888
1.8587133261 0 -0.0166848873
1.8586943716 1.3043478261 -0.0166541732
1.7248249882 0 -0.0312595001
1.7247892368 1.3043478261 -0.0312079644
1.5324986013 0 -0.050186443
1.532440362 1.3043478261 -0.0501185533
1.2815113513 0 -0.0711590793
1.2814262137 1.3043478261 -0.0710950575
0.9920101061 0 -0.08895661000000001
0.9918966154 1.3043478261 -0.08894017260000001
0.7019418975 1.3043478261 -0.0970068481
0.7020832082 0 -0.0969092904
0.450152628 1.3043478261 -0.09132187059999999
0.4503242437 0 -0.0910399923
0.2576406813 1.3043478261 -0.0744792539
0.2578463635 0 -0.0740201712
0.1242303447 1.3043478261 -0.0560555505
0.1244338376 0 -0.0556969661
0.0393067763 1.3043478261 -0.0348152814
0.0394530178 0 -0.0346896307
0 1.3043478261 0
0 0 0
0.0227589518 0 0.0477773871
0.0233385393 1.3043478261 0.0473340049
0.0997980309 0 0.0918321314
0.10066566 1.3043478261 0.09061962160000001
0.2320859494 0 0.1263613788
0.2330002852 1.3043478261 0.1245447568
0.4278189178 0 0.1427477517
0.4286257946 1.3043478261 0.1407814666
0.6839300072 0 0.1416108306
0.6845779661 1.3043478261 0.1397648431
0.9784050924 0 0.1244150973
0.978883124 1.3043478261 0.1228569866
1.2724217305 1.3043478261 0.0955926926
1.2720975734 0 0.09677024319999999
1.5267172239 1.3043478261 0.0661942182
1.5265153206 0 0.06699281999999999
1.7214806081 1.3043478261 0.0407248406
1.7213659674 0 0.0412089615
1.8570178583 1.3043478261 0.0215603688
1.8569606077 0 0.0218140917
1.9451664202 1.3043478261 0.008437771599999999
1.9451448905 0 0.0085364159
2 2.6086956522 0
1.9457961937 2.6086956522 -0.0065380119
1.858675417 2.6086956522 -0.0166234592
1.7247534853 2.6086956522 -0.0311564288
1.5323821226 2.6086956522 -0.0500506635
1.2813410762 2.6086956522 -0.0710310358
0.9917831246 2.6086956522 -0.08892373520000001
0.7018005868 2.6086956522 -0.09710440569999999
0.4499810124 2.6086956522 -0.0916037489
0.2574349991 2.6086956522 -0.0749383366
0.1240268517 2.6086956522 -0.0564141349
0.0391605349 2.6086956522 -0.0349409321
0 2.6086956522 0
0.0239181267 2.6086956522 0.0468906227
0.1015332891 2.6086956522 0.0894071119
0.233914621 2.6086956522 0.1227281348
0.4294326714 2.6086956522 0.1388151814
0.685225925 2.6086956522 0.1379188555
0.9793611555 2.6086956522 0.1212988758
1.2727458877 2.6086956522 0.09441514199999999
1.5269191272 2.6086956522 0.0653956164
1.7215952489 2.6086956522 0.0402407196
1.8570751089 2.6086956522 0.0213066459
1.94518795 2.6086956522 0.008339127300000001
2 3.9130434783 0
1.9457887595 3.9130434783 -0.0065251349
1.8586564624 3.9130434783 -0.0165927452
1.7247177339 3.9130434783 -0.0311048931
1.5323238832 3.9130434783 -0.0499827738
1.2812559386 3.9130434783 -0.07096701399999999
0.9916696337999999 3.9130434783 -0.08890729780000001
0.7016592761 3.9130434783 -0.09720196339999999
0.4498093968 3.9130434783 -0.09188562710000001
0.2572293169 3.9130434783 -0.0753974193
0.1238233588 3.9130434783 -0.0567727193
0.0390142934 3.9130434783 -0.0350665828
0 3.9130434783 0
0.0244977142 3.9130434783 0.0464472405
0.1024009181 3.9130434783 0.08819460210000001
0.2348289568 3.9130434783 0.1209115128
0.4302395483 3.9130434783 0.1368488962
0.6858738839 3.9130434783 0.1360728679
0.9798391871 3.9130434783 0.119740765
1.2730700448 3.9130434783 0.0932375914
1.5271210305 3.9130434783 0.0645970146
1.7217098897 3.9130434783 0.0397565987
1.8571323595 3.9130434783 0.021052923
1.9452094798 3.9130434783 0.0082404829
2 5.2173913043 0
1.9457813253 5.2173913043 -0.006512258
1.8586375079 5.2173913043 -0.0165620312
1.7246819824 5.2173913043 -0.0310533574
1.5322656439 5.2173913043 -0.049914884
1.2811708011 5.2173913043 -0.0709029923
0.9915561429999999 5.2173913043 -0.0888908603
0.7015179654 5.2173913043 -0.097299521
0.4496377812 5.2173913043 -0.0921675054
0.2570236347 5.2173913043 -0.07585650200000001
0.1236198658 5.2173913043 -0.0571313037
0.0388680519 5.2173913043 -0.0351922335
0 5.2173913043 0
0.0250773017 5.2173913043 0.0460038583
0.1032685472 5.2173913043 0.0869820924
0.2357432926 5.2173913043 0.1190948908
0.4310464251 5.2173913043 0.134882611
0.6865218427000001 5.2173913043 0.1342268804
0.9803172187 5.2173913043 0.1181826542
1.2733942019 5.2173913043 0.09206004080000001
1.5273229337 5.2173913043 0.0637984128
1.7218245304 5.2173913043 0.0392724777
1.8571896101 5.2173913043 0.0207992
1.9452310096 5.2173913043 0.0081418386
2 6.5217391304 0
1.9457738911 6.5217391304 -0.0064993811
1.8586185533 6.5217391304 -0.0165313171
1.724646231 6.5217391304 -0.0310018217
1.5322074045 6.5217391304 -0.0498469943
1.2810856635 6.5217391304 -0.0708389706
0.9914426522999999 6.5217391304 -0.0888744229
0.7013766546 6.5217391304 -0.0973970787
0.4494661656 6.5217391304 -0.0924493837
0.2568179525 6.5217391304 -0.07631558469999999
0.1234163729 6.5217391304 -0.057489888
0.0387218104 6.5217391304 -0.0353178842
0 6.5217391304 0
0.0256568891 6.5217391304 0.0455604762
0.1041361763 6.5217391304 0.08576958260000001
0.2366576284 6.5217391304 0.1172782689
0.4318533019 6.5217391304 0.1329163258
0.6871698016 6.5217391304 0.1323808928
0.9807952502 6.5217391304 0.1166245434
1.2737183591 6.5217391304 0.0908824902
1.527524837 6.5217391304 0.062999811
1.7219391712 6.5217391304 0.0387883568
1.8572468606 6.5217391304 0.0205454771
1.9452525394 6.5217391304 0.008043194300000001
2 7.8260869565 0
1.9457664569 7.8260869565 -0.0064865042
1.8585995987 7.8260869565 -0.0165006031
1.7246104795 7.8260869565 -0.0309502861
1.5321491651 7.8260869565 -0.0497791045
1.281000526 7.8260869565 -0.0707749488
0.9913291614999999 7.8260869565 -0.0888579855
0.7012353439 7.8260869565 -0.09749463630000001
0.44929455 7.8260869565 -0.09273126199999999
0.2566122703 7.8260869565 -0.0767746674
0.1232128799 7.8260869565 -0.0578484724
0.0385755689 7.8260869565 -0.0354435349
0 7.8260869565 0
0.0262364766 7.8260869565 0.045117094
0.1050038054 7.8260869565 0.08455707279999999
0.2375719642 7.8260869565 0.1154616469
0.4326601787 7.8260869565 0.1309500406
0.6878177605 7.8260869565 0.1305349052
0.9812732818 7.8260869565 0.1150664326
1.2740425162 7.8260869565 0.08970493960000001
1.5277267403 7.8260869565 0.0622012092
1.722053812 7.8260869565 0.0383042358
1.8573041112 7.8260869565 0.0202917542
1.9452740691 7.8260869565 0.00794455
2 9.1304347826 0
1.9457590227 9.1304347826 -0.0064736272
1.8585806442 9.1304347826 -0.0164698891
1.7245747281 9.1304347826 -0.0308987504
1.5320909258 9.1304347826 -0.0497112148
1.2809153884 9.1304347826 -0.0707109271
0.9912156707000001 9.1304347826 -0.0888415481
0.7010940332 9.1304347826 -0.09759219399999999
0.4491229344 9.1304347826 -0.0930131402
0.2564065881 9.1304347826 -0.0772337501
0.1230093869 9.1304347826 -0.0582070568
0.0384293274 9.1304347826 -0.0355691856
0 9.1304347826 0
0.0268160641 9.1304347826 0.0446737118
0.1058714344 9.1304347826 0.0833445631
0.2384863001 9.1304347826 0.1136450249
0.4334670555 9.1304347826 0.1289837555
0.6884657194 9.1304347826 0.1286889176
0.9817513134 9.1304347826 0.1135083219
1.2743666733 9.1304347826 0.088527389
1.5279286435 9.1304347826 0.0614026074
1.7221684527 9.1304347826 0.0378201149
1.8573613618 9.1304347826 0.0200380313
1.9452955989 9.1304347826 0.0078459056
2 10.4347826087 0
1.9457515885 10.4347826087 -0.0064607503
1.8585616896 10.4347826087 -0.0164391751
1.7245389766 10.4347826087 -0.0308472147
1.5320326864 10.4347826087 -0.049643325
1.2808302508 10.4347826087 -0.0706469054
0.9911021799 10.4347826087 -0.08882511060000001
0.7009527225 10.4347826087 -0.0976897516
0.4489513187 10.4347826087 -0.09329501849999999
0.2562009059 10.4347826087 -0.0776928328
0.122805894 10.4347826087 -0.0585656412
0.0382830859 10.4347826087 -0.0356948363
0 10.4347826087 0
0.0273956515 10.4347826087 0.0442303296
0.1067390635 10.4347826087 0.08213205329999999
0.2394006359 10.4347826087 0.1118284029
0.4342739323 10.4347826087 0.1270174703
0.6891136783 10.4347826087 0.1268429301
0.9822293449 10.4347826087 0.1119502111
1.2746908305 10.4347826087 0.0873498384
1.5281305468 10.4347826087 0.0606040057
1.7222830935 10.4347826087 0.0373359939
1.8574186124 10.4347826087 0.0197843084
1.9453171287 10.4347826087 0.0077472613
2 11.7391304348 0
1.9457441543 11.7391304348 -0.0064478734
1.858542735 11.7391304348 -0.016408461
1.7245032252 11.7391304348 -0.030795679
1.531974447 11.7391304348 -0.0495754353
1.2807451133 11.7391304348 -0.07058288359999999
0.9909886892000001 11.7391304348 -0.08880867319999999
0.7008114117000001 11.7391304348 -0.0977873093
0.4487797031 11.7391304348 -0.0935768968
0.2559952237 11.7391304348 -0.07815191539999999
0.122602401 11.7391304348 -0.0589242256
0.0381368444 11.7391304348 -0.035820487
0 11.7391304348 0
0.027975239 11.7391304348 0.0437869474
0.1076066926 11.7391304348 0.0809195436
0.2403149717 11.7391304348 0.1100117809
0.4350808091 11.7391304348 0.1250511851
0.6897616372000001 11.7391304348 0.1249969425
0.9827073765 11.7391304348 0.1103921003
1.2750149876 11.7391304348 0.0861722878
1.5283324501 11.7391304348 0.0598054039
1.7223977343 11.7391304348 0.036851873
1.857475863 11.7391304348 0.0195305855
1.9453386585 11.7391304348 0.007648617
2 13.0434782609 0
1.9457367201 13.0434782609 -0.0064349965
1.8585237805 13.0434782609 -0.016377747
1.7244674737 13.0434782609 -0.0307441434
1.5319162076 13.0434782609 -0.0495075455
1.2806599757 13.0434782609 -0.07051886189999999
0.9908751984 13.0434782609 -0.08879223579999999
0.700670101 13.0434782609 -0.09788486690000001
0.4486080875 13.0434782609 -0.09385877500000001
0.2557895416 13.0434782609 -0.0786109981
0.1223989081 13.0434782609 -0.0592828099
0.0379906029 13.0434782609 -0.0359461377
0 13.0434782609 0
0.0285548265 13.0434782609 0.0433435652
0.1084743217 13.0434782609 0.07970703379999999
0.2412293075 13.0434782609 0.108195159
0.435887686 13.0434782609 0.1230848999
0.6904095961 13.0434782609 0.1231509549
0.983185408 13.0434782609 0.1088339895
1.2753391447 13.0434782609 0.0849947372
1.5285343533 13.0434782609 0.0590068021
1.722512375 13.0434782609 0.036367752
1.8575331135 13.0434782609 0.0192768626
1.9453601883 13.0434782609 0.0075499727
2 14.347826087 0
1.9457292859 14.347826087 -0.0064221195
1.8585048259 14.347826087 -0.016347033
1.7244317223 14.347826087 -0.0306926077
1.5318579683 14.347826087 -0.0494396558
1.2805748382 14.347826087 -0.07045484019999999
0.9907617076 14.347826087 -0.08877579839999999
0.7005287903 14.347826087 -0.09798242460000001
0.4484364719 14.347826087 -0.0941406533
0.2555838594 14.347826087 -0.0790700808
0.1221954151 14.347826087 -0.0596413943
0.0378443614 14.347826087 -0.0360717884
0 14.347826087 0
0.0291344139 14.347826087 0.042900183
0.1093419507 14.347826087 0.078494524
0.2421436433 14.347826087 0.106378537
0.4366945628 14.347826087 0.1211186147
0.691057555 14.347826087 0.1213049673
0.9836634396 14.347826087 0.1072758787
1.2756633019 14.347826087 0.0838171866
1.5287362566 14.347826087 0.0582082003
1.7226270158 14.347826087 0.035883631
1.8575903641 14.347826087 0.0190231396
1.9453817181 14.347826087 0.0074513283
2 15.652173913 0
1.9457218517 15.652173913 -0.0064092426
1.8584858713 15.652173913 -0.0163163189
1.7243959708 15.652173913 -0.030641072
1.5317997289 15.652173913 -0.049371766
1.2804897006 15.652173913 -0.0703908184
0.9906482168 15.652173913 -0.08875936099999999
0.7003874796 15.652173913 -0.09807998229999999
0.4482648563 15.652173913 -0.0944225316
0.2553781772 15.652173913 -0.0795291635
0.1219919222 15.652173913 -0.0599999787
0.0376981199 15.652173913 -0.0361974391
0 15.652173913 0
0.0297140014 15.652173913 0.0424568008
0.1102095798 15.652173913 0.07728201429999999
0.2430579791 15.652173913 0.104561915
0.4375014396 15.652173913 0.1191523296
0.6917055139 15.652173913 0.1194589798
0.9841414712 15.652173913 0.105717768
1.275987459 15.652173913 0.082639636
1.5289381599 15.652173913 0.0574095985
1.7227416565 15.652173913 0.0353995101
1.8576476147 15.652173913 0.0187694167
1.9454032478 15.652173913 0.007352684
2 16.9565217391 0
1.9457144175 16.9565217391 -0.0063963657
1.8584669167 16.9565217391 -0.0162856049
1.7243602194 16.9565217391 -0.0305895363
1.5317414895 16.9565217391 -0.0493038763
1.280404563 16.9565217391 -0.0703267967
0.9905347261 16.9565217391 -0.0887429235
0.7002461689 16.9565217391 -0.0981775399
0.4480932407 16.9565217391 -0.0947044098
0.255172495 16.9565217391 -0.0799882462
0.1217884292 16.9565217391 -0.0603585631
0.0375518784 16.9565217391 -0.0363230898
0 16.9565217391 0
0.0302935888 16.9565217391 0.0420134186
0.1110772089 16.9565217391 0.0760695045
0.2439723149 16.9565217391 0.102745293
0.4383083164 16.9565217391 0.1171860444
0.6923534727 16.9565217391 0.1176129922
0.9846195027 16.9565217391 0.1041596572
1.2763116161 16.9565217391 0.08146208539999999
1.5291400631 16.9565217391 0.0566109967
1.7228562973 16.9565217391 0.0349153891
1.8577048653 16.9565217391 0.0185156938
1.9454247776 16.9565217391 0.0072540397
2 18.2608695652 0
1.9457069833 18.2608695652 -0.0063834888
1.8584479622 18.2608695652 -0.0162548909
1.724324468 18.2608695652 -0.0305380007
1.5316832502 18.2608695652 -0.0492359865
1.2803194255 18.2608695652 -0.07026277490000001
0.9904212353 18.2608695652 -0.0887264861
0.7001048581 18.2608695652 -0.0982750976
0.4479216251 18.2608695652 -0.0949862881
0.2549668128 18.2608695652 -0.0804473289
0.1215849363 18.2608695652 -0.0607171475
0.0374056369 18.2608695652 -0.0364487405
0 18.2608695652 0
0.0308731763 18.2608695652 0.0415700365
0.111944838 18.2608695652 0.0748569947
0.2448866507 18.2608695652 0.100928671
0.4391151932 18.2608695652 0.1152197592
0.6930014316000001 18.2608695652 0.1157670046
0.9850975343 18.2608695652 0.1026015464
1.2766357733 18.2608695652 0.0802845348
1.5293419664 18.2608695652 0.0558123949
1.7229709381 18.2608695652 0.0344312682
1.8577621158 18.2608695652 0.0182619709
1.9454463074 18.2608695652 0.0071553954
2 19.5652173913 0
1.9456995491 19.5652173913 -0.0063706119
1.8584290076 19.5652173913 -0.0162241769
1.7242887165 19.5652173913 -0.030486465
1.5316250108 19.5652173913 -0.0491680968
1.2802342879 19.5652173913 -0.07019875320000001
0.9903077445 19.5652173913 -0.0887100487
0.6999635474 19.5652173913 -0.09837265520000001
0.4477500095 19.5652173913 -0.09526816640000001
0.2547611306 19.5652173913 -0.08090641160000001
0.1213814433 19.5652173913 -0.0610757318
0.0372593954 19.5652173913 -0.0365743912
0 19.5652173913 0
0.0314527638 19.5652173913 0.0411266543
0.112812467 19.5652173913 0.073644485
0.2458009865 19.5652173913 0.09911204899999999
0.43992207 19.5652173913 0.113253474
0.6936493905 19.5652173913 0.113921017
0.9855755658000001 19.5652173913 0.1010434356
1.2769599304 19.5652173913 0.07910698419999999
1.5295438697 19.5652173913 0.0550137931
1.7230855788 19.5652173913 0.0339471472
1.8578193664 19.5652173913 0.018008248
1.9454678372 19.5652173913 0.0070567511
2 20.8695652174 0
1.9456921149 20.8695652174 -0.0063577349
1.858410053 20.8695652174 -0.0161934628
1.7242529651 20.8695652174 -0.0304349293
1.5315667714 20.8695652174 -0.049100207
1.2801491504 20.8695652174 -0.07013473150000001
0.9901942538 20.8695652174 -0.0886936113
0.6998222367 20.8695652174 -0.09847021290000001
0.4475783938 20.8695652174 -0.0955500447
0.2545554484 20.8695652174 -0.08136549429999999
0.1211779503 20.8695652174 -0.0614343162
0.0371131539 20.8695652174 -0.0367000419
0 20.8695652174 0
0.0320323512 20.8695652174 0.0406832721
0.1136800961 20.8695652174 0.0724319752
0.2467153224 20.8695652174 0.0972954271
0.4407289468 20.8695652174 0.1112871888
0.6942973494 20.8695652174 0.1120750295
0.9860535974 20.8695652174 0.0994853248
1.2772840875 20.8695652174 0.0779294336
1.5297457729 20.8695652174 0.0542151913
1.7232002196 20.8695652174 0.0334630263
1.857876617 20.8695652174 0.0177545251
1.945489367 20.8695652174 0.0069581067
2 22.1739130435 0
1.9456846806 22.1739130435 -0.006344858
1.8583910985 22.1739130435 -0.0161627488
1.7242172136 22.1739130435 -0.0303833936
1.531508532 22.1739130435 -0.0490323173
1.2800640128 22.1739130435 -0.0700707097
0.990080763 22.1739130435 -0.0886771739
0.699680926 22.1739130435 -0.0985677705
0.4474067782 22.1739130435 -0.09583192290000001
0.2543497662 22.1739130435 -0.081824577
0.1209744574 22.1739130435 -0.0617929006
0.0369669125 22.1739130435 -0.0368256926
0 22.1739130435 0
0.0326119387 22.1739130435 0.0402398899
0.1145477252 22.1739130435 0.0712194655
0.2476296582 22.1739130435 0.09547880509999999
0.4415358237 22.1739130435 0.1093209036
0.6949453083 22.1739130435 0.1102290419
0.986531629 22.1739130435 0.097927214
1.2776082447 22.1739130435 0.0767518829
1.5299476762 22.1739130435 0.0534165895
1.7233148604 22.1739130435 0.0329789053
1.8579338676 22.1739130435 0.0175008021
1.9455108967 22.1739130435 0.0068594624
2 23.4782608696 0
1.9456772464 23.4782608696 -0.0063319811
1.8583721439 23.4782608696 -0.0161320348
1.7241814622 23.4782608696 -0.030331858
1.5314502927 23.4782608696 -0.0489644275
1.2799788752 23.4782608696 -0.070006688
0.9899672722 23.4782608696 -0.0886607364
0.6995396152 23.4782608696 -0.0986653282
0.4472351626 23.4782608696 -0.0961138012
0.254144084 23.4782608696 -0.0822836597
0.1207709644 23.4782608696 -0.062151485
0.036820671 23.4782608696 -0.0369513433
0 23.4782608696 0
0.0331915262 23.4782608696 0.0397965077
0.1154153543 23.4782608696 0.0700069557
0.248543994 23.4782608696 0.0936621831
0.4423427005 23.4782608696 0.1073546185
0.6955932672 23.4782608696 0.1083830543
0.9870096605000001 23.4782608696 0.09636910329999999
1.2779324018 23.4782608696 0.07557433230000001
1.5301495795 23.4782608696 0.0526179877
1.7234295011 23.4782608696 0.0324947844
1.8579911182 23.4782608696 0.0172470792
1.9455324265 23.4782608696 0.0067608181
2 24.7826086957 0
1.9456698122 24.7826086957 -0.0063191042
1.8583531893 24.7826086957 -0.0161013208
1.7241457107 24.7826086957 -0.0302803223
1.5313920533 24.7826086957 -0.0488965378
1.2798937377 24.7826086957 -0.0699426663
0.9898537814 24.7826086957 -0.088644299
0.6993983045 24.7826086957 -0.09876288580000001
0.447063547 24.7826086957 -0.0963956795
0.2539384018 24.7826086957 -0.0827427424
0.1205674715 24.7826086957 -0.06251006940000001
0.0366744295 24.7826086957 -0.037076994
0 24.7826086957 0
0.0337711136 24.7826086957 0.0393531255
0.1162829834 24.7826086957 0.0687944459
0.2494583298 24.7826086957 0.0918455611
0.4431495773 24.7826086957 0.1053883333
0.6962412261000001 24.7826086957 0.1065370667
0.9874876921 24.7826086957 0.0948109925
1.2782565589 24.7826086957 0.0743967817
1.5303514827 24.7826086957 0.0518193859
1.7235441419 24.7826086957 0.0320106634
1.8580483687 24.7826086957 0.0169933563
1.9455539563 24.7826086957 0.0066621738
2 26.0869565217 0
1.945662378 26.0869565217 -0.0063062272
1.8583342348 26.0869565217 -0.0160706067
1.7241099593 26.0869565217 -0.0302287866
1.5313338139 26.0869565217 -0.048828648
1.2798086001 26.0869565217 -0.0698786445
0.9897402907 26.0869565217 -0.0886278616
0.6992569937999999 26.0869565217 -0.09886044350000001
0.4468919314 26.0869565217 -0.0966775577
0.2537327196 26.0869565217 -0.0832018251
0.1203639785 26.0869565217 -0.06286865379999999
0.036528188 26.0869565217 -0.0372026447
0 26.0869565217 0
0.0343507011 26.0869565217 0.0389097433
0.1171506124 26.0869565217 0.0675819362
0.2503726656 26.0869565217 0.0900289391
0.4439564541 26.0869565217 0.1034220481
0.696889185 26.0869565217 0.1046910792
0.9879657237 26.0869565217 0.0932528817
1.2785807161 26.0869565217 0.0732192311
1.530553386 26.0869565217 0.0510207841
1.7236587827 26.0869565217 0.0315265425
1.8581056193 26.0869565217 0.0167396334
1.9455754861 26.0869565217 0.0065635294
2 27.3913043478 0
1.9456549438 27.3913043478 -0.0062933503
1.8583152802 27.3913043478 -0.0160398927
1.7240742078 27.3913043478 -0.030177251
1.5312755746 27.3913043478 -0.0487607583
1.2797234626 27.3913043478 -0.0698146228
0.9896267999 27.3913043478 -0.0886114242
0.6991156831000001 27.3913043478 -0.0989580011
0.4467203158 27.3913043478 -0.096959436
0.2535270374 27.3913043478 -0.0836609078
0.1201604856 27.3913043478 -0.0632272381
0.0363819465 27.3913043478 -0.0373282954
0 27.3913043478 0
0.0349302886 27.3913043478 0.0384663611
0.1180182415 27.3913043478 0.0663694264
0.2512870014 27.3913043478 0.0882123172
0.4447633309 27.3913043478 0.1014557629
0.6975371438 27.3913043478 0.1028450916
0.9884437552000001 27.3913043478 0.0916947709
1.2789048732 27.3913043478 0.0720416805
1.5307552893 27.3913043478 0.0502221824
1.7237734234 27.3913043478 0.0310424215
1.8581628699 27.3913043478 0.0164859105
1.9455970159 27.3913043478 0.0064648851
2 28.6956521739 0
1.9456475096 28.6956521739 -0.0062804734
1.8582963256 28.6956521739 -0.0160091787
1.7240384564 28.6956521739 -0.0301257153
1.5312173352 28.6956521739 -0.0486928685
1.279638325 28.6956521739 -0.0697506011
0.9895133091 28.6956521739 -0.0885949868
0.6989743723 28.6956521739 -0.0990555588
0.4465487002 28.6956521739 -0.09724131430000001
0.2533213552 28.6956521739 -0.08411999050000001
0.1199569926 28.6956521739 -0.0635858225
0.036235705 28.6956521739 -0.0374539461
0 28.6956521739 0
0.035509876 28.6956521739 0.038022979
0.1188858706 28.6956521739 0.0651569167
0.2522013372 28.6956521739 0.0863956952
0.4455702077 28.6956521739 0.0994894777
0.6981851027 28.6956521739 0.100999104
0.9889217868 28.6956521739 0.0901366601
1.2792290303 28.6956521739 0.0708641299
1.5309571925 28.6956521739 0.0494235806
1.7238880642 28.6956521739 0.0305583006
1.8582201205 28.6956521739 0.0162321876
1.9456185457 28.6956521739 0.0063662408
2 30 0
1.9456400754 30 -0.0062675965
1.858277371 30 -0.0159784647
1.7240027049 30 -0.0300741796
1.5311590958 30 -0.0486249788
1.2795531875 30 -0.0696865793
0.9893998183 30 -0.0885785493
0.6988330616 30 -0.0991531164
0.4463770846 30 -0.09752319249999999
0.253115673 30 -0.08457907319999999
0.1197534997 30 -0.0639444069
0.0360894635 30 -0.0375795968
0 30 0
0.0360894635 30 0.0375795968
0.1197534997 30 0.0639444069
0.253115673 30 0.08457907319999999
0.4463770846 30 0.09752319249999999
0.6988330616 30 0.0991531164
0.9893998183 30 0.0885785493
1.2795531875 30 0.0696865793
1.5311590958 30 0.0486249788
1.7240027049 30 0.0300741796
1.858277371 30 0.0159784647
1.9456400754 30 0.0062675965
1.9456400754 30 -0.0031337982
1.858277371 30 -0.007989232299999999
1.7240027049 30 -0.0150370898
1.5311590958 30 -0.0243124894
1.2795531875 30 -0.0348432897
0.9893998183 30 -0.0442892747
0.6988330616 30 -0.0495765582
0.4463770846 30 -0.0487615963
0.253115673 30 -0.0422895366
0.1197534997 30 -0.0319722034
0.0360894635 30 -0.0187897984
0.0360894635 30 0.0187897984
0.1197534997 30 0.0319722034
0.253115673 30 0.0422895366
0.4463770846 30 0.0487615963
0.6988330616 30 0.0495765582
0.9893998183 30 0.0442892747
1.2795531875 30 0.0348432897
1.5311590958 30 0.0243124894
1.7240027049 30 0.0150370898
1.858277371 30 0.007989232299999999
1.9456400754 30 0.0031337982
1.9456400754 30 0
1.858277371 30 0
1.7240027049 30 0
1.5311590958 30 0
1.2795531875 30 0
0.9893998183 30 0
0.6988330616 30 0
0.4463770846 30 -0
0.253115673 30 -0
0.1197534997 30 -0
0.0360894635 30 -0
2 -1.3043478261 0
1.9458036279 -1.3043478261 -0.0065508888
1.8586943716 -1.3043478261 -0.0166541732
1.7247892368 -1.3043478261 -0.0312079644
1.532440362 -1.3043478261 -0.0501185533
1.2814262137 -1.3043478261 -0.0710950575
0.9918966154 -1.3043478261 -0.08894017260000001
0.7019418975 -1.3043478261 -0.0970068481
0.450152628 -1.3043478261 -0.09132187059999999
0.2576406813 -1.3043478261 -0.0744792539
0.1242303447 -1.3043478261 -0.0560555505
0.0393067763 -1.3043478261 -0.0348152814
0 -1.3043478261 0
0.0233385393 -1.3043478261 0.0473340049
0.10066566 -1.3043478261 0.09061962160000001
0.2330002852 -1.3043478261 0.1245447568
0.4286257946 -1.3043478261 0.1407814666
0.6845779661 -1.3043478261 0.1397648431
0.978883124 -1.3043478261 0.1228569866
1.2724217305 -1.3043478261 0.0955926926
1.5267172239 -1.3043478261 0.0661942182
1.7214806081 -1.3043478261 0.0407248406
1.8570178583 -1.3043478261 0.0215603688
1.9451664202 -1.3043478261 0.008437771599999999
2 -2.6086956522 0
1.9457961937 -2.6086956522 -0.0065380119
1.858675417 -2.6086956522 -0.0166234592
1.7247534853 -2.6086956522 -0.0311564288
1.5323821226 -2.6086956522 -0.0500506635
1.2813410762 -2.6086956522 -0.0710310358
0.9917831246 -2.6086956522 -0.08892373520000001
0.7018005868 -2.6086956522 -0.09710440569999999
0.4499810124 -2.6086956522 -0.0916037489
0.2574349991 -2.6086956522 -0.0749383366
0.1240268517 -2.6086956522 -0.0564141349
0.0391605349 -2.6086956522 -0.0349409321
0 -2.6086956522 0
0.0239181267 -2.6086956522 0.0468906227
0.1015332891 -2.6086956522 0.0894071119
0.233914621 -2.6086956522 0.1227281348
0.4294326714 -2.6086956522 0.1388151814
0.685225925 -2.6086956522 0.1379188555
0.9793611555 -2.6086956522 0.1212988758
1.2727458877 -2.6086956522 0.09441514199999999
1.5269191272 -2.6086956522 0.0653956164
1.7215952489 -2.6086956522 0.0402407196
1.8570751089 -2.6086956522 0.0213066459
1.94518795 -2.6086956522 0.008339127300000001
2 -3.9130434783 0
1.9457887595 -3.9130434783 -0.0065251349
1.8586564624 -3.9130434783 -0.0165927452
1.7247177339 -3.9130434783 -0.0311048931
1.5323238832 -3.9130434783 -0.0499827738
1.2812559386 -3.9130434783 -0.07096701399999999
0.9916696337999999 -3.9130434783 -0.08890729780000001
0.7016592761 -3.9130434783 -0.09720196339999999
0.4498093968 -3.9130434783 -0.09188562710000001
0.2572293169 -3.9130434783 -0.0753974193
0.1238233588 -3.9130434783 -0.0567727193
0.0390142934 -3.9130434783 -0.0350665828
0 -3.9130434783 0
0.0244977142 -3.9130434783 0.0464472405
0.1024009181 -3.9130434783 0.08819460210000001
0.2348289568 -3.9130434783 0.1209115128
0.4302395483 -3.9130434783 0.1368488962
0.6858738839 -3.9130434783 0.1360728679
0.9798391871 -3.9130434783 0.119740765
1.2730700448 -3.9130434783 0.0932375914
1.5271210305 -3.9130434783 0.0645970146
1.7217098897 -3.9130434783 0.0397565987
1.8571323595 -3.9130434783 0.021052923
1.9452094798 -3.9130434783 0.0082404829
2 -5.2173913043 0
1.9457813253 -5.2173913043 -0.006512258
1.8586375079 -5.2173913043 -0.0165620312
1.7246819824 -5.2173913043 -0.0310533574
1.5322656439 -5.2173913043 -0.049914884
1.2811708011 -5.2173913043 -0.0709029923
0.9915561429999999 -5.2173913043 -0.0888908603
0.7015179654 -5.2173913043 -0.097299521
0.4496377812 -5.2173913043 -0.0921675054
0.2570236347 -5.2173913043 -0.07585650200000001
0.1236198658 -5.2173913043 -0.0571313037
0.0388680519 -5.2173913043 -0.0351922335
0 -5.2173913043 0
0.0250773017 -5.2173913043 0.0460038583
0.1032685472 -5.2173913043 0.0869820924
0.2357432926 -5.2173913043 0.1190948908
0.4310464251 -5.2173913043 0.134882611
0.6865218427000001 -5.2173913043 0.1342268804
0.9803172187 -5.2173913043 0.1181826542
1.2733942019 -5.2173913043 0.09206004080000001
1.5273229337 -5.2173913043 0.0637984128
1.7218245304 -5.2173913043 0.0392724777
1.8571896101 -5.2173913043 0.0207992
1.9452310096 -5.2173913043 0.0081418386
2 -6.5217391304 0
1.9457738911 -6.5217391304 -0.0064993811
1.8586185533 -6.5217391304 -0.0165313171
1.724646231 -6.5217391304 -0.0310018217
1.5322074045 -6.5217391304 -0.0498469943
1.2810856635 -6.5217391304 -0.0708389706
0.9914426522999999 -6.5217391304 -0.0888744229
0.7013766546 -6.5217391304 -0.0973970787
0.4494661656 -6.5217391304 -0.0924493837
0.2568179525 -6.5217391304 -0.07631558469999999
0.1234163729 -6.5217391304 -0.057489888
0.0387218104 -6.5217391304 -0.0353178842
0 -6.5217391304 0
0.0256568891 -6.5217391304 0.0455604762
0.1041361763 -6.5217391304 0.08576958260000001
0.2366576284 -6.5217391304 0.1172782689
0.4318533019 -6.5217391304 0.1329163258
0.6871698016 -6.5217391304 0.1323808928
0.9807952502 -6.5217391304 0.1166245434
1.2737183591 -6.5217391304 0.0908824902
1.527524837 -6.5217391304 0.062999811
1.7219391712 -6.5217391304 0.0387883568
1.8572468606 -6.5217391304 0.0205454771
1.9452525394 -6.5217391304 0.008043194300000001
2 -7.8260869565 0
1.9457664569 -7.8260869565 -0.0064865042
1.8585995987 -7.8260869565 -0.0165006031
1.7246104795 -7.8260869565 -0.0309502861
1.5321491651 -7.8260869565 -0.0497791045
1.281000526 -7.8260869565 -0.0707749488
0.9913291614999999 -7.8260869565 -0.0888579855
0.7012353439 -7.8260869565 -0.09749463630000001
0.44929455 -7.8260869565 -0.09273126199999999
0.2566122703 -7.8260869565 -0.0767746674
0.1232128799 -7.8260869565 -0.0578484724
0.0385755689 -7.8260869565 -0.0354435349
0 -7.8260869565 0
0.0262364766 -7.8260869565 0.045117094
0.1050038054 -7.8260869565 0.08455707279999999
0.2375719642 -7.8260869565 0.1154616469
0.4326601787 -7.8260869565 0.1309500406
0.6878177605 -7.8260869565 0.1305349052
0.9812732818 -7.8260869565 0.1150664326
1.2740425162 -7.8260869565 0.08970493960000001
1.5277267403 -7.8260869565 0.0622012092
1.722053812 -7.8260869565 0.0383042358
1.8573041112 -7.8260869565 0.0202917542
1.9452740691 -7.8260869565 0.00794455
2 -9.1304347826 0
1.9457590227 -9.1304347826 -0.0064736272
1.8585806442 -9.1304347826 -0.0164698891
1.7245747281 -9.1304347826 -0.0308987504
1.5320909258 -9.1304347826 -0.0497112148
1.2809153884 -9.1304347826 -0.0707109271
0.9912156707000001 -9.1304347826 -0.0888415481
0.7010940332 -9.1304347826 -0.09759219399999999
0.4491229344 -9.1304347826 -0.0930131402
0.2564065881 -9.1304347826 -0.0772337501
0.1230093869 -9.1304347826 -0.0582070568
0.0384293274 -9.1304347826 -0.0355691856
0 -9.1304347826 0
0.0268160641 -9.1304347826 0.0446737118
0.1058714344 -9.1304347826 0.0833445631
0.2384863001 -9.1304347826 0.1136450249
0.4334670555 -9.1304347826 0.1289837555
0.6884657194 -9.1304347826 0.1286889176
0.9817513134 -9.1304347826 0.1135083219
1.2743666733 -9.1304347826 0.088527389
1.5279286435 -9.1304347826 0.0614026074
1.7221684527 -9.1304347826 0.0378201149
1.8573613618 -9.1304347826 0.0200380313
1.9452955989 -9.1304347826 0.0078459056
2 -10.4347826087 0
1.9457515885 -10.4347826087 -0.0064607503
1.8585616896 -10.4347826087 -0.0164391751
1.7245389766 -10.4347826087 -0.0308472147
1.5320326864 -10.4347826087 -0.049643325
1.2808302508 -10.4347826087 -0.0706469054
0.9911021799 -10.4347826087 -0.08882511060000001
0.7009527225 -10.4347826087 -0.0976897516
0.4489513187 -10.4347826087 -0.09329501849999999
0.2562009059 -10.4347826087 -0.0776928328
0.122805894 -10.4347826087 -0.0585656412
0.0382830859 -10.4347826087 -0.0356948363
0 -10.4347826087 0
0.0273956515 -10.4347826087 0.0442303296
0.1067390635 -10.4347826087 0.08213205329999999
0.2394006359 -10.4347826087 0.1118284029
0.4342739323 -10.4347826087 0.1270174703
0.6891136783 -10.4347826087 0.1268429301
0.9822293449 -10.4347826087 0.1119502111
1.2746908305 -10.4347826087 0.0873498384
1.5281305468 -10.4347826087 0.0606040057
1.7222830935 -10.4347826087 0.0373359939
1.8574186124 -10.4347826087 0.0197843084
1.9453171287 -10.4347826087 0.0077472613
2 -11.7391304348 0
1.9457441543 -11.7391304348 -0.0064478734
1.858542735 -11.7391304348 -0.016408461
1.7245032252 -11.7391304348 -0.030795679
1.531974447 -11.7391304348 -0.0495754353
1.2807451133 -11.7391304348 -0.07058288359999999
0.9909886892000001 -11.7391304348 -0.08880867319999999
0.7008114117000001 -11.7391304348 -0.0977873093
0.4487797031 -11.7391304348 -0.0935768968
0.2559952237 -11.7391304348 -0.07815191539999999
0.122602401 -11.7391304348 -0.0589242256
0.0381368444 -11.7391304348 -0.035820487
0 -11.7391304348 0
0.027975239 -11.7391304348 0.0437869474
0.1076066926 -11.7391304348 0.0809195436
0.2403149717 -11.7391304348 0.1100117809
0.4350808091 -11.7391304348 0.1250511851
0.6897616372000001 -11.7391304348 0.1249969425
0.9827073765 -11.7391304348 0.1103921003
1.2750149876 -11.7391304348 0.0861722878
1.5283324501 -11.7391304348 0.0598054039
1.7223977343 -11.7391304348 0.036851873
1.857475863 -11.7391304348 0.0195305855
1.9453386585 -11.7391304348 0.007648617
2 -13.0434782609 0
1.9457367201 -13.0434782609 -0.0064349965
1.8585237805 -13.0434782609 -0.016377747
1.7244674737 -13.0434782609 -0.0307441434
1.5319162076 -13.0434782609 -0.0495075455
1.2806599757 -13.0434782609 -0.07051886189999999
0.9908751984 -13.0434782609 -0.08879223579999999
0.700670101 -13.0434782609 -0.09788486690000001
0.4486080875 -13.0434782609 -0.09385877500000001
0.2557895416 -13.0434782609 -0.0786109981
0.1223989081 -13.0434782609 -0.0592828099
0.0379906029 -13.0434782609 -0.0359461377
0 -13.0434782609 0
0.0285548265 -13.0434782609 0.0433435652
0.1084743217 -13.0434782609 0.07970703379999999
0.2412293075 -13.0434782609 0.108195159
0.435887686 -13.0434782609 0.1230848999
0.6904095961 -13.0434782609 0.1231509549
0.983185408 -13.0434782609 0.1088339895
1.2753391447 -13.0434782609 0.0849947372
1.5285343533 -13.0434782609 0.0590068021
1.722512375 -13.0434782609 0.036367752
1.8575331135 -13.0434782609 0.0192768626
1.9453601883 -13.0434782609 0.0075499727
2 -14.347826087 0
1.9457292859 -14.347826087 -0.0064221195
1.8585048259 -14.347826087 -0.016347033
1.7244317223 -14.347826087 -0.0306926077
1.5318579683 -14.347826087 -0.0494396558
1.2805748382 -14.347826087 -0.07045484019999999
0.9907617076 -14.347826087 -0.08877579839999999
0.7005287903 -14.347826087 -0.09798242460000001
0.4484364719 -14.347826087 -0.0941406533
0.2555838594 -14.347826087 -0.0790700808
0.1221954151 -14.347826087 -0.0596413943
0.0378443614 -14.347826087 -0.0360717884
0 -14.347826087 0
0.0291344139 -14.347826087 0.042900183
0.1093419507 -14.347826087 0.078494524
0.2421436433 -14.347826087 0.106378537
0.4366945628 -14.347826087 0.1211186147
0.691057555 -14.347826087 0.1213049673
0.9836634396 -14.347826087 0.1072758787
1.2756633019 -14.347826087 0.0838171866
1.5287362566 -14.347826087 0.0582082003
1.7226270158 -14.347826087 0.035883631
1.8575903641 -14.347826087 0.0190231396
1.9453817181 -14.347826087 0.0074513283
2 -15.652173913 0
1.9457218517 -15.652173913 -0.0064092426
1.8584858713 -15.652173913 -0.0163163189
1.7243959708 -15.652173913 -0.030641072
1.5317997289 -15.652173913 -0.049371766
1.2804897006 -15.652173913 -0.0703908184
0.9906482168 -15.652173913 -0.08875936099999999
0.7003874796 -15.652173913 -0.09807998229999999
0.4482648563 -15.652173913 -0.0944225316
0.2553781772 -15.652173913 -0.0795291635
0.1219919222 -15.652173913 -0.0599999787
0.0376981199 -15.652173913 -0.0361974391
0 -15.652173913 0
0.0297140014 -15.652173913 0.0424568008
0.1102095798 -15.652173913 0.07728201429999999
0.2430579791 -15.652173913 0.104561915
0.4375014396 -15.652173913 0.1191523296
0.6917055139 -15.652173913 0.1194589798
0.9841414712 -15.652173913 0.105717768
1.275987459 -15.652173913 0.082639636
1.5289381599 -15.652173913 0.0574095985
1.7227416565 -15.652173913 0.0353995101
1.8576476147 -15.652173913 0.0187694167
1.9454032478 -15.652173913 0.007352684
2 -16.9565217391 0
1.9457144175 -16.9565217391 -0.0063963657
1.8584669167 -16.9565217391 -0.0162856049
1.7243602194 -16.9565217391 -0.0305895363
1.5317414895 -16.9565217391 -0.0493038763
1.280404563 -16.9565217391 -0.0703267967
0.9905347261 -16.9565217391 -0.0887429235
0.7002461689 -16.9565217391 -0.0981775399
0.4480932407 -16.9565217391 -0.0947044098
0.255172495 -16.9565217391 -0.0799882462
0.1217884292 -16.9565217391 -0.0603585631
0.0375518784 -16.9565217391 -0.0363230898
0 -16.9565217391 0
0.0302935888 -16.9565217391 0.0420134186
0.1110772089 -16.9565217391 0.0760695045
0.2439723149 -16.9565217391 0.102745293
0.4383083164 -16.9565217391 0.1171860444
0.6923534727 -16.9565217391 0.1176129922
0.9846195027 -16.9565217391 0.1041596572
1.2763116161 -16.9565217391 0.08146208539999999
1.5291400631 -16.9565217391 0.0566109967
1.7228562973 -16.9565217391 0.0349153891
1.8577048653 -16.9565217391 0.0185156938
1.9454247776 -16.9565217391 0.0072540397
2 -18.2608695652 0
1.9457069833 -18.2608695652 -0.0063834888
1.8584479622 -18.2608695652 -0.0162548909
1.724324468 -18.2608695652 -0.0305380007
1.5316832502 -18.2608695652 -0.0492359865
1.2803194255 -18.2608695652 -0.07026277490000001
0.9904212353 -18.2608695652 -0.0887264861
0.7001048581 -18.2608695652 -0.0982750976
0.4479216251 -18.2608695652 -0.0949862881
0.2549668128 -18.2608695652 -0.0804473289
0.1215849363 -18.2608695652 -0.0607171475
0.0374056369 -18.2608695652 -0.0364487405
0 -18.2608695652 0
0.0308731763 -18.2608695652 0.0415700365
0.111944838 -18.2608695652 0.0748569947
0.2448866507 -18.2608695652 0.100928671
0.4391151932 -18.2608695652 0.1152197592
0.6930014316000001 -18.2608695652 0.1157670046
0.9850975343 -18.2608695652 0.1026015464
1.2766357733 -18.2608695652 0.0802845348
1.5293419664 -18.2608695652 0.0558123949
1.7229709381 -18.2608695652 0.0344312682
1.8577621158 -18.2608695652 0.0182619709
1.9454463074 -18.2608695652 0.0071553954
2 -19.5652173913 0
1.9456995491 -19.5652173913 -0.0063706119
1.8584290076 -19.5652173913 -0.0162241769
1.7242887165 -19.5652173913 -0.030486465
1.5316250108 -19.5652173913 -0.0491680968
1.2802342879 -19.5652173913 -0.07019875320000001
0.9903077445 -19.5652173913 -0.0887100487
0.6999635474 -19.5652173913 -0.09837265520000001
0.4477500095 -19.5652173913 -0.09526816640000001
0.2547611306 -19.5652173913 -0.08090641160000001
0.1213814433 -19.5652173913 -0.0610757318
0.0372593954 -19.5652173913 -0.0365743912
0 -19.5652173913 0
0.0314527638 -19.5652173913 0.0411266543
0.112812467 -19.5652173913 0.073644485
0.2458009865 -19.5652173913 0.09911204899999999
0.43992207 -19.5652173913 0.113253474
0.6936493905 -19.5652173913 0.113921017
0.9855755658000001 -19.5652173913 0.1010434356
1.2769599304 -19.5652173913 0.07910698419999999
1.5295438697 -19.5652173913 0.0550137931
1.7230855788 -19.5652173913 0.0339471472
1.8578193664 -19.5652173913 0.018008248
1.9454678372 -19.5652173913 0.0070567511
2 -20.8695652174 0
1.9456921149 -20.8695652174 -0.0063577349
1.858410053 -20.8695652174 -0.0161934628
1.7242529651 -20.8695652174 -0.0304349293
1.5315667714 -20.8695652174 -0.049100207
1.2801491504 -20.8695652174 -0.07013473150000001
0.9901942538 -20.8695652174 -0.0886936113
0.6998222367 -20.8695652174 -0.09847021290000001
0.4475783938 -20.8695652174 -0.0955500447
0.2545554484 -20.8695652174 -0.08136549429999999
0.1211779503 -20.8695652174 -0.0614343162
0.0371131539 -20.8695652174 -0.0367000419
0 -20.8695652174 0
0.0320323512 -20.8695652174 0.0406832721
0.1136800961 -20.8695652174 0.0724319752
0.2467153224 -20.8695652174 0.0972954271
0.4407289468 -20.8695652174 0.1112871888
0.6942973494 -20.8695652174 0.1120750295
0.9860535974 -20.8695652174 0.0994853248
1.2772840875 -20.8695652174 0.0779294336
1.5297457729 -20.8695652174 0.0542151913
1.7232002196 -20.8695652174 0.0334630263
1.857876617 -20.8695652174 0.0177545251
1.945489367 -20.8695652174 0.0069581067
2 -22.1739130435 0
1.9456846806 -22.1739130435 -0.006344858
1.8583910985 -22.1739130435 -0.0161627488
1.7242172136 -22.1739130435 -0.0303833936
1.531508532 -22.1739130435 -0.0490323173
1.2800640128 -22.1739130435 -0.0700707097
0.990080763 -22.1739130435 -0.0886771739
0.699680926 -22.1739130435 -0.0985677705
0.4474067782 -22.1739130435 -0.09583192290000001
0.2543497662 -22.1739130435 -0.081824577
0.1209744574 -22.1739130435 -0.0617929006
0.0369669125 -22.1739130435 -0.0368256926
0 -22.1739130435 0
0.0326119387 -22.1739130435 0.0402398899
0.1145477252 -22.1739130435 0.0712194655
0.2476296582 -22.1739130435 0.09547880509999999
0.4415358237 -22.1739130435 0.1093209036
0.6949453083 -22.1739130435 0.1102290419
0.986531629 -22.1739130435 0.097927214
1.2776082447 -22.1739130435 0.0767518829
1.5299476762 -22.1739130435 0.0534165895
1.7233148604 -22.1739130435 0.0329789053
1.8579338676 -22.1739130435 0.0175008021
1.9455108967 -22.1739130435 0.0068594624
2 -23.4782608696 0
1.9456772464 -23.4782608696 -0.0063319811
1.8583721439 -23.4782608696 -0.0161320348
1.7241814622 -23.4782608696 -0.030331858
1.5314502927 -23.4782608696 -0.0489644275
1.2799788752 -23.4782608696 -0.070006688
0.9899672722 -23.4782608696 -0.0886607364
0.6995396152 -23.4782608696 -0.0986653282
0.4472351626 -23.4782608696 -0.0961138012
0.254144084 -23.4782608696 -0.0822836597
0.1207709644 -23.4782608696 -0.062151485
0.036820671 -23.4782608696 -0.0369513433
0 -23.4782608696 0
0.0331915262 -23.4782608696 0.0397965077
0.1154153543 -23.4782608696 0.0700069557
0.248543994 -23.4782608696 0.0936621831
0.4423427005 -23.4782608696 0.1073546185
0.6955932672 -23.4782608696 0.1083830543
0.9870096605000001 -23.4782608696 0.09636910329999999
1.2779324018 -23.4782608696 0.07557433230000001
1.5301495795 -23.4782608696 0.0526179877
1.7234295011 -23.4782608696 0.0324947844
1.8579911182 -23.4782608696 0.0172470792
1.9455324265 -23.4782608696 0.0067608181
2 -24.7826086957 0
1.9456698122 -24.7826086957 -0.0063191042
1.8583531893 -24.7826086957 -0.0161013208
1.7241457107 -24.7826086957 -0.0302803223
1.5313920533 -24.7826086957 -0.0488965378
1.2798937377 -24.7826086957 -0.0699426663
0.9898537814 -24.7826086957 -0.088644299
0.6993983045 -24.7826086957 -0.09876288580000001
0.447063547 -24.7826086957 -0.0963956795
0.2539384018 -24.7826086957 -0.0827427424
0.1205674715 -24.7826086957 -0.06251006940000001
0.0366744295 -24.7826086957 -0.037076994
0 -24.7826086957 0
0.0337711136 -24.7826086957 0.0393531255
0.1162829834 -24.7826086957 0.0687944459
0.2494583298 -24.7826086957 0.0918455611
0.4431495773 -24.7826086957 0.1053883333
0.6962412261000001 -24.7826086957 0.1065370667
0.9874876921 -24.7826086957 0.0948109925
1.2782565589 -24.7826086957 0.0743967817
1.5303514827 -24.7826086957 0.0518193859
1.7235441419 -24.7826086957 0.0320106634
1.8580483687 -24.7826086957 0.0169933563
1.9455539563 -24.7826086957 0.0066621738
2 -26.0869565217 0
1.945662378 -26.0869565217 -0.0063062272
1.8583342348 -26.0869565217 -0.0160706067
1.7241099593 -26.0869565217 -0.0302287866
1.5313338139 -26.0869565217 -0.048828648
1.2798086001 -26.0869565217 -0.0698786445
0.9897402907 -26.0869565217 -0.0886278616
0.6992569937999999 -26.0869565217 -0.09886044350000001
0.4468919314 -26.0869565217 -0.0966775577
0.2537327196 -26.0869565217 -0.0832018251
0.1203639785 -26.0869565217 -0.06286865379999999
0.036528188 -26.0869565217 -0.0372026447
0 -26.0869565217 0
0.0343507011 -26.0869565217 0.0389097433
0.1171506124 -26.0869565217 0.0675819362
0.2503726656 -26.0869565217 0.0900289391
0.4439564541 -26.0869565217 0.1034220481
0.696889185 -26.0869565217 0.1046910792
0.9879657237 -26.0869565217 0.0932528817
1.2785807161 -26.0869565217 0.0732192311
1.530553386 -26.0869565217 0.0510207841
1.7236587827 -26.0869565217 0.0315265425
1.8581056193 -26.0869565217 0.0167396334
1.9455754861 -26.0869565217 0.0065635294
2 -27.3913043478 0
1.9456549438 -27.3913043478 -0.0062933503
1.8583152802 -27.3913043478 -0.0160398927
1.7240742078 -27.3913043478 -0.030177251
1.5312755746 -27.3913043478 -0.0487607583
1.2797234626 -27.3913043478 -0.0698146228
0.9896267999 -27.3913043478 -0.0886114242
0.6991156831000001 -27.3913043478 -0.0989580011
0.4467203158 -27.3913043478 -0.096959436
0.2535270374 -27.3913043478 -0.0836609078
0.1201604856 -27.3913043478 -0.0632272381
0.0363819465 -27.3913043478 -0.0373282954
0 -27.3913043478 0
0.0349302886 -27.3913043478 0.0384663611
0.1180182415 -27.3913043478 0.0663694264
0.2512870014 -27.3913043478 0.0882123172
0.4447633309 -27.3913043478 0.1014557629
0.6975371438 -27.3913043478 0.1028450916
0.9884437552000001 -27.3913043478 0.0916947709
1.2789048732 -27.3913043478 0.0720416805
1.5307552893 -27.3913043478 0.0502221824
1.7237734234 -27.3913043478 0.0310424215
1.8581628699 -27.3913043478 0.0164859105
1.9455970159 -27.3913043478 0.0064648851
2 -28.6956521739 0
1.9456475096 -28.6956521739 -0.0062804734
1.8582963256 -28.6956521739 -0.0160091787
1.7240384564 -28.6956521739 -0.0301257153
1.5312173352 -28.6956521739 -0.0486928685
1.279638325 -28.6956521739 -0.0697506011
0.9895133091 -28.6956521739 -0.0885949868
0.6989743723 -28.6956521739 -0.0990555588
0.4465487002 -28.6956521739 -0.09724131430000001
0.2533213552 -28.6956521739 -0.08411999050000001
0.1199569926 -28.6956521739 -0.0635858225
0.036235705 -28.6956521739 -0.0374539461
0 -28.6956521739 0
0.035509876 -28.6956521739 0.038022979
0.1188858706 -28.6956521739 0.0651569167
0.2522013372 -28.6956521739 0.0863956952
0.4455702077 -28.6956521739 0.0994894777
0.6981851027 -28.6956521739 0.100999104
0.9889217868 -28.6956521739 0.0901366601
1.2792290303 -28.6956521739 0.0708641299
1.5309571925 -28.6956521739 0.0494235806
1.7238880642 -28.6956521739 0.0305583006
1.8582201205 -28.6956521739 0.0162321876
1.9456185457 -28.6956521739 0.0063662408
2 -30 0
1.9456400754 -30 -0.0062675965
1.858277371 -30 -0.0159784647
1.7240027049 -30 -0.0300741796
1.5311590958 -30 -0.0486249788
1.2795531875 -30 -0.0696865793
0.9893998183 -30 -0.0885785493
0.6988330616 -30 -0.0991531164
0.4463770846 -30 -0.09752319249999999
0.253115673 -30 -0.08457907319999999
0.1197534997 -30 -0.0639444069
0.0360894635 -30 -0.0375795968
0 -30 0
0.0360894635 -30 0.0375795968
0.1197534997 -30 0.0639444069
0.253115673 -30 0.08457907319999999
0.4463770846 -30 0.09752319249999999
0.6988330616 -30 0.0991531164
0.9893998183 -30 0.0885785493
1.2795531875 -30 0.0696865793
1.5311590958 -30 0.0486249788
1.7240027049 -30 0.0300741796
1.858277371 -30 0.0159784647
1.9456400754 -30 0.0062675965
1.9456400754 -30 -0.0031337982
1.858277371 -30 -0.007989232299999999
1.7240027049 -30 -0.0150370898
1.5311590958 -30 -0.0243124894
1.2795531875 -30 -0.0348432897
0.9893998183 -30 -0.0442892747
0.6988330616 -30 -0.0495765582
0.4463770846 -30 -0.0487615963
0.253115673 -30 -0.0422895366
0.1197534997 -30 -0.0319722034
0.0360894635 -30 -0.0187897984
0.0360894635 -30 0.0187897984
0.1197534997 -30 0.0319722034
0.253115673 -30 0.0422895366
0.4463770846 -30 0.0487615963
0.6988330616 -30 0.0495765582
0.9893998183 -30 0.0442892747
1.2795531875 -30 0.0348432897
1.5311590958 -30 0.0243124894
1.7240027049 -30 0.0150370898
1.858277371 -30 0.007989232299999999
1.9456400754 -30 0.0031337982
1.9456400754 -30 0
1.858277371 -30 0
1.7240027049 -30 0
1.5311590958 -30 0
1.2795531875 -30 0
0.9893998183 -30 0
0.6988330616 -30 0
0.4463770846 -30 -0
0.253115673 -30 -0
0.1197534997 -30 -0
0.0360894635 -30 -0
$EndNodes
$Elements
1 2384 1 2384
2 0 2 2384
1 1 3 2 
2 3 4 2 
3 2 4 5 
4 4 6 5 
5 5 6 7 
6 6 8 7 
7 7 8 9 
8 8 10 9 
9 9 10 11 
10 10 12 11 
11 11 12 13 
12 12 14 13 
13 13 14 15 
14 13 15 16 
15 16 15 17 
16 16 17 18 
17 18 17 19 
18 18 19 20 
19 20 19 21 
20 20 21 22 
21 22 21 23 
22 22 23 24 
23 24 23 25 
24 24 25 26 
25 26 25 27 
26 25 28 27 
27 27 28 29 
28 28 30 29 
29 29 30 31 
30 30 32 31 
31 31 32 33 
32 32 34 33 
33 33 34 35 
34 34 36 35 
35 35 36 37 
36 36 38 37 
37 37 38 39 
38 37 39 40 
39 40 39 41 
40 40 41 42 
41 42 41 43 
42 42 43 44 
43 44 43 45 
44 44 45 46 
45 46 45 47 
46 46 47 48 
47 48 47 3 
48 48 3 1 
49 3 49 4 
50 49 50 4 
51 4 50 6 
52 50 51 6 
53 6 51 8 
54 51 52 8 
55 8 52 10 
56 52 53 10 
57 10 53 12 
58 53 54 12 
59 12 54 14 
60 54 55 14 
61 14 55 56 
62 14 56 15 
63 15 56 57 
64 15 57 17 
65 17 57 58 
66 17 58 19 
67 19 58 59 
68 19 59 21 
69 21 59 60 
70 21 60 23 
71 23 60 61 
72 23 61 25 
73 25 61 28 
74 61 62 28 
75 28 62 30 
76 62 63 30 
77 30 63 32 
78 63 64 32 
79 32 64 34 
80 64 65 34 
81 34 65 36 
82 65 66 36 
83 36 66 38 
84 66 67 38 
85 38 67 68 
86 38 68 39 
87 39 68 69 
88 39 69 41 
89 41 69 70 
90 41 70 43 
91 43 70 71 
92 43 71 45 
93 45 71 72 
94 45 72 47 
95 47 72 49 
96 47 49 3 
97 49 73 50 
98 73 74 50 
99 50 74 51 
100 74 75 51 
101 51 75 52 
102 75 76 52 
103 52 76 53 
104 76 77 53 
105 53 77 54 
106 77 78 54 
107 54 78 55 
108 78 79 55 
109 55 79 80 
110 55 80 56 
111 56 80 81 
112 56 81 57 
113 57 81 82 
114 57 82 58 
115 58 82 83 
116 58 83 59 
117 59 83 84 
118 59 84 60 
119 60 84 85 
120 60 85 61 
121 61 85 62 
122 85 86 62 
123 62 86 63 
124 86 87 63 
125 63 87 64 
126 87 88 64 
127 64 88 65 
128 88 89 65 
129 65 89 66 
130 89 90 66 
131 66 90 67 
132 90 91 67 
133 67 91 92 
134 67 92 68 
135 68 92 93 
136 68 93 69 
137 69 93 94 
138 69 94 70 
139 70 94 95 
140 70 95 71 
141 71 95 96 
142 71 96 72 
143 72 96 73 
144 72 73 49 
145 73 97 74 
146 97 98 74 
147 74 98 75 
148 98 99 75 
149 75 99 76 
150 99 100 76 
151 76 100 77 
152 100 101 77 
153 77 101 78 
154 101 102 78 
155 78 102 79 
156 102 103 79 
157 79 103 104 
158 79 104 80 
159 80 104 105 
160 80 105 81 
161 81 105 106 
162 81 106 82 
163 82 106 107 
164 82 107 83 
165 83 107 108 
166 83 108 84 
167 84 108 109 
168 84 109 85 
169 85 109 86 
170 109 110 86 
171 86 110 87 
172 110 111 87 
173 87 111 88 
174 111 112 88 
175 88 112 89 
176 112 113 89 
177 89 113 90 
178 113 114 90 
179 90 114 91 
180 114 115 91 
181 91 115 116 
182 91 116 92 
183 92 116 117 
184 92 117 93 
185 93 117 118 
186 93 118 94 
187 94 118 119 
188 94 119 95 
189 95 119 120 
190 95 120 96 
191 96 120 97 
192 96 97 73 
193 97 121 98 
194 121 122 98 
195 98 122 99 
196 122 123 99 
197 99 123 100 
198 123 124 100 
199 100 124 101 
200 124 125 101 
201 101 125 102 
202 125 126 102 
203 102 126 103 
204 126 127 103 
205 103 127 128 
206 103 128 104 
207 104 128 129 
208 104 129 105 
209 105 129 130 
210 105 130 106 
211 106 130 131 
212 106 131 107 
213 107 131 132 
214 107 132 108 
215 108 132 133 
216 108 133 109 
217 109 133 110 
218 133 134 110 
219 110 134 111 
220 134 135 111 
221 111 135 112 
222 135 136 112 
223 112 136 113 
224 136 137 113 
225 113 137 114 
226 137 138 114 
227 114 138 115 
228 138 139 115 
229 115 139 140 
230 115 140 116 
231 116 140 141 
232 116 141 117 
233 117 141 142 
234 117 142 118 
235 118 142 143 
236 118 143 119 
237 119 143 144 
238 119 144 120 
239 120 144 121 
240 120 121 97 
241 121 145 122 
242 145 146 122 
243 122 146 123 
244 146 147 123 
245 123 147 124 
246 147 148 124 
247 124 148 125 
248 148 149 125 
249 125 149 126 
250 149 150 126 
251 126 150 127 
252 150 151 127 
253 127 151 152 
254 127 152 128 
255 128 152 153 
256 128 153 129 
257 129 153 154 
258 129 154 130 
259 130 154 155 
260 130 155 131 
261 131 155 156 
262 131 156 132 
263 132 156 157 
264 132 157 133 
265 133 157 134 
266 157 158 134 
267 134 158 135 
268 158 159 135 
269 135 159 136 
270 159 160 136 
271 136 160 137 
272 160 161 137 
273 137 161 138 
274 161 162 138 
275 138 162 139 
276 162 163 139 
277 139 163 164 
278 139 164 140 
279 140 164 165 
280 140 165 141 
281 141 165 166 
282 141 166 142 
283 142 166 167 
284 142 167 143 
285 143 167 168 
286 143 168 144 
287 144 168 145 
288 144 145 121 
289 145 169 146 
290 169 170 146 
291 146 170 147 
292 170 171 147 
293 147 171 148 
294 171 172 148 
295 148 172 149 
296 172 173 149 
297 149 173 150 
298 173 174 150 
299 150 174 151 
300 174 175 151 
301 151 175 176 
302 151 176 152 
303 152 176 177 
304 152 177 153 
305 153 177 178 
306 153 178 154 
307 154 178 179 
308 154 179 155 
309 155 179 180 
310 155 180 156 
311 156 180 181 
312 156 181 157 
313 157 181 158 
314 181 182 158 
315 158 182 159 
316 182 183 159 
317 159 183 160 
318 183 184 160 
319 160 184 161 
320 184 185 161 
321 161 185 162 
322 185 186 162 
323 162 186 163 
324 186 187 163 
325 163 187 188 
326 163 188 164 
327 164 188 189 
328 164 189 165 
329 165 189 190 
330 165 190 166 
331 166 190 191 
332 166 191 167 
333 167 191 192 
334 167 192 168 
335 168 192 169 
336 168 169 145 
337 169 193 170 
338 193 194 170 
339 170 194 171 
340 194 195 171 
341 171 195 172 
342 195 196 172 
343 172 196 173 
344 196 197 173 
345 173 197 174 
346 197 198 174 
347 174 198 175 
348 198 199 175 
349 175 199 200 
350 175 200 176 
351 176 200 201 
352 176 201 177 
353 177 201 202 
354 177 202 178 
355 178 202 203 
356 178 203 179 
357 179 203 204 
358 179 204 180 
359 180 204 205 
360 180 205 181 
361 181 205 182 
362 205 206 182 
363 182 206 183 
364 206 207 183 
365 183 207 184 
366 207 208 184 
367 184 208 185 
368 208 209 185 
369 185 209 186 
370 209 210 186 
371 186 210 187 
372 210 211 187 
373 187 211 212 
374 187 212 188 
375 188 212 213 
376 188 213 189 
377 189 213 214 
378 189 214 190 
379 190 214 215 
380 190 215 191 
381 191 215 216 
382 191 216 192 
383 192 216 193 
384 192 193 169 
385 193 217 194 
386 217 218 194 
387 194 218 195 
388 218 219 195 
389 195 219 196 
390 219 220 196 
391 196 220 197 
392 220 221 197 
393 197 221 198 
394 221 222 198 
395 198 222 199 
396 222 223 199 
397 199 223 224 
398 199 224 200 
399 200 224 225 
400 200 225 201 
401 201 225 226 
402 201 226 202 
403 202 226 227 
404 202 227 203 
405 203 227 228 
406 203 228 204 
407 204 228 229 
408 204 229 205 
409 205 229 206 
410 229 230 206 
411 206 230 207 
412 230 231 207 
413 207 231 208 
414 231 232 208 
415 208 232 209 
416 232 233 209 
417 209 233 210 
418 233 234 210 
419 210 234 211 
420 234 235 211 
421 211 235 236 
422 211 236 212 
423 212 236 237 
424 212 237 213 
425 213 237 238 
426 213 238 214 
427 214 238 239 
428 214 239 215 
429 215 239 240 
430 215 240 216 
431 216 240 217 
432 216 217 193 
433 217 241 218 
434 241 242 218 
435 218 242 219 
436 242 243 219 
437 219 243 220 
438 243 244 220 
439 220 244 221 
440 244 245 221 
441 221 245 222 
442 245 246 222 
443 222 246 223 
444 246 247 223 
445 223 247 248 
446 223 248 224 
447 224 248 249 
448 224 249 225 
449 225 249 250 
450 225 250 226 
451 226 250 251 
452 226 251 227 
453 227 251 252 
454 227 252 228 
455 228 252 253 
456 228 253 229 
457 229 253 230 
458 253 254 230 
459 230 254 231 
460 254 255 231 
461 231 255 232 
462 255 256 232 
463 232 256 233 
464 256 257 233 
465 233 257 234 
466 257 258 234 
467 234 258 235 
468 258 259 235 
469 235 259 260 
470 235 260 236 
471 236 260 261 
472 236 261 237 
473 237 261 262 
474 237 262 238 
475 238 262 263 
476 238 263 239 
477 239 263 264 
478 239 264 240 
479 240 264 241 
480 240 241 217 
481 241 265 242 
482 265 266 242 
483 242 266 243 
484 266 267 243 
485 243 267 244 
486 267 268 244 
487 244 268 245 
488 268 269 245 
489 245 269 246 
490 269 270 246 
491 246 270 247 
492 270 271 247 
493 247 271 272 
494 247 272 248 
495 248 272 273 
496 248 273 249 
497 249 273 274 
498 249 274 250 
499 250 274 275 
500 250 275 251 
501 251 275 276 
502 251 276 252 
503 252 276 277 
504 252 277 253 
505 253 277 254 
506 277 278 254 
507 254 278 255 
508 278 279 255 
509 255 279 256 
510 279 280 256 
511 256 280 257 
512 280 281 257 
513 257 281 258 
514 281 282 258 
515 258 282 259 
516 282 283 259 
517 259 283 284 
518 259 284 260 
519 260 284 285 
520 260 285 261 
521 261 285 286 
522 261 286 262 
523 262 286 287 
524 262 287 263 
525 263 287 288 
526 263 288 264 
527 264 288 265 
528 264 265 241 
529 265 289 266 
530 289 290 266 
531 266 290 267 
532 290 291 267 
533 267 291 268 
534 291 292 268 
535 268 292 269 
536 292 293 269 
537 269 293 270 
538 293 294 270 
539 270 294 271 
540 294 295 271 
541 271 295 296 
542 271 296 272 
543 272 296 297 
544 272 297 273 
545 273 297 298 
546 273 298 274 
547 274 298 299 
548 274 299 275 
549 275 299 300 
550 275 300 276 
551 276 300 301 
552 276 301 277 
553 277 301 278 
554 301 302 278 
555 278 302 279 
556 302 303 279 
557 279 303 280 
558 303 304 280 
559 280 304 281 
560 304 305 281 
561 281 305 282 
562 305 306 282 
563 282 306 283 
564 306 307 283 
565 283 307 308 
566 283 308 284 
567 284 308 309 
568 284 309 285 
569 285 309 310 
570 285 310 286 
571 286 310 311 
572 286 311 287 
573 287 311 312 
574 287 312 288 
575 288 312 289 
576 288 289 265 
577 289 313 290 
578 313 314 290 
579 290 314 291 
580 314 315 291 
581 291 315 292 
582 315 316 292 
583 292 316 293 
584 316 317 293 
585 293 317 294 
586 317 318 294 
587 294 318 295 
588 318 319 295 
589 295 319 320 
590 295 320 296 
591 296 320 321 
592 296 321 297 
593 297 321 322 
594 297 322 298 
595 298 322 323 
596 298 323 299 
597 299 323 324 
598 299 324 300 
599 300 324 325 
600 300 325 301 
601 301 325 302 
602 325 326 302 
603 302 326 303 
604 326 327 303 
605 303 327 304 
606 327 328 304 
607 304 328 305 
608 328 329 305 
609 305 329 306 
610 329 330 306 
611 306 330 307 
612 330 331 307 
613 307 331 332 
614 307 332 308 
615 308 332 333 
616 308 333 309 
617 309 333 334 
618 309 334 310 
619 310 334 335 
620 310 335 311 
621 311 335 336 
622 311 336 312 
623 312 336 313 
624 312 313 289 
625 313 337 314 
626 337 338 314 
627 314 338 315 
628 338 339 315 
629 315 339 316 
630 339 340 316 
631 316 340 317 
632 340 341 317 
633 317 341 318 
634 341 342 318 
635 318 342 319 
636 342 343 319 
637 319 343 344 
638 319 344 320 
639 320 344 345 
640 320 345 321 
641 321 345 346 
642 321 346 322 
643 322 346 347 
644 322 347 323 
645 323 347 348 
646 323 348 324 
647 324 348 349 
648 324 349 325 
649 325 349 326 
650 349 350 326 
651 326 350 327 
652 350 351 327 
653 327 351 328 
654 351 352 328 
655 328 352 329 
656 352 353 329 
657 329 353 330 
658 353 354 330 
659 330 354 331 
660 354 355 331 
661 331 355 356 
662 331 356 332 
663 332 356 357 
664 332 357 333 
665 333 357 358 
666 333 358 334 
667 334 358 359 
668 334 359 335 
669 335 359 360 
670 335 360 336 
671 336 360 337 
672 336 337 313 
673 337 361 338 
674 361 362 338 
675 338 362 339 
676 362 363 339 
677 339 363 340 
678 363 364 340 
679 340 364 341 
680 364 365 341 
681 341 365 342 
682 365 366 342 
683 342 366 343 
684 366 367 343 
685 343 367 368 
686 343 368 344 
687 344 368 369 
688 344 369 345 
689 345 369 370 
690 345 370 346 
691 346 370 371 
692 346 371 347 
693 347 371 372 
694 347 372 348 
695 348 372 373 
696 348 373 349 
697 349 373 350 
698 373 374 350 
699 350 374 351 
700 374 375 351 
701 351 375 352 
702 375 376 352 
703 352 376 353 
704 376 377 353 
705 353 377 354 
706 377 378 354 
707 354 378 355 
708 378 379 355 
709 355 379 380 
710 355 380 356 
711 356 380 381 
712 356 381 357 
713 357 381 382 
714 357 382 358 
715 358 382 383 
716 358 383 359 
717 359 383 384 
718 359 384 360 
719 360 384 361 
720 360 361 337 
721 361 385 362 
722 385 386 362 
723 362 386 363 
724 386 387 363 
725 363 387 364 
726 387 388 364 
727 364 388 365 
728 388 389 365 
729 365 389 366 
730 389 390 366 
731 366 390 367 
732 390 391 367 
733 367 391 392 
734 367 392 368 
735 368 392 393 
736 368 393 369 
737 369 393 394 
738 369 394 370 
739 370 394 395 
740 370 395 371 
741 371 395 396 
742 371 396 372 
743 372 396 397 
744 372 397 373 
745 373 397 374 
746 397 398 374 
747 374 398 375 
748 398 399 375 
749 375 399 376 
750 399 400 376 
751 376 400 377 
752 400 401 377 
753 377 401 378 
754 401 402 378 
755 378 402 379 
756 402 403 379 
757 379 403 404 
758 379 404 380 
759 380 404 405 
760 380 405 381 
761 381 405 406 
762 381 406 382 
763 382 406 407 
764 382 407 383 
765 383 407 408 
766 383 408 384 
767 384 408 385 
768 384 385 361 
769 385 409 386 
770 409 410 386 
771 386 410 387 
772 410 411 387 
773 387 411 388 
774 411 412 388 
775 388 412 389 
776 412 413 389 
777 389 413 390 
778 413 414 390 
779 390 414 391 
780 414 415 391 
781 391 415 416 
782 391 416 392 
783 392 416 417 
784 392 417 393 
785 393 417 418 
786 393 418 394 
787 394 418 419 
788 394 419 395 
789 395 419 420 
790 395 420 396 
791 396 420 421 
792 396 421 397 
793 397 421 398 
794 421 422 398 
795 398 422 399 
796 422 423 399 
797 399 423 400 
798 423 424 400 
799 400 424 401 
800 424 425 401 
801 401 425 402 
802 425 426 402 
803 402 426 403 
804 426 427 403 
805 403 427 428 
806 403 428 404 
807 404 428 429 
808 404 429 405 
809 405 429 430 
810 405 430 406 
811 406 430 431 
812 406 431 407 
813 407 431 432 
814 407 432 408 
815 408 432 409 
816 408 409 385 
817 409 433 410 
818 433 434 410 
819 410 434 411 
820 434 435 411 
821 411 435 412 
822 435 436 412 
823 412 436 413 
824 436 437 413 
825 413 437 414 
826 437 438 414 
827 414 438 415 
828 438 439 415 
829 415 439 440 
830 415 440 416 
831 416 440 441 
832 416 441 417 
833 417 441 442 
834 417 442 418 
835 418 442 443 
836 418 443 419 
837 419 443 444 
838 419 444 420 
839 420 444 445 
840 420 445 421 
841 421 445 422 
842 445 446 422 
843 422 446 423 
844 446 447 423 
845 423 447 424 
846 447 448 424 
847 424 448 425 
848 448 449 425 
849 425 449 426 
850 449 450 426 
851 426 450 427 
852 450 451 427 
853 427 451 452 
854 427 452 428 
855 428 452 453 
856 428 453 429 
857 429 453 454 
858 429 454 430 
859 430 454 455 
860 430 455 431 
861 431 455 456 
862 431 456 432 
863 432 456 433 
864 432 433 409 
865 433 457 434 
866 457 458 434 
867 434 458 435 
868 458 459 435 
869 435 459 436 
870 459 460 436 
871 436 460 437 
872 460 461 437 
873 437 461 438 
874 461 462 438 
875 438 462 439 
876 462 463 439 
877 439 463 464 
878 439 464 440 
879 440 464 465 
880 440 465 441 
881 441 465 466 
882 441 466 442 
883 442 466 467 
884 442 467 443 
885 443 467 468 
886 443 468 444 
887 444 468 469 
888 444 469 445 
889 445 469 446 
890 469 470 446 
891 446 470 447 
892 470 471 447 
893 447 471 448 
894 471 472 448 
895 448 472 449 
896 472 473 449 
897 449 473 450 
898 473 474 450 
899 450 474 451 
900 474 475 451 
901 451 475 476 
902 451 476 452 
903 452 476 477 
904 452 477 453 
905 453 477 478 
906 453 478 454 
907 454 478 479 
908 454 479 455 
909 455 479 480 
910 455 480 456 
911 456 480 457 
912 456 457 433 
913 457 481 458 
914 481 482 458 
915 458 482 459 
916 482 483 459 
917 459 483 460 
918 483 484 460 
919 460 484 461 
920 484 485 461 
921 461 485 462 
922 485 486 462 
923 462 486 463 
924 486 487 463 
925 463 487 488 
926 463 488 464 
927 464 488 489 
928 464 489 465 
929 465 489 490 
930 465 490 466 
931 466 490 491 
932 466 491 467 
933 467 491 492 
934 467 492 468 
935 468 492 493 
936 468 493 469 
937 469 493 470 
938 493 494 470 
939 470 494 471 
940 494 495 471 
941 471 495 472 
942 495 496 472 
943 472 496 473 
944 496 497 473 
945 473 497 474 
946 497 498 474 
947 474 498 475 
948 498 499 475 
949 475 499 500 
950 475 500 476 
951 476 500 501 
952 476 501 477 
953 477 501 502 
954 477 502 478 
955 478 502 503 
956 478 503 479 
957 479 503 504 
958 479 504 480 
959 480 504 481 
960 480 481 457 
961 481 505 482 
962 505 506 482 
963 482 506 483 
964 506 507 483 
965 483 507 484 
966 507 508 484 
967 484 508 485 
968 508 509 485 
969 485 509 486 
970 509 510 486 
971 486 510 487 
972 510 511 487 
973 487 511 512 
974 487 512 488 
975 488 512 513 
976 488 513 489 
977 489 513 514 
978 489 514 490 
979 490 514 515 
980 490 515 491 
981 491 515 516 
982 491 516 492 
983 492 516 517 
984 492 517 493 
985 493 517 494 
986 517 518 494 
987 494 518 495 
988 518 519 495 
989 495 519 496 
990 519 520 496 
991 496 520 497 
992 520 521 497 
993 497 521 498 
994 521 522 498 
995 498 522 499 
996 522 523 499 
997 499 523 524 
998 499 524 500 
999 500 524 525 
1000 500 525 501 
1001 501 525 526 
1002 501 526 502 
1003 502 526 527 
1004 502 527 503 
1005 503 527 528 
1006 503 528 504 
1007 504 528 505 
1008 504 505 481 
1009 505 529 506 
1010 529 530 506 
1011 506 530 507 
1012 530 531 507 
1013 507 531 508 
1014 531 532 508 
1015 508 532 509 
1016 532 533 509 
1017 509 533 510 
1018 533 534 510 
1019 510 534 511 
1020 534 535 511 
1021 511 535 536 
1022 511 536 512 
1023 512 536 537 
1024 512 537 513 
1025 513 537 538 
1026 513 538 514 
1027 514 538 539 
1028 514 539 515 
1029 515 539 540 
1030 515 540 516 
1031 516 540 541 
1032 516 541 517 
1033 517 541 518 
1034 541 542 518 
1035 518 542 519 
1036 542 543 519 
1037 519 543 520 
1038 543 544 520 
1039 520 544 521 
1040 544 545 521 
1041 521 545 522 
1042 545 546 522 
1043 522 546 523 
1044 546 547 523 
1045 523 547 548 
1046 523 548 524 
1047 524 548 549 
1048 524 549 525 
1049 525 549 550 
1050 525 550 526 
1051 526 550 551 
1052 526 551 527 
1053 527 551 552 
1054 527 552 528 
1055 528 552 529 
1056 528 529 505 
1057 529 553 530 
1058 553 554 530 
1059 530 554 531 
1060 554 555 531 
1061 531 555 532 
1062 555 556 532 
1063 532 556 533 
1064 556 557 533 
1065 533 557 534 
1066 557 558 534 
1067 534 558 535 
1068 558 559 535 
1069 535 559 560 
1070 535 560 536 
1071 536 560 561 
1072 536 561 537 
1073 537 561 562 
1074 537 562 538 
1075 538 562 563 
1076 538 563 539 
1077 539 563 564 
1078 539 564 540 
1079 540 564 565 
1080 540 565 541 
1081 541 565 542 
1082 565 566 542 
1083 542 566 543 
1084 566 567 543 
1085 543 567 544 
1086 567 568 544 
1087 544 568 545 
1088 568 569 545 
1089 545 569 546 
1090 569 570 546 
1091 546 570 547 
1092 570 571 547 
1093 547 571 572 
1094 547 572 548 
1095 548 572 573 
1096 548 573 549 
1097 549 573 574 
1098 549 574 550 
1099 550 574 575 
1100 550 575 551 
1101 551 575 576 
1102 551 576 552 
1103 552 576 553 
1104 552 553 529 
1105 553 577 554 
1106 554 577 578 
1107 554 578 555 
1108 555 578 579 
1109 555 579 556 
1110 556 579 580 
1111 556 580 557 
1112 557 580 581 
1113 557 581 558 
1114 558 581 582 
1115 558 582 559 
1116 559 582 560 
1117 582 583 560 
1118 560 583 561 
1119 583 584 561 
1120 561 584 562 
1121 584 585 562 
1122 562 585 563 
1123 585 586 563 
1124 563 586 564 
1125 586 587 564 
1126 564 587 565 
1127 565 588 566 
1128 566 588 589 
1129 566 589 567 
1130 567 589 590 
1131 567 590 568 
1132 568 590 591 
1133 568 591 569 
1134 569 591 592 
1135 569 592 570 
1136 570 592 593 
1137 570 593 571 
1138 571 593 572 
1139 593 594 572 
1140 572 594 573 
1141 594 595 573 
1142 573 595 574 
1143 595 596 574 
1144 574 596 575 
1145 596 597 575 
1146 575 597 576 
1147 597 598 576 
1148 576 598 553 
1149 553 599 577 
1150 577 599 600 
1151 577 600 578 
1152 578 600 601 
1153 578 601 579 
1154 579 601 602 
1155 579 602 580 
1156 580 602 603 
1157 580 603 581 
1158 581 603 604 
1159 581 604 582 
1160 582 604 583 
1161 604 605 583 
1162 583 605 584 
1163 605 606 584 
1164 584 606 585 
1165 606 607 585 
1166 585 607 586 
1167 607 608 586 
1168 586 608 587 
1169 608 609 587 
1170 587 609 565 
1171 565 609 588 
1172 588 609 608 
1173 588 608 589 
1174 589 608 607 
1175 589 607 590 
1176 590 607 606 
1177 590 606 591 
1178 591 606 605 
1179 591 605 592 
1180 592 605 604 
1181 592 604 593 
1182 593 604 594 
1183 604 603 594 
1184 594 603 595 
1185 603 602 595 
1186 595 602 596 
1187 602 601 596 
1188 596 601 597 
1189 601 600 597 
1190 597 600 598 
1191 600 599 598 
1192 598 599 553 
1193 1 2 610 
1194 610 2 611 
1195 2 5 611 
1196 611 5 612 
1197 5 7 612 
1198 612 7 613 
1199 7 9 613 
1200 613 9 614 
1201 9 11 614 
1202 614 11 615 
1203 11 13 615 
1204 615 13 616 
1205 13 617 616 
1206 13 16 617 
1207 16 618 617 
1208 16 18 618 
1209 18 619 618 
1210 18 20 619 
1211 20 620 619 
1212 20 22 620 
1213 22 621 620 
1214 22 24 621 
1215 24 622 621 
1216 24 26 622 
1217 26 27 622 
1218 622 27 623 
1219 27 29 623 
1220 623 29 624 
1221 29 31 624 
1222 624 31 625 
1223 31 33 625 
1224 625 33 626 
1225 33 35 626 
1226 626 35 627 
1227 35 37 627 
1228 627 37 628 
1229 37 629 628 
1230 37 40 629 
1231 40 630 629 
1232 40 42 630 
1233 42 631 630 
1234 42 44 631 
1235 44 632 631 
1236 44 46 632 
1237 46 633 632 
1238 46 48 633 
1239 48 610 633 
1240 48 1 610 
1241 610 611 634 
1242 634 611 635 
1243 611 612 635 
1244 635 612 636 
1245 612 613 636 
1246 636 613 637 
1247 613 614 637 
1248 637 614 638 
1249 614 615 638 
1250 638 615 639 
1251 615 616 639 
1252 639 616 640 
1253 616 641 640 
1254 616 617 641 
1255 617 642 641 
1256 617 618 642 
1257 618 643 642 
1258 618 619 643 
1259 619 644 643 
1260 619 620 644 
1261 620 645 644 
1262 620 621 645 
1263 621 646 645 
1264 621 622 646 
1265 622 623 646 
1266 646 623 647 
1267 623 624 647 
1268 647 624 648 
1269 624 625 648 
1270 648 625 649 
1271 625 626 649 
1272 649 626 650 
1273 626 627 650 
1274 650 627 651 
1275 627 628 651 
1276 651 628 652 
1277 628 653 652 
1278 628 629 653 
1279 629 654 653 
1280 629 630 654 
1281 630 655 654 
1282 630 631 655 
1283 631 656 655 
1284 631 632 656 
1285 632 657 656 
1286 632 633 657 
1287 633 634 657 
1288 633 610 634 
1289 634 635 658 
1290 658 635 659 
1291 635 636 659 
1292 659 636 660 
1293 636 637 660 
1294 660 637 661 
1295 637 638 661 
1296 661 638 662 
1297 638 639 662 
1298 662 639 663 
1299 639 640 663 
1300 663 640 664 
1301 640 665 664 
1302 640 641 665 
1303 641 666 665 
1304 641 642 666 
1305 642 667 666 
1306 642 643 667 
1307 643 668 667 
1308 643 644 668 
1309 644 669 668 
1310 644 645 669 
1311 645 670 669 
1312 645 646 670 
1313 646 647 670 
1314 670 647 671 
1315 647 648 671 
1316 671 648 672 
1317 648 649 672 
1318 672 649 673 
1319 649 650 673 
1320 673 650 674 
1321 650 651 674 
1322 674 651 675 
1323 651 652 675 
1324 675 652 676 
1325 652 677 676 
1326 652 653 677 
1327 653 678 677 
1328 653 654 678 
1329 654 679 678 
1330 654 655 679 
1331 655 680 679 
1332 655 656 680 
1333 656 681 680 
1334 656 657 681 
1335 657 658 681 
1336 657 634 658 
1337 658 659 682 
1338 682 659 683 
1339 659 660 683 
1340 683 660 684 
1341 660 661 684 
1342 684 661 685 
1343 661 662 685 
1344 685 662 686 
1345 662 663 686 
1346 686 663 687 
1347 663 664 687 
1348 687 664 688 
1349 664 689 688 
1350 664 665 689 
1351 665 690 689 
1352 665 666 690 
1353 666 691 690 
1354 666 667 691 
1355 667 692 691 
1356 667 668 692 
1357 668 693 692 
1358 668 669 693 
1359 669 694 693 
1360 669 670 694 
1361 670 671 694 
1362 694 671 695 
1363 671 672 695 
1364 695 672 696 
1365 672 673 696 
1366 696 673 697 
1367 673 674 697 
1368 697 674 698 
1369 674 675 698 
1370 698 675 699 
1371 675 676 699 
1372 699 676 700 
1373 676 701 700 
1374 676 677 701 
1375 677 702 701 
1376 677 678 702 
1377 678 703 702 
1378 678 679 703 
1379 679 704 703 
1380 679 680 704 
1381 680 705 704 
1382 680 681 705 
1383 681 682 705 
1384 681 658 682 
1385 682 683 706 
1386 706 683 707 
1387 683 684 707 
1388 707 684 708 
1389 684 685 708 
1390 708 685 709 
1391 685 686 709 
1392 709 686 710 
1393 686 687 710 
1394 710 687 711 
1395 687 688 711 
1396 711 688 712 
1397 688 713 712 
1398 688 689 713 
1399 689 714 713 
1400 689 690 714 
1401 690 715 714 
1402 690 691 715 
1403 691 716 715 
1404 691 692 716 
1405 692 717 716 
1406 692 693 717 
1407 693 718 717 
1408 693 694 718 
1409 694 695 718 
1410 718 695 719 
1411 695 696 719 
1412 719 696 720 
1413 696 697 720 
1414 720 697 721 
1415 697 698 721 
1416 721 698 722 
1417 698 699 722 
1418 722 699 723 
1419 699 700 723 
1420 723 700 724 
1421 700 725 724 
1422 700 701 725 
1423 701 726 725 
1424 701 702 726 
1425 702 727 726 
1426 702 703 727 
1427 703 728 727 
1428 703 704 728 
1429 704 729 728 
1430 704 705 729 
1431 705 706 729 
1432 705 682 706 
1433 706 707 730 
1434 730 707 731 
1435 707 708 731 
1436 731 708 732 
1437 708 709 732 
1438 732 709 733 
1439 709 710 733 
1440 733 710 734 
1441 710 711 734 
1442 734 711 735 
1443 711 712 735 
1444 735 712 736 
1445 712 737 736 
1446 712 713 737 
1447 713 738 737 
1448 713 714 738 
1449 714 739 738 
1450 714 715 739 
1451 715 740 739 
1452 715 716 740 
1453 716 741 740 
1454 716 717 741 
1455 717 742 741 
1456 717 718 742 
1457 718 719 742 
1458 742 719 743 
1459 719 720 743 
1460 743 720 744 
1461 720 721 744 
1462 744 721 745 
1463 721 722 745 
1464 745 722 746 
1465 722 723 746 
1466 746 723 747 
1467 723 724 747 
1468 747 724 748 
1469 724 749 748 
1470 724 725 749 
1471 725 750 749 
1472 725 726 750 
1473 726 751 750 
1474 726 727 751 
1475 727 752 751 
1476 727 728 752 
1477 728 753 752 
1478 728 729 753 
1479 729 730 753 
1480 729 706 730 
1481 730 731 754 
1482 754 731 755 
1483 731 732 755 
1484 755 732 756 
1485 732 733 756 
1486 756 733 757 
1487 733 734 757 
1488 757 734 758 
1489 734 735 758 
1490 758 735 759 
1491 735 736 759 
1492 759 736 760 
1493 736 761 760 
1494 736 737 761 
1495 737 762 761 
1496 737 738 762 
1497 738 763 762 
1498 738 739 763 
1499 739 764 763 
1500 739 740 764 
1501 740 765 764 
1502 740 741 765 
1503 741 766 765 
1504 741 742 766 
1505 742 743 766 
1506 766 743 767 
1507 743 744 767 
1508 767 744 768 
1509 744 745 768 
1510 768 745 769 
1511 745 746 769 
1512 769 746 770 
1513 746 747 770 
1514 770 747 771 
1515 747 748 771 
1516 771 748 772 
1517 748 773 772 
1518 748 749 773 
1519 749 774 773 
1520 749 750 774 
1521 750 775 774 
1522 750 751 775 
1523 751 776 775 
1524 751 752 776 
1525 752 777 776 
1526 752 753 777 
1527 753 754 777 
1528 753 730 754 
1529 754 755 778 
1530 778 755 779 
1531 755 756 779 
1532 779 756 780 
1533 756 757 780 
1534 780 757 781 
1535 757 758 781 
1536 781 758 782 
1537 758 759 782 
1538 782 759 783 
1539 759 760 783 
1540 783 760 784 
1541 760 785 784 
1542 760 761 785 
1543 761 786 785 
1544 761 762 786 
1545 762 787 786 
1546 762 763 787 
1547 763 788 787 
1548 763 764 788 
1549 764 789 788 
1550 764 765 789 
1551 765 790 789 
1552 765 766 790 
1553 766 767 790 
1554 790 767 791 
1555 767 768 791 
1556 791 768 792 
1557 768 769 792 
1558 792 769 793 
1559 769 770 793 
1560 793 770 794 
1561 770 771 794 
1562 794 771 795 
1563 771 772 795 
1564 795 772 796 
1565 772 797 796 
1566 772 773 797 
1567 773 798 797 
1568 773 774 798 
1569 774 799 798 
1570 774 775 799 
1571 775 800 799 
1572 775 776 800 
1573 776 801 800 
1574 776 777 801 
1575 777 778 801 
1576 777 754 778 
1577 778 779 802 
1578 802 779 803 
1579 779 780 803 
1580 803 780 804 
1581 780 781 804 
1582 804 781 805 
1583 781 782 805 
1584 805 782 806 
1585 782 783 806 
1586 806 783 807 
1587 783 784 807 
1588 807 784 808 
1589 784 809 808 
1590 784 785 809 
1591 785 810 809 
1592 785 786 810 
1593 786 811 810 
1594 786 787 811 
1595 787 812 811 
1596 787 788 812 
1597 788 813 812 
1598 788 789 813 
1599 789 814 813 
1600 789 790 814 
1601 790 791 814 
1602 814 791 815 
1603 791 792 815 
1604 815 792 816 
1605 792 793 816 
1606 816 793 817 
1607 793 794 817 
1608 817 794 818 
1609 794 795 818 
1610 818 795 819 
1611 795 796 819 
1612 819 796 820 
1613 796 821 820 
1614 796 797 821 
1615 797 822 821 
1616 797 798 822 
1617 798 823 822 
1618 798 799 823 
1619 799 824 823 
1620 799 800 824 
1621 800 825 824 
1622 800 801 825 
1623 801 802 825 
1624 801 778 802 
1625 802 803 826 
1626 826 803 827 
1627 803 804 827 
1628 827 804 828 
1629 804 805 828 
1630 828 805 829 
1631 805 806 829 
1632 829 806 830 
1633 806 807 830 
1634 830 807 831 
1635 807 808 831 
1636 831 808 832 
1637 808 833 832 
1638 808 809 833 
1639 809 834 833 
1640 809 810 834 
1641 810 835 834 
1642 810 811 835 
1643 811 836 835 
1644 811 812 836 
1645 812 837 836 
1646 812 813 837 
1647 813 838 837 
1648 813 814 838 
1649 814 815 838 
1650 838 815 839 
1651 815 816 839 
1652 839 816 840 
1653 816 817 840 
1654 840 817 841 
1655 817 818 841 
1656 841 818 842 
1657 818 819 842 
1658 842 819 843 
1659 819 820 843 
1660 843 820 844 
1661 820 845 844 
1662 820 821 845 
1663 821 846 845 
1664 821 822 846 
1665 822 847 846 
1666 822 823 847 
1667 823 848 847 
1668 823 824 848 
1669 824 849 848 
1670 824 825 849 
1671 825 826 849 
1672 825 802 826 
1673 826 827 850 
1674 850 827 851 
1675 827 828 851 
1676 851 828 852 
1677 828 829 852 
1678 852 829 853 
1679 829 830 853 
1680 853 830 854 
1681 830 831 854 
1682 854 831 855 
1683 831 832 855 
1684 855 832 856 
1685 832 857 856 
1686 832 833 857 
1687 833 858 857 
1688 833 834 858 
1689 834 859 858 
1690 834 835 859 
1691 835 860 859 
1692 835 836 860 
1693 836 861 860 
1694 836 837 861 
1695 837 862 861 
1696 837 838 862 
1697 838 839 862 
1698 862 839 863 
1699 839 840 863 
1700 863 840 864 
1701 840 841 864 
1702 864 841 865 
1703 841 842 865 
1704 865 842 866 
1705 842 843 866 
1706 866 843 867 
1707 843 844 867 
1708 867 844 868 
1709 844 869 868 
1710 844 845 869 
1711 845 870 869 
1712 845 846 870 
1713 846 871 870 
1714 846 847 871 
1715 847 872 871 
1716 847 848 872 
1717 848 873 872 
1718 848 849 873 
1719 849 850 873 
1720 849 826 850 
1721 850 851 874 
1722 874 851 875 
1723 851 852 875 
1724 875 852 876 
1725 852 853 876 
1726 876 853 877 
1727 853 854 877 
1728 877 854 878 
1729 854 855 878 
1730 878 855 879 
1731 855 856 879 
1732 879 856 880 
1733 856 881 880 
1734 856 857 881 
1735 857 882 881 
1736 857 858 882 
1737 858 883 882 
1738 858 859 883 
1739 859 884 883 
1740 859 860 884 
1741 860 885 884 
1742 860 861 885 
1743 861 886 885 
1744 861 862 886 
1745 862 863 886 
1746 886 863 887 
1747 863 864 887 
1748 887 864 888 
1749 864 865 888 
1750 888 865 889 
1751 865 866 889 
1752 889 866 890 
1753 866 867 890 
1754 890 867 891 
1755 867 868 891 
1756 891 868 892 
1757 868 893 892 
1758 868 869 893 
1759 869 894 893 
1760 869 870 894 
1761 870 895 894 
1762 870 871 895 
1763 871 896 895 
1764 871 872 896 
1765 872 897 896 
1766 872 873 897 
1767 873 874 897 
1768 873 850 874 
1769 874 875 898 
1770 898 875 899 
1771 875 876 899 
1772 899 876 900 
1773 876 877 900 
1774 900 877 901 
1775 877 878 901 
1776 901 878 902 
1777 878 879 902 
1778 902 879 903 
1779 879 880 903 
1780 903 880 904 
1781 880 905 904 
1782 880 881 905 
1783 881 906 905 
1784 881 882 906 
1785 882 907 906 
1786 882 883 907 
1787 883 908 907 
1788 883 884 908 
1789 884 909 908 
1790 884 885 909 
1791 885 910 909 
1792 885 886 910 
1793 886 887 910 
1794 910 887 911 
1795 887 888 911 
1796 911 888 912 
1797 888 889 912 
1798 912 889 913 
1799 889 890 913 
1800 913 890 914 
1801 890 891 914 
1802 914 891 915 
1803 891 892 915 
1804 915 892 916 
1805 892 917 916 
1806 892 893 917 
1807 893 918 917 
1808 893 894 918 
1809 894 919 918 
1810 894 895 919 
1811 895 920 919 
1812 895 896 920 
1813 896 921 920 
1814 896 897 921 
1815 897 898 921 
1816 897 874 898 
1817 898 899 922 
1818 922 899 923 
1819 899 900 923 
1820 923 900 924 
1821 900 901 924 
1822 924 901 925 
1823 901 902 925 
1824 925 902 926 
1825 902 903 926 
1826 926 903 927 
1827 903 904 927 
1828 927 904 928 
1829 904 929 928 
1830 904 905 929 
1831 905 930 929 
1832 905 906 930 
1833 906 931 930 
1834 906 907 931 
1835 907 932 931 
1836 907 908 932 
1837 908 933 932 
1838 908 909 933 
1839 909 934 933 
1840 909 910 934 
1841 910 911 934 
1842 934 911 935 
1843 911 912 935 
1844 935 912 936 
1845 912 913 936 
1846 936 913 937 
1847 913 914 937 
1848 937 914 938 
1849 914 915 938 
1850 938 915 939 
1851 915 916 939 
1852 939 916 940 
1853 916 941 940 
1854 916 917 941 
1855 917 942 941 
1856 917 918 942 
1857 918 943 942 
1858 918 919 943 
1859 919 944 943 
1860 919 920 944 
1861 920 945 944 
1862 920 921 945 
1863 921 922 945 
1864 921 898 922 
1865 922 923 946 
1866 946 923 947 
1867 923 924 947 
1868 947 924 948 
1869 924 925 948 
1870 948 925 949 
1871 925 926 949 
1872 949 926 950 
1873 926 927 950 
1874 950 927 951 
1875 927 928 951 
1876 951 928 952 
1877 928 953 952 
1878 928 929 953 
1879 929 954 953 
1880 929 930 954 
1881 930 955 954 
1882 930 931 955 
1883 931 956 955 
1884 931 932 956 
1885 932 957 956 
1886 932 933 957 
1887 933 958 957 
1888 933 934 958 
1889 934 935 958 
1890 958 935 959 
1891 935 936 959 
1892 959 936 960 
1893 936 937 960 
1894 960 937 961 
1895 937 938 961 
1896 961 938 962 
1897 938 939 962 
1898 962 939 963 
1899 939 940 963 
1900 963 940 964 
1901 940 965 964 
1902 940 941 965 
1903 941 966 965 
1904 941 942 966 
1905 942 967 966 
1906 942 943 967 
1907 943 968 967 
1908 943 944 968 
1909 944 969 968 
1910 944 945 969 
1911 945 946 969 
1912 945 922 946 
1913 946 947 970 
1914 970 947 971 
1915 947 948 971 
1916 971 948 972 
1917 948 949 972 
1918 972 949 973 
1919 949 950 973 
1920 973 950 974 
1921 950 951 974 
1922 974 951 975 
1923 951 952 975 
1924 975 952 976 
1925 952 977 976 
1926 952 953 977 
1927 953 978 977 
1928 953 954 978 
1929 954 979 978 
1930 954 955 979 
1931 955 980 979 
1932 955 956 980 
1933 956 981 980 
1934 956 957 981 
1935 957 982 981 
1936 957 958 982 
1937 958 959 982 
1938 982 959 983 
1939 959 960 983 
1940 983 960 984 
1941 960 961 984 
1942 984 961 985 
1943 961 962 985 
1944 985 962 986 
1945 962 963 986 
1946 986 963 987 
1947 963 964 987 
1948 987 964 988 
1949 964 989 988 
1950 964 965 989 
1951 965 990 989 
1952 965 966 990 
1953 966 991 990 
1954 966 967 991 
1955 967 992 991 
1956 967 968 992 
1957 968 993 992 
1958 968 969 993 
1959 969 970 993 
1960 969 946 970 
1961 970 971 994 
1962 994 971 995 
1963 971 972 995 
1964 995 972 996 
1965 972 973 996 
1966 996 973 997 
1967 973 974 997 
1968 997 974 998 
1969 974 975 998 
1970 998 975 999 
1971 975 976 999 
1972 999 976 1000 
1973 976 1001 1000 
1974 976 977 1001 
1975 977 1002 1001 
1976 977 978 1002 
1977 978 1003 1002 
1978 978 979 1003 
1979 979 1004 1003 
1980 979 980 1004 
1981 980 1005 1004 
1982 980 981 1005 
1983 981 1006 1005 
1984 981 982 1006 
1985 982 983 1006 
1986 1006 983 1007 
1987 983 984 1007 
1988 1007 984 1008 
1989 984 985 1008 
1990 1008 985 1009 
1991 985 986 1009 
1992 1009 986 1010 
1993 986 987 1010 
1994 1010 987 1011 
1995 987 988 1011 
1996 1011 988 1012 
1997 988 1013 1012 
1998 988 989 1013 
1999 989 1014 1013 
2000 989 990 1014 
2001 990 1015 1014 
2002 990 991 1015 
2003 991 1016 1015 
2004 991 992 1016 
2005 992 1017 1016 
2006 992 993 1017 
2007 993 994 1017 
2008 993 970 994 
2009 994 995 1018 
2010 1018 995 1019 
2011 995 996 1019 
2012 1019 996 1020 
2013 996 997 1020 
2014 1020 997 1021 
2015 997 998 1021 
2016 1021 998 1022 
2017 998 999 1022 
2018 1022 999 1023 
2019 999 1000 1023 
2020 1023 1000 1024 
2021 1000 1025 1024 
2022 1000 1001 1025 
2023 1001 1026 1025 
2024 1001 1002 1026 
2025 1002 1027 1026 
2026 1002 1003 1027 
2027 1003 1028 1027 
2028 1003 1004 1028 
2029 1004 1029 1028 
2030 1004 1005 1029 
2031 1005 1030 1029 
2032 1005 1006 1030 
2033 1006 1007 1030 
2034 1030 1007 1031 
2035 1007 1008 1031 
2036 1031 1008 1032 
2037 1008 1009 1032 
2038 1032 1009 1033 
2039 1009 1010 1033 
2040 1033 1010 1034 
2041 1010 1011 1034 
2042 1034 1011 1035 
2043 1011 1012 1035 
2044 1035 1012 1036 
2045 1012 1037 1036 
2046 1012 1013 1037 
2047 1013 1038 1037 
2048 1013 1014 1038 
2049 1014 1039 1038 
2050 1014 1015 1039 
2051 1015 1040 1039 
2052 1015 1016 1040 
2053 1016 1041 1040 
2054 1016 1017 1041 
2055 1017 1018 1041 
2056 1017 994 1018 
2057 1018 1019 1042 
2058 1042 1019 1043 
2059 1019 1020 1043 
2060 1043 1020 1044 
2061 1020 1021 1044 
2062 1044 1021 1045 
2063 1021 1022 1045 
2064 1045 1022 1046 
2065 1022 1023 1046 
2066 1046 1023 1047 
2067 1023 1024 1047 
2068 1047 1024 1048 
2069 1024 1049 1048 
2070 1024 1025 1049 
2071 1025 1050 1049 
2072 1025 1026 1050 
2073 1026 1051 1050 
2074 1026 1027 1051 
2075 1027 1052 1051 
2076 1027 1028 1052 
2077 1028 1053 1052 
2078 1028 1029 1053 
2079 1029 1054 1053 
2080 1029 1030 1054 
2081 1030 1031 1054 
2082 1054 1031 1055 
2083 1031 1032 1055 
2084 1055 1032 1056 
2085 1032 1033 1056 
2086 1056 1033 1057 
2087 1033 1034 1057 
2088 1057 1034 1058 
2089 1034 1035 1058 
2090 1058 1035 1059 
2091 1035 1036 1059 
2092 1059 1036 1060 
2093 1036 1061 1060 
2094 1036 1037 1061 
2095 1037 1062 1061 
2096 1037 1038 1062 
2097 1038 1063 1062 
2098 1038 1039 1063 
2099 1039 1064 1063 
2100 1039 1040 1064 
2101 1040 1065 1064 
2102 1040 1041 1065 
2103 1041 1042 1065 
2104 1041 1018 1042 
2105 1042 1043 1066 
2106 1066 1043 1067 
2107 1043 1044 1067 
2108 1067 1044 1068 
2109 1044 1045 1068 
2110 1068 1045 1069 
2111 1045 1046 1069 
2112 1069 1046 1070 
2113 1046 1047 1070 
2114 1070 1047 1071 
2115 1047 1048 1071 
2116 1071 1048 1072 
2117 1048 1073 1072 
2118 1048 1049 1073 
2119 1049 1074 1073 
2120 1049 1050 1074 
2121 1050 1075 1074 
2122 1050 1051 1075 
2123 1051 1076 1075 
2124 1051 1052 1076 
2125 1052 1077 1076 
2126 1052 1053 1077 
2127 1053 1078 1077 
2128 1053 1054 1078 
2129 1054 1055 1078 
2130 1078 1055 1079 
2131 1055 1056 1079 
2132 1079 1056 1080 
2133 1056 1057 1080 
2134 1080 1057 1081 
2135 1057 1058 1081 
2136 1081 1058 1082 
2137 1058 1059 1082 
2138 1082 1059 1083 
2139 1059 1060 1083 
2140 1083 1060 1084 
2141 1060 1085 1084 
2142 1060 1061 1085 
2143 1061 1086 1085 
2144 1061 1062 1086 
2145 1062 1087 1086 
2146 1062 1063 1087 
2147 1063 1088 1087 
2148 1063 1064 1088 
2149 1064 1089 1088 
2150 1064 1065 1089 
2151 1065 1066 1089 
2152 1065 1042 1066 
2153 1066 1067 1090 
2154 1090 1067 1091 
2155 1067 1068 1091 
2156 1091 1068 1092 
2157 1068 1069 1092 
2158 1092 1069 1093 
2159 1069 1070 1093 
2160 1093 1070 1094 
2161 1070 1071 1094 
2162 1094 1071 1095 
2163 1071 1072 1095 
2164 1095 1072 1096 
2165 1072 1097 1096 
2166 1072 1073 1097 
2167 1073 1098 1097 
2168 1073 1074 1098 
2169 1074 1099 1098 
2170 1074 1075 1099 
2171 1075 1100 1099 
2172 1075 1076 1100 
2173 1076 1101 1100 
2174 1076 1077 1101 
2175 1077 1102 1101 
2176 1077 1078 1102 
2177 1078 1079 1102 
2178 1102 1079 1103 
2179 1079 1080 1103 
2180 1103 1080 1104 
2181 1080 1081 1104 
2182 1104 1081 1105 
2183 1081 1082 1105 
2184 1105 1082 1106 
2185 1082 1083 1106 
2186 1106 1083 1107 
2187 1083 1084 1107 
2188 1107 1084 1108 
2189 1084 1109 1108 
2190 1084 1085 1109 
2191 1085 1110 1109 
2192 1085 1086 1110 
2193 1086 1111 1110 
2194 1086 1087 1111 
2195 1087 1112 1111 
2196 1087 1088 1112 
2197 1088 1113 1112 
2198 1088 1089 1113 
2199 1089 1090 1113 
2200 1089 1066 1090 
2201 1090 1091 1114 
2202 1114 1091 1115 
2203 1091 1092 1115 
2204 1115 1092 1116 
2205 1092 1093 1116 
2206 1116 1093 1117 
2207 1093 1094 1117 
2208 1117 1094 1118 
2209 1094 1095 1118 
2210 1118 1095 1119 
2211 1095 1096 1119 
2212 1119 1096 1120 
2213 1096 1121 1120 
2214 1096 1097 1121 
2215 1097 1122 1121 
2216 1097 1098 1122 
2217 1098 1123 1122 
2218 1098 1099 1123 
2219 1099 1124 1123 
2220 1099 1100 1124 
2221 1100 1125 1124 
2222 1100 1101 1125 
2223 1101 1126 1125 
2224 1101 1102 1126 
2225 1102 1103 1126 
2226 1126 1103 1127 
2227 1103 1104 1127 
2228 1127 1104 1128 
2229 1104 1105 1128 
2230 1128 1105 1129 
2231 1105 1106 1129 
2232 1129 1106 1130 
2233 1106 1107 1130 
2234 1130 1107 1131 
2235 1107 1108 1131 
2236 1131 1108 1132 
2237 1108 1133 1132 
2238 1108 1109 1133 
2239 1109 1134 1133 
2240 1109 1110 1134 
2241 1110 1135 1134 
2242 1110 1111 1135 
2243 1111 1136 1135 
2244 1111 1112 1136 
2245 1112 1137 1136 
2246 1112 1113 1137 
2247 1113 1114 1137 
2248 1113 1090 1114 
2249 1114 1115 1138 
2250 1138 1115 1139 
2251 1115 1116 1139 
2252 1139 1116 1140 
2253 1116 1117 1140 
2254 1140 1117 1141 
2255 1117 1118 1141 
2256 1141 1118 1142 
2257 1118 1119 1142 
2258 1142 1119 1143 
2259 1119 1120 1143 
2260 1143 1120 1144 
2261 1120 1145 1144 
2262 1120 1121 1145 
2263 1121 1146 1145 
2264 1121 1122 1146 
2265 1122 1147 1146 
2266 1122 1123 1147 
2267 1123 1148 1147 
2268 1123 1124 1148 
2269 1124 1149 1148 
2270 1124 1125 1149 
2271 1125 1150 1149 
2272 1125 1126 1150 
2273 1126 1127 1150 
2274 1150 1127 1151 
2275 1127 1128 1151 
2276 1151 1128 1152 
2277 1128 1129 1152 
2278 1152 1129 1153 
2279 1129 1130 1153 
2280 1153 1130 1154 
2281 1130 1131 1154 
2282 1154 1131 1155 
2283 1131 1132 1155 
2284 1155 1132 1156 
2285 1132 1157 1156 
2286 1132 1133 1157 
2287 1133 1158 1157 
2288 1133 1134 1158 
2289 1134 1159 1158 
2290 1134 1135 1159 
2291 1135 1160 1159 
2292 1135 1136 1160 
2293 1136 1161 1160 
2294 1136 1137 1161 
2295 1137 1138 1161 
2296 1137 1114 1138 
2297 1138 1139 1162 
2298 1139 1163 1162 
2299 1139 1140 1163 
2300 1140 1164 1163 
2301 1140 1141 1164 
2302 1141 1165 1164 
2303 1141 1142 1165 
2304 1142 1166 1165 
2305 1142 1143 1166 
2306 1143 1167 1166 
2307 1143 1144 1167 
2308 1144 1145 1167 
2309 1167 1145 1168 
2310 1145 1146 1168 
2311 1168 1146 1169 
2312 1146 1147 1169 
2313 1169 1147 1170 
2314 1147 1148 1170 
2315 1170 1148 1171 
2316 1148 1149 1171 
2317 1171 1149 1172 
2318 1149 1150 1172 
2319 1150 1151 1173 
2320 1151 1174 1173 
2321 1151 1152 1174 
2322 1152 1175 1174 
2323 1152 1153 1175 
2324 1153 1176 1175 
2325 1153 1154 1176 
2326 1154 1177 1176 
2327 1154 1155 1177 
2328 1155 1178 1177 
2329 1155 1156 1178 
2330 1156 1157 1178 
2331 1178 1157 1179 
2332 1157 1158 1179 
2333 1179 1158 1180 
2334 1158 1159 1180 
2335 1180 1159 1181 
2336 1159 1160 1181 
2337 1181 1160 1182 
2338 1160 1161 1182 
2339 1182 1161 1183 
2340 1161 1138 1183 
2341 1138 1162 1184 
2342 1162 1185 1184 
2343 1162 1163 1185 
2344 1163 1186 1185 
2345 1163 1164 1186 
2346 1164 1187 1186 
2347 1164 1165 1187 
2348 1165 1188 1187 
2349 1165 1166 1188 
2350 1166 1189 1188 
2351 1166 1167 1189 
2352 1167 1168 1189 
2353 1189 1168 1190 
2354 1168 1169 1190 
2355 1190 1169 1191 
2356 1169 1170 1191 
2357 1191 1170 1192 
2358 1170 1171 1192 
2359 1192 1171 1193 
2360 1171 1172 1193 
2361 1193 1172 1194 
2362 1172 1150 1194 
2363 1150 1173 1194 
2364 1173 1193 1194 
2365 1173 1174 1193 
2366 1174 1192 1193 
2367 1174 1175 1192 
2368 1175 1191 1192 
2369 1175 1176 1191 
2370 1176 1190 1191 
2371 1176 1177 1190 
2372 1177 1189 1190 
2373 1177 1178 1189 
2374 1178 1179 1189 
2375 1189 1179 1188 
2376 1179 1180 1188 
2377 1188 1180 1187 
2378 1180 1181 1187 
2379 1187 1181 1186 
2380 1181 1182 1186 
2381 1186 1182 1185 
2382 1182 1183 1185 
2383 1185 1183 1184 
2384 1183 1138 1184 
$EndElements
