$MeshFormat
4.1 0 8
$EndMeshFormat
$Entities
0 0 1 0
0 0 -30 -0.4876159627 10 30 0.7137387587 0 0 
$EndEntities
$Nodes
1 330 1 330
2 0 0 330
1
2
3
4
5
6
7
8
9
10
11
12
13
14
15
16
17
18
19
20
21
22
23
24
25
26
27
28
29
30
31
32
33
34
35
36
37
38
39
40
41
42
43
44
45
46
47
48
49
50
51
52
53
54
55
56
57
58
59
60
61
62
63
64
65
66
67
68
69
70
71
72
73
74
75
76
77
78
79
80
81
82
83
84
85
86
87
88
89
90
91
92
93
94
95
96
97
98
99
100
101
102
103
104
105
106
107
108
109
110
111
112
113
114
115
116
117
118
119
120
121
122
123
124
125
126
127
128
129
130
131
132
133
134
135
136
137
138
139
140
141
142
143
144
145
146
147
148
149
150
151
152
153
154
155
156
157
158
159
160
161
162
163
164
165
166
167
168
169
170
171
172
173
174
175
176
177
178
179
180
181
182
183
184
185
186
187
188
189
190
191
192
193
194
195
196
197
198
199
200
201
202
203
204
205
206
207
208
209
210
211
212
213
214
215
216
217
218
219
220
221
222
223
224
225
226
227
228
229
230
231
232
233
234
235
236
237
238
239
240
241
242
243
244
245
246
247
248
249
250
251
252
253
254
255
256
257
258
259
260
261
262
263
264
265
266
267
268
269
270
271
272
273
274
275
276
277
278
279
280
281
282
283
284
285
286
287
288
289
290
291
292
293
294
295
296
297
298
299
300
301
302
303
304
305
306
307
308
309
310
311
312
313
314
315
316
317
318
319
320
321
322
323
324
325
326
327
328
329
330
10 0 0
9.293566630700001 0 -0.0834244363
10 2.5 0
9.293384982799999 2.5 -0.0831300936
7.6624930067 0 -0.2509322151
7.6619348794 2.5 -0.250281605
4.9600505306 0 -0.4447830501
4.9589629107 2.5 -0.4446255248
2.2499765686 2.5 -0.4579012951
2.2516212183 0 -0.4551999617
0.6202190473 2.5 -0.2819212643
0.6221691882 0 -0.2784848306
0 2.5 0
0 0 0
0.4989901546 0 0.459160657
0.5073049332 2.5 0.4475407718
2.139094589 0 0.7137387587
2.1468271585 2.5 0.6948951924
4.8920254621 0 0.6220754867
4.8966065979 2.5 0.6071435917
7.6345115096 2.5 0.3273108328
7.6325766032 0 0.3349641
9.285351690100001 2.5 0.1066389473
9.2848030387 0 0.1090704586
10 5 0
9.293203334799999 5 -0.0828357508
7.6613767521 5 -0.2496309949
4.9578752908 5 -0.4444679995
2.248331919 5 -0.4606026285
0.6182689065 5 -0.2853576979
0 5 0
0.5156197119 5 0.4359208866
2.154559728 5 0.6760516261
4.9011877337 5 0.5922116967
7.6364464159 5 0.3196575656
9.2859003415 5 0.104207436
10 7.5 0
9.2930216869 7.5 -0.0825414081
7.6608186248 7.5 -0.2489803848
4.9567876709 7.5 -0.4443104742
2.2466872694 7.5 -0.4633039619
0.6163187657 7.5 -0.2887941316
0 7.5 0
0.5239344905 7.5 0.4243010014
2.1622922975 7.5 0.6572080597
4.9057688695 7.5 0.5772798017
7.6383813222 7.5 0.3120042984
9.2864489929 7.5 0.1017759247
10 10 0
9.2928400389 10 -0.08224706530000001
7.6602604975 10 -0.2483297747
4.955700051 10 -0.4441529489
2.2450426198 10 -0.4660052954
0.6143686249 10 -0.2922305652
0 10 0
0.5322492691 10 0.4126811162
2.1700248669 10 0.6383644934
4.9103500053 10 0.5623479067
7.6403162285 10 0.3043510313
9.2869976442 10 0.09934441350000001
10 12.5 0
9.2926583909 12.5 -0.0819527226
7.6597023702 12.5 -0.2476791646
4.9546124311 12.5 -0.4439954237
2.2433979701 12.5 -0.4687066288
0.612418484 12.5 -0.2956669989
0 12.5 0
0.5405640478 12.5 0.401061231
2.1777574364 12.5 0.6195209271
4.9149311411 12.5 0.5474160117
7.6422511348 12.5 0.2966977641
9.2875462956 12.5 0.0969129022
10 15 0
9.292476743 15 -0.0816583798
7.6591442429 15 -0.2470285545
4.9535248112 15 -0.4438378984
2.2417533205 15 -0.4714079622
0.6104683432 15 -0.2991034326
0 15 0
0.5488788264 15 0.3894413457
2.1854900059 15 0.6006773607
4.9195122769 15 0.5324841167
7.6441860412 15 0.2890444969
9.288094946999999 15 0.0944813909
10 17.5 0
9.292295095 17.5 -0.081364037
7.6585861156 17.5 -0.2463779444
4.9524371912 17.5 -0.4436803731
2.2401086709 17.5 -0.4741092956
0.6085182024 17.5 -0.3025398662
0 17.5 0
0.5571936051 17.5 0.3778214605
2.1932225754 17.5 0.5818337944
4.9240934127 17.5 0.5175522217
7.6461209475 17.5 0.2813912297
9.2886435984 17.5 0.0920498796
10 20 0
9.2921134471 20 -0.08106969429999999
7.6580279883 20 -0.2457273343
4.9513495713 20 -0.4435228478
2.2384640213 20 -0.4768106291
0.6065680616 20 -0.3059762999
0 20 0
0.5655083837 20 0.3662015753
2.2009551449 20 0.5629902281
4.9286745485 20 0.5026203267
7.6480558538 20 0.2737379626
9.289192249699999 20 0.0896183684
10 22.5 0
9.2919317991 22.5 -0.08077535149999999
7.657469861 22.5 -0.2450767242
4.9502619514 22.5 -0.4433653225
2.2368193717 22.5 -0.4795119625
0.6046179207 22.5 -0.3094127335
0 22.5 0
0.5738231623 22.5 0.3545816901
2.2086877143 22.5 0.5441466617
4.9332556843 22.5 0.4876884317
7.6499907601 22.5 0.2660846954
9.2897409011 22.5 0.0871868571
10 25 0
9.2917501512 25 -0.0804810088
7.6569117337 25 -0.2444261141
4.9491743315 25 -0.4432077973
2.235174722 25 -0.4822132959
0.6026677799 25 -0.3128491672
0 25 0
0.582137941 25 0.3429618049
2.2164202838 25 0.5253030954
4.9378368201 25 0.4727565367
7.6519256664 25 0.2584314282
9.290289552500001 25 0.08475534580000001
10 27.5 0
9.291568503200001 27.5 -0.080186666
7.6563536064 27.5 -0.243775504
4.9480867116 27.5 -0.443050272
2.2335300724 27.5 -0.4849146293
0.6007176391 27.5 -0.3162856008
0 27.5 0
0.5904527196 27.5 0.3313419197
2.2241528533 27.5 0.5064595291
4.9424179559 27.5 0.4578246417
7.6538605728 27.5 0.250778161
9.2908382039 27.5 0.0823238345
10 30 0
9.291386855200001 30 -0.0798923233
7.6557954791 30 -0.2431248938
4.9469990917 30 -0.4428927467
2.2318854228 30 -0.4876159627
0.5987674983 30 -0.3197220345
0 30 0
0.5987674983 30 0.3197220345
2.2318854228 30 0.4876159627
4.9469990917 30 0.4428927467
7.6557954791 30 0.2431248938
9.291386855200001 30 0.0798923233
9.291386855200001 30 -0.0399461616
7.6557954791 30 -0.1215624469
4.9469990917 30 -0.2214463734
2.2318854228 30 -0.2438079814
0.5987674983 30 -0.1598610172
0.5987674983 30 0.1598610172
2.2318854228 30 0.2438079814
4.9469990917 30 0.2214463734
7.6557954791 30 0.1215624469
9.291386855200001 30 0.0399461616
9.291386855200001 30 0
7.6557954791 30 0
4.9469990917 30 0
2.2318854228 30 -0
0.5987674983 30 -0
10 -2.5 0
9.293384982799999 -2.5 -0.0831300936
7.6619348794 -2.5 -0.250281605
4.9589629107 -2.5 -0.4446255248
2.2499765686 -2.5 -0.4579012951
0.6202190473 -2.5 -0.2819212643
0 -2.5 0
0.5073049332 -2.5 0.4475407718
2.1468271585 -2.5 0.6948951924
4.8966065979 -2.5 0.6071435917
7.6345115096 -2.5 0.3273108328
9.285351690100001 -2.5 0.1066389473
10 -5 0
9.293203334799999 -5 -0.0828357508
7.6613767521 -5 -0.2496309949
4.9578752908 -5 -0.4444679995
2.248331919 -5 -0.4606026285
0.6182689065 -5 -0.2853576979
0 -5 0
0.5156197119 -5 0.4359208866
2.154559728 -5 0.6760516261
4.9011877337 -5 0.5922116967
7.6364464159 -5 0.3196575656
9.2859003415 -5 0.104207436
10 -7.5 0
9.2930216869 -7.5 -0.0825414081
7.6608186248 -7.5 -0.2489803848
4.9567876709 -7.5 -0.4443104742
2.2466872694 -7.5 -0.4633039619
0.6163187657 -7.5 -0.2887941316
0 -7.5 0
0.5239344905 -7.5 0.4243010014
2.1622922975 -7.5 0.6572080597
4.9057688695 -7.5 0.5772798017
7.6383813222 -7.5 0.3120042984
9.2864489929 -7.5 0.1017759247
10 -10 0
9.2928400389 -10 -0.08224706530000001
7.6602604975 -10 -0.2483297747
4.955700051 -10 -0.4441529489
2.2450426198 -10 -0.4660052954
0.6143686249 -10 -0.2922305652
0 -10 0
0.5322492691 -10 0.4126811162
2.1700248669 -10 0.6383644934
4.9103500053 -10 0.5623479067
7.6403162285 -10 0.3043510313
9.2869976442 -10 0.09934441350000001
10 -12.5 0
9.2926583909 -12.5 -0.0819527226
7.6597023702 -12.5 -0.2476791646
4.9546124311 -12.5 -0.4439954237
2.2433979701 -12.5 -0.4687066288
0.612418484 -12.5 -0.2956669989
0 -12.5 0
0.5405640478 -12.5 0.401061231
2.1777574364 -12.5 0.6195209271
4.9149311411 -12.5 0.5474160117
7.6422511348 -12.5 0.2966977641
9.2875462956 -12.5 0.0969129022
10 -15 0
9.292476743 -15 -0.0816583798
7.6591442429 -15 -0.2470285545
4.9535248112 -15 -0.4438378984
2.2417533205 -15 -0.4714079622
0.6104683432 -15 -0.2991034326
0 -15 0
0.5488788264 -15 0.3894413457
2.1854900059 -15 0.6006773607
4.9195122769 -15 0.5324841167
7.6441860412 -15 0.2890444969
9.288094946999999 -15 0.0944813909
10 -17.5 0
9.292295095 -17.5 -0.081364037
7.6585861156 -17.5 -0.2463779444
4.9524371912 -17.5 -0.4436803731
2.2401086709 -17.5 -0.4741092956
0.6085182024 -17.5 -0.3025398662
0 -17.5 0
0.5571936051 -17.5 0.3778214605
2.1932225754 -17.5 0.5818337944
4.9240934127 -17.5 0.5175522217
7.6461209475 -17.5 0.2813912297
9.2886435984 -17.5 0.0920498796
10 -20 0
9.2921134471 -20 -0.08106969429999999
7.6580279883 -20 -0.2457273343
4.9513495713 -20 -0.4435228478
2.2384640213 -20 -0.4768106291
0.6065680616 -20 -0.3059762999
0 -20 0
0.5655083837 -20 0.3662015753
2.2009551449 -20 0.5629902281
4.9286745485 -20 0.5026203267
7.6480558538 -20 0.2737379626
9.289192249699999 -20 0.0896183684
10 -22.5 0
9.2919317991 -22.5 -0.08077535149999999
7.657469861 -22.5 -0.2450767242
4.9502619514 -22.5 -0.4433653225
2.2368193717 -22.5 -0.4795119625
0.6046179207 -22.5 -0.3094127335
0 -22.5 0
0.5738231623 -22.5 0.3545816901
2.2086877143 -22.5 0.5441466617
4.9332556843 -22.5 0.4876884317
7.6499907601 -22.5 0.2660846954
9.2897409011 -22.5 0.0871868571
10 -25 0
9.2917501512 -25 -0.0804810088
7.6569117337 -25 -0.2444261141
4.9491743315 -25 -0.4432077973
2.235174722 -25 -0.4822132959
0.6026677799 -25 -0.3128491672
0 -25 0
0.582137941 -25 0.3429618049
2.2164202838 -25 0.5253030954
4.9378368201 -25 0.4727565367
7.6519256664 -25 0.2584314282
9.290289552500001 -25 0.08475534580000001
10 -27.5 0
9.291568503200001 -27.5 -0.080186666
7.6563536064 -27.5 -0.243775504
4.9480867116 -27.5 -0.443050272
2.2335300724 -27.5 -0.4849146293
0.6007176391 -27.5 -0.3162856008
0 -27.5 0
0.5904527196 -27.5 0.3313419197
2.2241528533 -27.5 0.5064595291
4.9424179559 -27.5 0.4578246417
7.6538605728 -27.5 0.250778161
9.2908382039 -27.5 0.0823238345
10 -30 0
9.291386855200001 -30 -0.0798923233
7.6557954791 -30 -0.2431248938
4.9469990917 -30 -0.4428927467
2.2318854228 -30 -0.4876159627
0.5987674983 -30 -0.3197220345
0 -30 0
0.5987674983 -30 0.3197220345
2.2318854228 -30 0.4876159627
4.9469990917 -30 0.4428927467
7.6557954791 -30 0.2431248938
9.291386855200001 -30 0.0798923233
9.291386855200001 -30 -0.0399461616
7.6557954791 -30 -0.1215624469
4.9469990917 -30 -0.2214463734
2.2318854228 -30 -0.2438079814
0.5987674983 -30 -0.1598610172
0.5987674983 -30 0.1598610172
2.2318854228 -30 0.2438079814
4.9469990917 -30 0.2214463734
7.6557954791 -30 0.1215624469
9.291386855200001 -30 0.0399461616
9.291386855200001 -30 0
7.6557954791 -30 0
4.9469990917 -30 0
2.2318854228 -30 -0
0.5987674983 -30 -0
$EndNodes
$Elements
1 656 1 656
2 0 2 656
1 1 3 2 
2 3 4 2 
3 2 4 5 
4 4 6 5 
5 5 6 7 
6 6 8 7 
7 7 8 9 
8 7 9 10 
9 10 9 11 
10 10 11 12 
11 12 11 13 
12 12 13 14 
13 14 13 15 
14 13 16 15 
15 15 16 17 
16 16 18 17 
17 17 18 19 
18 18 20 19 
19 19 20 21 
20 19 21 22 
21 22 21 23 
22 22 23 24 
23 24 23 3 
24 24 3 1 
25 3 25 4 
26 25 26 4 
27 4 26 6 
28 26 27 6 
29 6 27 8 
30 27 28 8 
31 8 28 29 
32 8 29 9 
33 9 29 30 
34 9 30 11 
35 11 30 31 
36 11 31 13 
37 13 31 16 
38 31 32 16 
39 16 32 18 
40 32 33 18 
41 18 33 20 
42 33 34 20 
43 20 34 35 
44 20 35 21 
45 21 35 36 
46 21 36 23 
47 23 36 25 
48 23 25 3 
49 25 37 26 
50 37 38 26 
51 26 38 27 
52 38 39 27 
53 27 39 28 
54 39 40 28 
55 28 40 41 
56 28 41 29 
57 29 41 42 
58 29 42 30 
59 30 42 43 
60 30 43 31 
61 31 43 32 
62 43 44 32 
63 32 44 33 
64 44 45 33 
65 33 45 34 
66 45 46 34 
67 34 46 47 
68 34 47 35 
69 35 47 48 
70 35 48 36 
71 36 48 37 
72 36 37 25 
73 37 49 38 
74 49 50 38 
75 38 50 39 
76 50 51 39 
77 39 51 40 
78 51 52 40 
79 40 52 53 
80 40 53 41 
81 41 53 54 
82 41 54 42 
83 42 54 55 
84 42 55 43 
85 43 55 44 
86 55 56 44 
87 44 56 45 
88 56 57 45 
89 45 57 46 
90 57 58 46 
91 46 58 59 
92 46 59 47 
93 47 59 60 
94 47 60 48 
95 48 60 49 
96 48 49 37 
97 49 61 50 
98 61 62 50 
99 50 62 51 
100 62 63 51 
101 51 63 52 
102 63 64 52 
103 52 64 65 
104 52 65 53 
105 53 65 66 
106 53 66 54 
107 54 66 67 
108 54 67 55 
109 55 67 56 
110 67 68 56 
111 56 68 57 
112 68 69 57 
113 57 69 58 
114 69 70 58 
115 58 70 71 
116 58 71 59 
117 59 71 72 
118 59 72 60 
119 60 72 61 
120 60 61 49 
121 61 73 62 
122 73 74 62 
123 62 74 63 
124 74 75 63 
125 63 75 64 
126 75 76 64 
127 64 76 77 
128 64 77 65 
129 65 77 78 
130 65 78 66 
131 66 78 79 
132 66 79 67 
133 67 79 68 
134 79 80 68 
135 68 80 69 
136 80 81 69 
137 69 81 70 
138 81 82 70 
139 70 82 83 
140 70 83 71 
141 71 83 84 
142 71 84 72 
143 72 84 73 
144 72 73 61 
145 73 85 74 
146 85 86 74 
147 74 86 75 
148 86 87 75 
149 75 87 76 
150 87 88 76 
151 76 88 89 
152 76 89 77 
153 77 89 90 
154 77 90 78 
155 78 90 91 
156 78 91 79 
157 79 91 80 
158 91 92 80 
159 80 92 81 
160 92 93 81 
161 81 93 82 
162 93 94 82 
163 82 94 95 
164 82 95 83 
165 83 95 96 
166 83 96 84 
167 84 96 85 
168 84 85 73 
169 85 97 86 
170 97 98 86 
171 86 98 87 
172 98 99 87 
173 87 99 88 
174 99 100 88 
175 88 100 101 
176 88 101 89 
177 89 101 102 
178 89 102 90 
179 90 102 103 
180 90 103 91 
181 91 103 92 
182 103 104 92 
183 92 104 93 
184 104 105 93 
185 93 105 94 
186 105 106 94 
187 94 106 107 
188 94 107 95 
189 95 107 108 
190 95 108 96 
191 96 108 97 
192 96 97 85 
193 97 109 98 
194 109 110 98 
195 98 110 99 
196 110 111 99 
197 99 111 100 
198 111 112 100 
199 100 112 113 
200 100 113 101 
201 101 113 114 
202 101 114 102 
203 102 114 115 
204 102 115 103 
205 103 115 104 
206 115 116 104 
207 104 116 105 
208 116 117 105 
209 105 117 106 
210 117 118 106 
211 106 118 119 
212 106 119 107 
213 107 119 120 
214 107 120 108 
215 108 120 109 
216 108 109 97 
217 109 121 110 
218 121 122 110 
219 110 122 111 
220 122 123 111 
221 111 123 112 
222 123 124 112 
223 112 124 125 
224 112 125 113 
225 113 125 126 
226 113 126 114 
227 114 126 127 
228 114 127 115 
229 115 127 116 
230 127 128 116 
231 116 128 117 
232 128 129 117 
233 117 129 118 
234 129 130 118 
235 118 130 131 
236 118 131 119 
237 119 131 132 
238 119 132 120 
239 120 132 121 
240 120 121 109 
241 121 133 122 
242 133 134 122 
243 122 134 123 
244 134 135 123 
245 123 135 124 
246 135 136 124 
247 124 136 137 
248 124 137 125 
249 125 137 138 
250 125 138 126 
251 126 138 139 
252 126 139 127 
253 127 139 128 
254 139 140 128 
255 128 140 129 
256 140 141 129 
257 129 141 130 
258 141 142 130 
259 130 142 143 
260 130 143 131 
261 131 143 144 
262 131 144 132 
263 132 144 133 
264 132 133 121 
265 133 145 134 
266 145 146 134 
267 134 146 135 
268 146 147 135 
269 135 147 136 
270 147 148 136 
271 136 148 149 
272 136 149 137 
273 137 149 150 
274 137 150 138 
275 138 150 151 
276 138 151 139 
277 139 151 140 
278 151 152 140 
279 140 152 141 
280 152 153 141 
281 141 153 142 
282 153 154 142 
283 142 154 155 
284 142 155 143 
285 143 155 156 
286 143 156 144 
287 144 156 145 
288 144 145 133 
289 145 157 146 
290 146 157 158 
291 146 158 147 
292 147 158 159 
293 147 159 148 
294 148 159 149 
295 159 160 149 
296 149 160 150 
297 160 161 150 
298 150 161 151 
299 151 162 152 
300 152 162 163 
301 152 163 153 
302 153 163 164 
303 153 164 154 
304 154 164 155 
305 164 165 155 
306 155 165 156 
307 165 166 156 
308 156 166 145 
309 145 167 157 
310 157 167 168 
311 157 168 158 
312 158 168 169 
313 158 169 159 
314 159 169 160 
315 169 170 160 
316 160 170 161 
317 170 171 161 
318 161 171 151 
319 151 171 162 
320 162 171 170 
321 162 170 163 
322 163 170 169 
323 163 169 164 
324 164 169 165 
325 169 168 165 
326 165 168 166 
327 168 167 166 
328 166 167 145 
329 1 2 172 
330 172 2 173 
331 2 5 173 
332 173 5 174 
333 5 7 174 
334 174 7 175 
335 7 176 175 
336 7 10 176 
337 10 177 176 
338 10 12 177 
339 12 178 177 
340 12 14 178 
341 14 15 178 
342 178 15 179 
343 15 17 179 
344 179 17 180 
345 17 19 180 
346 180 19 181 
347 19 182 181 
348 19 22 182 
349 22 183 182 
350 22 24 183 
351 24 172 183 
352 24 1 172 
353 172 173 184 
354 184 173 185 
355 173 174 185 
356 185 174 186 
357 174 175 186 
358 186 175 187 
359 175 188 187 
360 175 176 188 
361 176 189 188 
362 176 177 189 
363 177 190 189 
364 177 178 190 
365 178 179 190 
366 190 179 191 
367 179 180 191 
368 191 180 192 
369 180 181 192 
370 192 181 193 
371 181 194 193 
372 181 182 194 
373 182 195 194 
374 182 183 195 
375 183 184 195 
376 183 172 184 
377 184 185 196 
378 196 185 197 
379 185 186 197 
380 197 186 198 
381 186 187 198 
382 198 187 199 
383 187 200 199 
384 187 188 200 
385 188 201 200 
386 188 189 201 
387 189 202 201 
388 189 190 202 
389 190 191 202 
390 202 191 203 
391 191 192 203 
392 203 192 204 
393 192 193 204 
394 204 193 205 
395 193 206 205 
396 193 194 206 
397 194 207 206 
398 194 195 207 
399 195 196 207 
400 195 184 196 
401 196 197 208 
402 208 197 209 
403 197 198 209 
404 209 198 210 
405 198 199 210 
406 210 199 211 
407 199 212 211 
408 199 200 212 
409 200 213 212 
410 200 201 213 
411 201 214 213 
412 201 202 214 
413 202 203 214 
414 214 203 215 
415 203 204 215 
416 215 204 216 
417 204 205 216 
418 216 205 217 
419 205 218 217 
420 205 206 218 
421 206 219 218 
422 206 207 219 
423 207 208 219 
424 207 196 208 
425 208 209 220 
426 220 209 221 
427 209 210 221 
428 221 210 222 
429 210 211 222 
430 222 211 223 
431 211 224 223 
432 211 212 224 
433 212 225 224 
434 212 213 225 
435 213 226 225 
436 213 214 226 
437 214 215 226 
438 226 215 227 
439 215 216 227 
440 227 216 228 
441 216 217 228 
442 228 217 229 
443 217 230 229 
444 217 218 230 
445 218 231 230 
446 218 219 231 
447 219 220 231 
448 219 208 220 
449 220 221 232 
450 232 221 233 
451 221 222 233 
452 233 222 234 
453 222 223 234 
454 234 223 235 
455 223 236 235 
456 223 224 236 
457 224 237 236 
458 224 225 237 
459 225 238 237 
460 225 226 238 
461 226 227 238 
462 238 227 239 
463 227 228 239 
464 239 228 240 
465 228 229 240 
466 240 229 241 
467 229 242 241 
468 229 230 242 
469 230 243 242 
470 230 231 243 
471 231 232 243 
472 231 220 232 
473 232 233 244 
474 244 233 245 
475 233 234 245 
476 245 234 246 
477 234 235 246 
478 246 235 247 
479 235 248 247 
480 235 236 248 
481 236 249 248 
482 236 237 249 
483 237 250 249 
484 237 238 250 
485 238 239 250 
486 250 239 251 
487 239 240 251 
488 251 240 252 
489 240 241 252 
490 252 241 253 
491 241 254 253 
492 241 242 254 
493 242 255 254 
494 242 243 255 
495 243 244 255 
496 243 232 244 
497 244 245 256 
498 256 245 257 
499 245 246 257 
500 257 246 258 
501 246 247 258 
502 258 247 259 
503 247 260 259 
504 247 248 260 
505 248 261 260 
506 248 249 261 
507 249 262 261 
508 249 250 262 
509 250 251 262 
510 262 251 263 
511 251 252 263 
512 263 252 264 
513 252 253 264 
514 264 253 265 
515 253 266 265 
516 253 254 266 
517 254 267 266 
518 254 255 267 
519 255 256 267 
520 255 244 256 
521 256 257 268 
522 268 257 269 
523 257 258 269 
524 269 258 270 
525 258 259 270 
526 270 259 271 
527 259 272 271 
528 259 260 272 
529 260 273 272 
530 260 261 273 
531 261 274 273 
532 261 262 274 
533 262 263 274 
534 274 263 275 
535 263 264 275 
536 275 264 276 
537 264 265 276 
538 276 265 277 
539 265 278 277 
540 265 266 278 
541 266 279 278 
542 266 267 279 
543 267 268 279 
544 267 256 268 
545 268 269 280 
546 280 269 281 
547 269 270 281 
548 281 270 282 
549 270 271 282 
550 282 271 283 
551 271 284 283 
552 271 272 284 
553 272 285 284 
554 272 273 285 
555 273 286 285 
556 273 274 286 
557 274 275 286 
558 286 275 287 
559 275 276 287 
560 287 276 288 
561 276 277 288 
562 288 277 289 
563 277 290 289 
564 277 278 290 
565 278 291 290 
566 278 279 291 
567 279 280 291 
568 279 268 280 
569 280 281 292 
570 292 281 293 
571 281 282 293 
572 293 282 294 
573 282 283 294 
574 294 283 295 
575 283 296 295 
576 283 284 296 
577 284 297 296 
578 284 285 297 
579 285 298 297 
580 285 286 298 
581 286 287 298 
582 298 287 299 
583 287 288 299 
584 299 288 300 
585 288 289 300 
586 300 289 301 
587 289 302 301 
588 289 290 302 
589 290 303 302 
590 290 291 303 
591 291 292 303 
592 291 280 292 
593 292 293 304 
594 304 293 305 
595 293 294 305 
596 305 294 306 
597 294 295 306 
598 306 295 307 
599 295 308 307 
600 295 296 308 
601 296 309 308 
602 296 297 309 
603 297 310 309 
604 297 298 310 
605 298 299 310 
606 310 299 311 
607 299 300 311 
608 311 300 312 
609 300 301 312 
610 312 301 313 
611 301 314 313 
612 301 302 314 
613 302 315 314 
614 302 303 315 
615 303 304 315 
616 303 292 304 
617 304 305 316 
618 305 317 316 
619 305 306 317 
620 306 318 317 
621 306 307 318 
622 307 308 318 
623 318 308 319 
624 308 309 319 
625 319 309 320 
626 309 310 320 
627 310 311 321 
628 311 322 321 
629 311 312 322 
630 312 323 322 
631 312 313 323 
632 313 314 323 
633 323 314 324 
634 314 315 324 
635 324 315 325 
636 315 304 325 
637 304 316 326 
638 316 327 326 
639 316 317 327 
640 317 328 327 
641 317 318 328 
642 318 319 328 
643 328 319 329 
644 319 320 329 
645 329 320 330 
646 320 310 330 
647 310 321 330 
648 321 329 330 
649 321 322 329 
650 322 328 329 
651 322 323 328 
652 323 324 328 
653 328 324 327 
654 324 325 327 
655 327 325 326 
656 325 304 326 
$EndElements
