$MeshFormat
4.1 0 8
$EndMeshFormat
$Entities
0 0 1 0
0 0 -30.4860385619 -0.4876159627 10 30.4860385619 0.7137387587 0 0 
$EndEntities
$Nodes
1 306 1 306
2 0 0 306
1
2
3
4
5
6
7
8
9
10
11
12
13
14
15
16
17
18
19
20
21
22
23
24
25
26
27
28
29
30
31
32
33
34
35
36
37
38
39
40
41
42
43
44
45
46
47
48
49
50
51
52
53
54
55
56
57
58
59
60
61
62
63
64
65
66
67
68
69
70
71
72
73
74
75
76
77
78
79
80
81
82
83
84
85
86
87
88
89
90
91
92
93
94
95
96
97
98
99
100
101
102
103
104
105
106
107
108
109
110
111
112
113
114
115
116
117
118
119
120
121
122
123
124
125
126
127
128
129
130
131
132
133
134
135
136
137
138
139
140
141
142
143
144
145
146
147
148
149
150
151
152
153
154
155
156
157
158
159
160
161
162
163
164
165
166
167
168
169
170
171
172
173
174
175
176
177
178
179
180
181
182
183
184
185
186
187
188
189
190
191
192
193
194
195
196
197
198
199
200
201
202
203
204
205
206
207
208
209
210
211
212
213
214
215
216
217
218
219
220
221
222
223
224
225
226
227
228
229
230
231
232
233
234
235
236
237
238
239
240
241
242
243
244
245
246
247
248
249
250
251
252
253
254
255
256
257
258
259
260
261
262
263
264
265
266
267
268
269
270
271
272
273
274
275
276
277
278
279
280
281
282
283
284
285
286
287
288
289
290
291
292
293
294
295
296
297
298
299
300
301
302
303
304
305
306
10 0 0
9.293566630700001 0 -0.0834244363
10 2.7272727273 0
9.293368469300001 2.7272727273 -0.0831033352
7.6624930067 0 -0.2509322151
7.6618841406 2.7272727273 -0.2502224587
4.9600505306 0 -0.4447830501
4.9588640362 2.7272727273 -0.4446112043
2.249827055 2.7272727273 -0.4581468709
2.2516212183 0 -0.4551999617
0.6200417618 2.7272727273 -0.2822336673
0.6221691882 0 -0.2784848306
0 2.7272727273 0
0 0 0
0.4989901546 0 0.459160657
0.5080608222 2.7272727273 0.4464844186
2.139094589 0 0.7137387587
2.1475301194 2.7272727273 0.6931821409
4.8920254621 0 0.6220754867
4.8970230648 2.7272727273 0.6057861467
7.6346874101 2.7272727273 0.3266150812
7.6325766032 0 0.3349641
9.285401567499999 2.7272727273 0.1064179008
9.2848030387 0 0.1090704586
10 5.4545454545 0
9.293170307900001 5.4545454545 -0.082782234
7.6612752744 5.4545454545 -0.2495127022
4.9576775417 5.4545454545 -0.4444393585
2.2480328918 5.4545454545 -0.4610937801
0.6179143354 5.4545454545 -0.2859825041
0 5.4545454545 0
0.5171314898 5.4545454545 0.4338081802
2.1559656497 5.4545454545 0.6726255231
4.9020206675 5.4545454545 0.5894968067
7.636798217 5.4545454545 0.3182660625
9.2860000963 5.4545454545 0.103765343
10 8.181818181800001 0
9.2929721465 8.181818181800001 -0.0824611328
7.6606664083 8.181818181800001 -0.2488029457
4.9564910473 8.181818181800001 -0.4442675128
2.2462387286 8.181818181800001 -0.4640406892
0.6157869091 8.181818181800001 -0.2897313408
0 8.181818181800001 0
0.5262021574 8.181818181800001 0.4211319418
2.1644011801 8.181818181800001 0.6520689052999999
4.9070182702 8.181818181800001 0.5732074667
7.6389090239 8.181818181800001 0.3099170438
9.286598625 8.181818181800001 0.1011127853
10 10.9090909091 0
9.2927739851 10.9090909091 -0.0821400316
7.6600575421 10.9090909091 -0.2480931892
4.9553045528 10.9090909091 -0.444095667
2.2444445654 10.9090909091 -0.4669875984
0.6136594827 10.9090909091 -0.2934801775
0 10.9090909091 0
0.535272825 10.9090909091 0.4084557034
2.1728367104 10.9090909091 0.6315122875
4.9120158729 10.9090909091 0.5569181267
7.6410198308 10.9090909091 0.301568025
9.287197153799999 10.9090909091 0.0984602275
10 13.6363636364 0
9.2925758237 13.6363636364 -0.0818189304
7.659448676 13.6363636364 -0.2473834327
4.9541180584 13.6363636364 -0.4439238213
2.2426504021 13.6363636364 -0.4699345076
0.6115320564 13.6363636364 -0.2972290142
0 13.6363636364 0
0.5443434926 13.6363636364 0.395779465
2.1812722407 13.6363636364 0.6109556696
4.9170134755 13.6363636364 0.5406287867
7.6431306377 13.6363636364 0.2932190063
9.287795682600001 13.6363636364 0.09580766979999999
10 16.3636363636 0
9.2923776623 16.3636363636 -0.0814978292
7.6588398098 16.3636363636 -0.2466736763
4.9529315639 16.3636363636 -0.4437519755
2.2408562389 16.3636363636 -0.4728814168
0.60940463 16.3636363636 -0.3009778509
0 16.3636363636 0
0.5534141602 16.3636363636 0.3831032265
2.1897077711 16.3636363636 0.5903990518
4.9220110782 16.3636363636 0.5243394467
7.6452414446 16.3636363636 0.2848699875
9.2883942114 16.3636363636 0.093155112
10 19.0909090909 0
9.2921795009 19.0909090909 -0.081176728
7.6582309437 19.0909090909 -0.2459639198
4.9517450695 19.0909090909 -0.4435801297
2.2390620757 19.0909090909 -0.475828326
0.6072772037 19.0909090909 -0.3047266876
0 19.0909090909 0
0.5624848278 19.0909090909 0.3704269881
2.1981433014 19.0909090909 0.569842434
4.9270086809 19.0909090909 0.5080501066999999
7.6473522515 19.0909090909 0.2765209688
9.288992740099999 19.0909090909 0.0905025543
10 21.8181818182 0
9.291981339499999 21.8181818182 -0.0808556268
7.6576220775 21.8181818182 -0.2452541633
4.950558575 21.8181818182 -0.443408284
2.2372679125 21.8181818182 -0.4787752352
0.6051497773 21.8181818182 -0.3084755243
0 21.8181818182 0
0.5715554953999999 21.8181818182 0.3577507497
2.2065788318 21.8181818182 0.5492858162000001
4.9320062836 21.8181818182 0.4917607667
7.6494630584 21.8181818182 0.2681719501
9.289591268900001 21.8181818182 0.0878499965
10 24.5454545455 0
9.291783178099999 24.5454545455 -0.0805345256
7.6570132114 24.5454545455 -0.2445444068
4.9493720806 24.5454545455 -0.4432364382
2.2354737492 24.5454545455 -0.4817221444
0.603022351 24.5454545455 -0.312224361
0 24.5454545455 0
0.5806261631 24.5454545455 0.3450745113
2.2150143621 24.5454545455 0.5287291984
4.9370038863 24.5454545455 0.4754714267
7.6515738653 24.5454545455 0.2598229313
9.2901897977 24.5454545455 0.0851974388
10 27.2727272727 0
9.291585016599999 27.2727272727 -0.08021342450000001
7.6564043452 27.2727272727 -0.2438346503
4.9481855861 27.2727272727 -0.4430645925
2.233679586 27.2727272727 -0.4846690536
0.6008949246 27.2727272727 -0.3159731978
0 27.2727272727 0
0.5896968307 27.2727272727 0.3323982729
2.2234498924 27.2727272727 0.5081725806
4.942001489 27.2727272727 0.4591820867
7.6536846722 27.2727272727 0.2514739126
9.2907883265 27.2727272727 0.082544881
10 30 0
9.291386855200001 30 -0.0798923233
7.6557954791 30 -0.2431248938
4.9469990917 30 -0.4428927467
2.2318854228 30 -0.4876159627
0.5987674983 30 -0.3197220345
0 30 0
0.5987674983 30 0.3197220345
2.2318854228 30 0.4876159627
4.9469990917 30 0.4428927467
7.6557954791 30 0.2431248938
9.291386855200001 30 0.0798923233
9.291389072999999 30.0564463783 -0.0564923694
7.6558179694 30.171618314 -0.1719805801
4.9471135539 30.3122474771 -0.3135625306
2.2321150688 30.3437103848 -0.3456551064
0.5989190948999999 30.2256941125 -0.2265282582
0.5991904789 30.2256931156 0.2251690094
2.2324927356 30.3437071236 0.3426930935
4.947320958 30.3122457009 0.3117172503
7.655868628 30.1716180594 0.1714949814
9.291395126299999 30.0564463645 0.0564320893
9.2913942729 30.079838247 -4.26301e-05
7.6558631097 30.2427175152 -0.0003433878
4.9473076033 30.4415558593 -0.001304729
2.2324771946 30.4860385619 -0.0020942913
0.5991738085 30.3191968038 -0.0009611877
10 -2.7272727273 0
9.293368469300001 -2.7272727273 -0.0831033352
7.6618841406 -2.7272727273 -0.2502224587
4.9588640362 -2.7272727273 -0.4446112043
2.249827055 -2.7272727273 -0.4581468709
0.6200417618 -2.7272727273 -0.2822336673
0 -2.7272727273 0
0.5080608222 -2.7272727273 0.4464844186
2.1475301194 -2.7272727273 0.6931821409
4.8970230648 -2.7272727273 0.6057861467
7.6346874101 -2.7272727273 0.3266150812
9.285401567499999 -2.7272727273 0.1064179008
10 -5.4545454545 0
9.293170307900001 -5.4545454545 -0.082782234
7.6612752744 -5.4545454545 -0.2495127022
4.9576775417 -5.4545454545 -0.4444393585
2.2480328918 -5.4545454545 -0.4610937801
0.6179143354 -5.4545454545 -0.2859825041
0 -5.4545454545 0
0.5171314898 -5.4545454545 0.4338081802
2.1559656497 -5.4545454545 0.6726255231
4.9020206675 -5.4545454545 0.5894968067
7.636798217 -5.4545454545 0.3182660625
9.2860000963 -5.4545454545 0.103765343
10 -8.181818181800001 0
9.2929721465 -8.181818181800001 -0.0824611328
7.6606664083 -8.181818181800001 -0.2488029457
4.9564910473 -8.181818181800001 -0.4442675128
2.2462387286 -8.181818181800001 -0.4640406892
0.6157869091 -8.181818181800001 -0.2897313408
0 -8.181818181800001 0
0.5262021574 -8.181818181800001 0.4211319418
2.1644011801 -8.181818181800001 0.6520689052999999
4.9070182702 -8.181818181800001 0.5732074667
7.6389090239 -8.181818181800001 0.3099170438
9.286598625 -8.181818181800001 0.1011127853
10 -10.9090909091 0
9.2927739851 -10.9090909091 -0.0821400316
7.6600575421 -10.9090909091 -0.2480931892
4.9553045528 -10.9090909091 -0.444095667
2.2444445654 -10.9090909091 -0.4669875984
0.6136594827 -10.9090909091 -0.2934801775
0 -10.9090909091 0
0.535272825 -10.9090909091 0.4084557034
2.1728367104 -10.9090909091 0.6315122875
4.9120158729 -10.9090909091 0.5569181267
7.6410198308 -10.9090909091 0.301568025
9.287197153799999 -10.9090909091 0.0984602275
10 -13.6363636364 0
9.2925758237 -13.6363636364 -0.0818189304
7.659448676 -13.6363636364 -0.2473834327
4.9541180584 -13.6363636364 -0.4439238213
2.2426504021 -13.6363636364 -0.4699345076
0.6115320564 -13.6363636364 -0.2972290142
0 -13.6363636364 0
0.5443434926 -13.6363636364 0.395779465
2.1812722407 -13.6363636364 0.6109556696
4.9170134755 -13.6363636364 0.5406287867
7.6431306377 -13.6363636364 0.2932190063
9.287795682600001 -13.6363636364 0.09580766979999999
10 -16.3636363636 0
9.2923776623 -16.3636363636 -0.0814978292
7.6588398098 -16.3636363636 -0.2466736763
4.9529315639 -16.3636363636 -0.4437519755
2.2408562389 -16.3636363636 -0.4728814168
0.60940463 -16.3636363636 -0.3009778509
0 -16.3636363636 0
0.5534141602 -16.3636363636 0.3831032265
2.1897077711 -16.3636363636 0.5903990518
4.9220110782 -16.3636363636 0.5243394467
7.6452414446 -16.3636363636 0.2848699875
9.2883942114 -16.3636363636 0.093155112
10 -19.0909090909 0
9.2921795009 -19.0909090909 -0.081176728
7.6582309437 -19.0909090909 -0.2459639198
4.9517450695 -19.0909090909 -0.4435801297
2.2390620757 -19.0909090909 -0.475828326
0.6072772037 -19.0909090909 -0.3047266876
0 -19.0909090909 0
0.5624848278 -19.0909090909 0.3704269881
2.1981433014 -19.0909090909 0.569842434
4.9270086809 -19.0909090909 0.5080501066999999
7.6473522515 -19.0909090909 0.2765209688
9.288992740099999 -19.0909090909 0.0905025543
10 -21.8181818182 0
9.291981339499999 -21.8181818182 -0.0808556268
7.6576220775 -21.8181818182 -0.2452541633
4.950558575 -21.8181818182 -0.443408284
2.2372679125 -21.8181818182 -0.4787752352
0.6051497773 -21.8181818182 -0.3084755243
0 -21.8181818182 0
0.5715554953999999 -21.8181818182 0.3577507497
2.2065788318 -21.8181818182 0.5492858162000001
4.9320062836 -21.8181818182 0.4917607667
7.6494630584 -21.8181818182 0.2681719501
9.289591268900001 -21.8181818182 0.0878499965
10 -24.5454545455 0
9.291783178099999 -24.5454545455 -0.0805345256
7.6570132114 -24.5454545455 -0.2445444068
4.9493720806 -24.5454545455 -0.4432364382
2.2354737492 -24.5454545455 -0.4817221444
0.603022351 -24.5454545455 -0.312224361
0 -24.5454545455 0
0.5806261631 -24.5454545455 0.3450745113
2.2150143621 -24.5454545455 0.5287291984
4.9370038863 -24.5454545455 0.4754714267
7.6515738653 -24.5454545455 0.2598229313
9.2901897977 -24.5454545455 0.0851974388
10 -27.2727272727 0
9.291585016599999 -27.2727272727 -0.08021342450000001
7.6564043452 -27.2727272727 -0.2438346503
4.9481855861 -27.2727272727 -0.4430645925
2.233679586 -27.2727272727 -0.4846690536
0.6008949246 -27.2727272727 -0.3159731978
0 -27.2727272727 0
0.5896968307 -27.2727272727 0.3323982729
2.2234498924 -27.2727272727 0.5081725806
4.942001489 -27.2727272727 0.4591820867
7.6536846722 -27.2727272727 0.2514739126
9.2907883265 -27.2727272727 0.082544881
10 -30 0
9.291386855200001 -30 -0.0798923233
7.6557954791 -30 -0.2431248938
4.9469990917 -30 -0.4428927467
2.2318854228 -30 -0.4876159627
0.5987674983 -30 -0.3197220345
0 -30 0
0.5987674983 -30 0.3197220345
2.2318854228 -30 0.4876159627
4.9469990917 -30 0.4428927467
7.6557954791 -30 0.2431248938
9.291386855200001 -30 0.0798923233
9.291389072999999 -30.0564463783 -0.0564923694
7.6558179694 -30.171618314 -0.1719805801
4.9471135539 -30.3122474771 -0.3135625306
2.2321150688 -30.3437103848 -0.3456551064
0.5989190948999999 -30.2256941125 -0.2265282582
0.5991904789 -30.2256931156 0.2251690094
2.2324927356 -30.3437071236 0.3426930935
4.947320958 -30.3122457009 0.3117172503
7.655868628 -30.1716180594 0.1714949814
9.291395126299999 -30.0564463645 0.0564320893
9.2913942729 -30.079838247 -4.26301e-05
7.6558631097 -30.2427175152 -0.0003433878
4.9473076033 -30.4415558593 -0.001304729
2.2324771946 -30.4860385619 -0.0020942913
0.5991738085 -30.3191968038 -0.0009611877
$EndNodes
$Elements
1 608 1 608
2 0 2 608
1 1 3 2 
2 3 4 2 
3 2 4 5 
4 4 6 5 
5 5 6 7 
6 6 8 7 
7 7 8 9 
8 7 9 10 
9 10 9 11 
10 10 11 12 
11 12 11 13 
12 12 13 14 
13 14 13 15 
14 13 16 15 
15 15 16 17 
16 16 18 17 
17 17 18 19 
18 18 20 19 
19 19 20 21 
20 19 21 22 
21 22 21 23 
22 22 23 24 
23 24 23 3 
24 24 3 1 
25 3 25 4 
26 25 26 4 
27 4 26 6 
28 26 27 6 
29 6 27 8 
30 27 28 8 
31 8 28 29 
32 8 29 9 
33 9 29 30 
34 9 30 11 
35 11 30 31 
36 11 31 13 
37 13 31 16 
38 31 32 16 
39 16 32 18 
40 32 33 18 
41 18 33 20 
42 33 34 20 
43 20 34 35 
44 20 35 21 
45 21 35 36 
46 21 36 23 
47 23 36 25 
48 23 25 3 
49 25 37 26 
50 37 38 26 
51 26 38 27 
52 38 39 27 
53 27 39 28 
54 39 40 28 
55 28 40 41 
56 28 41 29 
57 29 41 42 
58 29 42 30 
59 30 42 43 
60 30 43 31 
61 31 43 32 
62 43 44 32 
63 32 44 33 
64 44 45 33 
65 33 45 34 
66 45 46 34 
67 34 46 47 
68 34 47 35 
69 35 47 48 
70 35 48 36 
71 36 48 37 
72 36 37 25 
73 37 49 38 
74 49 50 38 
75 38 50 39 
76 50 51 39 
77 39 51 40 
78 51 52 40 
79 40 52 53 
80 40 53 41 
81 41 53 54 
82 41 54 42 
83 42 54 55 
84 42 55 43 
85 43 55 44 
86 55 56 44 
87 44 56 45 
88 56 57 45 
89 45 57 46 
90 57 58 46 
91 46 58 59 
92 46 59 47 
93 47 59 60 
94 47 60 48 
95 48 60 49 
96 48 49 37 
97 49 61 50 
98 61 62 50 
99 50 62 51 
100 62 63 51 
101 51 63 52 
102 63 64 52 
103 52 64 65 
104 52 65 53 
105 53 65 66 
106 53 66 54 
107 54 66 67 
108 54 67 55 
109 55 67 56 
110 67 68 56 
111 56 68 57 
112 68 69 57 
113 57 69 58 
114 69 70 58 
115 58 70 71 
116 58 71 59 
117 59 71 72 
118 59 72 60 
119 60 72 61 
120 60 61 49 
121 61 73 62 
122 73 74 62 
123 62 74 63 
124 74 75 63 
125 63 75 64 
126 75 76 64 
127 64 76 77 
128 64 77 65 
129 65 77 78 
130 65 78 66 
131 66 78 79 
132 66 79 67 
133 67 79 68 
134 79 80 68 
135 68 80 69 
136 80 81 69 
137 69 81 70 
138 81 82 70 
139 70 82 83 
140 70 83 71 
141 71 83 84 
142 71 84 72 
143 72 84 73 
144 72 73 61 
145 73 85 74 
146 85 86 74 
147 74 86 75 
148 86 87 75 
149 75 87 76 
150 87 88 76 
151 76 88 89 
152 76 89 77 
153 77 89 90 
154 77 90 78 
155 78 90 91 
156 78 91 79 
157 79 91 80 
158 91 92 80 
159 80 92 81 
160 92 93 81 
161 81 93 82 
162 93 94 82 
163 82 94 95 
164 82 95 83 
165 83 95 96 
166 83 96 84 
167 84 96 85 
168 84 85 73 
169 85 97 86 
170 97 98 86 
171 86 98 87 
172 98 99 87 
173 87 99 88 
174 99 100 88 
175 88 100 101 
176 88 101 89 
177 89 101 102 
178 89 102 90 
179 90 102 103 
180 90 103 91 
181 91 103 92 
182 103 104 92 
183 92 104 93 
184 104 105 93 
185 93 105 94 
186 105 106 94 
187 94 106 107 
188 94 107 95 
189 95 107 108 
190 95 108 96 
191 96 108 97 
192 96 97 85 
193 97 109 98 
194 109 110 98 
195 98 110 99 
196 110 111 99 
197 99 111 100 
198 111 112 100 
199 100 112 113 
200 100 113 101 
201 101 113 114 
202 101 114 102 
203 102 114 115 
204 102 115 103 
205 103 115 104 
206 115 116 104 
207 104 116 105 
208 116 117 105 
209 105 117 106 
210 117 118 106 
211 106 118 119 
212 106 119 107 
213 107 119 120 
214 107 120 108 
215 108 120 109 
216 108 109 97 
217 109 121 110 
218 121 122 110 
219 110 122 111 
220 122 123 111 
221 111 123 112 
222 123 124 112 
223 112 124 125 
224 112 125 113 
225 113 125 126 
226 113 126 114 
227 114 126 127 
228 114 127 115 
229 115 127 116 
230 127 128 116 
231 116 128 117 
232 128 129 117 
233 117 129 118 
234 129 130 118 
235 118 130 131 
236 118 131 119 
237 119 131 132 
238 119 132 120 
239 120 132 121 
240 120 121 109 
241 121 133 122 
242 133 134 122 
243 122 134 123 
244 134 135 123 
245 123 135 124 
246 135 136 124 
247 124 136 137 
248 124 137 125 
249 125 137 138 
250 125 138 126 
251 126 138 139 
252 126 139 127 
253 127 139 128 
254 139 140 128 
255 128 140 129 
256 140 141 129 
257 129 141 130 
258 141 142 130 
259 130 142 143 
260 130 143 131 
261 131 143 144 
262 131 144 132 
263 132 144 133 
264 132 133 121 
265 133 145 134 
266 134 145 146 
267 134 146 135 
268 135 146 147 
269 135 147 136 
270 136 147 137 
271 147 148 137 
272 137 148 138 
273 148 149 138 
274 138 149 139 
275 139 150 140 
276 140 150 151 
277 140 151 141 
278 141 151 152 
279 141 152 142 
280 142 152 143 
281 152 153 143 
282 143 153 144 
283 153 154 144 
284 144 154 133 
285 133 155 145 
286 145 155 156 
287 145 156 146 
288 146 156 157 
289 146 157 147 
290 147 157 148 
291 157 158 148 
292 148 158 149 
293 158 159 149 
294 149 159 139 
295 139 159 150 
296 150 159 158 
297 150 158 151 
298 151 158 157 
299 151 157 152 
300 152 157 153 
301 157 156 153 
302 153 156 154 
303 156 155 154 
304 154 155 133 
305 1 2 160 
306 160 2 161 
307 2 5 161 
308 161 5 162 
309 5 7 162 
310 162 7 163 
311 7 164 163 
312 7 10 164 
313 10 165 164 
314 10 12 165 
315 12 166 165 
316 12 14 166 
317 14 15 166 
318 166 15 167 
319 15 17 167 
320 167 17 168 
321 17 19 168 
322 168 19 169 
323 19 170 169 
324 19 22 170 
325 22 171 170 
326 22 24 171 
327 24 160 171 
328 24 1 160 
329 160 161 172 
330 172 161 173 
331 161 162 173 
332 173 162 174 
333 162 163 174 
334 174 163 175 
335 163 176 175 
336 163 164 176 
337 164 177 176 
338 164 165 177 
339 165 178 177 
340 165 166 178 
341 166 167 178 
342 178 167 179 
343 167 168 179 
344 179 168 180 
345 168 169 180 
346 180 169 181 
347 169 182 181 
348 169 170 182 
349 170 183 182 
350 170 171 183 
351 171 172 183 
352 171 160 172 
353 172 173 184 
354 184 173 185 
355 173 174 185 
356 185 174 186 
357 174 175 186 
358 186 175 187 
359 175 188 187 
360 175 176 188 
361 176 189 188 
362 176 177 189 
363 177 190 189 
364 177 178 190 
365 178 179 190 
366 190 179 191 
367 179 180 191 
368 191 180 192 
369 180 181 192 
370 192 181 193 
371 181 194 193 
372 181 182 194 
373 182 195 194 
374 182 183 195 
375 183 184 195 
376 183 172 184 
377 184 185 196 
378 196 185 197 
379 185 186 197 
380 197 186 198 
381 186 187 198 
382 198 187 199 
383 187 200 199 
384 187 188 200 
385 188 201 200 
386 188 189 201 
387 189 202 201 
388 189 190 202 
389 190 191 202 
390 202 191 203 
391 191 192 203 
392 203 192 204 
393 192 193 204 
394 204 193 205 
395 193 206 205 
396 193 194 206 
397 194 207 206 
398 194 195 207 
399 195 196 207 
400 195 184 196 
401 196 197 208 
402 208 197 209 
403 197 198 209 
404 209 198 210 
405 198 199 210 
406 210 199 211 
407 199 212 211 
408 199 200 212 
409 200 213 212 
410 200 201 213 
411 201 214 213 
412 201 202 214 
413 202 203 214 
414 214 203 215 
415 203 204 215 
416 215 204 216 
417 204 205 216 
418 216 205 217 
419 205 218 217 
420 205 206 218 
421 206 219 218 
422 206 207 219 
423 207 208 219 
424 207 196 208 
425 208 209 220 
426 220 209 221 
427 209 210 221 
428 221 210 222 
429 210 211 222 
430 222 211 223 
431 211 224 223 
432 211 212 224 
433 212 225 224 
434 212 213 225 
435 213 226 225 
436 213 214 226 
437 214 215 226 
438 226 215 227 
439 215 216 227 
440 227 216 228 
441 216 217 228 
442 228 217 229 
443 217 230 229 
444 217 218 230 
445 218 231 230 
446 218 219 231 
447 219 220 231 
448 219 208 220 
449 220 221 232 
450 232 221 233 
451 221 222 233 
452 233 222 234 
453 222 223 234 
454 234 223 235 
455 223 236 235 
456 223 224 236 
457 224 237 236 
458 224 225 237 
459 225 238 237 
460 225 226 238 
461 226 227 238 
462 238 227 239 
463 227 228 239 
464 239 228 240 
465 228 229 240 
466 240 229 241 
467 229 242 241 
468 229 230 242 
469 230 243 242 
470 230 231 243 
471 231 232 243 
472 231 220 232 
473 232 233 244 
474 244 233 245 
475 233 234 245 
476 245 234 246 
477 234 235 246 
478 246 235 247 
479 235 248 247 
480 235 236 248 
481 236 249 248 
482 236 237 249 
483 237 250 249 
484 237 238 250 
485 238 239 250 
486 250 239 251 
487 239 240 251 
488 251 240 252 
489 240 241 252 
490 252 241 253 
491 241 254 253 
492 241 242 254 
493 242 255 254 
494 242 243 255 
495 243 244 255 
496 243 232 244 
497 244 245 256 
498 256 245 257 
499 245 246 257 
500 257 246 258 
501 246 247 258 
502 258 247 259 
503 247 260 259 
504 247 248 260 
505 248 261 260 
506 248 249 261 
507 249 262 261 
508 249 250 262 
509 250 251 262 
510 262 251 263 
511 251 252 263 
512 263 252 264 
513 252 253 264 
514 264 253 265 
515 253 266 265 
516 253 254 266 
517 254 267 266 
518 254 255 267 
519 255 256 267 
520 255 244 256 
521 256 257 268 
522 268 257 269 
523 257 258 269 
524 269 258 270 
525 258 259 270 
526 270 259 271 
527 259 272 271 
528 259 260 272 
529 260 273 272 
530 260 261 273 
531 261 274 273 
532 261 262 274 
533 262 263 274 
534 274 263 275 
535 263 264 275 
536 275 264 276 
537 264 265 276 
538 276 265 277 
539 265 278 277 
540 265 266 278 
541 266 279 278 
542 266 267 279 
543 267 268 279 
544 267 256 268 
545 268 269 280 
546 280 269 281 
547 269 270 281 
548 281 270 282 
549 270 271 282 
550 282 271 283 
551 271 284 283 
552 271 272 284 
553 272 285 284 
554 272 273 285 
555 273 286 285 
556 273 274 286 
557 274 275 286 
558 286 275 287 
559 275 276 287 
560 287 276 288 
561 276 277 288 
562 288 277 289 
563 277 290 289 
564 277 278 290 
565 278 291 290 
566 278 279 291 
567 279 280 291 
568 279 268 280 
569 280 281 292 
570 281 293 292 
571 281 282 293 
572 282 294 293 
573 282 283 294 
574 283 284 294 
575 294 284 295 
576 284 285 295 
577 295 285 296 
578 285 286 296 
579 286 287 297 
580 287 298 297 
581 287 288 298 
582 288 299 298 
583 288 289 299 
584 289 290 299 
585 299 290 300 
586 290 291 300 
587 300 291 301 
588 291 280 301 
589 280 292 302 
590 292 303 302 
591 292 293 303 
592 293 304 303 
593 293 294 304 
594 294 295 304 
595 304 295 305 
596 295 296 305 
597 305 296 306 
598 296 286 306 
599 286 297 306 
600 297 305 306 
601 297 298 305 
602 298 304 305 
603 298 299 304 
604 299 300 304 
605 304 300 303 
606 300 301 303 
607 303 301 302 
608 301 280 302 
$EndElements
