$MeshFormat
4.1 0 8
$EndMeshFormat
$Entities
0 0 1 0
0 0 -30.497537054 -0.4992203863999999 10 30.497537054 0.7211049032999999 0 0 
$EndEntities
$Nodes
1 834 1 834
2 0 0 834
1
2
3
4
5
6
7
8
9
10
11
12
13
14
15
16
17
18
19
20
21
22
23
24
25
26
27
28
29
30
31
32
33
34
35
36
37
38
39
40
41
42
43
44
45
46
47
48
49
50
51
52
53
54
55
56
57
58
59
60
61
62
63
64
65
66
67
68
69
70
71
72
73
74
75
76
77
78
79
80
81
82
83
84
85
86
87
88
89
90
91
92
93
94
95
96
97
98
99
100
101
102
103
104
105
106
107
108
109
110
111
112
113
114
115
116
117
118
119
120
121
122
123
124
125
126
127
128
129
130
131
132
133
134
135
136
137
138
139
140
141
142
143
144
145
146
147
148
149
150
151
152
153
154
155
156
157
158
159
160
161
162
163
164
165
166
167
168
169
170
171
172
173
174
175
176
177
178
179
180
181
182
183
184
185
186
187
188
189
190
191
192
193
194
195
196
197
198
199
200
201
202
203
204
205
206
207
208
209
210
211
212
213
214
215
216
217
218
219
220
221
222
223
224
225
226
227
228
229
230
231
232
233
234
235
236
237
238
239
240
241
242
243
244
245
246
247
248
249
250
251
252
253
254
255
256
257
258
259
260
261
262
263
264
265
266
267
268
269
270
271
272
273
274
275
276
277
278
279
280
281
282
283
284
285
286
287
288
289
290
291
292
293
294
295
296
297
298
299
300
301
302
303
304
305
306
307
308
309
310
311
312
313
314
315
316
317
318
319
320
321
322
323
324
325
326
327
328
329
330
331
332
333
334
335
336
337
338
339
340
341
342
343
344
345
346
347
348
349
350
351
352
353
354
355
356
357
358
359
360
361
362
363
364
365
366
367
368
369
370
371
372
373
374
375
376
377
378
379
380
381
382
383
384
385
386
387
388
389
390
391
392
393
394
395
396
397
398
399
400
401
402
403
404
405
406
407
408
409
410
411
412
413
414
415
416
417
418
419
420
421
422
423
424
425
426
427
428
429
430
431
432
433
434
435
436
437
438
439
440
441
442
443
444
445
446
447
448
449
450
451
452
453
454
455
456
457
458
459
460
461
462
463
464
465
466
467
468
469
470
471
472
473
474
475
476
477
478
479
480
481
482
483
484
485
486
487
488
489
490
491
492
493
494
495
496
497
498
499
500
501
502
503
504
505
506
507
508
509
510
511
512
513
514
515
516
517
518
519
520
521
522
523
524
525
526
527
528
529
530
531
532
533
534
535
536
537
538
539
540
541
542
543
544
545
546
547
548
549
550
551
552
553
554
555
556
557
558
559
560
561
562
563
564
565
566
567
568
569
570
571
572
573
574
575
576
577
578
579
580
581
582
583
584
585
586
587
588
589
590
591
592
593
594
595
596
597
598
599
600
601
602
603
604
605
606
607
608
609
610
611
612
613
614
615
616
617
618
619
620
621
622
623
624
625
626
627
628
629
630
631
632
633
634
635
636
637
638
639
640
641
642
643
644
645
646
647
648
649
650
651
652
653
654
655
656
657
658
659
660
661
662
663
664
665
666
667
668
669
670
671
672
673
674
675
676
677
678
679
680
681
682
683
684
685
686
687
688
689
690
691
692
693
694
695
696
697
698
699
700
701
702
703
704
705
706
707
708
709
710
711
712
713
714
715
716
717
718
719
720
721
722
723
724
725
726
727
728
729
730
731
732
733
734
735
736
737
738
739
740
741
742
743
744
745
746
747
748
749
750
751
752
753
754
755
756
757
758
759
760
761
762
763
764
765
766
767
768
769
770
771
772
773
774
775
776
777
778
779
780
781
782
783
784
785
786
787
788
789
790
791
792
793
794
795
796
797
798
799
800
801
802
803
804
805
806
807
808
809
810
811
812
813
814
815
816
817
818
819
820
821
822
823
824
825
826
827
828
829
830
831
832
833
834
10 0 0
9.6573133867 0 -0.0410788734
10 1.5789473684 0
9.657253257100001 1.5789473684 -0.0409955796
9.0579559892 0 -0.1090322549
9.057795175500001 1.5789473684 -0.1088346566
8.084585093399999 0 -0.2094317068
8.0842710067 1.5789473684 -0.2091293111
6.6794794198 0 -0.3325377162
6.6789622431 1.5789473684 -0.3322624073
4.9611309713 0 -0.4410035656
4.9603871882 1.5789473684 -0.4411029962
3.2389447178 1.5789473684 -0.4804380446
3.239914948 0 -0.4793945812
1.8298287214 1.5789473684 -0.4217908072
1.8310574932 0 -0.4192468003
0.8573769534 1.5789473684 -0.3125441902
0.8587683605 0 -0.3096561827
0.266023836 1.5789473684 -0.1965155924
0.2670909049 0 -0.1953763254
0 1.5789473684 0
0 0 0
0.1687236714 0 0.286573353
0.1728338254 1.5789473684 0.2829127764
0.7241789456 0 0.5408784464
0.7298711919 1.5789473684 0.531596861
1.7056414704 0 0.6986449171
1.7110135419 1.5789473684 0.68648376
3.1405827933 0 0.7211049033
3.1448405712 1.5789473684 0.7094267708000001
4.8902234705 0 0.626011664
4.8932116611 1.5789473684 0.6163738263
6.6362139247 1.5789473684 0.4495313034
6.6343561949 0 0.456321551
8.060248577299999 1.5789473684 0.2773885563
8.059228084500001 0 0.2814831322
9.046198639 1.5789473684 0.1426010059
9.0457152007 0 0.1446745125
9.653086398099999 1.5789473684 0.053324592
9.6529150355 0 0.054092831
10 3.1578947368 0
9.657193127499999 3.1578947368 -0.0409122858
9.0576343618 3.1578947368 -0.1086370583
8.0839569201 3.1578947368 -0.2088269155
6.6784450663 3.1578947368 -0.3319870984
4.959643405 3.1578947368 -0.4412024268
3.2379744876 3.1578947368 -0.4814815081
1.8285999496 3.1578947368 -0.4243348142
0.8559855462 3.1578947368 -0.3154321976
0.2649567672 3.1578947368 -0.1976548594
0 3.1578947368 0
0.1769439793 3.1578947368 0.2792521998
0.7355634381 3.1578947368 0.5223152755
1.7163856133 3.1578947368 0.6743226029
3.1490983491 3.1578947368 0.6977486383
4.8961998517 3.1578947368 0.6067359885
6.6380716546 3.1578947368 0.4427410559
8.06126907 3.1578947368 0.2732939803
9.0466820773 3.1578947368 0.1405274994
9.653257760600001 3.1578947368 0.0525563531
10 4.7368421053 0
9.6571329979 4.7368421053 -0.0408289919
9.057473548100001 4.7368421053 -0.10843946
8.083642833400001 4.7368421053 -0.2085245199
6.6779278896 4.7368421053 -0.3317117896
4.9588996219 4.7368421053 -0.4413018574
3.2370042574 4.7368421053 -0.4825249715
1.8273711778 4.7368421053 -0.4268788211
0.854594139 4.7368421053 -0.318320205
0.2638896983 4.7368421053 -0.1987941264
0 4.7368421053 0
0.1810541333 4.7368421053 0.2755916233
0.7412556843 4.7368421053 0.5130336901
1.7217576848 4.7368421053 0.6621614458
3.1533561271 4.7368421053 0.6860705059
4.8991880423 4.7368421053 0.5970981507999999
6.6399293844 4.7368421053 0.4359508083
8.0622895628 4.7368421053 0.2691994044
9.0471655156 4.7368421053 0.1384539928
9.6534291232 4.7368421053 0.0517881141
10 6.3157894737 0
9.6570728684 6.3157894737 -0.0407456981
9.0573127343 6.3157894737 -0.1082418618
8.083328746699999 6.3157894737 -0.2082221242
6.6774107128 6.3157894737 -0.3314364807
4.9581558388 6.3157894737 -0.441401288
3.2360340271 6.3157894737 -0.4835684349
1.826142406 6.3157894737 -0.4294228281
0.8532027317999999 6.3157894737 -0.3212082124
0.2628226295 6.3157894737 -0.1999333933
0 6.3157894737 0
0.1851642873 6.3157894737 0.2719310467
0.7469479305 6.3157894737 0.5037521047
1.7271297563 6.3157894737 0.6500002887
3.157613905 6.3157894737 0.6743923734
4.9021762328 6.3157894737 0.587460313
6.6417871142 6.3157894737 0.4291605608
8.063310055500001 6.3157894737 0.2651048285
9.0476489539 6.3157894737 0.1363804862
9.6536004858 6.3157894737 0.0510198751
10 7.8947368421 0
9.657012738800001 7.8947368421 -0.0406624043
9.057151920600001 7.8947368421 -0.1080442635
8.0830146601 7.8947368421 -0.2079197286
6.6768935361 7.8947368421 -0.3311611718
4.9574120556 7.8947368421 -0.4415007185
3.2350637969 7.8947368421 -0.4846118984
1.8249136341 7.8947368421 -0.431966835
0.8518113246 7.8947368421 -0.3240962198
0.2617555607 7.8947368421 -0.2010726603
0 7.8947368421 0
0.1892744413 7.8947368421 0.2682704701
0.7526401767999999 7.8947368421 0.4944705193
1.7325018278 7.8947368421 0.6378391316000001
3.1618716829 7.8947368421 0.662714241
4.9051644234 7.8947368421 0.5778224753
6.6436448441 7.8947368421 0.4223703132
8.064330548299999 7.8947368421 0.2610102525
9.048132392199999 7.8947368421 0.1343069797
9.6537718484 7.8947368421 0.0502516361
10 9.4736842105 0
9.656952609199999 9.4736842105 -0.0405791104
9.0569911069 9.4736842105 -0.1078466652
8.0827005734 9.4736842105 -0.2076173329
6.6763763594 9.4736842105 -0.3308858629
4.9566682725 9.4736842105 -0.4416001491
3.2340935667 9.4736842105 -0.4856553618
1.8236848623 9.4736842105 -0.434510842
0.8504199174 9.4736842105 -0.3269842272
0.2606884918 9.4736842105 -0.2022119273
0 9.4736842105 0
0.1933845952 9.4736842105 0.2646098936
0.758332423 9.4736842105 0.4851889339
1.7378738993 9.4736842105 0.6256779745
3.1661294608 9.4736842105 0.6510361085
4.908152614 9.4736842105 0.5681846375
6.6455025739 9.4736842105 0.4155800656
8.0653510411 9.4736842105 0.2569156766
9.048615830599999 9.4736842105 0.1322334731
9.653943211 9.4736842105 0.0494833972
10 11.0526315789 0
9.6568924796 11.0526315789 -0.0404958166
9.056830293200001 11.0526315789 -0.107649067
8.082386486800001 11.0526315789 -0.2073149373
6.6758591826 11.0526315789 -0.330610554
4.9559244894 11.0526315789 -0.4416995797
3.2331233365 11.0526315789 -0.4866988252
1.8224560905 11.0526315789 -0.4370548489
0.8490285102 11.0526315789 -0.3298722346
0.259621423 11.0526315789 -0.2033511943
0 11.0526315789 0
0.1974947492 11.0526315789 0.260949317
0.7640246692 11.0526315789 0.4759073485
1.7432459708 11.0526315789 0.6135168174
3.1703872388 11.0526315789 0.639357976
4.9111408046 11.0526315789 0.5585467998
6.6473603038 11.0526315789 0.4087898181
8.0663715338 11.0526315789 0.2528211007
9.049099268899999 11.0526315789 0.1301599665
9.654114573599999 11.0526315789 0.0487151582
10 12.6315789474 0
9.65683235 12.6315789474 -0.0404125227
9.0566694795 12.6315789474 -0.1074514687
8.082072400099999 12.6315789474 -0.2070125416
6.6753420059 12.6315789474 -0.3303352451
4.9551807062 12.6315789474 -0.4417990103
3.2321531063 12.6315789474 -0.4877422887
1.8212273187 12.6315789474 -0.4395988559
0.8476371029999999 12.6315789474 -0.332760242
0.2585543541 12.6315789474 -0.2044904613
0 12.6315789474 0
0.2016049032 12.6315789474 0.2572887405
0.7697169154 12.6315789474 0.4666257631
1.7486180423 12.6315789474 0.6013556603
3.1746450167 12.6315789474 0.6276798436
4.9141289952 12.6315789474 0.5489089619999999
6.6492180336 12.6315789474 0.4019995705
8.0673920266 12.6315789474 0.2487265247
9.049582707200001 12.6315789474 0.12808646
9.654285936200001 12.6315789474 0.0479469192
10 14.2105263158 0
9.656772220400001 14.2105263158 -0.0403292289
9.056508665799999 14.2105263158 -0.1072538704
8.0817583134 14.2105263158 -0.206710146
6.6748248292 14.2105263158 -0.3300599362
4.9544369231 14.2105263158 -0.4418984409
3.2311828761 14.2105263158 -0.4887857521
1.8199985469 14.2105263158 -0.4421428628
0.8462456958 14.2105263158 -0.3356482494
0.2574872853 14.2105263158 -0.2056297283
0 14.2105263158 0
0.2057150571 14.2105263158 0.2536281639
0.7754091617 14.2105263158 0.4573441777
1.7539901138 14.2105263158 0.5891945033
3.1789027946 14.2105263158 0.6160017111
4.9171171858 14.2105263158 0.5392711243
6.6510757634 14.2105263158 0.395209323
8.068412519300001 14.2105263158 0.2446319488
9.050066145500001 14.2105263158 0.1260129534
9.654457298700001 14.2105263158 0.0471786803
10 15.7894736842 0
9.656712090899999 15.7894736842 -0.0402459351
9.056347852 15.7894736842 -0.1070562721
8.0814442268 15.7894736842 -0.2064077503
6.6743076524 15.7894736842 -0.3297846274
4.9536931399 15.7894736842 -0.4419978715
3.2302126458 15.7894736842 -0.4898292155
1.818769775 15.7894736842 -0.4446868698
0.8448542886 15.7894736842 -0.3385362569
0.2564202164 15.7894736842 -0.2067689953
0 15.7894736842 0
0.2098252111 15.7894736842 0.2499675873
0.7811014079 15.7894736842 0.4480625923
1.7593621852 15.7894736842 0.5770333462
3.1831605726 15.7894736842 0.6043235786
4.9201053764 15.7894736842 0.5296332865
6.6529334933 15.7894736842 0.3884190754
8.069433012099999 15.7894736842 0.2405373729
9.050549583800001 15.7894736842 0.1239394468
9.6546286613 15.7894736842 0.0464104413
10 17.3684210526 0
9.6566519613 17.3684210526 -0.0401626412
9.056187038299999 17.3684210526 -0.1068586739
8.081130140100001 17.3684210526 -0.2061053547
6.6737904757 17.3684210526 -0.3295093185
4.9529493568 17.3684210526 -0.442097302
3.2292424156 17.3684210526 -0.490872679
1.8175410032 17.3684210526 -0.4472308767
0.8434628814 17.3684210526 -0.3414242643
0.2553531476 17.3684210526 -0.2079082623
0 17.3684210526 0
0.2139353651 17.3684210526 0.2463070108
0.7867936541 17.3684210526 0.4387810068
1.7647342567 17.3684210526 0.5648721891
3.1874183505 17.3684210526 0.5926454462
4.923093567 17.3684210526 0.5199954487
6.6547912231 17.3684210526 0.3816288279
8.0704535048 17.3684210526 0.236442797
9.0510330221 17.3684210526 0.1218659403
9.6548000239 17.3684210526 0.0456422023
10 18.9473684211 0
9.6565918317 18.9473684211 -0.0400793474
9.0560262246 18.9473684211 -0.1066610756
8.0808160535 18.9473684211 -0.205802959
6.673273299 18.9473684211 -0.3292340096
4.9522055737 18.9473684211 -0.4421967326
3.2282721854 18.9473684211 -0.4919161424
1.8163122314 18.9473684211 -0.4497748837
0.8420714741999999 18.9473684211 -0.3443122717
0.2542860787 18.9473684211 -0.2090475293
0 18.9473684211 0
0.218045519 18.9473684211 0.2426464342
0.7924859003 18.9473684211 0.4294994214
1.7701063282 18.9473684211 0.552711032
3.1916761284 18.9473684211 0.5809673137
4.9260817576 18.9473684211 0.510357611
6.6566489529 18.9473684211 0.3748385803
8.0714739976 18.9473684211 0.232348221
9.0515164604 18.9473684211 0.1197924337
9.6549713865 18.9473684211 0.0448739633
10 20.5263157895 0
9.656531702100001 20.5263157895 -0.0399960535
9.055865410899999 20.5263157895 -0.1064634773
8.0805019668 20.5263157895 -0.2055005634
6.6727561222 20.5263157895 -0.3289587007
4.9514617905 20.5263157895 -0.4422961632
3.2273019552 20.5263157895 -0.4929596058
1.8150834596 20.5263157895 -0.4523188906
0.840680067 20.5263157895 -0.3472002791
0.2532190099 20.5263157895 -0.2101867963
0 20.5263157895 0
0.222155673 20.5263157895 0.2389858577
0.7981781465 20.5263157895 0.420217836
1.7754783997 20.5263157895 0.5405498748999999
3.1959339063 20.5263157895 0.5692891812
4.9290699482 20.5263157895 0.5007197732000001
6.6585066828 20.5263157895 0.3680483327
8.0724944903 20.5263157895 0.2282536451
9.0519998987 20.5263157895 0.1177189271
9.655142749099999 20.5263157895 0.0441057244
10 22.1052631579 0
9.656471572499999 22.1052631579 -0.0399127597
9.0557045972 22.1052631579 -0.1062658791
8.0801878802 22.1052631579 -0.2051981677
6.6722389455 22.1052631579 -0.3286833918
4.9507180074 22.1052631579 -0.4423955938
3.226331725 22.1052631579 -0.4940030693
1.8138546877 22.1052631579 -0.4548628976
0.8392886599 22.1052631579 -0.3500882865
0.2521519411 22.1052631579 -0.2113260633
0 22.1052631579 0
0.226265827 22.1052631579 0.2353252811
0.8038703928000001 22.1052631579 0.4109362506
1.7808504712 22.1052631579 0.5283887178
3.2001916843 22.1052631579 0.5576110488
4.9320581387 22.1052631579 0.4910819355
6.6603644126 22.1052631579 0.3612580852
8.073514983100001 22.1052631579 0.2241590692
9.052483337 22.1052631579 0.1156454205
9.655314111699999 22.1052631579 0.0433374854
10 23.6842105263 0
9.6564114429 23.6842105263 -0.0398294659
9.055543783499999 23.6842105263 -0.1060682808
8.079873793499999 23.6842105263 -0.2048957721
6.6717217687 23.6842105263 -0.3284080829
4.9499742243 23.6842105263 -0.4424950244
3.2253614947 23.6842105263 -0.4950465327
1.8126259159 23.6842105263 -0.4574069045
0.8378972527 23.6842105263 -0.3529762939
0.2510848722 23.6842105263 -0.2124653303
0 23.6842105263 0
0.230375981 23.6842105263 0.2316647045
0.809562639 23.6842105263 0.4016546652
1.7862225427 23.6842105263 0.5162275607
3.2044494622 23.6842105263 0.5459329163
4.9350463293 23.6842105263 0.4814440977
6.6622221424 23.6842105263 0.3544678376
8.074535475799999 23.6842105263 0.2200644932
9.0529667754 23.6842105263 0.113571914
9.655485474300001 23.6842105263 0.0425692464
10 25.2631578947 0
9.6563513134 25.2631578947 -0.039746172
9.0553829698 25.2631578947 -0.1058706825
8.0795597068 25.2631578947 -0.2045933764
6.671204592 25.2631578947 -0.3281327741
4.9492304411 25.2631578947 -0.442594455
3.2243912645 25.2631578947 -0.4960899961
1.8113971441 25.2631578947 -0.4599509115
0.8365058455 25.2631578947 -0.3558643013
0.2500178034 25.2631578947 -0.2136045973
0 25.2631578947 0
0.2344861349 25.2631578947 0.228004128
0.8152548852 25.2631578947 0.3923730798
1.7915946142 25.2631578947 0.5040664036
3.2087072401 25.2631578947 0.5342547838
4.9380345199 25.2631578947 0.47180626
6.6640798723 25.2631578947 0.3476775901
8.0755559686 25.2631578947 0.2159699173
9.0534502137 25.2631578947 0.1114984074
9.6556568368 25.2631578947 0.0418010074
10 26.8421052632 0
9.656291183800001 26.8421052632 -0.0396628782
9.055222155999999 26.8421052632 -0.1056730842
8.0792456202 26.8421052632 -0.2042909808
6.6706874153 26.8421052632 -0.3278574652
4.948486658 26.8421052632 -0.4426938855
3.2234210343 26.8421052632 -0.4971334596
1.8101683723 26.8421052632 -0.4624949184
0.8351144383 26.8421052632 -0.3587523087
0.2489507345 26.8421052632 -0.2147438643
0 26.8421052632 0
0.2385962889 26.8421052632 0.2243435514
0.8209471314 26.8421052632 0.3830914944
1.7969666857 26.8421052632 0.4919052465
3.212965018 26.8421052632 0.5225766514
4.9410227105 26.8421052632 0.4621684222
6.6659376021 26.8421052632 0.3408873425
8.0765764613 26.8421052632 0.2118753414
9.053933652 26.8421052632 0.1094249008
9.6558281994 26.8421052632 0.0410327685
10 28.4210526316 0
9.656231054199999 28.4210526316 -0.0395795844
9.0550613423 28.4210526316 -0.105475486
8.0789315335 28.4210526316 -0.2039885852
6.6701702385 28.4210526316 -0.3275821563
4.9477428748 28.4210526316 -0.4427933161
3.2224508041 28.4210526316 -0.498176923
1.8089396005 28.4210526316 -0.4650389254
0.8337230311 28.4210526316 -0.3616403162
0.2478836657 28.4210526316 -0.2158831313
0 28.4210526316 0
0.2427064429 28.4210526316 0.2206829748
0.8266393777 28.4210526316 0.373809909
1.8023387572 28.4210526316 0.4797440894
3.217222796 28.4210526316 0.5108985189
4.9440109011 28.4210526316 0.4525305845
6.667795332 28.4210526316 0.334097095
8.077596954100001 28.4210526316 0.2077807654
9.054417090299999 28.4210526316 0.1073513943
9.655999562 28.4210526316 0.0402645295
10 30 0
9.6561709246 30 -0.0394962905
9.054900528599999 30 -0.1052778877
8.078617446899999 30 -0.2036861895
6.6696530618 30 -0.3273068474
4.9469990917 30 -0.4428927467
3.2214805739 30 -0.4992203864
1.8077108286 30 -0.4675829324
0.8323316239 30 -0.3645283236
0.2468165968 30 -0.2170223983
0 30 0
0.2468165968 30 0.2170223983
0.8323316239 30 0.3645283236
1.8077108286 30 0.4675829324
3.2214805739 30 0.4992203864
4.9469990917 30 0.4428927467
6.6696530618 30 0.3273068474
8.078617446899999 30 0.2036861895
9.054900528599999 30 0.1052778877
9.6561709246 30 0.0394962905
9.656171667000001 30.0279098273 -0.0279269548
9.054904072399999 30.0743742391 -0.0744475121
8.0786324007 30.1438110386 -0.1440748425
6.6697003475 30.2309216228 -0.2316141053
4.947112914 30.3122466315 -0.3136022744
3.2216762285 30.3518458307 -0.3537578887
1.8079414765 30.3296440607 -0.3315992755
0.8325129569 30.2572313079 -0.2584408389
0.2468907638 30.1533155661 -0.1535998715
0.2470379945 30.153315315 0.1531335288
0.83285094 30.257229672 0.2564582616
1.808345162 30.3296407923 0.3285292715
3.2220175423 30.3518426781 0.3509229541
4.947329106 30.3122447741 0.3116766941
6.669802287 30.2309209515 0.230659493
8.078669188699999 30.1438108759 0.1437184087
9.0549139172 30.074374214 0.0743498385
9.656173918 30.0279098233 0.0279043021
9.6561735666 30.0394764984 -1.60202e-05
9.054912503100001 30.1051945278 -6.90743e-05
8.078664611100001 30.2033943162 -0.0002520543
6.6697920165 30.3265733751 -0.0006750153
4.947312912 30.4415545076 -0.0013615058
3.2219985689 30.497537054 -0.0020044167
1.8083224232 30.4661546595 -0.0021706803
0.8328270689 30.3637870949 -0.0014019256
0.2470256193 30.2168484482 -0.0003297962
10 -1.5789473684 0
9.657253257100001 -1.5789473684 -0.0409955796
9.057795175500001 -1.5789473684 -0.1088346566
8.0842710067 -1.5789473684 -0.2091293111
6.6789622431 -1.5789473684 -0.3322624073
4.9603871882 -1.5789473684 -0.4411029962
3.2389447178 -1.5789473684 -0.4804380446
1.8298287214 -1.5789473684 -0.4217908072
0.8573769534 -1.5789473684 -0.3125441902
0.266023836 -1.5789473684 -0.1965155924
0 -1.5789473684 0
0.1728338254 -1.5789473684 0.2829127764
0.7298711919 -1.5789473684 0.531596861
1.7110135419 -1.5789473684 0.68648376
3.1448405712 -1.5789473684 0.7094267708000001
4.8932116611 -1.5789473684 0.6163738263
6.6362139247 -1.5789473684 0.4495313034
8.060248577299999 -1.5789473684 0.2773885563
9.046198639 -1.5789473684 0.1426010059
9.653086398099999 -1.5789473684 0.053324592
10 -3.1578947368 0
9.657193127499999 -3.1578947368 -0.0409122858
9.0576343618 -3.1578947368 -0.1086370583
8.0839569201 -3.1578947368 -0.2088269155
6.6784450663 -3.1578947368 -0.3319870984
4.959643405 -3.1578947368 -0.4412024268
3.2379744876 -3.1578947368 -0.4814815081
1.8285999496 -3.1578947368 -0.4243348142
0.8559855462 -3.1578947368 -0.3154321976
0.2649567672 -3.1578947368 -0.1976548594
0 -3.1578947368 0
0.1769439793 -3.1578947368 0.2792521998
0.7355634381 -3.1578947368 0.5223152755
1.7163856133 -3.1578947368 0.6743226029
3.1490983491 -3.1578947368 0.6977486383
4.8961998517 -3.1578947368 0.6067359885
6.6380716546 -3.1578947368 0.4427410559
8.06126907 -3.1578947368 0.2732939803
9.0466820773 -3.1578947368 0.1405274994
9.653257760600001 -3.1578947368 0.0525563531
10 -4.7368421053 0
9.6571329979 -4.7368421053 -0.0408289919
9.057473548100001 -4.7368421053 -0.10843946
8.083642833400001 -4.7368421053 -0.2085245199
6.6779278896 -4.7368421053 -0.3317117896
4.9588996219 -4.7368421053 -0.4413018574
3.2370042574 -4.7368421053 -0.4825249715
1.8273711778 -4.7368421053 -0.4268788211
0.854594139 -4.7368421053 -0.318320205
0.2638896983 -4.7368421053 -0.1987941264
0 -4.7368421053 0
0.1810541333 -4.7368421053 0.2755916233
0.7412556843 -4.7368421053 0.5130336901
1.7217576848 -4.7368421053 0.6621614458
3.1533561271 -4.7368421053 0.6860705059
4.8991880423 -4.7368421053 0.5970981507999999
6.6399293844 -4.7368421053 0.4359508083
8.0622895628 -4.7368421053 0.2691994044
9.0471655156 -4.7368421053 0.1384539928
9.6534291232 -4.7368421053 0.0517881141
10 -6.3157894737 0
9.6570728684 -6.3157894737 -0.0407456981
9.0573127343 -6.3157894737 -0.1082418618
8.083328746699999 -6.3157894737 -0.2082221242
6.6774107128 -6.3157894737 -0.3314364807
4.9581558388 -6.3157894737 -0.441401288
3.2360340271 -6.3157894737 -0.4835684349
1.826142406 -6.3157894737 -0.4294228281
0.8532027317999999 -6.3157894737 -0.3212082124
0.2628226295 -6.3157894737 -0.1999333933
0 -6.3157894737 0
0.1851642873 -6.3157894737 0.2719310467
0.7469479305 -6.3157894737 0.5037521047
1.7271297563 -6.3157894737 0.6500002887
3.157613905 -6.3157894737 0.6743923734
4.9021762328 -6.3157894737 0.587460313
6.6417871142 -6.3157894737 0.4291605608
8.063310055500001 -6.3157894737 0.2651048285
9.0476489539 -6.3157894737 0.1363804862
9.6536004858 -6.3157894737 0.0510198751
10 -7.8947368421 0
9.657012738800001 -7.8947368421 -0.0406624043
9.057151920600001 -7.8947368421 -0.1080442635
8.0830146601 -7.8947368421 -0.2079197286
6.6768935361 -7.8947368421 -0.3311611718
4.9574120556 -7.8947368421 -0.4415007185
3.2350637969 -7.8947368421 -0.4846118984
1.8249136341 -7.8947368421 -0.431966835
0.8518113246 -7.8947368421 -0.3240962198
0.2617555607 -7.8947368421 -0.2010726603
0 -7.8947368421 0
0.1892744413 -7.8947368421 0.2682704701
0.7526401767999999 -7.8947368421 0.4944705193
1.7325018278 -7.8947368421 0.6378391316000001
3.1618716829 -7.8947368421 0.662714241
4.9051644234 -7.8947368421 0.5778224753
6.6436448441 -7.8947368421 0.4223703132
8.064330548299999 -7.8947368421 0.2610102525
9.048132392199999 -7.8947368421 0.1343069797
9.6537718484 -7.8947368421 0.0502516361
10 -9.4736842105 0
9.656952609199999 -9.4736842105 -0.0405791104
9.0569911069 -9.4736842105 -0.1078466652
8.0827005734 -9.4736842105 -0.2076173329
6.6763763594 -9.4736842105 -0.3308858629
4.9566682725 -9.4736842105 -0.4416001491
3.2340935667 -9.4736842105 -0.4856553618
1.8236848623 -9.4736842105 -0.434510842
0.8504199174 -9.4736842105 -0.3269842272
0.2606884918 -9.4736842105 -0.2022119273
0 -9.4736842105 0
0.1933845952 -9.4736842105 0.2646098936
0.758332423 -9.4736842105 0.4851889339
1.7378738993 -9.4736842105 0.6256779745
3.1661294608 -9.4736842105 0.6510361085
4.908152614 -9.4736842105 0.5681846375
6.6455025739 -9.4736842105 0.4155800656
8.0653510411 -9.4736842105 0.2569156766
9.048615830599999 -9.4736842105 0.1322334731
9.653943211 -9.4736842105 0.0494833972
10 -11.0526315789 0
9.6568924796 -11.0526315789 -0.0404958166
9.056830293200001 -11.0526315789 -0.107649067
8.082386486800001 -11.0526315789 -0.2073149373
6.6758591826 -11.0526315789 -0.330610554
4.9559244894 -11.0526315789 -0.4416995797
3.2331233365 -11.0526315789 -0.4866988252
1.8224560905 -11.0526315789 -0.4370548489
0.8490285102 -11.0526315789 -0.3298722346
0.259621423 -11.0526315789 -0.2033511943
0 -11.0526315789 0
0.1974947492 -11.0526315789 0.260949317
0.7640246692 -11.0526315789 0.4759073485
1.7432459708 -11.0526315789 0.6135168174
3.1703872388 -11.0526315789 0.639357976
4.9111408046 -11.0526315789 0.5585467998
6.6473603038 -11.0526315789 0.4087898181
8.0663715338 -11.0526315789 0.2528211007
9.049099268899999 -11.0526315789 0.1301599665
9.654114573599999 -11.0526315789 0.0487151582
10 -12.6315789474 0
9.65683235 -12.6315789474 -0.0404125227
9.0566694795 -12.6315789474 -0.1074514687
8.082072400099999 -12.6315789474 -0.2070125416
6.6753420059 -12.6315789474 -0.3303352451
4.9551807062 -12.6315789474 -0.4417990103
3.2321531063 -12.6315789474 -0.4877422887
1.8212273187 -12.6315789474 -0.4395988559
0.8476371029999999 -12.6315789474 -0.332760242
0.2585543541 -12.6315789474 -0.2044904613
0 -12.6315789474 0
0.2016049032 -12.6315789474 0.2572887405
0.7697169154 -12.6315789474 0.4666257631
1.7486180423 -12.6315789474 0.6013556603
3.1746450167 -12.6315789474 0.6276798436
4.9141289952 -12.6315789474 0.5489089619999999
6.6492180336 -12.6315789474 0.4019995705
8.0673920266 -12.6315789474 0.2487265247
9.049582707200001 -12.6315789474 0.12808646
9.654285936200001 -12.6315789474 0.0479469192
10 -14.2105263158 0
9.656772220400001 -14.2105263158 -0.0403292289
9.056508665799999 -14.2105263158 -0.1072538704
8.0817583134 -14.2105263158 -0.206710146
6.6748248292 -14.2105263158 -0.3300599362
4.9544369231 -14.2105263158 -0.4418984409
3.2311828761 -14.2105263158 -0.4887857521
1.8199985469 -14.2105263158 -0.4421428628
0.8462456958 -14.2105263158 -0.3356482494
0.2574872853 -14.2105263158 -0.2056297283
0 -14.2105263158 0
0.2057150571 -14.2105263158 0.2536281639
0.7754091617 -14.2105263158 0.4573441777
1.7539901138 -14.2105263158 0.5891945033
3.1789027946 -14.2105263158 0.6160017111
4.9171171858 -14.2105263158 0.5392711243
6.6510757634 -14.2105263158 0.395209323
8.068412519300001 -14.2105263158 0.2446319488
9.050066145500001 -14.2105263158 0.1260129534
9.654457298700001 -14.2105263158 0.0471786803
10 -15.7894736842 0
9.656712090899999 -15.7894736842 -0.0402459351
9.056347852 -15.7894736842 -0.1070562721
8.0814442268 -15.7894736842 -0.2064077503
6.6743076524 -15.7894736842 -0.3297846274
4.9536931399 -15.7894736842 -0.4419978715
3.2302126458 -15.7894736842 -0.4898292155
1.818769775 -15.7894736842 -0.4446868698
0.8448542886 -15.7894736842 -0.3385362569
0.2564202164 -15.7894736842 -0.2067689953
0 -15.7894736842 0
0.2098252111 -15.7894736842 0.2499675873
0.7811014079 -15.7894736842 0.4480625923
1.7593621852 -15.7894736842 0.5770333462
3.1831605726 -15.7894736842 0.6043235786
4.9201053764 -15.7894736842 0.5296332865
6.6529334933 -15.7894736842 0.3884190754
8.069433012099999 -15.7894736842 0.2405373729
9.050549583800001 -15.7894736842 0.1239394468
9.6546286613 -15.7894736842 0.0464104413
10 -17.3684210526 0
9.6566519613 -17.3684210526 -0.0401626412
9.056187038299999 -17.3684210526 -0.1068586739
8.081130140100001 -17.3684210526 -0.2061053547
6.6737904757 -17.3684210526 -0.3295093185
4.9529493568 -17.3684210526 -0.442097302
3.2292424156 -17.3684210526 -0.490872679
1.8175410032 -17.3684210526 -0.4472308767
0.8434628814 -17.3684210526 -0.3414242643
0.2553531476 -17.3684210526 -0.2079082623
0 -17.3684210526 0
0.2139353651 -17.3684210526 0.2463070108
0.7867936541 -17.3684210526 0.4387810068
1.7647342567 -17.3684210526 0.5648721891
3.1874183505 -17.3684210526 0.5926454462
4.923093567 -17.3684210526 0.5199954487
6.6547912231 -17.3684210526 0.3816288279
8.0704535048 -17.3684210526 0.236442797
9.0510330221 -17.3684210526 0.1218659403
9.6548000239 -17.3684210526 0.0456422023
10 -18.9473684211 0
9.6565918317 -18.9473684211 -0.0400793474
9.0560262246 -18.9473684211 -0.1066610756
8.0808160535 -18.9473684211 -0.205802959
6.673273299 -18.9473684211 -0.3292340096
4.9522055737 -18.9473684211 -0.4421967326
3.2282721854 -18.9473684211 -0.4919161424
1.8163122314 -18.9473684211 -0.4497748837
0.8420714741999999 -18.9473684211 -0.3443122717
0.2542860787 -18.9473684211 -0.2090475293
0 -18.9473684211 0
0.218045519 -18.9473684211 0.2426464342
0.7924859003 -18.9473684211 0.4294994214
1.7701063282 -18.9473684211 0.552711032
3.1916761284 -18.9473684211 0.5809673137
4.9260817576 -18.9473684211 0.510357611
6.6566489529 -18.9473684211 0.3748385803
8.0714739976 -18.9473684211 0.232348221
9.0515164604 -18.9473684211 0.1197924337
9.6549713865 -18.9473684211 0.0448739633
10 -20.5263157895 0
9.656531702100001 -20.5263157895 -0.0399960535
9.055865410899999 -20.5263157895 -0.1064634773
8.0805019668 -20.5263157895 -0.2055005634
6.6727561222 -20.5263157895 -0.3289587007
4.9514617905 -20.5263157895 -0.4422961632
3.2273019552 -20.5263157895 -0.4929596058
1.8150834596 -20.5263157895 -0.4523188906
0.840680067 -20.5263157895 -0.3472002791
0.2532190099 -20.5263157895 -0.2101867963
0 -20.5263157895 0
0.222155673 -20.5263157895 0.2389858577
0.7981781465 -20.5263157895 0.420217836
1.7754783997 -20.5263157895 0.5405498748999999
3.1959339063 -20.5263157895 0.5692891812
4.9290699482 -20.5263157895 0.5007197732000001
6.6585066828 -20.5263157895 0.3680483327
8.0724944903 -20.5263157895 0.2282536451
9.0519998987 -20.5263157895 0.1177189271
9.655142749099999 -20.5263157895 0.0441057244
10 -22.1052631579 0
9.656471572499999 -22.1052631579 -0.0399127597
9.0557045972 -22.1052631579 -0.1062658791
8.0801878802 -22.1052631579 -0.2051981677
6.6722389455 -22.1052631579 -0.3286833918
4.9507180074 -22.1052631579 -0.4423955938
3.226331725 -22.1052631579 -0.4940030693
1.8138546877 -22.1052631579 -0.4548628976
0.8392886599 -22.1052631579 -0.3500882865
0.2521519411 -22.1052631579 -0.2113260633
0 -22.1052631579 0
0.226265827 -22.1052631579 0.2353252811
0.8038703928000001 -22.1052631579 0.4109362506
1.7808504712 -22.1052631579 0.5283887178
3.2001916843 -22.1052631579 0.5576110488
4.9320581387 -22.1052631579 0.4910819355
6.6603644126 -22.1052631579 0.3612580852
8.073514983100001 -22.1052631579 0.2241590692
9.052483337 -22.1052631579 0.1156454205
9.655314111699999 -22.1052631579 0.0433374854
10 -23.6842105263 0
9.6564114429 -23.6842105263 -0.0398294659
9.055543783499999 -23.6842105263 -0.1060682808
8.079873793499999 -23.6842105263 -0.2048957721
6.6717217687 -23.6842105263 -0.3284080829
4.9499742243 -23.6842105263 -0.4424950244
3.2253614947 -23.6842105263 -0.4950465327
1.8126259159 -23.6842105263 -0.4574069045
0.8378972527 -23.6842105263 -0.3529762939
0.2510848722 -23.6842105263 -0.2124653303
0 -23.6842105263 0
0.230375981 -23.6842105263 0.2316647045
0.809562639 -23.6842105263 0.4016546652
1.7862225427 -23.6842105263 0.5162275607
3.2044494622 -23.6842105263 0.5459329163
4.9350463293 -23.6842105263 0.4814440977
6.6622221424 -23.6842105263 0.3544678376
8.074535475799999 -23.6842105263 0.2200644932
9.0529667754 -23.6842105263 0.113571914
9.655485474300001 -23.6842105263 0.0425692464
10 -25.2631578947 0
9.6563513134 -25.2631578947 -0.039746172
9.0553829698 -25.2631578947 -0.1058706825
8.0795597068 -25.2631578947 -0.2045933764
6.671204592 -25.2631578947 -0.3281327741
4.9492304411 -25.2631578947 -0.442594455
3.2243912645 -25.2631578947 -0.4960899961
1.8113971441 -25.2631578947 -0.4599509115
0.8365058455 -25.2631578947 -0.3558643013
0.2500178034 -25.2631578947 -0.2136045973
0 -25.2631578947 0
0.2344861349 -25.2631578947 0.228004128
0.8152548852 -25.2631578947 0.3923730798
1.7915946142 -25.2631578947 0.5040664036
3.2087072401 -25.2631578947 0.5342547838
4.9380345199 -25.2631578947 0.47180626
6.6640798723 -25.2631578947 0.3476775901
8.0755559686 -25.2631578947 0.2159699173
9.0534502137 -25.2631578947 0.1114984074
9.6556568368 -25.2631578947 0.0418010074
10 -26.8421052632 0
9.656291183800001 -26.8421052632 -0.0396628782
9.055222155999999 -26.8421052632 -0.1056730842
8.0792456202 -26.8421052632 -0.2042909808
6.6706874153 -26.8421052632 -0.3278574652
4.948486658 -26.8421052632 -0.4426938855
3.2234210343 -26.8421052632 -0.4971334596
1.8101683723 -26.8421052632 -0.4624949184
0.8351144383 -26.8421052632 -0.3587523087
0.2489507345 -26.8421052632 -0.2147438643
0 -26.8421052632 0
0.2385962889 -26.8421052632 0.2243435514
0.8209471314 -26.8421052632 0.3830914944
1.7969666857 -26.8421052632 0.4919052465
3.212965018 -26.8421052632 0.5225766514
4.9410227105 -26.8421052632 0.4621684222
6.6659376021 -26.8421052632 0.3408873425
8.0765764613 -26.8421052632 0.2118753414
9.053933652 -26.8421052632 0.1094249008
9.6558281994 -26.8421052632 0.0410327685
10 -28.4210526316 0
9.656231054199999 -28.4210526316 -0.0395795844
9.0550613423 -28.4210526316 -0.105475486
8.0789315335 -28.4210526316 -0.2039885852
6.6701702385 -28.4210526316 -0.3275821563
4.9477428748 -28.4210526316 -0.4427933161
3.2224508041 -28.4210526316 -0.498176923
1.8089396005 -28.4210526316 -0.4650389254
0.8337230311 -28.4210526316 -0.3616403162
0.2478836657 -28.4210526316 -0.2158831313
0 -28.4210526316 0
0.2427064429 -28.4210526316 0.2206829748
0.8266393777 -28.4210526316 0.373809909
1.8023387572 -28.4210526316 0.4797440894
3.217222796 -28.4210526316 0.5108985189
4.9440109011 -28.4210526316 0.4525305845
6.667795332 -28.4210526316 0.334097095
8.077596954100001 -28.4210526316 0.2077807654
9.054417090299999 -28.4210526316 0.1073513943
9.655999562 -28.4210526316 0.0402645295
10 -30 0
9.6561709246 -30 -0.0394962905
9.054900528599999 -30 -0.1052778877
8.078617446899999 -30 -0.2036861895
6.6696530618 -30 -0.3273068474
4.9469990917 -30 -0.4428927467
3.2214805739 -30 -0.4992203864
1.8077108286 -30 -0.4675829324
0.8323316239 -30 -0.3645283236
0.2468165968 -30 -0.2170223983
0 -30 0
0.2468165968 -30 0.2170223983
0.8323316239 -30 0.3645283236
1.8077108286 -30 0.4675829324
3.2214805739 -30 0.4992203864
4.9469990917 -30 0.4428927467
6.6696530618 -30 0.3273068474
8.078617446899999 -30 0.2036861895
9.054900528599999 -30 0.1052778877
9.6561709246 -30 0.0394962905
9.656171667000001 -30.0279098273 -0.0279269548
9.054904072399999 -30.0743742391 -0.0744475121
8.0786324007 -30.1438110386 -0.1440748425
6.6697003475 -30.2309216228 -0.2316141053
4.947112914 -30.3122466315 -0.3136022744
3.2216762285 -30.3518458307 -0.3537578887
1.8079414765 -30.3296440607 -0.3315992755
0.8325129569 -30.2572313079 -0.2584408389
0.2468907638 -30.1533155661 -0.1535998715
0.2470379945 -30.153315315 0.1531335288
0.83285094 -30.257229672 0.2564582616
1.808345162 -30.3296407923 0.3285292715
3.2220175423 -30.3518426781 0.3509229541
4.947329106 -30.3122447741 0.3116766941
6.669802287 -30.2309209515 0.230659493
8.078669188699999 -30.1438108759 0.1437184087
9.0549139172 -30.074374214 0.0743498385
9.656173918 -30.0279098233 0.0279043021
9.6561735666 -30.0394764984 -1.60202e-05
9.054912503100001 -30.1051945278 -6.90743e-05
8.078664611100001 -30.2033943162 -0.0002520543
6.6697920165 -30.3265733751 -0.0006750153
4.947312912 -30.4415545076 -0.0013615058
3.2219985689 -30.497537054 -0.0020044167
1.8083224232 -30.4661546595 -0.0021706803
0.8328270689 -30.3637870949 -0.0014019256
0.2470256193 -30.2168484482 -0.0003297962
$EndNodes
$Elements
1 1664 1 1664
2 0 2 1664
1 1 3 2 
2 3 4 2 
3 2 4 5 
4 4 6 5 
5 5 6 7 
6 6 8 7 
7 7 8 9 
8 8 10 9 
9 9 10 11 
10 10 12 11 
11 11 12 13 
12 11 13 14 
13 14 13 15 
14 14 15 16 
15 16 15 17 
16 16 17 18 
17 18 17 19 
18 18 19 20 
19 20 19 21 
20 20 21 22 
21 22 21 23 
22 21 24 23 
23 23 24 25 
24 24 26 25 
25 25 26 27 
26 26 28 27 
27 27 28 29 
28 28 30 29 
29 29 30 31 
30 30 32 31 
31 31 32 33 
32 31 33 34 
33 34 33 35 
34 34 35 36 
35 36 35 37 
36 36 37 38 
37 38 37 39 
38 38 39 40 
39 40 39 3 
40 40 3 1 
41 3 41 4 
42 41 42 4 
43 4 42 6 
44 42 43 6 
45 6 43 8 
46 43 44 8 
47 8 44 10 
48 44 45 10 
49 10 45 12 
50 45 46 12 
51 12 46 47 
52 12 47 13 
53 13 47 48 
54 13 48 15 
55 15 48 49 
56 15 49 17 
57 17 49 50 
58 17 50 19 
59 19 50 51 
60 19 51 21 
61 21 51 24 
62 51 52 24 
63 24 52 26 
64 52 53 26 
65 26 53 28 
66 53 54 28 
67 28 54 30 
68 54 55 30 
69 30 55 32 
70 55 56 32 
71 32 56 57 
72 32 57 33 
73 33 57 58 
74 33 58 35 
75 35 58 59 
76 35 59 37 
77 37 59 60 
78 37 60 39 
79 39 60 41 
80 39 41 3 
81 41 61 42 
82 61 62 42 
83 42 62 43 
84 62 63 43 
85 43 63 44 
86 63 64 44 
87 44 64 45 
88 64 65 45 
89 45 65 46 
90 65 66 46 
91 46 66 67 
92 46 67 47 
93 47 67 68 
94 47 68 48 
95 48 68 69 
96 48 69 49 
97 49 69 70 
98 49 70 50 
99 50 70 71 
100 50 71 51 
101 51 71 52 
102 71 72 52 
103 52 72 53 
104 72 73 53 
105 53 73 54 
106 73 74 54 
107 54 74 55 
108 74 75 55 
109 55 75 56 
110 75 76 56 
111 56 76 77 
112 56 77 57 
113 57 77 78 
114 57 78 58 
115 58 78 79 
116 58 79 59 
117 59 79 80 
118 59 80 60 
119 60 80 61 
120 60 61 41 
121 61 81 62 
122 81 82 62 
123 62 82 63 
124 82 83 63 
125 63 83 64 
126 83 84 64 
127 64 84 65 
128 84 85 65 
129 65 85 66 
130 85 86 66 
131 66 86 87 
132 66 87 67 
133 67 87 88 
134 67 88 68 
135 68 88 89 
136 68 89 69 
137 69 89 90 
138 69 90 70 
139 70 90 91 
140 70 91 71 
141 71 91 72 
142 91 92 72 
143 72 92 73 
144 92 93 73 
145 73 93 74 
146 93 94 74 
147 74 94 75 
148 94 95 75 
149 75 95 76 
150 95 96 76 
151 76 96 97 
152 76 97 77 
153 77 97 98 
154 77 98 78 
155 78 98 99 
156 78 99 79 
157 79 99 100 
158 79 100 80 
159 80 100 81 
160 80 81 61 
161 81 101 82 
162 101 102 82 
163 82 102 83 
164 102 103 83 
165 83 103 84 
166 103 104 84 
167 84 104 85 
168 104 105 85 
169 85 105 86 
170 105 106 86 
171 86 106 107 
172 86 107 87 
173 87 107 108 
174 87 108 88 
175 88 108 109 
176 88 109 89 
177 89 109 110 
178 89 110 90 
179 90 110 111 
180 90 111 91 
181 91 111 92 
182 111 112 92 
183 92 112 93 
184 112 113 93 
185 93 113 94 
186 113 114 94 
187 94 114 95 
188 114 115 95 
189 95 115 96 
190 115 116 96 
191 96 116 117 
192 96 117 97 
193 97 117 118 
194 97 118 98 
195 98 118 119 
196 98 119 99 
197 99 119 120 
198 99 120 100 
199 100 120 101 
200 100 101 81 
201 101 121 102 
202 121 122 102 
203 102 122 103 
204 122 123 103 
205 103 123 104 
206 123 124 104 
207 104 124 105 
208 124 125 105 
209 105 125 106 
210 125 126 106 
211 106 126 127 
212 106 127 107 
213 107 127 128 
214 107 128 108 
215 108 128 129 
216 108 129 109 
217 109 129 130 
218 109 130 110 
219 110 130 131 
220 110 131 111 
221 111 131 112 
222 131 132 112 
223 112 132 113 
224 132 133 113 
225 113 133 114 
226 133 134 114 
227 114 134 115 
228 134 135 115 
229 115 135 116 
230 135 136 116 
231 116 136 137 
232 116 137 117 
233 117 137 138 
234 117 138 118 
235 118 138 139 
236 118 139 119 
237 119 139 140 
238 119 140 120 
239 120 140 121 
240 120 121 101 
241 121 141 122 
242 141 142 122 
243 122 142 123 
244 142 143 123 
245 123 143 124 
246 143 144 124 
247 124 144 125 
248 144 145 125 
249 125 145 126 
250 145 146 126 
251 126 146 147 
252 126 147 127 
253 127 147 148 
254 127 148 128 
255 128 148 149 
256 128 149 129 
257 129 149 150 
258 129 150 130 
259 130 150 151 
260 130 151 131 
261 131 151 132 
262 151 152 132 
263 132 152 133 
264 152 153 133 
265 133 153 134 
266 153 154 134 
267 134 154 135 
268 154 155 135 
269 135 155 136 
270 155 156 136 
271 136 156 157 
272 136 157 137 
273 137 157 158 
274 137 158 138 
275 138 158 159 
276 138 159 139 
277 139 159 160 
278 139 160 140 
279 140 160 141 
280 140 141 121 
281 141 161 142 
282 161 162 142 
283 142 162 143 
284 162 163 143 
285 143 163 144 
286 163 164 144 
287 144 164 145 
288 164 165 145 
289 145 165 146 
290 165 166 146 
291 146 166 167 
292 146 167 147 
293 147 167 168 
294 147 168 148 
295 148 168 169 
296 148 169 149 
297 149 169 170 
298 149 170 150 
299 150 170 171 
300 150 171 151 
301 151 171 152 
302 171 172 152 
303 152 172 153 
304 172 173 153 
305 153 173 154 
306 173 174 154 
307 154 174 155 
308 174 175 155 
309 155 175 156 
310 175 176 156 
311 156 176 177 
312 156 177 157 
313 157 177 178 
314 157 178 158 
315 158 178 179 
316 158 179 159 
317 159 179 180 
318 159 180 160 
319 160 180 161 
320 160 161 141 
321 161 181 162 
322 181 182 162 
323 162 182 163 
324 182 183 163 
325 163 183 164 
326 183 184 164 
327 164 184 165 
328 184 185 165 
329 165 185 166 
330 185 186 166 
331 166 186 187 
332 166 187 167 
333 167 187 188 
334 167 188 168 
335 168 188 189 
336 168 189 169 
337 169 189 190 
338 169 190 170 
339 170 190 191 
340 170 191 171 
341 171 191 172 
342 191 192 172 
343 172 192 173 
344 192 193 173 
345 173 193 174 
346 193 194 174 
347 174 194 175 
348 194 195 175 
349 175 195 176 
350 195 196 176 
351 176 196 197 
352 176 197 177 
353 177 197 198 
354 177 198 178 
355 178 198 199 
356 178 199 179 
357 179 199 200 
358 179 200 180 
359 180 200 181 
360 180 181 161 
361 181 201 182 
362 201 202 182 
363 182 202 183 
364 202 203 183 
365 183 203 184 
366 203 204 184 
367 184 204 185 
368 204 205 185 
369 185 205 186 
370 205 206 186 
371 186 206 207 
372 186 207 187 
373 187 207 208 
374 187 208 188 
375 188 208 209 
376 188 209 189 
377 189 209 210 
378 189 210 190 
379 190 210 211 
380 190 211 191 
381 191 211 192 
382 211 212 192 
383 192 212 193 
384 212 213 193 
385 193 213 194 
386 213 214 194 
387 194 214 195 
388 214 215 195 
389 195 215 196 
390 215 216 196 
391 196 216 217 
392 196 217 197 
393 197 217 218 
394 197 218 198 
395 198 218 219 
396 198 219 199 
397 199 219 220 
398 199 220 200 
399 200 220 201 
400 200 201 181 
401 201 221 202 
402 221 222 202 
403 202 222 203 
404 222 223 203 
405 203 223 204 
406 223 224 204 
407 204 224 205 
408 224 225 205 
409 205 225 206 
410 225 226 206 
411 206 226 227 
412 206 227 207 
413 207 227 228 
414 207 228 208 
415 208 228 229 
416 208 229 209 
417 209 229 230 
418 209 230 210 
419 210 230 231 
420 210 231 211 
421 211 231 212 
422 231 232 212 
423 212 232 213 
424 232 233 213 
425 213 233 214 
426 233 234 214 
427 214 234 215 
428 234 235 215 
429 215 235 216 
430 235 236 216 
431 216 236 237 
432 216 237 217 
433 217 237 238 
434 217 238 218 
435 218 238 239 
436 218 239 219 
437 219 239 240 
438 219 240 220 
439 220 240 221 
440 220 221 201 
441 221 241 222 
442 241 242 222 
443 222 242 223 
444 242 243 223 
445 223 243 224 
446 243 244 224 
447 224 244 225 
448 244 245 225 
449 225 245 226 
450 245 246 226 
451 226 246 247 
452 226 247 227 
453 227 247 248 
454 227 248 228 
455 228 248 249 
456 228 249 229 
457 229 249 250 
458 229 250 230 
459 230 250 251 
460 230 251 231 
461 231 251 232 
462 251 252 232 
463 232 252 233 
464 252 253 233 
465 233 253 234 
466 253 254 234 
467 234 254 235 
468 254 255 235 
469 235 255 236 
470 255 256 236 
471 236 256 257 
472 236 257 237 
473 237 257 258 
474 237 258 238 
475 238 258 259 
476 238 259 239 
477 239 259 260 
478 239 260 240 
479 240 260 241 
480 240 241 221 
481 241 261 242 
482 261 262 242 
483 242 262 243 
484 262 263 243 
485 243 263 244 
486 263 264 244 
487 244 264 245 
488 264 265 245 
489 245 265 246 
490 265 266 246 
491 246 266 267 
492 246 267 247 
493 247 267 268 
494 247 268 248 
495 248 268 269 
496 248 269 249 
497 249 269 270 
498 249 270 250 
499 250 270 271 
500 250 271 251 
501 251 271 252 
502 271 272 252 
503 252 272 253 
504 272 273 253 
505 253 273 254 
506 273 274 254 
507 254 274 255 
508 274 275 255 
509 255 275 256 
510 275 276 256 
511 256 276 277 
512 256 277 257 
513 257 277 278 
514 257 278 258 
515 258 278 279 
516 258 279 259 
517 259 279 280 
518 259 280 260 
519 260 280 261 
520 260 261 241 
521 261 281 262 
522 281 282 262 
523 262 282 263 
524 282 283 263 
525 263 283 264 
526 283 284 264 
527 264 284 265 
528 284 285 265 
529 265 285 266 
530 285 286 266 
531 266 286 287 
532 266 287 267 
533 267 287 288 
534 267 288 268 
535 268 288 289 
536 268 289 269 
537 269 289 290 
538 269 290 270 
539 270 290 291 
540 270 291 271 
541 271 291 272 
542 291 292 272 
543 272 292 273 
544 292 293 273 
545 273 293 274 
546 293 294 274 
547 274 294 275 
548 294 295 275 
549 275 295 276 
550 295 296 276 
551 276 296 297 
552 276 297 277 
553 277 297 298 
554 277 298 278 
555 278 298 299 
556 278 299 279 
557 279 299 300 
558 279 300 280 
559 280 300 281 
560 280 281 261 
561 281 301 282 
562 301 302 282 
563 282 302 283 
564 302 303 283 
565 283 303 284 
566 303 304 284 
567 284 304 285 
568 304 305 285 
569 285 305 286 
570 305 306 286 
571 286 306 307 
572 286 307 287 
573 287 307 308 
574 287 308 288 
575 288 308 309 
576 288 309 289 
577 289 309 310 
578 289 310 290 
579 290 310 311 
580 290 311 291 
581 291 311 292 
582 311 312 292 
583 292 312 293 
584 312 313 293 
585 293 313 294 
586 313 314 294 
587 294 314 295 
588 314 315 295 
589 295 315 296 
590 315 316 296 
591 296 316 317 
592 296 317 297 
593 297 317 318 
594 297 318 298 
595 298 318 319 
596 298 319 299 
597 299 319 320 
598 299 320 300 
599 300 320 301 
600 300 301 281 
601 301 321 302 
602 321 322 302 
603 302 322 303 
604 322 323 303 
605 303 323 304 
606 323 324 304 
607 304 324 305 
608 324 325 305 
609 305 325 306 
610 325 326 306 
611 306 326 327 
612 306 327 307 
613 307 327 328 
614 307 328 308 
615 308 328 329 
616 308 329 309 
617 309 329 330 
618 309 330 310 
619 310 330 331 
620 310 331 311 
621 311 331 312 
622 331 332 312 
623 312 332 313 
624 332 333 313 
625 313 333 314 
626 333 334 314 
627 314 334 315 
628 334 335 315 
629 315 335 316 
630 335 336 316 
631 316 336 337 
632 316 337 317 
633 317 337 338 
634 317 338 318 
635 318 338 339 
636 318 339 319 
637 319 339 340 
638 319 340 320 
639 320 340 321 
640 320 321 301 
641 321 341 322 
642 341 342 322 
643 322 342 323 
644 342 343 323 
645 323 343 324 
646 343 344 324 
647 324 344 325 
648 344 345 325 
649 325 345 326 
650 345 346 326 
651 326 346 347 
652 326 347 327 
653 327 347 348 
654 327 348 328 
655 328 348 349 
656 328 349 329 
657 329 349 350 
658 329 350 330 
659 330 350 351 
660 330 351 331 
661 331 351 332 
662 351 352 332 
663 332 352 333 
664 352 353 333 
665 333 353 334 
666 353 354 334 
667 334 354 335 
668 354 355 335 
669 335 355 336 
670 355 356 336 
671 336 356 357 
672 336 357 337 
673 337 357 358 
674 337 358 338 
675 338 358 359 
676 338 359 339 
677 339 359 360 
678 339 360 340 
679 340 360 341 
680 340 341 321 
681 341 361 342 
682 361 362 342 
683 342 362 343 
684 362 363 343 
685 343 363 344 
686 363 364 344 
687 344 364 345 
688 364 365 345 
689 345 365 346 
690 365 366 346 
691 346 366 367 
692 346 367 347 
693 347 367 368 
694 347 368 348 
695 348 368 369 
696 348 369 349 
697 349 369 370 
698 349 370 350 
699 350 370 371 
700 350 371 351 
701 351 371 352 
702 371 372 352 
703 352 372 353 
704 372 373 353 
705 353 373 354 
706 373 374 354 
707 354 374 355 
708 374 375 355 
709 355 375 356 
710 375 376 356 
711 356 376 377 
712 356 377 357 
713 357 377 378 
714 357 378 358 
715 358 378 379 
716 358 379 359 
717 359 379 380 
718 359 380 360 
719 360 380 361 
720 360 361 341 
721 361 381 362 
722 381 382 362 
723 362 382 363 
724 382 383 363 
725 363 383 364 
726 383 384 364 
727 364 384 365 
728 384 385 365 
729 365 385 366 
730 385 386 366 
731 366 386 387 
732 366 387 367 
733 367 387 388 
734 367 388 368 
735 368 388 389 
736 368 389 369 
737 369 389 390 
738 369 390 370 
739 370 390 391 
740 370 391 371 
741 371 391 372 
742 391 392 372 
743 372 392 373 
744 392 393 373 
745 373 393 374 
746 393 394 374 
747 374 394 375 
748 394 395 375 
749 375 395 376 
750 395 396 376 
751 376 396 397 
752 376 397 377 
753 377 397 398 
754 377 398 378 
755 378 398 399 
756 378 399 379 
757 379 399 400 
758 379 400 380 
759 380 400 381 
760 380 381 361 
761 381 401 382 
762 382 401 402 
763 382 402 383 
764 383 402 403 
765 383 403 384 
766 384 403 404 
767 384 404 385 
768 385 404 405 
769 385 405 386 
770 386 405 387 
771 405 406 387 
772 387 406 388 
773 406 407 388 
774 388 407 389 
775 407 408 389 
776 389 408 390 
777 408 409 390 
778 390 409 391 
779 391 410 392 
780 392 410 411 
781 392 411 393 
782 393 411 412 
783 393 412 394 
784 394 412 413 
785 394 413 395 
786 395 413 414 
787 395 414 396 
788 396 414 397 
789 414 415 397 
790 397 415 398 
791 415 416 398 
792 398 416 399 
793 416 417 399 
794 399 417 400 
795 417 418 400 
796 400 418 381 
797 381 419 401 
798 401 419 420 
799 401 420 402 
800 402 420 421 
801 402 421 403 
802 403 421 422 
803 403 422 404 
804 404 422 423 
805 404 423 405 
806 405 423 406 
807 423 424 406 
808 406 424 407 
809 424 425 407 
810 407 425 408 
811 425 426 408 
812 408 426 409 
813 426 427 409 
814 409 427 391 
815 391 427 410 
816 410 427 426 
817 410 426 411 
818 411 426 425 
819 411 425 412 
820 412 425 424 
821 412 424 413 
822 413 424 423 
823 413 423 414 
824 414 423 415 
825 423 422 415 
826 415 422 416 
827 422 421 416 
828 416 421 417 
829 421 420 417 
830 417 420 418 
831 420 419 418 
832 418 419 381 
833 1 2 428 
834 428 2 429 
835 2 5 429 
836 429 5 430 
837 5 7 430 
838 430 7 431 
839 7 9 431 
840 431 9 432 
841 9 11 432 
842 432 11 433 
843 11 434 433 
844 11 14 434 
845 14 435 434 
846 14 16 435 
847 16 436 435 
848 16 18 436 
849 18 437 436 
850 18 20 437 
851 20 438 437 
852 20 22 438 
853 22 23 438 
854 438 23 439 
855 23 25 439 
856 439 25 440 
857 25 27 440 
858 440 27 441 
859 27 29 441 
860 441 29 442 
861 29 31 442 
862 442 31 443 
863 31 444 443 
864 31 34 444 
865 34 445 444 
866 34 36 445 
867 36 446 445 
868 36 38 446 
869 38 447 446 
870 38 40 447 
871 40 428 447 
872 40 1 428 
873 428 429 448 
874 448 429 449 
875 429 430 449 
876 449 430 450 
877 430 431 450 
878 450 431 451 
879 431 432 451 
880 451 432 452 
881 432 433 452 
882 452 433 453 
883 433 454 453 
884 433 434 454 
885 434 455 454 
886 434 435 455 
887 435 456 455 
888 435 436 456 
889 436 457 456 
890 436 437 457 
891 437 458 457 
892 437 438 458 
893 438 439 458 
894 458 439 459 
895 439 440 459 
896 459 440 460 
897 440 441 460 
898 460 441 461 
899 441 442 461 
900 461 442 462 
901 442 443 462 
902 462 443 463 
903 443 464 463 
904 443 444 464 
905 444 465 464 
906 444 445 465 
907 445 466 465 
908 445 446 466 
909 446 467 466 
910 446 447 467 
911 447 448 467 
912 447 428 448 
913 448 449 468 
914 468 449 469 
915 449 450 469 
916 469 450 470 
917 450 451 470 
918 470 451 471 
919 451 452 471 
920 471 452 472 
921 452 453 472 
922 472 453 473 
923 453 474 473 
924 453 454 474 
925 454 475 474 
926 454 455 475 
927 455 476 475 
928 455 456 476 
929 456 477 476 
930 456 457 477 
931 457 478 477 
932 457 458 478 
933 458 459 478 
934 478 459 479 
935 459 460 479 
936 479 460 480 
937 460 461 480 
938 480 461 481 
939 461 462 481 
940 481 462 482 
941 462 463 482 
942 482 463 483 
943 463 484 483 
944 463 464 484 
945 464 485 484 
946 464 465 485 
947 465 486 485 
948 465 466 486 
949 466 487 486 
950 466 467 487 
951 467 468 487 
952 467 448 468 
953 468 469 488 
954 488 469 489 
955 469 470 489 
956 489 470 490 
957 470 471 490 
958 490 471 491 
959 471 472 491 
960 491 472 492 
961 472 473 492 
962 492 473 493 
963 473 494 493 
964 473 474 494 
965 474 495 494 
966 474 475 495 
967 475 496 495 
968 475 476 496 
969 476 497 496 
970 476 477 497 
971 477 498 497 
972 477 478 498 
973 478 479 498 
974 498 479 499 
975 479 480 499 
976 499 480 500 
977 480 481 500 
978 500 481 501 
979 481 482 501 
980 501 482 502 
981 482 483 502 
982 502 483 503 
983 483 504 503 
984 483 484 504 
985 484 505 504 
986 484 485 505 
987 485 506 505 
988 485 486 506 
989 486 507 506 
990 486 487 507 
991 487 488 507 
992 487 468 488 
993 488 489 508 
994 508 489 509 
995 489 490 509 
996 509 490 510 
997 490 491 510 
998 510 491 511 
999 491 492 511 
1000 511 492 512 
1001 492 493 512 
1002 512 493 513 
1003 493 514 513 
1004 493 494 514 
1005 494 515 514 
1006 494 495 515 
1007 495 516 515 
1008 495 496 516 
1009 496 517 516 
1010 496 497 517 
1011 497 518 517 
1012 497 498 518 
1013 498 499 518 
1014 518 499 519 
1015 499 500 519 
1016 519 500 520 
1017 500 501 520 
1018 520 501 521 
1019 501 502 521 
1020 521 502 522 
1021 502 503 522 
1022 522 503 523 
1023 503 524 523 
1024 503 504 524 
1025 504 525 524 
1026 504 505 525 
1027 505 526 525 
1028 505 506 526 
1029 506 527 526 
1030 506 507 527 
1031 507 508 527 
1032 507 488 508 
1033 508 509 528 
1034 528 509 529 
1035 509 510 529 
1036 529 510 530 
1037 510 511 530 
1038 530 511 531 
1039 511 512 531 
1040 531 512 532 
1041 512 513 532 
1042 532 513 533 
1043 513 534 533 
1044 513 514 534 
1045 514 535 534 
1046 514 515 535 
1047 515 536 535 
1048 515 516 536 
1049 516 537 536 
1050 516 517 537 
1051 517 538 537 
1052 517 518 538 
1053 518 519 538 
1054 538 519 539 
1055 519 520 539 
1056 539 520 540 
1057 520 521 540 
1058 540 521 541 
1059 521 522 541 
1060 541 522 542 
1061 522 523 542 
1062 542 523 543 
1063 523 544 543 
1064 523 524 544 
1065 524 545 544 
1066 524 525 545 
1067 525 546 545 
1068 525 526 546 
1069 526 547 546 
1070 526 527 547 
1071 527 528 547 
1072 527 508 528 
1073 528 529 548 
1074 548 529 549 
1075 529 530 549 
1076 549 530 550 
1077 530 531 550 
1078 550 531 551 
1079 531 532 551 
1080 551 532 552 
1081 532 533 552 
1082 552 533 553 
1083 533 554 553 
1084 533 534 554 
1085 534 555 554 
1086 534 535 555 
1087 535 556 555 
1088 535 536 556 
1089 536 557 556 
1090 536 537 557 
1091 537 558 557 
1092 537 538 558 
1093 538 539 558 
1094 558 539 559 
1095 539 540 559 
1096 559 540 560 
1097 540 541 560 
1098 560 541 561 
1099 541 542 561 
1100 561 542 562 
1101 542 543 562 
1102 562 543 563 
1103 543 564 563 
1104 543 544 564 
1105 544 565 564 
1106 544 545 565 
1107 545 566 565 
1108 545 546 566 
1109 546 567 566 
1110 546 547 567 
1111 547 548 567 
1112 547 528 548 
1113 548 549 568 
1114 568 549 569 
1115 549 550 569 
1116 569 550 570 
1117 550 551 570 
1118 570 551 571 
1119 551 552 571 
1120 571 552 572 
1121 552 553 572 
1122 572 553 573 
1123 553 574 573 
1124 553 554 574 
1125 554 575 574 
1126 554 555 575 
1127 555 576 575 
1128 555 556 576 
1129 556 577 576 
1130 556 557 577 
1131 557 578 577 
1132 557 558 578 
1133 558 559 578 
1134 578 559 579 
1135 559 560 579 
1136 579 560 580 
1137 560 561 580 
1138 580 561 581 
1139 561 562 581 
1140 581 562 582 
1141 562 563 582 
1142 582 563 583 
1143 563 584 583 
1144 563 564 584 
1145 564 585 584 
1146 564 565 585 
1147 565 586 585 
1148 565 566 586 
1149 566 587 586 
1150 566 567 587 
1151 567 568 587 
1152 567 548 568 
1153 568 569 588 
1154 588 569 589 
1155 569 570 589 
1156 589 570 590 
1157 570 571 590 
1158 590 571 591 
1159 571 572 591 
1160 591 572 592 
1161 572 573 592 
1162 592 573 593 
1163 573 594 593 
1164 573 574 594 
1165 574 595 594 
1166 574 575 595 
1167 575 596 595 
1168 575 576 596 
1169 576 597 596 
1170 576 577 597 
1171 577 598 597 
1172 577 578 598 
1173 578 579 598 
1174 598 579 599 
1175 579 580 599 
1176 599 580 600 
1177 580 581 600 
1178 600 581 601 
1179 581 582 601 
1180 601 582 602 
1181 582 583 602 
1182 602 583 603 
1183 583 604 603 
1184 583 584 604 
1185 584 605 604 
1186 584 585 605 
1187 585 606 605 
1188 585 586 606 
1189 586 607 606 
1190 586 587 607 
1191 587 588 607 
1192 587 568 588 
1193 588 589 608 
1194 608 589 609 
1195 589 590 609 
1196 609 590 610 
1197 590 591 610 
1198 610 591 611 
1199 591 592 611 
1200 611 592 612 
1201 592 593 612 
1202 612 593 613 
1203 593 614 613 
1204 593 594 614 
1205 594 615 614 
1206 594 595 615 
1207 595 616 615 
1208 595 596 616 
1209 596 617 616 
1210 596 597 617 
1211 597 618 617 
1212 597 598 618 
1213 598 599 618 
1214 618 599 619 
1215 599 600 619 
1216 619 600 620 
1217 600 601 620 
1218 620 601 621 
1219 601 602 621 
1220 621 602 622 
1221 602 603 622 
1222 622 603 623 
1223 603 624 623 
1224 603 604 624 
1225 604 625 624 
1226 604 605 625 
1227 605 626 625 
1228 605 606 626 
1229 606 627 626 
1230 606 607 627 
1231 607 608 627 
1232 607 588 608 
1233 608 609 628 
1234 628 609 629 
1235 609 610 629 
1236 629 610 630 
1237 610 611 630 
1238 630 611 631 
1239 611 612 631 
1240 631 612 632 
1241 612 613 632 
1242 632 613 633 
1243 613 634 633 
1244 613 614 634 
1245 614 635 634 
1246 614 615 635 
1247 615 636 635 
1248 615 616 636 
1249 616 637 636 
1250 616 617 637 
1251 617 638 637 
1252 617 618 638 
1253 618 619 638 
1254 638 619 639 
1255 619 620 639 
1256 639 620 640 
1257 620 621 640 
1258 640 621 641 
1259 621 622 641 
1260 641 622 642 
1261 622 623 642 
1262 642 623 643 
1263 623 644 643 
1264 623 624 644 
1265 624 645 644 
1266 624 625 645 
1267 625 646 645 
1268 625 626 646 
1269 626 647 646 
1270 626 627 647 
1271 627 628 647 
1272 627 608 628 
1273 628 629 648 
1274 648 629 649 
1275 629 630 649 
1276 649 630 650 
1277 630 631 650 
1278 650 631 651 
1279 631 632 651 
1280 651 632 652 
1281 632 633 652 
1282 652 633 653 
1283 633 654 653 
1284 633 634 654 
1285 634 655 654 
1286 634 635 655 
1287 635 656 655 
1288 635 636 656 
1289 636 657 656 
1290 636 637 657 
1291 637 658 657 
1292 637 638 658 
1293 638 639 658 
1294 658 639 659 
1295 639 640 659 
1296 659 640 660 
1297 640 641 660 
1298 660 641 661 
1299 641 642 661 
1300 661 642 662 
1301 642 643 662 
1302 662 643 663 
1303 643 664 663 
1304 643 644 664 
1305 644 665 664 
1306 644 645 665 
1307 645 666 665 
1308 645 646 666 
1309 646 667 666 
1310 646 647 667 
1311 647 648 667 
1312 647 628 648 
1313 648 649 668 
1314 668 649 669 
1315 649 650 669 
1316 669 650 670 
1317 650 651 670 
1318 670 651 671 
1319 651 652 671 
1320 671 652 672 
1321 652 653 672 
1322 672 653 673 
1323 653 674 673 
1324 653 654 674 
1325 654 675 674 
1326 654 655 675 
1327 655 676 675 
1328 655 656 676 
1329 656 677 676 
1330 656 657 677 
1331 657 678 677 
1332 657 658 678 
1333 658 659 678 
1334 678 659 679 
1335 659 660 679 
1336 679 660 680 
1337 660 661 680 
1338 680 661 681 
1339 661 662 681 
1340 681 662 682 
1341 662 663 682 
1342 682 663 683 
1343 663 684 683 
1344 663 664 684 
1345 664 685 684 
1346 664 665 685 
1347 665 686 685 
1348 665 666 686 
1349 666 687 686 
1350 666 667 687 
1351 667 668 687 
1352 667 648 668 
1353 668 669 688 
1354 688 669 689 
1355 669 670 689 
1356 689 670 690 
1357 670 671 690 
1358 690 671 691 
1359 671 672 691 
1360 691 672 692 
1361 672 673 692 
1362 692 673 693 
1363 673 694 693 
1364 673 674 694 
1365 674 695 694 
1366 674 675 695 
1367 675 696 695 
1368 675 676 696 
1369 676 697 696 
1370 676 677 697 
1371 677 698 697 
1372 677 678 698 
1373 678 679 698 
1374 698 679 699 
1375 679 680 699 
1376 699 680 700 
1377 680 681 700 
1378 700 681 701 
1379 681 682 701 
1380 701 682 702 
1381 682 683 702 
1382 702 683 703 
1383 683 704 703 
1384 683 684 704 
1385 684 705 704 
1386 684 685 705 
1387 685 706 705 
1388 685 686 706 
1389 686 707 706 
1390 686 687 707 
1391 687 688 707 
1392 687 668 688 
1393 688 689 708 
1394 708 689 709 
1395 689 690 709 
1396 709 690 710 
1397 690 691 710 
1398 710 691 711 
1399 691 692 711 
1400 711 692 712 
1401 692 693 712 
1402 712 693 713 
1403 693 714 713 
1404 693 694 714 
1405 694 715 714 
1406 694 695 715 
1407 695 716 715 
1408 695 696 716 
1409 696 717 716 
1410 696 697 717 
1411 697 718 717 
1412 697 698 718 
1413 698 699 718 
1414 718 699 719 
1415 699 700 719 
1416 719 700 720 
1417 700 701 720 
1418 720 701 721 
1419 701 702 721 
1420 721 702 722 
1421 702 703 722 
1422 722 703 723 
1423 703 724 723 
1424 703 704 724 
1425 704 725 724 
1426 704 705 725 
1427 705 726 725 
1428 705 706 726 
1429 706 727 726 
1430 706 707 727 
1431 707 708 727 
1432 707 688 708 
1433 708 709 728 
1434 728 709 729 
1435 709 710 729 
1436 729 710 730 
1437 710 711 730 
1438 730 711 731 
1439 711 712 731 
1440 731 712 732 
1441 712 713 732 
1442 732 713 733 
1443 713 734 733 
1444 713 714 734 
1445 714 735 734 
1446 714 715 735 
1447 715 736 735 
1448 715 716 736 
1449 716 737 736 
1450 716 717 737 
1451 717 738 737 
1452 717 718 738 
1453 718 719 738 
1454 738 719 739 
1455 719 720 739 
1456 739 720 740 
1457 720 721 740 
1458 740 721 741 
1459 721 722 741 
1460 741 722 742 
1461 722 723 742 
1462 742 723 743 
1463 723 744 743 
1464 723 724 744 
1465 724 745 744 
1466 724 725 745 
1467 725 746 745 
1468 725 726 746 
1469 726 747 746 
1470 726 727 747 
1471 727 728 747 
1472 727 708 728 
1473 728 729 748 
1474 748 729 749 
1475 729 730 749 
1476 749 730 750 
1477 730 731 750 
1478 750 731 751 
1479 731 732 751 
1480 751 732 752 
1481 732 733 752 
1482 752 733 753 
1483 733 754 753 
1484 733 734 754 
1485 734 755 754 
1486 734 735 755 
1487 735 756 755 
1488 735 736 756 
1489 736 757 756 
1490 736 737 757 
1491 737 758 757 
1492 737 738 758 
1493 738 739 758 
1494 758 739 759 
1495 739 740 759 
1496 759 740 760 
1497 740 741 760 
1498 760 741 761 
1499 741 742 761 
1500 761 742 762 
1501 742 743 762 
1502 762 743 763 
1503 743 764 763 
1504 743 744 764 
1505 744 765 764 
1506 744 745 765 
1507 745 766 765 
1508 745 746 766 
1509 746 767 766 
1510 746 747 767 
1511 747 748 767 
1512 747 728 748 
1513 748 749 768 
1514 768 749 769 
1515 749 750 769 
1516 769 750 770 
1517 750 751 770 
1518 770 751 771 
1519 751 752 771 
1520 771 752 772 
1521 752 753 772 
1522 772 753 773 
1523 753 774 773 
1524 753 754 774 
1525 754 775 774 
1526 754 755 775 
1527 755 776 775 
1528 755 756 776 
1529 756 777 776 
1530 756 757 777 
1531 757 778 777 
1532 757 758 778 
1533 758 759 778 
1534 778 759 779 
1535 759 760 779 
1536 779 760 780 
1537 760 761 780 
1538 780 761 781 
1539 761 762 781 
1540 781 762 782 
1541 762 763 782 
1542 782 763 783 
1543 763 784 783 
1544 763 764 784 
1545 764 785 784 
1546 764 765 785 
1547 765 786 785 
1548 765 766 786 
1549 766 787 786 
1550 766 767 787 
1551 767 768 787 
1552 767 748 768 
1553 768 769 788 
1554 788 769 789 
1555 769 770 789 
1556 789 770 790 
1557 770 771 790 
1558 790 771 791 
1559 771 772 791 
1560 791 772 792 
1561 772 773 792 
1562 792 773 793 
1563 773 794 793 
1564 773 774 794 
1565 774 795 794 
1566 774 775 795 
1567 775 796 795 
1568 775 776 796 
1569 776 797 796 
1570 776 777 797 
1571 777 798 797 
1572 777 778 798 
1573 778 779 798 
1574 798 779 799 
1575 779 780 799 
1576 799 780 800 
1577 780 781 800 
1578 800 781 801 
1579 781 782 801 
1580 801 782 802 
1581 782 783 802 
1582 802 783 803 
1583 783 804 803 
1584 783 784 804 
1585 784 805 804 
1586 784 785 805 
1587 785 806 805 
1588 785 786 806 
1589 786 807 806 
1590 786 787 807 
1591 787 788 807 
1592 787 768 788 
1593 788 789 808 
1594 789 809 808 
1595 789 790 809 
1596 790 810 809 
1597 790 791 810 
1598 791 811 810 
1599 791 792 811 
1600 792 812 811 
1601 792 793 812 
1602 793 794 812 
1603 812 794 813 
1604 794 795 813 
1605 813 795 814 
1606 795 796 814 
1607 814 796 815 
1608 796 797 815 
1609 815 797 816 
1610 797 798 816 
1611 798 799 817 
1612 799 818 817 
1613 799 800 818 
1614 800 819 818 
1615 800 801 819 
1616 801 820 819 
1617 801 802 820 
1618 802 821 820 
1619 802 803 821 
1620 803 804 821 
1621 821 804 822 
1622 804 805 822 
1623 822 805 823 
1624 805 806 823 
1625 823 806 824 
1626 806 807 824 
1627 824 807 825 
1628 807 788 825 
1629 788 808 826 
1630 808 827 826 
1631 808 809 827 
1632 809 828 827 
1633 809 810 828 
1634 810 829 828 
1635 810 811 829 
1636 811 830 829 
1637 811 812 830 
1638 812 813 830 
1639 830 813 831 
1640 813 814 831 
1641 831 814 832 
1642 814 815 832 
1643 832 815 833 
1644 815 816 833 
1645 833 816 834 
1646 816 798 834 
1647 798 817 834 
1648 817 833 834 
1649 817 818 833 
1650 818 832 833 
1651 818 819 832 
1652 819 831 832 
1653 819 820 831 
1654 820 830 831 
1655 820 821 830 
1656 821 822 830 
1657 830 822 829 
1658 822 823 829 
1659 829 823 828 
1660 823 824 828 
1661 828 824 827 
1662 824 825 827 
1663 827 825 826 
1664 825 788 826 
$EndElements
