$MeshFormat
4.1 0 8
$EndMeshFormat
$Entities
0 0 1 0
0 0 -30.4979147276 -0.4995905094999999 10 30.4979147276 0.7214996075 0 0 
$EndEntities
$Nodes
1 1402 1 1402
2 0 0 1402
1
2
3
4
5
6
7
8
9
10
11
12
13
14
15
16
17
18
19
20
21
22
23
24
25
26
27
28
29
30
31
32
33
34
35
36
37
38
39
40
41
42
43
44
45
46
47
48
49
50
51
52
53
54
55
56
57
58
59
60
61
62
63
64
65
66
67
68
69
70
71
72
73
74
75
76
77
78
79
80
81
82
83
84
85
86
87
88
89
90
91
92
93
94
95
96
97
98
99
100
101
102
103
104
105
106
107
108
109
110
111
112
113
114
115
116
117
118
119
120
121
122
123
124
125
126
127
128
129
130
131
132
133
134
135
136
137
138
139
140
141
142
143
144
145
146
147
148
149
150
151
152
153
154
155
156
157
158
159
160
161
162
163
164
165
166
167
168
169
170
171
172
173
174
175
176
177
178
179
180
181
182
183
184
185
186
187
188
189
190
191
192
193
194
195
196
197
198
199
200
201
202
203
204
205
206
207
208
209
210
211
212
213
214
215
216
217
218
219
220
221
222
223
224
225
226
227
228
229
230
231
232
233
234
235
236
237
238
239
240
241
242
243
244
245
246
247
248
249
250
251
252
253
254
255
256
257
258
259
260
261
262
263
264
265
266
267
268
269
270
271
272
273
274
275
276
277
278
279
280
281
282
283
284
285
286
287
288
289
290
291
292
293
294
295
296
297
298
299
300
301
302
303
304
305
306
307
308
309
310
311
312
313
314
315
316
317
318
319
320
321
322
323
324
325
326
327
328
329
330
331
332
333
334
335
336
337
338
339
340
341
342
343
344
345
346
347
348
349
350
351
352
353
354
355
356
357
358
359
360
361
362
363
364
365
366
367
368
369
370
371
372
373
374
375
376
377
378
379
380
381
382
383
384
385
386
387
388
389
390
391
392
393
394
395
396
397
398
399
400
401
402
403
404
405
406
407
408
409
410
411
412
413
414
415
416
417
418
419
420
421
422
423
424
425
426
427
428
429
430
431
432
433
434
435
436
437
438
439
440
441
442
443
444
445
446
447
448
449
450
451
452
453
454
455
456
457
458
459
460
461
462
463
464
465
466
467
468
469
470
471
472
473
474
475
476
477
478
479
480
481
482
483
484
485
486
487
488
489
490
491
492
493
494
495
496
497
498
499
500
501
502
503
504
505
506
507
508
509
510
511
512
513
514
515
516
517
518
519
520
521
522
523
524
525
526
527
528
529
530
531
532
533
534
535
536
537
538
539
540
541
542
543
544
545
546
547
548
549
550
551
552
553
554
555
556
557
558
559
560
561
562
563
564
565
566
567
568
569
570
571
572
573
574
575
576
577
578
579
580
581
582
583
584
585
586
587
588
589
590
591
592
593
594
595
596
597
598
599
600
601
602
603
604
605
606
607
608
609
610
611
612
613
614
615
616
617
618
619
620
621
622
623
624
625
626
627
628
629
630
631
632
633
634
635
636
637
638
639
640
641
642
643
644
645
646
647
648
649
650
651
652
653
654
655
656
657
658
659
660
661
662
663
664
665
666
667
668
669
670
671
672
673
674
675
676
677
678
679
680
681
682
683
684
685
686
687
688
689
690
691
692
693
694
695
696
697
698
699
700
701
702
703
704
705
706
707
708
709
710
711
712
713
714
715
716
717
718
719
720
721
722
723
724
725
726
727
728
729
730
731
732
733
734
735
736
737
738
739
740
741
742
743
744
745
746
747
748
749
750
751
752
753
754
755
756
757
758
759
760
761
762
763
764
765
766
767
768
769
770
771
772
773
774
775
776
777
778
779
780
781
782
783
784
785
786
787
788
789
790
791
792
793
794
795
796
797
798
799
800
801
802
803
804
805
806
807
808
809
810
811
812
813
814
815
816
817
818
819
820
821
822
823
824
825
826
827
828
829
830
831
832
833
834
835
836
837
838
839
840
841
842
843
844
845
846
847
848
849
850
851
852
853
854
855
856
857
858
859
860
861
862
863
864
865
866
867
868
869
870
871
872
873
874
875
876
877
878
879
880
881
882
883
884
885
886
887
888
889
890
891
892
893
894
895
896
897
898
899
900
901
902
903
904
905
906
907
908
909
910
911
912
913
914
915
916
917
918
919
920
921
922
923
924
925
926
927
928
929
930
931
932
933
934
935
936
937
938
939
940
941
942
943
944
945
946
947
948
949
950
951
952
953
954
955
956
957
958
959
960
961
962
963
964
965
966
967
968
969
970
971
972
973
974
975
976
977
978
979
980
981
982
983
984
985
986
987
988
989
990
991
992
993
994
995
996
997
998
999
1000
1001
1002
1003
1004
1005
1006
1007
1008
1009
1010
1011
1012
1013
1014
1015
1016
1017
1018
1019
1020
1021
1022
1023
1024
1025
1026
1027
1028
1029
1030
1031
1032
1033
1034
1035
1036
1037
1038
1039
1040
1041
1042
1043
1044
1045
1046
1047
1048
1049
1050
1051
1052
1053
1054
1055
1056
1057
1058
1059
1060
1061
1062
1063
1064
1065
1066
1067
1068
1069
1070
1071
1072
1073
1074
1075
1076
1077
1078
1079
1080
1081
1082
1083
1084
1085
1086
1087
1088
1089
1090
1091
1092
1093
1094
1095
1096
1097
1098
1099
1100
1101
1102
1103
1104
1105
1106
1107
1108
1109
1110
1111
1112
1113
1114
1115
1116
1117
1118
1119
1120
1121
1122
1123
1124
1125
1126
1127
1128
1129
1130
1131
1132
1133
1134
1135
1136
1137
1138
1139
1140
1141
1142
1143
1144
1145
1146
1147
1148
1149
1150
1151
1152
1153
1154
1155
1156
1157
1158
1159
1160
1161
1162
1163
1164
1165
1166
1167
1168
1169
1170
1171
1172
1173
1174
1175
1176
1177
1178
1179
1180
1181
1182
1183
1184
1185
1186
1187
1188
1189
1190
1191
1192
1193
1194
1195
1196
1197
1198
1199
1200
1201
1202
1203
1204
1205
1206
1207
1208
1209
1210
1211
1212
1213
1214
1215
1216
1217
1218
1219
1220
1221
1222
1223
1224
1225
1226
1227
1228
1229
1230
1231
1232
1233
1234
1235
1236
1237
1238
1239
1240
1241
1242
1243
1244
1245
1246
1247
1248
1249
1250
1251
1252
1253
1254
1255
1256
1257
1258
1259
1260
1261
1262
1263
1264
1265
1266
1267
1268
1269
1270
1271
1272
1273
1274
1275
1276
1277
1278
1279
1280
1281
1282
1283
1284
1285
1286
1287
1288
1289
1290
1291
1292
1293
1294
1295
1296
1297
1298
1299
1300
1301
1302
1303
1304
1305
1306
1307
1308
1309
1310
1311
1312
1313
1314
1315
1316
1317
1318
1319
1320
1321
1322
1323
1324
1325
1326
1327
1328
1329
1330
1331
1332
1333
1334
1335
1336
1337
1338
1339
1340
1341
1342
1343
1344
1345
1346
1347
1348
1349
1350
1351
1352
1353
1354
1355
1356
1357
1358
1359
1360
1361
1362
1363
1364
1365
1366
1367
1368
1369
1370
1371
1372
1373
1374
1375
1376
1377
1378
1379
1380
1381
1382
1383
1384
1385
1386
1387
1388
1389
1390
1391
1392
1393
1394
1395
1396
1397
1398
1399
1400
1401
1402
10 0 0
9.809683939699999 0 -0.0231612846
10 1.5 0
9.8096537855 1.5 -0.0231084433
9.5360930115 0 -0.0555629297
9.536020553 1.5 -0.055440975
9.1508848018 0 -0.0994460717
9.1507547236 1.5 -0.0992401616
8.624124941 0 -0.1562975005
8.623919370199999 1.5 -0.1560011704
7.9318519219 0 -0.225626444
7.9315522362 1.5 -0.2252530703
7.0680554484 0 -0.3033844848
7.0676455004 1.5 -0.302983331
6.0573660438 0 -0.3808356507
6.0568357933 1.5 -0.3805065121
4.9600505306 0 -0.4447830501
4.9593979587 1.5 -0.4446885349
3.8607079663 1.5 -0.4811017397
3.8614805164 0 -0.480743787
2.8469882621 1.5 -0.4797144122
2.8478837757 0 -0.4786683018
1.9806252173 1.5 -0.4393547609
1.9816625451 0 -0.4374202039
1.2880491449 1.5 -0.3727405814
1.2892318175 0 -0.3701008559
0.7627222316 1.5 -0.3036197604
0.7639262266 0 -0.30127203
0.3818503449 1.5 -0.2316948465
0.3828904156 0 -0.2303224516
0.1230722643 1.5 -0.1394520749
0.1237988613 0 -0.138976105
0 1.5 0
0 0 0
0.0566127364 0 0.1794091329
0.0592454456 1.5 0.1778634514
0.2749135578 0 0.3527075146
0.27927233 1.5 0.3479606564
0.6363921675 0 0.5085466752
0.6415648754 1.5 0.5005306733
1.1604297469 0 0.6318068939
1.1656871778 1.5 0.6213613175
1.8641771648 0 0.702294563
1.869014106 1.5 0.690985402
2.7459342289 0 0.7214996075
2.7501361926 1.5 0.7104041526
3.7764201563 0 0.6934794015
3.7799006242 1.5 0.6832005735
4.8920254621 0 0.6220754867
4.8947741436 1.5 0.6131163497
6.0074262383 1.5 0.5136549773
6.005355986 0 0.5209919299
7.031603315 1.5 0.4027368084
7.0301163058 0 0.4083881451
7.9065318381 1.5 0.2960002091
7.9055146607 0 0.3000971163
8.607489021299999 1.5 0.2032611122
8.606829836899999 0 0.2060448077
9.1407188589 1.5 0.1284989947
9.140320733599999 0 0.1302448435
9.5305806111 1.5 0.07146463879999999
9.530366756899999 0 0.0724299442
9.8074349372 1.5 0.0296935527
9.80734831 0 0.0300929787
10 3 0
9.809623631299999 3 -0.0230556019
9.5359480946 3 -0.0553190204
9.150624645500001 3 -0.0990342514
8.623713799400001 3 -0.1557048403
7.9312525506 3 -0.2248796967
7.0672355525 3 -0.3025821773
6.0563055427 3 -0.3801773735
4.9587453867 3 -0.4445940197
3.8599354162 3 -0.4814596924
2.8460927484 3 -0.4807605226
1.9795878894 3 -0.4412893179
1.2868664722 3 -0.3753803069
0.7615182366 3 -0.3059674907
0.3808102742 3 -0.2330672415
0.1223456672 3 -0.1399280448
0 3 0
0.0618781547 3 0.1763177699
0.2836311022 3 0.3432137982
0.6467375834 3 0.4925146714
1.1709446087 3 0.6109157411
1.8738510472 3 0.6796762411
2.7543381563 3 0.6993086977
3.7833810921 3 0.6729217454999999
4.8975228251 3 0.6041572127
6.0094964907 3 0.5063180248
7.0330903241 3 0.3970854716
7.9075490154 3 0.2919033018
8.608148205699999 3 0.2004774167
9.1411169842 3 0.126753146
9.5307944654 3 0.0704993334
9.8075215645 3 0.0292941266
10 4.5 0
9.8095934771 4.5 -0.0230027606
9.5358756361 4.5 -0.0551970657
9.150494567399999 4.5 -0.0988283413
8.6235082285 4.5 -0.1554085101
7.9309528649 4.5 -0.2245063231
7.0668256045 4.5 -0.3021810236
6.0557752921 4.5 -0.3798482349
4.9580928148 4.5 -0.4444995046
3.8591628661 4.5 -0.4818176451
2.8451972348 4.5 -0.4818066329
1.9785505616 4.5 -0.4432238749
1.2856837996 4.5 -0.3780200324
0.7603142416000001 4.5 -0.3083152211
0.3797702035 4.5 -0.2344396365
0.1216190701 4.5 -0.1404040147
0 4.5 0
0.06451086390000001 4.5 0.1747720884
0.2879898744 4.5 0.3384669401
0.6519102913 4.5 0.4844986695
1.1762020396 4.5 0.6004701647
1.8786879883 4.5 0.6683670802
2.75854012 4.5 0.6882132428
3.78686156 4.5 0.6626429175
4.9002715065 4.5 0.5951980757000001
6.011566743 4.5 0.4989810722
7.0345773333 4.5 0.3914341349
7.9085661928 4.5 0.2878063946
8.608807390100001 4.5 0.1976937212
9.1415151094 4.5 0.1250072973
9.5310083197 4.5 0.06953402810000001
9.8076081918 4.5 0.0288947006
10 6 0
9.809563322900001 6 -0.0229499192
9.5358031776 6 -0.0550751111
9.150364489199999 6 -0.0986224311
8.6233026577 6 -0.15511218
7.9306531792 6 -0.2241329495
7.0664156565 6 -0.3017798699
6.0552450416 6 -0.3795190963
4.9574402428 6 -0.4444049894
3.858390316 6 -0.4821755978
2.8443017211 6 -0.4828527433
1.9775132337 6 -0.445158432
1.284501127 6 -0.3806597579
0.7591102466 6 -0.3106629514
0.3787301328 6 -0.2358120314
0.1208924731 6 -0.1408799846
0 6 0
0.06714357310000001 6 0.173226407
0.2923486465 6 0.3337200819
0.6570829993 6 0.4764826676
1.1814594705 6 0.5900245883
1.8835249295 6 0.6570579192
2.7627420837 6 0.6771177879
3.7903420279 6 0.6523640894
4.903020188 6 0.5862389387
6.0136369954 6 0.4916441196
7.0360643424 6 0.3857827982
7.9095833702 6 0.2837094874
8.609466574500001 6 0.1949100257
9.141913234700001 6 0.1232614485
9.5312221739 6 0.0685687227
9.8076948191 6 0.0284952745
10 7.5 0
9.8095331686 7.5 -0.0228970779
9.5357307192 7.5 -0.0549531564
9.1502344111 7.5 -0.09841652100000001
8.6230970869 7.5 -0.1548158499
7.9303534935 7.5 -0.2237595759
7.0660057085 7.5 -0.3013787162
6.054714791 7.5 -0.3791899577
4.9567876709 7.5 -0.4443104742
3.8576177659 7.5 -0.4825335505
2.8434062075 7.5 -0.4838988537
1.9764759059 7.5 -0.447092989
1.2833184544 7.5 -0.3832994834
0.7579062515 7.5 -0.3130106818
0.3776900621 7.5 -0.2371844264
0.120165876 7.5 -0.1413559545
0 7.5 0
0.06977628230000001 7.5 0.1716807255
0.2967074187 7.5 0.3289732237
0.6622557072 7.5 0.4684666657
1.1867169014 7.5 0.5795790119000001
1.8883618707 7.5 0.6457487583
2.7669440474 7.5 0.666022333
3.7938224958 7.5 0.6420852614
4.9057688695 7.5 0.5772798017
6.0157072477 7.5 0.4843071671
7.0375513516 7.5 0.3801314614
7.9106005476 7.5 0.2796125801
8.610125758900001 7.5 0.1921263302
9.142311360000001 7.5 0.1215155998
9.5314360282 7.5 0.0676034173
9.8077814463 7.5 0.0280958485
10 9 0
9.809503014400001 9 -0.0228442365
9.5356582607 9 -0.0548312018
9.150104333 9 -0.0982106108
8.622891516099999 9 -0.1545195198
7.9300538079 9 -0.2233862023
7.0655957605 9 -0.3009775625
6.0541845405 9 -0.378860819
4.9561350989 9 -0.4442159591
3.8568452158 9 -0.4828915032
2.8425106939 9 -0.4849449641
1.9754385781 9 -0.449027546
1.2821357818 9 -0.3859392089
0.7567022565 9 -0.3153584121
0.3766499914 9 -0.2385568214
0.1194392789 9 -0.1418319244
0 9 0
0.07240899150000001 9 0.170135044
0.3010661909 9 0.3242263655
0.6674284152 9 0.4604506638
1.1919743324 9 0.5691334355
1.8931988119 9 0.6344395974
2.7711460111 9 0.6549268781000001
3.7973029637 9 0.6318064334
4.908517551 9 0.5683206647
6.0177775 9 0.4769702145
7.0390383607 9 0.3744801247
7.911617725 9 0.2755156729
8.610784943300001 9 0.1893426348
9.142709485299999 9 0.119769751
9.5316498825 9 0.066638112
9.8078680736 9 0.0276964224
10 10.5 0
9.8094728602 10.5 -0.0227913952
9.5355858022 10.5 -0.0547092471
9.1499742549 10.5 -0.0980047007
8.622685945300001 10.5 -0.1542231896
7.9297541222 10.5 -0.2230128287
7.0651858125 10.5 -0.3005764088
6.0536542899 10.5 -0.3785316804
4.955482527 10.5 -0.4441214439
3.8560726657 10.5 -0.4832494559
2.8416151802 10.5 -0.4859910745
1.9744012502 10.5 -0.450962103
1.2809531092 10.5 -0.3885789344
0.7554982615 10.5 -0.3177061425
0.3756099207 10.5 -0.2399292163
0.1187126819 10.5 -0.1423078943
0 10.5 0
0.0750417006 10.5 0.1685893625
0.3054249631 10.5 0.3194795073
0.6726011231 10.5 0.4524346619
1.1972317633 10.5 0.5586878591
1.898035753 10.5 0.6231304365
2.7753479748 10.5 0.6438314232
3.8007834316 10.5 0.6215276054
4.9112662325 10.5 0.5593615277
6.0198477524 10.5 0.4696332619
7.0405253699 10.5 0.368828788
7.9126349024 10.5 0.2714187657
8.6114441277 10.5 0.1865589393
9.1431076105 10.5 0.1180239023
9.5318637367 10.5 0.06567280659999999
9.8079547009 10.5 0.0272969963
10 12 0
9.809442706 12 -0.0227385538
9.5355133437 12 -0.0545872925
9.1498441767 12 -0.0977987905
8.6224803745 12 -0.1539268595
7.9294544365 12 -0.2226394551
7.0647758646 12 -0.3001752551
6.0531240394 12 -0.3782025418
4.9548299551 12 -0.4440269287
3.8553001156 12 -0.4836074086
2.8407196666 12 -0.4870371849
1.9733639224 12 -0.4528966601
1.2797704365 12 -0.3912186599
0.7542942665 12 -0.3200538729
0.37456985 12 -0.2413016113
0.1179860848 12 -0.1427838642
0 12 0
0.0776744098 12 0.167043681
0.3097837353 12 0.3147326491
0.677773831 12 0.44441866
1.2024891942 12 0.5482422827
1.9028726942 12 0.6118212755
2.7795499385 12 0.6327359683
3.8042638995 12 0.6112487774000001
4.9140149139 12 0.5504023907
6.0219180047 12 0.4622963093
7.042012379 12 0.3631774513
7.9136520798 12 0.2673218585
8.612103312 12 0.1837752438
9.1435057358 12 0.1162780535
9.532077591 12 0.0647075012
9.8080413282 12 0.0268975703
10 13.5 0
9.809412551799999 13.5 -0.0226857125
9.5354408853 13.5 -0.0544653378
9.149714098600001 13.5 -0.0975928803
8.6222748037 13.5 -0.1536305294
7.9291547508 13.5 -0.2222660814
7.0643659166 13.5 -0.2997741013
6.0525937888 13.5 -0.3778734032
4.9541773831 13.5 -0.4439324136
3.8545275655 13.5 -0.4839653613
2.839824153 13.5 -0.4880832953
1.9723265945 13.5 -0.4548312171
1.2785877639 13.5 -0.3938583854
0.7530902715 13.5 -0.3224016032
0.3735297793 13.5 -0.2426740063
0.1172594877 13.5 -0.1432598341
0 13.5 0
0.080307119 13.5 0.1654979995
0.3141425075 13.5 0.3099857909
0.682946539 13.5 0.436402658
1.2077466251 13.5 0.5377967063
1.9077096354 13.5 0.6005121146
2.7837519022 13.5 0.6216405134
3.8077443674 13.5 0.6009699493
4.9167635954 13.5 0.5414432537
6.023988257 13.5 0.4549593568
7.0434993881 13.5 0.3575261145
7.9146692572 13.5 0.2632249512
8.6127624964 13.5 0.1809915483
9.1439038611 13.5 0.1145322048
9.5322914452 13.5 0.0637421958
9.8081279554 13.5 0.0264981442
10 15 0
9.8093823976 15 -0.0226328711
9.5353684268 15 -0.0543433832
9.149584020500001 15 -0.09738697020000001
8.622069232899999 15 -0.1533341993
7.9288550652 15 -0.2218927078
7.0639559686 15 -0.2993729476
6.0520635383 15 -0.3775442646
4.9535248112 15 -0.4438378984
3.8537550154 15 -0.484323314
2.8389286393 15 -0.4891294056
1.9712892667 15 -0.4567657741
1.2774050913 15 -0.3964981109
0.7518862765 15 -0.3247493336
0.3724897086 15 -0.2440464012
0.1165328907 15 -0.143735804
0 15 0
0.0829398282 15 0.163952318
0.3185012797 15 0.3052389328
0.6881192469 15 0.4283866561
1.213004056 15 0.5273511299
1.9125465766 15 0.5892029537
2.7879538659 15 0.6105450585
3.8112248353 15 0.5906911213
4.9195122769 15 0.5324841167
6.0260585094 15 0.4476224042
7.0449863973 15 0.3518747778
7.9156864345 15 0.259128044
8.6134216808 15 0.1782078528
9.1443019864 15 0.1127863561
9.5325052995 15 0.0627768905
9.8082145827 15 0.0260987182
10 16.5 0
9.809352243399999 16.5 -0.0225800298
9.5352959683 16.5 -0.0542214285
9.149453942299999 16.5 -0.09718106
8.621863662000001 16.5 -0.1530378692
7.9285553795 16.5 -0.2215193342
7.0635460206 16.5 -0.2989717939
6.0515332877 16.5 -0.377215126
4.9528722392 16.5 -0.4437433832
3.8529824653 16.5 -0.4846812667
2.8380331257 16.5 -0.490175516
1.9702519389 16.5 -0.4587003312
1.2762224187 16.5 -0.3991378364
0.7506822815 16.5 -0.3270970639
0.3714496379 16.5 -0.2454187962
0.1158062936 16.5 -0.144211774
0 16.5 0
0.0855725374 16.5 0.1624066365
0.3228600519 16.5 0.3004920746
0.6932919549 16.5 0.4203706542
1.2182614869 16.5 0.5169055535
1.9173835177 16.5 0.5778937928
2.7921558296 16.5 0.5994496036
3.8147053032 16.5 0.5804122933
4.9222609584 16.5 0.5235249797
6.0281287617 16.5 0.4402854516
7.0464734064 16.5 0.3462234411
7.9167036119 16.5 0.2550311368
8.6140808652 16.5 0.1754241574
9.144700111700001 16.5 0.1110405073
9.5327191538 16.5 0.0618115851
9.80830121 16.5 0.0256992921
10 18 0
9.8093220892 18 -0.0225271884
9.5352235099 18 -0.0540994739
9.149323864199999 18 -0.0969751499
8.6216580912 18 -0.152741539
7.9282556938 18 -0.2211459606
7.0631360726 18 -0.2985706402
6.0510030371 18 -0.3768859874
4.9522196673 18 -0.4436488681
3.8522099152 18 -0.4850392194
2.8371376121 18 -0.4912216264
1.969214611 18 -0.4606348882
1.2750397461 18 -0.4017775619
0.7494782864 18 -0.3294447943
0.3704095672 18 -0.2467911912
0.1150796965 18 -0.1446877439
0 18 0
0.0882052465 18 0.1608609551
0.3272188241 18 0.2957452164
0.6984646628 18 0.4123546523
1.2235189178 18 0.5064599771
1.9222204589 18 0.5665846318
2.7963577934 18 0.5883541487
3.8181857711 18 0.5701334653
4.9250096399 18 0.5145658427000001
6.030199014 18 0.432948499
7.0479604156 18 0.3405721043
7.9177207893 18 0.2509342295
8.6147400496 18 0.1726404619
9.145098236899999 18 0.1092946586
9.532933008000001 18 0.0608462797
9.8083878373 18 0.025299866
10 19.5 0
9.809291934999999 19.5 -0.0224743471
9.5351510514 19.5 -0.0539775192
9.1491937861 19.5 -0.0967692397
8.6214525204 19.5 -0.1524452089
7.9279560081 19.5 -0.220772587
7.0627261246 19.5 -0.2981694865
6.0504727866 19.5 -0.3765568488
4.9515670953 19.5 -0.4435543529
3.8514373651 19.5 -0.4853971721
2.8362420984 19.5 -0.4922677368
1.9681772832 19.5 -0.4625694452
1.2738570735 19.5 -0.4044172874
0.7482742914 19.5 -0.3317925246
0.3693694965 19.5 -0.2481635861
0.1143530995 19.5 -0.1451637138
0 19.5 0
0.0908379557 19.5 0.1593152736
0.3315775963 19.5 0.2909983582
0.7036373707 19.5 0.4043386504
1.2287763487 19.5 0.4960144007
1.9270574001 19.5 0.5552754709
2.8005597571 19.5 0.5772586937999999
3.821666239 19.5 0.5598546371999999
4.9277583213 19.5 0.5056067057
6.0322692664 19.5 0.4256115465
7.0494474247 19.5 0.3349207676
7.9187379667 19.5 0.2468373223
8.615399234 19.5 0.1698567664
9.145496362199999 19.5 0.1075488098
9.533146862300001 19.5 0.0598809743
9.8084744645 19.5 0.02490044
10 21 0
9.8092617807 21 -0.0224215057
9.5350785929 21 -0.0538555646
9.1490637079 21 -0.0965633296
8.6212469496 21 -0.1521488788
7.9276563225 21 -0.2203992134
7.0623161767 21 -0.2977683328
6.049942536 21 -0.3762277101
4.9509145234 21 -0.4434598377
3.850664815 21 -0.4857551249
2.8353465848 21 -0.4933138472
1.9671399553 21 -0.4645040022
1.2726744008 21 -0.407057013
0.7470702964 21 -0.334140255
0.3683294258 21 -0.2495359811
0.1136265024 21 -0.1456396837
0 21 0
0.0934706649 21 0.1577695921
0.3359363684 21 0.2862515
0.7088100787 21 0.3963226485
1.2340337797 21 0.4855688243
1.9318943413 21 0.54396631
2.8047617208 21 0.5661632389
3.8251467069 21 0.5495758092
4.9305070028 21 0.4966475687
6.0343395187 21 0.4182745939
7.0509344339 21 0.3292694309
7.9197551441 21 0.2427404151
8.6160584184 21 0.1670730709
9.1458944875 21 0.1058029611
9.533360716500001 21 0.058915669
9.8085610918 21 0.0245010139
10 22.5 0
9.809231626500001 22.5 -0.0223686643
9.5350061345 22.5 -0.0537336099
9.1489336298 22.5 -0.09635741940000001
8.621041378799999 22.5 -0.1518525487
7.9273566368 22.5 -0.2200258398
7.0619062287 22.5 -0.2973671791
6.0494122855 22.5 -0.3758985715
4.9502619514 22.5 -0.4433653225
3.8498922649 22.5 -0.4861130776
2.8344510712 22.5 -0.4943599576
1.9661026275 22.5 -0.4664385593
1.2714917282 22.5 -0.4096967385
0.7458663014 22.5 -0.3364879853
0.3672893551 22.5 -0.2509083761
0.1128999053 22.5 -0.1461156536
0 22.5 0
0.0961033741 22.5 0.1562239106
0.3402951406 22.5 0.2815046418
0.7139827866 22.5 0.3883066466
1.2392912106 22.5 0.4751232479
1.9367312824 22.5 0.5326571490000001
2.8089636845 22.5 0.555067784
3.8286271748 22.5 0.5392969812
4.9332556843 22.5 0.4876884317
6.036409771 22.5 0.4109376413
7.052421443 22.5 0.3236180942
7.9207723215 22.5 0.2386435078
8.6167176028 22.5 0.1642893754
9.1462926128 22.5 0.1040571123
9.533574570800001 22.5 0.0579503636
9.8086477191 22.5 0.0241015879
10 24 0
9.8092014723 24 -0.022315823
9.534933676 24 -0.0536116553
9.1488035517 24 -0.0961515092
8.620835808000001 24 -0.1515562185
7.9270569511 24 -0.2196524661
7.0614962807 24 -0.2969660254
6.0488820349 24 -0.3755694329
4.9496093795 24 -0.4432708074
3.8491197148 24 -0.4864710303
2.8335555575 24 -0.495406068
1.9650652997 24 -0.4683731163
1.2703090556 24 -0.412336464
0.7446623064 24 -0.3388357157
0.3662492844 24 -0.252280771
0.1121733082 24 -0.1465916235
0 24 0
0.0987360833 24 0.1546782291
0.3446539128 24 0.2767577836
0.7191554945999999 24 0.3802906447
1.2445486415 24 0.4646776715
1.9415682236 24 0.5213479881
2.8131656482 24 0.5439723291
3.8321076427 24 0.5290181532
4.9360043658 24 0.4787292947
6.0384800234 24 0.4036006888
7.0539084522 24 0.3179667574
7.9217894989 24 0.2345466006
8.6173767872 24 0.16150568
9.1466907381 24 0.1023112636
9.533788425099999 24 0.0569850582
9.8087343464 24 0.0237021618
10 25.5 0
9.809171318100001 25.5 -0.0222629816
9.5348612175 25.5 -0.0534897007
9.148673473600001 25.5 -0.0959455991
8.6206302372 25.5 -0.1512598884
7.9267572654 25.5 -0.2192790925
7.0610863327 25.5 -0.2965648716
6.0483517844 25.5 -0.3752402943
4.9489568075 25.5 -0.4431762922
3.8483471647 25.5 -0.486828983
2.8326600439 25.5 -0.4964521783
1.9640279718 25.5 -0.4703076733
1.269126383 25.5 -0.4149761895
0.7434583114 25.5 -0.341183446
0.3652092137 25.5 -0.253653166
0.1114467112 25.5 -0.1470675934
0 25.5 0
0.1013687924 25.5 0.1531325476
0.349012685 25.5 0.2720109255
0.7243282025 25.5 0.3722746428
1.2498060724 25.5 0.4542320952
1.9464051648 25.5 0.5100388272
2.8173676119 25.5 0.5328768742
3.8355881106 25.5 0.5187393252
4.9387530473 25.5 0.4697701577
6.0405502757 25.5 0.3962637362
7.0553954613 25.5 0.3123154207
7.9228066763 25.5 0.2304496934
8.618035971499999 25.5 0.1587219845
9.1470888633 25.5 0.1005654149
9.534002279299999 25.5 0.0560197528
9.8088209736 25.5 0.0233027358
10 27 0
9.8091411639 27 -0.0222101403
9.5347887591 27 -0.053367746
9.148543395400001 27 -0.09573968889999999
8.6204246663 27 -0.1509635583
7.9264575798 27 -0.2189057189
7.0606763847 27 -0.2961637179
6.0478215338 27 -0.3749111557
4.9483042356 27 -0.443081777
3.8475746146 27 -0.4871869357
2.8317645302 27 -0.4974982887
1.962990644 27 -0.4722422303
1.2679437104 27 -0.417615915
0.7422543163999999 27 -0.3435311764
0.364169143 27 -0.255025561
0.1107201141 27 -0.1475435633
0 27 0
0.1040015016 27 0.1515868661
0.3533714572 27 0.2672640673
0.7295009105 27 0.3642586409
1.2550635033 27 0.4437865188
1.9512421059 27 0.4987296663
2.8215695756 27 0.5217814193
3.8390685785 27 0.5084604971
4.9415017287 27 0.4608110207
6.042620528 27 0.3889267836
7.0568824705 27 0.306664084
7.9238238537 27 0.2263527862
8.618695155899999 27 0.155938289
9.147486988600001 27 0.09881956610000001
9.534216133599999 27 0.0550544475
9.8089076009 27 0.0229033097
10 28.5 0
9.8091110097 28.5 -0.0221572989
9.5347163006 28.5 -0.0532457914
9.148413317299999 28.5 -0.0955337788
8.6202190955 28.5 -0.1506672282
7.9261578941 28.5 -0.2185323453
7.0602664367 28.5 -0.2957625642
6.0472912833 28.5 -0.3745820171
4.9476516636 28.5 -0.4429872619
3.8468020645 28.5 -0.4875448884
2.8308690166 28.5 -0.4985443991
1.9619533161 28.5 -0.4741767874
1.2667610378 28.5 -0.4202556405
0.7410503214 28.5 -0.3458789068
0.3631290723 28.5 -0.2563979559
0.109993517 28.5 -0.1480195332
0 28.5 0
0.1066342108 28.5 0.1500411846
0.3577302294 28.5 0.2625172091
0.7346736184 28.5 0.356242639
1.2603209342 28.5 0.4333409424
1.9560790471 28.5 0.4874205053
2.8257715393 28.5 0.5106859644
3.8425490464 28.5 0.4981816691
4.9442504102 28.5 0.4518518837
6.0446907804 28.5 0.381589831
7.0583694796 28.5 0.3010127472
7.924841031 28.5 0.2222558789
8.619354340299999 28.5 0.1531545935
9.147885113899999 28.5 0.0970737174
9.534429987899999 28.5 0.0540891421
9.8089942282 28.5 0.0225038836
10 30 0
9.8090808555 30 -0.0221044576
9.534643842099999 30 -0.0531238367
9.1482832392 30 -0.0953278686
8.620013524699999 30 -0.150370898
7.9258582084 30 -0.2181589717
7.0598564888 30 -0.2953614105
6.0467610327 30 -0.3742528785
4.9469990917 30 -0.4428927467
3.8460295144 30 -0.4879028411
2.829973503 30 -0.4995905095
1.9609159883 30 -0.4761113444
1.2655783651 30 -0.422895366
0.7398463263 30 -0.3482266371
0.3620890016 30 -0.2577703509
0.10926692 30 -0.1484955031
0 30 0
0.10926692 30 0.1484955031
0.3620890016 30 0.2577703509
0.7398463263 30 0.3482266371
1.2655783651 30 0.422895366
1.9609159883 30 0.4761113444
2.829973503 30 0.4995905095
3.8460295144 30 0.4879028411
4.9469990917 30 0.4428927467
6.0467610327 30 0.3742528785
7.0598564888 30 0.2953614105
7.9258582084 30 0.2181589717
8.620013524699999 30 0.150370898
9.1482832392 30 0.0953278686
9.534643842099999 30 0.0531238367
9.8090808555 30 0.0221044576
9.809081194499999 30.015621049 -0.0156289509
9.534644998999999 30.0375376551 -0.0375627674
9.1482862325 30.0673478064 -0.0674084892
8.6200208092 30.1062056153 -0.1063417983
7.9258757894 30.154016659 -0.1543100541
7.0598928573 30.2084251936 -0.2089661674
6.0468296293 30.2639664433 -0.2648646449
4.9471135539 30.3122474771 -0.3135625306
3.8461970952 30.3438889877 -0.3455823921
2.8301862993 30.3521123882 -0.3540298237
1.9611485444 30.3356325798 -0.3375527646
1.2657959187 30.2982599817 -0.2998866349
0.740018489 30.24575825 -0.246802494
0.3621944743 30.1820474703 -0.1825045217
0.1092992388 30.1049472134 -0.1050336964
0.1093681091 30.1049471547 0.1048919937
0.3623863722 30.1820470129 0.1817615298
0.7403245174999999 30.2457569025 0.2451030909
1.2661709428 30.2982574859 0.2972838256
1.9615335759 30.3356293796 0.3345894919
2.8305368425 30.352109205 0.3511797509
3.8464827367 30.3438863674 0.343143842
4.947320958 30.3122457009 0.3117172503
6.0469638517 30.2639654481 0.2636299603
7.0599702899 30.208424731 0.2082345884
7.9259164241 30.15401647 0.1539181964
8.6200391457 30.1062055557 0.1061618111
9.1482942575 30.0673477867 0.06732881490000001
9.534648274 30.0375376487 0.0375299624
9.8090822113 30.0156210475 0.015618678
9.809082054099999 30.0220950223 -7.2652e-06
9.5346477946 30.0530941216 -2.32e-05
9.1482931481 30.0952567548 -5.63454e-05
8.620036794800001 30.1502133452 -0.0001272834
7.9259118081 30.2178265907 -0.0002771027
7.0599626771 30.294764147 -0.0005173161
6.046952948 30.3732956583 -0.0008730336
4.9473076033 30.4415558593 -0.001304729
3.8464684504 30.4862883141 -0.0017241654
2.8305222642 30.4979147276 -0.0020151231
1.9615170877 30.4746199814 -0.0020952006
1.2661511991 30.4217902023 -0.0018404143
0.7403062116 30.3475655467 -0.0012017001
0.3623738832 30.2574793375 -0.000525427
0.1093613399 30.1484422902 -0.0001002155
10 -1.5 0
9.8096537855 -1.5 -0.0231084433
9.536020553 -1.5 -0.055440975
9.1507547236 -1.5 -0.0992401616
8.623919370199999 -1.5 -0.1560011704
7.9315522362 -1.5 -0.2252530703
7.0676455004 -1.5 -0.302983331
6.0568357933 -1.5 -0.3805065121
4.9593979587 -1.5 -0.4446885349
3.8607079663 -1.5 -0.4811017397
2.8469882621 -1.5 -0.4797144122
1.9806252173 -1.5 -0.4393547609
1.2880491449 -1.5 -0.3727405814
0.7627222316 -1.5 -0.3036197604
0.3818503449 -1.5 -0.2316948465
0.1230722643 -1.5 -0.1394520749
0 -1.5 0
0.0592454456 -1.5 0.1778634514
0.27927233 -1.5 0.3479606564
0.6415648754 -1.5 0.5005306733
1.1656871778 -1.5 0.6213613175
1.869014106 -1.5 0.690985402
2.7501361926 -1.5 0.7104041526
3.7799006242 -1.5 0.6832005735
4.8947741436 -1.5 0.6131163497
6.0074262383 -1.5 0.5136549773
7.031603315 -1.5 0.4027368084
7.9065318381 -1.5 0.2960002091
8.607489021299999 -1.5 0.2032611122
9.1407188589 -1.5 0.1284989947
9.5305806111 -1.5 0.07146463879999999
9.8074349372 -1.5 0.0296935527
10 -3 0
9.809623631299999 -3 -0.0230556019
9.5359480946 -3 -0.0553190204
9.150624645500001 -3 -0.0990342514
8.623713799400001 -3 -0.1557048403
7.9312525506 -3 -0.2248796967
7.0672355525 -3 -0.3025821773
6.0563055427 -3 -0.3801773735
4.9587453867 -3 -0.4445940197
3.8599354162 -3 -0.4814596924
2.8460927484 -3 -0.4807605226
1.9795878894 -3 -0.4412893179
1.2868664722 -3 -0.3753803069
0.7615182366 -3 -0.3059674907
0.3808102742 -3 -0.2330672415
0.1223456672 -3 -0.1399280448
0 -3 0
0.0618781547 -3 0.1763177699
0.2836311022 -3 0.3432137982
0.6467375834 -3 0.4925146714
1.1709446087 -3 0.6109157411
1.8738510472 -3 0.6796762411
2.7543381563 -3 0.6993086977
3.7833810921 -3 0.6729217454999999
4.8975228251 -3 0.6041572127
6.0094964907 -3 0.5063180248
7.0330903241 -3 0.3970854716
7.9075490154 -3 0.2919033018
8.608148205699999 -3 0.2004774167
9.1411169842 -3 0.126753146
9.5307944654 -3 0.0704993334
9.8075215645 -3 0.0292941266
10 -4.5 0
9.8095934771 -4.5 -0.0230027606
9.5358756361 -4.5 -0.0551970657
9.150494567399999 -4.5 -0.0988283413
8.6235082285 -4.5 -0.1554085101
7.9309528649 -4.5 -0.2245063231
7.0668256045 -4.5 -0.3021810236
6.0557752921 -4.5 -0.3798482349
4.9580928148 -4.5 -0.4444995046
3.8591628661 -4.5 -0.4818176451
2.8451972348 -4.5 -0.4818066329
1.9785505616 -4.5 -0.4432238749
1.2856837996 -4.5 -0.3780200324
0.7603142416000001 -4.5 -0.3083152211
0.3797702035 -4.5 -0.2344396365
0.1216190701 -4.5 -0.1404040147
0 -4.5 0
0.06451086390000001 -4.5 0.1747720884
0.2879898744 -4.5 0.3384669401
0.6519102913 -4.5 0.4844986695
1.1762020396 -4.5 0.6004701647
1.8786879883 -4.5 0.6683670802
2.75854012 -4.5 0.6882132428
3.78686156 -4.5 0.6626429175
4.9002715065 -4.5 0.5951980757000001
6.011566743 -4.5 0.4989810722
7.0345773333 -4.5 0.3914341349
7.9085661928 -4.5 0.2878063946
8.608807390100001 -4.5 0.1976937212
9.1415151094 -4.5 0.1250072973
9.5310083197 -4.5 0.06953402810000001
9.8076081918 -4.5 0.0288947006
10 -6 0
9.809563322900001 -6 -0.0229499192
9.5358031776 -6 -0.0550751111
9.150364489199999 -6 -0.0986224311
8.6233026577 -6 -0.15511218
7.9306531792 -6 -0.2241329495
7.0664156565 -6 -0.3017798699
6.0552450416 -6 -0.3795190963
4.9574402428 -6 -0.4444049894
3.858390316 -6 -0.4821755978
2.8443017211 -6 -0.4828527433
1.9775132337 -6 -0.445158432
1.284501127 -6 -0.3806597579
0.7591102466 -6 -0.3106629514
0.3787301328 -6 -0.2358120314
0.1208924731 -6 -0.1408799846
0 -6 0
0.06714357310000001 -6 0.173226407
0.2923486465 -6 0.3337200819
0.6570829993 -6 0.4764826676
1.1814594705 -6 0.5900245883
1.8835249295 -6 0.6570579192
2.7627420837 -6 0.6771177879
3.7903420279 -6 0.6523640894
4.903020188 -6 0.5862389387
6.0136369954 -6 0.4916441196
7.0360643424 -6 0.3857827982
7.9095833702 -6 0.2837094874
8.609466574500001 -6 0.1949100257
9.141913234700001 -6 0.1232614485
9.5312221739 -6 0.0685687227
9.8076948191 -6 0.0284952745
10 -7.5 0
9.8095331686 -7.5 -0.0228970779
9.5357307192 -7.5 -0.0549531564
9.1502344111 -7.5 -0.09841652100000001
8.6230970869 -7.5 -0.1548158499
7.9303534935 -7.5 -0.2237595759
7.0660057085 -7.5 -0.3013787162
6.054714791 -7.5 -0.3791899577
4.9567876709 -7.5 -0.4443104742
3.8576177659 -7.5 -0.4825335505
2.8434062075 -7.5 -0.4838988537
1.9764759059 -7.5 -0.447092989
1.2833184544 -7.5 -0.3832994834
0.7579062515 -7.5 -0.3130106818
0.3776900621 -7.5 -0.2371844264
0.120165876 -7.5 -0.1413559545
0 -7.5 0
0.06977628230000001 -7.5 0.1716807255
0.2967074187 -7.5 0.3289732237
0.6622557072 -7.5 0.4684666657
1.1867169014 -7.5 0.5795790119000001
1.8883618707 -7.5 0.6457487583
2.7669440474 -7.5 0.666022333
3.7938224958 -7.5 0.6420852614
4.9057688695 -7.5 0.5772798017
6.0157072477 -7.5 0.4843071671
7.0375513516 -7.5 0.3801314614
7.9106005476 -7.5 0.2796125801
8.610125758900001 -7.5 0.1921263302
9.142311360000001 -7.5 0.1215155998
9.5314360282 -7.5 0.0676034173
9.8077814463 -7.5 0.0280958485
10 -9 0
9.809503014400001 -9 -0.0228442365
9.5356582607 -9 -0.0548312018
9.150104333 -9 -0.0982106108
8.622891516099999 -9 -0.1545195198
7.9300538079 -9 -0.2233862023
7.0655957605 -9 -0.3009775625
6.0541845405 -9 -0.378860819
4.9561350989 -9 -0.4442159591
3.8568452158 -9 -0.4828915032
2.8425106939 -9 -0.4849449641
1.9754385781 -9 -0.449027546
1.2821357818 -9 -0.3859392089
0.7567022565 -9 -0.3153584121
0.3766499914 -9 -0.2385568214
0.1194392789 -9 -0.1418319244
0 -9 0
0.07240899150000001 -9 0.170135044
0.3010661909 -9 0.3242263655
0.6674284152 -9 0.4604506638
1.1919743324 -9 0.5691334355
1.8931988119 -9 0.6344395974
2.7711460111 -9 0.6549268781000001
3.7973029637 -9 0.6318064334
4.908517551 -9 0.5683206647
6.0177775 -9 0.4769702145
7.0390383607 -9 0.3744801247
7.911617725 -9 0.2755156729
8.610784943300001 -9 0.1893426348
9.142709485299999 -9 0.119769751
9.5316498825 -9 0.066638112
9.8078680736 -9 0.0276964224
10 -10.5 0
9.8094728602 -10.5 -0.0227913952
9.5355858022 -10.5 -0.0547092471
9.1499742549 -10.5 -0.0980047007
8.622685945300001 -10.5 -0.1542231896
7.9297541222 -10.5 -0.2230128287
7.0651858125 -10.5 -0.3005764088
6.0536542899 -10.5 -0.3785316804
4.955482527 -10.5 -0.4441214439
3.8560726657 -10.5 -0.4832494559
2.8416151802 -10.5 -0.4859910745
1.9744012502 -10.5 -0.450962103
1.2809531092 -10.5 -0.3885789344
0.7554982615 -10.5 -0.3177061425
0.3756099207 -10.5 -0.2399292163
0.1187126819 -10.5 -0.1423078943
0 -10.5 0
0.0750417006 -10.5 0.1685893625
0.3054249631 -10.5 0.3194795073
0.6726011231 -10.5 0.4524346619
1.1972317633 -10.5 0.5586878591
1.898035753 -10.5 0.6231304365
2.7753479748 -10.5 0.6438314232
3.8007834316 -10.5 0.6215276054
4.9112662325 -10.5 0.5593615277
6.0198477524 -10.5 0.4696332619
7.0405253699 -10.5 0.368828788
7.9126349024 -10.5 0.2714187657
8.6114441277 -10.5 0.1865589393
9.1431076105 -10.5 0.1180239023
9.5318637367 -10.5 0.06567280659999999
9.8079547009 -10.5 0.0272969963
10 -12 0
9.809442706 -12 -0.0227385538
9.5355133437 -12 -0.0545872925
9.1498441767 -12 -0.0977987905
8.6224803745 -12 -0.1539268595
7.9294544365 -12 -0.2226394551
7.0647758646 -12 -0.3001752551
6.0531240394 -12 -0.3782025418
4.9548299551 -12 -0.4440269287
3.8553001156 -12 -0.4836074086
2.8407196666 -12 -0.4870371849
1.9733639224 -12 -0.4528966601
1.2797704365 -12 -0.3912186599
0.7542942665 -12 -0.3200538729
0.37456985 -12 -0.2413016113
0.1179860848 -12 -0.1427838642
0 -12 0
0.0776744098 -12 0.167043681
0.3097837353 -12 0.3147326491
0.677773831 -12 0.44441866
1.2024891942 -12 0.5482422827
1.9028726942 -12 0.6118212755
2.7795499385 -12 0.6327359683
3.8042638995 -12 0.6112487774000001
4.9140149139 -12 0.5504023907
6.0219180047 -12 0.4622963093
7.042012379 -12 0.3631774513
7.9136520798 -12 0.2673218585
8.612103312 -12 0.1837752438
9.1435057358 -12 0.1162780535
9.532077591 -12 0.0647075012
9.8080413282 -12 0.0268975703
10 -13.5 0
9.809412551799999 -13.5 -0.0226857125
9.5354408853 -13.5 -0.0544653378
9.149714098600001 -13.5 -0.0975928803
8.6222748037 -13.5 -0.1536305294
7.9291547508 -13.5 -0.2222660814
7.0643659166 -13.5 -0.2997741013
6.0525937888 -13.5 -0.3778734032
4.9541773831 -13.5 -0.4439324136
3.8545275655 -13.5 -0.4839653613
2.839824153 -13.5 -0.4880832953
1.9723265945 -13.5 -0.4548312171
1.2785877639 -13.5 -0.3938583854
0.7530902715 -13.5 -0.3224016032
0.3735297793 -13.5 -0.2426740063
0.1172594877 -13.5 -0.1432598341
0 -13.5 0
0.080307119 -13.5 0.1654979995
0.3141425075 -13.5 0.3099857909
0.682946539 -13.5 0.436402658
1.2077466251 -13.5 0.5377967063
1.9077096354 -13.5 0.6005121146
2.7837519022 -13.5 0.6216405134
3.8077443674 -13.5 0.6009699493
4.9167635954 -13.5 0.5414432537
6.023988257 -13.5 0.4549593568
7.0434993881 -13.5 0.3575261145
7.9146692572 -13.5 0.2632249512
8.6127624964 -13.5 0.1809915483
9.1439038611 -13.5 0.1145322048
9.5322914452 -13.5 0.0637421958
9.8081279554 -13.5 0.0264981442
10 -15 0
9.8093823976 -15 -0.0226328711
9.5353684268 -15 -0.0543433832
9.149584020500001 -15 -0.09738697020000001
8.622069232899999 -15 -0.1533341993
7.9288550652 -15 -0.2218927078
7.0639559686 -15 -0.2993729476
6.0520635383 -15 -0.3775442646
4.9535248112 -15 -0.4438378984
3.8537550154 -15 -0.484323314
2.8389286393 -15 -0.4891294056
1.9712892667 -15 -0.4567657741
1.2774050913 -15 -0.3964981109
0.7518862765 -15 -0.3247493336
0.3724897086 -15 -0.2440464012
0.1165328907 -15 -0.143735804
0 -15 0
0.0829398282 -15 0.163952318
0.3185012797 -15 0.3052389328
0.6881192469 -15 0.4283866561
1.213004056 -15 0.5273511299
1.9125465766 -15 0.5892029537
2.7879538659 -15 0.6105450585
3.8112248353 -15 0.5906911213
4.9195122769 -15 0.5324841167
6.0260585094 -15 0.4476224042
7.0449863973 -15 0.3518747778
7.9156864345 -15 0.259128044
8.6134216808 -15 0.1782078528
9.1443019864 -15 0.1127863561
9.5325052995 -15 0.0627768905
9.8082145827 -15 0.0260987182
10 -16.5 0
9.809352243399999 -16.5 -0.0225800298
9.5352959683 -16.5 -0.0542214285
9.149453942299999 -16.5 -0.09718106
8.621863662000001 -16.5 -0.1530378692
7.9285553795 -16.5 -0.2215193342
7.0635460206 -16.5 -0.2989717939
6.0515332877 -16.5 -0.377215126
4.9528722392 -16.5 -0.4437433832
3.8529824653 -16.5 -0.4846812667
2.8380331257 -16.5 -0.490175516
1.9702519389 -16.5 -0.4587003312
1.2762224187 -16.5 -0.3991378364
0.7506822815 -16.5 -0.3270970639
0.3714496379 -16.5 -0.2454187962
0.1158062936 -16.5 -0.144211774
0 -16.5 0
0.0855725374 -16.5 0.1624066365
0.3228600519 -16.5 0.3004920746
0.6932919549 -16.5 0.4203706542
1.2182614869 -16.5 0.5169055535
1.9173835177 -16.5 0.5778937928
2.7921558296 -16.5 0.5994496036
3.8147053032 -16.5 0.5804122933
4.9222609584 -16.5 0.5235249797
6.0281287617 -16.5 0.4402854516
7.0464734064 -16.5 0.3462234411
7.9167036119 -16.5 0.2550311368
8.6140808652 -16.5 0.1754241574
9.144700111700001 -16.5 0.1110405073
9.5327191538 -16.5 0.0618115851
9.80830121 -16.5 0.0256992921
10 -18 0
9.8093220892 -18 -0.0225271884
9.5352235099 -18 -0.0540994739
9.149323864199999 -18 -0.0969751499
8.6216580912 -18 -0.152741539
7.9282556938 -18 -0.2211459606
7.0631360726 -18 -0.2985706402
6.0510030371 -18 -0.3768859874
4.9522196673 -18 -0.4436488681
3.8522099152 -18 -0.4850392194
2.8371376121 -18 -0.4912216264
1.969214611 -18 -0.4606348882
1.2750397461 -18 -0.4017775619
0.7494782864 -18 -0.3294447943
0.3704095672 -18 -0.2467911912
0.1150796965 -18 -0.1446877439
0 -18 0
0.0882052465 -18 0.1608609551
0.3272188241 -18 0.2957452164
0.6984646628 -18 0.4123546523
1.2235189178 -18 0.5064599771
1.9222204589 -18 0.5665846318
2.7963577934 -18 0.5883541487
3.8181857711 -18 0.5701334653
4.9250096399 -18 0.5145658427000001
6.030199014 -18 0.432948499
7.0479604156 -18 0.3405721043
7.9177207893 -18 0.2509342295
8.6147400496 -18 0.1726404619
9.145098236899999 -18 0.1092946586
9.532933008000001 -18 0.0608462797
9.8083878373 -18 0.025299866
10 -19.5 0
9.809291934999999 -19.5 -0.0224743471
9.5351510514 -19.5 -0.0539775192
9.1491937861 -19.5 -0.0967692397
8.6214525204 -19.5 -0.1524452089
7.9279560081 -19.5 -0.220772587
7.0627261246 -19.5 -0.2981694865
6.0504727866 -19.5 -0.3765568488
4.9515670953 -19.5 -0.4435543529
3.8514373651 -19.5 -0.4853971721
2.8362420984 -19.5 -0.4922677368
1.9681772832 -19.5 -0.4625694452
1.2738570735 -19.5 -0.4044172874
0.7482742914 -19.5 -0.3317925246
0.3693694965 -19.5 -0.2481635861
0.1143530995 -19.5 -0.1451637138
0 -19.5 0
0.0908379557 -19.5 0.1593152736
0.3315775963 -19.5 0.2909983582
0.7036373707 -19.5 0.4043386504
1.2287763487 -19.5 0.4960144007
1.9270574001 -19.5 0.5552754709
2.8005597571 -19.5 0.5772586937999999
3.821666239 -19.5 0.5598546371999999
4.9277583213 -19.5 0.5056067057
6.0322692664 -19.5 0.4256115465
7.0494474247 -19.5 0.3349207676
7.9187379667 -19.5 0.2468373223
8.615399234 -19.5 0.1698567664
9.145496362199999 -19.5 0.1075488098
9.533146862300001 -19.5 0.0598809743
9.8084744645 -19.5 0.02490044
10 -21 0
9.8092617807 -21 -0.0224215057
9.5350785929 -21 -0.0538555646
9.1490637079 -21 -0.0965633296
8.6212469496 -21 -0.1521488788
7.9276563225 -21 -0.2203992134
7.0623161767 -21 -0.2977683328
6.049942536 -21 -0.3762277101
4.9509145234 -21 -0.4434598377
3.850664815 -21 -0.4857551249
2.8353465848 -21 -0.4933138472
1.9671399553 -21 -0.4645040022
1.2726744008 -21 -0.407057013
0.7470702964 -21 -0.334140255
0.3683294258 -21 -0.2495359811
0.1136265024 -21 -0.1456396837
0 -21 0
0.0934706649 -21 0.1577695921
0.3359363684 -21 0.2862515
0.7088100787 -21 0.3963226485
1.2340337797 -21 0.4855688243
1.9318943413 -21 0.54396631
2.8047617208 -21 0.5661632389
3.8251467069 -21 0.5495758092
4.9305070028 -21 0.4966475687
6.0343395187 -21 0.4182745939
7.0509344339 -21 0.3292694309
7.9197551441 -21 0.2427404151
8.6160584184 -21 0.1670730709
9.1458944875 -21 0.1058029611
9.533360716500001 -21 0.058915669
9.8085610918 -21 0.0245010139
10 -22.5 0
9.809231626500001 -22.5 -0.0223686643
9.5350061345 -22.5 -0.0537336099
9.1489336298 -22.5 -0.09635741940000001
8.621041378799999 -22.5 -0.1518525487
7.9273566368 -22.5 -0.2200258398
7.0619062287 -22.5 -0.2973671791
6.0494122855 -22.5 -0.3758985715
4.9502619514 -22.5 -0.4433653225
3.8498922649 -22.5 -0.4861130776
2.8344510712 -22.5 -0.4943599576
1.9661026275 -22.5 -0.4664385593
1.2714917282 -22.5 -0.4096967385
0.7458663014 -22.5 -0.3364879853
0.3672893551 -22.5 -0.2509083761
0.1128999053 -22.5 -0.1461156536
0 -22.5 0
0.0961033741 -22.5 0.1562239106
0.3402951406 -22.5 0.2815046418
0.7139827866 -22.5 0.3883066466
1.2392912106 -22.5 0.4751232479
1.9367312824 -22.5 0.5326571490000001
2.8089636845 -22.5 0.555067784
3.8286271748 -22.5 0.5392969812
4.9332556843 -22.5 0.4876884317
6.036409771 -22.5 0.4109376413
7.052421443 -22.5 0.3236180942
7.9207723215 -22.5 0.2386435078
8.6167176028 -22.5 0.1642893754
9.1462926128 -22.5 0.1040571123
9.533574570800001 -22.5 0.0579503636
9.8086477191 -22.5 0.0241015879
10 -24 0
9.8092014723 -24 -0.022315823
9.534933676 -24 -0.0536116553
9.1488035517 -24 -0.0961515092
8.620835808000001 -24 -0.1515562185
7.9270569511 -24 -0.2196524661
7.0614962807 -24 -0.2969660254
6.0488820349 -24 -0.3755694329
4.9496093795 -24 -0.4432708074
3.8491197148 -24 -0.4864710303
2.8335555575 -24 -0.495406068
1.9650652997 -24 -0.4683731163
1.2703090556 -24 -0.412336464
0.7446623064 -24 -0.3388357157
0.3662492844 -24 -0.252280771
0.1121733082 -24 -0.1465916235
0 -24 0
0.0987360833 -24 0.1546782291
0.3446539128 -24 0.2767577836
0.7191554945999999 -24 0.3802906447
1.2445486415 -24 0.4646776715
1.9415682236 -24 0.5213479881
2.8131656482 -24 0.5439723291
3.8321076427 -24 0.5290181532
4.9360043658 -24 0.4787292947
6.0384800234 -24 0.4036006888
7.0539084522 -24 0.3179667574
7.9217894989 -24 0.2345466006
8.6173767872 -24 0.16150568
9.1466907381 -24 0.1023112636
9.533788425099999 -24 0.0569850582
9.8087343464 -24 0.0237021618
10 -25.5 0
9.809171318100001 -25.5 -0.0222629816
9.5348612175 -25.5 -0.0534897007
9.148673473600001 -25.5 -0.0959455991
8.6206302372 -25.5 -0.1512598884
7.9267572654 -25.5 -0.2192790925
7.0610863327 -25.5 -0.2965648716
6.0483517844 -25.5 -0.3752402943
4.9489568075 -25.5 -0.4431762922
3.8483471647 -25.5 -0.486828983
2.8326600439 -25.5 -0.4964521783
1.9640279718 -25.5 -0.4703076733
1.269126383 -25.5 -0.4149761895
0.7434583114 -25.5 -0.341183446
0.3652092137 -25.5 -0.253653166
0.1114467112 -25.5 -0.1470675934
0 -25.5 0
0.1013687924 -25.5 0.1531325476
0.349012685 -25.5 0.2720109255
0.7243282025 -25.5 0.3722746428
1.2498060724 -25.5 0.4542320952
1.9464051648 -25.5 0.5100388272
2.8173676119 -25.5 0.5328768742
3.8355881106 -25.5 0.5187393252
4.9387530473 -25.5 0.4697701577
6.0405502757 -25.5 0.3962637362
7.0553954613 -25.5 0.3123154207
7.9228066763 -25.5 0.2304496934
8.618035971499999 -25.5 0.1587219845
9.1470888633 -25.5 0.1005654149
9.534002279299999 -25.5 0.0560197528
9.8088209736 -25.5 0.0233027358
10 -27 0
9.8091411639 -27 -0.0222101403
9.5347887591 -27 -0.053367746
9.148543395400001 -27 -0.09573968889999999
8.6204246663 -27 -0.1509635583
7.9264575798 -27 -0.2189057189
7.0606763847 -27 -0.2961637179
6.0478215338 -27 -0.3749111557
4.9483042356 -27 -0.443081777
3.8475746146 -27 -0.4871869357
2.8317645302 -27 -0.4974982887
1.962990644 -27 -0.4722422303
1.2679437104 -27 -0.417615915
0.7422543163999999 -27 -0.3435311764
0.364169143 -27 -0.255025561
0.1107201141 -27 -0.1475435633
0 -27 0
0.1040015016 -27 0.1515868661
0.3533714572 -27 0.2672640673
0.7295009105 -27 0.3642586409
1.2550635033 -27 0.4437865188
1.9512421059 -27 0.4987296663
2.8215695756 -27 0.5217814193
3.8390685785 -27 0.5084604971
4.9415017287 -27 0.4608110207
6.042620528 -27 0.3889267836
7.0568824705 -27 0.306664084
7.9238238537 -27 0.2263527862
8.618695155899999 -27 0.155938289
9.147486988600001 -27 0.09881956610000001
9.534216133599999 -27 0.0550544475
9.8089076009 -27 0.0229033097
10 -28.5 0
9.8091110097 -28.5 -0.0221572989
9.5347163006 -28.5 -0.0532457914
9.148413317299999 -28.5 -0.0955337788
8.6202190955 -28.5 -0.1506672282
7.9261578941 -28.5 -0.2185323453
7.0602664367 -28.5 -0.2957625642
6.0472912833 -28.5 -0.3745820171
4.9476516636 -28.5 -0.4429872619
3.8468020645 -28.5 -0.4875448884
2.8308690166 -28.5 -0.4985443991
1.9619533161 -28.5 -0.4741767874
1.2667610378 -28.5 -0.4202556405
0.7410503214 -28.5 -0.3458789068
0.3631290723 -28.5 -0.2563979559
0.109993517 -28.5 -0.1480195332
0 -28.5 0
0.1066342108 -28.5 0.1500411846
0.3577302294 -28.5 0.2625172091
0.7346736184 -28.5 0.356242639
1.2603209342 -28.5 0.4333409424
1.9560790471 -28.5 0.4874205053
2.8257715393 -28.5 0.5106859644
3.8425490464 -28.5 0.4981816691
4.9442504102 -28.5 0.4518518837
6.0446907804 -28.5 0.381589831
7.0583694796 -28.5 0.3010127472
7.924841031 -28.5 0.2222558789
8.619354340299999 -28.5 0.1531545935
9.147885113899999 -28.5 0.0970737174
9.534429987899999 -28.5 0.0540891421
9.8089942282 -28.5 0.0225038836
10 -30 0
9.8090808555 -30 -0.0221044576
9.534643842099999 -30 -0.0531238367
9.1482832392 -30 -0.0953278686
8.620013524699999 -30 -0.150370898
7.9258582084 -30 -0.2181589717
7.0598564888 -30 -0.2953614105
6.0467610327 -30 -0.3742528785
4.9469990917 -30 -0.4428927467
3.8460295144 -30 -0.4879028411
2.829973503 -30 -0.4995905095
1.9609159883 -30 -0.4761113444
1.2655783651 -30 -0.422895366
0.7398463263 -30 -0.3482266371
0.3620890016 -30 -0.2577703509
0.10926692 -30 -0.1484955031
0 -30 0
0.10926692 -30 0.1484955031
0.3620890016 -30 0.2577703509
0.7398463263 -30 0.3482266371
1.2655783651 -30 0.422895366
1.9609159883 -30 0.4761113444
2.829973503 -30 0.4995905095
3.8460295144 -30 0.4879028411
4.9469990917 -30 0.4428927467
6.0467610327 -30 0.3742528785
7.0598564888 -30 0.2953614105
7.9258582084 -30 0.2181589717
8.620013524699999 -30 0.150370898
9.1482832392 -30 0.0953278686
9.534643842099999 -30 0.0531238367
9.8090808555 -30 0.0221044576
9.809081194499999 -30.015621049 -0.0156289509
9.534644998999999 -30.0375376551 -0.0375627674
9.1482862325 -30.0673478064 -0.0674084892
8.6200208092 -30.1062056153 -0.1063417983
7.9258757894 -30.154016659 -0.1543100541
7.0598928573 -30.2084251936 -0.2089661674
6.0468296293 -30.2639664433 -0.2648646449
4.9471135539 -30.3122474771 -0.3135625306
3.8461970952 -30.3438889877 -0.3455823921
2.8301862993 -30.3521123882 -0.3540298237
1.9611485444 -30.3356325798 -0.3375527646
1.2657959187 -30.2982599817 -0.2998866349
0.740018489 -30.24575825 -0.246802494
0.3621944743 -30.1820474703 -0.1825045217
0.1092992388 -30.1049472134 -0.1050336964
0.1093681091 -30.1049471547 0.1048919937
0.3623863722 -30.1820470129 0.1817615298
0.7403245174999999 -30.2457569025 0.2451030909
1.2661709428 -30.2982574859 0.2972838256
1.9615335759 -30.3356293796 0.3345894919
2.8305368425 -30.352109205 0.3511797509
3.8464827367 -30.3438863674 0.343143842
4.947320958 -30.3122457009 0.3117172503
6.0469638517 -30.2639654481 0.2636299603
7.0599702899 -30.208424731 0.2082345884
7.9259164241 -30.15401647 0.1539181964
8.6200391457 -30.1062055557 0.1061618111
9.1482942575 -30.0673477867 0.06732881490000001
9.534648274 -30.0375376487 0.0375299624
9.8090822113 -30.0156210475 0.015618678
9.809082054099999 -30.0220950223 -7.2652e-06
9.5346477946 -30.0530941216 -2.32e-05
9.1482931481 -30.0952567548 -5.63454e-05
8.620036794800001 -30.1502133452 -0.0001272834
7.9259118081 -30.2178265907 -0.0002771027
7.0599626771 -30.294764147 -0.0005173161
6.046952948 -30.3732956583 -0.0008730336
4.9473076033 -30.4415558593 -0.001304729
3.8464684504 -30.4862883141 -0.0017241654
2.8305222642 -30.4979147276 -0.0020151231
1.9615170877 -30.4746199814 -0.0020952006
1.2661511991 -30.4217902023 -0.0018404143
0.7403062116 -30.3475655467 -0.0012017001
0.3623738832 -30.2574793375 -0.000525427
0.1093613399 -30.1484422902 -0.0001002155
$EndNodes
$Elements
1 2800 1 2800
2 0 2 2800
1 1 3 2 
2 3 4 2 
3 2 4 5 
4 4 6 5 
5 5 6 7 
6 6 8 7 
7 7 8 9 
8 8 10 9 
9 9 10 11 
10 10 12 11 
11 11 12 13 
12 12 14 13 
13 13 14 15 
14 14 16 15 
15 15 16 17 
16 16 18 17 
17 17 18 19 
18 17 19 20 
19 20 19 21 
20 20 21 22 
21 22 21 23 
22 22 23 24 
23 24 23 25 
24 24 25 26 
25 26 25 27 
26 26 27 28 
27 28 27 29 
28 28 29 30 
29 30 29 31 
30 30 31 32 
31 32 31 33 
32 32 33 34 
33 34 33 35 
34 33 36 35 
35 35 36 37 
36 36 38 37 
37 37 38 39 
38 38 40 39 
39 39 40 41 
40 40 42 41 
41 41 42 43 
42 42 44 43 
43 43 44 45 
44 44 46 45 
45 45 46 47 
46 46 48 47 
47 47 48 49 
48 48 50 49 
49 49 50 51 
50 49 51 52 
51 52 51 53 
52 52 53 54 
53 54 53 55 
54 54 55 56 
55 56 55 57 
56 56 57 58 
57 58 57 59 
58 58 59 60 
59 60 59 61 
60 60 61 62 
61 62 61 63 
62 62 63 64 
63 64 63 3 
64 64 3 1 
65 3 65 4 
66 65 66 4 
67 4 66 6 
68 66 67 6 
69 6 67 8 
70 67 68 8 
71 8 68 10 
72 68 69 10 
73 10 69 12 
74 69 70 12 
75 12 70 14 
76 70 71 14 
77 14 71 16 
78 71 72 16 
79 16 72 18 
80 72 73 18 
81 18 73 74 
82 18 74 19 
83 19 74 75 
84 19 75 21 
85 21 75 76 
86 21 76 23 
87 23 76 77 
88 23 77 25 
89 25 77 78 
90 25 78 27 
91 27 78 79 
92 27 79 29 
93 29 79 80 
94 29 80 31 
95 31 80 81 
96 31 81 33 
97 33 81 36 
98 81 82 36 
99 36 82 38 
100 82 83 38 
101 38 83 40 
102 83 84 40 
103 40 84 42 
104 84 85 42 
105 42 85 44 
106 85 86 44 
107 44 86 46 
108 86 87 46 
109 46 87 48 
110 87 88 48 
111 48 88 50 
112 88 89 50 
113 50 89 90 
114 50 90 51 
115 51 90 91 
116 51 91 53 
117 53 91 92 
118 53 92 55 
119 55 92 93 
120 55 93 57 
121 57 93 94 
122 57 94 59 
123 59 94 95 
124 59 95 61 
125 61 95 96 
126 61 96 63 
127 63 96 65 
128 63 65 3 
129 65 97 66 
130 97 98 66 
131 66 98 67 
132 98 99 67 
133 67 99 68 
134 99 100 68 
135 68 100 69 
136 100 101 69 
137 69 101 70 
138 101 102 70 
139 70 102 71 
140 102 103 71 
141 71 103 72 
142 103 104 72 
143 72 104 73 
144 104 105 73 
145 73 105 106 
146 73 106 74 
147 74 106 107 
148 74 107 75 
149 75 107 108 
150 75 108 76 
151 76 108 109 
152 76 109 77 
153 77 109 110 
154 77 110 78 
155 78 110 111 
156 78 111 79 
157 79 111 112 
158 79 112 80 
159 80 112 113 
160 80 113 81 
161 81 113 82 
162 113 114 82 
163 82 114 83 
164 114 115 83 
165 83 115 84 
166 115 116 84 
167 84 116 85 
168 116 117 85 
169 85 117 86 
170 117 118 86 
171 86 118 87 
172 118 119 87 
173 87 119 88 
174 119 120 88 
175 88 120 89 
176 120 121 89 
177 89 121 122 
178 89 122 90 
179 90 122 123 
180 90 123 91 
181 91 123 124 
182 91 124 92 
183 92 124 125 
184 92 125 93 
185 93 125 126 
186 93 126 94 
187 94 126 127 
188 94 127 95 
189 95 127 128 
190 95 128 96 
191 96 128 97 
192 96 97 65 
193 97 129 98 
194 129 130 98 
195 98 130 99 
196 130 131 99 
197 99 131 100 
198 131 132 100 
199 100 132 101 
200 132 133 101 
201 101 133 102 
202 133 134 102 
203 102 134 103 
204 134 135 103 
205 103 135 104 
206 135 136 104 
207 104 136 105 
208 136 137 105 
209 105 137 138 
210 105 138 106 
211 106 138 139 
212 106 139 107 
213 107 139 140 
214 107 140 108 
215 108 140 141 
216 108 141 109 
217 109 141 142 
218 109 142 110 
219 110 142 143 
220 110 143 111 
221 111 143 144 
222 111 144 112 
223 112 144 145 
224 112 145 113 
225 113 145 114 
226 145 146 114 
227 114 146 115 
228 146 147 115 
229 115 147 116 
230 147 148 116 
231 116 148 117 
232 148 149 117 
233 117 149 118 
234 149 150 118 
235 118 150 119 
236 150 151 119 
237 119 151 120 
238 151 152 120 
239 120 152 121 
240 152 153 121 
241 121 153 154 
242 121 154 122 
243 122 154 155 
244 122 155 123 
245 123 155 156 
246 123 156 124 
247 124 156 157 
248 124 157 125 
249 125 157 158 
250 125 158 126 
251 126 158 159 
252 126 159 127 
253 127 159 160 
254 127 160 128 
255 128 160 129 
256 128 129 97 
257 129 161 130 
258 161 162 130 
259 130 162 131 
260 162 163 131 
261 131 163 132 
262 163 164 132 
263 132 164 133 
264 164 165 133 
265 133 165 134 
266 165 166 134 
267 134 166 135 
268 166 167 135 
269 135 167 136 
270 167 168 136 
271 136 168 137 
272 168 169 137 
273 137 169 170 
274 137 170 138 
275 138 170 171 
276 138 171 139 
277 139 171 172 
278 139 172 140 
279 140 172 173 
280 140 173 141 
281 141 173 174 
282 141 174 142 
283 142 174 175 
284 142 175 143 
285 143 175 176 
286 143 176 144 
287 144 176 177 
288 144 177 145 
289 145 177 146 
290 177 178 146 
291 146 178 147 
292 178 179 147 
293 147 179 148 
294 179 180 148 
295 148 180 149 
296 180 181 149 
297 149 181 150 
298 181 182 150 
299 150 182 151 
300 182 183 151 
301 151 183 152 
302 183 184 152 
303 152 184 153 
304 184 185 153 
305 153 185 186 
306 153 186 154 
307 154 186 187 
308 154 187 155 
309 155 187 188 
310 155 188 156 
311 156 188 189 
312 156 189 157 
313 157 189 190 
314 157 190 158 
315 158 190 191 
316 158 191 159 
317 159 191 192 
318 159 192 160 
319 160 192 161 
320 160 161 129 
321 161 193 162 
322 193 194 162 
323 162 194 163 
324 194 195 163 
325 163 195 164 
326 195 196 164 
327 164 196 165 
328 196 197 165 
329 165 197 166 
330 197 198 166 
331 166 198 167 
332 198 199 167 
333 167 199 168 
334 199 200 168 
335 168 200 169 
336 200 201 169 
337 169 201 202 
338 169 202 170 
339 170 202 203 
340 170 203 171 
341 171 203 204 
342 171 204 172 
343 172 204 205 
344 172 205 173 
345 173 205 206 
346 173 206 174 
347 174 206 207 
348 174 207 175 
349 175 207 208 
350 175 208 176 
351 176 208 209 
352 176 209 177 
353 177 209 178 
354 209 210 178 
355 178 210 179 
356 210 211 179 
357 179 211 180 
358 211 212 180 
359 180 212 181 
360 212 213 181 
361 181 213 182 
362 213 214 182 
363 182 214 183 
364 214 215 183 
365 183 215 184 
366 215 216 184 
367 184 216 185 
368 216 217 185 
369 185 217 218 
370 185 218 186 
371 186 218 219 
372 186 219 187 
373 187 219 220 
374 187 220 188 
375 188 220 221 
376 188 221 189 
377 189 221 222 
378 189 222 190 
379 190 222 223 
380 190 223 191 
381 191 223 224 
382 191 224 192 
383 192 224 193 
384 192 193 161 
385 193 225 194 
386 225 226 194 
387 194 226 195 
388 226 227 195 
389 195 227 196 
390 227 228 196 
391 196 228 197 
392 228 229 197 
393 197 229 198 
394 229 230 198 
395 198 230 199 
396 230 231 199 
397 199 231 200 
398 231 232 200 
399 200 232 201 
400 232 233 201 
401 201 233 234 
402 201 234 202 
403 202 234 235 
404 202 235 203 
405 203 235 236 
406 203 236 204 
407 204 236 237 
408 204 237 205 
409 205 237 238 
410 205 238 206 
411 206 238 239 
412 206 239 207 
413 207 239 240 
414 207 240 208 
415 208 240 241 
416 208 241 209 
417 209 241 210 
418 241 242 210 
419 210 242 211 
420 242 243 211 
421 211 243 212 
422 243 244 212 
423 212 244 213 
424 244 245 213 
425 213 245 214 
426 245 246 214 
427 214 246 215 
428 246 247 215 
429 215 247 216 
430 247 248 216 
431 216 248 217 
432 248 249 217 
433 217 249 250 
434 217 250 218 
435 218 250 251 
436 218 251 219 
437 219 251 252 
438 219 252 220 
439 220 252 253 
440 220 253 221 
441 221 253 254 
442 221 254 222 
443 222 254 255 
444 222 255 223 
445 223 255 256 
446 223 256 224 
447 224 256 225 
448 224 225 193 
449 225 257 226 
450 257 258 226 
451 226 258 227 
452 258 259 227 
453 227 259 228 
454 259 260 228 
455 228 260 229 
456 260 261 229 
457 229 261 230 
458 261 262 230 
459 230 262 231 
460 262 263 231 
461 231 263 232 
462 263 264 232 
463 232 264 233 
464 264 265 233 
465 233 265 266 
466 233 266 234 
467 234 266 267 
468 234 267 235 
469 235 267 268 
470 235 268 236 
471 236 268 269 
472 236 269 237 
473 237 269 270 
474 237 270 238 
475 238 270 271 
476 238 271 239 
477 239 271 272 
478 239 272 240 
479 240 272 273 
480 240 273 241 
481 241 273 242 
482 273 274 242 
483 242 274 243 
484 274 275 243 
485 243 275 244 
486 275 276 244 
487 244 276 245 
488 276 277 245 
489 245 277 246 
490 277 278 246 
491 246 278 247 
492 278 279 247 
493 247 279 248 
494 279 280 248 
495 248 280 249 
496 280 281 249 
497 249 281 282 
498 249 282 250 
499 250 282 283 
500 250 283 251 
501 251 283 284 
502 251 284 252 
503 252 284 285 
504 252 285 253 
505 253 285 286 
506 253 286 254 
507 254 286 287 
508 254 287 255 
509 255 287 288 
510 255 288 256 
511 256 288 257 
512 256 257 225 
513 257 289 258 
514 289 290 258 
515 258 290 259 
516 290 291 259 
517 259 291 260 
518 291 292 260 
519 260 292 261 
520 292 293 261 
521 261 293 262 
522 293 294 262 
523 262 294 263 
524 294 295 263 
525 263 295 264 
526 295 296 264 
527 264 296 265 
528 296 297 265 
529 265 297 298 
530 265 298 266 
531 266 298 299 
532 266 299 267 
533 267 299 300 
534 267 300 268 
535 268 300 301 
536 268 301 269 
537 269 301 302 
538 269 302 270 
539 270 302 303 
540 270 303 271 
541 271 303 304 
542 271 304 272 
543 272 304 305 
544 272 305 273 
545 273 305 274 
546 305 306 274 
547 274 306 275 
548 306 307 275 
549 275 307 276 
550 307 308 276 
551 276 308 277 
552 308 309 277 
553 277 309 278 
554 309 310 278 
555 278 310 279 
556 310 311 279 
557 279 311 280 
558 311 312 280 
559 280 312 281 
560 312 313 281 
561 281 313 314 
562 281 314 282 
563 282 314 315 
564 282 315 283 
565 283 315 316 
566 283 316 284 
567 284 316 317 
568 284 317 285 
569 285 317 318 
570 285 318 286 
571 286 318 319 
572 286 319 287 
573 287 319 320 
574 287 320 288 
575 288 320 289 
576 288 289 257 
577 289 321 290 
578 321 322 290 
579 290 322 291 
580 322 323 291 
581 291 323 292 
582 323 324 292 
583 292 324 293 
584 324 325 293 
585 293 325 294 
586 325 326 294 
587 294 326 295 
588 326 327 295 
589 295 327 296 
590 327 328 296 
591 296 328 297 
592 328 329 297 
593 297 329 330 
594 297 330 298 
595 298 330 331 
596 298 331 299 
597 299 331 332 
598 299 332 300 
599 300 332 333 
600 300 333 301 
601 301 333 334 
602 301 334 302 
603 302 334 335 
604 302 335 303 
605 303 335 336 
606 303 336 304 
607 304 336 337 
608 304 337 305 
609 305 337 306 
610 337 338 306 
611 306 338 307 
612 338 339 307 
613 307 339 308 
614 339 340 308 
615 308 340 309 
616 340 341 309 
617 309 341 310 
618 341 342 310 
619 310 342 311 
620 342 343 311 
621 311 343 312 
622 343 344 312 
623 312 344 313 
624 344 345 313 
625 313 345 346 
626 313 346 314 
627 314 346 347 
628 314 347 315 
629 315 347 348 
630 315 348 316 
631 316 348 349 
632 316 349 317 
633 317 349 350 
634 317 350 318 
635 318 350 351 
636 318 351 319 
637 319 351 352 
638 319 352 320 
639 320 352 321 
640 320 321 289 
641 321 353 322 
642 353 354 322 
643 322 354 323 
644 354 355 323 
645 323 355 324 
646 355 356 324 
647 324 356 325 
648 356 357 325 
649 325 357 326 
650 357 358 326 
651 326 358 327 
652 358 359 327 
653 327 359 328 
654 359 360 328 
655 328 360 329 
656 360 361 329 
657 329 361 362 
658 329 362 330 
659 330 362 363 
660 330 363 331 
661 331 363 364 
662 331 364 332 
663 332 364 365 
664 332 365 333 
665 333 365 366 
666 333 366 334 
667 334 366 367 
668 334 367 335 
669 335 367 368 
670 335 368 336 
671 336 368 369 
672 336 369 337 
673 337 369 338 
674 369 370 338 
675 338 370 339 
676 370 371 339 
677 339 371 340 
678 371 372 340 
679 340 372 341 
680 372 373 341 
681 341 373 342 
682 373 374 342 
683 342 374 343 
684 374 375 343 
685 343 375 344 
686 375 376 344 
687 344 376 345 
688 376 377 345 
689 345 377 378 
690 345 378 346 
691 346 378 379 
692 346 379 347 
693 347 379 380 
694 347 380 348 
695 348 380 381 
696 348 381 349 
697 349 381 382 
698 349 382 350 
699 350 382 383 
700 350 383 351 
701 351 383 384 
702 351 384 352 
703 352 384 353 
704 352 353 321 
705 353 385 354 
706 385 386 354 
707 354 386 355 
708 386 387 355 
709 355 387 356 
710 387 388 356 
711 356 388 357 
712 388 389 357 
713 357 389 358 
714 389 390 358 
715 358 390 359 
716 390 391 359 
717 359 391 360 
718 391 392 360 
719 360 392 361 
720 392 393 361 
721 361 393 394 
722 361 394 362 
723 362 394 395 
724 362 395 363 
725 363 395 396 
726 363 396 364 
727 364 396 397 
728 364 397 365 
729 365 397 398 
730 365 398 366 
731 366 398 399 
732 366 399 367 
733 367 399 400 
734 367 400 368 
735 368 400 401 
736 368 401 369 
737 369 401 370 
738 401 402 370 
739 370 402 371 
740 402 403 371 
741 371 403 372 
742 403 404 372 
743 372 404 373 
744 404 405 373 
745 373 405 374 
746 405 406 374 
747 374 406 375 
748 406 407 375 
749 375 407 376 
750 407 408 376 
751 376 408 377 
752 408 409 377 
753 377 409 410 
754 377 410 378 
755 378 410 411 
756 378 411 379 
757 379 411 412 
758 379 412 380 
759 380 412 413 
760 380 413 381 
761 381 413 414 
762 381 414 382 
763 382 414 415 
764 382 415 383 
765 383 415 416 
766 383 416 384 
767 384 416 385 
768 384 385 353 
769 385 417 386 
770 417 418 386 
771 386 418 387 
772 418 419 387 
773 387 419 388 
774 419 420 388 
775 388 420 389 
776 420 421 389 
777 389 421 390 
778 421 422 390 
779 390 422 391 
780 422 423 391 
781 391 423 392 
782 423 424 392 
783 392 424 393 
784 424 425 393 
785 393 425 426 
786 393 426 394 
787 394 426 427 
788 394 427 395 
789 395 427 428 
790 395 428 396 
791 396 428 429 
792 396 429 397 
793 397 429 430 
794 397 430 398 
795 398 430 431 
796 398 431 399 
797 399 431 432 
798 399 432 400 
799 400 432 433 
800 400 433 401 
801 401 433 402 
802 433 434 402 
803 402 434 403 
804 434 435 403 
805 403 435 404 
806 435 436 404 
807 404 436 405 
808 436 437 405 
809 405 437 406 
810 437 438 406 
811 406 438 407 
812 438 439 407 
813 407 439 408 
814 439 440 408 
815 408 440 409 
816 440 441 409 
817 409 441 442 
818 409 442 410 
819 410 442 443 
820 410 443 411 
821 411 443 444 
822 411 444 412 
823 412 444 445 
824 412 445 413 
825 413 445 446 
826 413 446 414 
827 414 446 447 
828 414 447 415 
829 415 447 448 
830 415 448 416 
831 416 448 417 
832 416 417 385 
833 417 449 418 
834 449 450 418 
835 418 450 419 
836 450 451 419 
837 419 451 420 
838 451 452 420 
839 420 452 421 
840 452 453 421 
841 421 453 422 
842 453 454 422 
843 422 454 423 
844 454 455 423 
845 423 455 424 
846 455 456 424 
847 424 456 425 
848 456 457 425 
849 425 457 458 
850 425 458 426 
851 426 458 459 
852 426 459 427 
853 427 459 460 
854 427 460 428 
855 428 460 461 
856 428 461 429 
857 429 461 462 
858 429 462 430 
859 430 462 463 
860 430 463 431 
861 431 463 464 
862 431 464 432 
863 432 464 465 
864 432 465 433 
865 433 465 434 
866 465 466 434 
867 434 466 435 
868 466 467 435 
869 435 467 436 
870 467 468 436 
871 436 468 437 
872 468 469 437 
873 437 469 438 
874 469 470 438 
875 438 470 439 
876 470 471 439 
877 439 471 440 
878 471 472 440 
879 440 472 441 
880 472 473 441 
881 441 473 474 
882 441 474 442 
883 442 474 475 
884 442 475 443 
885 443 475 476 
886 443 476 444 
887 444 476 477 
888 444 477 445 
889 445 477 478 
890 445 478 446 
891 446 478 479 
892 446 479 447 
893 447 479 480 
894 447 480 448 
895 448 480 449 
896 448 449 417 
897 449 481 450 
898 481 482 450 
899 450 482 451 
900 482 483 451 
901 451 483 452 
902 483 484 452 
903 452 484 453 
904 484 485 453 
905 453 485 454 
906 485 486 454 
907 454 486 455 
908 486 487 455 
909 455 487 456 
910 487 488 456 
911 456 488 457 
912 488 489 457 
913 457 489 490 
914 457 490 458 
915 458 490 491 
916 458 491 459 
917 459 491 492 
918 459 492 460 
919 460 492 493 
920 460 493 461 
921 461 493 494 
922 461 494 462 
923 462 494 495 
924 462 495 463 
925 463 495 496 
926 463 496 464 
927 464 496 497 
928 464 497 465 
929 465 497 466 
930 497 498 466 
931 466 498 467 
932 498 499 467 
933 467 499 468 
934 499 500 468 
935 468 500 469 
936 500 501 469 
937 469 501 470 
938 501 502 470 
939 470 502 471 
940 502 503 471 
941 471 503 472 
942 503 504 472 
943 472 504 473 
944 504 505 473 
945 473 505 506 
946 473 506 474 
947 474 506 507 
948 474 507 475 
949 475 507 508 
950 475 508 476 
951 476 508 509 
952 476 509 477 
953 477 509 510 
954 477 510 478 
955 478 510 511 
956 478 511 479 
957 479 511 512 
958 479 512 480 
959 480 512 481 
960 480 481 449 
961 481 513 482 
962 513 514 482 
963 482 514 483 
964 514 515 483 
965 483 515 484 
966 515 516 484 
967 484 516 485 
968 516 517 485 
969 485 517 486 
970 517 518 486 
971 486 518 487 
972 518 519 487 
973 487 519 488 
974 519 520 488 
975 488 520 489 
976 520 521 489 
977 489 521 522 
978 489 522 490 
979 490 522 523 
980 490 523 491 
981 491 523 524 
982 491 524 492 
983 492 524 525 
984 492 525 493 
985 493 525 526 
986 493 526 494 
987 494 526 527 
988 494 527 495 
989 495 527 528 
990 495 528 496 
991 496 528 529 
992 496 529 497 
993 497 529 498 
994 529 530 498 
995 498 530 499 
996 530 531 499 
997 499 531 500 
998 531 532 500 
999 500 532 501 
1000 532 533 501 
1001 501 533 502 
1002 533 534 502 
1003 502 534 503 
1004 534 535 503 
1005 503 535 504 
1006 535 536 504 
1007 504 536 505 
1008 536 537 505 
1009 505 537 538 
1010 505 538 506 
1011 506 538 539 
1012 506 539 507 
1013 507 539 540 
1014 507 540 508 
1015 508 540 541 
1016 508 541 509 
1017 509 541 542 
1018 509 542 510 
1019 510 542 543 
1020 510 543 511 
1021 511 543 544 
1022 511 544 512 
1023 512 544 513 
1024 512 513 481 
1025 513 545 514 
1026 545 546 514 
1027 514 546 515 
1028 546 547 515 
1029 515 547 516 
1030 547 548 516 
1031 516 548 517 
1032 548 549 517 
1033 517 549 518 
1034 549 550 518 
1035 518 550 519 
1036 550 551 519 
1037 519 551 520 
1038 551 552 520 
1039 520 552 521 
1040 552 553 521 
1041 521 553 554 
1042 521 554 522 
1043 522 554 555 
1044 522 555 523 
1045 523 555 556 
1046 523 556 524 
1047 524 556 557 
1048 524 557 525 
1049 525 557 558 
1050 525 558 526 
1051 526 558 559 
1052 526 559 527 
1053 527 559 560 
1054 527 560 528 
1055 528 560 561 
1056 528 561 529 
1057 529 561 530 
1058 561 562 530 
1059 530 562 531 
1060 562 563 531 
1061 531 563 532 
1062 563 564 532 
1063 532 564 533 
1064 564 565 533 
1065 533 565 534 
1066 565 566 534 
1067 534 566 535 
1068 566 567 535 
1069 535 567 536 
1070 567 568 536 
1071 536 568 537 
1072 568 569 537 
1073 537 569 570 
1074 537 570 538 
1075 538 570 571 
1076 538 571 539 
1077 539 571 572 
1078 539 572 540 
1079 540 572 573 
1080 540 573 541 
1081 541 573 574 
1082 541 574 542 
1083 542 574 575 
1084 542 575 543 
1085 543 575 576 
1086 543 576 544 
1087 544 576 545 
1088 544 545 513 
1089 545 577 546 
1090 577 578 546 
1091 546 578 547 
1092 578 579 547 
1093 547 579 548 
1094 579 580 548 
1095 548 580 549 
1096 580 581 549 
1097 549 581 550 
1098 581 582 550 
1099 550 582 551 
1100 582 583 551 
1101 551 583 552 
1102 583 584 552 
1103 552 584 553 
1104 584 585 553 
1105 553 585 586 
1106 553 586 554 
1107 554 586 587 
1108 554 587 555 
1109 555 587 588 
1110 555 588 556 
1111 556 588 589 
1112 556 589 557 
1113 557 589 590 
1114 557 590 558 
1115 558 590 591 
1116 558 591 559 
1117 559 591 592 
1118 559 592 560 
1119 560 592 593 
1120 560 593 561 
1121 561 593 562 
1122 593 594 562 
1123 562 594 563 
1124 594 595 563 
1125 563 595 564 
1126 595 596 564 
1127 564 596 565 
1128 596 597 565 
1129 565 597 566 
1130 597 598 566 
1131 566 598 567 
1132 598 599 567 
1133 567 599 568 
1134 599 600 568 
1135 568 600 569 
1136 600 601 569 
1137 569 601 602 
1138 569 602 570 
1139 570 602 603 
1140 570 603 571 
1141 571 603 604 
1142 571 604 572 
1143 572 604 605 
1144 572 605 573 
1145 573 605 606 
1146 573 606 574 
1147 574 606 607 
1148 574 607 575 
1149 575 607 608 
1150 575 608 576 
1151 576 608 577 
1152 576 577 545 
1153 577 609 578 
1154 609 610 578 
1155 578 610 579 
1156 610 611 579 
1157 579 611 580 
1158 611 612 580 
1159 580 612 581 
1160 612 613 581 
1161 581 613 582 
1162 613 614 582 
1163 582 614 583 
1164 614 615 583 
1165 583 615 584 
1166 615 616 584 
1167 584 616 585 
1168 616 617 585 
1169 585 617 618 
1170 585 618 586 
1171 586 618 619 
1172 586 619 587 
1173 587 619 620 
1174 587 620 588 
1175 588 620 621 
1176 588 621 589 
1177 589 621 622 
1178 589 622 590 
1179 590 622 623 
1180 590 623 591 
1181 591 623 624 
1182 591 624 592 
1183 592 624 625 
1184 592 625 593 
1185 593 625 594 
1186 625 626 594 
1187 594 626 595 
1188 626 627 595 
1189 595 627 596 
1190 627 628 596 
1191 596 628 597 
1192 628 629 597 
1193 597 629 598 
1194 629 630 598 
1195 598 630 599 
1196 630 631 599 
1197 599 631 600 
1198 631 632 600 
1199 600 632 601 
1200 632 633 601 
1201 601 633 634 
1202 601 634 602 
1203 602 634 635 
1204 602 635 603 
1205 603 635 636 
1206 603 636 604 
1207 604 636 637 
1208 604 637 605 
1209 605 637 638 
1210 605 638 606 
1211 606 638 639 
1212 606 639 607 
1213 607 639 640 
1214 607 640 608 
1215 608 640 609 
1216 608 609 577 
1217 609 641 610 
1218 641 642 610 
1219 610 642 611 
1220 642 643 611 
1221 611 643 612 
1222 643 644 612 
1223 612 644 613 
1224 644 645 613 
1225 613 645 614 
1226 645 646 614 
1227 614 646 615 
1228 646 647 615 
1229 615 647 616 
1230 647 648 616 
1231 616 648 617 
1232 648 649 617 
1233 617 649 650 
1234 617 650 618 
1235 618 650 651 
1236 618 651 619 
1237 619 651 652 
1238 619 652 620 
1239 620 652 653 
1240 620 653 621 
1241 621 653 654 
1242 621 654 622 
1243 622 654 655 
1244 622 655 623 
1245 623 655 656 
1246 623 656 624 
1247 624 656 657 
1248 624 657 625 
1249 625 657 626 
1250 657 658 626 
1251 626 658 627 
1252 658 659 627 
1253 627 659 628 
1254 659 660 628 
1255 628 660 629 
1256 660 661 629 
1257 629 661 630 
1258 661 662 630 
1259 630 662 631 
1260 662 663 631 
1261 631 663 632 
1262 663 664 632 
1263 632 664 633 
1264 664 665 633 
1265 633 665 666 
1266 633 666 634 
1267 634 666 667 
1268 634 667 635 
1269 635 667 668 
1270 635 668 636 
1271 636 668 669 
1272 636 669 637 
1273 637 669 670 
1274 637 670 638 
1275 638 670 671 
1276 638 671 639 
1277 639 671 672 
1278 639 672 640 
1279 640 672 641 
1280 640 641 609 
1281 641 673 642 
1282 642 673 674 
1283 642 674 643 
1284 643 674 675 
1285 643 675 644 
1286 644 675 676 
1287 644 676 645 
1288 645 676 677 
1289 645 677 646 
1290 646 677 678 
1291 646 678 647 
1292 647 678 679 
1293 647 679 648 
1294 648 679 680 
1295 648 680 649 
1296 649 680 650 
1297 680 681 650 
1298 650 681 651 
1299 681 682 651 
1300 651 682 652 
1301 682 683 652 
1302 652 683 653 
1303 683 684 653 
1304 653 684 654 
1305 684 685 654 
1306 654 685 655 
1307 685 686 655 
1308 655 686 656 
1309 686 687 656 
1310 656 687 657 
1311 657 688 658 
1312 658 688 689 
1313 658 689 659 
1314 659 689 690 
1315 659 690 660 
1316 660 690 691 
1317 660 691 661 
1318 661 691 692 
1319 661 692 662 
1320 662 692 693 
1321 662 693 663 
1322 663 693 694 
1323 663 694 664 
1324 664 694 695 
1325 664 695 665 
1326 665 695 666 
1327 695 696 666 
1328 666 696 667 
1329 696 697 667 
1330 667 697 668 
1331 697 698 668 
1332 668 698 669 
1333 698 699 669 
1334 669 699 670 
1335 699 700 670 
1336 670 700 671 
1337 700 701 671 
1338 671 701 672 
1339 701 702 672 
1340 672 702 641 
1341 641 703 673 
1342 673 703 704 
1343 673 704 674 
1344 674 704 705 
1345 674 705 675 
1346 675 705 706 
1347 675 706 676 
1348 676 706 707 
1349 676 707 677 
1350 677 707 708 
1351 677 708 678 
1352 678 708 709 
1353 678 709 679 
1354 679 709 710 
1355 679 710 680 
1356 680 710 681 
1357 710 711 681 
1358 681 711 682 
1359 711 712 682 
1360 682 712 683 
1361 712 713 683 
1362 683 713 684 
1363 713 714 684 
1364 684 714 685 
1365 714 715 685 
1366 685 715 686 
1367 715 716 686 
1368 686 716 687 
1369 716 717 687 
1370 687 717 657 
1371 657 717 688 
1372 688 717 716 
1373 688 716 689 
1374 689 716 715 
1375 689 715 690 
1376 690 715 714 
1377 690 714 691 
1378 691 714 713 
1379 691 713 692 
1380 692 713 712 
1381 692 712 693 
1382 693 712 711 
1383 693 711 694 
1384 694 711 710 
1385 694 710 695 
1386 695 710 696 
1387 710 709 696 
1388 696 709 697 
1389 709 708 697 
1390 697 708 698 
1391 708 707 698 
1392 698 707 699 
1393 707 706 699 
1394 699 706 700 
1395 706 705 700 
1396 700 705 701 
1397 705 704 701 
1398 701 704 702 
1399 704 703 702 
1400 702 703 641 
1401 1 2 718 
1402 718 2 719 
1403 2 5 719 
1404 719 5 720 
1405 5 7 720 
1406 720 7 721 
1407 7 9 721 
1408 721 9 722 
1409 9 11 722 
1410 722 11 723 
1411 11 13 723 
1412 723 13 724 
1413 13 15 724 
1414 724 15 725 
1415 15 17 725 
1416 725 17 726 
1417 17 727 726 
1418 17 20 727 
1419 20 728 727 
1420 20 22 728 
1421 22 729 728 
1422 22 24 729 
1423 24 730 729 
1424 24 26 730 
1425 26 731 730 
1426 26 28 731 
1427 28 732 731 
1428 28 30 732 
1429 30 733 732 
1430 30 32 733 
1431 32 734 733 
1432 32 34 734 
1433 34 35 734 
1434 734 35 735 
1435 35 37 735 
1436 735 37 736 
1437 37 39 736 
1438 736 39 737 
1439 39 41 737 
1440 737 41 738 
1441 41 43 738 
1442 738 43 739 
1443 43 45 739 
1444 739 45 740 
1445 45 47 740 
1446 740 47 741 
1447 47 49 741 
1448 741 49 742 
1449 49 743 742 
1450 49 52 743 
1451 52 744 743 
1452 52 54 744 
1453 54 745 744 
1454 54 56 745 
1455 56 746 745 
1456 56 58 746 
1457 58 747 746 
1458 58 60 747 
1459 60 748 747 
1460 60 62 748 
1461 62 749 748 
1462 62 64 749 
1463 64 718 749 
1464 64 1 718 
1465 718 719 750 
1466 750 719 751 
1467 719 720 751 
1468 751 720 752 
1469 720 721 752 
1470 752 721 753 
1471 721 722 753 
1472 753 722 754 
1473 722 723 754 
1474 754 723 755 
1475 723 724 755 
1476 755 724 756 
1477 724 725 756 
1478 756 725 757 
1479 725 726 757 
1480 757 726 758 
1481 726 759 758 
1482 726 727 759 
1483 727 760 759 
1484 727 728 760 
1485 728 761 760 
1486 728 729 761 
1487 729 762 761 
1488 729 730 762 
1489 730 763 762 
1490 730 731 763 
1491 731 764 763 
1492 731 732 764 
1493 732 765 764 
1494 732 733 765 
1495 733 766 765 
1496 733 734 766 
1497 734 735 766 
1498 766 735 767 
1499 735 736 767 
1500 767 736 768 
1501 736 737 768 
1502 768 737 769 
1503 737 738 769 
1504 769 738 770 
1505 738 739 770 
1506 770 739 771 
1507 739 740 771 
1508 771 740 772 
1509 740 741 772 
1510 772 741 773 
1511 741 742 773 
1512 773 742 774 
1513 742 775 774 
1514 742 743 775 
1515 743 776 775 
1516 743 744 776 
1517 744 777 776 
1518 744 745 777 
1519 745 778 777 
1520 745 746 778 
1521 746 779 778 
1522 746 747 779 
1523 747 780 779 
1524 747 748 780 
1525 748 781 780 
1526 748 749 781 
1527 749 750 781 
1528 749 718 750 
1529 750 751 782 
1530 782 751 783 
1531 751 752 783 
1532 783 752 784 
1533 752 753 784 
1534 784 753 785 
1535 753 754 785 
1536 785 754 786 
1537 754 755 786 
1538 786 755 787 
1539 755 756 787 
1540 787 756 788 
1541 756 757 788 
1542 788 757 789 
1543 757 758 789 
1544 789 758 790 
1545 758 791 790 
1546 758 759 791 
1547 759 792 791 
1548 759 760 792 
1549 760 793 792 
1550 760 761 793 
1551 761 794 793 
1552 761 762 794 
1553 762 795 794 
1554 762 763 795 
1555 763 796 795 
1556 763 764 796 
1557 764 797 796 
1558 764 765 797 
1559 765 798 797 
1560 765 766 798 
1561 766 767 798 
1562 798 767 799 
1563 767 768 799 
1564 799 768 800 
1565 768 769 800 
1566 800 769 801 
1567 769 770 801 
1568 801 770 802 
1569 770 771 802 
1570 802 771 803 
1571 771 772 803 
1572 803 772 804 
1573 772 773 804 
1574 804 773 805 
1575 773 774 805 
1576 805 774 806 
1577 774 807 806 
1578 774 775 807 
1579 775 808 807 
1580 775 776 808 
1581 776 809 808 
1582 776 777 809 
1583 777 810 809 
1584 777 778 810 
1585 778 811 810 
1586 778 779 811 
1587 779 812 811 
1588 779 780 812 
1589 780 813 812 
1590 780 781 813 
1591 781 782 813 
1592 781 750 782 
1593 782 783 814 
1594 814 783 815 
1595 783 784 815 
1596 815 784 816 
1597 784 785 816 
1598 816 785 817 
1599 785 786 817 
1600 817 786 818 
1601 786 787 818 
1602 818 787 819 
1603 787 788 819 
1604 819 788 820 
1605 788 789 820 
1606 820 789 821 
1607 789 790 821 
1608 821 790 822 
1609 790 823 822 
1610 790 791 823 
1611 791 824 823 
1612 791 792 824 
1613 792 825 824 
1614 792 793 825 
1615 793 826 825 
1616 793 794 826 
1617 794 827 826 
1618 794 795 827 
1619 795 828 827 
1620 795 796 828 
1621 796 829 828 
1622 796 797 829 
1623 797 830 829 
1624 797 798 830 
1625 798 799 830 
1626 830 799 831 
1627 799 800 831 
1628 831 800 832 
1629 800 801 832 
1630 832 801 833 
1631 801 802 833 
1632 833 802 834 
1633 802 803 834 
1634 834 803 835 
1635 803 804 835 
1636 835 804 836 
1637 804 805 836 
1638 836 805 837 
1639 805 806 837 
1640 837 806 838 
1641 806 839 838 
1642 806 807 839 
1643 807 840 839 
1644 807 808 840 
1645 808 841 840 
1646 808 809 841 
1647 809 842 841 
1648 809 810 842 
1649 810 843 842 
1650 810 811 843 
1651 811 844 843 
1652 811 812 844 
1653 812 845 844 
1654 812 813 845 
1655 813 814 845 
1656 813 782 814 
1657 814 815 846 
1658 846 815 847 
1659 815 816 847 
1660 847 816 848 
1661 816 817 848 
1662 848 817 849 
1663 817 818 849 
1664 849 818 850 
1665 818 819 850 
1666 850 819 851 
1667 819 820 851 
1668 851 820 852 
1669 820 821 852 
1670 852 821 853 
1671 821 822 853 
1672 853 822 854 
1673 822 855 854 
1674 822 823 855 
1675 823 856 855 
1676 823 824 856 
1677 824 857 856 
1678 824 825 857 
1679 825 858 857 
1680 825 826 858 
1681 826 859 858 
1682 826 827 859 
1683 827 860 859 
1684 827 828 860 
1685 828 861 860 
1686 828 829 861 
1687 829 862 861 
1688 829 830 862 
1689 830 831 862 
1690 862 831 863 
1691 831 832 863 
1692 863 832 864 
1693 832 833 864 
1694 864 833 865 
1695 833 834 865 
1696 865 834 866 
1697 834 835 866 
1698 866 835 867 
1699 835 836 867 
1700 867 836 868 
1701 836 837 868 
1702 868 837 869 
1703 837 838 869 
1704 869 838 870 
1705 838 871 870 
1706 838 839 871 
1707 839 872 871 
1708 839 840 872 
1709 840 873 872 
1710 840 841 873 
1711 841 874 873 
1712 841 842 874 
1713 842 875 874 
1714 842 843 875 
1715 843 876 875 
1716 843 844 876 
1717 844 877 876 
1718 844 845 877 
1719 845 846 877 
1720 845 814 846 
1721 846 847 878 
1722 878 847 879 
1723 847 848 879 
1724 879 848 880 
1725 848 849 880 
1726 880 849 881 
1727 849 850 881 
1728 881 850 882 
1729 850 851 882 
1730 882 851 883 
1731 851 852 883 
1732 883 852 884 
1733 852 853 884 
1734 884 853 885 
1735 853 854 885 
1736 885 854 886 
1737 854 887 886 
1738 854 855 887 
1739 855 888 887 
1740 855 856 888 
1741 856 889 888 
1742 856 857 889 
1743 857 890 889 
1744 857 858 890 
1745 858 891 890 
1746 858 859 891 
1747 859 892 891 
1748 859 860 892 
1749 860 893 892 
1750 860 861 893 
1751 861 894 893 
1752 861 862 894 
1753 862 863 894 
1754 894 863 895 
1755 863 864 895 
1756 895 864 896 
1757 864 865 896 
1758 896 865 897 
1759 865 866 897 
1760 897 866 898 
1761 866 867 898 
1762 898 867 899 
1763 867 868 899 
1764 899 868 900 
1765 868 869 900 
1766 900 869 901 
1767 869 870 901 
1768 901 870 902 
1769 870 903 902 
1770 870 871 903 
1771 871 904 903 
1772 871 872 904 
1773 872 905 904 
1774 872 873 905 
1775 873 906 905 
1776 873 874 906 
1777 874 907 906 
1778 874 875 907 
1779 875 908 907 
1780 875 876 908 
1781 876 909 908 
1782 876 877 909 
1783 877 878 909 
1784 877 846 878 
1785 878 879 910 
1786 910 879 911 
1787 879 880 911 
1788 911 880 912 
1789 880 881 912 
1790 912 881 913 
1791 881 882 913 
1792 913 882 914 
1793 882 883 914 
1794 914 883 915 
1795 883 884 915 
1796 915 884 916 
1797 884 885 916 
1798 916 885 917 
1799 885 886 917 
1800 917 886 918 
1801 886 919 918 
1802 886 887 919 
1803 887 920 919 
1804 887 888 920 
1805 888 921 920 
1806 888 889 921 
1807 889 922 921 
1808 889 890 922 
1809 890 923 922 
1810 890 891 923 
1811 891 924 923 
1812 891 892 924 
1813 892 925 924 
1814 892 893 925 
1815 893 926 925 
1816 893 894 926 
1817 894 895 926 
1818 926 895 927 
1819 895 896 927 
1820 927 896 928 
1821 896 897 928 
1822 928 897 929 
1823 897 898 929 
1824 929 898 930 
1825 898 899 930 
1826 930 899 931 
1827 899 900 931 
1828 931 900 932 
1829 900 901 932 
1830 932 901 933 
1831 901 902 933 
1832 933 902 934 
1833 902 935 934 
1834 902 903 935 
1835 903 936 935 
1836 903 904 936 
1837 904 937 936 
1838 904 905 937 
1839 905 938 937 
1840 905 906 938 
1841 906 939 938 
1842 906 907 939 
1843 907 940 939 
1844 907 908 940 
1845 908 941 940 
1846 908 909 941 
1847 909 910 941 
1848 909 878 910 
1849 910 911 942 
1850 942 911 943 
1851 911 912 943 
1852 943 912 944 
1853 912 913 944 
1854 944 913 945 
1855 913 914 945 
1856 945 914 946 
1857 914 915 946 
1858 946 915 947 
1859 915 916 947 
1860 947 916 948 
1861 916 917 948 
1862 948 917 949 
1863 917 918 949 
1864 949 918 950 
1865 918 951 950 
1866 918 919 951 
1867 919 952 951 
1868 919 920 952 
1869 920 953 952 
1870 920 921 953 
1871 921 954 953 
1872 921 922 954 
1873 922 955 954 
1874 922 923 955 
1875 923 956 955 
1876 923 924 956 
1877 924 957 956 
1878 924 925 957 
1879 925 958 957 
1880 925 926 958 
1881 926 927 958 
1882 958 927 959 
1883 927 928 959 
1884 959 928 960 
1885 928 929 960 
1886 960 929 961 
1887 929 930 961 
1888 961 930 962 
1889 930 931 962 
1890 962 931 963 
1891 931 932 963 
1892 963 932 964 
1893 932 933 964 
1894 964 933 965 
1895 933 934 965 
1896 965 934 966 
1897 934 967 966 
1898 934 935 967 
1899 935 968 967 
1900 935 936 968 
1901 936 969 968 
1902 936 937 969 
1903 937 970 969 
1904 937 938 970 
1905 938 971 970 
1906 938 939 971 
1907 939 972 971 
1908 939 940 972 
1909 940 973 972 
1910 940 941 973 
1911 941 942 973 
1912 941 910 942 
1913 942 943 974 
1914 974 943 975 
1915 943 944 975 
1916 975 944 976 
1917 944 945 976 
1918 976 945 977 
1919 945 946 977 
1920 977 946 978 
1921 946 947 978 
1922 978 947 979 
1923 947 948 979 
1924 979 948 980 
1925 948 949 980 
1926 980 949 981 
1927 949 950 981 
1928 981 950 982 
1929 950 983 982 
1930 950 951 983 
1931 951 984 983 
1932 951 952 984 
1933 952 985 984 
1934 952 953 985 
1935 953 986 985 
1936 953 954 986 
1937 954 987 986 
1938 954 955 987 
1939 955 988 987 
1940 955 956 988 
1941 956 989 988 
1942 956 957 989 
1943 957 990 989 
1944 957 958 990 
1945 958 959 990 
1946 990 959 991 
1947 959 960 991 
1948 991 960 992 
1949 960 961 992 
1950 992 961 993 
1951 961 962 993 
1952 993 962 994 
1953 962 963 994 
1954 994 963 995 
1955 963 964 995 
1956 995 964 996 
1957 964 965 996 
1958 996 965 997 
1959 965 966 997 
1960 997 966 998 
1961 966 999 998 
1962 966 967 999 
1963 967 1000 999 
1964 967 968 1000 
1965 968 1001 1000 
1966 968 969 1001 
1967 969 1002 1001 
1968 969 970 1002 
1969 970 1003 1002 
1970 970 971 1003 
1971 971 1004 1003 
1972 971 972 1004 
1973 972 1005 1004 
1974 972 973 1005 
1975 973 974 1005 
1976 973 942 974 
1977 974 975 1006 
1978 1006 975 1007 
1979 975 976 1007 
1980 1007 976 1008 
1981 976 977 1008 
1982 1008 977 1009 
1983 977 978 1009 
1984 1009 978 1010 
1985 978 979 1010 
1986 1010 979 1011 
1987 979 980 1011 
1988 1011 980 1012 
1989 980 981 1012 
1990 1012 981 1013 
1991 981 982 1013 
1992 1013 982 1014 
1993 982 1015 1014 
1994 982 983 1015 
1995 983 1016 1015 
1996 983 984 1016 
1997 984 1017 1016 
1998 984 985 1017 
1999 985 1018 1017 
2000 985 986 1018 
2001 986 1019 1018 
2002 986 987 1019 
2003 987 1020 1019 
2004 987 988 1020 
2005 988 1021 1020 
2006 988 989 1021 
2007 989 1022 1021 
2008 989 990 1022 
2009 990 991 1022 
2010 1022 991 1023 
2011 991 992 1023 
2012 1023 992 1024 
2013 992 993 1024 
2014 1024 993 1025 
2015 993 994 1025 
2016 1025 994 1026 
2017 994 995 1026 
2018 1026 995 1027 
2019 995 996 1027 
2020 1027 996 1028 
2021 996 997 1028 
2022 1028 997 1029 
2023 997 998 1029 
2024 1029 998 1030 
2025 998 1031 1030 
2026 998 999 1031 
2027 999 1032 1031 
2028 999 1000 1032 
2029 1000 1033 1032 
2030 1000 1001 1033 
2031 1001 1034 1033 
2032 1001 1002 1034 
2033 1002 1035 1034 
2034 1002 1003 1035 
2035 1003 1036 1035 
2036 1003 1004 1036 
2037 1004 1037 1036 
2038 1004 1005 1037 
2039 1005 1006 1037 
2040 1005 974 1006 
2041 1006 1007 1038 
2042 1038 1007 1039 
2043 1007 1008 1039 
2044 1039 1008 1040 
2045 1008 1009 1040 
2046 1040 1009 1041 
2047 1009 1010 1041 
2048 1041 1010 1042 
2049 1010 1011 1042 
2050 1042 1011 1043 
2051 1011 1012 1043 
2052 1043 1012 1044 
2053 1012 1013 1044 
2054 1044 1013 1045 
2055 1013 1014 1045 
2056 1045 1014 1046 
2057 1014 1047 1046 
2058 1014 1015 1047 
2059 1015 1048 1047 
2060 1015 1016 1048 
2061 1016 1049 1048 
2062 1016 1017 1049 
2063 1017 1050 1049 
2064 1017 1018 1050 
2065 1018 1051 1050 
2066 1018 1019 1051 
2067 1019 1052 1051 
2068 1019 1020 1052 
2069 1020 1053 1052 
2070 1020 1021 1053 
2071 1021 1054 1053 
2072 1021 1022 1054 
2073 1022 1023 1054 
2074 1054 1023 1055 
2075 1023 1024 1055 
2076 1055 1024 1056 
2077 1024 1025 1056 
2078 1056 1025 1057 
2079 1025 1026 1057 
2080 1057 1026 1058 
2081 1026 1027 1058 
2082 1058 1027 1059 
2083 1027 1028 1059 
2084 1059 1028 1060 
2085 1028 1029 1060 
2086 1060 1029 1061 
2087 1029 1030 1061 
2088 1061 1030 1062 
2089 1030 1063 1062 
2090 1030 1031 1063 
2091 1031 1064 1063 
2092 1031 1032 1064 
2093 1032 1065 1064 
2094 1032 1033 1065 
2095 1033 1066 1065 
2096 1033 1034 1066 
2097 1034 1067 1066 
2098 1034 1035 1067 
2099 1035 1068 1067 
2100 1035 1036 1068 
2101 1036 1069 1068 
2102 1036 1037 1069 
2103 1037 1038 1069 
2104 1037 1006 1038 
2105 1038 1039 1070 
2106 1070 1039 1071 
2107 1039 1040 1071 
2108 1071 1040 1072 
2109 1040 1041 1072 
2110 1072 1041 1073 
2111 1041 1042 1073 
2112 1073 1042 1074 
2113 1042 1043 1074 
2114 1074 1043 1075 
2115 1043 1044 1075 
2116 1075 1044 1076 
2117 1044 1045 1076 
2118 1076 1045 1077 
2119 1045 1046 1077 
2120 1077 1046 1078 
2121 1046 1079 1078 
2122 1046 1047 1079 
2123 1047 1080 1079 
2124 1047 1048 1080 
2125 1048 1081 1080 
2126 1048 1049 1081 
2127 1049 1082 1081 
2128 1049 1050 1082 
2129 1050 1083 1082 
2130 1050 1051 1083 
2131 1051 1084 1083 
2132 1051 1052 1084 
2133 1052 1085 1084 
2134 1052 1053 1085 
2135 1053 1086 1085 
2136 1053 1054 1086 
2137 1054 1055 1086 
2138 1086 1055 1087 
2139 1055 1056 1087 
2140 1087 1056 1088 
2141 1056 1057 1088 
2142 1088 1057 1089 
2143 1057 1058 1089 
2144 1089 1058 1090 
2145 1058 1059 1090 
2146 1090 1059 1091 
2147 1059 1060 1091 
2148 1091 1060 1092 
2149 1060 1061 1092 
2150 1092 1061 1093 
2151 1061 1062 1093 
2152 1093 1062 1094 
2153 1062 1095 1094 
2154 1062 1063 1095 
2155 1063 1096 1095 
2156 1063 1064 1096 
2157 1064 1097 1096 
2158 1064 1065 1097 
2159 1065 1098 1097 
2160 1065 1066 1098 
2161 1066 1099 1098 
2162 1066 1067 1099 
2163 1067 1100 1099 
2164 1067 1068 1100 
2165 1068 1101 1100 
2166 1068 1069 1101 
2167 1069 1070 1101 
2168 1069 1038 1070 
2169 1070 1071 1102 
2170 1102 1071 1103 
2171 1071 1072 1103 
2172 1103 1072 1104 
2173 1072 1073 1104 
2174 1104 1073 1105 
2175 1073 1074 1105 
2176 1105 1074 1106 
2177 1074 1075 1106 
2178 1106 1075 1107 
2179 1075 1076 1107 
2180 1107 1076 1108 
2181 1076 1077 1108 
2182 1108 1077 1109 
2183 1077 1078 1109 
2184 1109 1078 1110 
2185 1078 1111 1110 
2186 1078 1079 1111 
2187 1079 1112 1111 
2188 1079 1080 1112 
2189 1080 1113 1112 
2190 1080 1081 1113 
2191 1081 1114 1113 
2192 1081 1082 1114 
2193 1082 1115 1114 
2194 1082 1083 1115 
2195 1083 1116 1115 
2196 1083 1084 1116 
2197 1084 1117 1116 
2198 1084 1085 1117 
2199 1085 1118 1117 
2200 1085 1086 1118 
2201 1086 1087 1118 
2202 1118 1087 1119 
2203 1087 1088 1119 
2204 1119 1088 1120 
2205 1088 1089 1120 
2206 1120 1089 1121 
2207 1089 1090 1121 
2208 1121 1090 1122 
2209 1090 1091 1122 
2210 1122 1091 1123 
2211 1091 1092 1123 
2212 1123 1092 1124 
2213 1092 1093 1124 
2214 1124 1093 1125 
2215 1093 1094 1125 
2216 1125 1094 1126 
2217 1094 1127 1126 
2218 1094 1095 1127 
2219 1095 1128 1127 
2220 1095 1096 1128 
2221 1096 1129 1128 
2222 1096 1097 1129 
2223 1097 1130 1129 
2224 1097 1098 1130 
2225 1098 1131 1130 
2226 1098 1099 1131 
2227 1099 1132 1131 
2228 1099 1100 1132 
2229 1100 1133 1132 
2230 1100 1101 1133 
2231 1101 1102 1133 
2232 1101 1070 1102 
2233 1102 1103 1134 
2234 1134 1103 1135 
2235 1103 1104 1135 
2236 1135 1104 1136 
2237 1104 1105 1136 
2238 1136 1105 1137 
2239 1105 1106 1137 
2240 1137 1106 1138 
2241 1106 1107 1138 
2242 1138 1107 1139 
2243 1107 1108 1139 
2244 1139 1108 1140 
2245 1108 1109 1140 
2246 1140 1109 1141 
2247 1109 1110 1141 
2248 1141 1110 1142 
2249 1110 1143 1142 
2250 1110 1111 1143 
2251 1111 1144 1143 
2252 1111 1112 1144 
2253 1112 1145 1144 
2254 1112 1113 1145 
2255 1113 1146 1145 
2256 1113 1114 1146 
2257 1114 1147 1146 
2258 1114 1115 1147 
2259 1115 1148 1147 
2260 1115 1116 1148 
2261 1116 1149 1148 
2262 1116 1117 1149 
2263 1117 1150 1149 
2264 1117 1118 1150 
2265 1118 1119 1150 
2266 1150 1119 1151 
2267 1119 1120 1151 
2268 1151 1120 1152 
2269 1120 1121 1152 
2270 1152 1121 1153 
2271 1121 1122 1153 
2272 1153 1122 1154 
2273 1122 1123 1154 
2274 1154 1123 1155 
2275 1123 1124 1155 
2276 1155 1124 1156 
2277 1124 1125 1156 
2278 1156 1125 1157 
2279 1125 1126 1157 
2280 1157 1126 1158 
2281 1126 1159 1158 
2282 1126 1127 1159 
2283 1127 1160 1159 
2284 1127 1128 1160 
2285 1128 1161 1160 
2286 1128 1129 1161 
2287 1129 1162 1161 
2288 1129 1130 1162 
2289 1130 1163 1162 
2290 1130 1131 1163 
2291 1131 1164 1163 
2292 1131 1132 1164 
2293 1132 1165 1164 
2294 1132 1133 1165 
2295 1133 1134 1165 
2296 1133 1102 1134 
2297 1134 1135 1166 
2298 1166 1135 1167 
2299 1135 1136 1167 
2300 1167 1136 1168 
2301 1136 1137 1168 
2302 1168 1137 1169 
2303 1137 1138 1169 
2304 1169 1138 1170 
2305 1138 1139 1170 
2306 1170 1139 1171 
2307 1139 1140 1171 
2308 1171 1140 1172 
2309 1140 1141 1172 
2310 1172 1141 1173 
2311 1141 1142 1173 
2312 1173 1142 1174 
2313 1142 1175 1174 
2314 1142 1143 1175 
2315 1143 1176 1175 
2316 1143 1144 1176 
2317 1144 1177 1176 
2318 1144 1145 1177 
2319 1145 1178 1177 
2320 1145 1146 1178 
2321 1146 1179 1178 
2322 1146 1147 1179 
2323 1147 1180 1179 
2324 1147 1148 1180 
2325 1148 1181 1180 
2326 1148 1149 1181 
2327 1149 1182 1181 
2328 1149 1150 1182 
2329 1150 1151 1182 
2330 1182 1151 1183 
2331 1151 1152 1183 
2332 1183 1152 1184 
2333 1152 1153 1184 
2334 1184 1153 1185 
2335 1153 1154 1185 
2336 1185 1154 1186 
2337 1154 1155 1186 
2338 1186 1155 1187 
2339 1155 1156 1187 
2340 1187 1156 1188 
2341 1156 1157 1188 
2342 1188 1157 1189 
2343 1157 1158 1189 
2344 1189 1158 1190 
2345 1158 1191 1190 
2346 1158 1159 1191 
2347 1159 1192 1191 
2348 1159 1160 1192 
2349 1160 1193 1192 
2350 1160 1161 1193 
2351 1161 1194 1193 
2352 1161 1162 1194 
2353 1162 1195 1194 
2354 1162 1163 1195 
2355 1163 1196 1195 
2356 1163 1164 1196 
2357 1164 1197 1196 
2358 1164 1165 1197 
2359 1165 1166 1197 
2360 1165 1134 1166 
2361 1166 1167 1198 
2362 1198 1167 1199 
2363 1167 1168 1199 
2364 1199 1168 1200 
2365 1168 1169 1200 
2366 1200 1169 1201 
2367 1169 1170 1201 
2368 1201 1170 1202 
2369 1170 1171 1202 
2370 1202 1171 1203 
2371 1171 1172 1203 
2372 1203 1172 1204 
2373 1172 1173 1204 
2374 1204 1173 1205 
2375 1173 1174 1205 
2376 1205 1174 1206 
2377 1174 1207 1206 
2378 1174 1175 1207 
2379 1175 1208 1207 
2380 1175 1176 1208 
2381 1176 1209 1208 
2382 1176 1177 1209 
2383 1177 1210 1209 
2384 1177 1178 1210 
2385 1178 1211 1210 
2386 1178 1179 1211 
2387 1179 1212 1211 
2388 1179 1180 1212 
2389 1180 1213 1212 
2390 1180 1181 1213 
2391 1181 1214 1213 
2392 1181 1182 1214 
2393 1182 1183 1214 
2394 1214 1183 1215 
2395 1183 1184 1215 
2396 1215 1184 1216 
2397 1184 1185 1216 
2398 1216 1185 1217 
2399 1185 1186 1217 
2400 1217 1186 1218 
2401 1186 1187 1218 
2402 1218 1187 1219 
2403 1187 1188 1219 
2404 1219 1188 1220 
2405 1188 1189 1220 
2406 1220 1189 1221 
2407 1189 1190 1221 
2408 1221 1190 1222 
2409 1190 1223 1222 
2410 1190 1191 1223 
2411 1191 1224 1223 
2412 1191 1192 1224 
2413 1192 1225 1224 
2414 1192 1193 1225 
2415 1193 1226 1225 
2416 1193 1194 1226 
2417 1194 1227 1226 
2418 1194 1195 1227 
2419 1195 1228 1227 
2420 1195 1196 1228 
2421 1196 1229 1228 
2422 1196 1197 1229 
2423 1197 1198 1229 
2424 1197 1166 1198 
2425 1198 1199 1230 
2426 1230 1199 1231 
2427 1199 1200 1231 
2428 1231 1200 1232 
2429 1200 1201 1232 
2430 1232 1201 1233 
2431 1201 1202 1233 
2432 1233 1202 1234 
2433 1202 1203 1234 
2434 1234 1203 1235 
2435 1203 1204 1235 
2436 1235 1204 1236 
2437 1204 1205 1236 
2438 1236 1205 1237 
2439 1205 1206 1237 
2440 1237 1206 1238 
2441 1206 1239 1238 
2442 1206 1207 1239 
2443 1207 1240 1239 
2444 1207 1208 1240 
2445 1208 1241 1240 
2446 1208 1209 1241 
2447 1209 1242 1241 
2448 1209 1210 1242 
2449 1210 1243 1242 
2450 1210 1211 1243 
2451 1211 1244 1243 
2452 1211 1212 1244 
2453 1212 1245 1244 
2454 1212 1213 1245 
2455 1213 1246 1245 
2456 1213 1214 1246 
2457 1214 1215 1246 
2458 1246 1215 1247 
2459 1215 1216 1247 
2460 1247 1216 1248 
2461 1216 1217 1248 
2462 1248 1217 1249 
2463 1217 1218 1249 
2464 1249 1218 1250 
2465 1218 1219 1250 
2466 1250 1219 1251 
2467 1219 1220 1251 
2468 1251 1220 1252 
2469 1220 1221 1252 
2470 1252 1221 1253 
2471 1221 1222 1253 
2472 1253 1222 1254 
2473 1222 1255 1254 
2474 1222 1223 1255 
2475 1223 1256 1255 
2476 1223 1224 1256 
2477 1224 1257 1256 
2478 1224 1225 1257 
2479 1225 1258 1257 
2480 1225 1226 1258 
2481 1226 1259 1258 
2482 1226 1227 1259 
2483 1227 1260 1259 
2484 1227 1228 1260 
2485 1228 1261 1260 
2486 1228 1229 1261 
2487 1229 1230 1261 
2488 1229 1198 1230 
2489 1230 1231 1262 
2490 1262 1231 1263 
2491 1231 1232 1263 
2492 1263 1232 1264 
2493 1232 1233 1264 
2494 1264 1233 1265 
2495 1233 1234 1265 
2496 1265 1234 1266 
2497 1234 1235 1266 
2498 1266 1235 1267 
2499 1235 1236 1267 
2500 1267 1236 1268 
2501 1236 1237 1268 
2502 1268 1237 1269 
2503 1237 1238 1269 
2504 1269 1238 1270 
2505 1238 1271 1270 
2506 1238 1239 1271 
2507 1239 1272 1271 
2508 1239 1240 1272 
2509 1240 1273 1272 
2510 1240 1241 1273 
2511 1241 1274 1273 
2512 1241 1242 1274 
2513 1242 1275 1274 
2514 1242 1243 1275 
2515 1243 1276 1275 
2516 1243 1244 1276 
2517 1244 1277 1276 
2518 1244 1245 1277 
2519 1245 1278 1277 
2520 1245 1246 1278 
2521 1246 1247 1278 
2522 1278 1247 1279 
2523 1247 1248 1279 
2524 1279 1248 1280 
2525 1248 1249 1280 
2526 1280 1249 1281 
2527 1249 1250 1281 
2528 1281 1250 1282 
2529 1250 1251 1282 
2530 1282 1251 1283 
2531 1251 1252 1283 
2532 1283 1252 1284 
2533 1252 1253 1284 
2534 1284 1253 1285 
2535 1253 1254 1285 
2536 1285 1254 1286 
2537 1254 1287 1286 
2538 1254 1255 1287 
2539 1255 1288 1287 
2540 1255 1256 1288 
2541 1256 1289 1288 
2542 1256 1257 1289 
2543 1257 1290 1289 
2544 1257 1258 1290 
2545 1258 1291 1290 
2546 1258 1259 1291 
2547 1259 1292 1291 
2548 1259 1260 1292 
2549 1260 1293 1292 
2550 1260 1261 1293 
2551 1261 1262 1293 
2552 1261 1230 1262 
2553 1262 1263 1294 
2554 1294 1263 1295 
2555 1263 1264 1295 
2556 1295 1264 1296 
2557 1264 1265 1296 
2558 1296 1265 1297 
2559 1265 1266 1297 
2560 1297 1266 1298 
2561 1266 1267 1298 
2562 1298 1267 1299 
2563 1267 1268 1299 
2564 1299 1268 1300 
2565 1268 1269 1300 
2566 1300 1269 1301 
2567 1269 1270 1301 
2568 1301 1270 1302 
2569 1270 1303 1302 
2570 1270 1271 1303 
2571 1271 1304 1303 
2572 1271 1272 1304 
2573 1272 1305 1304 
2574 1272 1273 1305 
2575 1273 1306 1305 
2576 1273 1274 1306 
2577 1274 1307 1306 
2578 1274 1275 1307 
2579 1275 1308 1307 
2580 1275 1276 1308 
2581 1276 1309 1308 
2582 1276 1277 1309 
2583 1277 1310 1309 
2584 1277 1278 1310 
2585 1278 1279 1310 
2586 1310 1279 1311 
2587 1279 1280 1311 
2588 1311 1280 1312 
2589 1280 1281 1312 
2590 1312 1281 1313 
2591 1281 1282 1313 
2592 1313 1282 1314 
2593 1282 1283 1314 
2594 1314 1283 1315 
2595 1283 1284 1315 
2596 1315 1284 1316 
2597 1284 1285 1316 
2598 1316 1285 1317 
2599 1285 1286 1317 
2600 1317 1286 1318 
2601 1286 1319 1318 
2602 1286 1287 1319 
2603 1287 1320 1319 
2604 1287 1288 1320 
2605 1288 1321 1320 
2606 1288 1289 1321 
2607 1289 1322 1321 
2608 1289 1290 1322 
2609 1290 1323 1322 
2610 1290 1291 1323 
2611 1291 1324 1323 
2612 1291 1292 1324 
2613 1292 1325 1324 
2614 1292 1293 1325 
2615 1293 1294 1325 
2616 1293 1262 1294 
2617 1294 1295 1326 
2618 1326 1295 1327 
2619 1295 1296 1327 
2620 1327 1296 1328 
2621 1296 1297 1328 
2622 1328 1297 1329 
2623 1297 1298 1329 
2624 1329 1298 1330 
2625 1298 1299 1330 
2626 1330 1299 1331 
2627 1299 1300 1331 
2628 1331 1300 1332 
2629 1300 1301 1332 
2630 1332 1301 1333 
2631 1301 1302 1333 
2632 1333 1302 1334 
2633 1302 1335 1334 
2634 1302 1303 1335 
2635 1303 1336 1335 
2636 1303 1304 1336 
2637 1304 1337 1336 
2638 1304 1305 1337 
2639 1305 1338 1337 
2640 1305 1306 1338 
2641 1306 1339 1338 
2642 1306 1307 1339 
2643 1307 1340 1339 
2644 1307 1308 1340 
2645 1308 1341 1340 
2646 1308 1309 1341 
2647 1309 1342 1341 
2648 1309 1310 1342 
2649 1310 1311 1342 
2650 1342 1311 1343 
2651 1311 1312 1343 
2652 1343 1312 1344 
2653 1312 1313 1344 
2654 1344 1313 1345 
2655 1313 1314 1345 
2656 1345 1314 1346 
2657 1314 1315 1346 
2658 1346 1315 1347 
2659 1315 1316 1347 
2660 1347 1316 1348 
2661 1316 1317 1348 
2662 1348 1317 1349 
2663 1317 1318 1349 
2664 1349 1318 1350 
2665 1318 1351 1350 
2666 1318 1319 1351 
2667 1319 1352 1351 
2668 1319 1320 1352 
2669 1320 1353 1352 
2670 1320 1321 1353 
2671 1321 1354 1353 
2672 1321 1322 1354 
2673 1322 1355 1354 
2674 1322 1323 1355 
2675 1323 1356 1355 
2676 1323 1324 1356 
2677 1324 1357 1356 
2678 1324 1325 1357 
2679 1325 1326 1357 
2680 1325 1294 1326 
2681 1326 1327 1358 
2682 1327 1359 1358 
2683 1327 1328 1359 
2684 1328 1360 1359 
2685 1328 1329 1360 
2686 1329 1361 1360 
2687 1329 1330 1361 
2688 1330 1362 1361 
2689 1330 1331 1362 
2690 1331 1363 1362 
2691 1331 1332 1363 
2692 1332 1364 1363 
2693 1332 1333 1364 
2694 1333 1365 1364 
2695 1333 1334 1365 
2696 1334 1335 1365 
2697 1365 1335 1366 
2698 1335 1336 1366 
2699 1366 1336 1367 
2700 1336 1337 1367 
2701 1367 1337 1368 
2702 1337 1338 1368 
2703 1368 1338 1369 
2704 1338 1339 1369 
2705 1369 1339 1370 
2706 1339 1340 1370 
2707 1370 1340 1371 
2708 1340 1341 1371 
2709 1371 1341 1372 
2710 1341 1342 1372 
2711 1342 1343 1373 
2712 1343 1374 1373 
2713 1343 1344 1374 
2714 1344 1375 1374 
2715 1344 1345 1375 
2716 1345 1376 1375 
2717 1345 1346 1376 
2718 1346 1377 1376 
2719 1346 1347 1377 
2720 1347 1378 1377 
2721 1347 1348 1378 
2722 1348 1379 1378 
2723 1348 1349 1379 
2724 1349 1380 1379 
2725 1349 1350 1380 
2726 1350 1351 1380 
2727 1380 1351 1381 
2728 1351 1352 1381 
2729 1381 1352 1382 
2730 1352 1353 1382 
2731 1382 1353 1383 
2732 1353 1354 1383 
2733 1383 1354 1384 
2734 1354 1355 1384 
2735 1384 1355 1385 
2736 1355 1356 1385 
2737 1385 1356 1386 
2738 1356 1357 1386 
2739 1386 1357 1387 
2740 1357 1326 1387 
2741 1326 1358 1388 
2742 1358 1389 1388 
2743 1358 1359 1389 
2744 1359 1390 1389 
2745 1359 1360 1390 
2746 1360 1391 1390 
2747 1360 1361 1391 
2748 1361 1392 1391 
2749 1361 1362 1392 
2750 1362 1393 1392 
2751 1362 1363 1393 
2752 1363 1394 1393 
2753 1363 1364 1394 
2754 1364 1395 1394 
2755 1364 1365 1395 
2756 1365 1366 1395 
2757 1395 1366 1396 
2758 1366 1367 1396 
2759 1396 1367 1397 
2760 1367 1368 1397 
2761 1397 1368 1398 
2762 1368 1369 1398 
2763 1398 1369 1399 
2764 1369 1370 1399 
2765 1399 1370 1400 
2766 1370 1371 1400 
2767 1400 1371 1401 
2768 1371 1372 1401 
2769 1401 1372 1402 
2770 1372 1342 1402 
2771 1342 1373 1402 
2772 1373 1401 1402 
2773 1373 1374 1401 
2774 1374 1400 1401 
2775 1374 1375 1400 
2776 1375 1399 1400 
2777 1375 1376 1399 
2778 1376 1398 1399 
2779 1376 1377 1398 
2780 1377 1397 1398 
2781 1377 1378 1397 
2782 1378 1396 1397 
2783 1378 1379 1396 
2784 1379 1395 1396 
2785 1379 1380 1395 
2786 1380 1381 1395 
2787 1395 1381 1394 
2788 1381 1382 1394 
2789 1394 1382 1393 
2790 1382 1383 1393 
2791 1393 1383 1392 
2792 1383 1384 1392 
2793 1392 1384 1391 
2794 1384 1385 1391 
2795 1391 1385 1390 
2796 1385 1386 1390 
2797 1390 1386 1389 
2798 1386 1387 1389 
2799 1389 1387 1388 
2800 1387 1326 1388 
$EndElements
