<?xml version="1.0" encoding="UTF-8" standalone="no"?>
<!-- Created with Inkscape (http://www.inkscape.org/) -->

<svg
   version="1.1"
   id="svg2"
   xml:space="preserve"
   width="816"
   height="1071"
   viewBox="0 0 816 1071"
   sodipodi:docname="semiinfinite-doublet01.svg"
   inkscape:version="1.1.2 (0a00cf5339, 2022-02-04)"
   xmlns:inkscape="http://www.inkscape.org/namespaces/inkscape"
   xmlns:sodipodi="http://sodipodi.sourceforge.net/DTD/sodipodi-0.dtd"
   xmlns="http://www.w3.org/2000/svg"
   xmlns:svg="http://www.w3.org/2000/svg"><defs
     id="defs6"><clipPath
       clipPathUnits="userSpaceOnUse"
       id="clipPath200"><path
         d="M 0,0 H 612 V 803.25 H 0 Z"
         id="path198" /></clipPath><clipPath
       clipPathUnits="userSpaceOnUse"
       id="clipPath220"><path
         d="m 193.0692,672.9745 c -0.3896,-0.2048 -0.8714,-0.055 -1.0762,0.3345 -0.2048,0.3896 -0.055,0.8714 0.3345,1.0762 l 64.6444,33.9856 c 0.3895,0.2048 0.8713,0.0551 1.0761,-0.3345 0.2048,-0.3895 0.055,-0.8713 -0.3345,-1.0761 z"
         id="path218" /></clipPath><clipPath
       clipPathUnits="userSpaceOnUse"
       id="clipPath226"><path
         d="M 0,0 H 612 V 803.25 H 0 Z"
         id="path224" /></clipPath><clipPath
       clipPathUnits="userSpaceOnUse"
       id="clipPath236"><path
         d="M 0,0 H 612 V 803.25 H 0 Z"
         id="path234" /></clipPath></defs><sodipodi:namedview
     id="namedview4"
     pagecolor="#ffffff"
     bordercolor="#666666"
     borderopacity="1.0"
     inkscape:pageshadow="2"
     inkscape:pageopacity="0.0"
     inkscape:pagecheckerboard="0"
     showgrid="false"
     inkscape:zoom="1.5760971"
     inkscape:cx="380.05273"
     inkscape:cy="249.35012"
     inkscape:window-width="1920"
     inkscape:window-height="1053"
     inkscape:window-x="0"
     inkscape:window-y="27"
     inkscape:window-maximized="1"
     inkscape:current-layer="g230" /><g
     id="g8"
     inkscape:groupmode="layer"
     inkscape:label="Note Aug 30, 2022"
     transform="matrix(1.3333333,0,0,-1.3333333,0,1071)"><g
       id="g10" /><g
       id="g12"
       inkscape:export-filename="/home/edoalvar/Dropbox/WhisperAero/LabNotebook/202208/img/semiinfinite-doublet01.png"
       inkscape:export-xdpi="300"
       inkscape:export-ydpi="300"><g
         id="g14"
         transform="matrix(1.066202,0,0,1.066202,15.9375,803.25)"><text
           transform="matrix(1,0,0,-1,0,-11.424)"
           style="font-variant:normal;font-weight:normal;font-size:12px;font-family:HelveticaNeue;-inkscape-font-specification:HelveticaNeue;writing-mode:lr-tb;fill:#000000;fill-opacity:1;fill-rule:nonzero;stroke:none"
           id="text18"><tspan
             x="0"
             y="0"
             id="tspan16"></tspan></text></g><g
         id="g20"
         transform="matrix(1.066202,0,0,1.066202,15.9375,803.25)"><text
           transform="matrix(1,0,0,-1,0,-25.74)"
           style="font-variant:normal;font-weight:normal;font-size:12px;font-family:HelveticaNeue;-inkscape-font-specification:HelveticaNeue;writing-mode:lr-tb;fill:#000000;fill-opacity:1;fill-rule:nonzero;stroke:none"
           id="text24"><tspan
             x="0"
             y="0"
             id="tspan22"></tspan></text></g><g
         id="g26"
         transform="matrix(1.066202,0,0,1.066202,15.9375,803.25)"><text
           transform="matrix(1,0,0,-1,0,-40.056)"
           style="font-variant:normal;font-weight:normal;font-size:12px;font-family:HelveticaNeue;-inkscape-font-specification:HelveticaNeue;writing-mode:lr-tb;fill:#000000;fill-opacity:1;fill-rule:nonzero;stroke:none"
           id="text30"><tspan
             x="0"
             y="0"
             id="tspan28"></tspan></text></g><g
         id="g32"
         transform="matrix(1.066202,0,0,1.066202,15.9375,803.25)"><text
           transform="matrix(1,0,0,-1,0,-54.372)"
           style="font-variant:normal;font-weight:normal;font-size:12px;font-family:HelveticaNeue;-inkscape-font-specification:HelveticaNeue;writing-mode:lr-tb;fill:#000000;fill-opacity:1;fill-rule:nonzero;stroke:none"
           id="text36"><tspan
             x="0"
             y="0"
             id="tspan34"></tspan></text></g><g
         id="g38"
         transform="matrix(1.066202,0,0,1.066202,15.9375,803.25)"><text
           transform="matrix(1,0,0,-1,0,-68.688)"
           style="font-variant:normal;font-weight:normal;font-size:12px;font-family:HelveticaNeue;-inkscape-font-specification:HelveticaNeue;writing-mode:lr-tb;fill:#000000;fill-opacity:1;fill-rule:nonzero;stroke:none"
           id="text42"><tspan
             x="0"
             y="0"
             id="tspan40"></tspan></text></g><g
         id="g44"
         transform="matrix(1.066202,0,0,1.066202,15.9375,803.25)"><text
           transform="matrix(1,0,0,-1,0,-83.004)"
           style="font-variant:normal;font-weight:normal;font-size:12px;font-family:HelveticaNeue;-inkscape-font-specification:HelveticaNeue;writing-mode:lr-tb;fill:#000000;fill-opacity:1;fill-rule:nonzero;stroke:none"
           id="text48"><tspan
             x="0"
             y="0"
             id="tspan46"></tspan></text></g><g
         id="g50"
         transform="matrix(1.066202,0,0,1.066202,15.9375,803.25)"><text
           transform="matrix(1,0,0,-1,0,-97.32)"
           style="font-variant:normal;font-weight:normal;font-size:12px;font-family:HelveticaNeue;-inkscape-font-specification:HelveticaNeue;writing-mode:lr-tb;fill:#000000;fill-opacity:1;fill-rule:nonzero;stroke:none"
           id="text54"><tspan
             x="0"
             y="0"
             id="tspan52"></tspan></text></g><g
         id="g56"
         transform="matrix(1.066202,0,0,1.066202,15.9375,803.25)"><text
           transform="matrix(1,0,0,-1,0,-111.636)"
           style="font-variant:normal;font-weight:normal;font-size:12px;font-family:HelveticaNeue;-inkscape-font-specification:HelveticaNeue;writing-mode:lr-tb;fill:#000000;fill-opacity:1;fill-rule:nonzero;stroke:none"
           id="text60"><tspan
             x="0"
             y="0"
             id="tspan58"></tspan></text></g><g
         id="g62"
         transform="matrix(1.066202,0,0,1.066202,15.9375,803.25)"><text
           transform="matrix(1,0,0,-1,0,-125.952)"
           style="font-variant:normal;font-weight:normal;font-size:12px;font-family:HelveticaNeue;-inkscape-font-specification:HelveticaNeue;writing-mode:lr-tb;fill:#000000;fill-opacity:1;fill-rule:nonzero;stroke:none"
           id="text66"><tspan
             x="0"
             y="0"
             id="tspan64"></tspan></text></g><g
         id="g68"
         transform="matrix(1.066202,0,0,1.066202,15.9375,803.25)"><text
           transform="matrix(1,0,0,-1,0,-140.268)"
           style="font-variant:normal;font-weight:normal;font-size:12px;font-family:HelveticaNeue;-inkscape-font-specification:HelveticaNeue;writing-mode:lr-tb;fill:#000000;fill-opacity:1;fill-rule:nonzero;stroke:none"
           id="text72"><tspan
             x="0"
             y="0"
             id="tspan70"></tspan></text></g><g
         id="g74"
         transform="matrix(1.066202,0,0,1.066202,15.9375,803.25)"><text
           transform="matrix(1,0,0,-1,0,-154.584)"
           style="font-variant:normal;font-weight:normal;font-size:12px;font-family:HelveticaNeue;-inkscape-font-specification:HelveticaNeue;writing-mode:lr-tb;fill:#000000;fill-opacity:1;fill-rule:nonzero;stroke:none"
           id="text78"><tspan
             x="0"
             y="0"
             id="tspan76"></tspan></text></g><g
         id="g80"
         transform="matrix(1.066202,0,0,1.066202,15.9375,803.25)"><text
           transform="matrix(1,0,0,-1,0,-168.9)"
           style="font-variant:normal;font-weight:normal;font-size:12px;font-family:HelveticaNeue;-inkscape-font-specification:HelveticaNeue;writing-mode:lr-tb;fill:#000000;fill-opacity:1;fill-rule:nonzero;stroke:none"
           id="text84"><tspan
             x="0"
             y="0"
             id="tspan82"></tspan></text></g><g
         id="g86"
         transform="matrix(1.066202,0,0,1.066202,15.9375,803.25)"><text
           transform="matrix(1,0,0,-1,0,-183.216)"
           style="font-variant:normal;font-weight:normal;font-size:12px;font-family:HelveticaNeue;-inkscape-font-specification:HelveticaNeue;writing-mode:lr-tb;fill:#000000;fill-opacity:1;fill-rule:nonzero;stroke:none"
           id="text90"><tspan
             x="0"
             y="0"
             id="tspan88"></tspan></text></g><g
         id="g92"
         transform="matrix(1.066202,0,0,1.066202,15.9375,803.25)"><text
           transform="matrix(1,0,0,-1,0,-197.532)"
           style="font-variant:normal;font-weight:normal;font-size:12px;font-family:HelveticaNeue;-inkscape-font-specification:HelveticaNeue;writing-mode:lr-tb;fill:#000000;fill-opacity:1;fill-rule:nonzero;stroke:none"
           id="text96"><tspan
             x="0"
             y="0"
             id="tspan94"></tspan></text></g><g
         id="g98"
         transform="matrix(1.066202,0,0,1.066202,15.9375,803.25)"><text
           transform="matrix(1,0,0,-1,0,-211.848)"
           style="font-variant:normal;font-weight:normal;font-size:12px;font-family:HelveticaNeue;-inkscape-font-specification:HelveticaNeue;writing-mode:lr-tb;fill:#000000;fill-opacity:1;fill-rule:nonzero;stroke:none"
           id="text102"><tspan
             x="0"
             y="0"
             id="tspan100"></tspan></text></g><g
         id="g104"
         transform="matrix(1.066202,0,0,1.066202,15.9375,803.25)"><text
           transform="matrix(1,0,0,-1,0,-226.164)"
           style="font-variant:normal;font-weight:normal;font-size:12px;font-family:HelveticaNeue;-inkscape-font-specification:HelveticaNeue;writing-mode:lr-tb;fill:#000000;fill-opacity:1;fill-rule:nonzero;stroke:none"
           id="text108"><tspan
             x="0"
             y="0"
             id="tspan106"></tspan></text></g><g
         id="g110"
         transform="matrix(1.066202,0,0,1.066202,15.9375,803.25)"><text
           transform="matrix(1,0,0,-1,0,-240.48)"
           style="font-variant:normal;font-weight:normal;font-size:12px;font-family:HelveticaNeue;-inkscape-font-specification:HelveticaNeue;writing-mode:lr-tb;fill:#000000;fill-opacity:1;fill-rule:nonzero;stroke:none"
           id="text114"><tspan
             x="0"
             y="0"
             id="tspan112"></tspan></text></g><g
         id="g116"
         transform="matrix(1.066202,0,0,1.066202,15.9375,803.25)"><text
           transform="matrix(1,0,0,-1,85.22127,-24.36555)"
           style="font-variant:normal;font-weight:normal;font-size:16px;writing-mode:lr-tb;fill:#000000;fill-opacity:0;fill-rule:nonzero;stroke:none"
           id="text120"><tspan
             x="0 11.5632"
             y="0"
             sodipodi:role="line"
             id="tspan118">NZ</tspan></text></g><g
         id="g122"
         transform="matrix(1.066202,0,0,1.066202,15.9375,803.25)"><text
           transform="matrix(1,0,0,-1,218.4436,-56.63508)"
           style="font-variant:normal;font-weight:normal;font-size:24px;writing-mode:lr-tb;fill:#000000;fill-opacity:0;fill-rule:nonzero;stroke:none"
           id="text126"><tspan
             x="0 11.6688"
             y="0"
             sodipodi:role="line"
             id="tspan124">Ty</tspan></text></g><g
         id="g128"
         transform="matrix(1.066202,0,0,1.066202,15.9375,803.25)"><text
           transform="matrix(1,0,0,-1,236.3042,-95.86067)"
           style="font-variant:normal;font-weight:normal;font-size:21px;writing-mode:lr-tb;fill:#000000;fill-opacity:0;fill-rule:nonzero;stroke:none"
           id="text132"><tspan
             x="0 12.5202"
             y="0"
             sodipodi:role="line"
             id="tspan130">Pj</tspan></text></g><g
         id="g134"
         transform="matrix(1.066202,0,0,1.066202,15.9375,803.25)"><text
           transform="matrix(1,0,0,-1,115.3026,-124.5823)"
           style="font-variant:normal;font-weight:normal;font-size:22px;writing-mode:lr-tb;fill:#000000;fill-opacity:0;fill-rule:nonzero;stroke:none"
           id="text138"><tspan
             x="0 13.0504"
             y="0"
             sodipodi:role="line"
             id="tspan136">Pi</tspan></text></g><g
         id="g140"
         transform="matrix(1.066202,0,0,1.066202,15.9375,803.25)"><text
           transform="matrix(1,0,0,-1,142.0997,-132.9368)"
           style="font-variant:normal;font-weight:normal;font-size:23px;writing-mode:lr-tb;fill:#000000;fill-opacity:0;fill-rule:nonzero;stroke:none"
           id="text144"><tspan
             x="0 12.9927"
             y="0"
             sodipodi:role="line"
             id="tspan142">pp</tspan></text></g><g
         id="g146"
         transform="matrix(1.066202,0,0,1.066202,15.9375,803.25)"><text
           transform="matrix(1,0,0,-1,186.527,-118.8206)"
           style="font-variant:normal;font-weight:normal;font-size:18px;writing-mode:lr-tb;fill:#000000;fill-opacity:0;fill-rule:nonzero;stroke:none"
           id="text150"><tspan
             x="0"
             y="0"
             id="tspan148">D</tspan></text></g><g
         id="g152"
         transform="matrix(1.066202,0,0,1.066202,15.9375,803.25)"><text
           transform="matrix(1,0,0,-1,221.3358,-108.6009)"
           style="font-variant:normal;font-weight:normal;font-size:15px;writing-mode:lr-tb;fill:#000000;fill-opacity:0;fill-rule:nonzero;stroke:none"
           id="text156"><tspan
             x="0"
             y="0"
             id="tspan154">P</tspan></text></g><g
         id="g158"
         transform="matrix(1.066202,0,0,1.066202,15.9375,803.25)"><text
           transform="matrix(1,0,0,-1,295.3357,-150.5775)"
           style="font-variant:normal;font-weight:normal;font-size:23px;writing-mode:lr-tb;fill:#000000;fill-opacity:0;fill-rule:nonzero;stroke:none"
           id="text162"><tspan
             x="0"
             y="0"
             id="tspan160">G</tspan></text></g><g
         id="g164"
         transform="matrix(1.066202,0,0,1.066202,15.9375,803.25)"><text
           transform="matrix(1,0,0,-1,254.1532,-183.265)"
           style="font-variant:normal;font-weight:normal;font-size:23px;writing-mode:lr-tb;fill:#000000;fill-opacity:0;fill-rule:nonzero;stroke:none"
           id="text168"><tspan
             x="0"
             y="0"
             id="tspan166">A</tspan></text></g><g
         id="g170"
         transform="matrix(1.066202,0,0,1.066202,15.9375,803.25)"><text
           transform="matrix(1,0,0,-1,342.7806,-173.7249)"
           style="font-variant:normal;font-weight:normal;font-size:20px;writing-mode:lr-tb;fill:#000000;fill-opacity:0;fill-rule:nonzero;stroke:none"
           id="text174"><tspan
             x="0 10.11 20.799999 32.349998"
             y="0"
             sodipodi:role="line"
             id="tspan172">Jedi</tspan></text></g><g
         id="g176"
         transform="matrix(1.066202,0,0,1.066202,15.9375,803.25)"><text
           transform="matrix(1,0,0,-1,296.6685,-204.6917)"
           style="font-variant:normal;font-weight:normal;font-size:14px;writing-mode:lr-tb;fill:#000000;fill-opacity:0;fill-rule:nonzero;stroke:none"
           id="text180"><tspan
             x="0"
             y="0"
             id="tspan178">T</tspan></text></g><g
         id="g182"
         transform="matrix(1.066202,0,0,1.066202,15.9375,803.25)"><text
           transform="matrix(1,0,0,-1,309.36,-210.5892)"
           style="font-variant:normal;font-weight:normal;font-size:19px;writing-mode:lr-tb;fill:#000000;fill-opacity:0;fill-rule:nonzero;stroke:none"
           id="text186"><tspan
             x="0"
             y="0"
             id="tspan184">d</tspan></text></g><g
         id="g188"
         transform="matrix(1.066202,0,0,1.066202,15.9375,803.25)"><text
           transform="matrix(1,0,0,-1,299.045,-246.1331)"
           style="font-variant:normal;font-weight:normal;font-size:26px;writing-mode:lr-tb;fill:#000000;fill-opacity:0;fill-rule:nonzero;stroke:none"
           id="text192"><tspan
             x="0"
             y="0"
             id="tspan190">I</tspan></text></g></g><g
       id="g194"
       inkscape:export-filename="/home/edoalvar/Dropbox/WhisperAero/LabNotebook/202208/img/semiinfinite-doublet01.png"
       inkscape:export-xdpi="300"
       inkscape:export-ydpi="300"><g
         id="g196"
         clip-path="url(#clipPath200)"><path
           d="m 163.5364,689.2312 c -0.4326,-0.0812 -0.8491,0.2035 -0.9303,0.6361 -0.0813,0.4325 0.2035,0.849 0.636,0.9303 l 93.9534,17.6511 c 0.4326,0.0812 0.8491,-0.2035 0.9304,-0.6361 0.0812,-0.4325 -0.2036,-0.849 -0.6361,-0.9303 z"
           style="fill:#000000;fill-opacity:1;fill-rule:nonzero;stroke:none"
           id="path202" /><path
           d="m 394.2671,632.2671 c 0.3844,-0.2143 0.5223,-0.6996 0.3081,-1.084 -0.2143,-0.3844 -0.6996,-0.5224 -1.084,-0.3082 l -136.5365,76.0945 c -0.3844,0.2143 -0.5223,0.6996 -0.3081,1.084 0.2143,0.3845 0.6996,0.5224 1.084,0.3082 z"
           style="fill:#000000;fill-opacity:1;fill-rule:nonzero;stroke:none"
           id="path204" /><path
           d="m 260.8739,707.5413 c 0,-2.0767 -1.6835,-3.7602 -3.7601,-3.7602 -2.0767,0 -3.7602,1.6835 -3.7602,3.7602 0,2.0766 1.6835,3.7601 3.7602,3.7601 2.0766,0 3.7601,-1.6835 3.7601,-3.7601"
           style="fill:#000000;fill-opacity:1;fill-rule:nonzero;stroke:none"
           id="path206" /><path
           d="m 261.0732,707.5413 c 0,-1.4594 -0.7896,-2.7344 -1.9649,-3.4211 -0.5857,-0.3422 -1.2672,-0.5383 -1.9945,-0.5383 -1.4594,0 -2.7344,0.7895 -3.4211,1.9648 -0.3422,0.5857 -0.5383,1.2672 -0.5383,1.9946 0,1.4593 0.7895,2.7343 1.9648,3.421 0.5858,0.3422 1.2672,0.5383 1.9946,0.5383 1.4593,0 2.7343,-0.7895 3.421,-1.9648 0.3422,-0.5857 0.5384,-1.2672 0.5384,-1.9945 m -0.3985,0 c 0,0.654 -0.1762,1.2668 -0.4839,1.7935 -0.6176,1.0571 -1.7644,1.7674 -3.077,1.7674 -0.654,0 -1.2669,-0.1762 -1.7936,-0.4839 -1.0571,-0.6176 -1.7674,-1.7644 -1.7674,-3.077 0,-0.654 0.1763,-1.2669 0.484,-1.7936 0.6176,-1.0571 1.7643,-1.7674 3.077,-1.7674 0.654,0 1.2668,0.1763 1.7935,0.484 1.0571,0.6176 1.7674,1.7643 1.7674,3.077"
           style="fill:#000000;fill-opacity:1;fill-rule:nonzero;stroke:none"
           id="path208" /><path
           d="m 167.3924,689.7777 c 0,-2.0767 -1.6835,-3.7602 -3.7602,-3.7602 -2.0767,0 -3.7602,1.6835 -3.7602,3.7602 0,2.0767 1.6835,3.7602 3.7602,3.7602 2.0767,0 3.7602,-1.6835 3.7602,-3.7602"
           style="fill:#000000;fill-opacity:1;fill-rule:nonzero;stroke:none"
           id="path210" /><path
           d="m 167.5916,689.7777 c 0,-1.4594 -0.7895,-2.7344 -1.9649,-3.421 -0.5857,-0.3422 -1.2672,-0.5384 -1.9945,-0.5384 -1.4594,0 -2.7344,0.7896 -3.421,1.9649 -0.3422,0.5857 -0.5384,1.2672 -0.5384,1.9945 0,1.4594 0.7896,2.7344 1.9649,3.421 0.5857,0.3422 1.2672,0.5384 1.9945,0.5384 1.4594,0 2.7344,-0.7896 3.421,-1.9649 0.3422,-0.5857 0.5384,-1.2672 0.5384,-1.9945 m -0.3984,0 c 0,0.654 -0.1763,1.2668 -0.484,1.7935 -0.6176,1.0572 -1.7643,1.7675 -3.077,1.7675 -0.654,0 -1.2668,-0.1763 -1.7935,-0.484 -1.0572,-0.6176 -1.7674,-1.7643 -1.7674,-3.077 0,-0.654 0.1762,-1.2668 0.4839,-1.7935 0.6176,-1.0572 1.7643,-1.7674 3.077,-1.7674 0.654,0 1.2668,0.1762 1.7936,0.4839 1.0571,0.6176 1.7674,1.7643 1.7674,3.077"
           style="fill:#000000;fill-opacity:1;fill-rule:nonzero;stroke:none"
           id="path212" /></g></g><g
       id="g214"
       inkscape:export-filename="/home/edoalvar/Dropbox/WhisperAero/LabNotebook/202208/img/semiinfinite-doublet01.png"
       inkscape:export-xdpi="300"
       inkscape:export-ydpi="300"><g
         id="g216"
         clip-path="url(#clipPath220)"><g
           id="g222"
           clip-path="url(#clipPath226)"><path
             d="m 193.0692,672.9745 2.7508,1.4462 -0.7417,1.4107 -2.7508,-1.4462 z m 4.1262,2.1693 2.7508,1.4462 -0.7416,1.4107 -2.7508,-1.4462 z m 4.1262,2.1693 2.7509,1.4462 -0.7417,1.4107 -2.7508,-1.4462 z m 4.1263,2.1693 2.7508,1.4462 -0.7417,1.4107 -2.7508,-1.4462 z m 4.1262,2.1693 2.7508,1.4462 -0.7416,1.4107 -2.7508,-1.4462 z m 4.1262,2.1693 2.7509,1.4462 -0.7417,1.4107 -2.7508,-1.4462 z m 4.1263,2.1693 2.7508,1.4462 -0.7417,1.4107 -2.7508,-1.4462 z m 4.1262,2.1693 2.7508,1.4462 -0.7416,1.4107 -2.7508,-1.4462 z m 4.1262,2.1693 2.7509,1.4462 -0.7417,1.4107 -2.7508,-1.4462 z m 4.1263,2.1693 2.7508,1.4462 -0.7416,1.4107 -2.7509,-1.4462 z m 4.1262,2.1693 2.7508,1.4462 -0.7416,1.4107 -2.7508,-1.4462 z m 4.1262,2.1693 2.7509,1.4462 -0.7417,1.4107 -2.7508,-1.4462 z m 4.1263,2.1693 2.7508,1.4462 -0.7416,1.4107 -2.7509,-1.4462 z m 4.1262,2.1693 2.7508,1.4462 -0.7416,1.4107 -2.7508,-1.4462 z m 4.1262,2.1693 2.7509,1.4462 -0.7417,1.4106 -2.7508,-1.4461 z m 4.1263,2.1693 2.7508,1.4462 -0.7416,1.4106 -2.7509,-1.4462 z"
             style="fill:#ed3624;fill-opacity:1;fill-rule:nonzero;stroke:none"
             id="path228" /></g></g></g><g
       id="g230"
       inkscape:export-filename="/home/edoalvar/Dropbox/WhisperAero/LabNotebook/202208/img/semiinfinite-doublet01.png"
       inkscape:export-xdpi="300"
       inkscape:export-ydpi="300"><path
         d="m 113.0158,685.6653 c -0.1946,-0.1029 -0.4356,-0.0285 -0.5385,0.166 -0.1028,0.1946 -0.0285,0.4357 0.1661,0.5385 l 145.566,76.944 c 0.1945,0.1029 0.4356,0.0285 0.5384,-0.166 0.1028,-0.1946 0.0285,-0.4357 -0.1661,-0.5385 z"
         style="fill:#ed3624;fill-opacity:1;fill-rule:nonzero;stroke:none"
         id="path238" /><path
         d="m 249.3352,763.7915 c 0.1554,0.0582 0.3286,-0.0206 0.3868,-0.1761 0.0583,-0.1554 -0.0206,-0.3286 -0.176,-0.3868 -0.013,-0.005 -0.0264,-0.009 -0.0399,-0.0119 l -0.8025,-0.1554 -0.3727,-0.0268 -0.1725,0.0331 -0.1353,0.1129 0.003,0.2721 c 0.072,0.1794 0.25,0.2296 0.4372,0.3009 l 0.6713,0.1889 c 1.4402,0.3045 3.005,-0.031 4.723,0.0107 l 2.8037,0.1563 0.9848,0.1254 0.7066,0.0342 c 0.5217,-0.0511 0.9749,-0.3398 1.1953,-0.722 0.2141,-0.3675 -0.0543,-0.6968 -0.1842,-0.9598 l -0.6084,-1.5942 c -0.4956,-1.1606 -1.3386,-2.8541 -2.1703,-4.5386 l -1.0213,-2.072 -0.3299,-0.7933 -0.1637,-0.398 -0.056,-0.1209 -0.0315,-0.055 -0.0468,-0.0556 c -0.0342,-0.032 -0.1489,-0.1203 -0.3045,-0.0571 -0.3074,0.2155 -0.192,0.3389 -0.1782,0.4176 l 0.262,0.8343 c 0.2168,0.536 0.6073,0.9029 1.3496,1.4706 0.0928,0.071 0.2256,0.0533 0.2965,-0.0396 0.0686,-0.0896 0.0547,-0.2172 -0.0315,-0.2901 -0.6966,-0.5887 -0.9514,-0.8999 -1.0762,-1.3164 l -0.193,-0.5723 -0.0474,-0.1835 -0.0134,0.0459 c 0.0109,-0.0328 -0.1544,0.1706 -0.0952,0.1279 l -0.0412,0.0245 -0.1098,0.0281 c 0.064,-0.003 -0.1645,-0.0417 -0.1358,-0.0278 0.0494,0.0241 -0.0875,-0.0673 -0.0763,-0.0555 l 0.1905,0.432 0.3418,0.817 1.0307,2.0772 2.169,4.5078 0.6194,1.62 0.2025,0.466 c -0.118,0.2027 -0.4457,0.4258 -0.7909,0.4584 l -0.6062,-0.0245 -0.9813,-0.1199 -2.8472,-0.1592 c -1.7805,-0.0398 -3.3283,0.2823 -4.6305,0.0103 l -0.605,-0.1591 -0.173,-0.0764 -0.0145,0.004 0.0119,0.1683 -0.0659,0.1019 c 0.0426,-0.0379 -0.0998,0.05 -0.0855,0.0465 l 0.3034,0.0451 0.7242,0.2102 z"
         style="fill:#ed3624;fill-opacity:1;fill-rule:nonzero;stroke:none"
         id="path240" /><path
         d="m 262.5493,764.7535 c 0.1542,0.0615 0.329,-0.0136 0.3905,-0.1678 0.0616,-0.1542 -0.0136,-0.329 -0.1677,-0.3906 -0.007,-0.003 -0.0134,-0.005 -0.0202,-0.007 l -0.3153,-0.1107 -0.0384,-0.0172 0.0271,0.02 0.054,0.0673 c -0.0218,-0.0395 0.0172,0.2333 0.0284,0.1692 0.0102,-0.0591 -0.0939,0.1609 -0.0669,0.1328 0.046,-0.048 -0.1192,0.0677 -0.0999,0.0621 l 0.0298,0.01 0.2041,0.0445 c 0.3263,0.1089 0.8989,0.5398 1.5089,0.9357 l 1.5741,0.9983 c 0.251,0.1318 0.4623,0.3126 0.7583,0.3066 0.4656,-0.006 0.597,-0.5465 0.6879,-1.0519 0.1893,-1.059 0.1036,-2.5389 0.2288,-3.739 0.0629,-0.6199 0.2011,-1.1238 0.3655,-1.3795 0.1408,-0.2202 0.2451,-0.251 0.4733,-0.0473 0.5329,0.479 0.9769,1.9893 1.4544,3.4617 l 0.644,2.0925 0.304,1.5545 0.0418,0.4693 -5e-4,0.0657 0.01,-0.0298 0.0321,-0.0536 0.0684,-0.0587 c -0.0511,0.0297 0.2506,-0.01 0.1905,-0.0258 -0.0567,-0.0148 0.1263,0.0773 0.1074,0.0594 l -0.0171,-0.0204 c -0.117,-0.2216 -0.2253,-1.049 -0.4327,-1.9587 l -0.7665,-3.5259 -0.8415,-4.3347 -0.7488,-3.3576 c -0.3847,-1.5959 -0.8286,-2.9213 -1.3043,-3.9899 -0.4558,-1.0242 -0.9359,-1.8045 -1.4214,-2.3482 -0.2768,-0.3099 -0.5735,-0.5151 -0.8559,-0.6522 -0.5132,-0.2513 -1.0694,-0.4628 -1.5911,-0.2239 -0.5651,0.2613 -0.865,0.9369 -1.0744,1.6934 -0.1828,0.6526 -0.2555,1.4052 -0.2688,2.1716 -0.0133,0.8858 0.009,1.8349 0.3591,2.8272 0.2867,0.8164 0.7705,1.6582 1.4623,2.5322 0.7479,0.9437 1.7268,1.9135 2.8926,2.8631 2.5045,2.0037 5.6858,3.6927 8.2007,4.4731 0.1116,0.0347 0.2301,-0.0277 0.2648,-0.1393 0.0341,-0.11 -0.026,-0.2271 -0.1353,-0.2635 -2.4318,-0.8094 -5.558,-2.5239 -7.9653,-4.5149 -1.1415,-0.9275 -2.0933,-1.8696 -2.8112,-2.7725 -0.663,-0.833 -1.1149,-1.6191 -1.3801,-2.3653 -0.3169,-0.8957 -0.3421,-1.7658 -0.3302,-2.6315 0.008,-0.7355 0.0757,-1.4479 0.236,-2.0361 0.1908,-0.6915 0.4829,-1.2088 0.7767,-1.3451 0.2749,-0.1287 0.6566,-0.0199 1.1332,0.2095 0.2279,0.1106 0.4614,0.271 0.6908,0.5279 0.4358,0.488 0.8931,1.2234 1.3325,2.2104 0.4598,1.0332 0.8949,2.3288 1.2734,3.8989 l 0.7313,3.3397 0.8407,4.3387 0.7811,3.5344 0.2819,1.3848 c 0.0788,0.3789 0.0757,0.6826 0.358,0.8793 0.1243,0.0663 0.3457,-0.008 0.3918,-0.0945 0.1082,-0.2033 0.0361,-0.2307 0.0236,-0.3453 l -0.0644,-0.4605 -0.3177,-1.6085 -0.6511,-2.1151 c -0.4761,-1.4673 -0.8478,-3.0016 -1.5893,-3.6676 -0.3758,-0.3398 -0.9381,-0.2523 -1.1918,0.1384 -0.2392,0.3701 -0.3742,0.9263 -0.4425,1.5905 -0.1252,1.2532 -0.0405,2.7368 -0.2087,3.7074 l -0.1553,0.5529 -0.0834,0.1237 -0.535,-0.2545 -1.5376,-0.977 c -0.5947,-0.386 -1.1466,-0.8303 -1.6249,-0.9894 l -0.2749,-0.0936 -0.1628,-0.0306 -0.1642,0.0424 c -0.0907,0.0568 -0.1395,0.2087 -0.1218,0.2916 0.0494,0.2306 0.152,0.2158 0.2337,0.2621 l 0.3318,0.1526 z"
         style="fill:#ed3624;fill-opacity:1;fill-rule:nonzero;stroke:none"
         id="path242" /><path
         d="m 112.6346,685.6701 c -0.1919,0.1077 -0.2602,0.3506 -0.1525,0.5424 0.1077,0.1919 0.3506,0.2602 0.5425,0.1525 L 335.8445,561.3028 c 0.1919,-0.1077 0.2602,-0.3506 0.1525,-0.5424 -0.1077,-0.1919 -0.3506,-0.2602 -0.5425,-0.1525 z"
         style="fill:#ed3624;fill-opacity:1;fill-rule:nonzero;stroke:none"
         id="path244" /><path
         d="m 325.4621,561.8187 c 0.1254,0.1088 0.3152,0.0953 0.424,-0.0301 0.1058,-0.1221 0.0963,-0.306 -0.0217,-0.4164 l -0.2227,-0.2626 -0.0573,0.1075 0.2809,-0.0503 1.7394,-0.017 2.599,-0.0429 c 1.3186,-0.0757 2.6714,-0.3052 3.7271,-0.4978 l 1.5141,-0.2715 0.7682,-0.022 0.2562,0.1067 -0.045,-0.0902 -0.0128,0.0352 -0.4353,1.0161 c -0.2156,0.5623 -0.3908,1.2324 -0.5396,1.9566 -0.2021,1.1979 -0.3212,2.4586 -0.3158,3.5052 l 0.1144,1.2841 c 0.0777,0.3268 0.259,0.6872 0.5887,0.6288 0.1236,-0.0219 0.206,-0.1397 0.1841,-0.2633 -0.0172,-0.0974 -0.0955,-0.1724 -0.1935,-0.1856 l 0.0521,0.0248 c -0.1608,-0.1633 -0.0216,-2.6844 0.485,-4.7899 l 0.4909,-1.8163 0.3327,-0.9207 c 0.0844,-0.2798 0.1743,-0.6637 -0.1301,-0.9386 -0.2074,-0.1946 -0.4662,-0.2575 -0.7192,-0.2886 -0.3318,-0.0505 -0.6595,0.0109 -0.9482,0.0405 l -1.5759,0.2892 c -1.0441,0.1933 -2.3727,0.4199 -3.6393,0.4954 l -2.5496,0.046 -1.8015,0.0236 c -0.2908,0.0359 -0.6221,0.0733 -0.7712,0.4116 -0.1544,0.3504 0.0968,0.6506 0.4219,0.9325"
         style="fill:#ed3624;fill-opacity:1;fill-rule:nonzero;stroke:none"
         id="path246" /><path
         d="m 339.6727,555.5118 c 0.0796,-0.1457 0.026,-0.3283 -0.1197,-0.4078 -0.1457,-0.0796 -0.3283,-0.026 -0.4078,0.1197 -0.0217,0.0397 -0.0341,0.0838 -0.0364,0.1289 l 0.0252,0.3231 c -0.0586,0.6611 0.5096,1.3308 1.2264,1.7631 0.4148,0.2306 0.8791,0.4347 1.4108,0.4778 0.6889,0.0517 1.4913,-0.129 2.1605,-0.7757 0.9577,-0.9126 1.392,-2.6001 1.8894,-4.1591 l 0.8537,-2.8987 c 0.2822,-0.8601 0.6561,-1.3729 0.9368,-1.5364 0.1521,-0.0981 0.3024,-0.0984 0.5291,0.0204 0.7992,0.4187 1.7203,2.0214 2.0278,3.4327 0.0249,0.1142 0.1376,0.1866 0.2518,0.1617 0.1101,-0.024 0.1821,-0.1301 0.1636,-0.2414 -0.1681,-1.0125 -0.6096,-2.101 -1.1839,-2.9387 -0.2801,-0.4087 -0.588,-0.7527 -0.9418,-0.9714 -0.3494,-0.216 -0.8051,-0.2983 -1.1966,-0.0861 -0.536,0.3242 -0.9391,0.9907 -1.2438,1.9446 l -0.8109,2.9205 c -0.4921,1.5638 -0.96,3.181 -1.7088,3.9026 -0.5385,0.5116 -1.1215,0.6287 -1.6727,0.5807 -0.4022,-0.0327 -0.7782,-0.1917 -1.1409,-0.3932 -0.6306,-0.3214 -1.0663,-0.8001 -1.0748,-1.2577 z"
         style="fill:#ed3624;fill-opacity:1;fill-rule:nonzero;stroke:none"
         id="path248" /><path
         d="m 339.1765,546.0484 c -0.0796,-0.1457 -0.2622,-0.1992 -0.4079,-0.1196 -0.1456,0.0797 -0.1992,0.2623 -0.1195,0.4079 l 0.4982,0.7817 0.8398,0.9833 4.0383,4.5076 2.2712,2.5252 1.9693,2.1887 0.9988,1.0992 0.7148,0.6841 0.226,0.1787 c 0.0895,0.0543 0.1966,0.0717 0.2987,0.0485 0.0576,-0.0131 0.1275,-0.0118 0.232,-0.142 0.0428,-0.0533 0.0705,-0.1172 0.0803,-0.1849 l -0.0104,-0.1662 c -0.0258,-0.1016 -0.09,-0.1891 -0.1792,-0.2441 l -0.113,-0.0965 -0.6166,-0.6579 -1.0212,-1.0792 -1.9865,-2.1647 -2.3125,-2.4961 -4.1368,-4.4115 -0.839,-0.9303 z m 11.1583,12.6143 c -0.146,0.0749 -0.2037,0.2539 -0.1288,0.3999 0.0748,0.146 0.2539,0.2037 0.3998,0.1288 0.146,-0.0748 0.2037,-0.2538 0.1289,-0.3998 -0.0471,-0.0918 -0.1383,-0.1526 -0.2411,-0.1607 l 0.0759,0.0168 0.02,0.008 -0.051,-0.0411 c -0.0886,-0.0763 -0.2222,-0.0663 -0.2984,0.0223 -0.041,0.0476 -0.0587,0.111 -0.0483,0.173 l 0.004,0.0302 0.0121,-0.044 0.0287,-0.0505 c -0.0162,0.0221 0.1622,-0.1156 0.0982,-0.0828"
         style="fill:#ed3624;fill-opacity:1;fill-rule:nonzero;stroke:none"
         id="path250" /><path
         d="m 113.228,686.0175 c 0,-0.22 -0.1784,-0.3984 -0.3984,-0.3984 -0.2201,0 -0.3985,0.1784 -0.3985,0.3984 v 100.7166 c 0,0.2201 0.1784,0.3984 0.3985,0.3984 0.22,0 0.3984,-0.1783 0.3984,-0.3984 z"
         style="fill:#ed3624;fill-opacity:1;fill-rule:nonzero;stroke:none"
         id="path252" /><path
         d="m 107.2388,783.0336 c 0.1478,0.0756 0.3289,0.017 0.4044,-0.1308 0.0756,-0.1478 0.0171,-0.3288 -0.1307,-0.4044 -0.092,-0.0471 -0.2018,-0.0435 -0.2906,0.009 -0.0516,0.0307 0.1505,-0.0383 0.1224,-0.0372 l 0.0571,0.006 -0.144,-0.0884 -0.0737,-0.0998 -0.0181,-0.0248 0.008,0.0149 0.0119,0.0316 0.008,0.0352 -2e-4,0.0786 c 0.0223,-0.147 -0.0788,-0.2842 -0.2258,-0.3065 -0.147,-0.0223 -0.2842,0.0788 -0.3065,0.2258 -0.0223,0.147 0.0788,0.2842 0.2258,0.3065 0.0337,0.005 0.068,0.004 0.1012,-0.004 l -0.0873,0.005 c 0.0629,0.007 -0.0947,-0.0294 -0.0846,-0.0243 l 0.1572,0.1299 c 0.0507,0.0793 0.0608,0.1717 0.2659,0.2766 m -0.3346,-0.9243 c -0.1135,0.009 -0.2097,0.0873 -0.2421,0.1965 -0.0637,0.2153 0.0113,0.1944 0.024,0.2195 l 0.6711,0.83 2.7905,3.298 1.6857,1.8688 0.6473,0.6519 c 0.3721,0.2821 0.8733,0.1766 1.1767,-0.0919 0.3059,-0.2707 0.536,-0.6604 0.7435,-1.0619 l 1.3644,-2.4006 c 0.5257,-0.9684 0.7049,-1.7221 1.4856,-1.814 0.1288,-0.0152 0.2208,-0.1318 0.2057,-0.2606 -0.0146,-0.1238 -0.1234,-0.2146 -0.2478,-0.2068 -0.5502,0.0343 -0.9641,0.323 -1.2448,0.6967 l -0.7437,1.2598 -1.3645,2.4455 c -0.191,0.3705 -0.4039,0.7069 -0.6038,0.8845 -0.1772,0.1573 -0.2475,0.181 -0.4029,0.0636 l -0.5798,-0.5866 -1.6614,-1.848 -2.7958,-3.2736 -0.6651,-0.7729 c -0.0725,-0.0585 -0.0406,-0.1142 -0.2428,-0.0979"
         style="fill:#ed3624;fill-opacity:1;fill-rule:nonzero;stroke:none"
         id="path254" /><path
         d="m 121.114,791.7657 c 0.0773,-0.1469 0.021,-0.3286 -0.1258,-0.406 -0.1407,-0.0742 -0.3148,-0.0258 -0.3972,0.1102 -0.0705,0.1164 -0.0317,0.2819 0.0151,0.3471 0.1346,0.1875 0.2176,0.1582 0.3312,0.1971 l 1.7362,0.411 1.9113,0.316 0.6588,0.0616 c 0.2919,-0.0309 0.5671,-0.1492 0.7386,-0.3779 0.2306,-0.3073 0.0862,-0.6581 -0.0782,-0.992 -0.5366,-1.0905 -1.8375,-2.564 -2.7265,-3.9766 -0.3888,-0.6261 -0.6715,-1.2356 -0.8727,-1.7802 l -0.2628,-0.9513 c -0.008,-0.0968 -0.0397,-0.0229 -0.023,-0.0267 0.2103,-0.048 1.2225,0.3959 2.26,0.8406 1.0548,0.4406 2.2271,0.6111 3.2468,0.7423 l 1.4862,0.1045 c 0.6615,7e-4 0.7884,-0.2662 0.7244,0.5782 -0.009,0.1165 0.0785,0.2181 0.195,0.2269 0.1116,0.008 0.2104,-0.0714 0.2256,-0.1822 0.0701,-0.5114 0.0291,-0.8838 -0.2507,-1.0701 -0.2697,-0.1796 -0.5682,-0.1344 -0.8533,-0.1631 l -1.4405,-0.1418 c -1.0098,-0.1259 -2.13,-0.2913 -3.0846,-0.6858 -0.6887,-0.2772 -1.3522,-0.5836 -1.9069,-0.7393 -0.2658,-0.0746 -0.5066,-0.1271 -0.7443,-0.0576 -0.2462,0.0719 -0.4047,0.3758 -0.3718,0.6363 l 0.2917,1.0771 c 0.2147,0.5757 0.5143,1.2171 0.9263,1.8771 0.5987,0.9716 1.3745,1.9737 1.981,2.8495 l 0.6746,1.0959 0.1165,0.3297 0.0136,0.0416 -0.3208,0.1316 -0.5235,-0.0663 -1.8754,-0.3038 -1.3293,-0.2859 -0.378,-0.1102 -0.0519,-0.0209 0.0576,0.053 c -0.0187,-0.0237 0.0658,0.1755 0.0543,0.1183 -0.0122,-0.0602 -0.0569,0.2476 -0.0276,0.1921"
         style="fill:#ed3624;fill-opacity:1;fill-rule:nonzero;stroke:none"
         id="path256" /><path
         d="m 123.0168,788.7581 c 0.1431,0.0841 0.3273,0.0363 0.4114,-0.1068 0.0842,-0.1431 0.0364,-0.3273 -0.1067,-0.4114 -0.007,-0.004 -0.0138,-0.008 -0.0209,-0.0112 -0.4589,-0.2232 -0.7461,-0.3314 -0.9972,-0.2777 l 0.1107,0.002 -0.1012,-0.0146 c -0.0443,10e-5 -0.1585,0.0161 -0.2294,0.1217 -0.1026,0.1526 -0.0323,0.2766 0.008,0.3379 l 0.1242,0.127 c 0.3435,0.1872 0.6839,0.145 1.0343,0.1954 0.5627,0.0744 1.1579,0.1668 1.8089,0.389 0.488,0.1545 1.0068,0.3788 1.5663,0.713 l 0.4205,0.1734 c 0.1071,0.0467 0.2318,-0.002 0.2785,-0.1094 0.0348,-0.0799 0.0171,-0.1729 -0.0446,-0.2344 l -0.3046,-0.2943 c -0.6283,-0.4076 -1.1825,-0.672 -1.7015,-0.8594 -0.7199,-0.2419 -1.366,-0.3372 -1.9383,-0.4092 l -0.8145,-0.0815 -0.0803,-0.0281 0.0644,0.0512 c -0.0258,-0.029 0.0677,0.2174 0.0633,0.151 l -0.027,0.13 c 0.025,-0.0479 -0.099,0.0996 -0.0772,0.0857 l -0.0427,0.0199 -0.1106,0.006 0.7063,0.3347 z"
         style="fill:#ed3624;fill-opacity:1;fill-rule:nonzero;stroke:none"
         id="path258" /><path
         d="m 143.395,692.5483 c 0.0661,-0.3253 -0.144,-0.6427 -0.4693,-0.7089 -0.3253,-0.0661 -0.6427,0.144 -0.7088,0.4693 -0.0169,0.0828 -0.0161,0.1682 0.002,0.2506 0.0528,0.2369 0.0331,0.4 0.2162,0.6477 l -0.0237,-0.4945 0.0409,-0.0549 0.0552,-0.0515 c -0.0282,0.0221 0.2553,-0.107 0.1572,-0.0793 -0.2481,0.0698 -0.3925,0.3275 -0.3226,0.5756 0.0699,0.248 0.3276,0.3924 0.5756,0.3225 0.248,-0.0699 0.3925,-0.3276 0.3226,-0.5756 -0.037,-0.1312 -0.1294,-0.2396 -0.2531,-0.2969 -0.0911,-0.0421 0.1636,0.1254 0.1398,0.1003 -0.0614,-0.065 0.0824,0.1277 0.0751,0.1109 l -0.087,0.4872 c 0.2274,-0.2367 0.2244,-0.4313 0.2796,-0.7025 m -0.8229,0.8807 c 0.1136,0.055 0.2438,0.0653 0.3647,0.0287 0.4205,-0.1271 0.3043,-0.2386 0.3337,-0.298 l 0.0631,-0.1578 0.3734,-2.2773 0.4125,-2.4093 c 0.2817,-1.709 0.6049,-3.7172 0.8161,-5.7069 0.2167,-1.9795 0.2098,-3.8208 0.2035,-5.1498 -0.004,-0.6867 -0.0442,-1.1868 -0.136,-1.5644 -0.0448,-0.1841 -0.0458,-0.368 -0.3319,-0.6181 -0.1662,-0.1452 -0.5436,-0.2482 -0.8133,-0.1393 -0.2502,0.1011 -0.3505,0.2562 -0.4174,0.3683 -0.3443,0.7166 -0.3245,1.5524 -0.3471,2.7704 -0.0239,1.2815 0.014,2.8306 0.1122,4.4618 0.1118,1.944 0.2996,3.9163 0.7703,5.6939 0.3133,1.1958 0.7726,2.2717 1.3249,3.1397 0.6707,1.0736 1.6448,1.7076 2.55,1.9405 0.9154,0.2355 1.8505,-0.1042 2.4452,-0.7592 0.8856,-0.9745 0.9898,-2.4851 0.9491,-3.8145 -0.003,-0.9237 -0.235,-1.8076 -0.6057,-2.5778 -0.2929,-0.6103 -0.6717,-1.1514 -1.0962,-1.6078 -1.0755,-0.9724 -2.3205,-1.5308 -3.3447,-1.1233 -1.0313,0.4103 -1.1878,1.7721 -0.5672,3.4041 0.0831,0.2184 0.3275,0.3282 0.5459,0.2451 0.2081,-0.0791 0.3193,-0.3059 0.2544,-0.5189 -0.234,-0.7678 -0.2577,-1.3297 -0.1744,-1.6413 0.1025,-0.3838 0.2246,-0.4056 0.5904,-0.3312 0.4221,0.0859 1.0243,0.4486 1.5491,1.0227 0.3943,0.3654 0.7182,0.7601 0.9785,1.2152 0.3275,0.574 0.5528,1.2427 0.6011,1.9744 0.0444,1.1627 -0.1505,2.4149 -0.6033,2.9232 -0.3287,0.3686 -0.7435,0.5229 -1.2226,0.404 -0.6033,-0.1497 -1.322,-0.5905 -1.834,-1.3997 -0.4636,-0.7462 -0.8719,-1.7178 -1.1467,-2.8042 -0.412,-1.6474 -0.5748,-3.5464 -0.6606,-5.4534 -0.1346,-3.1826 0.0907,-6.2174 0.2038,-6.4091 l -0.0189,0.0227 c 0.0298,-0.04 -0.2335,0.1985 -0.1547,0.1457 0.0781,-0.0523 -0.4398,0.123 -0.315,0.1114 0.1173,-0.0108 -0.4106,-0.0851 -0.3221,-0.0484 0.0796,0.033 -0.2176,-0.1451 -0.177,-0.1095 0.0699,0.0613 -0.1196,-0.1496 -0.1069,-0.1273 0.0291,0.0515 0.112,0.4522 0.1344,1.2276 0.0399,1.3165 0.0758,3.1015 -0.1003,4.9989 -0.1869,1.9445 -0.4873,3.9344 -0.7484,5.6411 l -0.3788,2.4228 -0.2744,2.2457 0.0345,0.2753 c 0.0188,0.0683 -0.1156,0.1685 0.2868,0.3633"
         style="fill:#000000;fill-opacity:1;fill-rule:nonzero;stroke:none"
         id="path260" /><path
         d="m 153.196,683.4679 c -0.001,-0.332 -0.2708,-0.6004 -0.6028,-0.5995 -0.332,0.001 -0.6004,0.2708 -0.5995,0.6028 1e-4,0.009 3e-4,0.0186 8e-4,0.0279 0.0254,0.5166 0.2712,1.0073 0.8781,1.1321 0.3554,0.1107 0.6174,-0.1529 0.7339,-0.2983 0.3238,-0.4043 0.4548,-0.9292 0.5779,-1.467 l 0.1334,-1.1286 -0.0237,-0.9481 c 0.0399,-0.2929 -0.1652,-0.5627 -0.4581,-0.6025 -0.2197,-0.0299 -0.435,0.0787 -0.5415,0.273 -0.2475,0.4515 -0.1368,0.7632 -0.1967,1.1113 l -0.1265,1.0264 -0.2279,0.8404 -0.0873,0.1874 c -5e-4,7e-4 0.1156,-0.097 0.0624,-0.0582 -0.03,0.0218 0.1991,-0.0867 0.1366,-0.0675 -0.0655,0.02 0.3141,-10e-4 0.2319,-0.0149 -4e-4,-0.003 0.1484,0.0605 0.1395,0.0529 z m 0.9034,-2.3415 c 0.2202,-0.1843 0.2493,-0.5121 0.0651,-0.7323 -0.1843,-0.2201 -0.5121,-0.2493 -0.7323,-0.065 -0.2201,0.1842 -0.2493,0.5121 -0.065,0.7322 0.1039,0.1242 0.2596,0.1928 0.4214,0.1857 0.1033,-0.005 -0.196,-0.029 -0.1656,-0.02 0.0956,0.0283 -0.137,-0.0681 -0.1233,-0.0582 l 0.0323,0.0485 c 0.1246,0.1977 0.3859,0.2569 0.5836,0.1323 0.1401,-0.0883 0.2158,-0.2503 0.1937,-0.4145 l -0.0301,-0.1878 -4e-4,0.0113 -0.009,0.0865 -0.0309,0.0963 c 0.0194,-0.044 -0.241,0.2699 -0.1395,0.185"
         style="fill:#000000;fill-opacity:1;fill-rule:nonzero;stroke:none"
         id="path262" /><path
         d="m 152.8523,686.7927 c -0.2885,0.1644 -0.389,0.5314 -0.2247,0.8199 0.1644,0.2884 0.5315,0.389 0.8199,0.2246 0.0225,-0.0128 0.0442,-0.0271 0.0649,-0.0427 0.4668,-0.3529 0.267,-0.5816 0.2541,-0.7065 l -0.0632,-0.442 -0.008,-0.009 c 0.008,-0.0363 -0.1633,0.2757 -0.0936,0.1901 0.0753,-0.0925 -0.4664,0.197 -0.3438,0.1849 0.3162,-0.0311 0.5472,-0.3127 0.5161,-0.6289 -0.0294,-0.2982 -0.2829,-0.524 -0.5825,-0.5188 -0.4313,0.008 -0.631,0.4632 -0.6505,0.6447 l 0.0305,0.5667 0.0102,0.1185 c -1e-4,0.004 0.0314,-0.1411 0.0148,-0.0832 -0.009,0.0327 0.0963,-0.1895 0.0607,-0.1335 -0.038,0.0597 0.2885,-0.2383 0.1952,-0.1851 m 0.9213,-0.3287 c 0.0121,-0.3009 -0.222,-0.5547 -0.5229,-0.5668 -0.301,-0.0122 -0.5548,0.222 -0.5669,0.5229 -0.0121,0.301 0.222,0.5548 0.523,0.5669 0.2347,0.009 0.449,-0.1324 0.5321,-0.3522 0.0423,-0.1121 -0.1555,0.2223 -0.119,0.1856 0.06,-0.0602 -0.2004,0.1226 -0.157,0.1051 0.0603,-0.0242 -0.154,0.0278 -0.1279,0.0275 l -0.0336,-0.002 c 0.2281,0.051 0.4543,-0.0925 0.5053,-0.3206 0.02,-0.0896 0.0104,-0.1833 -0.0275,-0.2669 l -0.0242,-0.057 0.004,0.0133 0.007,0.0334 c -0.003,-0.0181 0.004,0.1908 0.007,0.1112"
         style="fill:#000000;fill-opacity:1;fill-rule:nonzero;stroke:none"
         id="path264" /><path
         d="m 271.874,717.8711 c -0.0111,-0.3318 -0.289,-0.5918 -0.6208,-0.5808 -0.3318,0.011 -0.5918,0.2889 -0.5808,0.6207 0.001,0.0343 0.005,0.0685 0.0122,0.1021 l 0.0266,0.4046 0.005,0.0755 0.1204,0.277 c 0.1317,0.1634 0.4936,0.2376 0.6623,0.1662 0.4752,-0.2011 0.3031,-0.2927 0.3241,-0.3435 0.1452,-0.3513 0.3062,-1.0545 0.5154,-2.1005 0.221,-1.105 0.4448,-2.4609 0.5768,-3.876 0.1426,-1.4285 0.1911,-2.8504 0.1092,-3.9702 -0.0537,-0.7163 -0.2351,-1.2538 -0.442,-1.6135 l -0.2892,-0.3504 c -0.2371,-0.1887 -0.8616,-0.1593 -1.0849,0.0959 -0.1996,0.2281 -0.2401,0.4368 -0.286,0.6646 -0.1649,1.0149 -0.0604,2.5676 0.203,4.4948 0.2462,1.7455 0.6376,3.7114 1.2747,5.5738 0.3138,0.9533 0.7044,1.8531 1.1212,2.6464 0.764,1.4644 1.77,2.4189 2.7486,2.8248 0.4202,0.1914 0.9046,0.3443 1.4256,0.2255 1.1635,-0.2973 1.5372,-1.6231 1.7607,-2.816 0.1918,-1.0258 0.1934,-2.1273 0.0365,-3.1301 -0.1634,-1.1142 -0.5817,-2.0696 -1.1337,-2.8108 -1.0066,-1.1788 -2.3016,-1.771 -3.3561,-1.477 -0.5255,0.1465 -0.957,0.599 -1.0618,1.1458 -0.1061,0.5535 0.0408,1.1861 0.3908,1.9099 0.1018,0.2103 0.3548,0.2984 0.5652,0.1967 0.2004,-0.097 0.2915,-0.3326 0.2082,-0.5391 -0.255,-0.6329 -0.2719,-1.0886 -0.1967,-1.3154 0.0915,-0.2757 0.2722,-0.3401 0.6966,-0.2355 0.4732,0.1166 1.0857,0.5195 1.5708,1.1857 0.4661,0.5596 0.8312,1.2727 1.0024,2.1681 0.1523,0.8398 0.1713,1.8158 0.0301,2.6833 -0.1669,1.0277 -0.617,1.8305 -0.814,1.8893 -0.1504,0.0489 -0.3884,0.0289 -0.7264,-0.0961 -0.6582,-0.2692 -1.5203,-1.0294 -2.1933,-2.3102 -0.3869,-0.7413 -0.7528,-1.5902 -1.0461,-2.4891 -0.5582,-1.7803 -0.8916,-3.6898 -1.0806,-5.3818 -0.2171,-1.8708 -0.2452,-3.4077 -0.1033,-4.0676 l 0.0353,-0.1554 -0.0216,0.0387 -0.0694,0.0816 c 0.0652,-0.0612 -0.4619,0.161 -0.3237,0.1462 0.1029,-0.0109 -0.3327,-0.0624 -0.2655,-0.0356 0.0927,0.0371 -0.1637,-0.1107 -0.1475,-0.0939 l 0.007,0.0124 c 0.0956,0.1476 0.2488,0.5078 0.3013,1.0422 0.1004,1.0042 0.0833,2.38 -0.0273,3.7594 -0.134,1.5441 -0.3844,3.0347 -0.6136,4.1665 l -0.2812,1.2506 -0.0711,0.2523 0.006,-0.0129 c -0.006,0.0142 0.1059,-0.1596 0.0592,-0.0983 -0.0422,0.0553 0.771,-0.2149 0.4533,-0.2195 -0.2497,-0.004 0.5332,0.3738 0.4758,0.2763 -0.0735,-0.125 0.0759,0.2492 0.0721,0.2145 l 0.003,0.0542 0.0382,-0.5264 z"
         style="fill:#000000;fill-opacity:1;fill-rule:nonzero;stroke:none"
         id="path266" /><path
         d="m 281.5758,711.5729 c -0.3264,-0.0607 -0.6402,0.1546 -0.701,0.481 -0.0606,0.3258 0.1539,0.6392 0.4795,0.7007 0.4515,0.0852 0.9261,-0.1042 1.2099,-0.4068 0.8296,-0.8844 0.8498,-2.3954 0.7063,-3.7819 -0.1063,-1.1622 -0.3811,-2.4131 -1.4247,-2.9308 -0.8528,-0.3226 -1.5689,0.1813 -2.0411,0.7763 -0.4839,0.6099 -0.8429,1.4394 -0.9935,2.3651 -0.0376,0.2307 0.119,0.4481 0.3496,0.4856 0.2169,0.0353 0.4247,-0.1013 0.4783,-0.3143 0.1942,-0.7715 0.5706,-1.4322 0.9635,-1.8259 0.3603,-0.3611 0.5985,-0.3666 0.6313,-0.3476 0.3359,0.1548 0.7173,0.935 0.8332,1.9244 0.0833,0.7929 0.0476,1.648 -0.1183,2.2545 -0.151,0.552 -0.2686,0.6392 -0.373,0.6197"
         style="fill:#000000;fill-opacity:1;fill-rule:nonzero;stroke:none"
         id="path268" /><path
         d="m 281.5133,714.6638 c -0.0201,0.3314 0.2323,0.6163 0.5636,0.6364 0.3314,0.0201 0.6163,-0.2322 0.6365,-0.5636 0.005,-0.0775 -0.006,-0.1551 -0.0305,-0.2287 -0.0824,-0.2439 -0.3248,-0.4359 -0.4942,-0.4886 -0.3953,-0.123 -0.0849,0.1648 -0.0901,0.068 -0.0125,-0.2333 -0.2118,-0.4124 -0.4452,-0.3999 -0.196,0.0105 -0.359,0.1544 -0.3938,0.3476 -0.0597,0.3316 0.1235,0.7221 0.2973,0.8546 l 0.0462,0.0262 c 0.0511,0.0589 -0.0867,-0.3026 -0.0898,-0.252"
         style="fill:#000000;fill-opacity:1;fill-rule:nonzero;stroke:none"
         id="path270" /><path
         d="m 259.4246,707.5413 c 0,-1.2763 -1.0346,-2.3109 -2.3108,-2.3109 -1.2763,0 -2.3109,1.0346 -2.3109,2.3109 0,1.2762 1.0346,2.3108 2.3109,2.3108 1.2762,0 2.3108,-1.0346 2.3108,-2.3108"
         style="fill:#ed3624;fill-opacity:1;fill-rule:nonzero;stroke:none"
         id="path272" /><path
         d="m 259.6238,707.5413 c 0,-0.9252 -0.5005,-1.7335 -1.2455,-2.1688 -0.3714,-0.2169 -0.8034,-0.3413 -1.2645,-0.3413 -0.9252,0 -1.7335,0.5005 -2.1688,1.2456 -0.2169,0.3713 -0.3413,0.8033 -0.3413,1.2645 0,0.9251 0.5005,1.7334 1.2456,2.1687 0.3713,0.2169 0.8033,0.3413 1.2645,0.3413 0.9251,0 1.7334,-0.5005 2.1687,-1.2455 0.2169,-0.3714 0.3413,-0.8034 0.3413,-1.2645 m -0.3984,0 c 0,0.3878 -0.1045,0.7512 -0.2869,1.0635 -0.3663,0.6269 -1.0463,1.0481 -1.8247,1.0481 -0.3878,0 -0.7512,-0.1045 -1.0636,-0.2869 -0.6268,-0.3663 -1.0481,-1.0463 -1.0481,-1.8247 0,-0.3878 0.1045,-0.7512 0.287,-1.0636 0.3662,-0.6268 1.0462,-1.0481 1.8247,-1.0481 0.3878,0 0.7512,0.1045 1.0635,0.287 0.6269,0.3662 1.0481,1.0462 1.0481,1.8247"
         style="fill:#ed3624;fill-opacity:1;fill-rule:nonzero;stroke:none"
         id="path274" /><path
         d="m 184.5698,670.1367 c -0.1451,0.2024 -0.0986,0.484 0.1037,0.6291 0.2024,0.145 0.4841,0.0986 0.6291,-0.1038 0.003,-0.004 0.006,-0.008 0.009,-0.0124 0.4826,-0.7232 0.5484,-1.5658 0.6263,-2.6698 l 0.3113,-3.7916 0.009,-1.4311 -0.0708,-0.4447 c -0.0298,-0.0798 -0.0638,-0.2928 -0.4012,-0.3243 -0.3468,-0.0323 -0.4451,0.2172 -0.4841,0.3113 -0.1994,0.5542 -0.0916,1.2854 -0.0954,2.1487 0.003,1.5171 -0.0361,3.3372 0.6137,4.8491 0.6373,1.5029 1.9881,2.3959 3.0711,2.1905 0.4911,-0.0848 0.8263,-0.4969 0.9965,-0.9287 0.1713,-0.4346 0.231,-0.9295 0.2391,-1.4205 0.0128,-0.4633 3e-4,-0.9603 -0.1542,-1.4302 -0.1924,-0.6073 -0.641,-1.1276 -1.2579,-1.302 -0.7635,-0.058 -1.3246,0.4488 -1.5124,1.1855 -0.0432,0.1698 0.0593,0.3426 0.2292,0.3859 0.1461,0.0373 0.2983,-0.0335 0.364,-0.1693 0.2355,-0.4865 0.4188,-0.4692 0.5663,-0.4059 0.2925,0.0687 0.5863,0.3063 0.7149,0.6305 0.108,0.2808 0.1488,0.6843 0.1557,1.1056 0.004,0.83 -0.2472,1.4772 -0.5025,1.5293 -0.4861,0.091 -1.6281,-0.498 -2.1362,-1.7004 -0.5357,-1.2846 -0.5109,-3.0038 -0.4975,-4.5135 l 0.0312,-1.8383 c 0.0101,-0.032 -0.061,0.1044 -0.0316,0.0592 l -0.0674,0.0785 c 0.0324,-0.0291 -0.1941,0.1028 -0.1359,0.0816 0.0557,-0.0204 -0.2417,0.0185 -0.1813,0.0238 0.1103,0.01 -0.2757,-0.1346 -0.2314,-0.0966 0.0686,0.059 -0.0938,-0.1264 -0.0867,-0.1108 l 0.0225,0.1621 0.008,1.3396 -0.3106,3.7639 c -0.0998,1.0799 -0.1966,1.7366 -0.5428,2.2197"
         style="fill:#ed3624;fill-opacity:1;fill-rule:nonzero;stroke:none"
         id="path276" /><path
         d="m 191.7914,666.4342 c 0.121,0.2175 0.3956,0.2958 0.6131,0.1748 0.2176,-0.1211 0.2959,-0.3956 0.1749,-0.6132 -0.003,-0.005 -0.006,-0.0101 -0.009,-0.0151 -0.2066,-0.3395 -0.7154,-0.5608 -1.0455,-0.3516 -0.3072,0.1947 -0.4101,0.5038 -0.4659,0.8239 -0.0657,0.3343 -0.0999,0.7482 0.0557,1.1513 0.1963,0.4996 0.6763,0.6586 1.0303,0.7463 0.3406,0.0846 0.7593,0.0868 1.0949,-0.1694 0.6942,-0.5146 0.7265,-1.5735 0.4234,-2.3627 -0.2032,-0.5755 -0.7581,-0.8746 -1.2261,-1.007 -0.424,-0.1052 -0.8014,0.1127 -1.031,0.3643 -0.2276,0.2495 -0.3798,0.5571 -0.476,0.8743 -0.1008,0.3416 -0.1318,0.7085 -0.0688,1.0785 0.1104,0.5969 0.4767,1.0939 0.8767,1.4573 0.4174,0.3777 0.954,0.4965 1.4129,0.4224 0.9534,-0.155 1.1714,-1.2185 1.5258,-1.8996 0.3332,-0.6406 0.6249,-1.0044 1.5087,-0.5475 0.1557,0.0805 0.3471,0.0195 0.4276,-0.1362 0.079,-0.1528 0.0219,-0.3407 -0.1289,-0.4237 -0.5751,-0.3166 -1.1212,-0.3794 -1.5485,-0.1852 -0.6271,0.2849 -0.9153,0.9531 -1.1935,1.4963 -0.2678,0.523 -0.5195,0.8551 -0.7024,0.8752 -0.2332,0.0259 -0.4966,-0.0437 -0.6982,-0.2413 -0.2783,-0.2716 -0.5195,-0.6653 -0.5634,-0.9634 l 0.0472,-0.661 0.2703,-0.5215 0.1082,-0.0939 c 0.2804,0.0575 0.6049,0.2573 0.6794,0.43 0.1848,0.4624 0.0405,1.2595 -0.1391,1.3974 -0.0665,0.0496 -0.2036,0.0682 -0.3966,0.0181 -0.2352,-0.0613 -0.4382,-0.2059 -0.4534,-0.2459 -0.0671,-0.1742 -0.0634,-0.4504 -0.0141,-0.7006 l 0.0821,-0.2268 c 0.0405,-0.0217 -0.2446,-0.024 -0.1947,10e-4 l 0.0237,0.0544 z"
         style="fill:#ed3624;fill-opacity:1;fill-rule:nonzero;stroke:none"
         id="path278" /><path
         d="m 255.8166,701.2017 c 0.125,-0.2154 0.0517,-0.4912 -0.1637,-0.6162 -0.2154,-0.1249 -0.4912,-0.0516 -0.6162,0.1637 l -0.1783,0.2592 -0.0176,0.0214 c -0.0196,0.01 0.1683,-0.021 0.1145,-0.0224 -0.0838,-0.002 0.2245,0.1124 0.1938,0.0807 l 0.014,0.011 c -0.1018,-0.2749 0.1558,-2.0734 0.4267,-3.928 l 0.3138,-2.5641 0.0591,-0.9751 c 0.004,-0.4711 0.1131,-0.7879 -0.1864,-1.1989 l -0.7827,0.4939 c 0.0622,0.1151 -0.0524,-0.2949 -0.0551,-0.2459 -0.005,0.0826 0.0311,-0.1431 0.0246,-0.1247 -0.0186,0.0532 0.0172,-0.0412 0.0131,-0.0333 l -0.3157,0.739 c -0.3503,1.3803 -0.286,3.7975 0.3118,5.6815 0.4534,1.4193 1.4225,2.4914 2.5315,2.5795 0.6488,0.0681 1.1767,-0.4107 1.4653,-0.9398 0.2899,-0.5317 0.4321,-1.1552 0.4578,-1.7256 0.0157,-0.2667 0.1094,-0.5797 0.0126,-0.9746 -0.2867,-0.8083 -1.1357,-0.8939 -1.822,-0.8204 -0.6923,0.0742 -1.3897,0.3111 -1.8356,0.6988 -0.1323,0.115 -0.1463,0.3154 -0.0313,0.4477 0.1048,0.1205 0.2829,0.1444 0.4158,0.0557 0.3251,-0.2171 0.9467,-0.3861 1.499,-0.3923 0.5279,-0.006 0.795,0.1648 0.8095,0.2321 l 0.0153,0.7306 c -0.007,0.4295 -0.1173,0.9481 -0.3124,1.3306 -0.1842,0.3613 -0.3905,0.5235 -0.6091,0.5074 -0.5806,-0.0574 -1.3738,-0.8144 -1.7368,-1.9979 -0.5189,-1.6801 -0.5494,-4.0897 -0.2612,-5.1698 l 0.1448,-0.3779 0.0738,-0.1504 0.0315,-0.0665 0.0238,-0.0638 0.0191,-0.0967 c 0.006,-0.0608 0.0582,-0.2178 -0.1689,-0.4033 -0.1984,-0.162 -0.4905,-0.1325 -0.6526,0.0659 -0.1467,0.1797 -0.1381,0.4402 0.0202,0.6098 0.0404,0.0433 -0.0602,-0.0901 -0.0553,-0.0794 l 0.0686,0.7011 -0.0586,0.8771 -0.3086,2.5209 -0.3753,2.594 c -0.09,0.7403 -0.1799,1.3038 -0.006,1.7742 0.0855,0.235 0.4073,0.5687 0.7791,0.4731 0.3477,-0.0894 0.5177,-0.3495 0.7105,-0.6819"
         style="fill:#ed3624;fill-opacity:1;fill-rule:nonzero;stroke:none"
         id="path280" /><path
         d="m 261.2093,697.4749 c 0,-0.249 -0.2019,-0.4509 -0.4508,-0.4509 -0.249,0 -0.4509,0.2019 -0.4509,0.4509 0,0.249 0.2019,0.4508 0.4509,0.4508 0.2489,0 0.4508,-0.2018 0.4508,-0.4508 m -0.2678,0.4051 c 0.2203,-0.102 0.3162,-0.3633 0.2142,-0.5836 -0.102,-0.2203 -0.3633,-0.3162 -0.5836,-0.2142 -0.2203,0.102 -0.3162,0.3633 -0.2142,0.5836 0.0365,0.0788 0.0955,0.145 0.1695,0.1903 0.0621,0.038 -0.1157,-0.1025 -0.0988,-0.0831 0.0544,0.0622 -0.0578,-0.0889 -0.055,-0.0827 l 0.1358,0.4856 -0.0296,0.2842 -0.0131,0.1129 0.008,-0.02 c -0.007,0.018 0.116,-0.1763 0.0627,-0.1094 -0.1493,0.1873 -0.1185,0.46 0.0688,0.6093 0.1872,0.1492 0.46,0.1184 0.6092,-0.0688 0.0854,-0.1071 0.1151,-0.2483 0.0803,-0.3807 l 0.02,-0.6305 0.006,-1.2674 0.007,-0.5871 -0.0174,-1.0332 c 0.081,-0.2398 -0.0478,-0.4999 -0.2876,-0.5809 -0.2399,-0.081 -0.5,0.0477 -0.581,0.2876 -0.0139,0.0411 -0.0219,0.084 -0.0237,0.1274 -0.0128,0.3042 0.0519,0.2456 0.0762,0.2954 l 0.3131,0.5965 c 0.1484,0.3128 0.4,0.5656 0.6712,0.7487 0.237,0.1605 0.5129,0.2451 0.7922,0.224 0.4939,-0.0213 0.715,-0.4655 0.8334,-0.8351 0.1189,-0.3714 0.1603,-0.7801 0.0541,-1.1682 -0.2199,-0.5942 -0.7923,-0.8816 -1.3284,-0.8383 -0.5417,0.0437 -1.078,0.4117 -1.3892,1.0358 -0.0782,0.1569 -0.0144,0.3475 0.1424,0.4256 0.1482,0.0739 0.3282,0.0215 0.4136,-0.1204 0.4954,-0.8235 1.1933,-0.5626 1.2592,-0.2757 0.056,0.1777 0.0558,0.4608 -0.006,0.6873 l -0.1029,0.2403 c -0.0249,0.0345 0.1059,-0.007 0.0454,-4e-4 l -0.2363,-0.0812 -0.3825,-0.4196 -0.1951,-0.4349 -0.0537,-0.1307 0.008,0.0787 -0.008,0.0855 c 0.008,-0.04 -0.1074,0.2223 -0.065,0.1579 l -0.8212,-0.3866 c -0.1331,0.4332 -0.0156,0.8433 -0.0135,1.3114 l 0.007,0.593 0.006,1.2671 c 0.003,0.267 -0.0745,0.5254 0.0231,0.8598 l 0.5675,-0.5277 c -0.0649,-0.0241 0.1484,0.0924 0.1233,0.0715 -0.0442,-0.037 0.0855,0.0991 0.0734,0.0809 -0.0361,-0.0538 0.0243,0.0462 0.0177,0.0251 l -0.1158,-0.4691 0.0259,-0.2861 0.0107,-0.0961 -0.007,0.022 -0.0302,0.0618 -0.0462,0.0616 c 0.0245,-0.0271 -0.2206,0.1392 -0.1378,0.1009"
         style="fill:#ed3624;fill-opacity:1;fill-rule:nonzero;stroke:none"
         id="path282" /><path
         d="m 163.6856,689.3181 c -0.3845,0.214 -0.5228,0.6992 -0.3088,1.0838 0.214,0.3845 0.6992,0.5228 1.0838,0.3088 l 176.0003,-97.9371 c 0.3846,-0.214 0.5229,-0.6993 0.3089,-1.0838 -0.214,-0.3846 -0.6992,-0.5229 -1.0838,-0.3089 z"
         style="fill:#000000;fill-opacity:1;fill-rule:nonzero;stroke:none"
         id="path284" /><path
         d="m 196.8728,675.0014 c 0.3632,-1.7964 -0.7986,-3.5471 -2.595,-3.9104 -1.7964,-0.3632 -3.5471,0.7986 -3.9104,2.595 -0.3632,1.7964 0.7986,3.5471 2.595,3.9104 1.7964,0.3632 3.5471,-0.7986 3.9104,-2.595"
         style="fill:#ed3624;fill-opacity:1;fill-rule:nonzero;stroke:none"
         id="path286" /><path
         d="m 197.0485,675.0369 c 0.0473,-0.2338 0.07,-0.467 0.07,-0.6967 0,-1.2525 -0.6762,-2.404 -1.7423,-3.0225 -0.3215,-0.1866 -0.6784,-0.3247 -1.0629,-0.4024 -0.2338,-0.0473 -0.467,-0.07 -0.6967,-0.07 -1.2525,0 -2.404,0.6762 -3.0225,1.7423 -0.1865,0.3215 -0.3246,0.6784 -0.4024,1.0629 -0.0473,0.2338 -0.07,0.467 -0.07,0.6967 0,1.2525 0.6762,2.404 1.7423,3.0225 0.3215,0.1865 0.6784,0.3246 1.0629,0.4024 0.2338,0.0473 0.467,0.07 0.6967,0.07 1.2525,0 2.404,-0.6762 3.0225,-1.7423 0.1866,-0.3215 0.3247,-0.6784 0.4024,-1.0629 m -0.3514,-0.071 c -0.0698,0.3451 -0.1937,0.6654 -0.3611,0.954 -0.5551,0.9566 -1.5884,1.5637 -2.7124,1.5637 -0.2063,0 -0.4156,-0.0205 -0.6257,-0.063 -0.3451,-0.0697 -0.6654,-0.1936 -0.954,-0.361 -0.9566,-0.5551 -1.5637,-1.5884 -1.5637,-2.7124 0,-0.2063 0.0205,-0.4157 0.063,-0.6257 0.0697,-0.3451 0.1936,-0.6654 0.361,-0.954 0.5551,-0.9567 1.5884,-1.5637 2.7124,-1.5637 0.2063,0 0.4157,0.0205 0.6257,0.0629 0.3451,0.0698 0.6654,0.1937 0.954,0.3611 0.9567,0.5551 1.5637,1.5884 1.5637,2.7124 0,0.2063 -0.0205,0.4156 -0.0629,0.6257"
         style="fill:#ed3624;fill-opacity:1;fill-rule:nonzero;stroke:none"
         id="path288" /><path
         d="m 202.1319,670.9618 c 0,-0.1963 -0.1591,-0.3554 -0.3554,-0.3554 -0.1963,0 -0.3554,0.1591 -0.3554,0.3554 0,0.1962 0.1591,0.3554 0.3554,0.3554 0.1963,0 0.3554,-0.1592 0.3554,-0.3554 m 1.7199,6.3958 c 0.1335,-0.0987 0.1617,-0.2869 0.063,-0.4204 -0.0986,-0.1335 -0.2868,-0.1617 -0.4203,-0.063 -0.0344,0.0254 -0.063,0.0579 -0.0839,0.0954 l 0.009,-0.0177 -0.2591,0.1519 0.1237,-0.021 c -0.0269,-0.003 0.1738,0.0956 0.1214,0.0525 l 0.073,0.1018 0.0117,0.1329 -0.0273,0.0749 -0.0318,0.0438 0.8078,-0.5784 1.3777,-1.0614 0.4311,-0.3866 0.3145,-0.2414 0.3462,-0.212 c 0.1259,-0.0826 0.2908,-0.1798 0.346,-0.4238 0.0367,-0.2096 -0.0656,-0.3382 -0.1347,-0.4074 -0.1893,-0.1898 -0.4181,-0.2668 -0.6056,-0.361 l -0.6808,-0.3743 -0.5477,-0.4006 -1.7719,-1.4862 -0.8515,-0.6378 -0.3624,-0.2124 -0.2395,-0.0891 c -0.1907,-0.0461 -0.3828,0.0712 -0.4289,0.2619 -0.0461,0.1908 0.0711,0.3829 0.2619,0.429 0.006,0.001 0.0119,0.003 0.0179,0.004 l 0.0957,0.0333 0.2838,0.1547 0.8015,0.5855 1.7692,1.4786 0.6326,0.4781 0.7123,0.3905 0.3629,0.1843 0.0697,0.0468 -0.0289,-0.042 c 0.0171,0.0334 -0.0141,-0.2314 -0.0247,-0.1629 l 0.0157,-0.0425 -0.4108,0.3067 -0.3437,0.2639 -0.4305,0.3859 -1.3402,1.04 -0.6112,0.5167 -0.1914,0.1929 c -0.0261,0.0328 -0.0862,0.0387 -0.0777,0.2102 l 0.1175,0.2023 c 0.1292,0.0816 0.2005,0.031 0.2243,0.0221 l 0.0397,-0.0181 c 0.114,-0.007 0.3026,-0.0529 0.4751,-0.1804"
         style="fill:#ed3624;fill-opacity:1;fill-rule:nonzero;stroke:none"
         id="path290" /><path
         d="m 335.4622,589.8534 c -0.2119,-0.2556 -0.5908,-0.291 -0.8464,-0.0791 -0.2556,0.2119 -0.291,0.5909 -0.0791,0.8464 0.2005,0.2418 0.5534,0.2885 0.8098,0.1071 l 0.01,-0.009 -0.595,-0.1522 -0.0434,-0.1098 -0.0774,0.201 c -0.2527,1.0668 -0.7089,2.4486 -1.1988,3.7471 l -0.7436,1.8497 -0.2032,0.6455 -0.0955,0.4779 c -0.009,0.1087 -0.0278,0.262 0.0763,0.4944 0.1149,0.2562 0.4773,0.4921 0.7318,0.5098 0.4556,0.0783 0.6272,-0.146 0.7793,-0.2483 l 0.3327,-0.2361 c 0.7776,-0.5162 1.5689,-0.828 2.7427,-1.1887 0.9048,-0.2581 1.9185,-0.5334 2.7188,-0.6543 l 0.4948,-0.0469 c 0.1827,-0.007 0.3594,-0.0674 0.5076,-0.1746 l 0.1777,-0.129 c 0.3492,-0.2551 0.4255,-0.7449 0.1704,-1.0941 -0.0498,-0.0681 -0.1103,-0.1278 -0.1791,-0.1766 l -0.2991,-0.1769 c -0.1636,-0.0813 -0.3477,-0.1123 -0.529,-0.0891 l -0.6695,0.1192 c -0.9318,0.1926 -1.9736,0.5294 -2.9026,0.8447 -1.2202,0.387 -2.199,0.781 -3.1343,1.4173 l -0.3467,0.2561 -0.0324,0.0231 0.086,-0.0299 c -0.0518,0.0129 0.3404,-5e-4 0.2352,-0.0133 -0.0346,-0.0112 0.5449,0.3154 0.4338,0.2071 -0.0968,-0.0944 0.2195,0.3957 0.1889,0.3024 -0.0253,-0.0772 0.0366,0.2293 0.0344,0.1839 -0.003,-0.0717 -0.008,0.1275 -0.006,0.1154 l 0.071,-0.2404 0.1545,-0.5157 0.7062,-1.9016 c 0.4306,-1.384 0.8283,-2.8217 0.9789,-3.9177 -0.0144,-0.4928 -0.1649,-1.0601 -0.6519,-1.188 l 0.3531,0.5024 c 0.0132,-0.1491 -0.0438,-0.3383 -0.161,-0.4796"
         style="fill:#000000;fill-opacity:1;fill-rule:nonzero;stroke:none"
         id="path292" /><path
         d="m 392.5494,635.5841 c -0.2325,0.237 -0.2287,0.6176 0.008,0.85 0.237,0.2325 0.6176,0.2287 0.85,-0.008 0.0689,-0.0702 0.1195,-0.1564 0.1473,-0.2508 0.1712,-0.5804 -0.3051,-1.0373 -0.684,-1.0781 l 0.199,0.0752 c -0.2954,-0.2089 -0.5512,-0.0768 -0.7049,-0.003 l -0.3146,0.1927 0.2622,-0.0907 -0.1414,0.0219 -0.0305,0.008 c -6e-4,2e-4 0.1862,-0.0283 0.0885,-0.0172 -0.3254,0.037 -0.5592,0.3307 -0.5223,0.6561 0.037,0.3254 0.3307,0.5592 0.6561,0.5223 0.3254,-0.0369 0.5593,-0.3307 0.5223,-0.6561 -0.0288,-0.2541 -0.2174,-0.4611 -0.4678,-0.5135 -0.0873,-0.0183 0.2022,0.0827 0.1647,0.0616 -0.1202,-0.0676 0.2432,0.2774 0.2067,0.2086 -0.0356,-0.0671 0.0539,0.2736 0.0533,0.2052 l -0.074,0.2673 0.0917,-0.0921 0.0331,-0.0245 -0.0452,0.0134 c 0.0294,-0.005 -0.1826,-0.0197 -0.1288,-0.006 l -0.1857,-0.1036 0.0159,-0.2393 z m -0.3331,-0.3352 c -0.3749,0.0566 -0.6329,0.4064 -0.5763,0.7813 0.049,0.3247 0.3211,0.5692 0.6492,0.5834 0.3837,0.0166 0.5135,-0.1737 0.5886,-0.2561 l 0.3274,-0.5126 1.4833,-2.7446 0.6783,-1.3711 0.2806,-0.6312 0.1294,-0.2847 c 0.057,-0.1468 0.2086,-0.5133 -0.1052,-0.9085 -0.3257,-0.3766 -0.6377,-0.3132 -0.7753,-0.2947 l -0.5563,0.1638 c -0.3409,0.106 -1.1407,-0.008 -2.1759,-0.4184 l -2.2048,-0.9944 c -1.2722,-0.5131 -2.3596,-1.0258 -3.1161,-1.0693 -0.2333,-0.0135 -0.4333,0.1648 -0.4468,0.3981 -0.01,0.1679 0.081,0.3255 0.231,0.4016 l 2.6253,1.5736 2.3345,1.1131 c 1.1683,0.4756 2.2106,0.7906 3.1752,0.5071 l 0.4025,-0.1617 0.0169,-0.009 c 0.0227,-0.006 -0.2274,0.0147 -0.1454,0.0156 0.0449,5e-4 -0.2455,-0.044 -0.1741,-0.0246 0.0751,0.0205 -0.3351,-0.1896 -0.25,-0.1242 0.1029,0.073 -0.2163,-0.2742 -0.1688,-0.1927 0.0407,0.0696 -0.0868,-0.2497 -0.075,-0.1937 0.0191,0.0911 -0.006,-0.2006 -0.01,-0.1731 l -0.065,0.1979 -0.2204,0.5078 -0.6534,1.3374 -1.4401,2.6911 -0.1601,0.3096 -0.004,0.0113 c -0.0115,0.0153 0.1274,-0.1241 0.0793,-0.0831 -0.0263,0.0224 0.1616,-0.1024 0.1115,-0.0757 -0.0529,0.0282 0.2969,-0.0825 0.2099,-0.0693"
         style="fill:#000000;fill-opacity:1;fill-rule:nonzero;stroke:none"
         id="path294" /><path
         d="m 285.2261,613.7397 c 0.2485,0.0167 0.4634,-0.1711 0.4801,-0.4195 0.0168,-0.2485 -0.1711,-0.4634 -0.4195,-0.4801 -0.035,-0.002 -0.0702,-6e-4 -0.1048,0.005 -0.2868,0.0481 -0.5475,0.1542 -0.7644,0.3061 -0.605,0.2469 -1.0687,0.9611 -1.3378,1.8595 -0.3937,1.5164 -0.7019,3.9531 0.1172,6.5826 0.4832,1.5002 1.3491,2.9749 2.6318,4.4089 0.6804,0.7589 1.4844,1.481 2.3296,2.1365 0.9727,0.7566 2.0047,1.3861 3.0358,1.9657 1.1952,0.6723 2.4265,1.3355 3.7074,1.8252 2.8013,1.0706 5.2165,1.0131 6.7782,0.3198 1.3345,-0.5814 1.8973,-1.7888 2.0609,-2.8006 l 0.1632,-1.4214 0.005,-0.9128 -0.035,-0.2942 c -0.0204,-0.1005 0.0362,-0.2572 -0.2947,-0.4688 -0.2666,-0.1705 -0.621,-0.0926 -0.7915,0.174 -0.1467,0.2294 -0.1118,0.5304 0.0836,0.72 0.0616,0.0597 -0.124,-0.1821 -0.1065,-0.1463 0.0269,0.0554 -0.0345,-0.1003 -0.0323,-0.09 l 0.007,0.1468 -0.0196,0.8105 -0.1435,1.301 c -0.113,0.7906 -0.4241,1.531 -1.3578,1.9521 -1.2067,0.5343 -3.3375,0.6381 -5.913,-0.3474 -1.1918,-0.456 -2.3775,-1.0921 -3.5563,-1.7555 -1.0039,-0.5654 -1.9857,-1.1673 -2.8941,-1.875 -0.797,-0.6228 -1.5507,-1.3068 -2.1703,-2.0035 -1.1899,-1.3349 -1.9601,-2.6658 -2.3844,-3.9934 -0.7757,-2.3483 -0.5433,-4.5962 -0.2336,-5.9757 0.146,-0.7836 0.4018,-1.2769 0.7596,-1.5028 l 0.3993,-0.0269 z m 18.1793,13.4376 c 0.1847,-0.0942 0.258,-0.3203 0.1638,-0.5051 -0.0942,-0.1847 -0.3204,-0.258 -0.5051,-0.1638 -0.0757,0.0387 -0.1361,0.1018 -0.1712,0.1792 l -0.1428,0.5864 c -0.0325,0.1722 0.0807,0.3382 0.2529,0.3708 0.1571,0.0297 0.3117,-0.0621 0.3609,-0.2142 l 0.1085,-0.2854 0.0194,-0.0356 c 0.004,-0.005 -0.1567,0.1036 -0.0864,0.0677"
         style="fill:#969696;fill-opacity:1;fill-rule:nonzero;stroke:none"
         id="path296" /><path
         d="m 300.073,626.6624 c -0.2158,0.1244 -0.2899,0.4 -0.1655,0.6158 0.1243,0.2157 0.3999,0.2898 0.6157,0.1655 0.0265,-0.0153 0.0514,-0.0333 0.0743,-0.0536 l -0.0298,0.0234 -0.0877,0.0469 c 0.0486,-0.019 -0.3416,0.005 -0.2351,0.0234 0.1039,0.0181 -0.3218,-0.2242 -0.2643,-0.1541 0.051,0.0621 -0.0952,-0.2058 -0.0836,-0.1626 0.0196,0.0733 -0.0106,-0.1629 -0.0128,-0.1377 -0.006,0.0676 0.008,-0.044 -0.003,-0.0148 l -0.0529,0.1321 -0.1396,0.3605 c -0.0288,0.1249 -0.113,0.1144 -0.007,0.4425 0.0874,0.2716 0.3785,0.4209 0.6501,0.3335 0.2716,-0.0874 0.4209,-0.3785 0.3335,-0.6501 -0.0726,-0.2254 -0.2891,-0.3726 -0.5253,-0.3572 -0.1212,0.008 0.344,0.1009 0.2805,0.0644 -0.056,-0.032 0.1407,0.1208 0.1157,0.0931 -0.0429,-0.0477 0.0778,0.1244 0.0681,0.1026 -0.0265,-0.0589 0.0115,0.0362 0.0111,0.004 l 0.0137,-0.1066 0.084,-0.1504 0.0571,-0.2278 c 0.002,-0.1223 -0.1846,-0.4289 -0.3962,-0.4557 -0.1822,-0.0232 -0.2516,0.0349 -0.3006,0.0631 m -0.4163,1.1087 c -0.011,0.2853 0.2114,0.5255 0.4966,0.5365 0.1415,0.005 0.279,-0.0474 0.3805,-0.1462 0.2103,-0.2047 0.1016,-0.1338 0.1255,-0.1749 l 0.3211,-0.603 c 0.4372,-0.9342 0.9272,-2.3073 1.3192,-2.7978 l 0.0579,-0.064 c 0.0311,-0.0173 -0.2461,0.005 -0.1884,0.0201 l 0.2776,0.3512 c 0.3083,0.4693 0.6269,1.2627 0.9385,2.0908 l 0.6227,1.8889 0.477,1.3416 c 0.1283,0.2859 0.3017,0.5678 0.5733,0.7724 0.0537,0.0404 0.1142,0.0709 0.1787,0.0898 0.3091,0.0907 0.5969,0.062 0.892,-0.009 0.1704,-0.0408 0.2756,-0.212 0.2348,-0.3825 -0.0253,-0.1058 -0.1031,-0.1912 -0.206,-0.2264 l -0.2725,-0.1849 c -0.0321,-0.0591 -0.0746,-0.1119 -0.1254,-0.156 l -0.2068,-0.3543 -0.364,-1.247 -0.6596,-1.9665 c -0.3222,-0.8452 -0.646,-1.6859 -1.0674,-2.3184 -0.2887,-0.4199 -0.5904,-0.7441 -1.0386,-0.8258 -0.4715,-0.0878 -0.834,0.2482 -1.016,0.4961 -0.6091,0.8039 -1.0134,2.1739 -1.3951,3.0367 l -0.1888,0.3947 -0.0793,0.1561 -0.0285,0.0577 c -0.009,0.0191 -0.046,-0.1141 -0.059,0.2237"
         style="fill:#969696;fill-opacity:1;fill-rule:nonzero;stroke:none"
         id="path298" /><path
         d="m 336.6252,651.0781 c 0,-0.3096 -0.251,-0.5606 -0.5607,-0.5606 -0.3096,0 -0.5606,0.251 -0.5606,0.5606 0,0.3097 0.251,0.5607 0.5606,0.5607 0.3097,0 0.5607,-0.251 0.5607,-0.5607 m 10.9631,15.4626 c 0.1642,-0.1871 0.1457,-0.472 -0.0415,-0.6362 -0.1796,-0.1577 -0.4511,-0.1477 -0.6187,0.0227 -0.4835,0.4915 -1.7168,0.6501 -3.1049,0.4557 -1.2016,-0.1543 -2.2828,-0.5639 -3.7025,-0.9782 -1.0105,-0.2938 -2.1502,-0.62 -3.1932,-1.0872 -1.2031,-0.5321 -2.0838,-1.1217 -2.609,-1.7784 -0.2489,-0.3069 -0.4631,-0.6984 -0.7067,-1.1974 -0.3748,-0.7694 -0.8306,-1.6769 -1.161,-2.6186 -0.4961,-1.4275 -0.4846,-2.4688 -0.0505,-3.2043 0.3147,-0.5262 0.7893,-1.0836 1.2154,-1.6251 l 0.7652,-1.0506 0.4741,-0.5434 0.4446,-0.2847 0.3531,-0.157 0.3539,-0.144 0.1572,-0.0642 0.1583,-0.0737 c 0.275,-0.1422 0.3827,-0.4804 0.2405,-0.7555 -0.1423,-0.275 -0.4805,-0.3827 -0.7556,-0.2405 -0.005,0.003 -0.0101,0.005 -0.0151,0.008 l -0.0802,0.0395 -0.1306,0.0566 -0.3533,0.1435 -0.4341,0.2064 -0.6665,0.4515 -0.6063,0.6796 -0.7644,1.0558 c -0.4073,0.5257 -0.9074,1.1119 -1.2833,1.7516 -0.6452,1.0829 -0.603,2.5061 -0.0511,4.1079 0.3506,1.0272 0.8204,1.9767 1.1844,2.7447 0.2498,0.5282 0.4918,1.0012 0.8208,1.4201 0.6907,0.8673 1.7333,1.5382 3.0347,2.1159 1.1457,0.502 2.3375,0.8294 3.3523,1.1141 1.3867,0.3877 2.5336,0.8076 3.8744,0.9619 1.5559,0.1611 3.088,0.0282 3.8996,-0.8967"
         style="fill:#969696;fill-opacity:1;fill-rule:nonzero;stroke:none"
         id="path300" /><path
         d="m 336.7501,653.6892 c 0.004,0.2489 0.2092,0.4475 0.4581,0.4434 0.249,-0.004 0.4475,-0.2092 0.4434,-0.4582 -0.003,-0.1584 -0.0881,-0.3038 -0.2253,-0.383 -0.1139,-0.0658 -0.263,-0.1108 -0.417,-0.065 l 0.408,0.1477 c -0.1246,-0.1872 -0.5239,-0.2612 -0.723,-0.161 l -0.3888,0.3103 -0.1224,0.1405 c -0.0138,0.0145 0.088,-0.0504 0.0371,-0.0221 -0.0844,0.0469 0.3603,-0.0646 0.2728,-0.0669 -0.0741,-0.002 0.231,0.0578 0.1834,0.0383 -0.078,-0.032 0.1771,0.1265 0.1487,0.0976 -0.0742,-0.0752 0.0805,0.2925 0.0842,0.2088 -0.002,-0.0892 0.5726,-1.0674 1.264,-1.796 l 0.954,-0.8603 0.4519,-0.288 -0.1194,0.0542 -0.0423,0.003 -0.0415,-9e-4 -0.0418,-0.004 c 0.021,0.003 -0.2331,-0.0615 -0.1351,-0.03 0.3949,0.1272 0.8181,-0.0898 0.9453,-0.4847 0.1272,-0.3949 -0.0898,-0.8181 -0.4847,-0.9453 -0.3949,-0.1272 -0.8181,0.0898 -0.9453,0.4847 -0.0488,0.1513 -0.0482,0.3142 10e-4,0.4653 0.0294,0.0894 -0.0379,-0.2964 -0.0376,-0.2309 6e-4,0.1225 0.0788,-0.3454 0.0521,-0.2779 -0.0245,0.0622 0.1013,-0.1808 0.0765,-0.1443 -0.0452,0.0663 0.1446,-0.1585 0.1143,-0.1312 -0.0516,0.0464 0.1191,-0.0864 0.1004,-0.0751 l -0.0464,0.0227 -0.2223,0.1455 -0.4635,0.2889 -1.1492,1.0372 -1.0557,1.3107 c -0.3012,0.4509 -0.5929,0.8915 -0.534,1.4923 0.0702,0.3563 0.2231,0.5744 0.4435,0.7183 0.2284,0.1492 0.7585,0.2074 1.0144,-0.1599 l 0.1912,-0.3833 0.1091,-0.3023 c 0.006,-0.0112 -0.0875,0.0803 -0.041,0.042 0.0548,-0.0452 -0.3288,0.0356 -0.2552,0.0568 l -0.2642,-0.3442 0.002,0.106 z m 2.1032,-2.9219 c 0.2694,0.3185 0.7459,0.3583 1.0644,0.089 0.2486,-0.2103 0.3345,-0.5562 0.2131,-0.8584 -0.1367,-0.3399 -0.3784,-0.4222 -0.5029,-0.4637 -0.3557,-0.1186 -0.5009,-0.0594 -0.6953,-0.0531 l -0.5052,-7e-4 c -0.536,-0.0146 -1.3253,-0.3707 -2.2081,-0.762 l -1.2017,-0.545 -0.6769,-0.3975 c -0.0384,-0.0351 -0.0813,-0.0648 -0.1275,-0.0885 l -0.0373,-0.0206 0.0491,0.0507 c -0.043,-0.0572 0.0414,0.3346 0.0591,0.2557 0.0157,-0.0698 -0.042,0.0829 -0.0283,0.0717 0.1357,-0.1109 0.1559,-0.3108 0.045,-0.4465 -0.0604,-0.0739 -0.1508,-0.1167 -0.2462,-0.1166 -0.1462,2e-4 -0.2927,-0.0204 -0.4898,0.1452 -0.2147,0.1805 -0.2413,0.5213 -0.1779,0.7414 0.0144,0.0499 0.0354,0.0977 0.0624,0.1421 0.209,0.3427 0.5212,0.5728 0.848,0.8085 l 1.2895,0.717 c 0.8464,0.4269 1.6947,0.9539 2.6956,1.043 l 0.8362,-0.0472 0.2049,-0.0177 -0.0464,-0.005 c 0.0287,0.004 -0.2047,-0.063 -0.1382,-0.0371 0.0357,0.0139 -0.1746,-0.096 -0.1264,-0.0648 0.0502,0.0325 -0.2119,-0.2025 -0.1592,-0.1402"
         style="fill:#969696;fill-opacity:1;fill-rule:nonzero;stroke:none"
         id="path302" /><path
         d="m 214.2081,691.3411 c 0.1539,-0.1958 0.12,-0.4792 -0.0758,-0.6331 -0.1754,-0.1379 -0.4253,-0.1267 -0.5878,0.0263 -0.6493,0.6117 -0.538,1.668 -0.1469,2.4512 0.5127,0.8825 1.4053,1.3026 2.5773,1.472 2.1604,0.3296 5.2645,0.1383 7.7622,-0.8534 3.3791,-1.3405 5.72,-3.8631 6.0865,-6.5462 0.2485,-1.9063 0.03,-3.761 -1.2437,-4.6236 -1.1044,-0.7544 -2.5805,-0.2789 -4.0387,0.2271 -0.7685,0.2558 -1.6395,0.4708 -2.3887,0.6042 l -0.9676,0.1559 -0.4815,0.0425 -0.2753,0.0414 c -0.1189,0.0299 -0.3909,0.0579 -0.5343,0.4592 -0.1192,0.2798 0.0156,0.5165 0.0842,0.616 0.329,0.4776 0.5784,0.4459 0.869,0.5629 0.6741,0.2665 1.4747,0.3409 2.2175,0.4609 l 1.0062,0.2077 0.513,0.1367 -0.0432,-0.0185 c 0.0183,0.0117 -0.1618,-0.1617 -0.1074,-0.0966 0.0224,0.0269 -0.0982,-0.1622 -0.0732,-0.1122 0.0229,0.0459 -0.0679,-0.2517 -0.0566,-0.1782 0.0103,0.0665 0.0235,-0.3033 0.006,-0.2238 -0.015,0.0701 0.1155,-0.2558 0.0793,-0.1974 -0.0618,0.1 0.2612,-0.2385 0.2001,-0.2006 -0.084,0.052 0.2117,-0.081 0.1756,-0.0729 l 0.0598,-0.009 -0.5123,-0.0211 -0.7731,-0.097 -1.0289,-0.1813 -0.9318,-0.2287 -0.496,-0.1527 -0.3191,-0.1661 -0.0278,-0.0184 0.036,0.0466 0.0518,0.1142 c -0.0313,-0.1083 -0.009,0.4222 0.0116,0.3318 0.0183,-0.0803 -0.0944,0.2173 -0.0705,0.1773 0.0404,-0.0675 -0.0859,0.1065 -0.0765,0.0978 l 0.7872,-0.4409 0.8154,-0.5412 0.5022,-0.435 0.4108,-0.3911 0.3654,-0.4209 0.2144,-0.3144 c 0.1828,-0.2648 0.1164,-0.6277 -0.1484,-0.8105 -0.1531,-0.1057 -0.3476,-0.132 -0.5233,-0.0705 l -0.3237,0.13 -0.5333,0.3624 -0.457,0.4034 -0.4233,0.3468 -0.6383,0.449 -0.6821,0.4147 -0.3491,0.2759 -0.1961,0.2756 c -0.0686,0.1471 -0.121,0.4137 -0.005,0.6627 0.2889,0.6353 0.7423,0.6365 1.0683,0.7612 l 0.6651,0.1948 1.0109,0.2334 1.1073,0.175 0.8567,0.1044 c 0.2212,0.0188 0.448,0.073 0.767,0.0208 0.1627,-0.0403 0.3231,-0.0602 0.486,-0.3107 0.1373,-0.2112 0.093,-0.5933 -0.0226,-0.7495 -0.2654,-0.3587 -0.3737,-0.2678 -0.5026,-0.303 l -0.5689,-0.1598 -1.0916,-0.2567 c -0.7739,-0.1336 -1.5379,-0.2411 -1.9421,-0.4077 l -0.3152,-0.1546 -0.0516,-0.0322 c -0.0103,-0.009 0.1254,0.1579 0.0801,0.0916 -0.0257,-0.0376 0.1092,0.2813 0.0846,0.1871 -0.0131,-0.05 0.0173,0.2516 0.0199,0.1813 0.003,-0.0721 -0.0835,0.3026 -0.0512,0.2275 0.028,-0.054 -0.2218,0.2726 -0.1696,0.229 0.0464,-0.0388 -0.1512,0.0925 -0.1191,0.0771 0.0548,-0.0264 -0.1148,0.0387 -0.0999,0.0354 l 0.6264,-0.0375 1.053,-0.1558 c 0.8229,-0.1735 1.7354,-0.4238 2.5728,-0.7301 1.3648,-0.4797 2.5189,-0.6501 2.9111,-0.3861 0.5995,0.4071 0.9189,1.7408 0.6989,3.4186 -0.2628,2.1034 -2.2121,4.3789 -5.2783,5.6227 -2.2232,0.9012 -5.2242,1.1119 -7.1649,0.8339 -1.0204,-0.1542 -1.4209,-0.3616 -1.7286,-0.9011 -0.2884,-0.4397 -0.3292,-1.1385 -0.1979,-1.3055"
         style="fill:#969696;fill-opacity:1;fill-rule:nonzero;stroke:none"
         id="path304" /><path
         d="m 176.1012,677.0955 c 0.242,0.0589 0.4858,-0.0895 0.5447,-0.3314 0.0589,-0.242 -0.0895,-0.4858 -0.3314,-0.5447 -0.004,-9e-4 -0.008,-0.002 -0.0113,-0.003 -0.6375,-0.1379 -1.7083,-0.4799 -2.6168,0.0771 -1.9365,1.1557 -2.6997,4.2551 -1.1551,6.8566 0.8137,1.3723 1.649,2.8126 3.1413,3.9893 1.5977,1.2609 3.8414,2.3173 5.8673,2.8588 2.0112,0.5287 3.6933,0.469 4.9903,0.2786 0.8194,-0.1191 1.4287,-0.5712 1.7163,-1.1577 0.2851,-0.5813 0.3122,-1.2479 0.2704,-1.8978 -0.0413,-0.7182 -0.1907,-1.5646 -0.4557,-2.2805 l -0.2976,-0.6634 c -0.1646,-0.2471 -0.377,-0.5122 -0.7148,-0.6673 -0.6108,-0.2639 -1.0893,0.1598 -1.3515,0.5439 -0.3877,0.6111 -0.1738,1.2419 -0.1297,1.7061 l 0.003,0.4998 0.008,0.5541 0.0638,0.3866 0.0802,0.1794 0.1597,0.1597 c 0.1241,0.0763 0.4441,0.0657 0.5777,-0.0719 0.2468,-0.2846 0.1732,-0.4677 0.1637,-0.6173 l -0.0337,-0.3909 c -0.0155,-0.4454 -0.1591,-0.8395 -0.2133,-1.1765 l -0.0349,-0.8534 0.006,-0.3496 0.001,-0.0673 -0.0171,0.0505 c 0.0332,-0.0637 -0.2315,0.2149 -0.176,0.1862 l -0.0928,0.0313 0.5038,0.1781 c 0.3261,0.157 0.6619,0.4268 1.0257,0.7385 0.5346,0.3507 1.0495,0.7043 1.6232,0.9178 0.1642,0.0611 0.3469,-0.0225 0.4081,-0.1868 0.0496,-0.1333 0.004,-0.2833 -0.1105,-0.3671 -0.4124,-0.3007 -0.774,-0.7185 -1.1552,-1.1454 -0.4339,-0.3766 -0.8301,-0.7091 -1.3034,-0.9349 l -0.7481,-0.2228 -0.4149,0.008 c -0.1636,0.0359 -0.4068,0.1636 -0.4943,0.4193 -0.1392,0.3618 -0.0255,0.5566 -0.0321,0.6711 l 0.066,1.0921 0.2433,1.0693 0.0355,0.3927 0.002,0.0871 0.007,-0.0303 c -0.008,0.0247 0.1045,-0.1608 0.0641,-0.1132 -0.0404,0.0525 0.1278,-0.1071 0.0839,-0.0764 -0.0878,0.0616 0.415,-0.0649 0.3156,-0.0778 -0.0883,-0.0114 0.229,0.0974 0.1886,0.0705 -0.0683,-0.0456 0.1218,0.1239 0.1063,0.102 -0.0419,-0.0591 0.0252,0.0463 0.0183,0.02 l -0.0189,-0.1285 0.008,-0.5105 0.004,-0.5674 0.0172,-1.0703 0.1881,-0.1874 0.0407,-0.0186 -0.0704,-0.0114 0.3486,0.3173 0.2069,0.4472 c 0.2251,0.5924 0.3736,1.3818 0.4159,2.0161 0.0675,1.1289 -0.1184,1.949 -1.2334,2.1068 -1.2156,0.1703 -2.7541,0.2184 -4.6231,-0.2809 -1.9006,-0.4993 -4.077,-1.5203 -5.5507,-2.6727 -1.3491,-1.0558 -2.1238,-2.3663 -2.9415,-3.7322 -1.3341,-2.2315 -0.6287,-4.7907 0.843,-5.6778 0.4967,-0.2913 1.3134,-0.0874 1.9718,0.0729"
         style="fill:#969696;fill-opacity:1;fill-rule:nonzero;stroke:none"
         id="path306" /><path
         d="m 198.4703,702.7371 c -0.0367,0.2463 0.1332,0.4757 0.3794,0.5124 0.2463,0.0367 0.4757,-0.1332 0.5124,-0.3794 0.0222,-0.1491 -0.0315,-0.2995 -0.1432,-0.4006 -0.1257,-0.1139 -0.299,-0.3334 -0.6055,-0.0754 -0.0258,0.0217 -0.0482,0.0473 -0.0663,0.0759 -0.1173,0.1848 -0.0648,0.1869 -0.0768,0.2671 m 0.2708,0.2282 c 0.1761,0.0467 0.3566,-0.0582 0.4033,-0.2343 0.0191,-0.0723 0.0131,-0.149 -0.0171,-0.2175 -0.039,-0.0885 -0.1625,-0.2456 -0.3601,-0.2613 -0.1915,-0.0151 -0.326,0.082 -0.4124,0.1706 -0.035,0.0359 -0.0636,0.0777 -0.0844,0.1233 -0.1505,0.3306 -0.0101,0.547 0.0975,0.7381 l 0.4425,0.5288 c 0.6697,0.5503 1.5984,0.4712 2.4354,0.2193 0.8447,-0.2542 1.6571,-0.69 2.3136,-1.0886 1.0296,-0.6196 2.1307,-1.2659 2.8521,-2.319 0.8974,-1.3205 0.5219,-2.9785 0.7528,-4.0875 0.1676,-0.7963 0.438,-1.6165 0.4927,-2.5285 0.07,-1.2038 -0.4352,-2.5561 -1.5775,-3.4304 -0.7859,-0.6061 -1.7581,-0.8293 -2.5368,-0.8218 -0.4897,0.005 -0.9173,0.2107 -1.245,0.4675 l -1.1511,1.0644 -0.7928,0.8109 -0.4619,0.5309 -0.4055,0.4727 c -0.2726,0.4433 -0.0846,0.9357 0.1171,1.2248 0.1969,0.2824 0.4439,0.4965 0.6742,0.666 l 0.4137,0.2653 0.406,0.2047 0.1264,0.0656 -0.0205,-0.0114 c 0.0145,0.009 -0.1302,-0.1022 -0.0839,-0.0613 l -0.0719,-0.0763 c 0.0266,0.034 -0.1115,-0.2191 -0.0849,-0.1498 0.0246,0.064 -0.0324,-0.3388 -0.0379,-0.2436 -0.005,0.0846 0.1076,-0.315 0.069,-0.2435 -0.033,0.0612 0.1499,-0.1824 0.1116,-0.146 -0.0638,0.0606 0.2055,-0.1284 0.1627,-0.1092 -0.0589,0.0265 0.1514,-0.0448 0.1241,-0.0394 l 0.0543,-0.008 -0.426,-0.0706 -1.145,-0.3425 -0.5499,-0.1796 -0.6431,-0.2764 0.0175,0.0123 c -0.013,-0.0125 0.0986,0.1497 0.0678,0.0923 l 0.0382,0.0924 c -0.0109,-0.0359 0.0255,0.1888 0.023,0.1345 -0.002,-0.0493 -0.0337,0.2321 -0.0176,0.1695 0.0291,-0.113 -0.3,0.39 -0.2026,0.3124 0.0711,-0.0567 -0.2689,0.1228 -0.2071,0.1057 0.0871,-0.024 -0.2352,0.0141 -0.1921,0.018 l -0.0797,-0.0146 0.4558,0.2507 1.5642,1.0793 0.9034,0.7624 0.0397,0.0474 c 0.0421,0.0504 0.0637,0.2295 0.4634,0.2939 0.2626,0.0325 0.4606,-0.0976 0.544,-0.1863 0.2421,-0.2575 0.1681,-0.318 0.1822,-0.3951 l 0.0553,-0.7289 0.0914,-1.0127 0.1804,-0.5408 0.1889,-0.2936 0.1569,-0.1487 0.0698,-0.0384 0.1824,-0.1129 c 0.2974,-0.1612 0.4079,-0.5329 0.2467,-0.8304 -0.1262,-0.2329 -0.3879,-0.3583 -0.6486,-0.3107 l -0.2558,0.0626 -0.3319,0.1788 -0.375,0.3176 -0.3967,0.6305 -0.2334,0.8813 -0.0794,1.2155 -0.0232,0.408 -0.0149,0.1084 c -3e-4,10e-4 0.0499,-0.1231 0.0249,-0.0686 -0.0147,0.0321 0.178,-0.2286 0.1068,-0.1551 -0.039,0.0403 0.2681,-0.1662 0.1819,-0.1275 -0.0903,0.0406 0.4451,-0.0297 0.3289,-0.0463 -0.1158,-0.0126 0.234,0.0896 0.1874,0.0634 l 0.0751,0.0519 -0.0308,-0.0384 -0.222,-0.2001 -0.8377,-0.7171 c -0.5346,-0.449 -1.1283,-0.8805 -1.699,-1.2185 -0.2057,-0.1192 -0.4042,-0.2926 -0.7607,-0.3785 -0.159,-0.0304 -0.3665,-0.0764 -0.6169,0.1367 -0.2031,0.1728 -0.2477,0.5013 -0.1989,0.6689 0.1197,0.4121 0.3214,0.4447 0.5179,0.5384 l 0.7755,0.3347 0.5787,0.1786 1.3092,0.3698 c 0.2282,0.0411 0.4354,0.1101 0.7358,0.0833 l 0.2563,-0.0818 c 0.0864,-0.0514 0.2222,-0.1689 0.2705,-0.3643 0.0898,-0.3634 -0.1172,-0.5244 -0.1799,-0.5806 -0.2545,-0.2279 -0.1956,-0.1213 -0.2303,-0.1413 l -0.363,-0.2031 -0.3202,-0.205 -0.4068,-0.3874 -0.046,-0.0784 c -0.004,-0.0205 -0.0652,0.2088 -0.0323,0.1545 l 0.322,-0.3539 0.3998,-0.4919 0.744,-0.7662 1.048,-0.9851 c 0.2237,-0.1836 0.3166,-0.2344 0.5518,-0.2417 0.5358,-0.0163 1.3192,0.1597 1.8595,0.5628 0.8407,0.6319 1.2223,1.6329 1.1807,2.5077 -0.0342,0.7485 -0.2704,1.5251 -0.4387,2.3835 -0.2766,1.3952 0.021,2.8545 -0.5689,3.7392 -0.5541,0.8377 -1.512,1.4495 -2.5239,2.0799 -1.2506,0.772 -3.0659,1.4762 -3.6963,0.9669 l -0.247,-0.2801 -0.0419,-0.0868 0.002,0.0224 c -8e-4,-0.0218 -0.0402,0.1587 -0.0206,0.1091 0.0185,-0.0467 0.0287,-0.0962 0.0303,-0.1463 1e-4,-0.005 -0.0539,0.1276 -0.0228,0.0661 0.0186,-0.0366 -0.1995,0.1697 -0.1289,0.1316 0.0717,-0.0387 -0.2602,0.0138 -0.2081,0.0276"
         style="fill:#969696;fill-opacity:1;fill-rule:nonzero;stroke:none"
         id="path308" /><path
         d="m 343.2591,588.6907 c 0.332,0.002 0.603,-0.265 0.6053,-0.5969 0.002,-0.2515 -0.1532,-0.4776 -0.3885,-0.5665 -0.0158,-0.006 0.187,0.1259 0.1191,0.071 -0.0333,-0.0269 0.1627,0.1993 0.1189,0.1322 -0.044,-0.0674 0.1024,0.4569 0.0978,0.3125 -0.002,-0.0705 -0.0642,0.307 -0.0361,0.2285 0.0275,-0.0766 -0.1736,0.2624 -0.1228,0.2058 0.0947,-0.1055 -0.2896,0.1847 -0.2377,0.1645 0.0814,-0.0316 -0.1286,0.0343 -0.1152,0.032 l 0.2445,-0.0125 1.907,-0.041 0.8731,-0.1085 0.3929,-0.0435 0.1481,-0.0135 c 0.3726,0.0608 0.7241,-0.192 0.7849,-0.5646 0.046,-0.282 -0.0882,-0.5628 -0.3364,-0.7042 l -0.4946,-0.1611 -0.7112,0.0446 -0.6902,0.0744 c -0.6636,0.0363 -1.3822,0.007 -2.024,0.1243 -0.2284,0.0623 -0.3655,0.0705 -0.5911,0.2579 -0.067,0.0556 -0.1731,0.1297 -0.2319,0.3602 -0.0499,0.1958 0.0724,0.5808 0.2914,0.7112 0.4382,0.2609 0.3337,0.0927 0.3967,0.0932"
         style="fill:#000000;fill-opacity:1;fill-rule:nonzero;stroke:none"
         id="path310" /><path
         d="m 353.2533,592.2806 c -0.001,-0.332 -0.2717,-0.5999 -0.6037,-0.5985 -0.328,10e-4 -0.5943,0.2655 -0.5985,0.5935 l -0.0162,0.5225 -0.002,0.0214 c -8e-4,0.006 0.0334,-0.1257 0.0168,-0.0721 -0.007,0.0236 0.0809,-0.1709 0.0489,-0.1136 -0.0155,0.0275 0.1113,-0.147 0.0738,-0.1044 -0.0377,0.0429 0.291,-0.194 0.1918,-0.1459 -0.0998,0.0484 0.5742,-0.003 0.4151,-0.043 -0.1487,-0.0372 0.3801,0.2713 0.3199,0.1997 -0.052,-0.0618 0.1063,0.1802 0.0906,0.1449 -0.0494,-0.111 0.0483,0.1751 0.0453,0.1549 l 0.004,0.0309 0.0147,-0.616 0.172,-2.198 0.1675,-3.0829 -0.0303,-1.2838 0.004,-0.0108 -0.0178,0.0621 c 0.008,-0.0218 -0.0915,0.1614 -0.055,0.1066 0.0178,-0.0266 -0.138,0.1478 -0.0899,0.1042 l -0.0987,0.0717 c 0.0448,-0.0257 -0.2743,0.0819 -0.1893,0.0676 0.0875,-0.0146 -0.4734,-0.1115 -0.3409,-0.0481 0.134,0.0641 -0.3366,-0.4575 -0.2956,-0.3347 0.0354,0.1061 -0.0294,-0.2098 -0.0295,-0.1824 -3e-4,0.1262 0.009,-0.0975 0.008,-0.0916 l -0.009,0.0319 -0.1806,0.5871 c -0.2512,0.764 -0.8612,1.5889 -1.2944,1.786 l -0.3009,0.0481 c -0.1791,-0.0526 -0.8237,-1.2637 -0.9292,-2.2448 l 0.007,-0.7842 0.2286,-0.0259 0.6983,-0.0342 c 0.5725,-0.0177 1.2622,0.1695 2.2068,0.9774 0.1776,0.1519 0.4447,0.1311 0.5966,-0.0465 0.1353,-0.1582 0.1355,-0.3913 3e-4,-0.5497 -0.8939,-1.0475 -1.7057,-1.6087 -2.4999,-1.8413 -0.5431,-0.0709 -0.9174,-0.0288 -1.236,0.034 -0.5209,0.1303 -1.1335,0.4607 -1.2823,1.112 -0.1158,0.4599 -0.0357,0.8889 0.0325,1.3234 0.0843,0.6014 0.2721,1.267 0.5607,1.8629 0.286,0.5908 0.6633,1.174 1.3352,1.3369 0.3661,0.1004 0.7499,0.0307 1.0593,-0.1065 0.9575,-0.4272 1.5985,-1.4651 1.9346,-2.4678 l 0.1877,-0.6668 0.0264,-0.2463 -0.0565,-0.235 c -0.0346,-0.0736 -0.0707,-0.2303 -0.3712,-0.311 -0.1603,-0.043 -0.4381,0.0139 -0.5799,0.1762 -0.2236,0.2557 -0.1265,0.2453 -0.1298,0.2614 l -0.0121,0.3646 -0.0295,1.1518 -0.2351,3.0164 -0.1901,2.2778 0.0184,0.7445 0.0325,0.1543 c 0.0167,0.0504 -0.0187,0.1497 0.2484,0.3249 0.1534,0.1006 0.5438,0.1162 0.7342,-0.0462 0.2951,-0.2518 0.1983,-0.3187 0.2052,-0.3551 l 0.0196,-0.7645 z"
         style="fill:#000000;fill-opacity:1;fill-rule:nonzero;stroke:none"
         id="path312" /><path
         d="m 354.9141,583.9398 c 0.3227,0.0779 0.6474,-0.1207 0.7253,-0.4434 0.0778,-0.3227 -0.1207,-0.6475 -0.4435,-0.7253 -0.0258,-0.006 -0.0519,-0.0107 -0.0783,-0.0135 -0.7474,-0.0782 -1.2304,0.3939 -1.4944,0.9226 -0.2706,0.4472 0.1195,1.0172 0.4741,1.2189 0.3531,0.2008 0.7777,0.2992 1.2208,0.2943 0.908,-0.0668 1.453,-0.7207 1.7901,-1.258 l 0.3381,-0.5564 c 0.093,-0.1033 0.2183,-0.1754 0.3748,-0.1946 0.1927,-0.023 0.7404,0.3294 0.9652,0.7264 l 0.1085,0.3311 -0.1474,0.2699 c -0.0621,0.0475 0.0467,-0.0194 -0.0179,-0.0151 l -0.3162,-0.003 c -0.4465,-0.0117 -1.0599,-0.5228 -1.8136,-1.3454 l -1.2503,-1.2734 c -0.3328,-0.2547 -0.6216,-0.4939 -0.9842,-0.6373 -0.3694,-0.146 -0.8531,-0.1158 -1.201,0.1421 -0.1878,0.1391 -0.2272,0.4041 -0.0881,0.5919 0.1184,0.1597 0.332,0.2155 0.5134,0.134 0.2302,-0.1034 0.3895,0.1191 0.8711,0.648 l 1.2551,1.2262 c 0.8253,0.8451 1.6467,1.64 2.6993,1.6157 0.2134,-0.004 0.6,0.0959 1,-0.2403 0.318,-0.2749 0.4737,-0.6523 0.497,-1.0216 0.0294,-0.3505 -0.1037,-0.6658 -0.2622,-0.928 -0.3979,-0.6577 -1.1125,-1.2905 -1.9584,-1.1607 -0.3901,0.0586 -0.7224,0.2647 -0.9483,0.5319 l -0.4066,0.6419 c -0.2924,0.364 -0.7032,0.6663 -1.0072,0.6568 -0.2833,0.008 -0.5572,-0.0584 -0.7029,-0.1362 l -0.0569,-0.0275 c -0.0307,-0.051 -0.0317,0.3325 0.004,0.269 0.0639,-0.0936 0.2401,-0.2652 0.341,-0.2409"
         style="fill:#000000;fill-opacity:1;fill-rule:nonzero;stroke:none"
         id="path314" /><path
         d="m 349.5715,596.1621 c -0.0486,0.3284 0.1783,0.634 0.5067,0.6825 0.3284,0.0486 0.634,-0.1783 0.6826,-0.5067 0.0328,-0.2221 -0.0609,-0.444 -0.2429,-0.5753 l -0.3766,-0.4201 -0.0687,-0.2658 -0.0179,-0.0951 c -5e-4,-0.008 -0.0408,0.1337 -0.0175,0.0726 0.0156,-0.005 -0.3131,0.2819 -0.2564,0.2619 0.0738,-0.0261 -0.1268,0.0158 -0.1133,0.0174 l -0.0428,-0.0142 c 0.0567,0.0285 0.1174,0.0485 0.1799,0.0595 0.0703,0.0122 -0.0797,-0.0282 -0.0602,-0.0145 0.2942,0.2062 0.9885,1.3426 1.6569,2.1161 0.2458,0.2783 0.4731,0.5245 0.802,0.6829 0.3583,0.2126 0.8928,0.1501 1.2284,-0.1365 0.4301,-0.3967 0.4659,-0.837 0.5484,-1.2015 l 0.1957,-0.8474 c 0.0672,-0.0385 0.1261,-0.0901 0.173,-0.1518 l 0.003,0.0173 c 0.2285,-0.0489 0.3742,-0.2737 0.3253,-0.5023 -0.026,-0.1217 -0.1043,-0.2258 -0.214,-0.2845 l -0.5535,-0.1607 c -0.0774,-0.003 -0.1547,0.01 -0.2272,0.0372 -0.754,0.2859 -0.8719,1.0704 -1.0077,1.5658 l -0.1368,0.5724 c -0.062,0.0678 0.2327,-0.009 0.1862,-0.0299 l -0.3543,-0.3808 -1.011,-1.3868 c -0.3579,-0.4926 -0.5918,-1.0301 -1.319,-1.1713 -0.0624,-0.0121 -0.1261,-0.015 -0.1893,-0.008 -0.176,0.0178 -0.3436,0.0676 -0.5069,0.1854 -0.1712,0.1235 -0.3598,0.4126 -0.2916,0.707 -0.002,0.3469 0.221,0.5734 0.4068,0.8549 l 0.0773,0.2982 0.0307,0.1149 c 0.002,0.0133 0.013,-0.1485 0.005,-0.0923"
         style="fill:#000000;fill-opacity:1;fill-rule:nonzero;stroke:none"
         id="path316" /><path
         d="m 399.2637,628.5193 c -0.107,0.3142 0.0609,0.6558 0.3752,0.7628 0.3142,0.1071 0.6558,-0.0609 0.7628,-0.3751 0.1071,-0.3143 -0.0609,-0.6558 -0.3751,-0.7629 -0.0409,-0.0139 -0.0832,-0.0234 -0.1261,-0.0283 l -0.2518,0.007 c -0.0291,0.007 -0.0574,0.0173 -0.0846,0.0301 -0.2391,0.1128 -0.2561,0.2361 -0.3004,0.3662 m 0.0984,0.2541 c 0.1186,0.2176 0.3911,0.2978 0.6086,0.1792 0.1678,-0.0914 0.2592,-0.279 0.2279,-0.4675 -0.002,-0.01 -0.1656,0.2229 -0.1095,0.1896 l 0.1096,0.001 c 0.7166,-0.1163 2.0468,0.2195 2.6961,0.3506 0.2291,0.0462 0.4523,-0.102 0.4985,-0.3311 0.0393,-0.1945 -0.0619,-0.3901 -0.2433,-0.4706 -0.6191,-0.2744 -1.8686,-0.7847 -2.9483,-0.7488 -0.3811,0.0834 -0.6413,0.1999 -0.8133,0.4516 -0.1765,0.2582 -0.1508,0.6174 -0.0263,0.8457"
         style="fill:#000000;fill-opacity:1;fill-rule:nonzero;stroke:none"
         id="path318" /><path
         d="m 400.4247,630.6374 c -0.0673,0.3251 0.1416,0.6432 0.4667,0.7105 0.3251,0.0673 0.6432,-0.1417 0.7105,-0.4667 0.005,-0.0257 0.009,-0.0517 0.0109,-0.0779 0.0439,-0.5981 -0.074,-1.3167 -0.1123,-2.0057 -0.0371,-0.6673 0.0853,-1.1771 0.1181,-1.2013 0.1881,-0.1387 0.2281,-0.4036 0.0894,-0.5917 -0.124,-0.1682 -0.3522,-0.2206 -0.5372,-0.1235 -0.666,0.3496 -0.6729,1.1885 -0.6936,1.9307 -0.0206,0.7435 0.0153,1.4979 -0.0525,1.8256"
         style="fill:#000000;fill-opacity:1;fill-rule:nonzero;stroke:none"
         id="path320" /><path
         d="m 410.078,633.5938 c 0.0249,-0.331 -0.2232,-0.6196 -0.5542,-0.6446 -0.331,-0.025 -0.6197,0.2231 -0.6446,0.5541 -3e-4,0.004 -6e-4,0.007 -8e-4,0.011 -0.0133,0.2335 -0.0867,0.1492 -0.003,0.5296 0.0702,0.3207 0.387,0.5238 0.7077,0.4536 0.2332,-0.051 0.4132,-0.2365 0.4572,-0.471 l 0.0382,-0.4327 z m -1.178,0.1146 c -0.1151,0.307 0.0404,0.6492 0.3474,0.7643 0.307,0.1152 0.6493,-0.0404 0.7644,-0.3474 0.0283,-0.0755 0.041,-0.1561 0.0371,-0.2367 l 0.153,-2.3494 0.087,-2.8482 -0.0111,-0.9071 c -2e-4,-0.2121 -0.0216,-0.4213 -0.129,-0.637 -0.0569,-0.1143 -0.1509,-0.2662 -0.3709,-0.353 -0.2316,-0.0914 -0.519,-0.008 -0.6669,0.1122 -0.4242,0.4129 -0.3502,0.7262 -0.4088,0.927 -0.1184,0.4366 -0.3208,0.8988 -0.5074,1.2471 l -0.1239,0.1962 -0.1769,0.062 c -0.2286,-0.0113 -1.141,-1.0422 -1.3639,-1.8104 l -0.0265,-0.4477 0.041,-0.1547 -0.0872,0.071 0.6603,-0.0436 c 0.9199,6e-4 2.0788,0.3227 2.6881,0.5695 0.2166,0.0877 0.4634,-0.0168 0.5511,-0.2334 0.0698,-0.1725 0.0188,-0.3705 -0.1259,-0.4876 -0.6438,-0.5216 -1.787,-1.0383 -2.8933,-1.2563 -0.5572,-0.0466 -1.0336,-0.0344 -1.474,0.2131 -0.5367,0.3499 -0.5844,0.8969 -0.5822,1.2456 -0.007,0.2555 0.0337,0.5582 0.1389,0.8713 0.1535,0.5243 0.4591,1.1014 0.8558,1.6047 0.3951,0.5014 0.8807,0.98 1.565,1.0112 0.3752,0.0185 0.7323,-0.124 0.9847,-0.3392 0.1955,-0.1642 0.302,-0.3552 0.3905,-0.5143 0.2295,-0.4128 0.4679,-0.933 0.6228,-1.4764 l 0.0916,-0.3971 0.0233,-0.0805 c 0.001,-0.003 -0.0959,0.1193 -0.0503,0.0705 0.0578,-0.0707 -0.1621,0.1083 -0.0948,0.0699 0.062,-0.0354 -0.3196,0.0659 -0.2331,0.0641 0.0751,-0.002 -0.2543,-0.0619 -0.2,-0.0385 0.0896,0.0385 -0.1768,-0.1419 -0.1548,-0.1141 l 0.0153,0.1396 -0.0124,0.7985 -0.1623,2.7807 -0.1302,1.67 -0.0442,0.5258 -0.0135,0.1425 -0.003,0.0272 0.002,-0.0106 c -0.002,0.0105 0.0588,-0.1839 0.0276,-0.1008"
         style="fill:#000000;fill-opacity:1;fill-rule:nonzero;stroke:none"
         id="path322" /><path
         d="m 411.8986,624.7272 c 0.328,-0.0517 0.5519,-0.3595 0.5001,-0.6874 -0.0517,-0.328 -0.3595,-0.5519 -0.6874,-0.5001 -0.1737,0.0274 -0.3266,0.1294 -0.4186,0.2792 l -0.187,0.4395 0.1056,-0.1912 c -0.4465,0.4828 -0.6666,1.1845 -0.5297,1.8676 0.1418,0.4539 0.4194,0.7477 0.7432,0.9121 0.2219,0.1188 0.5085,0.1987 0.8155,0.1521 0.4754,-0.085 0.6557,-0.3881 0.8029,-0.5643 0.326,-0.3691 0.3934,-0.7883 0.5135,-1.0886 l 0.3054,-0.5112 0.132,-0.0618 -0.0488,0.002 c 0.107,0.068 0.3438,0.3938 0.4827,0.7069 l 0.1376,0.5887 -0.0163,0.1877 0.015,-0.0314 0.0878,-0.0965 c -0.1684,0.1657 0.1145,-0.0381 0.0864,-0.0311 l -0.4159,-0.047 c -0.7969,-0.1514 -2.1788,-1.0527 -2.8049,-2.019 -0.2357,-0.2944 -0.3735,-0.5372 -0.4359,-0.7644 -0.0695,-0.2526 -0.3305,-0.4011 -0.5831,-0.3317 -0.2081,0.0572 -0.3514,0.2477 -0.3486,0.4635 0.005,0.4157 0.1339,0.8334 0.3315,1.2263 0.8777,1.359 2.36,2.3597 3.6435,2.6014 0.2896,0.0674 0.7164,0.395 1.3085,-0.0986 0.434,-0.5187 0.2974,-0.904 0.257,-1.1633 -0.0268,-0.2803 -0.1181,-0.6167 -0.2833,-0.9467 -0.2704,-0.5513 -0.646,-1.3735 -1.5202,-1.2637 -0.2769,0.0302 -0.5556,0.1639 -0.7655,0.3909 -0.2225,0.2318 -0.388,0.519 -0.5103,0.8129 l -0.3493,0.7928 -0.1696,0.161 c -0.0381,0.0294 0.0751,0.006 0.0155,0.0117 l -0.1628,-0.0436 -0.1478,-0.1992 c -0.1116,-0.3076 -0.0596,-0.7718 0.1281,-1.0529 l -0.1613,0.1473 0.1345,-0.0503 z"
         style="fill:#000000;fill-opacity:1;fill-rule:nonzero;stroke:none"
         id="path324" /><path
         d="m 407.4612,635.3403 c 0.1553,0.2934 0.519,0.4053 0.8125,0.25 0.2798,-0.1481 0.3968,-0.4879 0.2674,-0.7768 l -0.0707,-0.1635 0.0141,0.0638 0.008,0.0966 -0.008,0.1009 c 0.008,-0.0467 -0.1206,0.2912 -0.0697,0.1997 0.1664,-0.2989 0.059,-0.6761 -0.2399,-0.8425 -0.299,-0.1664 -0.6762,-0.0589 -0.8426,0.24 -0.1501,0.2696 -0.0788,0.6086 0.1672,0.795 0.0788,0.0597 -0.1189,-0.1183 -0.1046,-0.1008 0.0699,0.0858 -0.0359,-0.0502 -0.0195,-0.0209 z m 0.4596,-1.151 c -0.3425,-0.0256 -0.6408,0.2312 -0.6664,0.5737 -0.002,0.0235 -0.002,0.0471 -10e-4,0.0707 0.0183,0.4642 0.0677,0.2654 0.0895,0.3103 l 0.0829,0.1625 0.4693,0.6928 1.3386,1.6245 0.5615,0.6476 c 0.0785,0.0773 0.1128,0.2704 0.5243,0.4284 0.1989,0.096 0.4881,0.0167 0.6194,-0.0712 0.3686,-0.2468 0.329,-0.4145 0.3898,-0.5828 l 0.1482,-0.5132 0.2148,-1.0031 0.143,-0.3193 c 0.0368,-0.0576 0.0646,-0.1204 0.0825,-0.1863 0.0406,-0.149 0.1203,-0.303 0.3449,-0.4731 0.1863,-0.1411 0.2229,-0.4065 0.0818,-0.5928 -0.0994,-0.1313 -0.2661,-0.193 -0.4271,-0.158 -0.4268,0.0927 -0.8003,0.2734 -1.1006,0.5383 -0.0512,0.0452 -0.0953,0.0979 -0.1308,0.1563 l -0.2772,0.6428 -0.2234,1.1208 -0.1028,0.4146 -0.0198,0.0564 c -0.01,0.0164 0.1741,-0.1815 0.1002,-0.1174 -0.0415,0.036 0.2965,-0.1456 0.2001,-0.1135 -0.1016,0.0339 0.4825,0.0269 0.3608,-0.008 -0.0208,-0.01 0.1673,0.084 0.1549,0.0741 l -0.1927,-0.2018 -0.5001,-0.5701 -1.2215,-1.5467 -0.4276,-0.581 -0.1098,-0.1622 -0.0571,-0.0753 -0.0617,-0.0661 c -0.0364,-0.0343 -0.006,-0.1437 -0.3866,-0.1721"
         style="fill:#000000;fill-opacity:1;fill-rule:nonzero;stroke:none"
         id="path326" /></g></g></svg>
