$MeshFormat
4.1 0 8
$EndMeshFormat
$PhysicalNames
1
2 21 "body"
$EndPhysicalNames
$Entities
13 20 11 0
1 8.817456953860948e-16 13 -6.50000000000001 0 
2 0 13 6.50000000000001 0 
3 0 17.55465326023649 -4.23448597482817e-16 0 
4 0 -5.204170427930418e-15 7.899999999999998 0 
5 9.674709713264088e-16 -5.204170427930424e-15 -7.899999999999998 0 
6 -4.086361094872084 4.48202338971073 -6.957197257356133 0 
7 -5.439570484911832 6.189969667321396 5.805966238630489 0 
8 4.086361094872084 4.48202338971073 6.957197257356133 0 
9 5.439570484911832 6.189969667321396 -5.805966238630489 0 
10 119.4 5.110706326895245 2.232645621317203 0 
11 119.4 5.336549972364087 -1.562664553751264 0 
12 -119.4 5.336549972364087 1.562664553751264 0 
13 -119.4 5.110706326895245 -2.232645621317203 0 
1 -6.50000010000001 12.9999999 -6.50000010000001 1.000000007245205e-07 13.0000001 6.50000010000001 0 2 1 -2 
2 -1.000000007960204e-07 12.9999999 -9.99999993922529e-08 1e-07 17.55465336023649 6.500000100000009 0 2 2 -3 
3 -1e-07 12.9999999 -6.500000100000009 1e-07 17.55465336023649 9.99999993922529e-08 0 2 1 -3 
4 -1e-07 -1.000000056095018e-07 6.499999900000003 1e-07 13.00000009999999 8.089318264777413 0 2 4 -2 
5 -7.900000099999998 -1.000000052041704e-07 -7.900000099999998 1.000000011686097e-07 9.999999479582957e-08 7.900000099999998 0 2 5 -4 
6 -9.999999920397958e-08 -1.000000056095018e-07 -8.089318264777413 1.000000009906558e-07 13.00000009999999 -6.499999900000003 0 2 5 -1 
7 -8.089914028149128 3.507030219059404 -6.957539029968492 -4.086019322259723 6.190311439933756 5.80630801124285 0 2 6 -7 
8 -7.681641518829489 4.48160608520286 -6.957614561864004 -4.085943790364214 8.679608215028837 6.046631265405269 0 2 7 -6 
9 4.085855359549028 4.481517654387675 -6.047251382481914 7.683792349139633 8.678808977811096 6.957702992679188 0 2 8 -9 
10 4.086077448108096 3.507023944536606 -5.806249885394477 8.094126338354261 6.190253314085384 6.95748090412012 0 2 9 -8 
11 -9.999999983634211e-08 12.9999999 -6.50000010000001 6.50000010000001 13.0000001 6.50000010000001 0 2 2 -1 
12 -9.999999983634211e-08 -1.000000052041704e-07 -7.900000099999998 7.900000099999998 9.999999479582957e-08 7.900000099999998 0 2 4 -5 
13 4.086360994872081 -2.532247288672805 2.232645521317203 119.4000001 5.110706426895245 18.5018882625544 0 2 8 -10 
14 119.3999998999995 5.110706226895244 -2.507557708781697 119.4000001000003 6.169601984405674 2.232645721317203 0 2 11 -10 
15 5.439570384911832 5.336549872364087 -9.475464963129053 119.4000001 8.071891214120512 -1.562664453751264 0 2 9 -11 
16 -119.4000001 5.336549872364087 1.562664453751264 -5.439570384911832 8.071891214120512 9.475464963129053 0 2 7 -12 
17 -119.4000001 -2.532247288672805 -18.5018882625544 -4.086360994872081 5.110706426895245 -2.232645521317203 0 2 6 -13 
18 -119.4000001000003 5.110706226895244 -2.232645721317203 -119.3999998999995 6.169601984405674 2.507557708781697 0 2 12 -13 
19 119.3999998999999 5.081274542848683 -1.562664653751265 119.4000001000001 5.336550072364087 2.232645721317203 0 2 10 -11 
20 -119.4000001000001 5.081274542848683 -2.232645721317203 -119.3999998999999 5.336550072364087 1.562664653751265 0 2 13 -12 
1 -6.522649724822043 11.4235203194575 -6.500000100000008 1.000000007245205e-07 17.55465336023649 6.50000010000001 1 21 3 1 2 -3 
2 -7.900000099999999 -1.000000073858587e-07 -8.089318264777413 9.999999983634211e-08 13.0000001 8.089318264777413 1 21 6 1 -4 -5 6 7 8 
3 -1.000000011686097e-07 -1.000000073858587e-07 -8.089318264777413 7.900000099999999 13.0000001 8.089318264777413 1 21 6 -9 -10 4 11 -6 -12 
4 2.99999989999997 -2.534619629319348 -9.683343580740793 119.4000001000003 9.723573612593235 18.50271574581712 1 21 4 -9 13 -14 -15 
5 -1.000000007245205e-07 11.4235203194575 -6.500000100000008 6.522649724822044 17.55465336023649 6.50000010000001 1 21 3 -2 11 3 
6 -7.900000099999998 -1.000000052041704e-07 -7.900000099999998 7.900000099999998 9.999999479582957e-08 7.900000099999998 1 21 2 -12 -5 
7 -119.4000001000003 -2.534619629319348 -18.50271574581712 -2.99999989999997 9.723573612593235 9.683343580740793 1 21 4 -16 8 17 -18 
8 2.999999899999978 -2.534619629319348 -9.475464963129053 119.4000001000001 8.071891214120512 18.50271574581712 1 21 4 -10 15 -19 -13 
9 -119.4000001000001 -2.534619629319348 -18.50271574581712 -2.999999899999978 8.071891214120512 9.475464963129053 1 21 4 -17 7 16 -20 
10 119.3999998999995 5.081274542848683 -2.507557708781697 119.4000001000003 6.169601984405674 2.232645721317203 1 21 2 -19 -14 
11 -119.4000001000003 5.081274542848683 -2.232645721317203 -119.3999998999995 6.169601984405674 2.507557708781697 1 21 2 -20 -18 
$EndEntities
$Nodes
44 570 1 570
0 1 0 1
1
8.817456953860948e-16 13 -6.50000000000001
0 2 0 1
2
0 13 6.50000000000001
0 3 0 1
3
0 17.55465326023649 -4.23448597482817e-16
0 4 0 1
4
0 -5.204170427930418e-15 7.899999999999998
0 5 0 1
5
9.674709713264088e-16 -5.204170427930424e-15 -7.899999999999998
0 6 0 1
6
-4.086361094872084 4.48202338971073 -6.957197257356133
0 7 0 1
7
-5.439570484911832 6.189969667321396 5.805966238630489
0 8 0 1
8
4.086361094872084 4.48202338971073 6.957197257356133
0 9 0 1
9
5.439570484911832 6.189969667321396 -5.805966238630489
0 10 0 1
10
119.4 5.110706326895245 2.232645621317203
0 11 0 1
11
119.4 5.336549972364087 -1.562664553751264
0 12 0 1
12
-119.4 5.336549972364087 1.562664553751264
0 13 0 1
13
-119.4 5.110706326895245 -2.232645621317203
1 1 0 4
14
15
16
17
-3.820604139901087 13 -5.258610463437162
-6.181867355918512 13 -2.008610463437146
-6.181867355918502 13 2.008610463437177
-3.820604139901083 13 5.258610463437166
1 2 0 1
18
-4.859968287508938e-16 16.3026569840776 3.968465267612373
1 3 0 1
19
0 16.3026569840776 -3.968465267612373
1 4 0 2
20
21
0 4.386349934085811 8.071927314927926
0 8.750832131923728 7.601906155160766
1 5 0 5
22
23
24
25
26
-3.950000000000006 -5.204170427930427e-15 -6.841600689897059
-6.841600689897072 -5.204170427930424e-15 -3.949999999999984
-7.899999999999998 -5.204170427930421e-15 1.959862208990336e-14
-6.841600689897059 -5.204170427930418e-15 3.950000000000006
-3.949999999999996 -5.204170427930416e-15 6.841600689897064
1 6 0 2
27
28
9.885259949176578e-16 4.386349934085811 -8.071927314927926
9.309650040336193e-16 8.750832131923728 -7.601906155160766
1 7 0 3
29
30
31
-6.78557692667744 3.53822405279252 -4.402831101560712
-8.048073941660391 3.829211844654021 -0.7794088590633
-7.504822824684849 4.613466477513534 2.948714082342321
1 8 0 3
32
33
34
-6.714029041760457 8.539277218532401 3.645175153848466
-7.665965420164108 8.290536282962584 -0.4992929444617922
-6.561428726730261 6.838459335695639 -4.377353787953155
1 9 0 3
35
36
37
6.561427328542921 6.838458030074766 4.377356072155712
7.665966351996683 8.290533317357603 0.4993081913431788
6.71403903568365 8.539277176469442 -3.645158170856914
1 10 0 3
38
39
40
7.504840173104677 4.613450035093907 -2.948671518511597
8.048071901672854 3.829208842237747 0.7794307093889447
6.785567232174457 3.538225348539003 4.402846248235543
1 11 0 4
41
42
43
44
3.820604139901085 13 5.258610463437163
6.181867355918511 13 2.008610463437152
6.181867355918504 13 -2.008610463437173
3.820604139901079 13 -5.258610463437168
1 12 0 5
45
46
47
48
49
3.950000000000005 -5.204170427930416e-15 6.841600689897059
6.841600689897071 -5.204170427930418e-15 3.949999999999986
7.899999999999998 -5.204170427930421e-15 -1.881194068232199e-14
6.841600689897054 -5.204170427930424e-15 -3.950000000000016
3.949999999999986 -5.204170427930427e-15 -6.841600689897071
1 13 0 24
50
51
52
53
54
55
56
57
58
59
60
61
62
63
64
65
66
67
68
69
70
71
72
73
8.769214614963815 4.163465099324641 8.079119316006917
13.14514043388362 3.388629084367507 9.97318050363663
17.25512925415465 2.232228904775373 12.24118526239382
21.26679514607252 0.7821500020162954 14.5182500701656
25.37534504751737 -0.7775405350868776 16.53308432943875
29.78739948230009 -2.065953209834553 18.0103894499699
34.55263783200548 -2.517179128719909 18.48371833998326
39.30056204742816 -1.942172097286634 17.8439051024734
43.88273337802924 -0.917660166180591 16.68944531378438
48.45594203358951 0.09344488319365982 15.48659714887298
53.10663509237386 0.8969364468590755 14.43402768673333
57.81639633229172 1.514392223129057 13.52786999774911
62.56447377167373 1.989232934473696 12.74265264028264
67.33054527707378 2.372286669418326 12.01759534851536
72.09759184629283 2.713434849986724 11.27805036748195
76.85475004730236 3.048099709314727 10.47461935675366
81.61013672134146 3.360972102750435 9.652072195990851
86.37642126031434 3.624979810889476 8.877304888302683
91.15742699173487 3.828192613375407 8.17841999753918
95.94528056520957 3.98518701613613 7.515105903685233
100.732223903497 4.11400118238351 6.839290208034358
105.5080237538317 4.247155466752927 6.090145588071627
110.2572311018117 4.428777260647075 5.197290586604244
114.9445850737191 4.702858871905896 4.045919445674708
1 14 0 1
74
119.4 6.008281997216597 -0.7136780184992444
1 15 0 23
75
76
77
78
79
80
81
82
83
84
85
86
87
88
89
90
91
92
93
94
95
96
97
10.21451924001506 6.685125367094707 -6.314404214923228
14.9776287665196 7.045349949459452 -7.015779035239344
19.72898321492485 7.360024509801004 -7.813734920174485
24.48089728378554 7.690632431047229 -8.601592598580734
29.26121158476798 7.9653905023057 -9.215836379466312
34.07940639845409 8.069820088244823 -9.468249713472606
38.90146622851552 7.957947973978952 -9.286260842105202
43.70442204047348 7.732749208075876 -8.850306179560485
48.50247355509341 7.508902403665209 -8.360764293904724
53.30700529388355 7.333487209876004 -7.917273391096078
58.11725893581803 7.190678543116545 -7.527251423718198
62.9320619832327 7.063030937358416 -7.191824300562208
67.74963904820294 6.941560933907891 -6.896053509012615
72.56831700276095 6.820942694336621 -6.618305041706963
77.38718452870764 6.696882473821328 -6.345408444519956
82.20677255640969 6.567979742164171 -6.087994663301062
87.02767210285185 6.433395697300296 -5.859799876242473
91.84895948625316 6.292769555111435 -5.643603585741778
96.66788628810521 6.146193262146289 -5.384054735503351
101.4813748168505 5.994033151995203 -5.040303990472551
106.2982890979311 5.839839547204187 -4.753532418221255
111.1228456080971 5.689196496570945 -4.752051425598093
115.9307185021941 5.53174062523467 -4.612451243144525
1 16 0 23
98
99
100
101
102
103
104
105
106
107
108
109
110
111
112
113
114
115
116
117
118
119
120
-10.21451924001506 6.685125367094707 6.314404214923228
-14.9776287665196 7.045349949459452 7.015779035239344
-19.72898321492485 7.360024509801004 7.813734920174485
-24.48089728378554 7.690632431047229 8.601592598580734
-29.26121158476798 7.9653905023057 9.215836379466312
-34.07940639845409 8.069820088244823 9.468249713472606
-38.90146622851552 7.957947973978952 9.286260842105202
-43.70442204047348 7.732749208075876 8.850306179560485
-48.50247355509341 7.508902403665209 8.360764293904724
-53.30700529388355 7.333487209876004 7.917273391096078
-58.11725893581803 7.190678543116545 7.527251423718198
-62.9320619832327 7.063030937358416 7.191824300562208
-67.74963904820294 6.941560933907891 6.896053509012615
-72.56831700276095 6.820942694336621 6.618305041706963
-77.38718452870764 6.696882473821328 6.345408444519956
-82.20677255640969 6.567979742164171 6.087994663301062
-87.02767210285185 6.433395697300296 5.859799876242473
-91.84895948625316 6.292769555111435 5.643603585741778
-96.66788628810521 6.146193262146289 5.384054735503351
-101.4813748168505 5.994033151995203 5.040303990472551
-106.2982890979311 5.839839547204187 4.753532418221255
-111.1228456080971 5.689196496570945 4.752051425598093
-115.9307185021941 5.53174062523467 4.612451243144525
1 17 0 24
121
122
123
124
125
126
127
128
129
130
131
132
133
134
135
136
137
138
139
140
141
142
143
144
-8.769214614963815 4.163465099324641 -8.079119316006917
-13.14514043388362 3.388629084367507 -9.97318050363663
-17.25512925415465 2.232228904775373 -12.24118526239382
-21.26679514607252 0.7821500020162954 -14.5182500701656
-25.37534504751737 -0.7775405350868776 -16.53308432943875
-29.78739948230009 -2.065953209834553 -18.0103894499699
-34.55263783200548 -2.517179128719909 -18.48371833998326
-39.30056204742816 -1.942172097286634 -17.8439051024734
-43.88273337802924 -0.917660166180591 -16.68944531378438
-48.45594203358951 0.09344488319365982 -15.48659714887298
-53.10663509237386 0.8969364468590755 -14.43402768673333
-57.81639633229172 1.514392223129057 -13.52786999774911
-62.56447377167373 1.989232934473696 -12.74265264028264
-67.33054527707378 2.372286669418326 -12.01759534851536
-72.09759184629283 2.713434849986724 -11.27805036748195
-76.85475004730236 3.048099709314727 -10.47461935675366
-81.61013672134146 3.360972102750435 -9.652072195990851
-86.37642126031434 3.624979810889476 -8.877304888302683
-91.15742699173487 3.828192613375407 -8.17841999753918
-95.94528056520957 3.98518701613613 -7.515105903685233
-100.732223903497 4.11400118238351 -6.839290208034358
-105.5080237538317 4.247155466752927 -6.090145588071627
-110.2572311018117 4.428777260647075 -5.197290586604244
-114.9445850737191 4.702858871905896 -4.045919445674708
1 18 0 1
145
-119.4 6.008281997216597 0.7136780184992444
1 19 0 1
146
119.4 5.176660565257299 0.3340906061619392
1 20 0 1
147
-119.4 5.176660565257299 -0.3340906061619392
2 1 0 3
148
149
150
-3.744426729801409 16.45321186174016 5.536734986946627e-12
-3.384027131004857 15.94110486681319 2.874302950422426
-3.384027130956848 15.94110486685474 -2.874302950402304
2 2 0 12
151
152
153
154
155
156
157
158
159
160
161
162
-3.568017829773831 10.45642335045163 -6.298754649514653
-4.448602286758507 9.573619869160021 5.963316562689417
-5.855595276977381 3.080706192958798 5.579182707995704
-3.283424559181572 3.613827121598446 7.391853474905561
-3.125008445082439 7.336904844482877 -7.174149953790431
-6.125891516499527 10.27030668341077 -3.940425183628796
-2.855289023700422 7.249390437469474 7.2981133983155
-5.909299103815634 10.85543000130863 4.005975384627852
-2.164348277581088 2.283670212372836 -7.774165726767573
-7.063952240950098 10.5644064229984 1.457028999162206
-2.240610551058611 10.82751859301709 6.786009574885766
-7.77784838125844 1.873546535284053 2.084068192609927
2 3 0 12
163
164
165
166
167
168
169
170
171
172
173
174
3.568017848420333 10.45642327405922 6.298754660311011
4.448607793032351 9.573631937597238 -5.963309270056058
5.855596261333455 3.080704463674879 -5.579181651113061
3.283421388041902 3.613828962371717 -7.391854866802532
3.125008464818264 7.336904776119001 7.174149955153893
6.125891547527138 10.27030512679776 3.940425815968599
2.855283897947425 7.249398306293397 -7.298114300354422
5.913620970986691 10.85649202421792 -3.99910383673033
2.16434827758109 2.283670212372849 7.774165726767577
7.06820926231532 10.6156609579306 -1.37093778394612
2.240609815386688 10.82752221630046 -6.786008837835799
7.777847717159839 1.873532723177131 -2.084068014665248
2 4 0 98
175
176
177
178
179
180
181
182
183
184
185
186
187
188
189
190
191
192
193
194
195
196
197
198
199
200
201
202
203
204
205
206
207
208
209
210
211
212
213
214
215
216
217
218
219
220
221
222
223
224
225
226
227
228
229
230
231
232
233
234
235
236
237
238
239
240
241
242
243
244
245
246
247
248
249
250
251
252
253
254
255
256
257
258
259
260
261
262
263
264
265
266
267
268
269
270
271
272
63.0603001365055 3.993273531326441 10.10031691426428
60.95725434385282 5.602355324724426 6.529686694605829
65.82483337069435 5.434665803890666 6.80953880392176
63.93499290463122 7.221873066419747 2.007223938333041
25.00615264136258 7.476184652666037 2.350211792715111
20.54427297522754 7.723355808469828 1.511066215643721
22.60358216111594 8.695936356347723 -1.482398604728467
27.2094954031235 8.937493185764605 -1.95812349290755
22.83206579874965 6.175075215801879 5.478687392504886
30.32409252677598 3.132613792310003 11.41128904683148
35.00589071627376 2.902232082606324 11.72838892510189
31.82656983741236 1.216251498626984 14.51383724622107
47.78539508520724 8.240272255013561 -0.3457137416520101
47.89910384528166 6.492358740950241 4.539097255061458
45.21838598203097 7.638246647272675 1.692291403435262
80.25657189475986 6.955047571846839 1.525478709909519
77.40460721667283 7.843013808498689 -1.901668082297153
80.26536866350818 7.884192086397373 -3.010057763526039
38.21723929337395 7.394627910735908 2.643022505827698
40.67835012029751 5.934470738706676 5.853472800253241
36.3172593080762 5.342501229404325 7.084085700441533
40.32298748976174 3.954827221534143 9.926757278604439
27.12544388828984 5.163701551635741 7.574813022542399
22.29345185815308 4.069521138352203 10.23784450273695
29.55530939630512 7.262372530532587 3.005512176699443
31.67166221314906 5.056998036580583 7.669519819431161
43.80258713655002 8.715978736821164 -1.712938805051974
41.83535894548612 7.621560436709609 1.915710672873616
40.30933273440316 8.773767481419499 -1.543481852931811
31.58796334789101 8.592552639143836 -0.5568198319368095
34.0353490420531 7.211542922825309 3.156245121445721
52.50057974627267 5.757725317625619 6.293207324666018
56.56863412137189 5.535520321921752 6.790942823005554
53.31244277790697 3.756506448341638 10.72063995653435
54.86316702386239 6.790854232510322 3.682086085241115
14.95867224378775 8.835961157218339 -3.252181062837374
18.8814708374679 8.98026146862208 -3.371359800857847
59.06938004593966 8.564744390138125 -3.799907066852632
61.79185067494443 8.247407151732993 -1.894633141884864
58.40760885418982 7.453269478996345 1.620030007278192
28.71060839476817 1.155231301079167 14.6523131932427
35.25548549017081 0.07826337726868639 16.01274731141322
12.26258974393254 8.316432073939501 -0.5743538677660375
15.89464818624262 7.920469007480817 0.7849876761453393
11.38884109218765 7.499843297874559 2.454580938122032
15.55359415220019 5.348085956579243 7.725888496370181
14.31152009837623 6.865765575364664 4.036771816873407
17.95384423750065 6.417559394966663 5.102184159533556
11.64946847776655 5.857543455431488 6.413228245692883
84.1360935943565 5.442361407577277 5.871922130190927
80.32610112171649 5.176204666270491 6.779390380411081
23.63422551154616 9.325804382746602 -5.008658727758608
67.26146401736921 7.931489864263389 -0.9367034232774764
69.53349682292074 6.81086010260643 2.894567708303108
19.14381957940006 4.96221224165317 8.605291264567068
58.92911443311365 3.953630943085016 10.31026020596167
88.5973326272521 5.549626621887848 5.227306518684278
86.37315253078475 6.878644895385441 1.177260891095291
11.15767346413366 8.742278595728042 -3.587439399974065
91.08136128899395 6.929636587965224 0.4315377269102779
36.34045726679658 8.72491287405199 -1.07238836907354
49.22287799021482 4.642522974015565 8.866322182561886
51.41935484051987 7.477796047612374 1.873833404877934
88.31571280317934 7.551103058038761 -2.300166918382666
116.4917535859311 5.881469064218787 0.6044581789946887
113.0246923313509 6.12975532573075 0.2057875369272991
27.33429127396808 9.544589800769272 -6.176191244340995
35.09680411692114 9.620896222581791 -5.322299291838689
38.56038476052814 9.474284466311321 -4.863335214002444
25.83088251056974 2.778219595877963 12.30782619668431
51.05648701887931 8.836193657756688 -3.74341566617171
54.2846336734377 7.90445483674347 0.3506883325923362
46.18005301307215 9.138872519346037 -4.900060436610819
72.9207924788591 5.268182027141903 6.936267768909159
74.22606230856539 6.993167391946979 1.934395464843621
83.94840002810082 7.725766292742513 -2.539528297401377
44.52385484763414 6.465288242696202 4.641848750003905
44.65699327520809 4.699467792711101 8.588362004231115
93.09050412605909 5.632119708706204 4.558672070711859
55.61973839227746 8.641896416764597 -3.430140064221254
69.47328480303463 4.799309845285546 8.185767667415513
95.15830791459922 6.818186662927366 0.3029607349263703
93.40262501284977 7.398612361148821 -2.652248518934384
107.1372403212042 5.56915058974122 3.150099852716949
109.2587885882922 6.301779444341088 0.09345911081746576
76.45986378905761 5.766681140784391 5.488341847755681
70.96984703700814 7.960769015816759 -1.566219995465451
31.06844877181387 9.647637575822728 -5.56114556784764
104.4800051956846 6.445889939249634 0.3388139148187163
44.16769640146612 2.231473320783854 13.09070309832842
99.49795406572157 6.699373479406246 0.1110805835765768
101.7231181295617 5.644327069626385 3.567255447532748
97.23632429299758 5.669050507681284 4.002519216427363
74.51524450932615 8.033389904067898 -2.774748128489992
39.92380914397402 1.402990549784553 14.25287195854926
64.89704047393568 8.296193752075474 -2.801035931954061
48.71061758236684 3.012507342453458 11.94513856974857
42.1950557033736 9.351655145649675 -5.159811101360447
2 5 0 3
273
274
275
3.744426729802993 16.45321186173914 6.517869991427538e-12
3.384027131006966 15.94110486681382 2.874302950418773
3.384027130959971 15.94110486685645 -2.87430295039547
2 6 0 11
276
277
278
279
280
281
282
283
284
285
286
-3.115266781649512 9.757819552369599e-16 2.55877796941585
2.9616097638688 9.757819552369546e-16 -3.503621968704822
3.070533563299023 9.757819552369605e-16 3.314960413938232
-3.20603661450803 9.75781955236955e-16 -3.123374016120022
5.10702591327572e-15 9.757819552369615e-16 4.56106712659804
0.3138334291523697 9.757819552369589e-16 1.430633234589017
3.989882590873474 9.757819552369575e-16 -0.08700491751366179
3.552713678800501e-15 9.75781955236956e-16 -1.851006102418008
-0.04073780843987403 9.757819552369534e-16 -5.010200577839497
-2.254827326734368 9.757819552369573e-16 -0.4414206335458504
-5.026555350447672 9.757819552369575e-16 -0.1676694467083308
2 7 0 99
287
288
289
290
291
292
293
294
295
296
297
298
299
300
301
302
303
304
305
306
307
308
309
310
311
312
313
314
315
316
317
318
319
320
321
322
323
324
325
326
327
328
329
330
331
332
333
334
335
336
337
338
339
340
341
342
343
344
345
346
347
348
349
350
351
352
353
354
355
356
357
358
359
360
361
362
363
364
365
366
367
368
369
370
371
372
373
374
375
376
377
378
379
380
381
382
383
384
385
-31.43866763968179 0.5976735014131852 -15.37302638995387
-36.05963638955583 0.8731701398311902 -14.97762745423967
-47.80166469247372 8.240997670933336 0.3496286975016926
-47.90412759942976 6.492018256117484 -4.539863251503728
-45.29721437136503 7.638373749750659 -1.687810946345327
-27.15563995417898 1.222433083079564 -14.56058195461204
-29.48111145919957 3.26817877360724 -11.21042553477536
-33.12515334824838 2.621435432196795 -12.22780034099026
-30.59793950802965 7.41781679259358 -2.655536903026249
-25.77973180591126 7.347470962550364 -2.6988754407636
-27.9581881514751 8.909291780825317 1.794735274953404
-27.8534624358807 5.327987451372654 -7.200574717564002
-41.44410251986948 9.422017414386275 5.717321064771806
-43.54305389585585 8.79417430755899 2.004676270159327
-39.41709094830317 8.778038967964021 1.475340894815522
-80.2565718947599 6.955047571846785 -1.5254787099097
-77.40460721667284 7.843013808498672 1.901668082297039
-80.26536866350818 7.884192086397356 3.010057763525775
-41.88393404170554 7.55669868048031 -2.083825922265983
-63.84278129868525 4.203148875549003 -9.684166172493264
-61.68453603996927 5.614654649019528 -6.480582948324518
-65.82483334953351 5.434665804618676 -6.809538802766514
-63.93510802393027 7.221862923873831 -2.007248261580352
-34.71403970293812 6.951042398778115 -3.741276598859733
-32.31563521769411 4.839159574526796 -8.091139213828072
-52.76137508862852 5.510613925108553 -6.891832779544326
-57.24081856675896 5.531152082015334 -6.788750050220299
-53.80202701007187 3.708011918637216 -10.80934844462952
-54.87106631318548 6.786299246997269 -3.69394769088395
-58.40808026946317 7.453231078595191 -1.620126600913861
-36.68544076513901 3.272014383952347 -11.08958239040375
-40.10965623818605 1.83985629336038 -13.6093366961145
-40.70613469532026 3.992591254571701 -9.869174800718227
-45.10297982538227 2.555296749542778 -12.60932604660205
-59.06968345173631 8.56473944051498 3.79996665347589
-61.79198382472023 8.247408984519003 1.894663857452679
-20.18063498972592 8.940463327762156 2.852838341423645
-15.8714632060662 8.924395401633546 4.160729011113721
-84.13609359435648 5.442361407577242 -5.871922130191013
-80.32610112171649 5.176204666270461 -6.779390380411156
-67.26146401736924 7.931489864263352 0.9367034232773113
-69.53352256399045 6.810857954243065 -2.894572488749276
-16.54053017421065 5.215201876671797 -8.045791624086421
-16.18649500847588 6.934252538069413 -3.753848155275836
-20.14753391172636 6.032080473360374 -5.993487042219559
-35.38452170506039 8.618865952094456 0.6770409208279931
-31.45274690273754 9.024188872647473 2.070862114623676
-11.66724414453189 6.068297926641197 -5.990229769619749
-11.95197428815039 7.649754821667462 -1.929697330114911
-9.359498204238275 7.087985889844015 -3.74129655548629
-88.59733262725211 5.549626621887818 -5.227306518684363
-86.37315253078475 6.878644895385392 -1.177260891095458
-59.20753793617925 3.988218577768376 -10.24076404617839
-91.081361288994 6.929636587965198 -0.4315377269103691
-88.31571280317932 7.551103058038745 2.300166918382526
-116.491753585932 5.881469064218955 -0.604458178993726
-113.024692331351 6.129755325730757 -0.2057875369272461
-21.05619567100347 7.488334544677337 -2.185754460193899
-23.54224842445011 5.690493221468717 -6.594430112640062
-38.26390203596583 7.287678313903206 -2.899375794493648
-40.75899095258872 5.838193475996455 -6.057138131788812
-24.63385620219827 3.427542124742636 -11.26764064563352
-51.06261658921733 8.836165230838542 3.745216260441012
-54.28792582848763 7.904439492335635 -0.3505183287468294
-51.47415016503863 7.431944691777558 -2.006102963532161
-34.4760029762756 9.644273700230388 5.453049031006858
-37.70252958139697 9.461624129381093 4.560355607291332
-16.04353760770431 8.257261808732313 0.4077163193432824
-48.83080456655038 4.400704742593898 -9.374730316651288
-11.39358808554768 8.65653018172592 2.346765301533893
-49.38398592535676 2.550415198777093 -12.65292149472746
-44.65421879911758 4.91581193288532 -8.114608818849883
-83.94840002810081 7.725766292742502 2.539528297401249
-72.92079218455747 5.268180997539285 -6.936270256773827
-74.22606230856542 6.993167391946923 -1.934395464843803
-69.47328480134253 4.799309845338517 -8.185767667376883
-93.09050412605905 5.632119708706175 -4.558672070711948
-55.62276045043317 8.641867254715232 3.430781625682402
-46.19151466407405 9.14171167044004 4.957644631085381
-44.72355421958024 6.436645902106092 -4.70471793187926
-23.99996363370917 8.869261079155011 1.999789326181106
-26.52863371885053 9.502192941993838 5.828937665962709
-13.25162504923469 8.562130365402478 5.427933258251603
-20.7567458477363 4.129986905175919 -10.17841513789114
-76.45986414544355 5.766681088327714 -5.488341968764022
-95.15830791459919 6.818186662927345 -0.302960734926458
-93.4026250128498 7.398612361148823 2.65224851893441
-107.1372403212042 5.569150589741207 -3.150099852716994
-109.2428143855454 6.301797906300013 -0.09639215943518584
-70.96984703700812 7.96076901581673 1.566219995465299
-104.4100186608758 6.442598499370471 -0.3655583362414254
-99.49795406572157 6.699373479406226 -0.1110805835766642
-101.7231181295616 5.644327069626357 -3.567255447532835
-97.23632429299765 5.669050507681257 -4.002519216427446
-74.51524450932618 8.033389904067871 2.774748128489739
-30.36014565340209 9.655933055144523 5.872892417843691
-64.89704047393566 8.296193752075448 2.801035931953828
-37.18912586855106 5.351894612014425 -7.066051366028986
-22.7719363984805 9.270101232817304 5.740297275227944
2 8 0 94
386
387
388
389
390
391
392
393
394
395
396
397
398
399
400
401
402
403
404
405
406
407
408
409
410
411
412
413
414
415
416
417
418
419
420
421
422
423
424
425
426
427
428
429
430
431
432
433
434
435
436
437
438
439
440
441
442
443
444
445
446
447
448
449
450
451
452
453
454
455
456
457
458
459
460
461
462
463
464
465
466
467
468
469
470
471
472
473
474
475
476
477
478
479
32.89678607554958 -0.2412414149808271 14.65414143502136
40.88285067223745 6.930905514375443 -4.998542944405467
27.0942623111519 6.755713992894403 -5.033340167331956
50.49950184857163 6.671220638009522 -4.045541570259633
45.15067448515069 1.420788854420049 12.51494270133658
18.76914087603357 5.942463325568763 -3.423324941016177
59.4041690625718 3.337218593654428 9.339577923237465
21.53312021615485 2.49179680216049 10.00371341562431
69.01037345953944 4.00994749306053 7.788621016561009
59.89271617768519 6.470591499018399 -3.212268464681862
78.46691503017534 4.47855874905231 6.322735812004006
84.43699498823646 6.075954529626013 -1.810952781452054
69.90686649903895 6.338760872307851 -2.618866782318041
117.0416778316336 5.303123983057191 -0.5942428273324324
93.34756686873391 4.998141596388296 3.901063616366819
11.02309000861022 3.531423770486676 4.359084907524086
15.53469286259128 3.549910563844568 5.652773692470534
11.43222323808857 5.05605244565573 -2.989412858183479
99.35760725226075 5.73163416931594 -1.234851580518104
89.13468783872521 5.976754407708023 -1.644633303225311
86.44023541914767 5.454542636053912 2.338930307535996
106.8130884978735 5.156507084971832 1.915561678559044
49.49267806728499 2.246696473133974 11.26826214166427
45.81386996272279 3.42993766109731 8.276333711407981
50.33805782773976 4.085495529550639 6.899799458569527
41.47254889045048 2.699783125931522 9.585510956464843
46.93102695931599 4.886898213343564 4.027053649207057
51.33308869775976 5.389218820681736 2.480206230151926
54.83277752832664 4.624774218103051 5.557607924921377
56.50801302252552 5.822888223536161 0.8204745360856263
59.58243662640758 5.117511711031296 4.075887685387315
54.34780502362521 2.886959433594281 10.19146910309112
63.8541654578482 4.331660449050823 6.842116287558549
64.05704567234432 5.596161214562816 2.184286469298661
81.79279049269549 5.531631644976902 2.206115799449136
14.932767678695 4.379141986701265 1.778195220228365
18.05601157847317 4.559092134002213 2.308924434933679
55.36554417994849 6.562768056065925 -3.633145813569262
45.65193486493127 6.801114988378357 -4.524108118329699
42.83083997064336 6.04637614254022 -0.8594412910873773
38.09265650150032 6.062767330214752 -1.161623043306287
39.81928645039751 5.077948060469039 2.756594459975979
35.29045383008714 5.01773424585803 2.629259833791215
33.35385463280053 6.017822548190323 -1.252501786476943
30.50285123848524 5.02394844651694 2.358973030355521
32.48391853855828 3.779293629013884 6.458501923620471
27.95078012085528 3.900083020156538 6.072586927846225
25.71121245212685 5.113595726184744 1.728735551100676
29.67522804349483 2.260642219750688 10.15304377081213
22.92486568456145 4.023265357046232 5.508027927446863
33.8023013729582 1.897335194829676 10.81104887419254
37.23522467756913 0.1754258054822638 14.04579654442227
64.70453628062461 6.35969644163159 -2.543981806827446
79.61798635021763 6.176684567874079 -2.079810518111688
74.81162501633203 6.258926998417023 -2.296429527965297
73.05573323509371 5.716073906753338 1.546807498606591
22.81228781991587 6.429873797378141 -4.401025882961809
37.67781021358249 3.681006953303689 6.959333358290962
73.77976844700316 4.365235327857907 6.765322640033743
36.2645707177015 7.000292092610415 -5.316685115661313
21.98057031854903 5.363651277305746 0.1205879377628235
94.0286804436759 5.857580620316495 -1.396409804001364
113.5090750439188 5.429673217257244 -1.275969494203713
102.4157712792335 5.106854396091267 2.651840414473675
77.12096524510068 5.640460634137432 1.834086279049118
25.44713072605303 1.281716532744615 12.42010967130439
29.21466633266384 0.1399647293545614 14.19110700312596
97.78287958543966 5.030716098382936 3.426843517395537
47.5536439324544 5.996651703768039 -0.4229616485065611
31.54017517268043 6.927437435285218 -5.24567081444617
104.2996633858448 5.618484289267408 -1.174078978468321
83.60122291555567 4.502219015016546 6.066732419160159
68.20432623862177 5.805942020429081 1.126518352787536
67.07335915121787 4.965752049074623 4.847172374575018
28.58821990957386 5.930272529004039 -1.219693304631298
42.54619734392313 4.096044397842486 6.170854429999262
109.2300505131038 5.511759641636775 -1.212111906223063
25.59396916606265 2.842247977258684 9.015745611492457
19.28322961633894 3.486032637822032 6.92177989053531
41.1896564609649 0.4945956306994646 13.81267491218565
88.08814019918108 4.573844549531802 5.649997989289966
60.71553717070437 5.914791507176238 0.4587944390321097
52.73672829135205 6.16326282080011 -1.097559258277681
110.9633262767258 5.080483951690701 1.871126433593767
11.37082828068901 4.271283984264388 0.3119850736699149
15.14506692605754 5.11129770307391 -1.583387293568916
31.49613470405988 1.07056305576412 12.39917152467812
70.52265951832283 4.956528103492959 4.895314743374548
90.11349751957886 5.508093796020375 1.779987236535785
25.22634965936395 5.911387912242749 -1.547098747794098
38.02444949594575 1.976164775510508 10.82501264640379
64.59505590526774 3.102409277609671 10.07037516672704
43.55291888494209 5.205606599176297 2.586428471862971
17.17766051492637 2.772679602341826 9.164835609861669
2 9 0 91
480
481
482
483
484
485
486
487
488
489
490
491
492
493
494
495
496
497
498
499
500
501
502
503
504
505
506
507
508
509
510
511
512
513
514
515
516
517
518
519
520
521
522
523
524
525
526
527
528
529
530
531
532
533
534
535
536
537
538
539
540
541
542
543
544
545
546
547
548
549
550
551
552
553
554
555
556
557
558
559
560
561
562
563
564
565
566
567
568
569
570
-32.6360984520784 -0.2093481536826152 -14.6048910359814
-41.17427813854594 6.943936648952762 5.080047663473037
-27.44682979321788 6.742362028898816 4.913401368630393
-50.49950184857163 6.671220638009522 4.045541570259633
-44.84048066688386 1.386426978150062 -12.54756350669635
-18.09500578061986 5.909170073236144 3.508473795299194
-59.4041690625718 3.337218593654428 -9.339577923237465
-21.53312021615485 2.49179680216049 -10.00371341562431
-69.01037345953944 4.00994749306053 -7.788621016561008
-59.89271617768517 6.470591499018399 3.212268464681868
-78.46691503017534 4.478558749052309 -6.322735812004008
-84.43699498823645 6.075954529626014 1.810952781452059
-69.90686649903895 6.338760872307851 2.618866782318041
-117.0416778316336 5.303123983057191 0.5942428273324324
-93.34756686873391 4.998141596388296 -3.901063616366821
-12.45836728558147 3.438715535744311 -5.419892773987248
-13.73560074457997 5.291620616813137 2.888384290744071
-16.28901233696507 4.757805223527134 -0.6293789314255105
-20.89890308272908 5.283489182255805 -0.164439047390559
-99.35760725226083 5.731634169315935 1.234851580518069
-89.13468783872526 5.976754407708023 1.644633303225314
-86.44023541914768 5.454542636053909 -2.338930307536001
-19.07938094934535 4.182276894715645 -4.261989914416125
-23.96201100013316 4.511488933148921 -3.817016286766984
-106.8130884978734 5.156507084971836 -1.915561678559034
-17.12481081651524 3.246928554410368 -7.311324396330653
-49.39814899464627 2.240834884770503 -11.27298580018245
-45.81386996272273 3.429937661097308 -8.276333711407979
-50.33580999831963 4.085087204412556 -6.900808697139437
-41.22901156632056 2.679932700710779 -9.608015296377282
-46.80467793847969 4.948790115925263 -3.797529209396746
-51.15472615089929 5.390874450777449 -2.460471477137806
-54.862008216132 4.63131515402623 -5.537851018582321
-56.452984708236 5.821810104160109 -0.8237001922763703
-59.58243662640749 5.117511711031315 -4.075887685387239
-54.30549830808566 2.885342816316129 -10.19299911909416
-63.85416545784813 4.331660449050855 -6.842116287558452
-64.05704567234422 5.596161214562841 -2.184286469298542
-81.79279049269549 5.531631644976898 -2.206115799449156
-25.61861331541746 5.64066712393565 0.3536451261096577
-28.3943104856717 4.739258384136364 -3.299405673149711
-25.90855842130265 3.375077866260344 -7.60987416567958
-31.3690523365396 3.584047419482363 -6.980023254249581
-33.20225314921528 4.944343980480602 -2.764754064379868
-36.47654026943621 3.910530974881266 -6.26357576204549
-37.90570796409207 5.188408163095635 -2.199221942744522
-34.8647309282147 6.071392794682585 1.37389026532218
-29.83690073632091 1.831794335126821 -11.02729657823247
-22.79053167812074 6.351151833698578 4.055941973373828
-30.25089274596472 5.937159391393299 1.121982850355182
-55.32282939519511 6.564246396706207 3.640898825740013
-45.73526216883651 6.802970183796082 4.54013393523023
-43.11978485428646 5.905326242266526 0.2473521467111112
-64.70453628062457 6.359696441631591 2.54398180682746
-79.61798635021759 6.176684567874084 2.079810518111711
-74.81162501633199 6.258926998417027 2.296429527965314
-73.05573323509361 5.716073906753339 -1.546807498606586
-34.13457978103715 2.159415696915148 -10.29343936587117
-36.78675066499635 0.3451727772792819 -13.72349122853648
-40.84332627495619 4.230619322013405 -5.642885752871974
-73.77976844700314 4.365235327857905 -6.76532264003375
-41.38637366765927 0.5917279213503484 -13.65677255489927
-94.0286804436759 5.857580620316495 1.396409804001364
-12.11973964756982 4.226776772887995 -1.043292917733778
-32.0655741532527 6.956943658849858 5.337166222691746
-113.5090750439188 5.429673217257244 1.275969494203713
-102.4157712792338 5.106854396091274 -2.651840414473604
-77.12096524510056 5.640460634137437 -1.834086279049093
-25.36544938415512 1.313028286530135 -12.36584692952078
-97.78287958543963 5.030716098382936 -3.42684351739554
-48.08804660278741 6.04777620325441 0.6393790223190357
-104.2996633858449 5.618484289267403 1.174078978468298
-36.60198513766219 7.008391417278506 5.351337759652353
-83.60122291555567 4.50221901501655 -6.066732419160145
-68.20432623862168 5.805942020429082 -1.126518352787538
-39.05931993820876 6.178669152717863 1.58208588137169
-67.0733591512176 4.965752049074696 -4.847172374574752
-28.64811540507275 -0.02178435513495883 -14.52471066803357
-9.768202948443683 3.567749414413045 -3.697709592966017
-10.5663989831157 4.65369091239313 2.079037834019115
-109.2300505131039 5.511759641636772 1.212111906223033
-88.08814019918107 4.573844549531803 -5.649997989289964
-60.71553717070432 5.91479150717625 -0.4587944390320411
-52.73672829135207 6.16326282080011 1.097559258277676
-110.9633262767258 5.080483951690701 -1.871126433593765
-15.70531572888103 3.973510338894249 -3.934540318994751
-21.6933859003962 3.677843928882546 -6.596365689501226
-37.65261759610392 2.665583005001544 -9.378642170285037
-70.52265951832284 4.956528103492966 -4.895314743374524
-90.11349751957886 5.508093796020363 -1.779987236535855
-64.59505590526773 3.102409277609698 -10.07037516672697
2 10 0 0
2 11 0 0
$EndNodes
$Elements
11 1136 1 1136
2 1 2 13
1 2 18 17 
2 19 1 14 
3 148 149 3 
4 3 150 148 
5 18 149 17 
6 14 150 19 
7 3 149 18 
8 19 150 3 
9 15 150 14 
10 17 149 16 
11 16 148 15 
12 148 150 15 
13 16 149 148 
2 2 2 49
14 29 23 30 
15 22 29 6 
16 22 23 29 
17 23 24 30 
18 26 4 154 
19 34 151 155 
20 4 20 154 
21 151 34 156 
22 15 33 160 
23 33 15 156 
24 1 28 151 
25 6 34 155 
26 27 6 155 
27 7 31 153 
28 28 27 155 
29 153 31 162 
30 16 15 160 
31 22 6 159 
32 32 7 152 
33 152 157 161 
34 34 33 156 
35 153 26 154 
36 20 21 157 
37 33 32 160 
38 14 1 151 
39 25 153 162 
40 157 21 161 
41 15 14 156 
42 21 2 161 
43 25 26 153 
44 27 5 159 
45 7 153 154 
46 6 27 159 
47 151 28 155 
48 31 30 162 
49 30 24 162 
50 24 25 162 
51 17 16 158 
52 154 20 157 
53 2 17 161 
54 5 22 159 
55 32 152 158 
56 14 151 156 
57 152 7 157 
58 152 17 158 
59 17 152 161 
60 7 154 157 
61 32 158 160 
62 158 16 160 
2 3 2 49
63 40 46 39 
64 45 40 8 
65 45 46 40 
66 46 47 39 
67 49 5 166 
68 35 163 167 
69 5 27 166 
70 163 35 168 
71 42 36 172 
72 36 42 168 
73 2 21 163 
74 8 35 167 
75 20 8 167 
76 9 38 165 
77 21 20 167 
78 165 38 174 
79 45 8 171 
80 37 9 164 
81 164 169 173 
82 35 36 168 
83 165 49 166 
84 43 42 172 
85 27 28 169 
86 36 37 172 
87 41 2 163 
88 48 165 174 
89 169 28 173 
90 42 41 168 
91 28 1 173 
92 48 49 165 
93 20 4 171 
94 9 165 166 
95 8 20 171 
96 163 21 167 
97 38 39 174 
98 39 47 174 
99 47 48 174 
100 44 43 170 
101 166 27 169 
102 1 44 173 
103 4 45 171 
104 37 164 170 
105 41 163 168 
106 164 9 169 
107 164 44 170 
108 44 164 173 
109 37 170 172 
110 9 166 169 
111 170 43 172 
2 4 2 249
112 175 177 176 
113 176 177 178 
114 179 181 180 
115 181 179 182 
116 179 180 183 
117 184 186 185 
118 187 189 188 
119 190 192 191 
120 193 195 194 
121 195 196 194 
122 183 198 197 
123 183 197 179 
124 199 182 179 
125 199 179 197 
126 50 35 8 
127 184 185 200 
128 201 203 202 
129 204 199 205 
130 205 199 200 
131 206 208 207 
132 206 207 209 
133 205 195 193 
134 9 37 75 
135 210 211 76 
136 197 200 199 
137 212 214 213 
138 186 184 215 
139 186 215 55 
140 211 77 76 
141 214 176 178 
142 186 216 185 
143 217 219 218 
144 211 210 218 
145 220 222 221 
146 221 222 218 
147 217 218 210 
148 35 223 219 
149 219 36 35 
150 221 218 219 
151 217 36 219 
152 224 190 225 
153 225 66 224 
154 213 214 178 
155 181 226 211 
156 227 178 228 
157 178 177 228 
158 229 183 222 
159 222 183 180 
160 221 219 223 
161 221 223 220 
162 223 51 220 
163 176 230 175 
164 207 176 214 
165 231 232 224 
166 190 224 232 
167 224 67 231 
168 217 210 233 
169 207 230 176 
170 229 198 183 
171 233 76 75 
172 76 233 210 
173 202 203 193 
174 202 193 194 
175 77 211 226 
176 232 231 234 
177 235 193 203 
178 181 182 226 
179 236 206 188 
180 188 206 237 
181 238 232 234 
182 239 97 240 
183 226 182 241 
184 235 205 193 
185 181 211 180 
186 242 81 80 
187 96 240 97 
188 81 242 243 
189 239 240 73 
190 54 244 53 
191 245 237 246 
192 77 226 78 
193 246 237 209 
194 247 201 187 
195 187 201 189 
196 248 249 228 
197 215 184 244 
198 244 184 197 
199 250 190 232 
200 197 184 200 
201 194 252 251 
202 192 190 250 
203 234 231 253 
204 231 68 253 
205 217 233 36 
206 212 254 214 
207 214 254 246 
208 214 246 209 
209 209 207 214 
210 194 251 202 
211 248 228 255 
212 93 257 256 
213 64 248 255 
214 257 93 92 
215 258 72 259 
216 78 226 241 
217 260 190 249 
218 72 258 71 
219 190 191 249 
220 249 261 228 
221 241 182 262 
222 263 258 259 
223 259 95 263 
224 258 263 71 
225 90 192 250 
226 196 264 252 
227 230 62 175 
228 194 196 252 
229 234 253 256 
230 257 234 256 
231 265 266 263 
232 263 94 265 
233 204 262 182 
234 237 206 209 
235 92 238 234 
236 253 69 267 
237 238 92 91 
238 256 253 267 
239 51 52 220 
240 97 239 11 
241 249 268 261 
242 88 261 268 
243 266 71 263 
244 71 266 70 
245 225 190 260 
246 260 65 225 
247 79 241 262 
248 264 196 269 
249 255 228 177 
250 177 63 255 
251 232 238 250 
252 238 91 250 
253 257 92 234 
254 249 191 268 
255 191 89 268 
256 212 85 254 
257 74 239 10 
258 250 91 90 
259 239 74 11 
260 239 73 10 
261 264 269 58 
262 269 57 58 
263 256 267 265 
264 70 267 69 
265 237 245 187 
266 246 254 245 
267 270 213 178 
268 270 86 213 
269 254 84 245 
270 89 191 192 
271 198 244 197 
272 208 236 271 
273 206 236 208 
274 266 265 267 
275 70 266 267 
276 261 227 228 
277 261 87 227 
278 93 265 94 
279 89 192 90 
280 265 93 256 
281 94 263 95 
282 95 259 96 
283 240 72 73 
284 240 96 259 
285 72 240 259 
286 69 253 68 
287 223 35 50 
288 51 223 50 
289 36 233 37 
290 233 75 37 
291 56 216 55 
292 216 56 57 
293 186 55 216 
294 60 208 271 
295 55 215 54 
296 88 268 89 
297 68 231 67 
298 247 187 245 
299 83 247 245 
300 229 222 220 
301 52 229 220 
302 230 61 62 
303 264 58 59 
304 244 54 215 
305 235 242 204 
306 271 252 264 
307 252 271 236 
308 59 271 264 
309 262 204 242 
310 262 80 79 
311 205 235 204 
312 229 52 198 
313 87 261 88 
314 67 224 66 
315 227 87 270 
316 236 188 252 
317 178 227 270 
318 244 198 53 
319 201 272 203 
320 203 272 243 
321 272 81 243 
322 269 185 216 
323 86 270 87 
324 65 260 248 
325 57 269 216 
326 260 249 248 
327 66 225 65 
328 213 86 212 
329 272 201 247 
330 82 272 247 
331 271 59 60 
332 81 272 82 
333 208 60 61 
334 85 212 86 
335 182 199 204 
336 61 230 208 
337 241 79 78 
338 53 198 52 
339 80 262 242 
340 230 207 208 
341 83 245 84 
342 65 248 64 
343 189 251 188 
344 63 175 62 
345 222 180 218 
346 180 211 218 
347 251 252 188 
348 251 189 202 
349 201 202 189 
350 235 243 242 
351 84 254 85 
352 82 247 83 
353 243 235 203 
354 195 205 200 
355 63 177 175 
356 269 196 185 
357 187 188 237 
358 64 255 63 
359 195 185 196 
360 185 195 200 
2 5 2 13
361 19 44 1 
362 2 41 18 
363 3 274 273 
364 273 275 3 
365 41 274 18 
366 19 275 44 
367 18 274 3 
368 3 275 19 
369 44 275 43 
370 42 274 41 
371 43 273 42 
372 43 275 273 
373 273 274 42 
2 6 2 32
374 25 286 276 
375 24 286 25 
376 281 283 282 
377 277 284 49 
378 276 286 285 
379 282 283 277 
380 49 284 5 
381 281 282 278 
382 26 280 4 
383 22 279 23 
384 276 280 26 
385 48 282 277 
386 45 278 46 
387 47 282 48 
388 4 280 45 
389 46 282 47 
390 278 282 46 
391 48 277 49 
392 45 280 278 
393 25 276 26 
394 5 284 22 
395 22 284 279 
396 23 286 24 
397 279 286 23 
398 283 284 277 
399 276 281 280 
400 280 281 278 
401 281 285 283 
402 283 285 279 
403 279 284 283 
404 276 285 281 
405 285 286 279 
2 7 2 251
406 127 288 287 
407 289 291 290 
408 292 287 293 
409 287 294 293 
410 295 297 296 
411 295 296 298 
412 299 301 300 
413 302 304 303 
414 300 301 305 
415 34 6 121 
416 306 308 307 
417 307 308 309 
418 127 287 126 
419 32 98 7 
420 310 295 311 
421 126 287 292 
422 312 314 313 
423 298 293 311 
424 298 311 295 
425 312 313 315 
426 293 294 311 
427 316 307 309 
428 311 294 317 
429 318 320 319 
430 294 288 317 
431 321 316 322 
432 100 324 323 
433 322 316 309 
434 325 302 326 
435 326 137 325 
436 327 309 328 
437 329 331 330 
438 332 333 295 
439 309 308 328 
440 330 335 334 
441 330 334 329 
442 334 335 336 
443 334 122 329 
444 337 338 325 
445 302 325 338 
446 313 339 307 
447 313 307 316 
448 325 138 337 
449 338 337 340 
450 341 338 340 
451 342 120 343 
452 332 295 310 
453 331 345 344 
454 342 343 144 
455 119 343 120 
456 305 301 346 
457 305 346 347 
458 348 298 345 
459 345 298 296 
460 349 351 350 
461 350 351 315 
462 352 104 103 
463 332 353 352 
464 104 352 353 
465 354 330 344 
466 330 331 344 
467 354 344 323 
468 355 312 290 
469 290 312 351 
470 356 98 32 
471 33 356 32 
472 355 320 357 
473 358 320 355 
474 320 130 357 
475 348 293 298 
476 359 302 338 
477 360 361 328 
478 304 302 359 
479 360 328 362 
480 340 337 363 
481 135 360 362 
482 337 139 363 
483 321 364 316 
484 316 364 350 
485 316 350 315 
486 353 332 301 
487 315 313 316 
488 365 300 289 
489 289 300 291 
490 347 358 366 
491 347 366 305 
492 297 368 367 
493 367 296 297 
494 98 369 99 
495 296 367 344 
496 332 346 301 
497 356 335 354 
498 335 330 354 
499 356 33 335 
500 332 310 346 
501 331 329 370 
502 371 302 361 
503 116 373 372 
504 302 303 361 
505 373 116 115 
506 374 143 375 
507 361 376 328 
508 331 370 345 
509 143 374 142 
510 377 374 375 
511 374 377 142 
512 375 118 377 
513 99 369 324 
514 100 99 324 
515 113 304 359 
516 319 320 358 
517 329 123 370 
518 347 319 358 
519 122 123 329 
520 340 363 372 
521 373 340 372 
522 378 379 377 
523 377 117 378 
524 115 341 340 
525 356 354 324 
526 341 115 114 
527 356 324 369 
528 320 318 129 
529 351 312 315 
530 363 140 380 
531 372 363 380 
532 120 342 12 
533 361 381 376 
534 111 376 381 
535 379 142 377 
536 142 379 141 
537 326 302 371 
538 371 136 326 
539 318 128 129 
540 350 364 349 
541 362 328 308 
542 308 134 362 
543 356 369 98 
544 338 341 359 
545 341 114 359 
546 373 115 340 
547 359 114 113 
548 361 303 381 
549 303 112 381 
550 321 108 364 
551 145 342 13 
552 372 380 378 
553 141 380 140 
554 342 145 12 
555 342 144 13 
556 335 33 336 
557 112 303 304 
558 364 107 349 
559 297 382 368 
560 351 349 289 
561 333 382 297 
562 383 322 309 
563 383 109 322 
564 382 102 368 
565 379 378 380 
566 112 304 113 
567 141 379 380 
568 376 327 328 
569 376 110 327 
570 116 378 117 
571 378 116 372 
572 336 33 34 
573 117 377 118 
574 140 363 139 
575 318 317 288 
576 324 354 323 
577 118 375 119 
578 143 343 375 
579 343 143 144 
580 343 119 375 
581 334 34 121 
582 122 334 121 
583 34 334 336 
584 288 127 128 
585 128 318 288 
586 111 381 112 
587 139 337 138 
588 365 289 349 
589 106 365 349 
590 314 355 357 
591 312 355 314 
592 131 314 357 
593 348 345 370 
594 124 348 370 
595 317 384 311 
596 384 310 311 
597 320 129 130 
598 384 319 347 
599 346 384 347 
600 299 300 365 
601 105 299 365 
602 382 333 352 
603 332 352 333 
604 110 376 111 
605 138 325 137 
606 327 110 383 
607 382 103 102 
608 309 327 383 
609 357 130 131 
610 367 368 385 
611 355 290 358 
612 368 101 385 
613 307 339 306 
614 109 383 110 
615 339 133 306 
616 301 299 353 
617 299 104 353 
618 126 292 125 
619 136 371 360 
620 292 293 348 
621 371 361 360 
622 137 326 136 
623 322 109 321 
624 348 124 292 
625 125 292 124 
626 104 299 105 
627 103 382 352 
628 297 295 333 
629 108 321 109 
630 294 287 288 
631 368 102 101 
632 345 296 344 
633 314 131 132 
634 124 370 123 
635 339 313 314 
636 385 101 100 
637 385 323 367 
638 136 360 135 
639 323 385 100 
640 300 305 291 
641 291 366 290 
642 366 358 290 
643 105 365 106 
644 107 364 108 
645 366 291 305 
646 339 132 133 
647 132 339 314 
648 134 308 306 
649 319 384 317 
650 289 290 351 
651 135 362 134 
652 310 384 346 
653 318 319 317 
654 134 306 133 
655 344 367 323 
656 106 349 107 
2 8 2 241
657 441 450 444 
658 73 448 399 
659 11 399 97 
660 447 453 400 
661 76 471 403 
662 444 450 396 
663 414 416 392 
664 50 401 51 
665 392 417 414 
666 386 437 56 
667 56 437 57 
668 401 402 51 
669 444 473 441 
670 404 453 447 
671 422 471 391 
672 76 403 75 
673 95 462 456 
674 50 8 40 
675 456 462 407 
676 435 446 433 
677 9 75 38 
678 415 423 395 
679 391 446 422 
680 38 470 39 
681 416 418 392 
682 422 446 435 
683 39 401 40 
684 395 467 415 
685 403 470 38 
686 61 417 392 
687 75 403 38 
688 391 471 76 
689 429 460 455 
690 436 437 386 
691 60 417 61 
692 455 460 388 
693 73 469 448 
694 419 467 438 
695 414 417 410 
696 39 470 401 
697 401 421 402 
698 408 417 60 
699 416 419 418 
700 410 417 408 
701 88 440 398 
702 449 453 404 
703 386 472 436 
704 420 457 396 
705 59 408 60 
706 84 423 389 
707 396 450 420 
708 440 441 398 
709 440 450 441 
710 82 424 387 
711 89 440 88 
712 424 425 387 
713 398 438 87 
714 431 443 436 
715 438 467 395 
716 387 445 81 
717 439 440 89 
718 87 438 86 
719 425 426 387 
720 77 391 76 
721 400 474 447 
722 421 471 422 
723 394 477 418 
724 438 458 419 
725 405 406 397 
726 390 411 409 
727 52 393 53 
728 425 427 426 
729 428 431 430 
730 91 405 397 
731 428 430 429 
732 427 428 426 
733 71 407 72 
734 409 412 410 
735 390 409 408 
736 431 436 434 
737 79 388 78 
738 82 387 81 
739 432 435 433 
740 409 410 408 
741 68 400 69 
742 428 429 426 
743 432 433 430 
744 58 390 59 
745 390 408 59 
746 65 396 66 
747 412 413 410 
748 431 434 432 
749 63 394 64 
750 61 392 62 
751 431 432 430 
752 406 420 397 
753 413 415 414 
754 84 389 83 
755 415 416 414 
756 413 414 410 
757 86 395 85 
758 88 398 87 
759 86 438 395 
760 91 397 90 
761 92 405 91 
762 94 404 93 
763 55 386 56 
764 85 423 84 
765 83 424 82 
766 442 446 391 
767 40 401 50 
768 426 445 387 
769 399 448 97 
770 428 443 431 
771 434 452 451 
772 90 439 89 
773 92 447 405 
774 93 447 92 
775 81 445 80 
776 65 444 396 
777 443 461 411 
778 420 439 397 
779 404 456 449 
780 77 442 391 
781 429 445 426 
782 435 464 422 
783 404 447 93 
784 394 444 64 
785 395 423 85 
786 427 443 428 
787 64 444 65 
788 389 424 83 
789 397 439 90 
790 427 461 443 
791 439 450 440 
792 400 453 69 
793 420 450 439 
794 406 457 420 
795 78 442 77 
796 71 449 407 
797 388 442 78 
798 418 477 392 
799 70 449 71 
800 424 454 425 
801 94 456 404 
802 421 422 402 
803 412 454 413 
804 454 478 425 
805 418 459 394 
806 70 453 449 
807 53 451 54 
808 406 466 457 
809 451 463 434 
810 392 477 62 
811 69 453 70 
812 398 458 438 
813 80 455 79 
814 396 457 66 
815 437 465 57 
816 79 455 388 
817 393 451 53 
818 412 478 454 
819 430 460 429 
820 409 461 412 
821 390 465 411 
822 57 465 58 
823 96 462 95 
824 465 476 411 
825 454 468 413 
826 389 454 424 
827 97 448 96 
828 434 463 432 
829 68 466 400 
830 447 474 405 
831 63 477 394 
832 95 456 94 
833 52 479 393 
834 401 470 421 
835 54 452 55 
836 415 467 416 
837 389 468 454 
838 445 455 80 
839 407 469 72 
840 458 473 459 
841 422 464 402 
842 429 455 445 
843 55 452 386 
844 449 456 407 
845 411 476 443 
846 457 466 67 
847 435 463 393 
848 443 476 436 
849 441 473 458 
850 432 463 435 
851 466 474 400 
852 441 458 398 
853 393 479 464 
854 451 452 54 
855 66 457 67 
856 393 464 435 
857 419 459 418 
858 403 471 470 
859 433 460 430 
860 423 468 389 
861 411 461 409 
862 437 476 465 
863 461 478 412 
864 72 469 73 
865 416 467 419 
866 58 465 390 
867 470 471 421 
868 402 479 51 
869 413 468 415 
870 67 466 68 
871 436 476 437 
872 388 475 442 
873 442 475 446 
874 434 472 452 
875 462 469 407 
876 446 475 433 
877 436 472 434 
878 405 474 406 
879 51 479 52 
880 62 477 63 
881 425 478 427 
882 394 473 444 
883 415 468 423 
884 393 463 451 
885 458 459 419 
886 448 462 96 
887 406 474 466 
888 460 475 388 
889 448 469 462 
890 427 478 461 
891 146 399 11 
892 459 473 394 
893 433 475 460 
894 464 479 402 
895 452 472 386 
896 73 399 10 
897 10 399 146 
2 9 2 235
898 532 539 525 
899 536 547 540 
900 510 539 532 
901 144 545 493 
902 539 567 524 
903 127 538 128 
904 480 538 127 
905 525 539 524 
906 509 567 539 
907 12 493 120 
908 542 549 494 
909 540 547 490 
910 512 514 486 
911 486 515 512 
912 540 568 536 
913 98 559 31 
914 499 549 542 
915 118 560 551 
916 123 505 487 
917 521 548 487 
918 532 550 510 
919 29 121 6 
920 551 560 504 
921 98 31 7 
922 513 530 489 
923 496 559 98 
924 514 516 486 
925 527 537 480 
926 489 562 513 
927 132 515 486 
928 509 541 538 
929 538 567 509 
930 525 555 532 
931 29 558 121 
932 485 496 99 
933 485 497 496 
934 537 538 480 
935 487 566 521 
936 122 505 123 
937 99 496 98 
938 505 566 487 
939 527 548 521 
940 131 515 132 
941 121 495 122 
942 101 528 100 
943 144 564 545 
944 517 562 533 
945 512 515 508 
946 482 528 101 
947 506 515 131 
948 514 517 516 
949 520 529 523 
950 508 515 506 
951 482 529 519 
952 111 535 492 
953 546 549 499 
954 518 553 490 
955 519 528 482 
956 130 506 131 
957 107 530 483 
958 490 547 518 
959 535 536 492 
960 102 544 482 
961 535 547 536 
962 105 531 481 
963 112 535 111 
964 531 532 481 
965 100 528 485 
966 519 529 520 
967 523 529 526 
968 492 533 110 
969 533 562 489 
970 497 543 496 
971 534 535 112 
972 110 533 109 
973 100 485 99 
974 494 569 542 
975 498 502 497 
976 488 570 516 
977 121 558 495 
978 533 554 517 
979 484 509 507 
980 500 501 491 
981 123 487 124 
982 114 500 491 
983 142 504 143 
984 507 510 508 
985 484 507 506 
986 102 482 101 
987 105 481 104 
988 507 508 506 
989 139 494 140 
990 129 484 130 
991 484 506 130 
992 136 490 137 
993 510 511 508 
994 134 488 135 
995 132 486 133 
996 501 518 491 
997 511 513 512 
998 107 483 106 
999 513 514 512 
1000 511 512 508 
1001 109 489 108 
1002 111 492 110 
1003 109 533 489 
1004 114 491 113 
1005 115 500 114 
1006 117 499 116 
1007 126 480 127 
1008 484 541 509 
1009 108 530 107 
1010 523 526 525 
1011 103 544 102 
1012 485 498 497 
1013 106 531 105 
1014 520 523 522 
1015 523 525 524 
1016 523 524 522 
1017 482 544 529 
1018 522 527 521 
1019 128 541 129 
1020 493 545 120 
1021 129 541 484 
1022 507 539 510 
1023 529 544 526 
1024 113 534 112 
1025 115 542 500 
1026 116 542 115 
1027 136 540 490 
1028 520 522 521 
1029 518 534 491 
1030 499 551 546 
1031 520 521 503 
1032 499 542 116 
1033 509 539 507 
1034 488 540 135 
1035 495 505 122 
1036 498 503 502 
1037 489 530 108 
1038 498 519 503 
1039 519 520 503 
1040 498 528 519 
1041 135 540 136 
1042 522 537 527 
1043 483 531 106 
1044 485 528 498 
1045 491 534 113 
1046 534 547 535 
1047 494 549 140 
1048 518 547 534 
1049 501 553 518 
1050 142 546 504 
1051 516 570 486 
1052 141 546 142 
1053 480 557 527 
1054 531 550 532 
1055 117 551 499 
1056 524 537 522 
1057 510 550 511 
1058 516 556 488 
1059 141 549 546 
1060 124 548 125 
1061 501 561 553 
1062 486 570 133 
1063 140 549 141 
1064 492 554 533 
1065 490 553 137 
1066 487 548 124 
1067 538 541 128 
1068 104 552 103 
1069 544 552 526 
1070 119 560 118 
1071 550 563 511 
1072 483 550 531 
1073 120 545 119 
1074 139 561 494 
1075 542 569 500 
1076 521 566 503 
1077 134 570 488 
1078 118 551 117 
1079 103 552 544 
1080 543 565 495 
1081 552 555 526 
1082 513 562 514 
1083 481 552 104 
1084 483 563 550 
1085 497 565 543 
1086 537 567 538 
1087 504 564 143 
1088 554 568 556 
1089 481 555 552 
1090 546 551 504 
1091 553 561 138 
1092 126 557 480 
1093 536 568 554 
1094 561 569 494 
1095 536 554 492 
1096 137 553 138 
1097 502 566 505 
1098 517 556 516 
1099 125 557 126 
1100 526 555 525 
1101 30 558 29 
1102 530 563 483 
1103 532 555 481 
1104 543 558 30 
1105 495 558 543 
1106 31 559 30 
1107 548 557 125 
1108 143 564 144 
1109 514 562 517 
1110 511 563 513 
1111 30 559 543 
1112 527 557 548 
1113 138 561 139 
1114 502 565 497 
1115 495 565 505 
1116 560 564 504 
1117 543 559 496 
1118 500 569 501 
1119 133 570 134 
1120 503 566 502 
1121 488 568 540 
1122 513 563 530 
1123 524 567 537 
1124 554 556 517 
1125 545 560 119 
1126 501 569 561 
1127 545 564 560 
1128 147 493 12 
1129 556 568 488 
1130 505 565 502 
1131 144 493 13 
1132 13 493 147 
2 10 2 2
1133 10 146 74 
1134 74 146 11 
2 11 2 2
1135 145 147 12 
1136 13 147 145 
$EndElements
