<?xml version="1.0" encoding="UTF-8" standalone="yes"?>
<svg xmlns="http://www.w3.org/2000/svg" xmlns:xlink="http://www.w3.org/1999/xlink" width="187.760pt" height="246.365pt" version="1.1" viewBox="-194.858 679.734 187.760 246.365">
  <!--
	Exported with Concepts: Smarter Sketching
	Version: 2570 on iOS 15.6
	https://concepts.app/
	-->
  <title>C9FBA628-A070-4A48-9563-D841B6B93E75</title>
  <desc>Drawing exported from Concepts: Smarter Sketching</desc>
  <defs></defs>
  <g id="Custom" opacity="1.000">
    <path id="STROKE_b95f0184-3e63-4971-9140-90e31d8d1f17" opacity="1.000" fill="none" stroke="#000000" stroke-width="3.051" stroke-opacity="1.000" stroke-linecap="round" stroke-linejoin="round" d="M -41.218 734.732 L -62.947 900.613 "></path>
    <path id="STROKE_2c24f389-615d-4a70-a0fb-16379624056d" opacity="0.961" fill="none" stroke="#6d7881" stroke-width="1.360" stroke-opacity="1.000" stroke-linecap="round" stroke-linejoin="round" d="M -39.701 688.244 L -39.755 688.306 L -39.801 688.383 Q -39.648 688.381 -39.655 688.368 Q -39.609 688.436 -38.262 686.722 Q -36.915 685.007 -34.210 683.074 Q -34.167 683.096 -34.144 684.300 Q -34.121 685.504 -33.946 687.053 Q -33.771 688.601 -33.017 690.329 Q -32.990 690.379 -32.952 690.231 Q -32.915 690.082 -32.951 689.320 "></path>
    <path id="STROKE_175cf3f3-8013-421d-811c-54dcfe1d8d35" opacity="0.961" fill="none" stroke="#6d7881" stroke-width="1.360" stroke-opacity="1.000" stroke-linecap="round" stroke-linejoin="round" d="M -182.150 889.858 Q -182.583 889.458 -182.830 889.245 Q -183.078 889.033 -183.210 888.924 Q -183.342 888.815 -183.999 888.082 Q -184.656 887.349 -185.185 886.711 Q -185.714 886.072 -185.996 885.774 Q -186.279 885.475 -188.217 882.917 L -187.959 882.805 Q -187.525 882.719 -185.954 882.526 Q -184.384 882.334 -182.915 881.553 L -182.912 881.532 Q -183.043 881.410 -183.145 881.300 "></path>
    <path id="STROKE_fc28b83b-f056-4219-8d86-5d07b96e09c2" opacity="0.961" fill="none" stroke="#6d7881" stroke-width="1.360" stroke-opacity="1.000" stroke-linecap="round" stroke-linejoin="round" d="M -23.707 695.370 L -23.817 695.591 Q -23.868 695.611 -24.566 694.726 Q -25.264 693.841 -25.352 692.485 Q -25.225 692.281 -23.459 692.302 Q -21.693 692.323 -20.576 692.422 Q -19.458 692.520 -18.552 692.400 Q -17.646 692.280 -17.002 691.880 Q -16.357 691.481 -16.020 690.762 Q -15.684 690.044 -15.686 689.396 Q -15.689 688.747 -15.958 688.180 Q -16.227 687.613 -16.763 687.134 "></path>
    <path id="STROKE_88d3b942-36db-4a46-8e3d-943d77704578" opacity="0.961" fill="none" stroke="#6d7881" stroke-width="1.181" stroke-opacity="1.000" stroke-linecap="round" stroke-linejoin="round" d="M -17.095 697.063 Q -17.218 697.155 -17.272 697.173 Q -17.327 697.192 -17.447 697.183 Q -17.568 697.174 -17.653 697.093 Q -17.738 697.011 -17.772 697.016 Q -17.807 697.021 -18.667 695.557 Q -19.527 694.092 -20.745 691.234 Q -21.962 688.376 -23.269 686.251 L -23.351 686.399 "></path>
    <path id="STROKE_518810cc-f0e8-4196-ba92-4b233c39d327" opacity="0.961" fill="none" stroke="#6d7881" stroke-width="1.200" stroke-opacity="1.000" stroke-linecap="round" stroke-linejoin="round" d="M -188.891 907.160 L -189.105 907.599 Q -189.247 907.548 -191.388 903.204 Q -190.973 903.161 -189.824 903.745 Q -188.674 904.328 -187.171 904.962 Q -185.668 905.597 -184.593 905.617 Q -184.447 905.484 -185.882 904.111 Q -187.318 902.738 -188.791 901.730 Q -190.263 900.721 -191.638 900.532 Q -191.795 900.675 -189.846 901.421 Q -187.896 902.167 -185.376 902.784 Q -182.855 903.402 -181.038 904.051 Q -179.220 904.701 -178.281 905.170 Q -177.343 905.639 -176.338 906.611 Q -175.334 907.584 -175.061 908.544 Q -174.789 909.503 -174.881 909.926 Q -174.972 910.349 -175.623 910.694 Q -176.274 911.038 -177.391 910.858 Q -178.509 910.678 -180.248 909.139 Q -181.988 907.600 -183.400 905.742 Q -184.813 903.884 -187.356 897.231 "></path>
    <path id="STROKE_e34aee16-13f8-4e16-8eb1-cfea66d59097" opacity="0.961" fill="none" stroke="#6d7881" stroke-width="1.217" stroke-opacity="1.000" stroke-linecap="round" stroke-linejoin="round" d="M -63.520 919.360 Q -63.865 919.396 -64.157 919.462 Q -64.150 919.479 -62.679 919.263 Q -61.209 919.048 -59.148 918.843 Q -57.088 918.638 -55.471 918.539 Q -53.854 918.441 -50.828 919.191 Q -52.615 919.378 -55.055 919.260 Q -57.495 919.141 -59.055 918.961 Q -60.614 918.781 -61.614 918.490 Q -62.614 918.198 -63.218 917.871 Q -63.822 917.544 -64.190 917.088 Q -64.558 916.633 -64.434 915.990 Q -64.310 915.348 -63.825 914.710 Q -63.340 914.072 -63.017 913.818 Q -62.694 913.565 -62.448 913.475 Q -62.202 913.386 -61.785 913.445 Q -61.369 913.505 -60.852 914.275 Q -60.336 915.044 -60.210 915.625 Q -60.085 916.206 -60.130 916.561 Q -60.175 916.916 -60.496 917.361 "></path>
    <path id="STROKE_01a20fa5-a07c-463b-a649-e5c8ebdcd37d" opacity="0.961" fill="none" stroke="#6d7881" stroke-width="1.383" stroke-opacity="1.000" stroke-linecap="round" stroke-linejoin="round" d="M -60.338 911.452 Q -60.215 911.518 -59.047 911.630 Q -57.879 911.742 -56.430 911.891 "></path>
    <path id="STROKE_dfb70f78-ab53-49e5-9e87-22ccf180d112" opacity="0.961" fill="none" stroke="#6d7881" stroke-width="1.311" stroke-opacity="1.000" stroke-linecap="round" stroke-linejoin="round" d="M -29.208 725.244 Q -29.251 725.222 -29.663 724.946 Q -29.664 724.869 -16.321 726.124 Q -16.331 726.139 -19.928 725.663 Q -23.525 725.186 -24.752 724.850 Q -25.979 724.515 -26.748 724.107 Q -27.517 723.699 -27.976 723.127 Q -28.435 722.555 -28.549 722.147 Q -28.663 721.740 -28.572 721.235 Q -28.481 720.731 -28.140 720.434 Q -27.799 720.138 -27.350 720.049 Q -26.901 719.960 -26.251 720.186 Q -25.601 720.412 -25.091 720.901 Q -24.581 721.390 -24.297 721.959 Q -24.013 722.528 -23.953 723.117 Q -23.893 723.707 -23.939 723.988 Q -23.985 724.269 -24.315 725.004 "></path>
    <path id="STROKE_548a858f-a3d3-4cc6-bab8-5eb2ee53c0d2" opacity="0.961" fill="none" stroke="#6d7881" stroke-width="1.346" stroke-opacity="1.000" stroke-linecap="round" stroke-linejoin="round" d="M -22.661 718.234 L -22.652 718.207 Q -22.707 718.149 -22.751 717.988 Q -22.795 717.827 -22.777 717.584 Q -22.758 717.341 -22.703 717.215 Q -22.305 716.976 -20.311 719.420 Q -20.297 719.384 -20.288 719.256 Q -20.279 719.129 -20.264 718.554 Q -20.250 717.979 -20.188 717.050 Q -20.127 716.121 -20.216 714.883 "></path>
    <path id="STROKE_1031ddcb-d3c8-49b1-9255-8a6822abd13d" opacity="0.961" fill="none" stroke="#6d7881" stroke-width="1.346" stroke-opacity="1.000" stroke-linecap="round" stroke-linejoin="round" d="M -66.400 922.526 L -66.579 922.416 L -66.867 922.248 Q -67.005 921.961 -66.917 918.280 Q -66.828 914.599 -67.408 911.614 Q -67.946 912.288 -68.184 912.573 Q -68.422 912.858 -68.596 913.011 Q -68.769 913.165 -69.431 913.531 "></path>
    <path id="STROKE_c34c718a-1cb2-4f58-ac33-4a931aa8a77e" opacity="0.961" fill="none" stroke="#6d7881" stroke-width="1.346" stroke-opacity="1.000" stroke-linecap="round" stroke-linejoin="round" d="M -31.082 728.804 L -31.134 728.655 L -31.174 727.918 Q -31.158 727.806 -30.583 719.357 Q -30.792 719.333 -31.121 719.460 Q -31.449 719.587 -31.642 719.757 Q -31.835 719.928 -32.307 720.499 "></path>
    <path id="STROKE_2e3b253d-8d6f-43c1-8088-5ffade7a06dd" opacity="0.961" fill="none" stroke="#000000" stroke-width="2.106" stroke-opacity="1.000" stroke-linecap="round" stroke-linejoin="round" d="M -46.844 907.909 Q -46.769 907.884 -46.553 907.615 Q -46.348 906.594 -52.689 902.636 Q -52.689 902.656 -51.475 902.740 Q -50.260 902.824 -47.987 902.530 Q -45.713 902.235 -43.824 901.837 Q -41.936 901.438 -39.644 900.709 Q -37.351 899.979 -35.949 899.690 Q -34.547 899.402 -33.930 899.370 Q -33.313 899.338 -32.933 899.606 Q -32.552 899.873 -32.436 900.120 Q -32.321 900.367 -32.288 900.548 Q -32.256 900.730 -32.222 900.960 Q -32.189 901.191 -33.083 902.849 Q -33.977 904.507 -34.731 905.451 Q -35.486 906.394 -36.191 907.055 Q -36.897 907.715 -37.424 907.969 Q -37.952 908.222 -38.183 908.269 Q -38.415 908.316 -38.783 908.284 Q -39.152 908.251 -40.795 906.489 Q -42.439 904.726 -43.586 903.497 Q -44.734 902.269 -45.499 901.568 Q -46.264 900.867 -47.229 900.108 Q -48.194 899.350 -50.589 897.699 Q -52.984 896.047 -53.519 895.501 Q -54.054 894.954 -54.139 894.653 Q -54.100 894.558 -53.439 894.763 Q -52.777 894.968 -51.477 895.344 Q -50.177 895.721 -48.577 895.629 "></path>
    <path id="STROKE_745a79b7-bab2-47f8-aab8-b8741d7dccae" opacity="0.961" fill="none" stroke="#000000" stroke-width="2.126" stroke-opacity="1.000" stroke-linecap="round" stroke-linejoin="round" d="M -42.965 892.343 L -43.309 892.341 Q -43.325 892.352 -43.671 892.322 Q -44.017 892.292 -44.024 892.217 Q -44.030 892.141 -41.283 892.169 Q -41.364 892.223 -41.677 892.401 "></path>
    <path id="STROKE_abd6a9c6-bc03-4586-90a2-ed83d718003f" opacity="0.961" fill="none" stroke="#000000" stroke-width="2.093" stroke-opacity="1.000" stroke-linecap="round" stroke-linejoin="round" d="M -26.724 753.957 Q -26.646 753.948 -26.382 753.729 Q -25.976 752.776 -31.356 747.646 Q -31.360 747.665 -30.194 747.991 Q -29.028 748.317 -26.755 748.488 Q -24.481 748.659 -22.562 748.651 Q -20.642 748.642 -18.263 748.393 Q -15.884 748.144 -14.461 748.145 Q -13.037 748.146 -12.430 748.239 Q -11.823 748.333 -11.506 748.670 Q -11.189 749.007 -11.126 749.270 Q -11.063 749.534 -11.068 749.717 Q -11.073 749.901 -11.087 750.132 Q -11.101 750.363 -12.305 751.798 Q -13.509 753.233 -14.434 754.000 Q -15.358 754.767 -16.178 755.268 Q -16.998 755.769 -17.563 755.910 Q -18.127 756.051 -18.362 756.050 Q -18.597 756.049 -18.950 755.944 Q -19.302 755.838 -20.548 753.791 Q -21.794 751.744 -22.664 750.316 Q -23.535 748.888 -24.139 748.052 Q -24.743 747.215 -25.530 746.282 Q -26.317 745.350 -28.317 743.260 Q -30.318 741.170 -30.729 740.530 Q -31.140 739.890 -31.162 739.579 Q -31.105 739.495 -30.502 739.828 Q -29.899 740.161 -28.708 740.788 Q -27.518 741.416 -25.942 741.649 "></path>
    <path id="STROKE_0f467f33-c03b-43b4-8898-69f87a138774" opacity="0.961" fill="none" stroke="#000000" stroke-width="2.070" stroke-opacity="1.000" stroke-linecap="round" stroke-linejoin="round" d="M -19.878 743.566 Q -20.039 743.547 -20.127 743.520 Q -20.214 743.494 -20.319 743.370 Q -20.424 743.246 -20.596 742.607 Q -20.768 741.969 -20.579 741.575 Q -20.389 741.181 -20.187 741.035 Q -19.985 740.888 -19.657 740.776 Q -19.329 740.665 -18.909 740.706 Q -18.490 740.748 -18.058 740.978 Q -17.626 741.209 -17.204 741.557 Q -16.783 741.906 -16.149 742.566 Q -15.516 743.227 -14.500 744.636 Q -14.473 744.687 -14.833 744.127 Q -15.192 743.567 -15.467 742.930 Q -15.741 742.293 -15.892 741.141 Q -16.043 739.989 -15.560 738.097 "></path>
    <path id="STROKE_6d46a03a-719a-4386-a4bb-a5b3f797ca33" opacity="0.961" fill="none" stroke="#000000" stroke-width="2.070" stroke-opacity="1.000" stroke-linecap="round" stroke-linejoin="round" d="M -153.002 754.136 L -153.090 754.309 Q -153.149 754.472 -153.211 754.566 Q -153.220 754.620 -153.710 754.470 Q -154.199 754.319 -154.597 753.826 Q -154.994 753.333 -155.069 753.026 Q -155.143 752.720 -155.139 752.570 Q -155.135 752.420 -155.064 752.298 Q -154.992 752.176 -154.844 752.051 Q -154.697 751.926 -154.507 751.860 Q -154.317 751.794 -153.994 751.722 Q -153.670 751.649 -153.300 751.718 Q -152.929 751.787 -152.699 751.910 Q -152.469 752.032 -152.409 752.077 Q -152.350 752.121 -152.274 752.432 Q -152.198 752.742 -152.255 752.766 Q -152.499 753.085 -153.055 753.198 Q -153.611 753.311 -153.909 753.261 Q -154.207 753.212 -154.369 753.050 Q -154.532 752.887 -154.623 752.651 Q -154.713 752.415 -154.724 752.192 Q -154.734 751.968 -154.648 751.701 Q -154.562 751.435 -154.300 751.316 Q -154.037 751.198 -153.726 751.186 Q -153.414 751.173 -153.278 751.228 Q -153.141 751.283 -152.988 751.495 Q -152.834 751.707 -152.804 751.907 Q -152.774 752.107 -152.824 752.243 Q -152.874 752.378 -153.226 752.485 Q -153.579 752.593 -153.754 752.586 Q -153.928 752.580 -154.024 752.542 Q -154.120 752.504 -154.147 752.509 Q -154.174 752.513 -154.348 752.236 L -154.207 752.201 L -154.018 752.229 Q -153.788 752.329 -153.797 752.334 Q -153.806 752.340 -153.717 752.607 Q -153.627 752.874 -154.307 753.721 L -154.704 753.822 "></path>
    <path id="STROKE_10d24d77-0b85-4837-bf8f-f964bce00fab" opacity="0.961" fill="none" stroke="#000000" stroke-width="2.070" stroke-opacity="1.000" stroke-linecap="round" stroke-linejoin="round" d="M -150.870 752.976 Q -151.030 753.340 -151.221 753.677 L -151.980 753.810 Q -152.511 753.766 -153.332 753.116 Q -154.153 752.467 -154.091 751.929 Q -154.028 751.392 -153.396 751.208 Q -152.763 751.025 -152.355 751.214 Q -151.947 751.404 -151.800 751.598 Q -151.652 751.792 -151.535 752.321 Q -151.417 752.850 -151.840 753.344 Q -152.263 753.837 -152.783 753.833 Q -153.304 753.829 -153.519 753.666 Q -153.735 753.503 -154.020 753.047 Q -154.306 752.592 -154.416 752.154 Q -154.525 751.715 -154.431 750.844 "></path>
    <path id="STROKE_4fd43de6-e0cf-49c2-b1f6-e0e3c6b8ed71" opacity="0.961" fill="none" stroke="#000000" stroke-width="2.041" stroke-opacity="1.000" stroke-linecap="round" stroke-linejoin="round" d="M -152.078 745.275 L -152.097 745.238 Q -152.049 745.161 -147.151 743.798 Q -142.253 742.435 -136.157 742.529 Q -136.129 742.611 -136.060 742.742 Q -135.991 742.873 -136.175 743.064 Q -136.360 743.256 -137.236 743.620 Q -138.113 743.984 -140.784 744.253 Q -143.455 744.521 -145.054 744.455 Q -146.652 744.389 -147.982 743.848 Q -149.311 743.307 -150.318 742.510 Q -151.325 741.713 -151.920 740.683 Q -152.515 739.653 -152.632 738.982 Q -152.749 738.311 -152.531 737.497 Q -152.314 736.684 -150.994 736.248 Q -149.674 735.813 -148.302 736.328 Q -146.929 736.842 -146.216 737.412 Q -145.504 737.982 -145.098 738.629 Q -144.693 739.277 -144.682 739.668 Q -144.671 740.058 -144.835 740.436 Q -144.999 740.813 -147.120 741.362 "></path>
    <path id="STROKE_d43ffa88-cdac-4e1b-bd80-2f622c2a0e8d" opacity="0.961" fill="none" stroke="#000000" stroke-width="2.070" stroke-opacity="1.000" stroke-linecap="round" stroke-linejoin="round" d="M -143.559 734.128 L -143.876 733.915 Q -143.915 733.880 -144.174 733.440 Q -144.432 733.000 -144.512 732.673 Q -144.591 732.347 -144.546 732.045 Q -144.500 731.742 -144.387 731.560 Q -144.274 731.378 -144.135 731.270 Q -143.995 731.161 -143.802 731.063 Q -143.609 730.964 -143.594 730.963 Q -143.579 730.961 -143.038 730.813 Q -142.498 730.665 -140.977 730.684 Q -140.939 730.619 -140.072 729.399 Q -139.818 729.263 -139.422 729.318 Q -139.025 729.374 -138.726 729.694 Q -138.426 730.013 -138.293 730.392 Q -138.159 730.772 -138.454 732.544 "></path>
    <path id="STROKE_8530e429-94a0-4fe5-9275-3ff638cfed5a" opacity="0.961" fill="none" stroke="#000000" stroke-width="2.070" stroke-opacity="1.000" stroke-linecap="round" stroke-linejoin="round" d="M -156.563 746.625 L -156.643 746.457 L -156.703 745.558 L -156.739 744.882 Q -156.708 744.688 -156.961 740.856 Q -157.214 737.024 -157.781 733.060 Q -157.852 733.113 -157.998 733.178 Q -158.144 733.242 -158.589 733.488 Q -159.033 733.734 -159.309 733.905 Q -159.584 734.076 -159.831 734.224 Q -160.078 734.372 -161.280 735.135 "></path>
  </g>
  <g id="New_Layer_1" opacity="1.000">
    <path id="STROKE_1c9286d5-7e9d-4102-9643-16b7d66ede11" opacity="0.961" fill="none" stroke="#6d7881" stroke-width="0.978" stroke-opacity="1.000" stroke-linecap="round" stroke-linejoin="round" d="M -35.183 684.754 L -62.597 900.299 "></path>
    <path id="STROKE_abc8e93c-0782-47b8-a7ce-b0ca280686a9" opacity="0.961" fill="none" stroke="#6d7881" stroke-width="0.978" stroke-opacity="1.000" stroke-linecap="round" stroke-linejoin="round" d="M -185.353 885.013 L -64.418 900.394 "></path>
    <path id="STROKE_62cdd1c5-d6d0-4143-bb7b-3c18e43a5ee4" opacity="0.961" fill="none" stroke="#6d7881" stroke-width="4.429" stroke-opacity="1.000" stroke-linecap="round" stroke-linejoin="round" d="M -63.234 900.183 Q -63.066 900.323 -62.681 900.834 "></path>
    <path id="STROKE_c148ca9c-37e4-46ac-90ab-5fc080cd2dde" opacity="0.961" fill="none" stroke="#6d7881" stroke-width="4.429" stroke-opacity="1.000" stroke-linecap="round" stroke-linejoin="round" d="M -62.888 900.646 L -63.104 900.698 Q -63.235 900.840 -63.626 901.101 L -63.846 901.080 Q -63.889 901.082 -64.065 900.748 Q -64.240 900.413 -64.210 900.227 Q -64.181 900.041 -64.142 899.931 Q -64.104 899.822 -63.742 899.634 Q -63.380 899.446 -63.112 899.414 Q -62.844 899.382 -62.467 899.541 Q -62.090 899.700 -62.300 900.488 Q -62.396 900.522 -62.587 900.529 Q -62.778 900.535 -62.918 900.451 Q -63.057 900.366 -63.197 900.145 Q -63.336 899.924 -63.332 899.807 Q -63.329 899.690 -63.274 899.595 Q -63.219 899.500 -62.932 899.214 "></path>
    <path id="STROKE_9f34aa1c-e0a6-40a9-88ea-9ae3d2a57ea7" opacity="0.961" fill="none" stroke="#6d7881" stroke-width="4.429" stroke-opacity="1.000" stroke-linecap="round" stroke-linejoin="round" d="M -38.897 735.383 Q -38.977 735.388 -39.061 735.429 Q -39.146 735.470 -39.343 735.501 Q -39.540 735.532 -39.594 735.538 Q -39.648 735.543 -39.883 735.521 Q -40.118 735.499 -40.275 735.433 Q -40.433 735.366 -40.610 735.203 Q -40.787 735.040 -40.983 734.714 Q -41.180 734.388 -41.067 733.079 L -40.823 732.964 L -40.575 732.916 Q -39.992 733.007 -39.974 733.058 Q -39.812 733.168 -39.717 733.301 Q -39.622 733.435 -39.597 733.503 Q -39.572 733.572 -39.575 733.869 Q -39.579 734.165 -39.655 734.233 Q -39.732 734.301 -39.829 734.374 Q -39.925 734.448 -40.006 734.471 Q -40.087 734.494 -40.118 734.533 Q -40.148 734.572 -40.683 734.571 Q -41.218 734.570 -41.431 734.543 Q -41.644 734.516 -41.850 734.345 Q -42.057 734.173 -42.095 734.022 Q -42.134 733.871 -42.102 733.708 Q -42.071 733.545 -42.080 733.525 Q -42.090 733.505 -41.663 733.171 Q -41.236 732.836 -40.547 732.748 Q -39.858 732.660 -39.626 732.683 Q -39.394 732.706 -39.146 732.823 Q -38.899 732.939 -38.783 733.047 Q -38.667 733.156 -38.545 733.364 Q -38.423 733.571 -38.425 734.012 Q -38.427 734.452 -38.979 734.903 Q -39.531 735.355 -39.768 735.407 Q -40.005 735.459 -40.267 735.465 Q -40.530 735.472 -40.782 735.339 Q -40.895 735.089 -40.326 734.543 "></path>
  </g>
</svg>