$MeshFormat
4.1 0 8
$EndMeshFormat
$Entities
0 0 1 0
0 0 -30 -0.4957655822000001 10 30 0.7137387587000001 0 0 
$EndEntities
$Nodes
1 1242 1 1242
2 0 0 1242
1
2
3
4
5
6
7
8
9
10
11
12
13
14
15
16
17
18
19
20
21
22
23
24
25
26
27
28
29
30
31
32
33
34
35
36
37
38
39
40
41
42
43
44
45
46
47
48
49
50
51
52
53
54
55
56
57
58
59
60
61
62
63
64
65
66
67
68
69
70
71
72
73
74
75
76
77
78
79
80
81
82
83
84
85
86
87
88
89
90
91
92
93
94
95
96
97
98
99
100
101
102
103
104
105
106
107
108
109
110
111
112
113
114
115
116
117
118
119
120
121
122
123
124
125
126
127
128
129
130
131
132
133
134
135
136
137
138
139
140
141
142
143
144
145
146
147
148
149
150
151
152
153
154
155
156
157
158
159
160
161
162
163
164
165
166
167
168
169
170
171
172
173
174
175
176
177
178
179
180
181
182
183
184
185
186
187
188
189
190
191
192
193
194
195
196
197
198
199
200
201
202
203
204
205
206
207
208
209
210
211
212
213
214
215
216
217
218
219
220
221
222
223
224
225
226
227
228
229
230
231
232
233
234
235
236
237
238
239
240
241
242
243
244
245
246
247
248
249
250
251
252
253
254
255
256
257
258
259
260
261
262
263
264
265
266
267
268
269
270
271
272
273
274
275
276
277
278
279
280
281
282
283
284
285
286
287
288
289
290
291
292
293
294
295
296
297
298
299
300
301
302
303
304
305
306
307
308
309
310
311
312
313
314
315
316
317
318
319
320
321
322
323
324
325
326
327
328
329
330
331
332
333
334
335
336
337
338
339
340
341
342
343
344
345
346
347
348
349
350
351
352
353
354
355
356
357
358
359
360
361
362
363
364
365
366
367
368
369
370
371
372
373
374
375
376
377
378
379
380
381
382
383
384
385
386
387
388
389
390
391
392
393
394
395
396
397
398
399
400
401
402
403
404
405
406
407
408
409
410
411
412
413
414
415
416
417
418
419
420
421
422
423
424
425
426
427
428
429
430
431
432
433
434
435
436
437
438
439
440
441
442
443
444
445
446
447
448
449
450
451
452
453
454
455
456
457
458
459
460
461
462
463
464
465
466
467
468
469
470
471
472
473
474
475
476
477
478
479
480
481
482
483
484
485
486
487
488
489
490
491
492
493
494
495
496
497
498
499
500
501
502
503
504
505
506
507
508
509
510
511
512
513
514
515
516
517
518
519
520
521
522
523
524
525
526
527
528
529
530
531
532
533
534
535
536
537
538
539
540
541
542
543
544
545
546
547
548
549
550
551
552
553
554
555
556
557
558
559
560
561
562
563
564
565
566
567
568
569
570
571
572
573
574
575
576
577
578
579
580
581
582
583
584
585
586
587
588
589
590
591
592
593
594
595
596
597
598
599
600
601
602
603
604
605
606
607
608
609
610
611
612
613
614
615
616
617
618
619
620
621
622
623
624
625
626
627
628
629
630
631
632
633
634
635
636
637
638
639
640
641
642
643
644
645
646
647
648
649
650
651
652
653
654
655
656
657
658
659
660
661
662
663
664
665
666
667
668
669
670
671
672
673
674
675
676
677
678
679
680
681
682
683
684
685
686
687
688
689
690
691
692
693
694
695
696
697
698
699
700
701
702
703
704
705
706
707
708
709
710
711
712
713
714
715
716
717
718
719
720
721
722
723
724
725
726
727
728
729
730
731
732
733
734
735
736
737
738
739
740
741
742
743
744
745
746
747
748
749
750
751
752
753
754
755
756
757
758
759
760
761
762
763
764
765
766
767
768
769
770
771
772
773
774
775
776
777
778
779
780
781
782
783
784
785
786
787
788
789
790
791
792
793
794
795
796
797
798
799
800
801
802
803
804
805
806
807
808
809
810
811
812
813
814
815
816
817
818
819
820
821
822
823
824
825
826
827
828
829
830
831
832
833
834
835
836
837
838
839
840
841
842
843
844
845
846
847
848
849
850
851
852
853
854
855
856
857
858
859
860
861
862
863
864
865
866
867
868
869
870
871
872
873
874
875
876
877
878
879
880
881
882
883
884
885
886
887
888
889
890
891
892
893
894
895
896
897
898
899
900
901
902
903
904
905
906
907
908
909
910
911
912
913
914
915
916
917
918
919
920
921
922
923
924
925
926
927
928
929
930
931
932
933
934
935
936
937
938
939
940
941
942
943
944
945
946
947
948
949
950
951
952
953
954
955
956
957
958
959
960
961
962
963
964
965
966
967
968
969
970
971
972
973
974
975
976
977
978
979
980
981
982
983
984
985
986
987
988
989
990
991
992
993
994
995
996
997
998
999
1000
1001
1002
1003
1004
1005
1006
1007
1008
1009
1010
1011
1012
1013
1014
1015
1016
1017
1018
1019
1020
1021
1022
1023
1024
1025
1026
1027
1028
1029
1030
1031
1032
1033
1034
1035
1036
1037
1038
1039
1040
1041
1042
1043
1044
1045
1046
1047
1048
1049
1050
1051
1052
1053
1054
1055
1056
1057
1058
1059
1060
1061
1062
1063
1064
1065
1066
1067
1068
1069
1070
1071
1072
1073
1074
1075
1076
1077
1078
1079
1080
1081
1082
1083
1084
1085
1086
1087
1088
1089
1090
1091
1092
1093
1094
1095
1096
1097
1098
1099
1100
1101
1102
1103
1104
1105
1106
1107
1108
1109
1110
1111
1112
1113
1114
1115
1116
1117
1118
1119
1120
1121
1122
1123
1124
1125
1126
1127
1128
1129
1130
1131
1132
1133
1134
1135
1136
1137
1138
1139
1140
1141
1142
1143
1144
1145
1146
1147
1148
1149
1150
1151
1152
1153
1154
1155
1156
1157
1158
1159
1160
1161
1162
1163
1164
1165
1166
1167
1168
1169
1170
1171
1172
1173
1174
1175
1176
1177
1178
1179
1180
1181
1182
1183
1184
1185
1186
1187
1188
1189
1190
1191
1192
1193
1194
1195
1196
1197
1198
1199
1200
1201
1202
1203
1204
1205
1206
1207
1208
1209
1210
1211
1212
1213
1214
1215
1216
1217
1218
1219
1220
1221
1222
1223
1224
1225
1226
1227
1228
1229
1230
1231
1232
1233
1234
1235
1236
1237
1238
1239
1240
1241
1242
10 0 0
9.7290553105 0 -0.0328188285
10 1.25 0
9.729019688299999 1.25 -0.0327571266
9.293566630700001 0 -0.0834244363
9.2934758068 1.25 -0.083277265
8.624124941 0 -0.1562975005
8.623953631999999 1.25 -0.1560505588
7.6624930067 0 -0.2509322151
7.6622139431 1.25 -0.2506069101
6.4075567565 0 -0.3557953963
6.4071488057 1.25 -0.3554886254
4.9600505306 0 -0.4447830501
4.9595067207 1.25 -0.4447042874
3.5097389273 1.25 -0.4850139158
3.5104160412 0 -0.4845464521
2.2507988935 1.25 -0.4565506284
2.2516212183 0 -0.4551999617
1.288246257 1.25 -0.3723006272
1.2892318175 0 -0.3701008559
0.6211941177 1.25 -0.2802030475
0.6221691882 0 -0.2784848306
0.1965643487 1.25 -0.1740502299
0.1972650892 0 -0.1734481537
0 1.25 0
0 0 0
0.113794759 0 0.2388869354
0.1165719489 1.25 0.2367623958
0.4989901546 0 0.459160657
0.5031475439 1.25 0.4533507144
1.1604297469 0 0.6318068939
1.1648109393 1.25 0.6231022469
2.139094589 0 0.7137387587
2.1429608738 1.25 0.7043169756
3.419650036 0 0.7080541532
3.422754839 1.25 0.6992087961
4.8920254621 0 0.6220754867
4.89431603 1.25 0.6146095392000001
6.3620411199 1.25 0.4782087861
6.360487867 0 0.4838512161
7.6335440564 1.25 0.3311374664
7.6325766032 0 0.3349641
8.6073791573 1.25 0.2037250614
8.606829836899999 0 0.2060448077
9.285077364399999 1.25 0.1078547029
9.2848030387 0 0.1090704586
9.7258276158 1.25 0.0422094088
9.7257244523 0 0.0426820795
10 2.5 0
9.728984066000001 2.5 -0.0326954247
9.293384982799999 2.5 -0.0831300936
8.623782323 2.5 -0.155803617
7.6619348794 2.5 -0.250281605
6.4067408549 2.5 -0.3551818546
4.9589629107 2.5 -0.4446255248
3.5090618135 2.5 -0.4854813796
2.2499765686 2.5 -0.4579012951
1.2872606964 2.5 -0.3745003984
0.6202190473 2.5 -0.2819212643
0.1958636082 2.5 -0.1746523062
0 2.5 0
0.1193491389 2.5 0.2346378561
0.5073049332 2.5 0.4475407718
1.1691921317 2.5 0.6143975999
2.1468271585 2.5 0.6948951924
3.425859642 2.5 0.690363439
4.8966065979 2.5 0.6071435917
6.3635943728 2.5 0.4725663561
7.6345115096 2.5 0.3273108328
8.6079284776 2.5 0.2014053152
9.285351690100001 2.5 0.1066389473
9.725930779400001 2.5 0.0417367381
10 3.75 0
9.7289484438 3.75 -0.0326337228
9.2932941588 3.75 -0.0829829222
8.623611014 3.75 -0.1555566752
7.6616558158 3.75 -0.2499563
6.4063329041 3.75 -0.3548750838
4.9584191008 3.75 -0.4445467621
3.5083846996 3.75 -0.4859488433
2.2491542438 3.75 -0.4592519618
1.2862751359 3.75 -0.3767001697
0.6192439769 3.75 -0.2836394811
0.1951628677 3.75 -0.1752543824
0 3.75 0
0.1221263288 3.75 0.2325133165
0.5114623225 3.75 0.4417308292
1.1735733242 3.75 0.6056929529
2.1506934432 3.75 0.6854734092
3.428964445 3.75 0.6815180819
4.8988971658 3.75 0.5996776442
6.3651476258 3.75 0.4669239261
7.6354789627 3.75 0.3234841992
8.608477797899999 3.75 0.199085569
9.2856260158 3.75 0.1054231916
9.726033942899999 3.75 0.0412640674
10 5 0
9.7289128216 5 -0.0325720208
9.293203334799999 5 -0.0828357508
8.623439704899999 5 -0.1553097334
7.6613767521 5 -0.2496309949
6.4059249533 5 -0.354568313
4.9578752908 5 -0.4444679995
3.5077075857 5 -0.4864163071
2.248331919 5 -0.4606026285
1.2852895754 5 -0.3788999409
0.6182689065 5 -0.2853576979
0.1944621272 5 -0.1758564587
0 5 0
0.1249035187 5 0.2303887769
0.5156197119 5 0.4359208866
1.1779545166 5 0.5969883059
2.154559728 5 0.6760516261
3.432069248 5 0.6726727246999999
4.9011877337 5 0.5922116967
6.3667008787 5 0.4612814962
7.6364464159 5 0.3196575656
8.6090271182 5 0.1967658227
9.2859003415 5 0.104207436
9.7261371064 5 0.0407913967
10 6.25 0
9.728877199399999 6.25 -0.0325103189
9.2931125108 6.25 -0.0826885794
8.6232683959 6.25 -0.1550627917
7.6610976885 6.25 -0.2493056899
6.4055170025 6.25 -0.3542615422
4.9573314808 6.25 -0.4443892369
3.5070304718 6.25 -0.4868837709
2.2475095942 6.25 -0.4619532952
1.2843040149 6.25 -0.3810997122
0.6172938361 6.25 -0.2870759148
0.1937613868 6.25 -0.1764585349
0 6.25 0
0.1276807087 6.25 0.2282642372
0.5197771012 6.25 0.430110944
1.182335709 6.25 0.5882836589
2.1584260127 6.25 0.6666298429
3.435174051 6.25 0.6638273676000001
4.9034783016 6.25 0.5847457492
6.3682541316 6.25 0.4556390662
7.637413869 6.25 0.315830932
8.6095764386 6.25 0.1944460765
9.286174667199999 6.25 0.1029916804
9.72624027 6.25 0.0403187259
10 7.5 0
9.728841577200001 7.5 -0.032448617
9.2930216869 7.5 -0.0825414081
8.6230970869 7.5 -0.1548158499
7.6608186248 7.5 -0.2489803848
6.4051090517 7.5 -0.3539547713
4.9567876709 7.5 -0.4443104742
3.5063533579 7.5 -0.4873512346
2.2466872694 7.5 -0.4633039619
1.2833184544 7.5 -0.3832994834
0.6163187657 7.5 -0.2887941316
0.1930606463 7.5 -0.1770606112
0 7.5 0
0.1304578986 7.5 0.2261396976
0.5239344905 7.5 0.4243010014
1.1867169014 7.5 0.5795790119000001
2.1622922975 7.5 0.6572080597
3.438278854 7.5 0.6549820105
4.9057688695 7.5 0.5772798017
6.3698073845 7.5 0.4499966362
7.6383813222 7.5 0.3120042984
8.610125758900001 7.5 0.1921263302
9.2864489929 7.5 0.1017759247
9.7263434335 7.5 0.0398460552
10 8.75 0
9.7288059549 8.75 -0.0323869151
9.2929308629 8.75 -0.0823942367
8.622925777900001 8.75 -0.1545689081
7.6605395612 8.75 -0.2486550798
6.4047011009 8.75 -0.3536480005
4.9562438609 8.75 -0.4442317116
3.5056762441 8.75 -0.4878186984
2.2458649446 8.75 -0.4646546287
1.2823328939 8.75 -0.3854992547
0.6153436953 8.75 -0.2905123484
0.1923599058 8.75 -0.1776626875
0 8.75 0
0.1332350886 8.75 0.2240151579
0.5280918798000001 8.75 0.4184910588
1.1910980939 8.75 0.5708743649
2.1661585822 8.75 0.6477862766
3.441383657 8.75 0.6461366534
4.9080594374 8.75 0.5698138542
6.3713606375 8.75 0.4443542062
7.6393487754 8.75 0.3081776649
8.6106750792 8.75 0.189806584
9.2867233185 8.75 0.1005601691
9.726446597000001 8.75 0.0393733845
10 10 0
9.7287703327 10 -0.0323252131
9.2928400389 10 -0.08224706530000001
8.6227544689 10 -0.1543219664
7.6602604975 10 -0.2483297747
6.4042931501 10 -0.3533412297
4.955700051 10 -0.4441529489
3.5049991302 10 -0.4882861621
2.2450426198 10 -0.4660052954
1.2813473334 10 -0.3876990259
0.6143686249 10 -0.2922305652
0.1916591653 10 -0.1782647637
0 10 0
0.1360122785 10 0.2218906183
0.5322492691 10 0.4126811162
1.1954792863 10 0.5621697179
2.1700248669 10 0.6383644934
3.44448846 10 0.6372912962
4.9103500053 10 0.5623479067
6.3729138904 10 0.4387117763
7.6403162285 10 0.3043510313
8.611224399499999 10 0.1874868378
9.2869976442 10 0.09934441350000001
9.726549760599999 10 0.0389007138
10 11.25 0
9.728734710499999 11.25 -0.0322635112
9.292749214900001 11.25 -0.0820998939
8.6225831599 11.25 -0.1540750246
7.6599814339 11.25 -0.2480044697
6.4038851993 11.25 -0.3530344589
4.955156241 11.25 -0.4440741863
3.5043220163 11.25 -0.4887536259
2.244220295 11.25 -0.4673559621
1.2803617728 11.25 -0.3898987972
0.6133935544 11.25 -0.2939487821
0.1909584248 11.25 -0.17886684
0 11.25 0
0.1387894684 11.25 0.2197660786
0.5364066585 11.25 0.4068711736
1.1998604787 11.25 0.5534650709
2.1738911517 11.25 0.6289427102
3.447593263 11.25 0.6284459391
4.9126405732 11.25 0.5548819592000001
6.3744671433 11.25 0.4330693463
7.6412836817 11.25 0.3005243977
8.6117737198 11.25 0.1851670915
9.287271969900001 11.25 0.0981286578
9.7266529241 11.25 0.0384280431
10 12.5 0
9.728699088300001 12.5 -0.0322018093
9.2926583909 12.5 -0.0819527226
8.622411850900001 12.5 -0.1538280828
7.6597023702 12.5 -0.2476791646
6.4034772485 12.5 -0.3527276881
4.9546124311 12.5 -0.4439954237
3.5036449024 12.5 -0.4892210896
2.2433979701 12.5 -0.4687066288
1.2793762123 12.5 -0.3920985684
0.612418484 12.5 -0.2956669989
0.1902576843 12.5 -0.1794689162
0 12.5 0
0.1415666584 12.5 0.217641539
0.5405640478 12.5 0.401061231
1.2042416712 12.5 0.5447604239
2.1777574364 12.5 0.6195209271
3.450698066 12.5 0.619600582
4.9149311411 12.5 0.5474160117
6.3760203963 12.5 0.4274269163
7.6422511348 12.5 0.2966977641
8.6123230402 12.5 0.1828473453
9.2875462956 12.5 0.0969129022
9.7267560877 12.5 0.0379553724
10 13.75 0
9.728663466 13.75 -0.0321401074
9.292567567000001 13.75 -0.08180555120000001
8.6222405419 13.75 -0.153581141
7.6594233066 13.75 -0.2473538595
6.4030692977 13.75 -0.3524209172
4.9540686211 13.75 -0.443916661
3.5029677886 13.75 -0.4896885534
2.2425756453 13.75 -0.4700572955
1.2783906518 13.75 -0.3942983397
0.6114434136 13.75 -0.2973852157
0.1895569438 13.75 -0.1800709925
0 13.75 0
0.1443438483 13.75 0.2155169993
0.5447214371 13.75 0.3952512884
1.2086228636 13.75 0.5360557768999999
2.1816237212 13.75 0.6100991439
3.453802869 13.75 0.6107552249
4.917221709 13.75 0.5399500642
6.3775736492 13.75 0.4217844863
7.643218588 13.75 0.2928711305
8.612872360500001 13.75 0.1805275991
9.2878206213 13.75 0.0956971465
9.726859251200001 13.75 0.0374827017
10 15 0
9.7286278438 15 -0.0320784054
9.292476743 15 -0.0816583798
8.622069232899999 15 -0.1533341993
7.6591442429 15 -0.2470285545
6.4026613469 15 -0.3521141464
4.9535248112 15 -0.4438378984
3.5022906747 15 -0.4901560172
2.2417533205 15 -0.4714079622
1.2774050913 15 -0.3964981109
0.6104683432 15 -0.2991034326
0.1888562033 15 -0.1806730688
0 15 0
0.1471210382 15 0.2133924597
0.5488788264 15 0.3894413457
1.213004056 15 0.5273511299
2.1854900059 15 0.6006773607
3.456907672 15 0.6019098677
4.9195122769 15 0.5324841167
6.3791269021 15 0.4161420563
7.6441860412 15 0.2890444969
8.6134216808 15 0.1782078528
9.288094946999999 15 0.0944813909
9.726962414699999 15 0.0370100309
10 16.25 0
9.7285922216 16.25 -0.0320167035
9.292385919000001 16.25 -0.08151120839999999
8.621897923800001 16.25 -0.1530872575
7.6588651793 16.25 -0.2467032494
6.4022533961 16.25 -0.3518073756
4.9529810012 16.25 -0.4437591357
3.5016135608 16.25 -0.4906234809
2.2409309957 16.25 -0.4727586289
1.2764195308 16.25 -0.3986978822
0.6094932728 16.25 -0.3008216494
0.1881554629 16.25 -0.181275145
0 16.25 0
0.1498982282 16.25 0.21126792
0.5530362156999999 16.25 0.3836314031
1.2173852484 16.25 0.5186464829
2.1893562906 16.25 0.5912555776
3.4600124751 16.25 0.5930645106
4.9218028448 16.25 0.5250181692
6.3806801551 16.25 0.4104996264
7.6451534943 16.25 0.2852178633
8.613971001099999 16.25 0.1758881066
9.288369272700001 16.25 0.0932656353
9.7270655783 16.25 0.0365373602
10 17.5 0
9.728556599399999 17.5 -0.0319550016
9.292295095 17.5 -0.081364037
8.6217266148 17.5 -0.1528403157
7.6585861156 17.5 -0.2463779444
6.4018454453 17.5 -0.3515006048
4.9524371912 17.5 -0.4436803731
3.5009364469 17.5 -0.4910909447
2.2401086709 17.5 -0.4741092956
1.2754339703 17.5 -0.4008976534
0.6085182024 17.5 -0.3025398662
0.1874547224 17.5 -0.1818772213
0 17.5 0
0.1526754181 17.5 0.2091433804
0.5571936051 17.5 0.3778214605
1.2217664409 17.5 0.5099418359
2.1932225754 17.5 0.5818337944
3.4631172781 17.5 0.5842191535
4.9240934127 17.5 0.5175522217
6.382233408 17.5 0.4048571964
7.6461209475 17.5 0.2813912297
8.614520321500001 17.5 0.1735683604
9.2886435984 17.5 0.0920498796
9.7271687418 17.5 0.0360646895
10 18.75 0
9.728520977200001 18.75 -0.0318932997
9.292204270999999 18.75 -0.0812168657
8.621555305799999 18.75 -0.152593374
7.658307052 18.75 -0.2460526393
6.4014374945 18.75 -0.351193834
4.9518933813 18.75 -0.4436016105
3.500259333 18.75 -0.4915584084
2.2392863461 18.75 -0.4754599623
1.2744484098 18.75 -0.4030974247
0.607543132 18.75 -0.304258083
0.1867539819 18.75 -0.1824792975
0 18.75 0
0.1554526081 18.75 0.2070188407
0.5613509944 18.75 0.3720115179
1.2261476333 18.75 0.5012371889
2.1970888601 18.75 0.5724120112
3.4662220811 18.75 0.5753737964
4.9263839806 18.75 0.5100862742
6.3837866609 18.75 0.3992147664
7.6470884006 18.75 0.2775645961
8.6150696418 18.75 0.1712486141
9.288917924 18.75 0.090834124
9.7272719053 18.75 0.0355920188
10 20 0
9.7284853549 20 -0.0318315977
9.2921134471 20 -0.08106969429999999
8.621383996800001 20 -0.1523464322
7.6580279883 20 -0.2457273343
6.4010295437 20 -0.3508870632
4.9513495713 20 -0.4435228478
3.4995822192 20 -0.4920258722
2.2384640213 20 -0.4768106291
1.2734628492 20 -0.405297196
0.6065680616 20 -0.3059762999
0.1860532414 20 -0.1830813738
0 20 0
0.158229798 20 0.2048943011
0.5655083837 20 0.3662015753
1.2305288257 20 0.4925325419
2.2009551449 20 0.5629902281
3.4693268841 20 0.5665284392
4.9286745485 20 0.5026203267
6.3853399138 20 0.3935723364
7.6480558538 20 0.2737379626
8.615618962099999 20 0.1689288679
9.289192249699999 20 0.0896183684
9.727375068900001 20 0.0351193481
10 21.25 0
9.7284497327 21.25 -0.0317698958
9.292022623099999 21.25 -0.0809225229
8.6212126878 21.25 -0.1520994904
7.6577489246 21.25 -0.2454020292
6.4006215929 21.25 -0.3505802923
4.9508057614 21.25 -0.4434440852
3.4989051053 21.25 -0.4924933359
2.2376416965 21.25 -0.4781612958
1.2724772887 21.25 -0.4074969672
0.6055929912 21.25 -0.3076945167
0.1853525009 21.25 -0.18368345
0 21.25 0
0.1610069879 21.25 0.2027697614
0.569665773 21.25 0.3603916327
1.2349100181 21.25 0.4838278949
2.2048214296 21.25 0.5535684449
3.4724316871 21.25 0.5576830820999999
4.9309651164 21.25 0.4951543792
6.3868931668 21.25 0.3879299065
7.649023307 21.25 0.269911329
8.6161682824 21.25 0.1666091217
9.289466575400001 21.25 0.08840261269999999
9.727478232399999 21.25 0.0346466774
10 22.5 0
9.728414110499999 22.5 -0.0317081939
9.2919317991 22.5 -0.08077535149999999
8.621041378799999 22.5 -0.1518525487
7.657469861 22.5 -0.2450767242
6.4002136421 22.5 -0.3502735215
4.9502619514 22.5 -0.4433653225
3.4982279914 22.5 -0.4929607997
2.2368193717 22.5 -0.4795119625
1.2714917282 22.5 -0.4096967385
0.6046179207 22.5 -0.3094127335
0.1846517604 22.5 -0.1842855263
0 22.5 0
0.1637841779 22.5 0.2006452218
0.5738231623 22.5 0.3545816901
1.2392912106 22.5 0.4751232479
2.2086877143 22.5 0.5441466617
3.4755364901 22.5 0.5488377250000001
4.9332556843 22.5 0.4876884317
6.3884464197 22.5 0.3822874765
7.6499907601 22.5 0.2660846954
8.6167176028 22.5 0.1642893754
9.2897409011 22.5 0.0871868571
9.7275813959 22.5 0.0341740066
10 23.75 0
9.728378488300001 23.75 -0.031646492
9.2918409751 23.75 -0.0806281802
8.6208700698 23.75 -0.1516056069
7.6571907973 23.75 -0.2447514191
6.3998056913 23.75 -0.3499667507
4.9497181415 23.75 -0.4432865599
3.4975508775 23.75 -0.4934282634
2.2359970468 23.75 -0.4808626292
1.2705061677 23.75 -0.4118965097
0.6036428503 23.75 -0.3111309503
0.1839510199 23.75 -0.1848876026
0 23.75 0
0.1665613678 23.75 0.1985206821
0.5779805517 23.75 0.3487717475
1.243672403 23.75 0.4664186009
2.2125539991 23.75 0.5347248786
3.4786412931 23.75 0.5399923679
4.9355462522 23.75 0.4802224842
6.3899996726 23.75 0.3766450465
7.6509582133 23.75 0.2622580618
8.617266923100001 23.75 0.1619696292
9.2900152268 23.75 0.0859711014
9.7276845595 23.75 0.0337013359
10 25 0
9.7283428661 25 -0.03158479
9.2917501512 25 -0.0804810088
8.6206987608 25 -0.1513586651
7.6569117337 25 -0.2444261141
6.3993977405 25 -0.3496599799
4.9491743315 25 -0.4432077973
3.4968737636 25 -0.4938957272
2.235174722 25 -0.4822132959
1.2695206072 25 -0.414096281
0.6026677799 25 -0.3128491672
0.1832502794 25 -0.1854896788
0 25 0
0.1693385577 25 0.1963961425
0.582137941 25 0.3429618049
1.2480535954 25 0.457713954
2.2164202838 25 0.5253030954
3.4817460961 25 0.5311470107
4.9378368201 25 0.4727565367
6.3915529256 25 0.3710026165
7.6519256664 25 0.2584314282
8.6178162434 25 0.159649883
9.290289552500001 25 0.08475534580000001
9.727787723 25 0.0332286652
10 26.25 0
9.7283072438 26.25 -0.0315230881
9.2916593272 26.25 -0.0803338374
8.620527451699999 26.25 -0.1511117233
7.65663267 26.25 -0.244100809
6.3989897897 26.25 -0.3493532091
4.9486305216 26.25 -0.4431290346
3.4961966498 26.25 -0.494363191
2.2343523972 26.25 -0.4835639626
1.2685350467 26.25 -0.4162960522
0.6016927095 26.25 -0.314567384
0.182549539 26.25 -0.1860917551
0 26.25 0
0.1721157477 26.25 0.1942716028
0.5862953303 26.25 0.3371518623
1.2524347879 26.25 0.449009307
2.2202865686 26.25 0.5158813122
3.4848508991 26.25 0.5223016536
4.940127388 26.25 0.4652905892
6.3931061785 26.25 0.3653601865
7.6528931196 26.25 0.2546047946
8.618365563699999 26.25 0.1573301367
9.2905638782 26.25 0.0835395902
9.727890886599999 26.25 0.0327559945
10 27.5 0
9.728271621599999 27.5 -0.0314613862
9.291568503200001 27.5 -0.080186666
8.6203561427 27.5 -0.1508647816
7.6563536064 27.5 -0.243775504
6.3985818389 27.5 -0.3490464382
4.9480867116 27.5 -0.443050272
3.4955195359 27.5 -0.4948306547
2.2335300724 27.5 -0.4849146293
1.2675494862 27.5 -0.4184958235
0.6007176391 27.5 -0.3162856008
0.1818487985 27.5 -0.1866938313
0 27.5 0
0.1748929376 27.5 0.1921470632
0.5904527196 27.5 0.3313419197
1.2568159803 27.5 0.44030466
2.2241528533 27.5 0.5064595291
3.4879557021 27.5 0.5134562965
4.9424179559 27.5 0.4578246417
6.3946594314 27.5 0.3597177566
7.6538605728 27.5 0.250778161
8.618914884100001 27.5 0.1550103905
9.2908382039 27.5 0.0823238345
9.7279940501 27.5 0.0322833238
10 28.75 0
9.728235999400001 28.75 -0.0313996843
9.2914776792 28.75 -0.0800394946
8.6201848337 28.75 -0.1506178398
7.6560745427 28.75 -0.2434501989
6.3981738881 28.75 -0.3487396674
4.9475429017 28.75 -0.4429715094
3.494842422 28.75 -0.4952981185
2.2327077476 28.75 -0.486265296
1.2665639256 28.75 -0.4206955947
0.5997425687 28.75 -0.3180038176
0.181148058 28.75 -0.1872959076
0 28.75 0
0.1776701276 28.75 0.1900225235
0.5946101089 28.75 0.3255319771
1.2611971727 28.75 0.431600013
2.228019138 28.75 0.4970377459
3.4910605051 28.75 0.5046109394
4.9447085238 28.75 0.4503586942
6.3962126844 28.75 0.3540753266
7.6548280259 28.75 0.2469515274
8.6194642044 28.75 0.1526906443
9.291112529499999 28.75 0.08110807890000001
9.7280972136 28.75 0.0318106531
10 30 0
9.7282003772 30 -0.0313379823
9.291386855200001 30 -0.0798923233
8.620013524699999 30 -0.150370898
7.6557954791 30 -0.2431248938
6.3977659373 30 -0.3484328966
4.9469990917 30 -0.4428927467
3.4941653081 30 -0.4957655822
2.2318854228 30 -0.4876159627
1.2655783651 30 -0.422895366
0.5987674983 30 -0.3197220345
0.1804473175 30 -0.1878979839
0 30 0
0.1804473175 30 0.1878979839
0.5987674983 30 0.3197220345
1.2655783651 30 0.422895366
2.2318854228 30 0.4876159627
3.4941653081 30 0.4957655822
4.9469990917 30 0.4428927467
6.3977659373 30 0.3484328966
7.6557954791 30 0.2431248938
8.620013524699999 30 0.150370898
9.291386855200001 30 0.0798923233
9.7282003772 30 0.0313379823
9.7282003772 30 -0.0156689912
9.291386855200001 30 -0.0399461616
8.620013524699999 30 -0.075185449
7.6557954791 30 -0.1215624469
6.3977659373 30 -0.1742164483
4.9469990917 30 -0.2214463734
3.4941653081 30 -0.2478827911
2.2318854228 30 -0.2438079814
1.2655783651 30 -0.211447683
0.5987674983 30 -0.1598610172
0.1804473175 30 -0.0939489919
0.1804473175 30 0.0939489919
0.5987674983 30 0.1598610172
1.2655783651 30 0.211447683
2.2318854228 30 0.2438079814
3.4941653081 30 0.2478827911
4.9469990917 30 0.2214463734
6.3977659373 30 0.1742164483
7.6557954791 30 0.1215624469
8.620013524699999 30 0.075185449
9.291386855200001 30 0.0399461616
9.7282003772 30 0.0156689912
9.7282003772 30 0
9.291386855200001 30 0
8.620013524699999 30 0
7.6557954791 30 0
6.3977659373 30 0
4.9469990917 30 0
3.4941653081 30 0
2.2318854228 30 -0
1.2655783651 30 -0
0.5987674983 30 -0
0.1804473175 30 -0
10 -1.25 0
9.729019688299999 -1.25 -0.0327571266
9.2934758068 -1.25 -0.083277265
8.623953631999999 -1.25 -0.1560505588
7.6622139431 -1.25 -0.2506069101
6.4071488057 -1.25 -0.3554886254
4.9595067207 -1.25 -0.4447042874
3.5097389273 -1.25 -0.4850139158
2.2507988935 -1.25 -0.4565506284
1.288246257 -1.25 -0.3723006272
0.6211941177 -1.25 -0.2802030475
0.1965643487 -1.25 -0.1740502299
0 -1.25 0
0.1165719489 -1.25 0.2367623958
0.5031475439 -1.25 0.4533507144
1.1648109393 -1.25 0.6231022469
2.1429608738 -1.25 0.7043169756
3.422754839 -1.25 0.6992087961
4.89431603 -1.25 0.6146095392000001
6.3620411199 -1.25 0.4782087861
7.6335440564 -1.25 0.3311374664
8.6073791573 -1.25 0.2037250614
9.285077364399999 -1.25 0.1078547029
9.7258276158 -1.25 0.0422094088
10 -2.5 0
9.728984066000001 -2.5 -0.0326954247
9.293384982799999 -2.5 -0.0831300936
8.623782323 -2.5 -0.155803617
7.6619348794 -2.5 -0.250281605
6.4067408549 -2.5 -0.3551818546
4.9589629107 -2.5 -0.4446255248
3.5090618135 -2.5 -0.4854813796
2.2499765686 -2.5 -0.4579012951
1.2872606964 -2.5 -0.3745003984
0.6202190473 -2.5 -0.2819212643
0.1958636082 -2.5 -0.1746523062
0 -2.5 0
0.1193491389 -2.5 0.2346378561
0.5073049332 -2.5 0.4475407718
1.1691921317 -2.5 0.6143975999
2.1468271585 -2.5 0.6948951924
3.425859642 -2.5 0.690363439
4.8966065979 -2.5 0.6071435917
6.3635943728 -2.5 0.4725663561
7.6345115096 -2.5 0.3273108328
8.6079284776 -2.5 0.2014053152
9.285351690100001 -2.5 0.1066389473
9.725930779400001 -2.5 0.0417367381
10 -3.75 0
9.7289484438 -3.75 -0.0326337228
9.2932941588 -3.75 -0.0829829222
8.623611014 -3.75 -0.1555566752
7.6616558158 -3.75 -0.2499563
6.4063329041 -3.75 -0.3548750838
4.9584191008 -3.75 -0.4445467621
3.5083846996 -3.75 -0.4859488433
2.2491542438 -3.75 -0.4592519618
1.2862751359 -3.75 -0.3767001697
0.6192439769 -3.75 -0.2836394811
0.1951628677 -3.75 -0.1752543824
0 -3.75 0
0.1221263288 -3.75 0.2325133165
0.5114623225 -3.75 0.4417308292
1.1735733242 -3.75 0.6056929529
2.1506934432 -3.75 0.6854734092
3.428964445 -3.75 0.6815180819
4.8988971658 -3.75 0.5996776442
6.3651476258 -3.75 0.4669239261
7.6354789627 -3.75 0.3234841992
8.608477797899999 -3.75 0.199085569
9.2856260158 -3.75 0.1054231916
9.726033942899999 -3.75 0.0412640674
10 -5 0
9.7289128216 -5 -0.0325720208
9.293203334799999 -5 -0.0828357508
8.623439704899999 -5 -0.1553097334
7.6613767521 -5 -0.2496309949
6.4059249533 -5 -0.354568313
4.9578752908 -5 -0.4444679995
3.5077075857 -5 -0.4864163071
2.248331919 -5 -0.4606026285
1.2852895754 -5 -0.3788999409
0.6182689065 -5 -0.2853576979
0.1944621272 -5 -0.1758564587
0 -5 0
0.1249035187 -5 0.2303887769
0.5156197119 -5 0.4359208866
1.1779545166 -5 0.5969883059
2.154559728 -5 0.6760516261
3.432069248 -5 0.6726727246999999
4.9011877337 -5 0.5922116967
6.3667008787 -5 0.4612814962
7.6364464159 -5 0.3196575656
8.6090271182 -5 0.1967658227
9.2859003415 -5 0.104207436
9.7261371064 -5 0.0407913967
10 -6.25 0
9.728877199399999 -6.25 -0.0325103189
9.2931125108 -6.25 -0.0826885794
8.6232683959 -6.25 -0.1550627917
7.6610976885 -6.25 -0.2493056899
6.4055170025 -6.25 -0.3542615422
4.9573314808 -6.25 -0.4443892369
3.5070304718 -6.25 -0.4868837709
2.2475095942 -6.25 -0.4619532952
1.2843040149 -6.25 -0.3810997122
0.6172938361 -6.25 -0.2870759148
0.1937613868 -6.25 -0.1764585349
0 -6.25 0
0.1276807087 -6.25 0.2282642372
0.5197771012 -6.25 0.430110944
1.182335709 -6.25 0.5882836589
2.1584260127 -6.25 0.6666298429
3.435174051 -6.25 0.6638273676000001
4.9034783016 -6.25 0.5847457492
6.3682541316 -6.25 0.4556390662
7.637413869 -6.25 0.315830932
8.6095764386 -6.25 0.1944460765
9.286174667199999 -6.25 0.1029916804
9.72624027 -6.25 0.0403187259
10 -7.5 0
9.728841577200001 -7.5 -0.032448617
9.2930216869 -7.5 -0.0825414081
8.6230970869 -7.5 -0.1548158499
7.6608186248 -7.5 -0.2489803848
6.4051090517 -7.5 -0.3539547713
4.9567876709 -7.5 -0.4443104742
3.5063533579 -7.5 -0.4873512346
2.2466872694 -7.5 -0.4633039619
1.2833184544 -7.5 -0.3832994834
0.6163187657 -7.5 -0.2887941316
0.1930606463 -7.5 -0.1770606112
0 -7.5 0
0.1304578986 -7.5 0.2261396976
0.5239344905 -7.5 0.4243010014
1.1867169014 -7.5 0.5795790119000001
2.1622922975 -7.5 0.6572080597
3.438278854 -7.5 0.6549820105
4.9057688695 -7.5 0.5772798017
6.3698073845 -7.5 0.4499966362
7.6383813222 -7.5 0.3120042984
8.610125758900001 -7.5 0.1921263302
9.2864489929 -7.5 0.1017759247
9.7263434335 -7.5 0.0398460552
10 -8.75 0
9.7288059549 -8.75 -0.0323869151
9.2929308629 -8.75 -0.0823942367
8.622925777900001 -8.75 -0.1545689081
7.6605395612 -8.75 -0.2486550798
6.4047011009 -8.75 -0.3536480005
4.9562438609 -8.75 -0.4442317116
3.5056762441 -8.75 -0.4878186984
2.2458649446 -8.75 -0.4646546287
1.2823328939 -8.75 -0.3854992547
0.6153436953 -8.75 -0.2905123484
0.1923599058 -8.75 -0.1776626875
0 -8.75 0
0.1332350886 -8.75 0.2240151579
0.5280918798000001 -8.75 0.4184910588
1.1910980939 -8.75 0.5708743649
2.1661585822 -8.75 0.6477862766
3.441383657 -8.75 0.6461366534
4.9080594374 -8.75 0.5698138542
6.3713606375 -8.75 0.4443542062
7.6393487754 -8.75 0.3081776649
8.6106750792 -8.75 0.189806584
9.2867233185 -8.75 0.1005601691
9.726446597000001 -8.75 0.0393733845
10 -10 0
9.7287703327 -10 -0.0323252131
9.2928400389 -10 -0.08224706530000001
8.6227544689 -10 -0.1543219664
7.6602604975 -10 -0.2483297747
6.4042931501 -10 -0.3533412297
4.955700051 -10 -0.4441529489
3.5049991302 -10 -0.4882861621
2.2450426198 -10 -0.4660052954
1.2813473334 -10 -0.3876990259
0.6143686249 -10 -0.2922305652
0.1916591653 -10 -0.1782647637
0 -10 0
0.1360122785 -10 0.2218906183
0.5322492691 -10 0.4126811162
1.1954792863 -10 0.5621697179
2.1700248669 -10 0.6383644934
3.44448846 -10 0.6372912962
4.9103500053 -10 0.5623479067
6.3729138904 -10 0.4387117763
7.6403162285 -10 0.3043510313
8.611224399499999 -10 0.1874868378
9.2869976442 -10 0.09934441350000001
9.726549760599999 -10 0.0389007138
10 -11.25 0
9.728734710499999 -11.25 -0.0322635112
9.292749214900001 -11.25 -0.0820998939
8.6225831599 -11.25 -0.1540750246
7.6599814339 -11.25 -0.2480044697
6.4038851993 -11.25 -0.3530344589
4.955156241 -11.25 -0.4440741863
3.5043220163 -11.25 -0.4887536259
2.244220295 -11.25 -0.4673559621
1.2803617728 -11.25 -0.3898987972
0.6133935544 -11.25 -0.2939487821
0.1909584248 -11.25 -0.17886684
0 -11.25 0
0.1387894684 -11.25 0.2197660786
0.5364066585 -11.25 0.4068711736
1.1998604787 -11.25 0.5534650709
2.1738911517 -11.25 0.6289427102
3.447593263 -11.25 0.6284459391
4.9126405732 -11.25 0.5548819592000001
6.3744671433 -11.25 0.4330693463
7.6412836817 -11.25 0.3005243977
8.6117737198 -11.25 0.1851670915
9.287271969900001 -11.25 0.0981286578
9.7266529241 -11.25 0.0384280431
10 -12.5 0
9.728699088300001 -12.5 -0.0322018093
9.2926583909 -12.5 -0.0819527226
8.622411850900001 -12.5 -0.1538280828
7.6597023702 -12.5 -0.2476791646
6.4034772485 -12.5 -0.3527276881
4.9546124311 -12.5 -0.4439954237
3.5036449024 -12.5 -0.4892210896
2.2433979701 -12.5 -0.4687066288
1.2793762123 -12.5 -0.3920985684
0.612418484 -12.5 -0.2956669989
0.1902576843 -12.5 -0.1794689162
0 -12.5 0
0.1415666584 -12.5 0.217641539
0.5405640478 -12.5 0.401061231
1.2042416712 -12.5 0.5447604239
2.1777574364 -12.5 0.6195209271
3.450698066 -12.5 0.619600582
4.9149311411 -12.5 0.5474160117
6.3760203963 -12.5 0.4274269163
7.6422511348 -12.5 0.2966977641
8.6123230402 -12.5 0.1828473453
9.2875462956 -12.5 0.0969129022
9.7267560877 -12.5 0.0379553724
10 -13.75 0
9.728663466 -13.75 -0.0321401074
9.292567567000001 -13.75 -0.08180555120000001
8.6222405419 -13.75 -0.153581141
7.6594233066 -13.75 -0.2473538595
6.4030692977 -13.75 -0.3524209172
4.9540686211 -13.75 -0.443916661
3.5029677886 -13.75 -0.4896885534
2.2425756453 -13.75 -0.4700572955
1.2783906518 -13.75 -0.3942983397
0.6114434136 -13.75 -0.2973852157
0.1895569438 -13.75 -0.1800709925
0 -13.75 0
0.1443438483 -13.75 0.2155169993
0.5447214371 -13.75 0.3952512884
1.2086228636 -13.75 0.5360557768999999
2.1816237212 -13.75 0.6100991439
3.453802869 -13.75 0.6107552249
4.917221709 -13.75 0.5399500642
6.3775736492 -13.75 0.4217844863
7.643218588 -13.75 0.2928711305
8.612872360500001 -13.75 0.1805275991
9.2878206213 -13.75 0.0956971465
9.726859251200001 -13.75 0.0374827017
10 -15 0
9.7286278438 -15 -0.0320784054
9.292476743 -15 -0.0816583798
8.622069232899999 -15 -0.1533341993
7.6591442429 -15 -0.2470285545
6.4026613469 -15 -0.3521141464
4.9535248112 -15 -0.4438378984
3.5022906747 -15 -0.4901560172
2.2417533205 -15 -0.4714079622
1.2774050913 -15 -0.3964981109
0.6104683432 -15 -0.2991034326
0.1888562033 -15 -0.1806730688
0 -15 0
0.1471210382 -15 0.2133924597
0.5488788264 -15 0.3894413457
1.213004056 -15 0.5273511299
2.1854900059 -15 0.6006773607
3.456907672 -15 0.6019098677
4.9195122769 -15 0.5324841167
6.3791269021 -15 0.4161420563
7.6441860412 -15 0.2890444969
8.6134216808 -15 0.1782078528
9.288094946999999 -15 0.0944813909
9.726962414699999 -15 0.0370100309
10 -16.25 0
9.7285922216 -16.25 -0.0320167035
9.292385919000001 -16.25 -0.08151120839999999
8.621897923800001 -16.25 -0.1530872575
7.6588651793 -16.25 -0.2467032494
6.4022533961 -16.25 -0.3518073756
4.9529810012 -16.25 -0.4437591357
3.5016135608 -16.25 -0.4906234809
2.2409309957 -16.25 -0.4727586289
1.2764195308 -16.25 -0.3986978822
0.6094932728 -16.25 -0.3008216494
0.1881554629 -16.25 -0.181275145
0 -16.25 0
0.1498982282 -16.25 0.21126792
0.5530362156999999 -16.25 0.3836314031
1.2173852484 -16.25 0.5186464829
2.1893562906 -16.25 0.5912555776
3.4600124751 -16.25 0.5930645106
4.9218028448 -16.25 0.5250181692
6.3806801551 -16.25 0.4104996264
7.6451534943 -16.25 0.2852178633
8.613971001099999 -16.25 0.1758881066
9.288369272700001 -16.25 0.0932656353
9.7270655783 -16.25 0.0365373602
10 -17.5 0
9.728556599399999 -17.5 -0.0319550016
9.292295095 -17.5 -0.081364037
8.6217266148 -17.5 -0.1528403157
7.6585861156 -17.5 -0.2463779444
6.4018454453 -17.5 -0.3515006048
4.9524371912 -17.5 -0.4436803731
3.5009364469 -17.5 -0.4910909447
2.2401086709 -17.5 -0.4741092956
1.2754339703 -17.5 -0.4008976534
0.6085182024 -17.5 -0.3025398662
0.1874547224 -17.5 -0.1818772213
0 -17.5 0
0.1526754181 -17.5 0.2091433804
0.5571936051 -17.5 0.3778214605
1.2217664409 -17.5 0.5099418359
2.1932225754 -17.5 0.5818337944
3.4631172781 -17.5 0.5842191535
4.9240934127 -17.5 0.5175522217
6.382233408 -17.5 0.4048571964
7.6461209475 -17.5 0.2813912297
8.614520321500001 -17.5 0.1735683604
9.2886435984 -17.5 0.0920498796
9.7271687418 -17.5 0.0360646895
10 -18.75 0
9.728520977200001 -18.75 -0.0318932997
9.292204270999999 -18.75 -0.0812168657
8.621555305799999 -18.75 -0.152593374
7.658307052 -18.75 -0.2460526393
6.4014374945 -18.75 -0.351193834
4.9518933813 -18.75 -0.4436016105
3.500259333 -18.75 -0.4915584084
2.2392863461 -18.75 -0.4754599623
1.2744484098 -18.75 -0.4030974247
0.607543132 -18.75 -0.304258083
0.1867539819 -18.75 -0.1824792975
0 -18.75 0
0.1554526081 -18.75 0.2070188407
0.5613509944 -18.75 0.3720115179
1.2261476333 -18.75 0.5012371889
2.1970888601 -18.75 0.5724120112
3.4662220811 -18.75 0.5753737964
4.9263839806 -18.75 0.5100862742
6.3837866609 -18.75 0.3992147664
7.6470884006 -18.75 0.2775645961
8.6150696418 -18.75 0.1712486141
9.288917924 -18.75 0.090834124
9.7272719053 -18.75 0.0355920188
10 -20 0
9.7284853549 -20 -0.0318315977
9.2921134471 -20 -0.08106969429999999
8.621383996800001 -20 -0.1523464322
7.6580279883 -20 -0.2457273343
6.4010295437 -20 -0.3508870632
4.9513495713 -20 -0.4435228478
3.4995822192 -20 -0.4920258722
2.2384640213 -20 -0.4768106291
1.2734628492 -20 -0.405297196
0.6065680616 -20 -0.3059762999
0.1860532414 -20 -0.1830813738
0 -20 0
0.158229798 -20 0.2048943011
0.5655083837 -20 0.3662015753
1.2305288257 -20 0.4925325419
2.2009551449 -20 0.5629902281
3.4693268841 -20 0.5665284392
4.9286745485 -20 0.5026203267
6.3853399138 -20 0.3935723364
7.6480558538 -20 0.2737379626
8.615618962099999 -20 0.1689288679
9.289192249699999 -20 0.0896183684
9.727375068900001 -20 0.0351193481
10 -21.25 0
9.7284497327 -21.25 -0.0317698958
9.292022623099999 -21.25 -0.0809225229
8.6212126878 -21.25 -0.1520994904
7.6577489246 -21.25 -0.2454020292
6.4006215929 -21.25 -0.3505802923
4.9508057614 -21.25 -0.4434440852
3.4989051053 -21.25 -0.4924933359
2.2376416965 -21.25 -0.4781612958
1.2724772887 -21.25 -0.4074969672
0.6055929912 -21.25 -0.3076945167
0.1853525009 -21.25 -0.18368345
0 -21.25 0
0.1610069879 -21.25 0.2027697614
0.569665773 -21.25 0.3603916327
1.2349100181 -21.25 0.4838278949
2.2048214296 -21.25 0.5535684449
3.4724316871 -21.25 0.5576830820999999
4.9309651164 -21.25 0.4951543792
6.3868931668 -21.25 0.3879299065
7.649023307 -21.25 0.269911329
8.6161682824 -21.25 0.1666091217
9.289466575400001 -21.25 0.08840261269999999
9.727478232399999 -21.25 0.0346466774
10 -22.5 0
9.728414110499999 -22.5 -0.0317081939
9.2919317991 -22.5 -0.08077535149999999
8.621041378799999 -22.5 -0.1518525487
7.657469861 -22.5 -0.2450767242
6.4002136421 -22.5 -0.3502735215
4.9502619514 -22.5 -0.4433653225
3.4982279914 -22.5 -0.4929607997
2.2368193717 -22.5 -0.4795119625
1.2714917282 -22.5 -0.4096967385
0.6046179207 -22.5 -0.3094127335
0.1846517604 -22.5 -0.1842855263
0 -22.5 0
0.1637841779 -22.5 0.2006452218
0.5738231623 -22.5 0.3545816901
1.2392912106 -22.5 0.4751232479
2.2086877143 -22.5 0.5441466617
3.4755364901 -22.5 0.5488377250000001
4.9332556843 -22.5 0.4876884317
6.3884464197 -22.5 0.3822874765
7.6499907601 -22.5 0.2660846954
8.6167176028 -22.5 0.1642893754
9.2897409011 -22.5 0.0871868571
9.7275813959 -22.5 0.0341740066
10 -23.75 0
9.728378488300001 -23.75 -0.031646492
9.2918409751 -23.75 -0.0806281802
8.6208700698 -23.75 -0.1516056069
7.6571907973 -23.75 -0.2447514191
6.3998056913 -23.75 -0.3499667507
4.9497181415 -23.75 -0.4432865599
3.4975508775 -23.75 -0.4934282634
2.2359970468 -23.75 -0.4808626292
1.2705061677 -23.75 -0.4118965097
0.6036428503 -23.75 -0.3111309503
0.1839510199 -23.75 -0.1848876026
0 -23.75 0
0.1665613678 -23.75 0.1985206821
0.5779805517 -23.75 0.3487717475
1.243672403 -23.75 0.4664186009
2.2125539991 -23.75 0.5347248786
3.4786412931 -23.75 0.5399923679
4.9355462522 -23.75 0.4802224842
6.3899996726 -23.75 0.3766450465
7.6509582133 -23.75 0.2622580618
8.617266923100001 -23.75 0.1619696292
9.2900152268 -23.75 0.0859711014
9.7276845595 -23.75 0.0337013359
10 -25 0
9.7283428661 -25 -0.03158479
9.2917501512 -25 -0.0804810088
8.6206987608 -25 -0.1513586651
7.6569117337 -25 -0.2444261141
6.3993977405 -25 -0.3496599799
4.9491743315 -25 -0.4432077973
3.4968737636 -25 -0.4938957272
2.235174722 -25 -0.4822132959
1.2695206072 -25 -0.414096281
0.6026677799 -25 -0.3128491672
0.1832502794 -25 -0.1854896788
0 -25 0
0.1693385577 -25 0.1963961425
0.582137941 -25 0.3429618049
1.2480535954 -25 0.457713954
2.2164202838 -25 0.5253030954
3.4817460961 -25 0.5311470107
4.9378368201 -25 0.4727565367
6.3915529256 -25 0.3710026165
7.6519256664 -25 0.2584314282
8.6178162434 -25 0.159649883
9.290289552500001 -25 0.08475534580000001
9.727787723 -25 0.0332286652
10 -26.25 0
9.7283072438 -26.25 -0.0315230881
9.2916593272 -26.25 -0.0803338374
8.620527451699999 -26.25 -0.1511117233
7.65663267 -26.25 -0.244100809
6.3989897897 -26.25 -0.3493532091
4.9486305216 -26.25 -0.4431290346
3.4961966498 -26.25 -0.494363191
2.2343523972 -26.25 -0.4835639626
1.2685350467 -26.25 -0.4162960522
0.6016927095 -26.25 -0.314567384
0.182549539 -26.25 -0.1860917551
0 -26.25 0
0.1721157477 -26.25 0.1942716028
0.5862953303 -26.25 0.3371518623
1.2524347879 -26.25 0.449009307
2.2202865686 -26.25 0.5158813122
3.4848508991 -26.25 0.5223016536
4.940127388 -26.25 0.4652905892
6.3931061785 -26.25 0.3653601865
7.6528931196 -26.25 0.2546047946
8.618365563699999 -26.25 0.1573301367
9.2905638782 -26.25 0.0835395902
9.727890886599999 -26.25 0.0327559945
10 -27.5 0
9.728271621599999 -27.5 -0.0314613862
9.291568503200001 -27.5 -0.080186666
8.6203561427 -27.5 -0.1508647816
7.6563536064 -27.5 -0.243775504
6.3985818389 -27.5 -0.3490464382
4.9480867116 -27.5 -0.443050272
3.4955195359 -27.5 -0.4948306547
2.2335300724 -27.5 -0.4849146293
1.2675494862 -27.5 -0.4184958235
0.6007176391 -27.5 -0.3162856008
0.1818487985 -27.5 -0.1866938313
0 -27.5 0
0.1748929376 -27.5 0.1921470632
0.5904527196 -27.5 0.3313419197
1.2568159803 -27.5 0.44030466
2.2241528533 -27.5 0.5064595291
3.4879557021 -27.5 0.5134562965
4.9424179559 -27.5 0.4578246417
6.3946594314 -27.5 0.3597177566
7.6538605728 -27.5 0.250778161
8.618914884100001 -27.5 0.1550103905
9.2908382039 -27.5 0.0823238345
9.7279940501 -27.5 0.0322833238
10 -28.75 0
9.728235999400001 -28.75 -0.0313996843
9.2914776792 -28.75 -0.0800394946
8.6201848337 -28.75 -0.1506178398
7.6560745427 -28.75 -0.2434501989
6.3981738881 -28.75 -0.3487396674
4.9475429017 -28.75 -0.4429715094
3.494842422 -28.75 -0.4952981185
2.2327077476 -28.75 -0.486265296
1.2665639256 -28.75 -0.4206955947
0.5997425687 -28.75 -0.3180038176
0.181148058 -28.75 -0.1872959076
0 -28.75 0
0.1776701276 -28.75 0.1900225235
0.5946101089 -28.75 0.3255319771
1.2611971727 -28.75 0.431600013
2.228019138 -28.75 0.4970377459
3.4910605051 -28.75 0.5046109394
4.9447085238 -28.75 0.4503586942
6.3962126844 -28.75 0.3540753266
7.6548280259 -28.75 0.2469515274
8.6194642044 -28.75 0.1526906443
9.291112529499999 -28.75 0.08110807890000001
9.7280972136 -28.75 0.0318106531
10 -30 0
9.7282003772 -30 -0.0313379823
9.291386855200001 -30 -0.0798923233
8.620013524699999 -30 -0.150370898
7.6557954791 -30 -0.2431248938
6.3977659373 -30 -0.3484328966
4.9469990917 -30 -0.4428927467
3.4941653081 -30 -0.4957655822
2.2318854228 -30 -0.4876159627
1.2655783651 -30 -0.422895366
0.5987674983 -30 -0.3197220345
0.1804473175 -30 -0.1878979839
0 -30 0
0.1804473175 -30 0.1878979839
0.5987674983 -30 0.3197220345
1.2655783651 -30 0.422895366
2.2318854228 -30 0.4876159627
3.4941653081 -30 0.4957655822
4.9469990917 -30 0.4428927467
6.3977659373 -30 0.3484328966
7.6557954791 -30 0.2431248938
8.620013524699999 -30 0.150370898
9.291386855200001 -30 0.0798923233
9.7282003772 -30 0.0313379823
9.7282003772 -30 -0.0156689912
9.291386855200001 -30 -0.0399461616
8.620013524699999 -30 -0.075185449
7.6557954791 -30 -0.1215624469
6.3977659373 -30 -0.1742164483
4.9469990917 -30 -0.2214463734
3.4941653081 -30 -0.2478827911
2.2318854228 -30 -0.2438079814
1.2655783651 -30 -0.211447683
0.5987674983 -30 -0.1598610172
0.1804473175 -30 -0.0939489919
0.1804473175 -30 0.0939489919
0.5987674983 -30 0.1598610172
1.2655783651 -30 0.211447683
2.2318854228 -30 0.2438079814
3.4941653081 -30 0.2478827911
4.9469990917 -30 0.2214463734
6.3977659373 -30 0.1742164483
7.6557954791 -30 0.1215624469
8.620013524699999 -30 0.075185449
9.291386855200001 -30 0.0399461616
9.7282003772 -30 0.0156689912
9.7282003772 -30 0
9.291386855200001 -30 0
8.620013524699999 -30 0
7.6557954791 -30 0
6.3977659373 -30 0
4.9469990917 -30 0
3.4941653081 -30 0
2.2318854228 -30 -0
1.2655783651 -30 -0
0.5987674983 -30 -0
0.1804473175 -30 -0
$EndNodes
$Elements
1 2480 1 2480
2 0 2 2480
1 1 3 2 
2 3 4 2 
3 2 4 5 
4 4 6 5 
5 5 6 7 
6 6 8 7 
7 7 8 9 
8 8 10 9 
9 9 10 11 
10 10 12 11 
11 11 12 13 
12 12 14 13 
13 13 14 15 
14 13 15 16 
15 16 15 17 
16 16 17 18 
17 18 17 19 
18 18 19 20 
19 20 19 21 
20 20 21 22 
21 22 21 23 
22 22 23 24 
23 24 23 25 
24 24 25 26 
25 26 25 27 
26 25 28 27 
27 27 28 29 
28 28 30 29 
29 29 30 31 
30 30 32 31 
31 31 32 33 
32 32 34 33 
33 33 34 35 
34 34 36 35 
35 35 36 37 
36 36 38 37 
37 37 38 39 
38 37 39 40 
39 40 39 41 
40 40 41 42 
41 42 41 43 
42 42 43 44 
43 44 43 45 
44 44 45 46 
45 46 45 47 
46 46 47 48 
47 48 47 3 
48 48 3 1 
49 3 49 4 
50 49 50 4 
51 4 50 6 
52 50 51 6 
53 6 51 8 
54 51 52 8 
55 8 52 10 
56 52 53 10 
57 10 53 12 
58 53 54 12 
59 12 54 14 
60 54 55 14 
61 14 55 56 
62 14 56 15 
63 15 56 57 
64 15 57 17 
65 17 57 58 
66 17 58 19 
67 19 58 59 
68 19 59 21 
69 21 59 60 
70 21 60 23 
71 23 60 61 
72 23 61 25 
73 25 61 28 
74 61 62 28 
75 28 62 30 
76 62 63 30 
77 30 63 32 
78 63 64 32 
79 32 64 34 
80 64 65 34 
81 34 65 36 
82 65 66 36 
83 36 66 38 
84 66 67 38 
85 38 67 68 
86 38 68 39 
87 39 68 69 
88 39 69 41 
89 41 69 70 
90 41 70 43 
91 43 70 71 
92 43 71 45 
93 45 71 72 
94 45 72 47 
95 47 72 49 
96 47 49 3 
97 49 73 50 
98 73 74 50 
99 50 74 51 
100 74 75 51 
101 51 75 52 
102 75 76 52 
103 52 76 53 
104 76 77 53 
105 53 77 54 
106 77 78 54 
107 54 78 55 
108 78 79 55 
109 55 79 80 
110 55 80 56 
111 56 80 81 
112 56 81 57 
113 57 81 82 
114 57 82 58 
115 58 82 83 
116 58 83 59 
117 59 83 84 
118 59 84 60 
119 60 84 85 
120 60 85 61 
121 61 85 62 
122 85 86 62 
123 62 86 63 
124 86 87 63 
125 63 87 64 
126 87 88 64 
127 64 88 65 
128 88 89 65 
129 65 89 66 
130 89 90 66 
131 66 90 67 
132 90 91 67 
133 67 91 92 
134 67 92 68 
135 68 92 93 
136 68 93 69 
137 69 93 94 
138 69 94 70 
139 70 94 95 
140 70 95 71 
141 71 95 96 
142 71 96 72 
143 72 96 73 
144 72 73 49 
145 73 97 74 
146 97 98 74 
147 74 98 75 
148 98 99 75 
149 75 99 76 
150 99 100 76 
151 76 100 77 
152 100 101 77 
153 77 101 78 
154 101 102 78 
155 78 102 79 
156 102 103 79 
157 79 103 104 
158 79 104 80 
159 80 104 105 
160 80 105 81 
161 81 105 106 
162 81 106 82 
163 82 106 107 
164 82 107 83 
165 83 107 108 
166 83 108 84 
167 84 108 109 
168 84 109 85 
169 85 109 86 
170 109 110 86 
171 86 110 87 
172 110 111 87 
173 87 111 88 
174 111 112 88 
175 88 112 89 
176 112 113 89 
177 89 113 90 
178 113 114 90 
179 90 114 91 
180 114 115 91 
181 91 115 116 
182 91 116 92 
183 92 116 117 
184 92 117 93 
185 93 117 118 
186 93 118 94 
187 94 118 119 
188 94 119 95 
189 95 119 120 
190 95 120 96 
191 96 120 97 
192 96 97 73 
193 97 121 98 
194 121 122 98 
195 98 122 99 
196 122 123 99 
197 99 123 100 
198 123 124 100 
199 100 124 101 
200 124 125 101 
201 101 125 102 
202 125 126 102 
203 102 126 103 
204 126 127 103 
205 103 127 128 
206 103 128 104 
207 104 128 129 
208 104 129 105 
209 105 129 130 
210 105 130 106 
211 106 130 131 
212 106 131 107 
213 107 131 132 
214 107 132 108 
215 108 132 133 
216 108 133 109 
217 109 133 110 
218 133 134 110 
219 110 134 111 
220 134 135 111 
221 111 135 112 
222 135 136 112 
223 112 136 113 
224 136 137 113 
225 113 137 114 
226 137 138 114 
227 114 138 115 
228 138 139 115 
229 115 139 140 
230 115 140 116 
231 116 140 141 
232 116 141 117 
233 117 141 142 
234 117 142 118 
235 118 142 143 
236 118 143 119 
237 119 143 144 
238 119 144 120 
239 120 144 121 
240 120 121 97 
241 121 145 122 
242 145 146 122 
243 122 146 123 
244 146 147 123 
245 123 147 124 
246 147 148 124 
247 124 148 125 
248 148 149 125 
249 125 149 126 
250 149 150 126 
251 126 150 127 
252 150 151 127 
253 127 151 152 
254 127 152 128 
255 128 152 153 
256 128 153 129 
257 129 153 154 
258 129 154 130 
259 130 154 155 
260 130 155 131 
261 131 155 156 
262 131 156 132 
263 132 156 157 
264 132 157 133 
265 133 157 134 
266 157 158 134 
267 134 158 135 
268 158 159 135 
269 135 159 136 
270 159 160 136 
271 136 160 137 
272 160 161 137 
273 137 161 138 
274 161 162 138 
275 138 162 139 
276 162 163 139 
277 139 163 164 
278 139 164 140 
279 140 164 165 
280 140 165 141 
281 141 165 166 
282 141 166 142 
283 142 166 167 
284 142 167 143 
285 143 167 168 
286 143 168 144 
287 144 168 145 
288 144 145 121 
289 145 169 146 
290 169 170 146 
291 146 170 147 
292 170 171 147 
293 147 171 148 
294 171 172 148 
295 148 172 149 
296 172 173 149 
297 149 173 150 
298 173 174 150 
299 150 174 151 
300 174 175 151 
301 151 175 176 
302 151 176 152 
303 152 176 177 
304 152 177 153 
305 153 177 178 
306 153 178 154 
307 154 178 179 
308 154 179 155 
309 155 179 180 
310 155 180 156 
311 156 180 181 
312 156 181 157 
313 157 181 158 
314 181 182 158 
315 158 182 159 
316 182 183 159 
317 159 183 160 
318 183 184 160 
319 160 184 161 
320 184 185 161 
321 161 185 162 
322 185 186 162 
323 162 186 163 
324 186 187 163 
325 163 187 188 
326 163 188 164 
327 164 188 189 
328 164 189 165 
329 165 189 190 
330 165 190 166 
331 166 190 191 
332 166 191 167 
333 167 191 192 
334 167 192 168 
335 168 192 169 
336 168 169 145 
337 169 193 170 
338 193 194 170 
339 170 194 171 
340 194 195 171 
341 171 195 172 
342 195 196 172 
343 172 196 173 
344 196 197 173 
345 173 197 174 
346 197 198 174 
347 174 198 175 
348 198 199 175 
349 175 199 200 
350 175 200 176 
351 176 200 201 
352 176 201 177 
353 177 201 202 
354 177 202 178 
355 178 202 203 
356 178 203 179 
357 179 203 204 
358 179 204 180 
359 180 204 205 
360 180 205 181 
361 181 205 182 
362 205 206 182 
363 182 206 183 
364 206 207 183 
365 183 207 184 
366 207 208 184 
367 184 208 185 
368 208 209 185 
369 185 209 186 
370 209 210 186 
371 186 210 187 
372 210 211 187 
373 187 211 212 
374 187 212 188 
375 188 212 213 
376 188 213 189 
377 189 213 214 
378 189 214 190 
379 190 214 215 
380 190 215 191 
381 191 215 216 
382 191 216 192 
383 192 216 193 
384 192 193 169 
385 193 217 194 
386 217 218 194 
387 194 218 195 
388 218 219 195 
389 195 219 196 
390 219 220 196 
391 196 220 197 
392 220 221 197 
393 197 221 198 
394 221 222 198 
395 198 222 199 
396 222 223 199 
397 199 223 224 
398 199 224 200 
399 200 224 225 
400 200 225 201 
401 201 225 226 
402 201 226 202 
403 202 226 227 
404 202 227 203 
405 203 227 228 
406 203 228 204 
407 204 228 229 
408 204 229 205 
409 205 229 206 
410 229 230 206 
411 206 230 207 
412 230 231 207 
413 207 231 208 
414 231 232 208 
415 208 232 209 
416 232 233 209 
417 209 233 210 
418 233 234 210 
419 210 234 211 
420 234 235 211 
421 211 235 236 
422 211 236 212 
423 212 236 237 
424 212 237 213 
425 213 237 238 
426 213 238 214 
427 214 238 239 
428 214 239 215 
429 215 239 240 
430 215 240 216 
431 216 240 217 
432 216 217 193 
433 217 241 218 
434 241 242 218 
435 218 242 219 
436 242 243 219 
437 219 243 220 
438 243 244 220 
439 220 244 221 
440 244 245 221 
441 221 245 222 
442 245 246 222 
443 222 246 223 
444 246 247 223 
445 223 247 248 
446 223 248 224 
447 224 248 249 
448 224 249 225 
449 225 249 250 
450 225 250 226 
451 226 250 251 
452 226 251 227 
453 227 251 252 
454 227 252 228 
455 228 252 253 
456 228 253 229 
457 229 253 230 
458 253 254 230 
459 230 254 231 
460 254 255 231 
461 231 255 232 
462 255 256 232 
463 232 256 233 
464 256 257 233 
465 233 257 234 
466 257 258 234 
467 234 258 235 
468 258 259 235 
469 235 259 260 
470 235 260 236 
471 236 260 261 
472 236 261 237 
473 237 261 262 
474 237 262 238 
475 238 262 263 
476 238 263 239 
477 239 263 264 
478 239 264 240 
479 240 264 241 
480 240 241 217 
481 241 265 242 
482 265 266 242 
483 242 266 243 
484 266 267 243 
485 243 267 244 
486 267 268 244 
487 244 268 245 
488 268 269 245 
489 245 269 246 
490 269 270 246 
491 246 270 247 
492 270 271 247 
493 247 271 272 
494 247 272 248 
495 248 272 273 
496 248 273 249 
497 249 273 274 
498 249 274 250 
499 250 274 275 
500 250 275 251 
501 251 275 276 
502 251 276 252 
503 252 276 277 
504 252 277 253 
505 253 277 254 
506 277 278 254 
507 254 278 255 
508 278 279 255 
509 255 279 256 
510 279 280 256 
511 256 280 257 
512 280 281 257 
513 257 281 258 
514 281 282 258 
515 258 282 259 
516 282 283 259 
517 259 283 284 
518 259 284 260 
519 260 284 285 
520 260 285 261 
521 261 285 286 
522 261 286 262 
523 262 286 287 
524 262 287 263 
525 263 287 288 
526 263 288 264 
527 264 288 265 
528 264 265 241 
529 265 289 266 
530 289 290 266 
531 266 290 267 
532 290 291 267 
533 267 291 268 
534 291 292 268 
535 268 292 269 
536 292 293 269 
537 269 293 270 
538 293 294 270 
539 270 294 271 
540 294 295 271 
541 271 295 296 
542 271 296 272 
543 272 296 297 
544 272 297 273 
545 273 297 298 
546 273 298 274 
547 274 298 299 
548 274 299 275 
549 275 299 300 
550 275 300 276 
551 276 300 301 
552 276 301 277 
553 277 301 278 
554 301 302 278 
555 278 302 279 
556 302 303 279 
557 279 303 280 
558 303 304 280 
559 280 304 281 
560 304 305 281 
561 281 305 282 
562 305 306 282 
563 282 306 283 
564 306 307 283 
565 283 307 308 
566 283 308 284 
567 284 308 309 
568 284 309 285 
569 285 309 310 
570 285 310 286 
571 286 310 311 
572 286 311 287 
573 287 311 312 
574 287 312 288 
575 288 312 289 
576 288 289 265 
577 289 313 290 
578 313 314 290 
579 290 314 291 
580 314 315 291 
581 291 315 292 
582 315 316 292 
583 292 316 293 
584 316 317 293 
585 293 317 294 
586 317 318 294 
587 294 318 295 
588 318 319 295 
589 295 319 320 
590 295 320 296 
591 296 320 321 
592 296 321 297 
593 297 321 322 
594 297 322 298 
595 298 322 323 
596 298 323 299 
597 299 323 324 
598 299 324 300 
599 300 324 325 
600 300 325 301 
601 301 325 302 
602 325 326 302 
603 302 326 303 
604 326 327 303 
605 303 327 304 
606 327 328 304 
607 304 328 305 
608 328 329 305 
609 305 329 306 
610 329 330 306 
611 306 330 307 
612 330 331 307 
613 307 331 332 
614 307 332 308 
615 308 332 333 
616 308 333 309 
617 309 333 334 
618 309 334 310 
619 310 334 335 
620 310 335 311 
621 311 335 336 
622 311 336 312 
623 312 336 313 
624 312 313 289 
625 313 337 314 
626 337 338 314 
627 314 338 315 
628 338 339 315 
629 315 339 316 
630 339 340 316 
631 316 340 317 
632 340 341 317 
633 317 341 318 
634 341 342 318 
635 318 342 319 
636 342 343 319 
637 319 343 344 
638 319 344 320 
639 320 344 345 
640 320 345 321 
641 321 345 346 
642 321 346 322 
643 322 346 347 
644 322 347 323 
645 323 347 348 
646 323 348 324 
647 324 348 349 
648 324 349 325 
649 325 349 326 
650 349 350 326 
651 326 350 327 
652 350 351 327 
653 327 351 328 
654 351 352 328 
655 328 352 329 
656 352 353 329 
657 329 353 330 
658 353 354 330 
659 330 354 331 
660 354 355 331 
661 331 355 356 
662 331 356 332 
663 332 356 357 
664 332 357 333 
665 333 357 358 
666 333 358 334 
667 334 358 359 
668 334 359 335 
669 335 359 360 
670 335 360 336 
671 336 360 337 
672 336 337 313 
673 337 361 338 
674 361 362 338 
675 338 362 339 
676 362 363 339 
677 339 363 340 
678 363 364 340 
679 340 364 341 
680 364 365 341 
681 341 365 342 
682 365 366 342 
683 342 366 343 
684 366 367 343 
685 343 367 368 
686 343 368 344 
687 344 368 369 
688 344 369 345 
689 345 369 370 
690 345 370 346 
691 346 370 371 
692 346 371 347 
693 347 371 372 
694 347 372 348 
695 348 372 373 
696 348 373 349 
697 349 373 350 
698 373 374 350 
699 350 374 351 
700 374 375 351 
701 351 375 352 
702 375 376 352 
703 352 376 353 
704 376 377 353 
705 353 377 354 
706 377 378 354 
707 354 378 355 
708 378 379 355 
709 355 379 380 
710 355 380 356 
711 356 380 381 
712 356 381 357 
713 357 381 382 
714 357 382 358 
715 358 382 383 
716 358 383 359 
717 359 383 384 
718 359 384 360 
719 360 384 361 
720 360 361 337 
721 361 385 362 
722 385 386 362 
723 362 386 363 
724 386 387 363 
725 363 387 364 
726 387 388 364 
727 364 388 365 
728 388 389 365 
729 365 389 366 
730 389 390 366 
731 366 390 367 
732 390 391 367 
733 367 391 392 
734 367 392 368 
735 368 392 393 
736 368 393 369 
737 369 393 394 
738 369 394 370 
739 370 394 395 
740 370 395 371 
741 371 395 396 
742 371 396 372 
743 372 396 397 
744 372 397 373 
745 373 397 374 
746 397 398 374 
747 374 398 375 
748 398 399 375 
749 375 399 376 
750 399 400 376 
751 376 400 377 
752 400 401 377 
753 377 401 378 
754 401 402 378 
755 378 402 379 
756 402 403 379 
757 379 403 404 
758 379 404 380 
759 380 404 405 
760 380 405 381 
761 381 405 406 
762 381 406 382 
763 382 406 407 
764 382 407 383 
765 383 407 408 
766 383 408 384 
767 384 408 385 
768 384 385 361 
769 385 409 386 
770 409 410 386 
771 386 410 387 
772 410 411 387 
773 387 411 388 
774 411 412 388 
775 388 412 389 
776 412 413 389 
777 389 413 390 
778 413 414 390 
779 390 414 391 
780 414 415 391 
781 391 415 416 
782 391 416 392 
783 392 416 417 
784 392 417 393 
785 393 417 418 
786 393 418 394 
787 394 418 419 
788 394 419 395 
789 395 419 420 
790 395 420 396 
791 396 420 421 
792 396 421 397 
793 397 421 398 
794 421 422 398 
795 398 422 399 
796 422 423 399 
797 399 423 400 
798 423 424 400 
799 400 424 401 
800 424 425 401 
801 401 425 402 
802 425 426 402 
803 402 426 403 
804 426 427 403 
805 403 427 428 
806 403 428 404 
807 404 428 429 
808 404 429 405 
809 405 429 430 
810 405 430 406 
811 406 430 431 
812 406 431 407 
813 407 431 432 
814 407 432 408 
815 408 432 409 
816 408 409 385 
817 409 433 410 
818 433 434 410 
819 410 434 411 
820 434 435 411 
821 411 435 412 
822 435 436 412 
823 412 436 413 
824 436 437 413 
825 413 437 414 
826 437 438 414 
827 414 438 415 
828 438 439 415 
829 415 439 440 
830 415 440 416 
831 416 440 441 
832 416 441 417 
833 417 441 442 
834 417 442 418 
835 418 442 443 
836 418 443 419 
837 419 443 444 
838 419 444 420 
839 420 444 445 
840 420 445 421 
841 421 445 422 
842 445 446 422 
843 422 446 423 
844 446 447 423 
845 423 447 424 
846 447 448 424 
847 424 448 425 
848 448 449 425 
849 425 449 426 
850 449 450 426 
851 426 450 427 
852 450 451 427 
853 427 451 452 
854 427 452 428 
855 428 452 453 
856 428 453 429 
857 429 453 454 
858 429 454 430 
859 430 454 455 
860 430 455 431 
861 431 455 456 
862 431 456 432 
863 432 456 433 
864 432 433 409 
865 433 457 434 
866 457 458 434 
867 434 458 435 
868 458 459 435 
869 435 459 436 
870 459 460 436 
871 436 460 437 
872 460 461 437 
873 437 461 438 
874 461 462 438 
875 438 462 439 
876 462 463 439 
877 439 463 464 
878 439 464 440 
879 440 464 465 
880 440 465 441 
881 441 465 466 
882 441 466 442 
883 442 466 467 
884 442 467 443 
885 443 467 468 
886 443 468 444 
887 444 468 469 
888 444 469 445 
889 445 469 446 
890 469 470 446 
891 446 470 447 
892 470 471 447 
893 447 471 448 
894 471 472 448 
895 448 472 449 
896 472 473 449 
897 449 473 450 
898 473 474 450 
899 450 474 451 
900 474 475 451 
901 451 475 476 
902 451 476 452 
903 452 476 477 
904 452 477 453 
905 453 477 478 
906 453 478 454 
907 454 478 479 
908 454 479 455 
909 455 479 480 
910 455 480 456 
911 456 480 457 
912 456 457 433 
913 457 481 458 
914 481 482 458 
915 458 482 459 
916 482 483 459 
917 459 483 460 
918 483 484 460 
919 460 484 461 
920 484 485 461 
921 461 485 462 
922 485 486 462 
923 462 486 463 
924 486 487 463 
925 463 487 488 
926 463 488 464 
927 464 488 489 
928 464 489 465 
929 465 489 490 
930 465 490 466 
931 466 490 491 
932 466 491 467 
933 467 491 492 
934 467 492 468 
935 468 492 493 
936 468 493 469 
937 469 493 470 
938 493 494 470 
939 470 494 471 
940 494 495 471 
941 471 495 472 
942 495 496 472 
943 472 496 473 
944 496 497 473 
945 473 497 474 
946 497 498 474 
947 474 498 475 
948 498 499 475 
949 475 499 500 
950 475 500 476 
951 476 500 501 
952 476 501 477 
953 477 501 502 
954 477 502 478 
955 478 502 503 
956 478 503 479 
957 479 503 504 
958 479 504 480 
959 480 504 481 
960 480 481 457 
961 481 505 482 
962 505 506 482 
963 482 506 483 
964 506 507 483 
965 483 507 484 
966 507 508 484 
967 484 508 485 
968 508 509 485 
969 485 509 486 
970 509 510 486 
971 486 510 487 
972 510 511 487 
973 487 511 512 
974 487 512 488 
975 488 512 513 
976 488 513 489 
977 489 513 514 
978 489 514 490 
979 490 514 515 
980 490 515 491 
981 491 515 516 
982 491 516 492 
983 492 516 517 
984 492 517 493 
985 493 517 494 
986 517 518 494 
987 494 518 495 
988 518 519 495 
989 495 519 496 
990 519 520 496 
991 496 520 497 
992 520 521 497 
993 497 521 498 
994 521 522 498 
995 498 522 499 
996 522 523 499 
997 499 523 524 
998 499 524 500 
999 500 524 525 
1000 500 525 501 
1001 501 525 526 
1002 501 526 502 
1003 502 526 527 
1004 502 527 503 
1005 503 527 528 
1006 503 528 504 
1007 504 528 505 
1008 504 505 481 
1009 505 529 506 
1010 529 530 506 
1011 506 530 507 
1012 530 531 507 
1013 507 531 508 
1014 531 532 508 
1015 508 532 509 
1016 532 533 509 
1017 509 533 510 
1018 533 534 510 
1019 510 534 511 
1020 534 535 511 
1021 511 535 536 
1022 511 536 512 
1023 512 536 537 
1024 512 537 513 
1025 513 537 538 
1026 513 538 514 
1027 514 538 539 
1028 514 539 515 
1029 515 539 540 
1030 515 540 516 
1031 516 540 541 
1032 516 541 517 
1033 517 541 518 
1034 541 542 518 
1035 518 542 519 
1036 542 543 519 
1037 519 543 520 
1038 543 544 520 
1039 520 544 521 
1040 544 545 521 
1041 521 545 522 
1042 545 546 522 
1043 522 546 523 
1044 546 547 523 
1045 523 547 548 
1046 523 548 524 
1047 524 548 549 
1048 524 549 525 
1049 525 549 550 
1050 525 550 526 
1051 526 550 551 
1052 526 551 527 
1053 527 551 552 
1054 527 552 528 
1055 528 552 529 
1056 528 529 505 
1057 529 553 530 
1058 553 554 530 
1059 530 554 531 
1060 554 555 531 
1061 531 555 532 
1062 555 556 532 
1063 532 556 533 
1064 556 557 533 
1065 533 557 534 
1066 557 558 534 
1067 534 558 535 
1068 558 559 535 
1069 535 559 560 
1070 535 560 536 
1071 536 560 561 
1072 536 561 537 
1073 537 561 562 
1074 537 562 538 
1075 538 562 563 
1076 538 563 539 
1077 539 563 564 
1078 539 564 540 
1079 540 564 565 
1080 540 565 541 
1081 541 565 542 
1082 565 566 542 
1083 542 566 543 
1084 566 567 543 
1085 543 567 544 
1086 567 568 544 
1087 544 568 545 
1088 568 569 545 
1089 545 569 546 
1090 569 570 546 
1091 546 570 547 
1092 570 571 547 
1093 547 571 572 
1094 547 572 548 
1095 548 572 573 
1096 548 573 549 
1097 549 573 574 
1098 549 574 550 
1099 550 574 575 
1100 550 575 551 
1101 551 575 576 
1102 551 576 552 
1103 552 576 553 
1104 552 553 529 
1105 553 577 554 
1106 577 578 554 
1107 554 578 555 
1108 578 579 555 
1109 555 579 556 
1110 579 580 556 
1111 556 580 557 
1112 580 581 557 
1113 557 581 558 
1114 581 582 558 
1115 558 582 559 
1116 582 583 559 
1117 559 583 584 
1118 559 584 560 
1119 560 584 585 
1120 560 585 561 
1121 561 585 586 
1122 561 586 562 
1123 562 586 587 
1124 562 587 563 
1125 563 587 588 
1126 563 588 564 
1127 564 588 589 
1128 564 589 565 
1129 565 589 566 
1130 589 590 566 
1131 566 590 567 
1132 590 591 567 
1133 567 591 568 
1134 591 592 568 
1135 568 592 569 
1136 592 593 569 
1137 569 593 570 
1138 593 594 570 
1139 570 594 571 
1140 594 595 571 
1141 571 595 596 
1142 571 596 572 
1143 572 596 597 
1144 572 597 573 
1145 573 597 598 
1146 573 598 574 
1147 574 598 599 
1148 574 599 575 
1149 575 599 600 
1150 575 600 576 
1151 576 600 577 
1152 576 577 553 
1153 577 601 578 
1154 578 601 602 
1155 578 602 579 
1156 579 602 603 
1157 579 603 580 
1158 580 603 604 
1159 580 604 581 
1160 581 604 605 
1161 581 605 582 
1162 582 605 606 
1163 582 606 583 
1164 583 606 584 
1165 606 607 584 
1166 584 607 585 
1167 607 608 585 
1168 585 608 586 
1169 608 609 586 
1170 586 609 587 
1171 609 610 587 
1172 587 610 588 
1173 610 611 588 
1174 588 611 589 
1175 589 612 590 
1176 590 612 613 
1177 590 613 591 
1178 591 613 614 
1179 591 614 592 
1180 592 614 615 
1181 592 615 593 
1182 593 615 616 
1183 593 616 594 
1184 594 616 617 
1185 594 617 595 
1186 595 617 596 
1187 617 618 596 
1188 596 618 597 
1189 618 619 597 
1190 597 619 598 
1191 619 620 598 
1192 598 620 599 
1193 620 621 599 
1194 599 621 600 
1195 621 622 600 
1196 600 622 577 
1197 577 623 601 
1198 601 623 624 
1199 601 624 602 
1200 602 624 625 
1201 602 625 603 
1202 603 625 626 
1203 603 626 604 
1204 604 626 627 
1205 604 627 605 
1206 605 627 628 
1207 605 628 606 
1208 606 628 607 
1209 628 629 607 
1210 607 629 608 
1211 629 630 608 
1212 608 630 609 
1213 630 631 609 
1214 609 631 610 
1215 631 632 610 
1216 610 632 611 
1217 632 633 611 
1218 611 633 589 
1219 589 633 612 
1220 612 633 632 
1221 612 632 613 
1222 613 632 631 
1223 613 631 614 
1224 614 631 630 
1225 614 630 615 
1226 615 630 629 
1227 615 629 616 
1228 616 629 628 
1229 616 628 617 
1230 617 628 618 
1231 628 627 618 
1232 618 627 619 
1233 627 626 619 
1234 619 626 620 
1235 626 625 620 
1236 620 625 621 
1237 625 624 621 
1238 621 624 622 
1239 624 623 622 
1240 622 623 577 
1241 1 2 634 
1242 634 2 635 
1243 2 5 635 
1244 635 5 636 
1245 5 7 636 
1246 636 7 637 
1247 7 9 637 
1248 637 9 638 
1249 9 11 638 
1250 638 11 639 
1251 11 13 639 
1252 639 13 640 
1253 13 641 640 
1254 13 16 641 
1255 16 642 641 
1256 16 18 642 
1257 18 643 642 
1258 18 20 643 
1259 20 644 643 
1260 20 22 644 
1261 22 645 644 
1262 22 24 645 
1263 24 646 645 
1264 24 26 646 
1265 26 27 646 
1266 646 27 647 
1267 27 29 647 
1268 647 29 648 
1269 29 31 648 
1270 648 31 649 
1271 31 33 649 
1272 649 33 650 
1273 33 35 650 
1274 650 35 651 
1275 35 37 651 
1276 651 37 652 
1277 37 653 652 
1278 37 40 653 
1279 40 654 653 
1280 40 42 654 
1281 42 655 654 
1282 42 44 655 
1283 44 656 655 
1284 44 46 656 
1285 46 657 656 
1286 46 48 657 
1287 48 634 657 
1288 48 1 634 
1289 634 635 658 
1290 658 635 659 
1291 635 636 659 
1292 659 636 660 
1293 636 637 660 
1294 660 637 661 
1295 637 638 661 
1296 661 638 662 
1297 638 639 662 
1298 662 639 663 
1299 639 640 663 
1300 663 640 664 
1301 640 665 664 
1302 640 641 665 
1303 641 666 665 
1304 641 642 666 
1305 642 667 666 
1306 642 643 667 
1307 643 668 667 
1308 643 644 668 
1309 644 669 668 
1310 644 645 669 
1311 645 670 669 
1312 645 646 670 
1313 646 647 670 
1314 670 647 671 
1315 647 648 671 
1316 671 648 672 
1317 648 649 672 
1318 672 649 673 
1319 649 650 673 
1320 673 650 674 
1321 650 651 674 
1322 674 651 675 
1323 651 652 675 
1324 675 652 676 
1325 652 677 676 
1326 652 653 677 
1327 653 678 677 
1328 653 654 678 
1329 654 679 678 
1330 654 655 679 
1331 655 680 679 
1332 655 656 680 
1333 656 681 680 
1334 656 657 681 
1335 657 658 681 
1336 657 634 658 
1337 658 659 682 
1338 682 659 683 
1339 659 660 683 
1340 683 660 684 
1341 660 661 684 
1342 684 661 685 
1343 661 662 685 
1344 685 662 686 
1345 662 663 686 
1346 686 663 687 
1347 663 664 687 
1348 687 664 688 
1349 664 689 688 
1350 664 665 689 
1351 665 690 689 
1352 665 666 690 
1353 666 691 690 
1354 666 667 691 
1355 667 692 691 
1356 667 668 692 
1357 668 693 692 
1358 668 669 693 
1359 669 694 693 
1360 669 670 694 
1361 670 671 694 
1362 694 671 695 
1363 671 672 695 
1364 695 672 696 
1365 672 673 696 
1366 696 673 697 
1367 673 674 697 
1368 697 674 698 
1369 674 675 698 
1370 698 675 699 
1371 675 676 699 
1372 699 676 700 
1373 676 701 700 
1374 676 677 701 
1375 677 702 701 
1376 677 678 702 
1377 678 703 702 
1378 678 679 703 
1379 679 704 703 
1380 679 680 704 
1381 680 705 704 
1382 680 681 705 
1383 681 682 705 
1384 681 658 682 
1385 682 683 706 
1386 706 683 707 
1387 683 684 707 
1388 707 684 708 
1389 684 685 708 
1390 708 685 709 
1391 685 686 709 
1392 709 686 710 
1393 686 687 710 
1394 710 687 711 
1395 687 688 711 
1396 711 688 712 
1397 688 713 712 
1398 688 689 713 
1399 689 714 713 
1400 689 690 714 
1401 690 715 714 
1402 690 691 715 
1403 691 716 715 
1404 691 692 716 
1405 692 717 716 
1406 692 693 717 
1407 693 718 717 
1408 693 694 718 
1409 694 695 718 
1410 718 695 719 
1411 695 696 719 
1412 719 696 720 
1413 696 697 720 
1414 720 697 721 
1415 697 698 721 
1416 721 698 722 
1417 698 699 722 
1418 722 699 723 
1419 699 700 723 
1420 723 700 724 
1421 700 725 724 
1422 700 701 725 
1423 701 726 725 
1424 701 702 726 
1425 702 727 726 
1426 702 703 727 
1427 703 728 727 
1428 703 704 728 
1429 704 729 728 
1430 704 705 729 
1431 705 706 729 
1432 705 682 706 
1433 706 707 730 
1434 730 707 731 
1435 707 708 731 
1436 731 708 732 
1437 708 709 732 
1438 732 709 733 
1439 709 710 733 
1440 733 710 734 
1441 710 711 734 
1442 734 711 735 
1443 711 712 735 
1444 735 712 736 
1445 712 737 736 
1446 712 713 737 
1447 713 738 737 
1448 713 714 738 
1449 714 739 738 
1450 714 715 739 
1451 715 740 739 
1452 715 716 740 
1453 716 741 740 
1454 716 717 741 
1455 717 742 741 
1456 717 718 742 
1457 718 719 742 
1458 742 719 743 
1459 719 720 743 
1460 743 720 744 
1461 720 721 744 
1462 744 721 745 
1463 721 722 745 
1464 745 722 746 
1465 722 723 746 
1466 746 723 747 
1467 723 724 747 
1468 747 724 748 
1469 724 749 748 
1470 724 725 749 
1471 725 750 749 
1472 725 726 750 
1473 726 751 750 
1474 726 727 751 
1475 727 752 751 
1476 727 728 752 
1477 728 753 752 
1478 728 729 753 
1479 729 730 753 
1480 729 706 730 
1481 730 731 754 
1482 754 731 755 
1483 731 732 755 
1484 755 732 756 
1485 732 733 756 
1486 756 733 757 
1487 733 734 757 
1488 757 734 758 
1489 734 735 758 
1490 758 735 759 
1491 735 736 759 
1492 759 736 760 
1493 736 761 760 
1494 736 737 761 
1495 737 762 761 
1496 737 738 762 
1497 738 763 762 
1498 738 739 763 
1499 739 764 763 
1500 739 740 764 
1501 740 765 764 
1502 740 741 765 
1503 741 766 765 
1504 741 742 766 
1505 742 743 766 
1506 766 743 767 
1507 743 744 767 
1508 767 744 768 
1509 744 745 768 
1510 768 745 769 
1511 745 746 769 
1512 769 746 770 
1513 746 747 770 
1514 770 747 771 
1515 747 748 771 
1516 771 748 772 
1517 748 773 772 
1518 748 749 773 
1519 749 774 773 
1520 749 750 774 
1521 750 775 774 
1522 750 751 775 
1523 751 776 775 
1524 751 752 776 
1525 752 777 776 
1526 752 753 777 
1527 753 754 777 
1528 753 730 754 
1529 754 755 778 
1530 778 755 779 
1531 755 756 779 
1532 779 756 780 
1533 756 757 780 
1534 780 757 781 
1535 757 758 781 
1536 781 758 782 
1537 758 759 782 
1538 782 759 783 
1539 759 760 783 
1540 783 760 784 
1541 760 785 784 
1542 760 761 785 
1543 761 786 785 
1544 761 762 786 
1545 762 787 786 
1546 762 763 787 
1547 763 788 787 
1548 763 764 788 
1549 764 789 788 
1550 764 765 789 
1551 765 790 789 
1552 765 766 790 
1553 766 767 790 
1554 790 767 791 
1555 767 768 791 
1556 791 768 792 
1557 768 769 792 
1558 792 769 793 
1559 769 770 793 
1560 793 770 794 
1561 770 771 794 
1562 794 771 795 
1563 771 772 795 
1564 795 772 796 
1565 772 797 796 
1566 772 773 797 
1567 773 798 797 
1568 773 774 798 
1569 774 799 798 
1570 774 775 799 
1571 775 800 799 
1572 775 776 800 
1573 776 801 800 
1574 776 777 801 
1575 777 778 801 
1576 777 754 778 
1577 778 779 802 
1578 802 779 803 
1579 779 780 803 
1580 803 780 804 
1581 780 781 804 
1582 804 781 805 
1583 781 782 805 
1584 805 782 806 
1585 782 783 806 
1586 806 783 807 
1587 783 784 807 
1588 807 784 808 
1589 784 809 808 
1590 784 785 809 
1591 785 810 809 
1592 785 786 810 
1593 786 811 810 
1594 786 787 811 
1595 787 812 811 
1596 787 788 812 
1597 788 813 812 
1598 788 789 813 
1599 789 814 813 
1600 789 790 814 
1601 790 791 814 
1602 814 791 815 
1603 791 792 815 
1604 815 792 816 
1605 792 793 816 
1606 816 793 817 
1607 793 794 817 
1608 817 794 818 
1609 794 795 818 
1610 818 795 819 
1611 795 796 819 
1612 819 796 820 
1613 796 821 820 
1614 796 797 821 
1615 797 822 821 
1616 797 798 822 
1617 798 823 822 
1618 798 799 823 
1619 799 824 823 
1620 799 800 824 
1621 800 825 824 
1622 800 801 825 
1623 801 802 825 
1624 801 778 802 
1625 802 803 826 
1626 826 803 827 
1627 803 804 827 
1628 827 804 828 
1629 804 805 828 
1630 828 805 829 
1631 805 806 829 
1632 829 806 830 
1633 806 807 830 
1634 830 807 831 
1635 807 808 831 
1636 831 808 832 
1637 808 833 832 
1638 808 809 833 
1639 809 834 833 
1640 809 810 834 
1641 810 835 834 
1642 810 811 835 
1643 811 836 835 
1644 811 812 836 
1645 812 837 836 
1646 812 813 837 
1647 813 838 837 
1648 813 814 838 
1649 814 815 838 
1650 838 815 839 
1651 815 816 839 
1652 839 816 840 
1653 816 817 840 
1654 840 817 841 
1655 817 818 841 
1656 841 818 842 
1657 818 819 842 
1658 842 819 843 
1659 819 820 843 
1660 843 820 844 
1661 820 845 844 
1662 820 821 845 
1663 821 846 845 
1664 821 822 846 
1665 822 847 846 
1666 822 823 847 
1667 823 848 847 
1668 823 824 848 
1669 824 849 848 
1670 824 825 849 
1671 825 826 849 
1672 825 802 826 
1673 826 827 850 
1674 850 827 851 
1675 827 828 851 
1676 851 828 852 
1677 828 829 852 
1678 852 829 853 
1679 829 830 853 
1680 853 830 854 
1681 830 831 854 
1682 854 831 855 
1683 831 832 855 
1684 855 832 856 
1685 832 857 856 
1686 832 833 857 
1687 833 858 857 
1688 833 834 858 
1689 834 859 858 
1690 834 835 859 
1691 835 860 859 
1692 835 836 860 
1693 836 861 860 
1694 836 837 861 
1695 837 862 861 
1696 837 838 862 
1697 838 839 862 
1698 862 839 863 
1699 839 840 863 
1700 863 840 864 
1701 840 841 864 
1702 864 841 865 
1703 841 842 865 
1704 865 842 866 
1705 842 843 866 
1706 866 843 867 
1707 843 844 867 
1708 867 844 868 
1709 844 869 868 
1710 844 845 869 
1711 845 870 869 
1712 845 846 870 
1713 846 871 870 
1714 846 847 871 
1715 847 872 871 
1716 847 848 872 
1717 848 873 872 
1718 848 849 873 
1719 849 850 873 
1720 849 826 850 
1721 850 851 874 
1722 874 851 875 
1723 851 852 875 
1724 875 852 876 
1725 852 853 876 
1726 876 853 877 
1727 853 854 877 
1728 877 854 878 
1729 854 855 878 
1730 878 855 879 
1731 855 856 879 
1732 879 856 880 
1733 856 881 880 
1734 856 857 881 
1735 857 882 881 
1736 857 858 882 
1737 858 883 882 
1738 858 859 883 
1739 859 884 883 
1740 859 860 884 
1741 860 885 884 
1742 860 861 885 
1743 861 886 885 
1744 861 862 886 
1745 862 863 886 
1746 886 863 887 
1747 863 864 887 
1748 887 864 888 
1749 864 865 888 
1750 888 865 889 
1751 865 866 889 
1752 889 866 890 
1753 866 867 890 
1754 890 867 891 
1755 867 868 891 
1756 891 868 892 
1757 868 893 892 
1758 868 869 893 
1759 869 894 893 
1760 869 870 894 
1761 870 895 894 
1762 870 871 895 
1763 871 896 895 
1764 871 872 896 
1765 872 897 896 
1766 872 873 897 
1767 873 874 897 
1768 873 850 874 
1769 874 875 898 
1770 898 875 899 
1771 875 876 899 
1772 899 876 900 
1773 876 877 900 
1774 900 877 901 
1775 877 878 901 
1776 901 878 902 
1777 878 879 902 
1778 902 879 903 
1779 879 880 903 
1780 903 880 904 
1781 880 905 904 
1782 880 881 905 
1783 881 906 905 
1784 881 882 906 
1785 882 907 906 
1786 882 883 907 
1787 883 908 907 
1788 883 884 908 
1789 884 909 908 
1790 884 885 909 
1791 885 910 909 
1792 885 886 910 
1793 886 887 910 
1794 910 887 911 
1795 887 888 911 
1796 911 888 912 
1797 888 889 912 
1798 912 889 913 
1799 889 890 913 
1800 913 890 914 
1801 890 891 914 
1802 914 891 915 
1803 891 892 915 
1804 915 892 916 
1805 892 917 916 
1806 892 893 917 
1807 893 918 917 
1808 893 894 918 
1809 894 919 918 
1810 894 895 919 
1811 895 920 919 
1812 895 896 920 
1813 896 921 920 
1814 896 897 921 
1815 897 898 921 
1816 897 874 898 
1817 898 899 922 
1818 922 899 923 
1819 899 900 923 
1820 923 900 924 
1821 900 901 924 
1822 924 901 925 
1823 901 902 925 
1824 925 902 926 
1825 902 903 926 
1826 926 903 927 
1827 903 904 927 
1828 927 904 928 
1829 904 929 928 
1830 904 905 929 
1831 905 930 929 
1832 905 906 930 
1833 906 931 930 
1834 906 907 931 
1835 907 932 931 
1836 907 908 932 
1837 908 933 932 
1838 908 909 933 
1839 909 934 933 
1840 909 910 934 
1841 910 911 934 
1842 934 911 935 
1843 911 912 935 
1844 935 912 936 
1845 912 913 936 
1846 936 913 937 
1847 913 914 937 
1848 937 914 938 
1849 914 915 938 
1850 938 915 939 
1851 915 916 939 
1852 939 916 940 
1853 916 941 940 
1854 916 917 941 
1855 917 942 941 
1856 917 918 942 
1857 918 943 942 
1858 918 919 943 
1859 919 944 943 
1860 919 920 944 
1861 920 945 944 
1862 920 921 945 
1863 921 922 945 
1864 921 898 922 
1865 922 923 946 
1866 946 923 947 
1867 923 924 947 
1868 947 924 948 
1869 924 925 948 
1870 948 925 949 
1871 925 926 949 
1872 949 926 950 
1873 926 927 950 
1874 950 927 951 
1875 927 928 951 
1876 951 928 952 
1877 928 953 952 
1878 928 929 953 
1879 929 954 953 
1880 929 930 954 
1881 930 955 954 
1882 930 931 955 
1883 931 956 955 
1884 931 932 956 
1885 932 957 956 
1886 932 933 957 
1887 933 958 957 
1888 933 934 958 
1889 934 935 958 
1890 958 935 959 
1891 935 936 959 
1892 959 936 960 
1893 936 937 960 
1894 960 937 961 
1895 937 938 961 
1896 961 938 962 
1897 938 939 962 
1898 962 939 963 
1899 939 940 963 
1900 963 940 964 
1901 940 965 964 
1902 940 941 965 
1903 941 966 965 
1904 941 942 966 
1905 942 967 966 
1906 942 943 967 
1907 943 968 967 
1908 943 944 968 
1909 944 969 968 
1910 944 945 969 
1911 945 946 969 
1912 945 922 946 
1913 946 947 970 
1914 970 947 971 
1915 947 948 971 
1916 971 948 972 
1917 948 949 972 
1918 972 949 973 
1919 949 950 973 
1920 973 950 974 
1921 950 951 974 
1922 974 951 975 
1923 951 952 975 
1924 975 952 976 
1925 952 977 976 
1926 952 953 977 
1927 953 978 977 
1928 953 954 978 
1929 954 979 978 
1930 954 955 979 
1931 955 980 979 
1932 955 956 980 
1933 956 981 980 
1934 956 957 981 
1935 957 982 981 
1936 957 958 982 
1937 958 959 982 
1938 982 959 983 
1939 959 960 983 
1940 983 960 984 
1941 960 961 984 
1942 984 961 985 
1943 961 962 985 
1944 985 962 986 
1945 962 963 986 
1946 986 963 987 
1947 963 964 987 
1948 987 964 988 
1949 964 989 988 
1950 964 965 989 
1951 965 990 989 
1952 965 966 990 
1953 966 991 990 
1954 966 967 991 
1955 967 992 991 
1956 967 968 992 
1957 968 993 992 
1958 968 969 993 
1959 969 970 993 
1960 969 946 970 
1961 970 971 994 
1962 994 971 995 
1963 971 972 995 
1964 995 972 996 
1965 972 973 996 
1966 996 973 997 
1967 973 974 997 
1968 997 974 998 
1969 974 975 998 
1970 998 975 999 
1971 975 976 999 
1972 999 976 1000 
1973 976 1001 1000 
1974 976 977 1001 
1975 977 1002 1001 
1976 977 978 1002 
1977 978 1003 1002 
1978 978 979 1003 
1979 979 1004 1003 
1980 979 980 1004 
1981 980 1005 1004 
1982 980 981 1005 
1983 981 1006 1005 
1984 981 982 1006 
1985 982 983 1006 
1986 1006 983 1007 
1987 983 984 1007 
1988 1007 984 1008 
1989 984 985 1008 
1990 1008 985 1009 
1991 985 986 1009 
1992 1009 986 1010 
1993 986 987 1010 
1994 1010 987 1011 
1995 987 988 1011 
1996 1011 988 1012 
1997 988 1013 1012 
1998 988 989 1013 
1999 989 1014 1013 
2000 989 990 1014 
2001 990 1015 1014 
2002 990 991 1015 
2003 991 1016 1015 
2004 991 992 1016 
2005 992 1017 1016 
2006 992 993 1017 
2007 993 994 1017 
2008 993 970 994 
2009 994 995 1018 
2010 1018 995 1019 
2011 995 996 1019 
2012 1019 996 1020 
2013 996 997 1020 
2014 1020 997 1021 
2015 997 998 1021 
2016 1021 998 1022 
2017 998 999 1022 
2018 1022 999 1023 
2019 999 1000 1023 
2020 1023 1000 1024 
2021 1000 1025 1024 
2022 1000 1001 1025 
2023 1001 1026 1025 
2024 1001 1002 1026 
2025 1002 1027 1026 
2026 1002 1003 1027 
2027 1003 1028 1027 
2028 1003 1004 1028 
2029 1004 1029 1028 
2030 1004 1005 1029 
2031 1005 1030 1029 
2032 1005 1006 1030 
2033 1006 1007 1030 
2034 1030 1007 1031 
2035 1007 1008 1031 
2036 1031 1008 1032 
2037 1008 1009 1032 
2038 1032 1009 1033 
2039 1009 1010 1033 
2040 1033 1010 1034 
2041 1010 1011 1034 
2042 1034 1011 1035 
2043 1011 1012 1035 
2044 1035 1012 1036 
2045 1012 1037 1036 
2046 1012 1013 1037 
2047 1013 1038 1037 
2048 1013 1014 1038 
2049 1014 1039 1038 
2050 1014 1015 1039 
2051 1015 1040 1039 
2052 1015 1016 1040 
2053 1016 1041 1040 
2054 1016 1017 1041 
2055 1017 1018 1041 
2056 1017 994 1018 
2057 1018 1019 1042 
2058 1042 1019 1043 
2059 1019 1020 1043 
2060 1043 1020 1044 
2061 1020 1021 1044 
2062 1044 1021 1045 
2063 1021 1022 1045 
2064 1045 1022 1046 
2065 1022 1023 1046 
2066 1046 1023 1047 
2067 1023 1024 1047 
2068 1047 1024 1048 
2069 1024 1049 1048 
2070 1024 1025 1049 
2071 1025 1050 1049 
2072 1025 1026 1050 
2073 1026 1051 1050 
2074 1026 1027 1051 
2075 1027 1052 1051 
2076 1027 1028 1052 
2077 1028 1053 1052 
2078 1028 1029 1053 
2079 1029 1054 1053 
2080 1029 1030 1054 
2081 1030 1031 1054 
2082 1054 1031 1055 
2083 1031 1032 1055 
2084 1055 1032 1056 
2085 1032 1033 1056 
2086 1056 1033 1057 
2087 1033 1034 1057 
2088 1057 1034 1058 
2089 1034 1035 1058 
2090 1058 1035 1059 
2091 1035 1036 1059 
2092 1059 1036 1060 
2093 1036 1061 1060 
2094 1036 1037 1061 
2095 1037 1062 1061 
2096 1037 1038 1062 
2097 1038 1063 1062 
2098 1038 1039 1063 
2099 1039 1064 1063 
2100 1039 1040 1064 
2101 1040 1065 1064 
2102 1040 1041 1065 
2103 1041 1042 1065 
2104 1041 1018 1042 
2105 1042 1043 1066 
2106 1066 1043 1067 
2107 1043 1044 1067 
2108 1067 1044 1068 
2109 1044 1045 1068 
2110 1068 1045 1069 
2111 1045 1046 1069 
2112 1069 1046 1070 
2113 1046 1047 1070 
2114 1070 1047 1071 
2115 1047 1048 1071 
2116 1071 1048 1072 
2117 1048 1073 1072 
2118 1048 1049 1073 
2119 1049 1074 1073 
2120 1049 1050 1074 
2121 1050 1075 1074 
2122 1050 1051 1075 
2123 1051 1076 1075 
2124 1051 1052 1076 
2125 1052 1077 1076 
2126 1052 1053 1077 
2127 1053 1078 1077 
2128 1053 1054 1078 
2129 1054 1055 1078 
2130 1078 1055 1079 
2131 1055 1056 1079 
2132 1079 1056 1080 
2133 1056 1057 1080 
2134 1080 1057 1081 
2135 1057 1058 1081 
2136 1081 1058 1082 
2137 1058 1059 1082 
2138 1082 1059 1083 
2139 1059 1060 1083 
2140 1083 1060 1084 
2141 1060 1085 1084 
2142 1060 1061 1085 
2143 1061 1086 1085 
2144 1061 1062 1086 
2145 1062 1087 1086 
2146 1062 1063 1087 
2147 1063 1088 1087 
2148 1063 1064 1088 
2149 1064 1089 1088 
2150 1064 1065 1089 
2151 1065 1066 1089 
2152 1065 1042 1066 
2153 1066 1067 1090 
2154 1090 1067 1091 
2155 1067 1068 1091 
2156 1091 1068 1092 
2157 1068 1069 1092 
2158 1092 1069 1093 
2159 1069 1070 1093 
2160 1093 1070 1094 
2161 1070 1071 1094 
2162 1094 1071 1095 
2163 1071 1072 1095 
2164 1095 1072 1096 
2165 1072 1097 1096 
2166 1072 1073 1097 
2167 1073 1098 1097 
2168 1073 1074 1098 
2169 1074 1099 1098 
2170 1074 1075 1099 
2171 1075 1100 1099 
2172 1075 1076 1100 
2173 1076 1101 1100 
2174 1076 1077 1101 
2175 1077 1102 1101 
2176 1077 1078 1102 
2177 1078 1079 1102 
2178 1102 1079 1103 
2179 1079 1080 1103 
2180 1103 1080 1104 
2181 1080 1081 1104 
2182 1104 1081 1105 
2183 1081 1082 1105 
2184 1105 1082 1106 
2185 1082 1083 1106 
2186 1106 1083 1107 
2187 1083 1084 1107 
2188 1107 1084 1108 
2189 1084 1109 1108 
2190 1084 1085 1109 
2191 1085 1110 1109 
2192 1085 1086 1110 
2193 1086 1111 1110 
2194 1086 1087 1111 
2195 1087 1112 1111 
2196 1087 1088 1112 
2197 1088 1113 1112 
2198 1088 1089 1113 
2199 1089 1090 1113 
2200 1089 1066 1090 
2201 1090 1091 1114 
2202 1114 1091 1115 
2203 1091 1092 1115 
2204 1115 1092 1116 
2205 1092 1093 1116 
2206 1116 1093 1117 
2207 1093 1094 1117 
2208 1117 1094 1118 
2209 1094 1095 1118 
2210 1118 1095 1119 
2211 1095 1096 1119 
2212 1119 1096 1120 
2213 1096 1121 1120 
2214 1096 1097 1121 
2215 1097 1122 1121 
2216 1097 1098 1122 
2217 1098 1123 1122 
2218 1098 1099 1123 
2219 1099 1124 1123 
2220 1099 1100 1124 
2221 1100 1125 1124 
2222 1100 1101 1125 
2223 1101 1126 1125 
2224 1101 1102 1126 
2225 1102 1103 1126 
2226 1126 1103 1127 
2227 1103 1104 1127 
2228 1127 1104 1128 
2229 1104 1105 1128 
2230 1128 1105 1129 
2231 1105 1106 1129 
2232 1129 1106 1130 
2233 1106 1107 1130 
2234 1130 1107 1131 
2235 1107 1108 1131 
2236 1131 1108 1132 
2237 1108 1133 1132 
2238 1108 1109 1133 
2239 1109 1134 1133 
2240 1109 1110 1134 
2241 1110 1135 1134 
2242 1110 1111 1135 
2243 1111 1136 1135 
2244 1111 1112 1136 
2245 1112 1137 1136 
2246 1112 1113 1137 
2247 1113 1114 1137 
2248 1113 1090 1114 
2249 1114 1115 1138 
2250 1138 1115 1139 
2251 1115 1116 1139 
2252 1139 1116 1140 
2253 1116 1117 1140 
2254 1140 1117 1141 
2255 1117 1118 1141 
2256 1141 1118 1142 
2257 1118 1119 1142 
2258 1142 1119 1143 
2259 1119 1120 1143 
2260 1143 1120 1144 
2261 1120 1145 1144 
2262 1120 1121 1145 
2263 1121 1146 1145 
2264 1121 1122 1146 
2265 1122 1147 1146 
2266 1122 1123 1147 
2267 1123 1148 1147 
2268 1123 1124 1148 
2269 1124 1149 1148 
2270 1124 1125 1149 
2271 1125 1150 1149 
2272 1125 1126 1150 
2273 1126 1127 1150 
2274 1150 1127 1151 
2275 1127 1128 1151 
2276 1151 1128 1152 
2277 1128 1129 1152 
2278 1152 1129 1153 
2279 1129 1130 1153 
2280 1153 1130 1154 
2281 1130 1131 1154 
2282 1154 1131 1155 
2283 1131 1132 1155 
2284 1155 1132 1156 
2285 1132 1157 1156 
2286 1132 1133 1157 
2287 1133 1158 1157 
2288 1133 1134 1158 
2289 1134 1159 1158 
2290 1134 1135 1159 
2291 1135 1160 1159 
2292 1135 1136 1160 
2293 1136 1161 1160 
2294 1136 1137 1161 
2295 1137 1138 1161 
2296 1137 1114 1138 
2297 1138 1139 1162 
2298 1162 1139 1163 
2299 1139 1140 1163 
2300 1163 1140 1164 
2301 1140 1141 1164 
2302 1164 1141 1165 
2303 1141 1142 1165 
2304 1165 1142 1166 
2305 1142 1143 1166 
2306 1166 1143 1167 
2307 1143 1144 1167 
2308 1167 1144 1168 
2309 1144 1169 1168 
2310 1144 1145 1169 
2311 1145 1170 1169 
2312 1145 1146 1170 
2313 1146 1171 1170 
2314 1146 1147 1171 
2315 1147 1172 1171 
2316 1147 1148 1172 
2317 1148 1173 1172 
2318 1148 1149 1173 
2319 1149 1174 1173 
2320 1149 1150 1174 
2321 1150 1151 1174 
2322 1174 1151 1175 
2323 1151 1152 1175 
2324 1175 1152 1176 
2325 1152 1153 1176 
2326 1176 1153 1177 
2327 1153 1154 1177 
2328 1177 1154 1178 
2329 1154 1155 1178 
2330 1178 1155 1179 
2331 1155 1156 1179 
2332 1179 1156 1180 
2333 1156 1181 1180 
2334 1156 1157 1181 
2335 1157 1182 1181 
2336 1157 1158 1182 
2337 1158 1183 1182 
2338 1158 1159 1183 
2339 1159 1184 1183 
2340 1159 1160 1184 
2341 1160 1185 1184 
2342 1160 1161 1185 
2343 1161 1162 1185 
2344 1161 1138 1162 
2345 1162 1163 1186 
2346 1186 1163 1187 
2347 1163 1164 1187 
2348 1187 1164 1188 
2349 1164 1165 1188 
2350 1188 1165 1189 
2351 1165 1166 1189 
2352 1189 1166 1190 
2353 1166 1167 1190 
2354 1190 1167 1191 
2355 1167 1168 1191 
2356 1191 1168 1192 
2357 1168 1193 1192 
2358 1168 1169 1193 
2359 1169 1194 1193 
2360 1169 1170 1194 
2361 1170 1195 1194 
2362 1170 1171 1195 
2363 1171 1196 1195 
2364 1171 1172 1196 
2365 1172 1197 1196 
2366 1172 1173 1197 
2367 1173 1198 1197 
2368 1173 1174 1198 
2369 1174 1175 1198 
2370 1198 1175 1199 
2371 1175 1176 1199 
2372 1199 1176 1200 
2373 1176 1177 1200 
2374 1200 1177 1201 
2375 1177 1178 1201 
2376 1201 1178 1202 
2377 1178 1179 1202 
2378 1202 1179 1203 
2379 1179 1180 1203 
2380 1203 1180 1204 
2381 1180 1205 1204 
2382 1180 1181 1205 
2383 1181 1206 1205 
2384 1181 1182 1206 
2385 1182 1207 1206 
2386 1182 1183 1207 
2387 1183 1208 1207 
2388 1183 1184 1208 
2389 1184 1209 1208 
2390 1184 1185 1209 
2391 1185 1186 1209 
2392 1185 1162 1186 
2393 1186 1187 1210 
2394 1187 1211 1210 
2395 1187 1188 1211 
2396 1188 1212 1211 
2397 1188 1189 1212 
2398 1189 1213 1212 
2399 1189 1190 1213 
2400 1190 1214 1213 
2401 1190 1191 1214 
2402 1191 1215 1214 
2403 1191 1192 1215 
2404 1192 1193 1215 
2405 1215 1193 1216 
2406 1193 1194 1216 
2407 1216 1194 1217 
2408 1194 1195 1217 
2409 1217 1195 1218 
2410 1195 1196 1218 
2411 1218 1196 1219 
2412 1196 1197 1219 
2413 1219 1197 1220 
2414 1197 1198 1220 
2415 1198 1199 1221 
2416 1199 1222 1221 
2417 1199 1200 1222 
2418 1200 1223 1222 
2419 1200 1201 1223 
2420 1201 1224 1223 
2421 1201 1202 1224 
2422 1202 1225 1224 
2423 1202 1203 1225 
2424 1203 1226 1225 
2425 1203 1204 1226 
2426 1204 1205 1226 
2427 1226 1205 1227 
2428 1205 1206 1227 
2429 1227 1206 1228 
2430 1206 1207 1228 
2431 1228 1207 1229 
2432 1207 1208 1229 
2433 1229 1208 1230 
2434 1208 1209 1230 
2435 1230 1209 1231 
2436 1209 1186 1231 
2437 1186 1210 1232 
2438 1210 1233 1232 
2439 1210 1211 1233 
2440 1211 1234 1233 
2441 1211 1212 1234 
2442 1212 1235 1234 
2443 1212 1213 1235 
2444 1213 1236 1235 
2445 1213 1214 1236 
2446 1214 1237 1236 
2447 1214 1215 1237 
2448 1215 1216 1237 
2449 1237 1216 1238 
2450 1216 1217 1238 
2451 1238 1217 1239 
2452 1217 1218 1239 
2453 1239 1218 1240 
2454 1218 1219 1240 
2455 1240 1219 1241 
2456 1219 1220 1241 
2457 1241 1220 1242 
2458 1220 1198 1242 
2459 1198 1221 1242 
2460 1221 1241 1242 
2461 1221 1222 1241 
2462 1222 1240 1241 
2463 1222 1223 1240 
2464 1223 1239 1240 
2465 1223 1224 1239 
2466 1224 1238 1239 
2467 1224 1225 1238 
2468 1225 1237 1238 
2469 1225 1226 1237 
2470 1226 1227 1237 
2471 1237 1227 1236 
2472 1227 1228 1236 
2473 1236 1228 1235 
2474 1228 1229 1235 
2475 1235 1229 1234 
2476 1229 1230 1234 
2477 1234 1230 1233 
2478 1230 1231 1233 
2479 1233 1231 1232 
2480 1231 1186 1232 
$EndElements
