$MeshFormat
2.2 0 8
$EndMeshFormat
$Nodes
59
1    11.7696155060     0.0000000000    -0.8472963553
2    11.4931928657     0.0000000000    -0.8302973141
3    11.7696155060    15.0000000000    -0.8472963553
4    11.4928908846    15.0000000000    -0.8296422637
5    10.7614920904     0.0000000000    -0.7598659064
6    10.7602395993    15.0000000000    -0.7594531120
7    10.0378294526    15.0000000000    -0.6224586960
8    10.0410756300     0.0000000000    -0.6176701896
9     9.8000000000    15.0000000000    -0.5000000000
10     9.8000000000     0.0000000000    -0.5000000000
11    10.0505024655     0.0000000000    -0.4158596367
12    10.0572298723    15.0000000000    -0.4382592925
13    10.7851453755     0.0000000000    -0.5473733089
14    10.7874477456    15.0000000000    -0.5659739711
15    11.5027019840    15.0000000000    -0.7640409006
16    11.5023704115     0.0000000000    -0.7583291585
17    11.5691816852     0.0000000000    -0.7805709577
18    11.4925889036    30.0000000000    -0.8289872132
19    11.7696155060    30.0000000000    -0.8472963553
20    10.7589871083    30.0000000000    -0.7590403176
21    10.0345832753    30.0000000000    -0.6272472024
22     9.8000000000    30.0000000000    -0.5000000000
23    10.0639572791    30.0000000000    -0.4606589483
24    10.7897501156    30.0000000000    -0.5845746333
25    11.5030335565    30.0000000000    -0.7697526428
26    11.4941192599    30.0212574130    -0.8203098106
27    10.7634957559    30.0625876579    -0.7334969438
28    10.0388892693    30.0597662235    -0.6028769266
29    10.0596651461    30.0597662035    -0.4851375906
30    10.7852458486    30.0625876437    -0.6101938962
31    11.5015032462    30.0212574125    -0.7784373698
32    11.4978112626    30.0300678768    -0.7993751081
33    10.7743717099    30.0885250829    -0.6718611448
34    10.0492800800    30.0845349915    -0.5440297136
35    11.7696155060   -15.0000000000    -0.8472963553
36    11.4928908846   -15.0000000000    -0.8296422637
37    10.7602395993   -15.0000000000    -0.7594531120
38    10.0378294526   -15.0000000000    -0.6224586960
39     9.8000000000   -15.0000000000    -0.5000000000
40    10.0572298723   -15.0000000000    -0.4382592925
41    10.7874477456   -15.0000000000    -0.5659739711
42    11.5027019840   -15.0000000000    -0.7640409006
43    11.7696155060   -30.0000000000    -0.8472963553
44    11.4925889036   -30.0000000000    -0.8289872132
45    10.7589871083   -30.0000000000    -0.7590403176
46    10.0345832753   -30.0000000000    -0.6272472024
47     9.8000000000   -30.0000000000    -0.5000000000
48    10.0639572791   -30.0000000000    -0.4606589483
49    10.7897501156   -30.0000000000    -0.5845746333
50    11.5030335565   -30.0000000000    -0.7697526428
51    11.4941192599   -30.0212574130    -0.8203098106
52    10.7634957559   -30.0625876579    -0.7334969438
53    10.0388892693   -30.0597662235    -0.6028769266
54    10.0596651461   -30.0597662035    -0.4851375906
55    10.7852458486   -30.0625876437    -0.6101938962
56    11.5015032462   -30.0212574125    -0.7784373698
57    11.4978112626   -30.0300678768    -0.7993751081
58    10.7743717099   -30.0885250829    -0.6718611448
59    10.0492800800   -30.0845349915    -0.5440297136
$EndNodes
$Elements
113
1 2 0 1 3 2
2 2 0 3 4 2
3 2 0 2 4 5
4 2 0 4 6 5
5 2 0 5 6 7
6 2 0 5 7 8
7 2 0 8 7 9
8 2 0 8 9 10
9 2 0 10 9 11
10 2 0 9 12 11
11 2 0 11 12 13
12 2 0 12 14 13
13 2 0 13 14 15
14 2 0 13 15 16
15 2 0 16 15 3
16 2 0 1 17 3
17 2 0 17 16 3
18 2 0 3 19 18
19 2 0 3 18 4
20 2 0 4 18 20
21 2 0 4 20 6
22 2 0 6 20 7
23 2 0 20 21 7
24 2 0 7 21 9
25 2 0 21 22 9
26 2 0 9 22 23
27 2 0 9 23 12
28 2 0 12 23 24
29 2 0 12 24 14
30 2 0 14 24 15
31 2 0 24 25 15
32 2 0 15 25 3
33 2 0 25 19 3
34 2 0 19 26 18
35 2 0 18 26 27
36 2 0 18 27 20
37 2 0 20 27 21
38 2 0 27 28 21
39 2 0 21 28 22
40 2 0 22 29 23
41 2 0 23 29 30
42 2 0 23 30 24
43 2 0 24 30 25
44 2 0 30 31 25
45 2 0 25 31 19
46 2 0 19 32 26
47 2 0 26 32 33
48 2 0 26 33 27
49 2 0 27 33 28
50 2 0 33 34 28
51 2 0 28 34 22
52 2 0 22 34 29
53 2 0 29 34 33
54 2 0 29 33 30
55 2 0 30 33 31
56 2 0 33 32 31
57 2 0 31 32 19
58 2 0 1 2 35
59 2 0 35 2 36
60 2 0 2 5 36
61 2 0 36 5 37
62 2 0 5 38 37
63 2 0 5 8 38
64 2 0 8 39 38
65 2 0 8 10 39
66 2 0 10 11 39
67 2 0 39 11 40
68 2 0 11 13 40
69 2 0 40 13 41
70 2 0 13 42 41
71 2 0 13 16 42
72 2 0 16 35 42
73 2 0 16 1 35
74 2 0 35 44 43
75 2 0 35 36 44
76 2 0 36 45 44
77 2 0 36 37 45
78 2 0 37 38 45
79 2 0 45 38 46
80 2 0 38 39 46
81 2 0 46 39 47
82 2 0 39 48 47
83 2 0 39 40 48
84 2 0 40 49 48
85 2 0 40 41 49
86 2 0 41 42 49
87 2 0 49 42 50
88 2 0 42 35 50
89 2 0 50 35 43
90 2 0 43 44 51
91 2 0 44 52 51
92 2 0 44 45 52
93 2 0 45 46 52
94 2 0 52 46 53
95 2 0 46 47 53
96 2 0 47 48 54
97 2 0 48 55 54
98 2 0 48 49 55
99 2 0 49 50 55
100 2 0 55 50 56
101 2 0 50 43 56
102 2 0 43 51 57
103 2 0 51 58 57
104 2 0 51 52 58
105 2 0 52 53 58
106 2 0 58 53 59
107 2 0 53 47 59
108 2 0 47 54 59
109 2 0 54 58 59
110 2 0 54 55 58
111 2 0 55 56 58
112 2 0 58 56 57
113 2 0 56 43 57
$EndElements
