$MeshFormat
4.1 0 8
$EndMeshFormat
$Entities
0 0 1 0
0 0 -10.4828518433 -0.4876159627000001 10 10.4828518433 0.7251108388 0 0 
$EndEntities
$Nodes
1 118 1 118
2 0 0 118
1
2
3
4
5
6
7
8
9
10
11
12
13
14
15
16
17
18
19
20
21
22
23
24
25
26
27
28
29
30
31
32
33
34
35
36
37
38
39
40
41
42
43
44
45
46
47
48
49
50
51
52
53
54
55
56
57
58
59
60
61
62
63
64
65
66
67
68
69
70
71
72
73
74
75
76
77
78
79
80
81
82
83
84
85
86
87
88
89
90
91
92
93
94
95
96
97
98
99
100
101
102
103
104
105
106
107
108
109
110
111
112
113
114
115
116
117
118
10 0 0
9.2938346581 0 -0.08233824989999999
10 2.5 0
9.2932227073 2.5 -0.08172676819999999
7.6634182856 0 -0.2473665411
7.6615125839 2.5 -0.2463061293
4.9621918294 0 -0.4372268096
4.958393645 2.5 -0.4386432939
2.2494025561 2.5 -0.4549410284
2.2552416005 0 -0.4440493836
0.6194415986 2.5 -0.2821655111
0.6263329654000001 0 -0.26964667
0 2.5 0
0 0 0
0.4928602699 0 0.465855547
0.519337077 2.5 0.4293221689
2.1331712776 0 0.7251108388
2.1578498139 2.5 0.6657371197
4.8884111836 0 0.6299515075
4.9030581606 2.5 0.5831868173
7.6371800742 2.5 0.3148136662
7.6309749392 0 0.3387099237
9.2860953944 2.5 0.1026345124
9.284331574099999 0 0.1102152421
10 5 0
9.2926107566 5 -0.0811152866
7.6596068823 5 -0.2452457175
4.9545954605 5 -0.4400597782
2.2435635116 5 -0.4658326732
0.6125502318 5 -0.2946843522
0 5 0
0.5458138841 5 0.3927887907
2.1825283502 5 0.6063634007000001
4.9177051376 5 0.5364221271
7.6433852092 5 0.2909174087
9.287859214699999 5 0.09505378270000001
9.2919988059 7.5 -0.0805038049
10 7.5 0
7.6577011807 7.5 -0.2441853057
4.9507972761 7.5 -0.4414762624
2.2377244672 7.5 -0.476724318
0.6056588651 7.5 -0.3072031934
0 7.5 0
0.5722906912 7.5 0.3562554126
2.2072068865 7.5 0.5469896817
4.9323521147 7.5 0.4896574369
7.6495903441 7.5 0.2670211513
9.289623035 7.5 0.087473053
9.291386855200001 10 -0.0798923233
10 10 0
7.6557954791 10 -0.2431248938
4.9469990917 10 -0.4428927467
2.2318854228 10 -0.4876159627
0.5987674983 10 -0.3197220345
0 10 0
0.5987674983 10 0.3197220345
2.2318854228 10 0.4876159627
4.9469990917 10 0.4428927467
7.6557954791 10 0.2431248938
9.291386855200001 10 0.0798923233
9.291410088499999 10.0797298154 -0.0001388065
7.6560059376 10.2419004879 -0.0011159669
4.9479511795 10.4388701329 -0.004228676
2.2337042714 10.4828518433 -0.0067847626
0.6000136277 10.3181655569 -0.0031212525
10 -2.5 0
9.2932227073 -2.5 -0.08172676819999999
7.6615125839 -2.5 -0.2463061293
4.958393645 -2.5 -0.4386432939
2.2494025561 -2.5 -0.4549410284
0.6194415986 -2.5 -0.2821655111
0 -2.5 0
0.519337077 -2.5 0.4293221689
2.1578498139 -2.5 0.6657371197
4.9030581606 -2.5 0.5831868173
7.6371800742 -2.5 0.3148136662
9.2860953944 -2.5 0.1026345124
10 -5 0
9.2926107566 -5 -0.0811152866
7.6596068823 -5 -0.2452457175
4.9545954605 -5 -0.4400597782
2.2435635116 -5 -0.4658326732
0.6125502318 -5 -0.2946843522
0 -5 0
0.5458138841 -5 0.3927887907
2.1825283502 -5 0.6063634007000001
4.9177051376 -5 0.5364221271
7.6433852092 -5 0.2909174087
9.287859214699999 -5 0.09505378270000001
10 -7.5 0
9.2919988059 -7.5 -0.0805038049
7.6577011807 -7.5 -0.2441853057
4.9507972761 -7.5 -0.4414762624
2.2377244672 -7.5 -0.476724318
0.6056588651 -7.5 -0.3072031934
0 -7.5 0
0.5722906912 -7.5 0.3562554126
2.2072068865 -7.5 0.5469896817
4.9323521147 -7.5 0.4896574369
7.6495903441 -7.5 0.2670211513
9.289623035 -7.5 0.087473053
10 -10 0
9.291386855200001 -10 -0.0798923233
7.6557954791 -10 -0.2431248938
4.9469990917 -10 -0.4428927467
2.2318854228 -10 -0.4876159627
0.5987674983 -10 -0.3197220345
0 -10 0
0.5987674983 -10 0.3197220345
2.2318854228 -10 0.4876159627
4.9469990917 -10 0.4428927467
7.6557954791 -10 0.2431248938
9.291386855200001 -10 0.0798923233
9.291410088499999 -10.0797298154 -0.0001388065
7.6560059376 -10.2419004879 -0.0011159669
4.9479511795 -10.4388701329 -0.004228676
2.2337042714 -10.4828518433 -0.0067847626
0.6000136277 -10.3181655569 -0.0031212525
$EndNodes
$Elements
1 232 1 232
2 0 2 232
1 1 3 2 
2 3 4 2 
3 2 4 5 
4 4 6 5 
5 5 6 7 
6 6 8 7 
7 7 8 9 
8 7 9 10 
9 10 9 11 
10 10 11 12 
11 12 11 13 
12 12 13 14 
13 14 13 15 
14 13 16 15 
15 15 16 17 
16 16 18 17 
17 17 18 19 
18 18 20 19 
19 19 20 21 
20 19 21 22 
21 22 21 23 
22 22 23 24 
23 24 23 3 
24 24 3 1 
25 3 25 4 
26 25 26 4 
27 4 26 6 
28 26 27 6 
29 6 27 8 
30 27 28 8 
31 8 28 29 
32 8 29 9 
33 9 29 30 
34 9 30 11 
35 11 30 31 
36 11 31 13 
37 13 31 16 
38 31 32 16 
39 16 32 18 
40 32 33 18 
41 18 33 20 
42 33 34 20 
43 20 34 35 
44 20 35 21 
45 21 35 36 
46 21 36 23 
47 23 36 25 
48 23 25 3 
49 25 38 37 
50 25 37 26 
51 26 37 39 
52 26 39 27 
53 27 39 40 
54 27 40 28 
55 28 40 29 
56 40 41 29 
57 29 41 30 
58 41 42 30 
59 30 42 31 
60 42 43 31 
61 31 43 44 
62 31 44 32 
63 32 44 45 
64 32 45 33 
65 33 45 46 
66 33 46 34 
67 34 46 35 
68 46 47 35 
69 35 47 36 
70 47 48 36 
71 36 48 25 
72 48 38 25 
73 38 50 49 
74 38 49 37 
75 37 49 51 
76 37 51 39 
77 39 51 52 
78 39 52 40 
79 40 52 41 
80 52 53 41 
81 41 53 42 
82 53 54 42 
83 42 54 43 
84 54 55 43 
85 43 55 56 
86 43 56 44 
87 44 56 57 
88 44 57 45 
89 45 57 58 
90 45 58 46 
91 46 58 47 
92 58 59 47 
93 47 59 48 
94 59 60 48 
95 48 60 38 
96 60 50 38 
97 50 61 49 
98 49 61 62 
99 49 62 51 
100 51 62 63 
101 51 63 52 
102 52 63 53 
103 63 64 53 
104 53 64 54 
105 64 65 54 
106 54 65 55 
107 55 65 56 
108 56 65 64 
109 56 64 57 
110 57 64 63 
111 57 63 58 
112 58 63 59 
113 63 62 59 
114 59 62 60 
115 62 61 60 
116 60 61 50 
117 1 2 66 
118 66 2 67 
119 2 5 67 
120 67 5 68 
121 5 7 68 
122 68 7 69 
123 7 70 69 
124 7 10 70 
125 10 71 70 
126 10 12 71 
127 12 72 71 
128 12 14 72 
129 14 15 72 
130 72 15 73 
131 15 17 73 
132 73 17 74 
133 17 19 74 
134 74 19 75 
135 19 76 75 
136 19 22 76 
137 22 77 76 
138 22 24 77 
139 24 66 77 
140 24 1 66 
141 66 67 78 
142 78 67 79 
143 67 68 79 
144 79 68 80 
145 68 69 80 
146 80 69 81 
147 69 82 81 
148 69 70 82 
149 70 83 82 
150 70 71 83 
151 71 84 83 
152 71 72 84 
153 72 73 84 
154 84 73 85 
155 73 74 85 
156 85 74 86 
157 74 75 86 
158 86 75 87 
159 75 88 87 
160 75 76 88 
161 76 89 88 
162 76 77 89 
163 77 78 89 
164 77 66 78 
165 78 91 90 
166 78 79 91 
167 79 92 91 
168 79 80 92 
169 80 93 92 
170 80 81 93 
171 81 82 93 
172 93 82 94 
173 82 83 94 
174 94 83 95 
175 83 84 95 
176 95 84 96 
177 84 97 96 
178 84 85 97 
179 85 98 97 
180 85 86 98 
181 86 99 98 
182 86 87 99 
183 87 88 99 
184 99 88 100 
185 88 89 100 
186 100 89 101 
187 89 78 101 
188 101 78 90 
189 90 103 102 
190 90 91 103 
191 91 104 103 
192 91 92 104 
193 92 105 104 
194 92 93 105 
195 93 94 105 
196 105 94 106 
197 94 95 106 
198 106 95 107 
199 95 96 107 
200 107 96 108 
201 96 109 108 
202 96 97 109 
203 97 110 109 
204 97 98 110 
205 98 111 110 
206 98 99 111 
207 99 100 111 
208 111 100 112 
209 100 101 112 
210 112 101 113 
211 101 90 113 
212 113 90 102 
213 102 103 114 
214 103 115 114 
215 103 104 115 
216 104 116 115 
217 104 105 116 
218 105 106 116 
219 116 106 117 
220 106 107 117 
221 117 107 118 
222 107 108 118 
223 108 109 118 
224 109 117 118 
225 109 110 117 
226 110 116 117 
227 110 111 116 
228 111 112 116 
229 116 112 115 
230 112 113 115 
231 115 113 114 
232 113 102 114 
$EndElements
