$MeshFormat
4.1 0 8
$EndMeshFormat
$Entities
0 0 1 0
0 0 -30.4972493815 -0.5989679176 10 30.4972493815 0.5989679176 0 0 
$EndEntities
$Nodes
1 191 1 191
2 0 0 191
1
2
3
4
5
6
7
8
9
10
11
12
13
14
15
16
17
18
19
20
21
22
23
24
25
26
27
28
29
30
31
32
33
34
35
36
37
38
39
40
41
42
43
44
45
46
47
48
49
50
51
52
53
54
55
56
57
58
59
60
61
62
63
64
65
66
67
68
69
70
71
72
73
74
75
76
77
78
79
80
81
82
83
84
85
86
87
88
89
90
91
92
93
94
95
96
97
98
99
100
101
102
103
104
105
106
107
108
109
110
111
112
113
114
115
116
117
118
119
120
121
122
123
124
125
126
127
128
129
130
131
132
133
134
135
136
137
138
139
140
141
142
143
144
145
146
147
148
149
150
151
152
153
154
155
156
157
158
159
160
161
162
163
164
165
166
167
168
169
170
171
172
173
174
175
176
177
178
179
180
181
182
183
184
185
186
187
188
189
190
191
10 0 0
8.3143168002 0 -0.2170334864
10 2.0755029532 0
8.3146150387 2.0755029532 -0.2145017023
6.6242830848 0 -0.3970682344
6.6249718201 2.0755029532 -0.3924360107
4.930126062 0 -0.5325383886
4.9312933961 2.0755029532 -0.5263363955
3.2337134412 2.0755029532 -0.5920456205
3.2319822806 0 -0.5989679176
1.5365182124 2.0755029532 -0.531794742
1.5342406451 0 -0.5378126157000001
0 2.0755029532 0
0 0 0
0.1705521016 0 0.0597853226
1.5342406451 0 0.5378126157000001
1.5365182124 2.0755029532 0.531794742
3.2319822806 0 0.5989679176
3.2337134412 2.0755029532 0.5920456205
4.930126062 0 0.5325383886
4.9312933961 2.0755029532 0.5263363955
6.6249718201 2.0755029532 0.3924360107
6.6242830848 0 0.3970682344
8.3146150387 2.0755029532 0.2145017023
8.3143168002 0 0.2170334864
10 5.8875296989 0
8.3151628062 5.8875296989 -0.2098516349
6.6262368038 5.8875296989 -0.3839281159
4.9334374108 5.8875296989 -0.5149453427
3.2368930226 5.8875296989 -0.5793316026000001
1.5407013658 5.8875296989 -0.520741857
0 5.8875296989 0
1.5407013658 5.8875296989 0.520741857
3.2368930226 5.8875296989 0.5793316026000001
4.9334374108 5.8875296989 0.5149453427
6.6262368038 5.8875296989 0.3839281159
8.3151628062 5.8875296989 0.2098516349
10 11.6995564205 0
8.315997962899999 11.6995564205 -0.202761885
6.6281654678 11.6995564205 -0.3709565091
4.9367062941 11.6995564205 -0.4975779138
3.2417407881 11.6995564205 -0.5599471079
1.5470792327 11.6995564205 -0.5038900175
0 11.6995564205 0
1.5470792327 11.6995564205 0.5038900175
3.2417407881 11.6995564205 0.5599471079
4.9367062941 11.6995564205 0.4975779138
6.6281654678 11.6995564205 0.3709565091
8.315997962899999 11.6995564205 0.202761885
8.316968470400001 18.4535171046 -0.1945231252
10 18.4535171046 0
6.6304067034 18.4535171046 -0.3558826414
4.9405049534 18.4535171046 -0.4773958091
3.2473742133 18.4535171046 -0.537421039
1.5544907373 18.4535171046 -0.4843070619
0 18.4535171046 0
1.5544907373 18.4535171046 0.4843070619
3.2473742133 18.4535171046 0.537421039
4.9405049534 18.4535171046 0.4773958091
6.6304067034 18.4535171046 0.3558826414
8.316968470400001 18.4535171046 0.1945231252
8.3177961551 24.2135451327 -0.1874968055
10 24.2135451327 0
6.6323181122 24.2135451327 -0.3430270882
4.9437445909 24.2135451327 -0.4601837621
3.2521786071 24.2135451327 -0.5182099724
1.5608115431 24.2135451327 -0.4676059914
0 24.2135451327 0
1.5608115431 24.2135451327 0.4676059914
3.2521786071 24.2135451327 0.5182099724
4.9437445909 24.2135451327 0.4601837621
6.6323181122 24.2135451327 0.3430270882
8.3177961551 24.2135451327 0.1874968055
8.3183353122 27.9656498864 -0.1829198334
10 27.9656498864 0
6.6335632113 27.9656498864 -0.3346529307
4.9458549034 27.9656498864 -0.4489717674
3.255308208 27.9656498864 -0.5056958085
1.5649289407 27.9656498864 -0.4567268489
0 27.9656498864 0
1.5649289407 27.9656498864 0.4567268489
3.255308208 27.9656498864 0.5056958085
4.9458549034 27.9656498864 0.4489717674
6.6335632113 27.9656498864 0.3346529307
8.3183353122 27.9656498864 0.1829198334
8.318627637300001 30 -0.1804382492
10 30 0
6.6342382905 30 -0.3301125542
4.9469990917 30 -0.4428927467
3.2570050433 30 -0.498910766
1.5671613486 30 -0.4508282969
0 30 0
1.5671613486 30 0.4508282969
3.2570050433 30 0.498910766
4.9469990917 30 0.4428927467
6.6342382905 30 0.3301125542
8.318627637300001 30 0.1804382492
8.3186546777 30.180210588 0
6.6343478789 30.3293753489 0
4.9472474465 30.4415712076 0
3.257419798 30.4972493815 -0
1.5676545699 30.4495223752 -0
10 -2.0755029532 0
8.3146150387 -2.0755029532 -0.2145017023
6.6249718201 -2.0755029532 -0.3924360107
4.9312933961 -2.0755029532 -0.5263363955
3.2337134412 -2.0755029532 -0.5920456205
1.5365182124 -2.0755029532 -0.531794742
0 -2.0755029532 0
1.5365182124 -2.0755029532 0.531794742
3.2337134412 -2.0755029532 0.5920456205
4.9312933961 -2.0755029532 0.5263363955
6.6249718201 -2.0755029532 0.3924360107
8.3146150387 -2.0755029532 0.2145017023
10 -5.8875296989 0
8.3151628062 -5.8875296989 -0.2098516349
6.6262368038 -5.8875296989 -0.3839281159
4.9334374108 -5.8875296989 -0.5149453427
3.2368930226 -5.8875296989 -0.5793316026000001
1.5407013658 -5.8875296989 -0.520741857
0 -5.8875296989 0
1.5407013658 -5.8875296989 0.520741857
3.2368930226 -5.8875296989 0.5793316026000001
4.9334374108 -5.8875296989 0.5149453427
6.6262368038 -5.8875296989 0.3839281159
8.3151628062 -5.8875296989 0.2098516349
10 -11.6995564205 0
8.315997962899999 -11.6995564205 -0.202761885
6.6281654678 -11.6995564205 -0.3709565091
4.9367062941 -11.6995564205 -0.4975779138
3.2417407881 -11.6995564205 -0.5599471079
1.5470792327 -11.6995564205 -0.5038900175
0 -11.6995564205 0
1.5470792327 -11.6995564205 0.5038900175
3.2417407881 -11.6995564205 0.5599471079
4.9367062941 -11.6995564205 0.4975779138
6.6281654678 -11.6995564205 0.3709565091
8.315997962899999 -11.6995564205 0.202761885
10 -18.4535171046 0
8.316968470400001 -18.4535171046 -0.1945231252
6.6304067034 -18.4535171046 -0.3558826414
4.9405049534 -18.4535171046 -0.4773958091
3.2473742133 -18.4535171046 -0.537421039
1.5544907373 -18.4535171046 -0.4843070619
0 -18.4535171046 0
1.5544907373 -18.4535171046 0.4843070619
3.2473742133 -18.4535171046 0.537421039
4.9405049534 -18.4535171046 0.4773958091
6.6304067034 -18.4535171046 0.3558826414
8.316968470400001 -18.4535171046 0.1945231252
10 -24.2135451327 0
8.3177961551 -24.2135451327 -0.1874968055
6.6323181122 -24.2135451327 -0.3430270882
4.9437445909 -24.2135451327 -0.4601837621
3.2521786071 -24.2135451327 -0.5182099724
1.5608115431 -24.2135451327 -0.4676059914
0 -24.2135451327 0
1.5608115431 -24.2135451327 0.4676059914
3.2521786071 -24.2135451327 0.5182099724
4.9437445909 -24.2135451327 0.4601837621
6.6323181122 -24.2135451327 0.3430270882
8.3177961551 -24.2135451327 0.1874968055
10 -27.9656498864 0
8.3183353122 -27.9656498864 -0.1829198334
6.6335632113 -27.9656498864 -0.3346529307
4.9458549034 -27.9656498864 -0.4489717674
3.255308208 -27.9656498864 -0.5056958085
1.5649289407 -27.9656498864 -0.4567268489
0 -27.9656498864 0
1.5649289407 -27.9656498864 0.4567268489
3.255308208 -27.9656498864 0.5056958085
4.9458549034 -27.9656498864 0.4489717674
6.6335632113 -27.9656498864 0.3346529307
8.3183353122 -27.9656498864 0.1829198334
10 -30 0
8.318627637300001 -30 -0.1804382492
6.6342382905 -30 -0.3301125542
4.9469990917 -30 -0.4428927467
3.2570050433 -30 -0.498910766
1.5671613486 -30 -0.4508282969
0 -30 0
1.5671613486 -30 0.4508282969
3.2570050433 -30 0.498910766
4.9469990917 -30 0.4428927467
6.6342382905 -30 0.3301125542
8.318627637300001 -30 0.1804382492
8.3186546777 -30.180210588 0
6.6343478789 -30.3293753489 0
4.9472474465 -30.4415712076 0
3.257419798 -30.4972493815 -0
1.5676545699 -30.4495223752 -0
$EndNodes
$Elements
1 377 1 377
2 0 2 377
1 1 3 2 
2 3 4 2 
3 2 4 5 
4 4 6 5 
5 5 6 7 
6 6 8 7 
7 7 8 9 
8 7 9 10 
9 10 9 11 
10 10 11 12 
11 12 11 13 
12 12 13 14 
13 13 15 14 
14 13 16 15 
15 13 17 16 
16 16 17 18 
17 17 19 18 
18 18 19 20 
19 19 21 20 
20 20 21 22 
21 20 22 23 
22 23 22 24 
23 23 24 25 
24 25 24 3 
25 25 3 1 
26 3 26 4 
27 26 27 4 
28 4 27 6 
29 27 28 6 
30 6 28 8 
31 28 29 8 
32 8 29 30 
33 8 30 9 
34 9 30 31 
35 9 31 11 
36 11 31 32 
37 11 32 13 
38 13 32 17 
39 32 33 17 
40 17 33 19 
41 33 34 19 
42 19 34 21 
43 34 35 21 
44 21 35 36 
45 21 36 22 
46 22 36 37 
47 22 37 24 
48 24 37 26 
49 24 26 3 
50 26 38 27 
51 38 39 27 
52 27 39 28 
53 39 40 28 
54 28 40 29 
55 40 41 29 
56 29 41 42 
57 29 42 30 
58 30 42 43 
59 30 43 31 
60 31 43 44 
61 31 44 32 
62 32 44 33 
63 44 45 33 
64 33 45 34 
65 45 46 34 
66 34 46 35 
67 46 47 35 
68 35 47 48 
69 35 48 36 
70 36 48 49 
71 36 49 37 
72 37 49 38 
73 37 38 26 
74 38 51 50 
75 38 50 39 
76 39 50 52 
77 39 52 40 
78 40 52 53 
79 40 53 41 
80 41 53 42 
81 53 54 42 
82 42 54 43 
83 54 55 43 
84 43 55 44 
85 55 56 44 
86 44 56 57 
87 44 57 45 
88 45 57 58 
89 45 58 46 
90 46 58 59 
91 46 59 47 
92 47 59 48 
93 59 60 48 
94 48 60 49 
95 60 61 49 
96 49 61 38 
97 61 51 38 
98 51 63 62 
99 51 62 50 
100 50 62 64 
101 50 64 52 
102 52 64 65 
103 52 65 53 
104 53 65 54 
105 65 66 54 
106 54 66 55 
107 66 67 55 
108 55 67 56 
109 67 68 56 
110 56 68 69 
111 56 69 57 
112 57 69 70 
113 57 70 58 
114 58 70 71 
115 58 71 59 
116 59 71 60 
117 71 72 60 
118 60 72 61 
119 72 73 61 
120 61 73 51 
121 73 63 51 
122 63 75 74 
123 63 74 62 
124 62 74 76 
125 62 76 64 
126 64 76 77 
127 64 77 65 
128 65 77 66 
129 77 78 66 
130 66 78 67 
131 78 79 67 
132 67 79 68 
133 79 80 68 
134 68 80 81 
135 68 81 69 
136 69 81 82 
137 69 82 70 
138 70 82 83 
139 70 83 71 
140 71 83 72 
141 83 84 72 
142 72 84 73 
143 84 85 73 
144 73 85 63 
145 85 75 63 
146 75 87 86 
147 75 86 74 
148 74 86 88 
149 74 88 76 
150 76 88 89 
151 76 89 77 
152 77 89 78 
153 89 90 78 
154 78 90 79 
155 90 91 79 
156 79 91 80 
157 91 92 80 
158 80 92 93 
159 80 93 81 
160 81 93 94 
161 81 94 82 
162 82 94 95 
163 82 95 83 
164 83 95 84 
165 95 96 84 
166 84 96 85 
167 96 97 85 
168 85 97 75 
169 97 87 75 
170 87 98 86 
171 86 98 99 
172 86 99 88 
173 88 99 100 
174 88 100 89 
175 89 100 90 
176 100 101 90 
177 90 101 91 
178 101 102 91 
179 91 102 92 
180 92 102 93 
181 93 102 101 
182 93 101 94 
183 94 101 100 
184 94 100 95 
185 95 100 96 
186 100 99 96 
187 96 99 97 
188 99 98 97 
189 97 98 87 
190 1 2 103 
191 103 2 104 
192 2 5 104 
193 104 5 105 
194 5 7 105 
195 105 7 106 
196 7 107 106 
197 7 10 107 
198 10 108 107 
199 10 12 108 
200 12 109 108 
201 12 14 109 
202 14 16 109 
203 109 16 110 
204 16 18 110 
205 110 18 111 
206 18 20 111 
207 111 20 112 
208 20 113 112 
209 20 23 113 
210 23 114 113 
211 23 25 114 
212 25 103 114 
213 25 1 103 
214 103 104 115 
215 115 104 116 
216 104 105 116 
217 116 105 117 
218 105 106 117 
219 117 106 118 
220 106 119 118 
221 106 107 119 
222 107 120 119 
223 107 108 120 
224 108 121 120 
225 108 109 121 
226 109 110 121 
227 121 110 122 
228 110 111 122 
229 122 111 123 
230 111 112 123 
231 123 112 124 
232 112 125 124 
233 112 113 125 
234 113 126 125 
235 113 114 126 
236 114 115 126 
237 114 103 115 
238 115 116 127 
239 127 116 128 
240 116 117 128 
241 128 117 129 
242 117 118 129 
243 129 118 130 
244 118 131 130 
245 118 119 131 
246 119 132 131 
247 119 120 132 
248 120 133 132 
249 120 121 133 
250 121 122 133 
251 133 122 134 
252 122 123 134 
253 134 123 135 
254 123 124 135 
255 135 124 136 
256 124 137 136 
257 124 125 137 
258 125 138 137 
259 125 126 138 
260 126 127 138 
261 126 115 127 
262 127 140 139 
263 127 128 140 
264 128 141 140 
265 128 129 141 
266 129 142 141 
267 129 130 142 
268 130 131 142 
269 142 131 143 
270 131 132 143 
271 143 132 144 
272 132 133 144 
273 144 133 145 
274 133 146 145 
275 133 134 146 
276 134 147 146 
277 134 135 147 
278 135 148 147 
279 135 136 148 
280 136 137 148 
281 148 137 149 
282 137 138 149 
283 149 138 150 
284 138 127 150 
285 150 127 139 
286 139 152 151 
287 139 140 152 
288 140 153 152 
289 140 141 153 
290 141 154 153 
291 141 142 154 
292 142 143 154 
293 154 143 155 
294 143 144 155 
295 155 144 156 
296 144 145 156 
297 156 145 157 
298 145 158 157 
299 145 146 158 
300 146 159 158 
301 146 147 159 
302 147 160 159 
303 147 148 160 
304 148 149 160 
305 160 149 161 
306 149 150 161 
307 161 150 162 
308 150 139 162 
309 162 139 151 
310 151 164 163 
311 151 152 164 
312 152 165 164 
313 152 153 165 
314 153 166 165 
315 153 154 166 
316 154 155 166 
317 166 155 167 
318 155 156 167 
319 167 156 168 
320 156 157 168 
321 168 157 169 
322 157 170 169 
323 157 158 170 
324 158 171 170 
325 158 159 171 
326 159 172 171 
327 159 160 172 
328 160 161 172 
329 172 161 173 
330 161 162 173 
331 173 162 174 
332 162 151 174 
333 174 151 163 
334 163 176 175 
335 163 164 176 
336 164 177 176 
337 164 165 177 
338 165 178 177 
339 165 166 178 
340 166 167 178 
341 178 167 179 
342 167 168 179 
343 179 168 180 
344 168 169 180 
345 180 169 181 
346 169 182 181 
347 169 170 182 
348 170 183 182 
349 170 171 183 
350 171 184 183 
351 171 172 184 
352 172 173 184 
353 184 173 185 
354 173 174 185 
355 185 174 186 
356 174 163 186 
357 186 163 175 
358 175 176 187 
359 176 188 187 
360 176 177 188 
361 177 189 188 
362 177 178 189 
363 178 179 189 
364 189 179 190 
365 179 180 190 
366 190 180 191 
367 180 181 191 
368 181 182 191 
369 182 190 191 
370 182 183 190 
371 183 189 190 
372 183 184 189 
373 184 185 189 
374 189 185 188 
375 185 186 188 
376 188 186 187 
377 186 175 187 
$EndElements
